<svg xmlns="http://www.w3.org/2000/svg" xmlns:xlink="http://www.w3.org/1999/xlink" width="1080" zoomAndPan="magnify" viewBox="0 0 810 809.999993" height="1080" preserveAspectRatio="xMidYMid meet" version="1.0"><path fill="#79cbbb" d="M 673.863281 13.390625 C 665.960938 4.878906 654.773438 0 643.160156 0 L 167.039062 0 C 155.429688 0 144.238281 4.878906 136.335938 13.390625 C 128.4375 21.898438 124.398438 33.417969 125.257812 44.992188 L 177.160156 745.332031 C 179.847656 781.59375 210.4375 810 246.796875 810 L 563.402344 810 C 599.761719 810 630.347656 781.59375 633.035156 745.332031 L 684.941406 44.992188 C 685.800781 33.414062 681.761719 21.894531 673.863281 13.390625 Z M 605.183594 743.269531 C 603.574219 765.023438 585.21875 782.066406 563.402344 782.066406 L 246.796875 782.066406 C 224.980469 782.066406 206.625 765.023438 205.011719 743.269531 L 153.113281 42.925781 C 152.824219 39.007812 154.132812 35.269531 156.804688 32.390625 C 159.472656 29.511719 163.113281 27.929688 167.039062 27.929688 L 643.160156 27.929688 C 647.089844 27.929688 650.722656 29.511719 653.394531 32.390625 C 656.066406 35.265625 657.378906 39.007812 657.089844 42.925781 Z M 605.183594 743.269531 " fill-opacity="1" fill-rule="nonzero"/><path fill="#79cbbb" d="M 473.28125 363.8125 C 417.414062 414.269531 360.644531 407.0625 281.355469 347.589844 C 259.449219 331.160156 240.503906 328.285156 224.550781 332.71875 C 211.929688 336.230469 203.765625 348.480469 204.734375 361.542969 L 232.871094 741.203125 C 233.398438 748.3125 239.664062 754.132812 246.796875 754.132812 L 563.40625 754.132812 C 570.539062 754.132812 576.800781 748.3125 577.328125 741.203125 L 608.339844 322.753906 C 609.816406 302.832031 590.386719 287.476562 571.578125 294.210938 C 537.519531 306.410156 502.984375 336.988281 473.28125 363.8125 Z M 473.28125 363.8125 " fill-opacity="1" fill-rule="nonzero"/></svg>