<svg xmlns="http://www.w3.org/2000/svg" xmlns:xlink="http://www.w3.org/1999/xlink" width="1080" zoomAndPan="magnify" viewBox="0 0 810 809.999993" height="1080" preserveAspectRatio="xMidYMid meet" version="1.0"><defs><clipPath id="dd6d48ca1a"><path d="M 77.328125 442 L 542 442 L 542 808.386719 L 77.328125 808.386719 Z M 77.328125 442 " clip-rule="nonzero"/></clipPath><clipPath id="4f43ca559e"><path d="M 414.453125 482.617188 L 809.996094 482.617188 L 809.996094 727.542969 L 414.453125 727.542969 Z M 414.453125 482.617188 " clip-rule="nonzero"/></clipPath></defs><path fill="#79cbbb" d="M 301.640625 204.917969 C 300.144531 211.699219 304.429688 218.40625 311.210938 219.902344 C 317.992188 221.398438 324.699219 217.117188 326.195312 210.335938 C 339.777344 148.777344 339.265625 88.722656 324.714844 31.492188 C 362.3125 41.242188 390.980469 57.234375 415.898438 82.03125 C 446.007812 112.015625 466.207031 150.957031 474.324219 194.664062 C 475.695312 202.046875 476.941406 209.359375 478.152344 216.433594 C 487.421875 270.777344 496.183594 322.105469 561.09375 412.769531 C 563.09375 415.566406 566.15625 417.421875 569.566406 417.902344 C 572.972656 418.378906 576.429688 417.4375 579.125 415.300781 C 613.820312 387.789062 633.527344 341.902344 643.953125 308.253906 C 648.433594 293.792969 652.058594 278.589844 654.472656 264.992188 C 673.828125 297.039062 687.726562 332.617188 695.917969 371.160156 C 706.183594 419.46875 706.660156 470.871094 697.304688 519.808594 C 696 526.632812 700.476562 533.214844 707.292969 534.519531 C 708.089844 534.671875 708.886719 534.746094 709.667969 534.746094 C 715.578125 534.742188 720.851562 530.554688 722.003906 524.53125 C 731.980469 472.328125 731.464844 417.488281 720.511719 365.933594 C 708.980469 311.65625 686.832031 262.792969 654.691406 220.703125 C 651.0625 215.957031 644.597656 214.417969 639.21875 217.019531 C 633.886719 219.605469 631.082031 225.558594 632.480469 231.308594 C 633.394531 236.691406 630.785156 266.402344 619.457031 302.347656 C 605.734375 345.882812 588.199219 371.585938 573.445312 386.613281 C 519.269531 307.929688 511.671875 263.398438 502.933594 212.203125 C 501.710938 205.042969 500.449219 197.632812 499.042969 190.070312 C 489.996094 141.328125 467.382812 97.8125 433.640625 64.214844 C 400.644531 31.375 362.25 12.277344 309.160156 2.296875 C 304.8125 1.476562 300.351562 3.003906 297.421875 6.316406 C 294.488281 9.628906 293.511719 14.238281 294.851562 18.453125 C 313.617188 77.550781 315.902344 140.285156 301.640625 204.917969 " fill-opacity="1" fill-rule="nonzero"/><g clip-path="url(#dd6d48ca1a)"><path fill="#79cbbb" d="M 523.222656 754.585938 C 482.328125 773.777344 436.308594 783.21875 390.300781 783.214844 C 331.167969 783.214844 272.066406 767.609375 223.957031 737.042969 C 186.792969 713.429688 157.519531 682.199219 136.945312 644.214844 C 114.164062 602.152344 102.609375 552.582031 102.609375 496.886719 C 102.609375 483.710938 103.507812 470.15625 105.277344 456.601562 C 106.175781 449.71875 101.324219 443.40625 94.4375 442.507812 C 87.554688 441.609375 81.242188 446.457031 80.34375 453.34375 C 78.433594 467.976562 77.464844 482.625 77.464844 496.886719 C 77.464844 556.808594 90.035156 610.410156 114.835938 656.191406 C 137.46875 697.984375 169.648438 732.328125 210.472656 758.265625 C 256.945312 787.792969 312.722656 804.96875 371.765625 807.925781 C 377.921875 808.234375 384.050781 808.386719 390.171875 808.386719 C 441.03125 808.386719 490.382812 797.773438 533.902344 777.351562 C 540.191406 774.402344 542.894531 766.914062 539.945312 760.628906 C 536.996094 754.34375 529.507812 751.636719 523.222656 754.585938 " fill-opacity="1" fill-rule="nonzero"/></g><path fill="#79cbbb" d="M 25.179688 332.773438 C 25.179688 332.511719 25.179688 332.203125 25.171875 331.855469 C 25.175781 331.722656 25.179688 331.589844 25.179688 331.457031 C 25.179688 328.882812 26.046875 326.441406 27.621094 324.582031 C 34.253906 316.738281 50.355469 303 87.039062 291.328125 L 87.039062 316.613281 C 87.039062 323.558594 92.667969 329.1875 99.609375 329.1875 C 106.550781 329.1875 112.183594 323.558594 112.183594 316.613281 L 112.183594 284.507812 C 134.996094 279.257812 160.863281 275.539062 189.714844 273.375 L 189.714844 299.746094 C 189.714844 306.6875 195.347656 312.316406 202.289062 312.316406 C 209.234375 312.316406 214.859375 306.6875 214.859375 299.746094 L 214.859375 271.921875 C 238.898438 270.902344 264.761719 270.851562 292.398438 271.757812 L 292.398438 299.75 C 292.398438 306.691406 298.023438 312.320312 304.96875 312.320312 C 311.910156 312.320312 317.542969 306.691406 317.542969 299.75 L 317.542969 272.828125 C 334.433594 273.707031 351.925781 274.902344 370.03125 276.445312 L 370.03125 360.566406 C 304.070312 355.039062 244.886719 354.433594 193.921875 358.773438 C 149.878906 362.523438 111.730469 369.964844 80.527344 380.902344 C 53.597656 390.332031 36.152344 400.847656 25.191406 409.398438 Z M 31.480469 468.066406 C 27.410156 464.660156 25.410156 460.851562 25.195312 456.09375 L 25.195312 454.304688 C 25.527344 446.652344 29.890625 439.769531 29.890625 439.765625 C 30.054688 439.515625 30.015625 439.605469 30.113281 439.421875 C 34.8125 432.496094 53.878906 416.179688 93.25 403.128906 C 177.101562 375.328125 296.25 378.910156 381.441406 386.816406 C 384.964844 387.144531 388.460938 385.972656 391.074219 383.589844 C 393.683594 381.207031 395.175781 377.835938 395.175781 374.296875 L 395.175781 264.933594 C 395.175781 258.433594 390.222656 253.007812 383.75 252.414062 C 356.71875 249.941406 330.9375 248.1875 306.410156 247.140625 C 305.9375 247.085938 305.457031 247.054688 304.96875 247.054688 C 304.859375 247.054688 304.753906 247.066406 304.644531 247.070312 C 268.238281 245.5625 234.636719 245.644531 203.949219 247.296875 C 203.40625 247.226562 202.851562 247.179688 202.289062 247.179688 C 201.242188 247.179688 200.230469 247.320312 199.253906 247.558594 C 162.523438 249.761719 130.046875 254.261719 102.015625 261.066406 C 46.253906 274.609375 20.34375 294.25 8.421875 308.339844 C 3.027344 314.722656 0.046875 322.90625 0.0351562 331.394531 C 0.0351562 331.398438 0.0351562 331.414062 0.0351562 331.445312 C 0.0351562 331.449219 0.0351562 331.453125 0.0351562 331.460938 C 0.0351562 331.460938 0.0351562 331.46875 0.0351562 331.472656 C 0.0351562 334.726562 0.0507812 436.789062 0.0507812 453.90625 C 0.0273438 454.84375 0.0273438 455.789062 0.0585938 456.742188 C 0.46875 468.730469 5.75 479.3125 15.328125 487.339844 C 17.683594 489.3125 20.546875 490.273438 23.394531 490.273438 C 26.984375 490.273438 30.554688 488.742188 33.039062 485.773438 C 37.5 480.457031 36.800781 472.527344 31.480469 468.066406 " fill-opacity="1" fill-rule="nonzero"/><g clip-path="url(#4f43ca559e)"><path fill="#79cbbb" d="M 782.410156 648.414062 C 775.773438 656.257812 759.671875 669.992188 722.992188 681.664062 L 722.992188 656.378906 C 722.992188 649.433594 717.363281 643.804688 710.421875 643.804688 C 703.476562 643.804688 697.847656 649.433594 697.847656 656.378906 L 697.847656 688.480469 C 675.03125 693.738281 649.164062 697.453125 620.3125 699.617188 L 620.3125 673.246094 C 620.3125 666.300781 614.683594 660.671875 607.738281 660.671875 C 600.800781 660.671875 595.167969 666.300781 595.167969 673.246094 L 595.167969 701.070312 C 571.128906 702.085938 545.273438 702.140625 517.636719 701.230469 L 517.636719 673.242188 C 517.636719 666.296875 512.007812 660.671875 505.0625 660.671875 C 498.117188 660.671875 492.492188 666.296875 492.492188 673.242188 L 492.492188 700.160156 C 475.597656 699.289062 458.101562 698.089844 439.996094 696.546875 L 439.996094 612.425781 C 505.960938 617.949219 565.140625 618.558594 616.105469 614.21875 C 660.148438 610.46875 698.304688 603.023438 729.503906 592.089844 C 756.433594 582.65625 773.878906 572.144531 784.839844 563.589844 L 784.84375 575.136719 C 784.847656 606.910156 784.851562 640.0625 784.851562 641.550781 C 784.847656 644.113281 783.980469 646.550781 782.410156 648.414062 Z M 809.996094 641.210938 L 809.976562 519.085938 C 810.003906 518.152344 810.003906 517.207031 809.96875 516.25 C 809.5625 504.257812 804.285156 493.679688 794.703125 485.652344 C 789.378906 481.191406 781.449219 481.894531 776.988281 487.214844 C 772.53125 492.539062 773.230469 500.464844 778.554688 504.925781 C 782.617188 508.332031 784.617188 512.140625 784.832031 516.894531 L 784.832031 518.691406 C 784.503906 526.34375 780.140625 533.222656 780.136719 533.226562 C 779.972656 533.472656 780.015625 533.386719 779.914062 533.570312 C 775.21875 540.5 756.148438 556.8125 716.785156 569.863281 C 632.933594 597.667969 513.777344 594.078125 428.589844 586.175781 C 425.066406 585.851562 421.570312 587.019531 418.957031 589.402344 C 416.34375 591.785156 414.851562 595.15625 414.851562 598.691406 L 414.851562 708.054688 C 414.851562 714.558594 419.808594 719.984375 426.277344 720.578125 C 453.324219 723.054688 479.117188 724.808594 503.652344 725.855469 C 504.117188 725.90625 504.585938 725.941406 505.0625 725.941406 C 505.15625 725.941406 505.25 725.925781 505.34375 725.925781 C 522.675781 726.640625 539.378906 727.003906 555.429688 727.003906 C 573.113281 727.003906 590.007812 726.566406 606.105469 725.695312 C 606.640625 725.765625 607.183594 725.816406 607.738281 725.816406 C 608.789062 725.816406 609.800781 725.671875 610.769531 725.429688 C 647.503906 723.234375 679.988281 718.730469 708.011719 711.925781 C 763.773438 698.386719 789.6875 678.742188 801.605469 664.648438 C 807.015625 658.253906 809.996094 650.042969 809.996094 641.53125 C 809.996094 641.480469 809.996094 641.425781 809.996094 641.371094 C 809.996094 641.320312 809.996094 641.265625 809.996094 641.210938 " fill-opacity="1" fill-rule="nonzero"/></g><path fill="#79cbbb" d="M 501.445312 406.09375 L 501.445312 537.769531 C 501.445312 544.714844 507.074219 550.34375 514.015625 550.34375 C 520.960938 550.34375 526.589844 544.714844 526.589844 537.769531 L 526.589844 406.09375 C 526.589844 399.152344 520.960938 393.519531 514.015625 393.519531 C 507.074219 393.519531 501.445312 399.152344 501.445312 406.09375 " fill-opacity="1" fill-rule="nonzero"/><path fill="#79cbbb" d="M 255.765625 436.324219 C 250.863281 431.40625 242.90625 431.386719 237.980469 436.285156 L 207.257812 466.882812 L 207.257812 406.09375 C 207.257812 399.152344 201.628906 393.519531 194.683594 393.519531 C 187.742188 393.519531 182.113281 399.152344 182.113281 406.09375 L 182.113281 537.769531 C 182.113281 544.714844 187.742188 550.34375 194.683594 550.34375 C 201.628906 550.34375 207.257812 544.714844 207.257812 537.769531 L 207.257812 516.082031 L 237.980469 546.679688 C 240.4375 549.125 243.644531 550.34375 246.855469 550.34375 C 250.078125 550.34375 253.308594 549.109375 255.765625 546.644531 C 260.660156 541.722656 260.644531 533.761719 255.722656 528.859375 L 218.1875 491.484375 L 255.722656 454.105469 C 260.644531 449.203125 260.660156 441.246094 255.765625 436.324219 " fill-opacity="1" fill-rule="nonzero"/><path fill="#79cbbb" d="M 325.644531 457.773438 C 333.808594 457.773438 341.617188 462.976562 346.539062 471.695312 C 349.949219 477.742188 357.617188 479.878906 363.664062 476.464844 C 369.710938 473.054688 371.851562 465.386719 368.4375 459.339844 C 358.996094 442.617188 343.003906 432.628906 325.644531 432.628906 C 297.480469 432.628906 274.5625 459.035156 274.5625 491.488281 C 274.5625 523.9375 297.480469 550.34375 325.644531 550.34375 C 343.003906 550.34375 358.996094 540.359375 368.4375 523.632812 C 371.851562 517.585938 369.710938 509.914062 363.664062 506.503906 C 357.617188 503.09375 349.949219 505.230469 346.539062 511.277344 C 341.617188 519.992188 333.808594 525.199219 325.644531 525.199219 C 311.347656 525.199219 299.707031 510.074219 299.707031 491.488281 C 299.707031 472.898438 311.347656 457.773438 325.644531 457.773438 " fill-opacity="1" fill-rule="nonzero"/><path fill="#79cbbb" d="M 417.980469 507.148438 L 431.0625 473.878906 L 444.148438 507.148438 Z M 431.0625 432.824219 C 424.457031 432.824219 418.628906 436.792969 416.214844 442.9375 L 380.726562 533.167969 C 378.1875 539.632812 381.363281 546.929688 387.828125 549.46875 C 394.289062 552.011719 401.585938 548.832031 404.128906 542.371094 L 408.09375 532.292969 L 454.035156 532.292969 L 458 542.371094 C 459.945312 547.324219 464.6875 550.347656 469.703125 550.347656 C 471.230469 550.347656 472.789062 550.066406 474.300781 549.46875 C 480.761719 546.929688 483.941406 539.632812 481.398438 533.167969 L 445.914062 442.9375 C 443.496094 436.792969 437.667969 432.824219 431.0625 432.824219 " fill-opacity="1" fill-rule="nonzero"/></svg>