<svg xmlns="http://www.w3.org/2000/svg" xmlns:xlink="http://www.w3.org/1999/xlink" width="1080" zoomAndPan="magnify" viewBox="0 0 810 809.999993" height="1080" preserveAspectRatio="xMidYMid meet" version="1.0"><defs><clipPath id="c56e3304c2"><path d="M 195 0 L 682.820312 0 L 682.820312 810 L 195 810 Z M 195 0 " clip-rule="nonzero"/></clipPath><clipPath id="1f91dc3441"><path d="M 127.070312 358 L 290 358 L 290 520 L 127.070312 520 Z M 127.070312 358 " clip-rule="nonzero"/></clipPath></defs><path fill="#79cbbb" d="M 470.558594 246.277344 C 486.582031 227.207031 487.644531 196.324219 483.699219 172.664062 C 479.757812 149.007812 457.410156 133.230469 434.1875 133.230469 C 410.964844 133.230469 388.613281 149.007812 384.675781 172.664062 C 380.730469 196.324219 382.300781 226.792969 397.816406 246.277344 C 423.5625 278.605469 454.351562 265.558594 470.558594 246.277344 Z M 470.558594 246.277344 " fill-opacity="1" fill-rule="nonzero"/><path fill="#79cbbb" d="M 545.484375 339.125 C 545.484375 339.125 550.914062 306.242188 530.585938 293.117188 C 499.628906 273.140625 370.144531 272.464844 337.796875 293.117188 C 317.402344 306.140625 322.898438 339.125 322.898438 339.125 L 321.226562 506.835938 C 321.226562 518.316406 330.710938 527.585938 342.269531 527.238281 C 353.4375 526.902344 362.046875 517.152344 362.046875 505.976562 L 362.046875 352.34375 L 363.476562 356.898438 C 369.292969 375.445312 372.253906 394.765625 372.253906 414.207031 L 372.253906 734.304688 C 372.253906 746.535156 381.480469 757.214844 393.6875 758.003906 C 407.058594 758.867188 418.175781 748.277344 418.175781 735.09375 L 418.175781 540.296875 C 418.175781 532.007812 424.898438 525.289062 433.1875 525.289062 C 441.476562 525.289062 448.195312 532.007812 448.195312 540.296875 L 448.195312 734.304688 C 448.195312 746.535156 457.425781 757.214844 469.628906 758.003906 C 483 758.867188 494.121094 748.277344 494.121094 735.09375 L 494.121094 419.636719 C 494.121094 396.65625 498.257812 373.859375 506.332031 352.34375 L 506.332031 401.210938 L 506.429688 401.210938 L 506.429688 505.980469 C 506.429688 517.15625 515.039062 526.902344 526.207031 527.238281 C 537.765625 527.585938 547.25 518.320312 547.25 506.839844 Z M 545.484375 339.125 " fill-opacity="1" fill-rule="nonzero"/><g clip-path="url(#c56e3304c2)"><path fill="#79cbbb" d="M 682.328125 810.0625 L 195.136719 810.0625 L 195.136719 497.703125 L 221.832031 497.703125 L 221.832031 783.363281 L 655.628906 783.363281 L 655.628906 -0.0625 L 682.328125 -0.0625 Z M 682.328125 810.0625 " fill-opacity="1" fill-rule="nonzero"/></g><path fill="#79cbbb" d="M 610.242188 708.609375 L 668.976562 708.609375 L 668.976562 735.308594 L 610.242188 735.308594 Z M 610.242188 708.609375 " fill-opacity="1" fill-rule="nonzero"/><path fill="#79cbbb" d="M 610.242188 633.859375 L 668.976562 633.859375 L 668.976562 660.554688 L 610.242188 660.554688 Z M 610.242188 633.859375 " fill-opacity="1" fill-rule="nonzero"/><path fill="#79cbbb" d="M 610.242188 559.105469 L 668.976562 559.105469 L 668.976562 585.804688 L 610.242188 585.804688 Z M 610.242188 559.105469 " fill-opacity="1" fill-rule="nonzero"/><path fill="#79cbbb" d="M 610.242188 484.351562 L 668.976562 484.351562 L 668.976562 511.050781 L 610.242188 511.050781 Z M 610.242188 484.351562 " fill-opacity="1" fill-rule="nonzero"/><path fill="#79cbbb" d="M 583.546875 409.601562 L 668.976562 409.601562 L 668.976562 436.296875 L 583.546875 436.296875 Z M 583.546875 409.601562 " fill-opacity="1" fill-rule="nonzero"/><path fill="#79cbbb" d="M 610.242188 334.847656 L 668.976562 334.847656 L 668.976562 361.542969 L 610.242188 361.542969 Z M 610.242188 334.847656 " fill-opacity="1" fill-rule="nonzero"/><path fill="#79cbbb" d="M 610.242188 260.09375 L 668.976562 260.09375 L 668.976562 286.792969 L 610.242188 286.792969 Z M 610.242188 260.09375 " fill-opacity="1" fill-rule="nonzero"/><path fill="#79cbbb" d="M 610.242188 185.339844 L 668.976562 185.339844 L 668.976562 212.039062 L 610.242188 212.039062 Z M 610.242188 185.339844 " fill-opacity="1" fill-rule="nonzero"/><path fill="#79cbbb" d="M 610.242188 110.589844 L 668.976562 110.589844 L 668.976562 137.285156 L 610.242188 137.285156 Z M 610.242188 110.589844 " fill-opacity="1" fill-rule="nonzero"/><path fill="#79cbbb" d="M 583.546875 35.835938 L 668.976562 35.835938 L 668.976562 62.535156 L 583.546875 62.535156 Z M 583.546875 35.835938 " fill-opacity="1" fill-rule="nonzero"/><g clip-path="url(#1f91dc3441)"><path fill="#79cbbb" d="M 208.484375 519.882812 C 163.925781 519.882812 127.667969 483.632812 127.667969 439.070312 C 127.667969 394.507812 163.921875 358.253906 208.484375 358.253906 C 253.046875 358.253906 289.296875 394.507812 289.296875 439.070312 C 289.296875 483.632812 253.046875 519.882812 208.484375 519.882812 Z M 208.484375 384.953125 C 178.640625 384.953125 154.363281 409.230469 154.363281 439.070312 C 154.363281 468.910156 178.640625 493.191406 208.484375 493.191406 C 238.324219 493.191406 262.601562 468.910156 262.601562 439.070312 C 262.601562 409.230469 238.320312 384.953125 208.484375 384.953125 Z M 208.484375 384.953125 " fill-opacity="1" fill-rule="nonzero"/></g><path fill="#79cbbb" d="M 189.496094 441.09375 C 189.496094 453.199219 199.308594 463.011719 211.417969 463.011719 C 223.523438 463.011719 233.335938 453.199219 233.335938 441.09375 C 233.335938 428.984375 223.523438 419.171875 211.417969 419.171875 C 208.863281 419.171875 206.425781 419.628906 204.148438 420.429688 L 166.042969 393.5625 L 190.476562 434.585938 C 189.839844 436.640625 189.496094 438.828125 189.496094 441.09375 Z M 189.496094 441.09375 " fill-opacity="1" fill-rule="nonzero"/></svg>