<svg xmlns="http://www.w3.org/2000/svg" xmlns:xlink="http://www.w3.org/1999/xlink" width="1080" zoomAndPan="magnify" viewBox="0 0 810 809.999993" height="1080" preserveAspectRatio="xMidYMid meet" version="1.0"><path fill="#79cbbb" d="M 497.589844 739.332031 C 503.957031 737.605469 510.515625 741.363281 512.242188 747.730469 C 513.96875 754.097656 510.210938 760.65625 503.84375 762.382812 C 328.808594 809.957031 143.34375 723.097656 68.777344 555.542969 C 0.238281 401.535156 44.054688 221.429688 175.058594 116.398438 L 146.882812 116.851562 C 140.308594 116.953125 134.898438 111.710938 134.792969 105.136719 C 134.691406 98.566406 139.9375 93.152344 146.507812 93.050781 L 212.605469 91.984375 C 220.371094 91.863281 226.101562 99.0625 224.394531 106.539062 L 209.605469 170.96875 C 208.136719 177.386719 201.742188 181.398438 195.328125 179.929688 C 188.910156 178.460938 184.898438 172.066406 186.367188 165.652344 L 194.179688 131.652344 C 69.371094 228.65625 25.472656 399.660156 90.527344 545.835938 C 160.367188 702.773438 333.710938 783.867188 497.589844 739.332031 Z M 203.1875 372.980469 C 335.902344 326.761719 458.316406 259.167969 564.484375 166.714844 L 562.632812 179.425781 C 561.707031 185.945312 566.242188 191.984375 572.761719 192.910156 C 579.28125 193.839844 585.320312 189.304688 586.246094 182.785156 L 592.839844 137.457031 C 593.878906 130.089844 587.9375 123.496094 580.433594 123.878906 L 534.699219 126.359375 C 528.125 126.695312 523.070312 132.296875 523.402344 138.867188 C 523.738281 145.441406 529.339844 150.496094 535.910156 150.160156 L 547.929688 149.507812 C 444.246094 239.597656 324.832031 305.394531 195.347656 350.484375 C 189.136719 352.652344 185.855469 359.441406 188.023438 365.652344 C 190.1875 371.863281 196.976562 375.144531 203.1875 372.980469 Z M 192.03125 581.050781 C 183.847656 581.050781 177.152344 587.746094 177.152344 595.929688 C 177.152344 604.113281 183.847656 610.808594 192.03125 610.808594 L 622.007812 610.808594 C 630.191406 610.808594 636.886719 604.113281 636.886719 595.929688 C 636.886719 587.746094 630.191406 581.050781 622.007812 581.050781 Z M 206.703125 430.011719 C 201.769531 430.011719 197.746094 434.035156 197.746094 438.972656 L 197.746094 543.261719 C 197.746094 548.195312 201.769531 552.222656 206.703125 552.222656 L 252.488281 552.222656 C 257.421875 552.222656 261.445312 548.195312 261.445312 543.261719 L 261.445312 438.972656 C 261.445312 434.035156 257.421875 430.011719 252.488281 430.011719 Z M 561.554688 238.976562 L 607.335938 238.976562 C 612.273438 238.976562 616.296875 243 616.296875 247.9375 L 616.296875 543.261719 C 616.296875 548.195312 612.273438 552.21875 607.335938 552.21875 L 561.554688 552.21875 C 556.617188 552.21875 552.59375 548.195312 552.59375 543.261719 L 552.59375 247.9375 C 552.59375 243 556.617188 238.976562 561.554688 238.976562 Z M 489.054688 299.121094 L 443.273438 299.121094 C 438.335938 299.121094 434.3125 303.148438 434.3125 308.082031 L 434.3125 543.261719 C 434.3125 548.195312 438.335938 552.21875 443.273438 552.21875 L 489.054688 552.21875 C 493.988281 552.21875 498.015625 548.195312 498.015625 543.261719 L 498.015625 308.082031 C 498.015625 303.148438 493.988281 299.121094 489.054688 299.121094 Z M 370.769531 365.984375 C 355.507812 365.984375 340.25 365.984375 324.988281 365.984375 C 320.050781 365.984375 316.027344 370.007812 316.027344 374.941406 C 316.027344 434.574219 316.027344 483.628906 316.027344 543.261719 C 316.027344 548.199219 320.050781 552.222656 324.988281 552.222656 C 340.25 552.222656 355.507812 552.222656 370.769531 552.222656 C 375.707031 552.222656 379.730469 548.199219 379.730469 543.261719 C 379.730469 483.632812 379.730469 434.574219 379.730469 374.941406 C 379.730469 370.007812 375.707031 365.984375 370.769531 365.984375 Z M 667.160156 693.148438 L 639.007812 693.605469 C 769.117188 589.203125 813.921875 408.738281 745.261719 254.457031 C 670.816406 87.179688 485.4375 -0.0234375 310.195312 47.617188 C 303.828125 49.34375 300.070312 55.90625 301.796875 62.273438 C 303.523438 68.636719 310.085938 72.398438 316.449219 70.671875 C 480.535156 26.0625 653.792969 107.496094 723.515625 264.164062 C 788.554688 410.304688 744.691406 581.386719 619.863281 678.335938 L 627.675781 644.351562 C 629.144531 637.933594 625.132812 631.539062 618.714844 630.070312 C 612.296875 628.601562 605.902344 632.613281 604.433594 639.03125 L 589.644531 703.460938 C 587.941406 710.9375 593.671875 718.140625 601.4375 718.019531 L 667.535156 716.953125 C 674.105469 716.847656 679.351562 711.4375 679.246094 704.863281 C 679.144531 698.292969 673.730469 693.046875 667.160156 693.148438 Z M 667.160156 693.148438 " fill-opacity="1" fill-rule="evenodd"/></svg>