<svg xmlns="http://www.w3.org/2000/svg" xmlns:xlink="http://www.w3.org/1999/xlink" width="1080" zoomAndPan="magnify" viewBox="0 0 810 809.999993" height="1080" preserveAspectRatio="xMidYMid meet" version="1.0"><defs><clipPath id="07f2985291"><path d="M 143.289062 79 L 666.039062 79 L 666.039062 810 L 143.289062 810 Z M 143.289062 79 " clip-rule="nonzero"/></clipPath></defs><g clip-path="url(#07f2985291)"><path fill="#79cbbb" d="M 552.902344 810.394531 L 257.144531 810.394531 C 194.429688 810.394531 143.40625 759.367188 143.40625 696.65625 L 143.40625 277.429688 C 143.40625 199.824219 193.527344 171.398438 232.726562 165.113281 L 232.726562 97.632812 C 232.726562 87.796875 240.699219 79.828125 250.527344 79.828125 L 559.519531 79.828125 C 569.347656 79.828125 577.320312 87.796875 577.320312 97.632812 L 577.320312 165.113281 C 616.519531 171.398438 666.640625 199.824219 666.640625 277.429688 L 666.640625 696.652344 C 666.644531 759.367188 615.621094 810.394531 552.902344 810.394531 Z M 250.140625 199.296875 C 238.269531 199.296875 179.019531 203.0625 179.019531 277.429688 L 179.019531 696.652344 C 179.019531 739.734375 214.070312 774.78125 257.148438 774.78125 L 552.90625 774.78125 C 595.988281 774.78125 631.035156 739.730469 631.035156 696.652344 L 631.035156 277.429688 C 631.035156 203.058594 571.785156 199.296875 559.910156 199.296875 C 555.0625 199.511719 550.507812 197.644531 547.039062 194.292969 C 543.574219 190.941406 541.71875 186.320312 541.71875 181.496094 L 541.71875 115.4375 L 268.335938 115.4375 L 268.335938 181.496094 C 268.335938 186.285156 266.40625 190.875 262.984375 194.222656 C 259.558594 197.570312 254.988281 199.480469 250.140625 199.296875 Z M 250.140625 199.296875 " fill-opacity="1" fill-rule="nonzero"/></g><path fill="#79cbbb" d="M 203.835938 0.0625 L 606.214844 0.0625 L 606.214844 114.367188 L 203.835938 114.367188 Z M 203.835938 0.0625 " fill-opacity="1" fill-rule="nonzero"/><path fill="#79cbbb" d="M 559.519531 199.828125 L 447.898438 199.828125 C 438.066406 199.828125 430.09375 191.859375 430.09375 182.023438 C 430.09375 172.191406 438.066406 164.222656 447.898438 164.222656 L 559.519531 164.222656 C 569.351562 164.222656 577.324219 172.191406 577.324219 182.023438 C 577.324219 191.859375 569.351562 199.828125 559.519531 199.828125 Z M 559.519531 199.828125 " fill-opacity="1" fill-rule="nonzero"/><path fill="#79cbbb" d="M 508.859375 494.136719 L 435.132812 494.136719 L 478.042969 290.261719 L 301.191406 494.136719 L 374.921875 494.136719 L 332.007812 698.011719 Z M 508.859375 494.136719 " fill-opacity="1" fill-rule="nonzero"/></svg>