<svg xmlns="http://www.w3.org/2000/svg" xmlns:xlink="http://www.w3.org/1999/xlink" width="1080" zoomAndPan="magnify" viewBox="0 0 810 809.999993" height="1080" preserveAspectRatio="xMidYMid meet" version="1.0"><defs><clipPath id="09785a00ad"><path d="M 1 3 L 330 3 L 330 807.28125 L 1 807.28125 Z M 1 3 " clip-rule="nonzero"/></clipPath><clipPath id="77ceef7940"><path d="M 565 2.53125 L 794 2.53125 L 794 392 L 565 392 Z M 565 2.53125 " clip-rule="nonzero"/></clipPath></defs><path fill="#79cbbb" d="M 686.277344 307.257812 C 724.429688 246.519531 679.542969 149.433594 679.078125 148.472656 C 678.75 147.792969 678.367188 147.144531 677.933594 146.53125 C 677.496094 145.914062 677.011719 145.339844 676.476562 144.808594 C 675.945312 144.273438 675.371094 143.789062 674.753906 143.351562 C 674.140625 142.917969 673.492188 142.535156 672.8125 142.207031 C 672.132812 141.878906 671.429688 141.613281 670.707031 141.402344 C 669.980469 141.195312 669.242188 141.050781 668.496094 140.964844 C 667.746094 140.878906 666.992188 140.859375 666.242188 140.902344 C 665.488281 140.945312 664.742188 141.050781 664.007812 141.21875 C 663.273438 141.386719 662.558594 141.613281 661.859375 141.902344 C 661.164062 142.191406 660.496094 142.535156 659.855469 142.9375 C 659.21875 143.339844 658.617188 143.789062 658.054688 144.292969 C 657.492188 144.796875 656.976562 145.34375 656.507812 145.933594 C 656.035156 146.519531 655.621094 147.144531 655.253906 147.804688 C 654.890625 148.464844 654.582031 149.152344 654.335938 149.863281 C 654.085938 150.578125 653.898438 151.304688 653.769531 152.046875 C 653.644531 152.792969 653.582031 153.539062 653.582031 154.292969 C 653.582031 165.171875 650 181.472656 639.191406 181.710938 C 638.847656 181.515625 637.332031 179.71875 636.277344 174.5625 C 635.363281 170.050781 634.753906 165.527344 634.136719 161.027344 C 632.277344 147.457031 630.175781 132.074219 620.253906 118.03125 C 608.15625 100.894531 585.601562 75.738281 561.847656 61.234375 C 560.746094 60.566406 559.574219 60.0625 558.332031 59.730469 C 557.085938 59.394531 555.820312 59.242188 554.535156 59.273438 C 553.246094 59.304688 551.988281 59.515625 550.761719 59.910156 C 549.535156 60.304688 548.390625 60.863281 547.324219 61.585938 C 546.257812 62.308594 545.316406 63.167969 544.5 64.160156 C 543.679688 65.15625 543.019531 66.246094 542.515625 67.429688 C 542.011719 68.617188 541.683594 69.847656 541.535156 71.128906 C 541.382812 72.40625 541.417969 73.679688 541.636719 74.949219 L 542.6875 81.042969 C 546.972656 105.640625 550.667969 126.886719 545.945312 149.839844 C 542.617188 166.03125 537.5625 174.09375 534.253906 176.082031 C 533.738281 176.398438 533.023438 176.816406 531.007812 176.222656 C 524.972656 174.441406 498.449219 161.046875 494.792969 158.464844 C 494.777344 158.449219 494.753906 158.445312 494.738281 158.429688 C 494.261719 157.925781 493.75 157.464844 493.199219 157.039062 C 492.652344 156.617188 492.074219 156.238281 491.464844 155.90625 C 490.855469 155.574219 490.226562 155.292969 489.574219 155.058594 C 488.921875 154.824219 488.253906 154.640625 487.574219 154.511719 C 486.894531 154.382812 486.207031 154.308594 485.515625 154.285156 C 484.820312 154.261719 484.132812 154.296875 483.445312 154.382812 C 482.757812 154.46875 482.078125 154.605469 481.414062 154.796875 C 480.746094 154.992188 480.101562 155.234375 479.472656 155.527344 C 478.488281 156 477.570312 156.582031 476.726562 157.277344 C 475.878906 157.972656 475.128906 158.757812 474.472656 159.632812 C 473.816406 160.507812 473.277344 161.449219 472.847656 162.457031 C 472.417969 163.464844 472.117188 164.507812 471.941406 165.585938 C 471.761719 166.984375 471.792969 168.378906 472.039062 169.769531 C 472.285156 171.15625 472.730469 172.476562 473.378906 173.730469 C 473.4375 173.859375 473.433594 173.996094 473.496094 174.121094 L 485.085938 197.304688 C 491.175781 209.277344 487.671875 219.164062 480.960938 235.609375 C 477.371094 244.40625 473.660156 253.496094 472.027344 263.851562 C 466.996094 295.796875 489.34375 326.496094 512.921875 339.15625 C 535.535156 351.308594 563.828125 351.308594 586.558594 351.308594 C 634.359375 351.316406 667.910156 336.492188 686.277344 307.257812 Z M 606.46875 304.804688 C 605.332031 306.84375 603.96875 308.71875 602.378906 310.429688 C 600.785156 312.140625 599.011719 313.632812 597.054688 314.910156 C 595.097656 316.1875 593.019531 317.214844 590.8125 317.984375 C 588.609375 318.757812 586.34375 319.253906 584.019531 319.472656 C 578.84375 319.949219 573.824219 319.265625 568.96875 317.421875 C 560.996094 314.378906 557.121094 305.015625 560.320312 296.539062 C 561.960938 292.203125 566.015625 289.339844 572.492188 285.03125 C 577.933594 281.410156 584.101562 277.300781 589.144531 270.996094 C 592.90625 265.96875 595.578125 260.417969 597.15625 254.339844 L 607.914062 274.851562 C 609 277.222656 609.789062 279.691406 610.285156 282.253906 C 610.777344 284.816406 610.960938 287.398438 610.832031 290.003906 C 610.707031 292.609375 610.273438 295.164062 609.535156 297.664062 C 608.796875 300.167969 607.769531 302.546875 606.460938 304.804688 Z M 663.21875 293.542969 C 655.902344 304.898438 644.605469 313.039062 629.730469 318.15625 C 630.921875 316.078125 631.984375 313.9375 632.917969 311.734375 C 633.851562 309.53125 634.652344 307.28125 635.316406 304.980469 C 635.976562 302.679688 636.5 300.347656 636.882812 297.984375 C 637.265625 295.625 637.507812 293.246094 637.605469 290.855469 C 637.703125 288.460938 637.65625 286.074219 637.464844 283.6875 C 637.273438 281.300781 636.941406 278.9375 636.46875 276.589844 C 635.992188 274.242188 635.378906 271.933594 634.628906 269.664062 C 633.875 267.390625 632.992188 265.171875 631.972656 263.003906 L 598.476562 199.117188 C 598.472656 199.101562 598.464844 199.085938 598.453125 199.070312 C 598.070312 198.34375 597.628906 197.660156 597.121094 197.015625 C 596.613281 196.371094 596.054688 195.777344 595.4375 195.234375 C 594.820312 194.691406 594.164062 194.210938 593.457031 193.789062 C 592.753906 193.367188 592.019531 193.015625 591.25 192.730469 C 590.480469 192.441406 589.695312 192.230469 588.886719 192.085938 C 588.078125 191.945312 587.265625 191.878906 586.445312 191.886719 C 585.625 191.894531 584.8125 191.976562 584.007812 192.132812 C 583.203125 192.289062 582.417969 192.519531 581.65625 192.820312 C 580.890625 193.121094 580.164062 193.488281 579.46875 193.921875 C 578.773438 194.355469 578.121094 194.851562 577.515625 195.40625 C 576.910156 195.957031 576.363281 196.5625 575.867188 197.21875 C 575.375 197.871094 574.941406 198.566406 574.578125 199.300781 C 574.210938 200.03125 573.914062 200.792969 573.683594 201.582031 C 573.457031 202.371094 573.304688 203.171875 573.222656 203.988281 C 573.144531 204.804688 573.136719 205.621094 573.207031 206.4375 C 573.277344 207.253906 573.421875 208.058594 573.636719 208.847656 C 573.945312 212.65625 573.503906 224.945312 573.335938 229.710938 C 573.222656 232.78125 573.152344 235.136719 573.160156 236.023438 C 573.191406 240.101562 571.285156 250.378906 568.1875 254.253906 C 565.757812 257.292969 561.808594 259.921875 557.625 262.703125 C 549.773438 267.9375 539.996094 274.441406 535.226562 287.066406 C 534.238281 289.675781 533.507812 292.355469 533.03125 295.105469 C 532.558594 297.851562 532.347656 300.621094 532.402344 303.410156 C 532.460938 306.199219 532.78125 308.957031 533.367188 311.683594 C 533.949219 314.414062 534.789062 317.058594 535.882812 319.625 C 532.332031 318.59375 528.914062 317.230469 525.625 315.535156 C 510.300781 307.304688 495.585938 286.796875 498.539062 268.035156 C 499.683594 260.765625 502.660156 253.476562 505.808594 245.769531 C 511.289062 232.328125 517.867188 216.222656 513.753906 198.101562 C 516.898438 199.566406 520.117188 200.851562 523.40625 201.957031 C 525.445312 202.613281 527.53125 203.042969 529.660156 203.253906 C 531.789062 203.460938 533.917969 203.441406 536.046875 203.195312 C 538.171875 202.949219 540.25 202.480469 542.273438 201.789062 C 544.300781 201.097656 546.230469 200.199219 548.066406 199.097656 C 559.53125 192.222656 567.664062 177.46875 572.230469 155.257812 C 575.882812 137.507812 575.480469 121.054688 573.535156 104.714844 C 582.679688 113.566406 590.949219 123.164062 598.347656 133.519531 C 604.492188 142.210938 605.917969 152.621094 607.570312 164.675781 C 608.257812 169.75 608.96875 174.859375 610.011719 179.945312 C 615.433594 206.523438 633.4375 208.769531 640.984375 208.617188 C 643.496094 208.550781 645.976562 208.222656 648.417969 207.632812 C 650.863281 207.039062 653.21875 206.199219 655.484375 205.109375 C 657.75 204.015625 659.875 202.699219 661.859375 201.15625 C 663.84375 199.613281 665.648438 197.882812 667.265625 195.957031 C 675.429688 226.9375 680.082031 267.355469 663.207031 293.542969 Z M 663.21875 293.542969 " fill-opacity="1" fill-rule="nonzero"/><g clip-path="url(#09785a00ad)"><path fill="#79cbbb" d="M 68.953125 83.050781 C 68.953125 114.203125 82.867188 146.660156 109.175781 163.316406 L 109.175781 179.1875 L 67.164062 186.902344 C 62.761719 187.007812 58.414062 187.550781 54.125 188.523438 C 23.75 195.597656 1.800781 224.59375 1.945312 257.476562 L 2.566406 424.875 C 2.433594 425.597656 2.316406 426.324219 2.222656 427.054688 C 2.128906 427.785156 2.054688 428.515625 2 429.25 C 1.941406 429.984375 1.910156 430.71875 1.894531 431.453125 C 1.878906 432.191406 1.886719 432.925781 1.910156 433.660156 C 1.9375 434.394531 1.984375 435.128906 2.046875 435.863281 C 2.113281 436.597656 2.199219 437.328125 2.308594 438.054688 C 2.414062 438.78125 2.539062 439.507812 2.683594 440.230469 C 2.832031 440.949219 2.996094 441.667969 3.179688 442.378906 C 3.367188 443.089844 3.570312 443.796875 3.796875 444.5 C 4.019531 445.199219 4.261719 445.894531 4.523438 446.582031 C 4.785156 447.269531 5.066406 447.949219 5.367188 448.621094 C 5.664062 449.292969 5.984375 449.957031 6.320312 450.613281 C 6.65625 451.265625 7.007812 451.910156 7.378906 452.546875 C 7.75 453.183594 8.140625 453.808594 8.542969 454.421875 C 8.949219 455.035156 9.371094 455.636719 9.808594 456.230469 C 10.25 456.820312 10.703125 457.398438 11.171875 457.964844 C 11.644531 458.53125 12.128906 459.082031 12.628906 459.621094 C 13.128906 460.164062 13.644531 460.6875 14.175781 461.199219 C 14.703125 461.710938 15.246094 462.207031 15.804688 462.6875 C 16.359375 463.167969 16.929688 463.632812 17.511719 464.085938 C 18.09375 464.535156 18.6875 464.96875 19.292969 465.386719 C 19.898438 465.804688 20.515625 466.203125 21.144531 466.589844 C 21.773438 466.972656 22.410156 467.335938 23.058594 467.6875 C 23.707031 468.035156 24.363281 468.367188 25.03125 468.679688 C 25.695312 468.992188 26.371094 469.285156 27.054688 469.5625 C 27.734375 469.835938 28.425781 470.09375 29.121094 470.332031 C 29.816406 470.570312 30.519531 470.789062 31.226562 470.988281 C 31.9375 471.1875 32.648438 471.367188 33.367188 471.527344 C 34.085938 471.6875 34.808594 471.824219 35.535156 471.945312 C 36.261719 472.066406 36.988281 472.167969 37.71875 472.25 C 38.453125 472.328125 39.183594 472.390625 39.921875 472.429688 C 40.65625 472.46875 41.390625 472.488281 42.125 472.488281 L 46.695312 472.488281 C 47.761719 472.480469 48.808594 472.347656 49.84375 472.089844 C 50.875 471.832031 51.863281 471.453125 52.804688 470.957031 C 53.746094 470.460938 54.617188 469.859375 55.414062 469.15625 C 56.210938 468.453125 56.917969 467.664062 57.527344 466.789062 L 81.246094 741.410156 C 54.390625 745.527344 42.121094 762.128906 42.121094 793.945312 C 42.121094 794.824219 42.207031 795.695312 42.375 796.558594 C 42.546875 797.425781 42.804688 798.261719 43.140625 799.078125 C 43.476562 799.890625 43.890625 800.664062 44.378906 801.394531 C 44.867188 802.128906 45.425781 802.804688 46.046875 803.429688 C 46.671875 804.050781 47.347656 804.605469 48.082031 805.097656 C 48.8125 805.585938 49.585938 806 50.398438 806.335938 C 51.210938 806.671875 52.050781 806.925781 52.914062 807.097656 C 53.777344 807.269531 54.652344 807.355469 55.53125 807.355469 L 243.3125 807.355469 C 244.191406 807.355469 245.066406 807.269531 245.929688 807.097656 C 246.792969 806.925781 247.628906 806.671875 248.445312 806.335938 C 249.257812 806 250.03125 805.585938 250.761719 805.097656 C 251.496094 804.605469 252.171875 804.050781 252.796875 803.429688 C 253.417969 802.804688 253.976562 802.128906 254.464844 801.394531 C 254.953125 800.664062 255.367188 799.890625 255.703125 799.078125 C 256.039062 798.261719 256.292969 797.425781 256.464844 796.558594 C 256.636719 795.695312 256.722656 794.824219 256.722656 793.945312 C 256.722656 762.125 244.449219 745.523438 217.59375 741.410156 L 241.066406 468.792969 C 242.292969 469.972656 243.695312 470.882812 245.269531 471.523438 C 246.84375 472.164062 248.484375 472.492188 250.183594 472.503906 L 256.703125 472.503906 C 257.441406 472.503906 258.175781 472.484375 258.910156 472.445312 C 259.644531 472.40625 260.378906 472.34375 261.109375 472.261719 C 261.839844 472.183594 262.570312 472.082031 263.296875 471.960938 C 264.023438 471.839844 264.742188 471.699219 265.460938 471.539062 C 266.179688 471.378906 266.894531 471.199219 267.601562 471 C 268.308594 470.800781 269.011719 470.582031 269.710938 470.347656 C 270.40625 470.109375 271.09375 469.851562 271.777344 469.574219 C 272.460938 469.300781 273.132812 469.007812 273.800781 468.695312 C 274.464844 468.382812 275.125 468.050781 275.769531 467.703125 C 276.417969 467.351562 277.058594 466.988281 277.683594 466.601562 C 278.3125 466.21875 278.929688 465.820312 279.535156 465.402344 C 280.140625 464.984375 280.734375 464.550781 281.320312 464.101562 C 281.902344 463.648438 282.46875 463.183594 283.027344 462.703125 C 283.582031 462.222656 284.125 461.726562 284.65625 461.214844 C 285.183594 460.703125 285.699219 460.175781 286.199219 459.636719 C 286.699219 459.097656 287.1875 458.546875 287.65625 457.980469 C 288.128906 457.414062 288.582031 456.835938 289.019531 456.246094 C 289.457031 455.652344 289.878906 455.050781 290.285156 454.4375 C 290.691406 453.824219 291.078125 453.199219 291.449219 452.5625 C 291.820312 451.925781 292.175781 451.28125 292.511719 450.628906 C 292.847656 449.972656 293.164062 449.308594 293.464844 448.636719 C 293.761719 447.964844 294.042969 447.285156 294.304688 446.597656 C 294.566406 445.910156 294.8125 445.214844 295.035156 444.515625 C 295.257812 443.8125 295.464844 443.105469 295.648438 442.394531 C 295.835938 441.683594 296 440.964844 296.144531 440.242188 C 296.292969 439.523438 296.417969 438.796875 296.523438 438.070312 C 296.628906 437.339844 296.714844 436.609375 296.78125 435.878906 C 296.847656 435.144531 296.894531 434.410156 296.917969 433.675781 C 296.945312 432.941406 296.949219 432.203125 296.9375 431.46875 C 296.921875 430.734375 296.886719 430 296.832031 429.265625 C 296.777344 428.53125 296.703125 427.800781 296.605469 427.070312 C 296.511719 426.339844 296.398438 425.613281 296.261719 424.890625 L 296.597656 333.695312 C 299.53125 336.957031 302.253906 340.386719 304.765625 343.980469 C 305.269531 344.703125 305.835938 345.371094 306.46875 345.980469 C 307.101562 346.59375 307.789062 347.136719 308.527344 347.613281 C 309.269531 348.089844 310.046875 348.492188 310.867188 348.8125 C 311.6875 349.136719 312.527344 349.375 313.394531 349.53125 C 314.261719 349.691406 315.132812 349.761719 316.015625 349.746094 C 316.894531 349.730469 317.765625 349.632812 318.625 349.445312 C 319.484375 349.257812 320.320312 348.988281 321.125 348.640625 C 321.933594 348.289062 322.699219 347.863281 323.421875 347.363281 C 324.148438 346.863281 324.816406 346.292969 325.425781 345.660156 C 326.039062 345.03125 326.585938 344.34375 327.0625 343.601562 C 327.539062 342.863281 327.9375 342.085938 328.261719 341.265625 C 328.585938 340.445312 328.828125 339.605469 328.984375 338.738281 C 329.140625 337.871094 329.214844 337 329.199219 336.121094 C 329.1875 335.238281 329.085938 334.367188 328.902344 333.507812 C 328.714844 332.648438 328.449219 331.8125 328.097656 331.007812 C 327.75 330.199219 327.324219 329.433594 326.824219 328.707031 C 321.148438 320.515625 314.644531 313.042969 307.3125 306.289062 C 306.605469 305.644531 305.832031 305.082031 305 304.605469 C 304.167969 304.128906 303.292969 303.75 302.378906 303.460938 C 301.464844 303.175781 300.527344 302.992188 299.570312 302.910156 C 298.617188 302.828125 297.664062 302.847656 296.710938 302.976562 L 296.878906 257.484375 C 297.023438 224.609375 275.082031 195.617188 244.707031 188.539062 C 240.417969 187.566406 236.074219 187.023438 231.675781 186.914062 L 189.648438 179.203125 L 189.648438 163.316406 C 215.972656 146.664062 229.886719 114.191406 229.886719 83.046875 C 229.871094 81.738281 229.820312 80.433594 229.742188 79.128906 C 229.660156 77.828125 229.546875 76.527344 229.40625 75.226562 C 229.261719 73.929688 229.085938 72.636719 228.878906 71.34375 C 228.671875 70.054688 228.433594 68.769531 228.164062 67.492188 C 227.894531 66.214844 227.59375 64.945312 227.265625 63.679688 C 226.933594 62.417969 226.570312 61.164062 226.179688 59.917969 C 225.785156 58.671875 225.363281 57.433594 224.914062 56.210938 C 224.460938 54.984375 223.976562 53.769531 223.464844 52.570312 C 222.953125 51.367188 222.414062 50.175781 221.84375 49.003906 C 221.273438 47.828125 220.675781 46.664062 220.050781 45.519531 C 219.425781 44.371094 218.773438 43.242188 218.089844 42.128906 C 217.410156 41.011719 216.703125 39.914062 215.96875 38.835938 C 215.234375 37.753906 214.472656 36.691406 213.6875 35.648438 C 212.902344 34.605469 212.089844 33.582031 211.253906 32.578125 C 210.417969 31.574219 209.558594 30.59375 208.675781 29.632812 C 207.789062 28.667969 206.882812 27.730469 205.953125 26.8125 C 205.023438 25.894531 204.074219 25 203.101562 24.128906 C 202.125 23.257812 201.132812 22.410156 200.117188 21.585938 C 199.105469 20.765625 198.070312 19.964844 197.015625 19.195312 C 195.964844 18.421875 194.894531 17.675781 193.804688 16.953125 C 192.714844 16.234375 191.605469 15.539062 190.484375 14.875 C 189.359375 14.207031 188.222656 13.566406 187.066406 12.957031 C 185.914062 12.347656 184.742188 11.761719 183.5625 11.210938 C 182.378906 10.65625 181.183594 10.128906 179.972656 9.632812 C 178.765625 9.136719 177.546875 8.671875 176.316406 8.234375 C 175.082031 7.796875 173.84375 7.390625 172.589844 7.015625 C 171.339844 6.640625 170.082031 6.292969 168.8125 5.980469 C 167.546875 5.664062 166.269531 5.382812 164.988281 5.128906 C 163.707031 4.875 162.421875 4.652344 161.128906 4.464844 C 159.835938 4.273438 158.539062 4.113281 157.242188 3.988281 C 155.941406 3.859375 154.636719 3.765625 153.332031 3.703125 C 152.027344 3.640625 150.722656 3.605469 149.417969 3.605469 C 148.109375 3.605469 146.804688 3.640625 145.5 3.703125 C 144.195312 3.765625 142.894531 3.859375 141.59375 3.988281 C 140.292969 4.113281 138.996094 4.273438 137.703125 4.464844 C 136.414062 4.652344 135.125 4.875 133.84375 5.128906 C 132.5625 5.382812 131.289062 5.664062 130.019531 5.980469 C 128.753906 6.292969 127.492188 6.640625 126.242188 7.015625 C 124.992188 7.390625 123.75 7.796875 122.519531 8.234375 C 121.289062 8.671875 120.066406 9.136719 118.859375 9.632812 C 117.652344 10.128906 116.457031 10.65625 115.273438 11.210938 C 114.089844 11.761719 112.921875 12.347656 111.765625 12.957031 C 110.613281 13.566406 109.472656 14.207031 108.351562 14.875 C 107.226562 15.539062 106.121094 16.234375 105.03125 16.953125 C 103.941406 17.675781 102.871094 18.421875 101.816406 19.195312 C 100.761719 19.964844 99.730469 20.765625 98.714844 21.585938 C 97.699219 22.410156 96.707031 23.257812 95.734375 24.128906 C 94.761719 25 93.808594 25.894531 92.878906 26.8125 C 91.949219 27.730469 91.042969 28.667969 90.160156 29.632812 C 89.277344 30.59375 88.414062 31.574219 87.578125 32.578125 C 86.742188 33.582031 85.933594 34.605469 85.144531 35.648438 C 84.359375 36.691406 83.601562 37.753906 82.867188 38.835938 C 82.132812 39.914062 81.421875 41.011719 80.742188 42.128906 C 80.0625 43.242188 79.40625 44.371094 78.78125 45.519531 C 78.15625 46.664062 77.558594 47.828125 76.988281 49.003906 C 76.417969 50.175781 75.878906 51.367188 75.367188 52.570312 C 74.855469 53.769531 74.375 54.984375 73.921875 56.210938 C 73.46875 57.433594 73.046875 58.671875 72.65625 59.917969 C 72.261719 61.164062 71.902344 62.417969 71.570312 63.679688 C 71.238281 64.945312 70.9375 66.214844 70.667969 67.492188 C 70.398438 68.769531 70.160156 70.054688 69.953125 71.34375 C 69.746094 72.636719 69.574219 73.929688 69.429688 75.226562 C 69.285156 76.527344 69.171875 77.828125 69.09375 79.128906 C 69.011719 80.433594 68.964844 81.738281 68.945312 83.046875 Z M 149.429688 147.871094 C 117.917969 147.871094 102.507812 123.027344 97.601562 99.75 C 108.496094 101.578125 119.46875 102.535156 130.515625 102.625 C 147.070312 102.625 163.992188 100.011719 175.742188 91.632812 C 183.679688 97.140625 193.25 97.433594 201.761719 97.054688 C 197.503906 121.066406 182.152344 147.871094 149.421875 147.871094 Z M 162.839844 740.289062 L 162.839844 525.683594 C 162.839844 524.800781 162.753906 523.929688 162.582031 523.066406 C 162.410156 522.203125 162.15625 521.363281 161.820312 520.550781 C 161.484375 519.734375 161.070312 518.960938 160.582031 518.230469 C 160.089844 517.496094 159.535156 516.820312 158.914062 516.199219 C 158.289062 515.574219 157.613281 515.019531 156.878906 514.53125 C 156.148438 514.039062 155.375 513.628906 154.5625 513.289062 C 153.746094 512.953125 152.910156 512.699219 152.046875 512.527344 C 151.179688 512.355469 150.308594 512.269531 149.429688 512.269531 C 148.546875 512.269531 147.675781 512.355469 146.8125 512.527344 C 145.949219 512.699219 145.109375 512.953125 144.296875 513.289062 C 143.480469 513.628906 142.710938 514.039062 141.976562 514.53125 C 141.246094 515.019531 140.566406 515.574219 139.945312 516.199219 C 139.320312 516.820312 138.765625 517.496094 138.277344 518.230469 C 137.785156 518.960938 137.375 519.734375 137.035156 520.550781 C 136.699219 521.363281 136.445312 522.203125 136.273438 523.066406 C 136.101562 523.929688 136.015625 524.800781 136.015625 525.683594 L 136.015625 740.289062 L 108.070312 740.289062 L 82.359375 443.15625 L 82.359375 404.964844 L 216.453125 404.964844 L 216.453125 442.65625 L 190.769531 740.289062 Z M 38.949219 445.289062 C 38.101562 445.082031 37.28125 444.792969 36.488281 444.425781 C 35.695312 444.058594 34.945312 443.617188 34.238281 443.105469 C 33.535156 442.589844 32.882812 442.011719 32.289062 441.371094 C 31.699219 440.730469 31.171875 440.039062 30.714844 439.296875 C 30.253906 438.550781 29.871094 437.769531 29.566406 436.953125 C 29.261719 436.132812 29.035156 435.292969 28.894531 434.433594 C 28.753906 433.570312 28.695312 432.703125 28.722656 431.832031 C 28.75 430.957031 28.859375 430.09375 29.058594 429.242188 C 29.292969 428.234375 29.410156 427.210938 29.402344 426.171875 L 28.773438 257.375 C 28.695312 238.695312 39.730469 222.238281 55.535156 216.230469 L 55.574219 391.324219 C 55.574219 391.410156 55.523438 391.476562 55.523438 391.5625 C 55.523438 391.644531 55.570312 391.714844 55.574219 391.796875 L 55.574219 414.867188 Z M 95.769531 767.113281 L 136.007812 767.113281 L 136.007812 780.527344 L 69.960938 780.527344 C 72.234375 769.679688 78.9375 767.113281 95.769531 767.113281 Z M 228.882812 780.527344 L 162.824219 780.527344 L 162.824219 767.113281 L 203.0625 767.113281 C 219.90625 767.113281 226.609375 769.679688 228.882812 780.527344 Z M 270.058594 257.359375 L 269.429688 426.171875 C 269.421875 427.210938 269.539062 428.234375 269.777344 429.242188 C 269.882812 429.699219 269.960938 430.15625 270.019531 430.621094 C 270.074219 431.082031 270.109375 431.546875 270.117188 432.015625 C 270.125 432.480469 270.109375 432.945312 270.066406 433.410156 C 270.027344 433.875 269.960938 434.335938 269.875 434.796875 C 269.785156 435.253906 269.675781 435.707031 269.539062 436.152344 C 269.402344 436.597656 269.242188 437.035156 269.0625 437.464844 C 268.882812 437.898438 268.679688 438.316406 268.453125 438.722656 C 268.226562 439.132812 267.984375 439.527344 267.714844 439.914062 C 267.449219 440.296875 267.164062 440.664062 266.859375 441.015625 C 266.554688 441.371094 266.234375 441.707031 265.894531 442.027344 C 265.554688 442.34375 265.199219 442.648438 264.828125 442.929688 C 264.453125 443.210938 264.070312 443.472656 263.671875 443.71875 C 263.273438 443.960938 262.863281 444.179688 262.441406 444.378906 C 262.019531 444.578125 261.589844 444.757812 261.148438 444.910156 C 260.707031 445.066406 260.261719 445.199219 259.808594 445.304688 C 259.355469 445.414062 258.894531 445.5 258.433594 445.558594 L 243.230469 415.066406 L 243.230469 391.878906 C 243.230469 391.761719 243.296875 391.667969 243.296875 391.554688 C 243.296875 391.4375 243.234375 391.34375 243.230469 391.230469 L 243.265625 301.195312 C 244.890625 301.613281 246.550781 301.914062 248.148438 302.410156 C 248.992188 302.667969 249.851562 302.84375 250.726562 302.933594 C 251.601562 303.023438 252.480469 303.027344 253.355469 302.945312 C 254.234375 302.863281 255.09375 302.699219 255.9375 302.445312 C 256.78125 302.195312 257.59375 301.863281 258.371094 301.453125 C 259.148438 301.039062 259.882812 300.554688 260.566406 300 C 261.25 299.445312 261.871094 298.828125 262.433594 298.152344 C 262.996094 297.472656 263.484375 296.746094 263.90625 295.972656 C 264.324219 295.195312 264.664062 294.386719 264.921875 293.546875 C 265.183594 292.707031 265.355469 291.847656 265.449219 290.96875 C 265.539062 290.09375 265.542969 289.21875 265.460938 288.339844 C 265.378906 287.464844 265.210938 286.605469 264.960938 285.757812 C 264.707031 284.914062 264.375 284.105469 263.964844 283.324219 C 263.554688 282.546875 263.070312 281.816406 262.515625 281.132812 C 261.960938 280.449219 261.34375 279.828125 260.664062 279.265625 C 259.984375 278.703125 259.257812 278.210938 258.484375 277.792969 C 257.710938 277.375 256.902344 277.035156 256.0625 276.773438 C 251.867188 275.480469 247.585938 274.476562 243.273438 273.601562 L 243.296875 216.222656 C 259.105469 222.230469 270.136719 238.683594 270.058594 257.359375 Z M 216.476562 275.132812 C 215.316406 276.253906 214.390625 277.539062 213.699219 278.996094 C 213.003906 280.453125 212.589844 281.984375 212.453125 283.589844 C 212.386719 284.550781 212.425781 285.511719 212.570312 286.464844 C 212.714844 287.414062 212.960938 288.34375 213.308594 289.242188 C 213.65625 290.140625 214.097656 290.992188 214.632812 291.792969 C 215.167969 292.597656 215.78125 293.332031 216.476562 294 L 216.464844 378.140625 L 82.359375 378.140625 L 82.359375 211.382812 L 110.933594 206.136719 C 112.824219 222.851562 116.667969 240.449219 149.421875 240.449219 C 182.175781 240.449219 186.011719 222.84375 187.90625 206.136719 L 216.484375 211.382812 Z M 162.824219 189.582031 C 162.308594 193.382812 161.90625 196.957031 161.566406 200.128906 C 161.042969 205.078125 160.394531 211.234375 159.796875 212.386719 C 159.71875 212.441406 157.714844 213.632812 149.417969 213.632812 C 146.023438 213.78125 142.667969 213.46875 139.359375 212.695312 C 138.421875 211.132812 137.773438 205.027344 137.257812 200.105469 C 136.921875 196.945312 136.515625 193.375 136 189.578125 L 136 173.476562 C 144.941406 175.125 153.882812 175.125 162.824219 173.476562 Z M 149.410156 29.414062 C 150.894531 29.417969 152.378906 29.484375 153.855469 29.609375 C 155.335938 29.738281 156.804688 29.925781 158.269531 30.175781 C 159.730469 30.421875 161.183594 30.730469 162.621094 31.101562 C 164.058594 31.46875 165.476562 31.898438 166.878906 32.386719 C 168.28125 32.871094 169.660156 33.417969 171.015625 34.019531 C 172.375 34.621094 173.703125 35.277344 175.003906 35.988281 C 176.308594 36.703125 177.578125 37.464844 178.816406 38.285156 C 180.054688 39.101562 181.257812 39.96875 182.425781 40.886719 C 183.589844 41.804688 184.71875 42.769531 185.804688 43.78125 C 186.890625 44.789062 187.933594 45.84375 188.933594 46.941406 C 189.933594 48.039062 190.882812 49.175781 191.789062 50.355469 C 192.691406 51.53125 193.546875 52.742188 194.351562 53.992188 C 195.15625 55.238281 195.90625 56.515625 196.601562 57.828125 C 197.300781 59.136719 197.941406 60.472656 198.53125 61.835938 C 199.117188 63.199219 199.644531 64.585938 200.117188 65.992188 C 200.589844 67.398438 201 68.824219 201.355469 70.265625 C 190.886719 70.820312 190.601562 70.3125 188.964844 65.402344 C 188.746094 64.738281 188.472656 64.097656 188.152344 63.476562 C 187.832031 62.855469 187.460938 62.261719 187.046875 61.699219 C 186.632812 61.136719 186.179688 60.605469 185.679688 60.113281 C 185.183594 59.621094 184.652344 59.171875 184.085938 58.761719 C 183.515625 58.351562 182.921875 57.992188 182.296875 57.675781 C 181.671875 57.359375 181.027344 57.09375 180.363281 56.878906 C 179.695312 56.664062 179.019531 56.5 178.328125 56.394531 C 177.636719 56.285156 176.941406 56.230469 176.242188 56.230469 C 175.542969 56.230469 174.847656 56.285156 174.15625 56.394531 C 173.464844 56.5 172.785156 56.664062 172.121094 56.878906 C 171.453125 57.09375 170.808594 57.359375 170.183594 57.675781 C 169.558594 57.992188 168.964844 58.351562 168.398438 58.761719 C 167.828125 59.171875 167.296875 59.621094 166.800781 60.113281 C 166.304688 60.605469 165.847656 61.136719 165.433594 61.699219 C 165.019531 62.261719 164.652344 62.855469 164.328125 63.476562 C 164.007812 64.097656 163.738281 64.738281 163.515625 65.402344 C 159.429688 77.675781 124.816406 77.363281 96.855469 72.382812 C 97.160156 70.878906 97.53125 69.394531 97.964844 67.925781 C 98.398438 66.457031 98.894531 65.007812 99.453125 63.582031 C 100.007812 62.152344 100.625 60.753906 101.304688 59.378906 C 101.980469 58.003906 102.714844 56.660156 103.507812 55.351562 C 104.300781 54.039062 105.148438 52.765625 106.050781 51.523438 C 106.949219 50.285156 107.902344 49.089844 108.90625 47.929688 C 109.910156 46.773438 110.960938 45.660156 112.0625 44.59375 C 113.160156 43.527344 114.300781 42.507812 115.488281 41.539062 C 116.675781 40.566406 117.898438 39.648438 119.164062 38.785156 C 120.429688 37.921875 121.730469 37.109375 123.0625 36.359375 C 124.398438 35.605469 125.761719 34.910156 127.152344 34.269531 C 128.546875 33.632812 129.964844 33.058594 131.40625 32.542969 C 132.851562 32.027344 134.3125 31.574219 135.792969 31.183594 C 137.277344 30.792969 138.769531 30.464844 140.28125 30.203125 C 141.789062 29.941406 143.308594 29.742188 144.835938 29.609375 C 146.359375 29.476562 147.890625 29.410156 149.421875 29.40625 Z M 149.410156 29.414062 " fill-opacity="1" fill-rule="nonzero"/></g><path fill="#79cbbb" d="M 592.039062 418.378906 C 592.039062 417.5 591.953125 416.625 591.78125 415.761719 C 591.609375 414.898438 591.355469 414.058594 591.015625 413.246094 C 590.679688 412.433594 590.265625 411.660156 589.777344 410.925781 C 589.289062 410.195312 588.734375 409.519531 588.109375 408.894531 C 587.488281 408.273438 586.808594 407.714844 586.078125 407.226562 C 585.34375 406.738281 584.570312 406.324219 583.757812 405.988281 C 582.945312 405.652344 582.105469 405.394531 581.242188 405.222656 C 580.378906 405.050781 579.507812 404.964844 578.625 404.964844 C 574.039062 404.972656 569.453125 404.8125 564.878906 404.480469 C 560.300781 404.148438 555.742188 403.652344 551.203125 402.988281 C 546.664062 402.324219 542.152344 401.492188 537.675781 400.496094 C 533.195312 399.5 528.757812 398.34375 524.363281 397.019531 C 519.96875 395.699219 515.628906 394.21875 511.34375 392.578125 C 507.058594 390.9375 502.839844 389.144531 498.6875 387.195312 C 494.535156 385.246094 490.457031 383.144531 486.457031 380.894531 C 482.457031 378.648438 478.546875 376.253906 474.722656 373.71875 C 470.898438 371.183594 467.171875 368.507812 463.546875 365.699219 C 459.917969 362.890625 456.398438 359.949219 452.984375 356.882812 C 449.574219 353.816406 446.277344 350.625 443.101562 347.316406 C 439.921875 344.007812 436.871094 340.585938 433.945312 337.050781 C 431.015625 333.515625 428.222656 329.878906 425.5625 326.140625 C 422.90625 322.402344 420.386719 318.570312 418.007812 314.648438 C 415.628906 310.722656 413.398438 306.71875 411.3125 302.628906 C 409.226562 298.542969 407.296875 294.382812 405.515625 290.152344 C 403.738281 285.925781 402.117188 281.636719 400.652344 277.285156 C 399.1875 272.9375 397.882812 268.542969 396.742188 264.097656 C 395.601562 259.652344 394.625 255.171875 393.8125 250.65625 C 392.996094 246.140625 392.351562 241.601562 391.871094 237.039062 C 391.390625 232.476562 391.082031 227.902344 390.9375 223.3125 C 390.792969 218.726562 390.816406 214.144531 391.011719 209.558594 C 391.203125 204.972656 391.5625 200.402344 392.09375 195.84375 C 392.621094 191.285156 393.316406 186.753906 394.175781 182.246094 C 395.039062 177.742188 396.0625 173.269531 397.25 168.839844 C 398.441406 164.40625 399.789062 160.027344 401.300781 155.691406 C 402.8125 151.359375 404.480469 147.089844 406.304688 142.878906 C 408.128906 138.667969 410.105469 134.53125 412.234375 130.464844 C 414.359375 126.402344 416.636719 122.417969 419.054688 118.519531 C 421.476562 114.621094 424.035156 110.816406 426.734375 107.109375 C 429.433594 103.398438 432.265625 99.792969 435.230469 96.289062 C 438.195312 92.785156 441.285156 89.398438 444.496094 86.121094 L 444.496094 109.882812 C 444.496094 110.765625 444.582031 111.636719 444.753906 112.5 C 444.925781 113.363281 445.179688 114.203125 445.519531 115.015625 C 445.855469 115.832031 446.269531 116.605469 446.757812 117.335938 C 447.246094 118.066406 447.804688 118.746094 448.425781 119.367188 C 449.046875 119.992188 449.726562 120.546875 450.457031 121.035156 C 451.191406 121.527344 451.964844 121.9375 452.777344 122.277344 C 453.589844 122.613281 454.429688 122.867188 455.292969 123.039062 C 456.15625 123.210938 457.03125 123.296875 457.910156 123.296875 C 458.789062 123.296875 459.664062 123.210938 460.527344 123.039062 C 461.390625 122.867188 462.230469 122.613281 463.042969 122.277344 C 463.855469 121.9375 464.628906 121.527344 465.363281 121.035156 C 466.09375 120.546875 466.773438 119.992188 467.394531 119.367188 C 468.015625 118.746094 468.574219 118.066406 469.0625 117.335938 C 469.550781 116.605469 469.964844 115.832031 470.300781 115.015625 C 470.640625 114.203125 470.894531 113.363281 471.066406 112.5 C 471.238281 111.636719 471.324219 110.765625 471.324219 109.882812 L 471.324219 56.234375 C 471.324219 55.351562 471.238281 54.480469 471.066406 53.617188 C 470.894531 52.753906 470.640625 51.914062 470.300781 51.101562 C 469.964844 50.285156 469.550781 49.511719 469.0625 48.78125 C 468.574219 48.050781 468.015625 47.371094 467.394531 46.75 C 466.773438 46.125 466.09375 45.570312 465.363281 45.082031 C 464.628906 44.589844 463.855469 44.179688 463.042969 43.839844 C 462.230469 43.503906 461.390625 43.25 460.527344 43.078125 C 459.664062 42.90625 458.789062 42.820312 457.910156 42.820312 L 404.257812 42.820312 C 403.378906 42.820312 402.507812 42.90625 401.640625 43.078125 C 400.777344 43.25 399.941406 43.503906 399.125 43.839844 C 398.3125 44.179688 397.539062 44.589844 396.808594 45.082031 C 396.074219 45.570312 395.398438 46.125 394.773438 46.75 C 394.152344 47.371094 393.597656 48.050781 393.105469 48.78125 C 392.617188 49.511719 392.203125 50.285156 391.867188 51.101562 C 391.53125 51.914062 391.277344 52.753906 391.105469 53.617188 C 390.933594 54.480469 390.847656 55.351562 390.847656 56.234375 C 390.847656 57.113281 390.933594 57.984375 391.105469 58.847656 C 391.277344 59.714844 391.53125 60.550781 391.867188 61.367188 C 392.203125 62.179688 392.617188 62.953125 393.105469 63.683594 C 393.597656 64.417969 394.152344 65.09375 394.773438 65.71875 C 395.398438 66.339844 396.074219 66.894531 396.808594 67.386719 C 397.539062 67.875 398.3125 68.289062 399.125 68.625 C 399.941406 68.960938 400.777344 69.214844 401.640625 69.386719 C 402.507812 69.558594 403.378906 69.644531 404.257812 69.644531 L 423.078125 69.644531 C 419.488281 73.421875 416.039062 77.320312 412.730469 81.347656 C 409.425781 85.375 406.269531 89.515625 403.261719 93.773438 C 400.257812 98.03125 397.410156 102.390625 394.726562 106.855469 C 392.039062 111.320312 389.515625 115.875 387.160156 120.523438 C 384.808594 125.171875 382.625 129.902344 380.613281 134.707031 C 378.605469 139.515625 376.773438 144.390625 375.117188 149.332031 C 373.460938 154.273438 371.988281 159.265625 370.699219 164.316406 C 369.410156 169.363281 368.304688 174.453125 367.382812 179.582031 C 366.464844 184.710938 365.734375 189.863281 365.191406 195.046875 C 364.644531 200.230469 364.292969 205.425781 364.128906 210.632812 C 363.960938 215.839844 363.988281 221.046875 364.203125 226.253906 C 364.417969 231.460938 364.820312 236.652344 365.414062 241.828125 C 366.007812 247.003906 366.789062 252.152344 367.757812 257.273438 C 368.726562 262.394531 369.882812 267.472656 371.222656 272.507812 C 372.558594 277.542969 374.082031 282.523438 375.785156 287.449219 C 377.484375 292.371094 379.363281 297.226562 381.421875 302.015625 C 383.476562 306.804688 385.707031 311.511719 388.105469 316.136719 C 390.503906 320.761719 393.070312 325.292969 395.800781 329.730469 C 398.53125 334.167969 401.417969 338.503906 404.464844 342.730469 C 407.511719 346.957031 410.707031 351.070312 414.050781 355.0625 C 417.398438 359.058594 420.882812 362.925781 424.511719 366.664062 C 428.140625 370.40625 431.898438 374.007812 435.789062 377.476562 C 439.679688 380.941406 443.691406 384.261719 447.824219 387.4375 C 451.957031 390.609375 456.199219 393.628906 460.550781 396.492188 C 464.902344 399.359375 469.355469 402.058594 473.90625 404.601562 C 478.453125 407.140625 483.089844 409.511719 487.8125 411.710938 C 492.535156 413.914062 497.332031 415.941406 502.203125 417.792969 C 507.074219 419.644531 512.003906 421.316406 516.996094 422.808594 C 521.988281 424.300781 527.03125 425.609375 532.117188 426.734375 C 537.207031 427.859375 542.328125 428.800781 547.484375 429.550781 C 552.640625 430.300781 557.816406 430.863281 563.015625 431.238281 C 568.210938 431.613281 573.414062 431.796875 578.625 431.792969 C 579.507812 431.792969 580.378906 431.707031 581.242188 431.535156 C 582.105469 431.363281 582.945312 431.109375 583.757812 430.769531 C 584.570312 430.433594 585.34375 430.019531 586.078125 429.53125 C 586.808594 429.042969 587.488281 428.484375 588.109375 427.863281 C 588.734375 427.242188 589.289062 426.5625 589.777344 425.832031 C 590.265625 425.097656 590.679688 424.324219 591.015625 423.511719 C 591.355469 422.699219 591.609375 421.859375 591.78125 420.996094 C 591.953125 420.132812 592.039062 419.261719 592.039062 418.378906 Z M 592.039062 418.378906 " fill-opacity="1" fill-rule="nonzero"/><g clip-path="url(#77ceef7940)"><path fill="#79cbbb" d="M 565.210938 15.996094 C 565.210938 16.875 565.296875 17.746094 565.46875 18.609375 C 565.640625 19.476562 565.898438 20.3125 566.234375 21.128906 C 566.570312 21.941406 566.984375 22.714844 567.472656 23.445312 C 567.960938 24.179688 568.519531 24.855469 569.140625 25.480469 C 569.765625 26.101562 570.441406 26.65625 571.175781 27.148438 C 571.90625 27.636719 572.679688 28.050781 573.492188 28.386719 C 574.304688 28.722656 575.144531 28.976562 576.007812 29.148438 C 576.871094 29.320312 577.746094 29.40625 578.625 29.40625 C 583.214844 29.402344 587.796875 29.5625 592.375 29.894531 C 596.949219 30.222656 601.507812 30.71875 606.046875 31.386719 C 610.585938 32.050781 615.097656 32.878906 619.578125 33.875 C 624.054688 34.871094 628.492188 36.03125 632.886719 37.351562 C 637.28125 38.671875 641.621094 40.152344 645.90625 41.792969 C 650.191406 43.433594 654.410156 45.226562 658.5625 47.179688 C 662.71875 49.128906 666.792969 51.226562 670.792969 53.476562 C 674.792969 55.726562 678.703125 58.117188 682.527344 60.652344 C 686.351562 63.1875 690.078125 65.863281 693.703125 68.671875 C 697.332031 71.480469 700.851562 74.417969 704.265625 77.488281 C 707.675781 80.554688 710.972656 83.746094 714.148438 87.054688 C 717.328125 90.363281 720.378906 93.785156 723.304688 97.320312 C 726.234375 100.851562 729.027344 104.488281 731.6875 108.230469 C 734.34375 111.96875 736.863281 115.800781 739.242188 119.722656 C 741.621094 123.644531 743.851562 127.652344 745.9375 131.738281 C 748.023438 135.828125 749.953125 139.984375 751.734375 144.214844 C 753.511719 148.445312 755.132812 152.734375 756.597656 157.082031 C 758.0625 161.429688 759.367188 165.828125 760.507812 170.269531 C 761.648438 174.714844 762.625 179.195312 763.4375 183.710938 C 764.253906 188.226562 764.898438 192.765625 765.378906 197.328125 C 765.859375 201.890625 766.167969 206.46875 766.3125 211.054688 C 766.457031 215.640625 766.433594 220.226562 766.238281 224.808594 C 766.046875 229.394531 765.6875 233.964844 765.15625 238.523438 C 764.628906 243.082031 763.933594 247.613281 763.074219 252.121094 C 762.214844 256.625 761.1875 261.09375 760 265.527344 C 758.808594 269.957031 757.460938 274.339844 755.949219 278.671875 C 754.4375 283.007812 752.769531 287.277344 750.945312 291.488281 C 749.121094 295.699219 747.144531 299.835938 745.019531 303.898438 C 742.890625 307.964844 740.617188 311.945312 738.195312 315.84375 C 735.773438 319.742188 733.214844 323.546875 730.515625 327.257812 C 727.816406 330.96875 724.984375 334.574219 722.019531 338.078125 C 719.054688 341.578125 715.96875 344.96875 712.753906 348.242188 L 712.753906 324.488281 C 712.753906 323.609375 712.667969 322.738281 712.496094 321.871094 C 712.324219 321.007812 712.070312 320.171875 711.734375 319.355469 C 711.394531 318.542969 710.984375 317.769531 710.492188 317.039062 C 710.003906 316.304688 709.449219 315.628906 708.824219 315.003906 C 708.203125 314.382812 707.523438 313.828125 706.792969 313.335938 C 706.0625 312.847656 705.289062 312.433594 704.472656 312.097656 C 703.660156 311.761719 702.820312 311.507812 701.957031 311.335938 C 701.09375 311.164062 700.222656 311.078125 699.339844 311.078125 C 698.460938 311.078125 697.589844 311.164062 696.722656 311.335938 C 695.859375 311.507812 695.023438 311.761719 694.207031 312.097656 C 693.394531 312.433594 692.621094 312.847656 691.890625 313.335938 C 691.15625 313.828125 690.480469 314.382812 689.855469 315.003906 C 689.234375 315.628906 688.679688 316.304688 688.1875 317.039062 C 687.699219 317.769531 687.285156 318.542969 686.949219 319.355469 C 686.613281 320.171875 686.359375 321.007812 686.1875 321.871094 C 686.015625 322.738281 685.929688 323.609375 685.929688 324.488281 L 685.929688 378.140625 C 685.929688 379.023438 686.015625 379.894531 686.1875 380.757812 C 686.359375 381.621094 686.613281 382.460938 686.949219 383.273438 C 687.285156 384.085938 687.699219 384.859375 688.1875 385.59375 C 688.679688 386.324219 689.234375 387.003906 689.855469 387.625 C 690.480469 388.246094 691.15625 388.804688 691.890625 389.292969 C 692.621094 389.78125 693.394531 390.195312 694.207031 390.53125 C 695.023438 390.871094 695.859375 391.125 696.722656 391.296875 C 697.589844 391.46875 698.460938 391.554688 699.339844 391.554688 L 752.992188 391.554688 C 753.875 391.554688 754.746094 391.46875 755.609375 391.296875 C 756.472656 391.125 757.3125 390.871094 758.125 390.53125 C 758.9375 390.195312 759.710938 389.78125 760.445312 389.292969 C 761.175781 388.804688 761.855469 388.246094 762.476562 387.625 C 763.097656 387.003906 763.65625 386.324219 764.144531 385.59375 C 764.632812 384.859375 765.046875 384.085938 765.382812 383.273438 C 765.722656 382.460938 765.976562 381.621094 766.148438 380.757812 C 766.320312 379.894531 766.40625 379.023438 766.40625 378.140625 C 766.40625 377.261719 766.320312 376.386719 766.148438 375.523438 C 765.976562 374.660156 765.722656 373.820312 765.382812 373.007812 C 765.046875 372.195312 764.632812 371.421875 764.144531 370.6875 C 763.65625 369.957031 763.097656 369.277344 762.476562 368.65625 C 761.855469 368.035156 761.175781 367.476562 760.445312 366.988281 C 759.710938 366.5 758.9375 366.085938 758.125 365.75 C 757.3125 365.410156 756.472656 365.15625 755.609375 364.984375 C 754.746094 364.8125 753.875 364.726562 752.992188 364.726562 L 734.167969 364.726562 C 737.757812 360.953125 741.207031 357.050781 744.515625 353.023438 C 747.824219 349 750.980469 344.855469 753.984375 340.601562 C 756.988281 336.34375 759.835938 331.984375 762.523438 327.519531 C 765.210938 323.054688 767.730469 318.496094 770.085938 313.851562 C 772.441406 309.203125 774.625 304.472656 776.632812 299.667969 C 778.644531 294.859375 780.476562 289.984375 782.132812 285.042969 C 783.785156 280.101562 785.257812 275.109375 786.550781 270.058594 C 787.839844 265.011719 788.945312 259.921875 789.867188 254.792969 C 790.785156 249.664062 791.515625 244.511719 792.0625 239.328125 C 792.605469 234.144531 792.957031 228.949219 793.125 223.742188 C 793.289062 218.535156 793.261719 213.328125 793.046875 208.121094 C 792.832031 202.914062 792.429688 197.722656 791.835938 192.546875 C 791.242188 187.367188 790.460938 182.222656 789.492188 177.101562 C 788.523438 171.980469 787.371094 166.902344 786.03125 161.867188 C 784.691406 156.832031 783.171875 151.851562 781.46875 146.925781 C 779.765625 142 777.886719 137.144531 775.832031 132.359375 C 773.773438 127.570312 771.546875 122.863281 769.148438 118.238281 C 766.746094 113.613281 764.183594 109.082031 761.453125 104.644531 C 758.722656 100.203125 755.835938 95.871094 752.789062 91.644531 C 749.742188 87.414062 746.546875 83.304688 743.199219 79.308594 C 739.855469 75.316406 736.367188 71.449219 732.742188 67.707031 C 729.113281 63.96875 725.355469 60.363281 721.464844 56.898438 C 717.574219 53.429688 713.5625 50.109375 709.429688 46.9375 C 705.296875 43.761719 701.054688 40.742188 696.699219 37.878906 C 692.347656 35.015625 687.898438 32.3125 683.347656 29.773438 C 678.796875 27.234375 674.160156 24.863281 669.4375 22.660156 C 664.714844 20.457031 659.917969 18.433594 655.046875 16.578125 C 650.179688 14.726562 645.246094 13.054688 640.253906 11.5625 C 635.261719 10.070312 630.222656 8.761719 625.132812 7.636719 C 620.046875 6.511719 614.925781 5.574219 609.769531 4.824219 C 604.613281 4.070312 599.433594 3.507812 594.238281 3.132812 C 589.039062 2.761719 583.835938 2.574219 578.625 2.582031 C 577.746094 2.582031 576.871094 2.667969 576.007812 2.839844 C 575.144531 3.011719 574.304688 3.265625 573.492188 3.601562 C 572.679688 3.941406 571.90625 4.351562 571.175781 4.84375 C 570.441406 5.332031 569.765625 5.886719 569.140625 6.511719 C 568.519531 7.132812 567.960938 7.808594 567.472656 8.542969 C 566.984375 9.273438 566.570312 10.046875 566.234375 10.863281 C 565.898438 11.675781 565.640625 12.515625 565.46875 13.378906 C 565.296875 14.242188 565.210938 15.113281 565.210938 15.996094 Z M 565.210938 15.996094 " fill-opacity="1" fill-rule="nonzero"/></g><path fill="#79cbbb" d="M 337.195312 506.300781 C 338.074219 506.300781 338.949219 506.214844 339.8125 506.042969 C 340.675781 505.871094 341.515625 505.617188 342.328125 505.28125 C 343.140625 504.945312 343.914062 504.53125 344.644531 504.042969 C 345.378906 503.550781 346.054688 502.996094 346.679688 502.375 C 347.300781 501.75 347.859375 501.074219 348.347656 500.339844 C 348.835938 499.609375 349.25 498.835938 349.585938 498.023438 C 349.921875 497.207031 350.179688 496.371094 350.351562 495.507812 C 350.523438 494.640625 350.609375 493.769531 350.609375 492.890625 L 350.609375 466.0625 C 350.609375 465.183594 350.523438 464.3125 350.351562 463.445312 C 350.179688 462.582031 349.921875 461.746094 349.585938 460.929688 C 349.25 460.117188 348.835938 459.34375 348.347656 458.613281 C 347.859375 457.878906 347.300781 457.203125 346.679688 456.578125 C 346.054688 455.957031 345.378906 455.402344 344.648438 454.910156 C 343.914062 454.421875 343.140625 454.007812 342.328125 453.671875 C 341.515625 453.335938 340.675781 453.082031 339.8125 452.910156 C 338.949219 452.738281 338.074219 452.652344 337.195312 452.652344 C 336.3125 452.652344 335.441406 452.738281 334.578125 452.910156 C 333.714844 453.082031 332.875 453.335938 332.0625 453.671875 C 331.25 454.007812 330.476562 454.421875 329.742188 454.910156 C 329.011719 455.402344 328.332031 455.957031 327.710938 456.578125 C 327.085938 457.203125 326.53125 457.878906 326.042969 458.613281 C 325.554688 459.34375 325.140625 460.117188 324.804688 460.929688 C 324.464844 461.746094 324.210938 462.582031 324.039062 463.445312 C 323.867188 464.3125 323.78125 465.183594 323.78125 466.0625 L 323.78125 492.890625 C 323.78125 493.769531 323.867188 494.640625 324.039062 495.507812 C 324.210938 496.371094 324.464844 497.207031 324.804688 498.023438 C 325.140625 498.835938 325.554688 499.609375 326.042969 500.339844 C 326.53125 501.074219 327.085938 501.75 327.710938 502.375 C 328.332031 502.996094 329.011719 503.550781 329.742188 504.042969 C 330.476562 504.53125 331.25 504.945312 332.0625 505.28125 C 332.875 505.617188 333.714844 505.871094 334.578125 506.042969 C 335.441406 506.214844 336.3125 506.300781 337.195312 506.300781 Z M 337.195312 506.300781 " fill-opacity="1" fill-rule="nonzero"/><path fill="#79cbbb" d="M 337.195312 425.824219 C 338.074219 425.824219 338.949219 425.738281 339.8125 425.566406 C 340.675781 425.394531 341.515625 425.140625 342.328125 424.804688 C 343.140625 424.46875 343.914062 424.054688 344.644531 423.566406 C 345.378906 423.074219 346.054688 422.519531 346.679688 421.898438 C 347.300781 421.273438 347.859375 420.597656 348.347656 419.863281 C 348.835938 419.132812 349.25 418.359375 349.585938 417.546875 C 349.921875 416.730469 350.179688 415.894531 350.351562 415.027344 C 350.523438 414.164062 350.609375 413.292969 350.609375 412.414062 L 350.609375 404.964844 C 350.609375 397.78125 350.042969 390.640625 348.902344 383.542969 C 348.765625 382.675781 348.542969 381.828125 348.234375 381 C 347.925781 380.175781 347.542969 379.386719 347.082031 378.636719 C 346.621094 377.886719 346.089844 377.191406 345.488281 376.542969 C 344.890625 375.898438 344.234375 375.316406 343.519531 374.800781 C 342.804688 374.285156 342.046875 373.84375 341.246094 373.476562 C 340.445312 373.109375 339.617188 372.824219 338.761719 372.621094 C 337.902344 372.417969 337.035156 372.300781 336.15625 372.265625 C 335.273438 372.234375 334.398438 372.289062 333.53125 372.429688 C 332.660156 372.566406 331.8125 372.789062 330.988281 373.097656 C 330.160156 373.402344 329.375 373.789062 328.625 374.25 C 327.875 374.710938 327.175781 375.242188 326.53125 375.84375 C 325.886719 376.441406 325.304688 377.097656 324.789062 377.8125 C 324.273438 378.527344 323.832031 379.285156 323.464844 380.085938 C 323.097656 380.886719 322.8125 381.714844 322.609375 382.570312 C 322.402344 383.425781 322.285156 384.296875 322.253906 385.175781 C 322.21875 386.058594 322.273438 386.933594 322.414062 387.800781 C 323.324219 393.488281 323.777344 399.207031 323.773438 404.964844 L 323.773438 412.414062 C 323.773438 413.292969 323.859375 414.164062 324.03125 415.03125 C 324.203125 415.894531 324.460938 416.734375 324.796875 417.546875 C 325.132812 418.359375 325.546875 419.132812 326.039062 419.867188 C 326.527344 420.597656 327.082031 421.277344 327.707031 421.898438 C 328.328125 422.523438 329.007812 423.078125 329.738281 423.566406 C 330.472656 424.054688 331.246094 424.46875 332.058594 424.804688 C 332.875 425.144531 333.714844 425.398438 334.578125 425.570312 C 335.441406 425.738281 336.3125 425.824219 337.195312 425.824219 Z M 337.195312 425.824219 " fill-opacity="1" fill-rule="nonzero"/><path fill="#79cbbb" d="M 168.371094 279.734375 C 159.046875 283.308594 150.242188 287.878906 141.949219 293.4375 C 141.199219 293.921875 140.507812 294.472656 139.867188 295.09375 C 139.226562 295.714844 138.65625 296.390625 138.152344 297.125 C 137.648438 297.863281 137.222656 298.640625 136.871094 299.457031 C 136.523438 300.277344 136.257812 301.125 136.078125 301.996094 C 135.894531 302.871094 135.804688 303.75 135.796875 304.640625 C 135.792969 305.53125 135.875 306.414062 136.046875 307.289062 C 136.21875 308.164062 136.476562 309.015625 136.816406 309.835938 C 137.15625 310.660156 137.574219 311.441406 138.070312 312.183594 C 138.566406 312.921875 139.128906 313.605469 139.761719 314.234375 C 140.394531 314.863281 141.082031 315.421875 141.824219 315.910156 C 142.570312 316.402344 143.355469 316.816406 144.179688 317.148438 C 145.007812 317.484375 145.859375 317.734375 146.734375 317.898438 C 147.609375 318.0625 148.492188 318.140625 149.382812 318.128906 C 150.273438 318.117188 151.15625 318.015625 152.027344 317.828125 C 152.898438 317.644531 153.742188 317.371094 154.558594 317.015625 C 155.375 316.660156 156.148438 316.230469 156.882812 315.71875 C 163.503906 311.28125 170.539062 307.632812 177.984375 304.777344 C 178.808594 304.464844 179.597656 304.074219 180.347656 303.605469 C 181.097656 303.136719 181.792969 302.601562 182.4375 301.996094 C 183.082031 301.390625 183.660156 300.726562 184.171875 300.007812 C 184.683594 299.285156 185.121094 298.523438 185.480469 297.714844 C 185.84375 296.910156 186.121094 296.078125 186.320312 295.214844 C 186.515625 294.351562 186.625 293.480469 186.652344 292.597656 C 186.675781 291.714844 186.613281 290.835938 186.464844 289.964844 C 186.316406 289.09375 186.082031 288.246094 185.765625 287.421875 C 185.449219 286.597656 185.054688 285.8125 184.582031 285.0625 C 184.109375 284.316406 183.570312 283.621094 182.960938 282.984375 C 182.351562 282.34375 181.683594 281.769531 180.960938 281.257812 C 180.238281 280.75 179.472656 280.316406 178.664062 279.960938 C 177.855469 279.601562 177.023438 279.328125 176.160156 279.136719 C 175.296875 278.945312 174.421875 278.839844 173.539062 278.820312 C 172.65625 278.800781 171.78125 278.867188 170.910156 279.019531 C 170.039062 279.175781 169.191406 279.410156 168.371094 279.734375 Z M 168.371094 279.734375 " fill-opacity="1" fill-rule="nonzero"/><path fill="#79cbbb" d="M 339.21875 574.792969 C 339.632812 575.566406 340.121094 576.289062 340.679688 576.964844 C 341.234375 577.640625 341.851562 578.253906 342.53125 578.808594 C 343.207031 579.363281 343.933594 579.847656 344.707031 580.261719 C 345.476562 580.671875 346.285156 581.007812 347.121094 581.261719 C 347.957031 581.515625 348.8125 581.6875 349.683594 581.773438 C 350.554688 581.863281 351.425781 581.863281 352.300781 581.78125 C 353.171875 581.699219 354.027344 581.53125 354.867188 581.28125 C 355.703125 581.027344 356.511719 580.699219 357.285156 580.289062 C 358.058594 579.882812 358.789062 579.402344 359.46875 578.851562 C 360.148438 578.300781 360.769531 577.6875 361.328125 577.015625 C 361.890625 576.339844 362.378906 575.621094 362.800781 574.851562 C 363.21875 574.082031 363.558594 573.28125 363.820312 572.445312 C 364.085938 571.609375 364.261719 570.757812 364.359375 569.886719 C 364.453125 569.015625 364.460938 568.144531 364.386719 567.273438 C 364.3125 566.398438 364.152344 565.542969 363.910156 564.699219 C 363.664062 563.859375 363.34375 563.050781 362.941406 562.273438 C 359.222656 555.21875 356.328125 547.839844 354.257812 540.140625 C 354.015625 539.300781 353.699219 538.496094 353.304688 537.71875 C 352.90625 536.941406 352.4375 536.210938 351.898438 535.527344 C 351.359375 534.839844 350.761719 534.214844 350.101562 533.644531 C 349.4375 533.078125 348.730469 532.578125 347.972656 532.148438 C 347.210938 531.71875 346.421875 531.367188 345.59375 531.089844 C 344.765625 530.816406 343.917969 530.625 343.054688 530.511719 C 342.191406 530.402344 341.324219 530.375 340.453125 530.4375 C 339.582031 530.496094 338.726562 530.636719 337.886719 530.863281 C 337.042969 531.085938 336.230469 531.390625 335.449219 531.777344 C 334.667969 532.160156 333.929688 532.617188 333.234375 533.144531 C 332.539062 533.671875 331.90625 534.261719 331.324219 534.914062 C 330.746094 535.566406 330.238281 536.265625 329.796875 537.019531 C 329.351562 537.769531 328.988281 538.558594 328.699219 539.378906 C 328.410156 540.203125 328.203125 541.046875 328.082031 541.90625 C 327.957031 542.769531 327.917969 543.636719 327.960938 544.507812 C 328.007812 545.378906 328.136719 546.238281 328.347656 547.082031 C 330.933594 556.726562 334.558594 565.964844 339.21875 574.792969 Z M 339.21875 574.792969 " fill-opacity="1" fill-rule="nonzero"/><path fill="#79cbbb" d="M 537.808594 625.675781 C 540.203125 625.675781 542.433594 625.078125 544.503906 623.878906 C 553.113281 618.941406 561.109375 613.15625 568.492188 606.527344 C 569.128906 605.929688 569.695312 605.277344 570.203125 604.574219 C 570.710938 603.867188 571.144531 603.117188 571.503906 602.328125 C 571.867188 601.535156 572.148438 600.71875 572.347656 599.871094 C 572.550781 599.027344 572.667969 598.167969 572.703125 597.300781 C 572.738281 596.429688 572.691406 595.566406 572.558594 594.707031 C 572.425781 593.847656 572.210938 593.011719 571.914062 592.195312 C 571.621094 591.375 571.246094 590.59375 570.800781 589.847656 C 570.351562 589.105469 569.835938 588.410156 569.253906 587.765625 C 568.671875 587.117188 568.03125 586.535156 567.335938 586.015625 C 566.640625 585.496094 565.898438 585.046875 565.117188 584.667969 C 564.332031 584.292969 563.519531 583.996094 562.679688 583.777344 C 561.835938 583.558594 560.980469 583.421875 560.113281 583.371094 C 559.246094 583.316406 558.382812 583.347656 557.519531 583.464844 C 556.660156 583.578125 555.816406 583.777344 554.992188 584.054688 C 554.167969 584.335938 553.378906 584.691406 552.625 585.125 C 551.871094 585.558594 551.167969 586.058594 550.511719 586.628906 C 544.53125 591.984375 538.058594 596.65625 531.089844 600.644531 C 530.457031 601.011719 529.855469 601.425781 529.285156 601.890625 C 528.71875 602.359375 528.195312 602.867188 527.710938 603.417969 C 527.226562 603.96875 526.792969 604.554688 526.402344 605.179688 C 526.015625 605.800781 525.683594 606.453125 525.402344 607.128906 C 525.121094 607.808594 524.898438 608.503906 524.730469 609.21875 C 524.566406 609.933594 524.457031 610.65625 524.410156 611.386719 C 524.363281 612.121094 524.375 612.851562 524.445312 613.582031 C 524.519531 614.3125 524.652344 615.03125 524.839844 615.738281 C 525.03125 616.449219 525.277344 617.136719 525.582031 617.804688 C 525.882812 618.472656 526.238281 619.109375 526.648438 619.722656 C 527.054688 620.332031 527.511719 620.902344 528.011719 621.4375 C 528.515625 621.972656 529.054688 622.464844 529.636719 622.910156 C 530.21875 623.355469 530.835938 623.75 531.484375 624.097656 C 532.128906 624.441406 532.800781 624.730469 533.496094 624.96875 C 534.191406 625.203125 534.898438 625.378906 535.625 625.496094 C 536.347656 625.617188 537.078125 625.675781 537.808594 625.675781 Z M 537.808594 625.675781 " fill-opacity="1" fill-rule="nonzero"/><path fill="#79cbbb" d="M 460.648438 619.546875 C 459.765625 619.550781 458.894531 619.644531 458.035156 619.824219 C 457.171875 620.003906 456.335938 620.265625 455.523438 620.609375 C 454.714844 620.953125 453.945312 621.375 453.214844 621.871094 C 452.488281 622.367188 451.816406 622.929688 451.199219 623.554688 C 450.582031 624.183594 450.03125 624.867188 449.546875 625.605469 C 449.066406 626.339844 448.660156 627.117188 448.328125 627.933594 C 448 628.75 447.75 629.589844 447.585938 630.457031 C 447.421875 631.320312 447.34375 632.195312 447.351562 633.074219 C 447.359375 633.957031 447.453125 634.828125 447.632812 635.691406 C 447.8125 636.550781 448.074219 637.386719 448.417969 638.199219 C 448.761719 639.011719 449.183594 639.777344 449.679688 640.507812 C 450.175781 641.234375 450.734375 641.90625 451.363281 642.523438 C 451.992188 643.140625 452.675781 643.691406 453.410156 644.175781 C 454.148438 644.660156 454.925781 645.066406 455.742188 645.394531 C 456.558594 645.722656 457.398438 645.972656 458.265625 646.136719 C 459.128906 646.300781 460.003906 646.378906 460.882812 646.371094 L 461.132812 646.371094 C 470.8125 646.191406 480.417969 645.242188 489.949219 643.519531 C 490.828125 643.378906 491.6875 643.152344 492.523438 642.839844 C 493.359375 642.53125 494.15625 642.136719 494.914062 641.667969 C 495.671875 641.195312 496.375 640.65625 497.027344 640.042969 C 497.675781 639.433594 498.257812 638.761719 498.773438 638.035156 C 499.292969 637.308594 499.730469 636.535156 500.09375 635.71875 C 500.453125 634.90625 500.734375 634.0625 500.925781 633.191406 C 501.121094 632.320312 501.226562 631.4375 501.246094 630.546875 C 501.261719 629.65625 501.191406 628.769531 501.035156 627.890625 C 500.875 627.011719 500.632812 626.160156 500.300781 625.332031 C 499.972656 624.5 499.566406 623.710938 499.078125 622.964844 C 498.59375 622.214844 498.039062 621.523438 497.414062 620.886719 C 496.789062 620.25 496.109375 619.679688 495.371094 619.179688 C 494.632812 618.675781 493.851562 618.253906 493.027344 617.910156 C 492.207031 617.5625 491.355469 617.300781 490.484375 617.125 C 489.609375 616.949219 488.722656 616.863281 487.832031 616.863281 C 486.941406 616.863281 486.054688 616.949219 485.183594 617.128906 C 477.070312 618.585938 468.890625 619.394531 460.648438 619.546875 Z M 460.648438 619.546875 " fill-opacity="1" fill-rule="nonzero"/><path fill="#79cbbb" d="M 393.683594 598.242188 C 392.976562 597.71875 392.226562 597.269531 391.433594 596.890625 C 390.640625 596.515625 389.820312 596.222656 388.96875 596.007812 C 388.117188 595.792969 387.253906 595.664062 386.375 595.621094 C 385.5 595.574219 384.625 595.617188 383.757812 595.742188 C 382.890625 595.871094 382.039062 596.078125 381.214844 596.375 C 380.386719 596.667969 379.59375 597.039062 378.839844 597.484375 C 378.085938 597.933594 377.382812 598.453125 376.730469 599.039062 C 376.078125 599.625 375.488281 600.269531 374.960938 600.972656 C 374.433594 601.675781 373.980469 602.421875 373.601562 603.214844 C 373.222656 604.003906 372.921875 604.828125 372.703125 605.675781 C 372.484375 606.527344 372.351562 607.390625 372.304688 608.265625 C 372.253906 609.144531 372.289062 610.015625 372.414062 610.886719 C 372.535156 611.753906 372.742188 612.605469 373.03125 613.433594 C 373.320312 614.261719 373.6875 615.054688 374.132812 615.8125 C 374.578125 616.566406 375.089844 617.273438 375.675781 617.929688 C 376.257812 618.585938 376.898438 619.179688 377.597656 619.710938 C 385.585938 625.691406 394.132812 630.71875 403.238281 634.796875 C 404.042969 635.15625 404.875 635.4375 405.734375 635.632812 C 406.59375 635.828125 407.460938 635.9375 408.34375 635.960938 C 409.222656 635.984375 410.097656 635.925781 410.964844 635.777344 C 411.835938 635.628906 412.679688 635.398438 413.503906 635.082031 C 414.324219 634.769531 415.109375 634.378906 415.855469 633.90625 C 416.601562 633.4375 417.292969 632.902344 417.933594 632.296875 C 418.574219 631.691406 419.148438 631.03125 419.65625 630.3125 C 420.167969 629.59375 420.601562 628.832031 420.960938 628.027344 C 421.320312 627.222656 421.597656 626.390625 421.792969 625.53125 C 421.988281 624.671875 422.101562 623.804688 422.125 622.921875 C 422.148438 622.042969 422.085938 621.167969 421.9375 620.300781 C 421.792969 619.433594 421.558594 618.585938 421.246094 617.761719 C 420.929688 616.941406 420.539062 616.15625 420.070312 615.410156 C 419.601562 614.664062 419.066406 613.972656 418.460938 613.332031 C 417.855469 612.691406 417.191406 612.117188 416.472656 611.609375 C 415.753906 611.097656 414.992188 610.664062 414.191406 610.304688 C 406.90625 607.046875 400.070312 603.023438 393.683594 598.242188 Z M 393.683594 598.242188 " fill-opacity="1" fill-rule="nonzero"/><path fill="#79cbbb" d="M 632.261719 539.09375 C 632.980469 539.09375 633.691406 539.039062 634.394531 538.925781 C 635.101562 538.8125 635.796875 538.644531 636.476562 538.421875 C 637.152344 538.195312 637.8125 537.921875 638.445312 537.589844 C 639.082031 537.261719 639.6875 536.886719 640.261719 536.460938 C 640.835938 536.035156 641.375 535.566406 641.875 535.050781 C 642.371094 534.539062 642.828125 533.992188 643.242188 533.40625 C 643.652344 532.824219 644.015625 532.210938 644.328125 531.566406 C 644.644531 530.921875 644.90625 530.261719 645.113281 529.574219 C 645.320312 528.890625 645.472656 528.195312 645.566406 527.484375 C 645.664062 526.777344 645.703125 526.066406 645.683594 525.347656 C 645.667969 524.632812 645.59375 523.925781 645.460938 523.222656 C 645.332031 522.519531 645.144531 521.832031 644.902344 521.15625 C 644.660156 520.484375 644.367188 519.832031 644.023438 519.207031 C 643.679688 518.582031 643.285156 517.984375 642.84375 517.421875 C 642.402344 516.859375 641.921875 516.332031 641.398438 515.847656 C 640.871094 515.359375 640.3125 514.917969 639.71875 514.523438 L 599.480469 487.695312 C 598.378906 486.964844 597.191406 486.40625 595.925781 486.023438 C 594.660156 485.640625 593.363281 485.445312 592.039062 485.445312 C 590.714844 485.445312 589.421875 485.640625 588.152344 486.023438 C 586.886719 486.40625 585.703125 486.964844 584.597656 487.695312 L 544.359375 514.523438 C 543.617188 515.007812 542.929688 515.558594 542.296875 516.179688 C 541.667969 516.800781 541.101562 517.476562 540.601562 518.210938 C 540.101562 518.941406 539.683594 519.71875 539.335938 520.535156 C 538.992188 521.351562 538.730469 522.191406 538.550781 523.058594 C 538.375 523.929688 538.28125 524.804688 538.277344 525.691406 C 538.273438 526.578125 538.355469 527.457031 538.527344 528.324219 C 538.695312 529.195312 538.949219 530.039062 539.289062 530.859375 C 539.625 531.679688 540.039062 532.457031 540.53125 533.195312 C 541.023438 533.933594 541.582031 534.613281 542.207031 535.242188 C 542.835938 535.867188 543.519531 536.425781 544.253906 536.917969 C 544.992188 537.410156 545.773438 537.824219 546.589844 538.160156 C 547.410156 538.496094 548.257812 538.75 549.125 538.921875 C 549.996094 539.089844 550.875 539.171875 551.761719 539.167969 C 552.644531 539.164062 553.523438 539.070312 554.390625 538.894531 C 555.257812 538.714844 556.101562 538.453125 556.917969 538.109375 C 557.734375 537.761719 558.507812 537.339844 559.242188 536.839844 L 579.039062 523.640625 C 578.84375 524.308594 578.707031 524.992188 578.625 525.683594 C 578.644531 533.378906 577.570312 540.917969 575.402344 548.300781 C 575.128906 549.152344 574.945312 550.023438 574.84375 550.910156 C 574.746094 551.796875 574.734375 552.6875 574.8125 553.578125 C 574.890625 554.46875 575.054688 555.339844 575.308594 556.199219 C 575.558594 557.054688 575.894531 557.878906 576.3125 558.667969 C 576.730469 559.460938 577.21875 560.199219 577.785156 560.890625 C 578.351562 561.585938 578.980469 562.214844 579.671875 562.78125 C 580.363281 563.347656 581.101562 563.839844 581.890625 564.257812 C 582.679688 564.675781 583.503906 565.011719 584.359375 565.265625 C 585.21875 565.519531 586.089844 565.6875 586.980469 565.765625 C 587.871094 565.84375 588.757812 565.835938 589.648438 565.738281 C 590.535156 565.640625 591.40625 565.453125 592.257812 565.183594 C 593.105469 564.910156 593.921875 564.558594 594.703125 564.121094 C 595.484375 563.6875 596.214844 563.179688 596.890625 562.597656 C 597.570312 562.015625 598.1875 561.375 598.738281 560.671875 C 599.289062 559.96875 599.761719 559.214844 600.164062 558.417969 C 600.5625 557.617188 600.882812 556.789062 601.117188 555.925781 C 604.027344 546.054688 605.472656 535.972656 605.453125 525.683594 C 605.371094 524.992188 605.234375 524.308594 605.039062 523.640625 L 624.839844 536.839844 C 627.085938 538.34375 629.558594 539.097656 632.261719 539.09375 Z M 632.261719 539.09375 " fill-opacity="1" fill-rule="nonzero"/></svg>