<svg xmlns="http://www.w3.org/2000/svg" xmlns:xlink="http://www.w3.org/1999/xlink" width="1080" zoomAndPan="magnify" viewBox="0 0 810 809.999993" height="1080" preserveAspectRatio="xMidYMid meet" version="1.0"><defs><clipPath id="472e63114c"><path d="M 128.339844 27.308594 L 681.839844 27.308594 L 681.839844 782.558594 L 128.339844 782.558594 Z M 128.339844 27.308594 " clip-rule="nonzero"/></clipPath><clipPath id="569e1d376b"><path d="M 0 398.046875 L 423.382812 398.046875 L 423.382812 810 L 0 810 Z M 0 398.046875 " clip-rule="nonzero"/></clipPath><clipPath id="1699d87ec5"><path d="M 145.0625 398.046875 C -8.652344 398.046875 -133.257812 530.976562 -133.257812 694.953125 C -133.257812 858.929688 -8.652344 991.859375 145.0625 991.859375 C 298.773438 991.859375 423.382812 858.929688 423.382812 694.953125 C 423.382812 530.976562 298.773438 398.046875 145.0625 398.046875 Z M 145.0625 398.046875 " clip-rule="nonzero"/></clipPath><clipPath id="155380f7c4"><path d="M 197 462.410156 L 351.585938 462.410156 L 351.585938 617 L 197 617 Z M 197 462.410156 " clip-rule="nonzero"/></clipPath><clipPath id="40318f1eb0"><path d="M 31.335938 469 L 186 469 L 186 744 L 31.335938 744 Z M 31.335938 469 " clip-rule="nonzero"/></clipPath><clipPath id="3f13203f98"><path d="M 107 628 L 349 628 L 349 782.660156 L 107 782.660156 Z M 107 628 " clip-rule="nonzero"/></clipPath></defs><g clip-path="url(#472e63114c)"><path fill="#cecfd7" d="M 186.253906 42.207031 C 162.605469 42.207031 143.371094 61.449219 143.371094 85.09375 L 143.371094 724.90625 C 143.371094 748.546875 162.605469 767.789062 186.253906 767.789062 L 623.664062 767.789062 C 647.308594 767.789062 666.550781 748.546875 666.550781 724.90625 L 666.550781 85.09375 C 666.550781 61.449219 647.308594 42.207031 623.664062 42.207031 Z M 623.664062 782.695312 L 186.253906 782.695312 C 154.386719 782.695312 128.464844 756.769531 128.464844 724.90625 L 128.464844 85.09375 C 128.464844 53.226562 154.386719 27.300781 186.253906 27.300781 L 623.664062 27.300781 C 655.53125 27.300781 681.457031 53.226562 681.457031 85.09375 L 681.457031 724.90625 C 681.457031 756.769531 655.53125 782.695312 623.664062 782.695312 " fill-opacity="1" fill-rule="nonzero"/></g><path fill="#cecfd7" d="M 202.757812 267.210938 L 607.164062 267.210938 L 607.164062 101.125 L 202.757812 101.125 Z M 614.617188 282.121094 L 195.304688 282.121094 C 191.1875 282.121094 187.851562 278.78125 187.851562 274.664062 L 187.851562 93.671875 C 187.851562 89.550781 191.1875 86.214844 195.304688 86.214844 L 614.617188 86.214844 C 618.730469 86.214844 622.070312 89.550781 622.070312 93.671875 L 622.070312 274.664062 C 622.070312 278.78125 618.730469 282.121094 614.617188 282.121094 " fill-opacity="1" fill-rule="nonzero"/><path fill="#cecfd7" d="M 202.757812 439.308594 L 302.175781 439.308594 L 302.175781 354.523438 L 202.757812 354.523438 Z M 309.628906 454.21875 L 195.304688 454.21875 C 191.1875 454.21875 187.851562 450.882812 187.851562 446.765625 L 187.851562 347.066406 C 187.851562 342.953125 191.1875 339.613281 195.304688 339.613281 L 309.628906 339.613281 C 313.746094 339.613281 317.082031 342.953125 317.082031 347.066406 L 317.082031 446.765625 C 317.082031 450.882812 313.746094 454.21875 309.628906 454.21875 " fill-opacity="1" fill-rule="nonzero"/><path fill="#cecfd7" d="M 354.414062 439.308594 L 453.828125 439.308594 L 453.828125 354.523438 L 354.414062 354.523438 Z M 461.28125 454.21875 L 346.960938 454.21875 C 342.84375 454.21875 339.507812 450.882812 339.507812 446.765625 L 339.507812 347.066406 C 339.507812 342.953125 342.84375 339.613281 346.960938 339.613281 L 461.28125 339.613281 C 465.402344 339.613281 468.734375 342.953125 468.734375 347.066406 L 468.734375 446.765625 C 468.734375 450.882812 465.402344 454.21875 461.28125 454.21875 " fill-opacity="1" fill-rule="nonzero"/><path fill="#cecfd7" d="M 506.070312 439.308594 L 605.484375 439.308594 L 605.484375 354.523438 L 506.070312 354.523438 Z M 612.9375 454.21875 L 498.617188 454.21875 C 494.496094 454.21875 491.164062 450.882812 491.164062 446.765625 L 491.164062 347.066406 C 491.164062 342.953125 494.496094 339.613281 498.617188 339.613281 L 612.9375 339.613281 C 617.054688 339.613281 620.394531 342.953125 620.394531 347.066406 L 620.394531 446.765625 C 620.394531 450.882812 617.054688 454.21875 612.9375 454.21875 " fill-opacity="1" fill-rule="nonzero"/><path fill="#cecfd7" d="M 202.757812 576.886719 L 302.175781 576.886719 L 302.175781 492.089844 L 202.757812 492.089844 Z M 309.628906 591.792969 L 195.304688 591.792969 C 191.1875 591.792969 187.851562 588.453125 187.851562 584.339844 L 187.851562 484.636719 C 187.851562 480.523438 191.1875 477.183594 195.304688 477.183594 L 309.628906 477.183594 C 313.746094 477.183594 317.082031 480.523438 317.082031 484.636719 L 317.082031 584.339844 C 317.082031 588.453125 313.746094 591.792969 309.628906 591.792969 " fill-opacity="1" fill-rule="nonzero"/><path fill="#cecfd7" d="M 354.414062 576.886719 L 453.828125 576.886719 L 453.828125 492.089844 L 354.414062 492.089844 Z M 461.28125 591.792969 L 346.960938 591.792969 C 342.84375 591.792969 339.507812 588.453125 339.507812 584.339844 L 339.507812 484.636719 C 339.507812 480.523438 342.84375 477.183594 346.960938 477.183594 L 461.28125 477.183594 C 465.402344 477.183594 468.734375 480.523438 468.734375 484.636719 L 468.734375 584.339844 C 468.734375 588.453125 465.402344 591.792969 461.28125 591.792969 " fill-opacity="1" fill-rule="nonzero"/><path fill="#cecfd7" d="M 202.757812 714.457031 L 302.175781 714.457031 L 302.175781 629.660156 L 202.757812 629.660156 Z M 309.628906 729.363281 L 195.304688 729.363281 C 191.1875 729.363281 187.851562 726.023438 187.851562 721.910156 L 187.851562 622.203125 C 187.851562 618.089844 191.1875 614.75 195.304688 614.75 L 309.628906 614.75 C 313.746094 614.75 317.082031 618.089844 317.082031 622.203125 L 317.082031 721.910156 C 317.082031 726.023438 313.746094 729.363281 309.628906 729.363281 " fill-opacity="1" fill-rule="nonzero"/><path fill="#cecfd7" d="M 354.414062 714.457031 L 453.828125 714.457031 L 453.828125 629.660156 L 354.414062 629.660156 Z M 461.28125 729.363281 L 346.960938 729.363281 C 342.84375 729.363281 339.507812 726.023438 339.507812 721.910156 L 339.507812 622.203125 C 339.507812 618.089844 342.84375 614.75 346.960938 614.75 L 461.28125 614.75 C 465.402344 614.75 468.734375 618.089844 468.734375 622.203125 L 468.734375 721.910156 C 468.734375 726.023438 465.402344 729.363281 461.28125 729.363281 " fill-opacity="1" fill-rule="nonzero"/><path fill="#cecfd7" d="M 506.070312 714.457031 L 605.484375 714.457031 L 605.484375 492.089844 L 506.070312 492.089844 Z M 612.9375 729.363281 L 498.617188 729.363281 C 494.496094 729.363281 491.164062 726.023438 491.164062 721.910156 L 491.164062 484.636719 C 491.164062 480.523438 494.496094 477.183594 498.617188 477.183594 L 612.9375 477.183594 C 617.054688 477.183594 620.394531 480.523438 620.394531 484.636719 L 620.394531 721.910156 C 620.394531 726.023438 617.054688 729.363281 612.9375 729.363281 " fill-opacity="1" fill-rule="nonzero"/><path fill="#cecfd7" d="M 555.773438 638.589844 C 551.660156 638.589844 548.320312 635.25 548.320312 631.132812 L 548.320312 575.410156 C 548.320312 571.296875 551.660156 567.957031 555.773438 567.957031 C 559.898438 567.957031 563.226562 571.296875 563.226562 575.410156 L 563.226562 631.132812 C 563.226562 635.25 559.898438 638.589844 555.773438 638.589844 " fill-opacity="1" fill-rule="nonzero"/><path fill="#cecfd7" d="M 583.640625 610.726562 L 527.921875 610.726562 C 523.796875 610.726562 520.46875 607.386719 520.46875 603.273438 C 520.46875 599.160156 523.796875 595.820312 527.921875 595.820312 L 583.640625 595.820312 C 587.757812 595.820312 591.09375 599.160156 591.09375 603.273438 C 591.09375 607.386719 587.757812 610.726562 583.640625 610.726562 " fill-opacity="1" fill-rule="nonzero"/><g clip-path="url(#569e1d376b)"><g clip-path="url(#1699d87ec5)"><path fill="#00425c" d="M -133.257812 398.046875 L 423.382812 398.046875 L 423.382812 991.652344 L -133.257812 991.652344 Z M -133.257812 398.046875 " fill-opacity="1" fill-rule="nonzero"/></g></g><g clip-path="url(#155380f7c4)"><path fill="#79cbbb" d="M 348.039062 616.464844 L 200.429688 616.464844 C 198.675781 616.464844 197.253906 615.042969 197.253906 613.289062 L 197.253906 465.679688 C 197.253906 463.925781 198.675781 462.5 200.429688 462.5 C 220.785156 462.5 240.53125 466.488281 259.125 474.351562 C 277.082031 481.945312 293.207031 492.820312 307.054688 506.664062 C 320.898438 520.511719 331.773438 536.636719 339.367188 554.59375 C 347.230469 573.183594 351.21875 592.933594 351.21875 613.289062 C 351.21875 615.042969 349.792969 616.464844 348.039062 616.464844 Z M 203.609375 610.109375 L 344.828125 610.109375 C 344.433594 591.734375 340.632812 573.90625 333.511719 557.070312 C 326.238281 539.871094 315.824219 524.425781 302.558594 511.160156 C 289.292969 497.894531 273.847656 487.480469 256.648438 480.207031 C 239.816406 473.085938 221.984375 469.285156 203.609375 468.890625 Z M 203.609375 610.109375 " fill-opacity="1" fill-rule="nonzero"/></g><g clip-path="url(#40318f1eb0)"><path fill="#79cbbb" d="M 95.441406 743.261719 C 94.777344 743.261719 94.121094 743.050781 93.574219 742.652344 C 74.710938 728.945312 59.0625 710.800781 48.3125 690.175781 C 37.203125 668.859375 31.332031 644.800781 31.332031 620.601562 C 31.332031 600.246094 35.316406 580.5 43.179688 561.90625 C 50.777344 543.953125 61.648438 527.824219 75.496094 513.980469 C 89.34375 500.132812 105.46875 489.261719 123.421875 481.667969 C 142.015625 473.804688 161.761719 469.816406 182.117188 469.816406 C 183.871094 469.816406 185.296875 471.238281 185.296875 472.992188 L 185.296875 620.601562 C 185.296875 621.273438 185.082031 621.925781 184.691406 622.46875 L 98.015625 741.949219 C 97.519531 742.632812 96.773438 743.089844 95.941406 743.222656 C 95.777344 743.246094 95.609375 743.261719 95.441406 743.261719 Z M 178.9375 476.207031 C 160.5625 476.597656 142.734375 480.398438 125.898438 487.519531 C 108.699219 494.792969 93.253906 505.207031 79.988281 518.472656 C 66.722656 531.738281 56.308594 547.183594 49.035156 564.382812 C 41.503906 582.1875 37.6875 601.101562 37.6875 620.601562 C 37.6875 643.78125 43.308594 666.824219 53.949219 687.238281 C 63.757812 706.058594 77.828125 722.722656 94.757812 735.613281 L 178.9375 619.570312 Z M 178.9375 476.207031 " fill-opacity="1" fill-rule="nonzero"/></g><g clip-path="url(#3f13203f98)"><path fill="#79cbbb" d="M 197.6875 782.554688 C 165.628906 782.554688 135.011719 772.621094 109.144531 753.820312 C 107.726562 752.789062 107.410156 750.804688 108.441406 749.382812 L 195.113281 629.902344 C 195.710938 629.078125 196.667969 628.589844 197.6875 628.589844 L 345.292969 628.589844 C 347.050781 628.589844 348.472656 630.015625 348.472656 631.769531 C 348.472656 652.125 344.484375 671.871094 336.621094 690.464844 C 329.027344 708.417969 318.15625 724.542969 304.308594 738.390625 C 290.460938 752.238281 274.335938 763.109375 256.378906 770.703125 C 237.789062 778.566406 218.039062 782.554688 197.6875 782.554688 Z M 115.46875 750.519531 C 139.6875 767.332031 168.042969 776.199219 197.6875 776.199219 C 217.183594 776.199219 236.097656 772.382812 253.902344 764.851562 C 271.101562 757.578125 286.546875 747.164062 299.8125 733.898438 C 313.078125 720.632812 323.492188 705.183594 330.765625 687.988281 C 337.886719 671.152344 341.6875 653.324219 342.082031 634.949219 L 199.304688 634.949219 Z M 115.46875 750.519531 " fill-opacity="1" fill-rule="nonzero"/></g><path fill="#79cbbb" d="M 248.019531 730.3125 C 245.460938 730.3125 242.875 730.132812 240.28125 729.765625 C 238.878906 729.574219 209.03125 725.339844 199.5 709.167969 C 195.953125 703.152344 195.613281 696.355469 198.492188 688.972656 C 208.457031 663.394531 228.832031 668.792969 241.003906 672.015625 C 244.273438 672.882812 247.363281 673.699219 249.324219 673.699219 L 249.332031 673.699219 C 253.882812 673.695312 257.78125 672.882812 261.554688 672.097656 C 270.878906 670.152344 279.683594 668.316406 289.121094 682.910156 C 294.191406 690.746094 293.703125 700.914062 287.824219 710.117188 C 283.597656 716.730469 276.910156 722.335938 268.992188 725.898438 C 262.492188 728.820312 255.355469 730.3125 248.023438 730.3125 Z M 224.414062 675.535156 C 222.96875 675.535156 221.535156 675.648438 220.128906 675.90625 C 213.074219 677.214844 207.9375 682.242188 204.414062 691.277344 C 202.25 696.832031 202.433594 701.625 204.96875 705.933594 C 208.195312 711.410156 215.371094 716.167969 225.71875 719.691406 C 233.855469 722.457031 241.070312 723.457031 241.144531 723.46875 C 241.148438 723.46875 241.15625 723.46875 241.160156 723.46875 C 255.125 725.445312 273.3125 721.023438 282.46875 706.695312 C 287.039062 699.542969 287.515625 692.132812 283.785156 686.359375 C 276.710938 675.425781 271.789062 676.453125 262.851562 678.316406 C 258.953125 679.128906 254.539062 680.050781 249.335938 680.054688 L 249.324219 680.054688 C 246.53125 680.054688 243.214844 679.175781 239.375 678.160156 C 234.664062 676.910156 229.464844 675.535156 224.414062 675.535156 Z M 224.414062 675.535156 " fill-opacity="1" fill-rule="nonzero"/><path fill="#79cbbb" d="M 224.285156 708.460938 C 221.777344 708.460938 219.351562 707.644531 217.324219 706.097656 C 212.28125 702.246094 211.3125 695.007812 215.160156 689.964844 C 219.011719 684.921875 226.25 683.949219 231.292969 687.800781 C 233.738281 689.667969 235.308594 692.371094 235.71875 695.417969 C 236.125 698.464844 235.324219 701.488281 233.457031 703.933594 C 231.59375 706.375 228.886719 707.949219 225.839844 708.355469 C 225.320312 708.425781 224.800781 708.460938 224.285156 708.460938 Z M 224.316406 691.796875 C 222.761719 691.796875 221.226562 692.496094 220.214844 693.820312 C 218.488281 696.082031 218.925781 699.320312 221.183594 701.042969 C 222.277344 701.878906 223.628906 702.238281 224.996094 702.054688 C 226.359375 701.875 227.570312 701.171875 228.40625 700.074219 C 229.242188 698.980469 229.601562 697.628906 229.417969 696.261719 C 229.234375 694.898438 228.53125 693.6875 227.4375 692.851562 C 226.507812 692.140625 225.40625 691.796875 224.316406 691.796875 Z M 224.316406 691.796875 " fill-opacity="1" fill-rule="nonzero"/><path fill="#79cbbb" d="M 127.292969 624.996094 L 89.332031 624.996094 C 87.578125 624.996094 86.152344 623.574219 86.152344 621.820312 L 86.152344 587.066406 C 82.261719 585.96875 79.402344 582.386719 79.402344 578.148438 L 79.402344 575.734375 C 79.402344 570.625 83.558594 566.46875 88.667969 566.46875 L 127.957031 566.46875 C 133.066406 566.46875 137.222656 570.625 137.222656 575.734375 L 137.222656 578.148438 C 137.222656 582.386719 134.363281 585.96875 130.472656 587.066406 L 130.472656 621.820312 C 130.472656 623.574219 129.046875 624.996094 127.292969 624.996094 Z M 92.507812 618.640625 L 124.117188 618.640625 L 124.117188 584.238281 C 124.117188 582.480469 125.539062 581.058594 127.292969 581.058594 L 127.957031 581.058594 C 129.5625 581.058594 130.867188 579.753906 130.867188 578.148438 L 130.867188 575.734375 C 130.867188 574.128906 129.5625 572.824219 127.957031 572.824219 L 88.667969 572.824219 C 87.0625 572.824219 85.757812 574.128906 85.757812 575.734375 L 85.757812 578.148438 C 85.757812 579.753906 87.0625 581.058594 88.667969 581.058594 L 89.332031 581.058594 C 91.085938 581.058594 92.511719 582.480469 92.511719 584.238281 L 92.511719 618.640625 Z M 92.507812 618.640625 " fill-opacity="1" fill-rule="nonzero"/><path fill="#79cbbb" d="M 270.703125 584.011719 C 268.140625 584.011719 265.925781 583.171875 264.117188 581.511719 C 263.964844 581.371094 263.6875 581.371094 263.535156 581.511719 C 261.726562 583.171875 259.507812 584.011719 256.949219 584.011719 C 247.082031 584.011719 235.027344 571.621094 235.027344 557.160156 C 235.027344 542.101562 242.519531 530.304688 252.082031 530.304688 C 254.675781 530.304688 257.25 531.203125 259.53125 532.90625 C 262.0625 534.789062 265.589844 534.789062 268.121094 532.90625 C 270.402344 531.203125 272.976562 530.304688 275.570312 530.304688 C 285.132812 530.304688 292.625 542.101562 292.625 557.160156 C 292.625 571.621094 280.570312 584.011719 270.703125 584.011719 Z M 263.828125 575.054688 C 265.476562 575.054688 267.128906 575.648438 268.417969 576.828125 C 269.039062 577.402344 269.746094 577.65625 270.703125 577.65625 C 276.707031 577.65625 286.269531 568.277344 286.269531 557.160156 C 286.269531 547.464844 281.875 536.660156 275.570312 536.660156 C 274.339844 536.660156 273.109375 537.113281 271.917969 538 C 267.152344 541.550781 260.5 541.550781 255.734375 538 C 254.542969 537.113281 253.3125 536.660156 252.085938 536.660156 C 245.777344 536.660156 241.382812 547.464844 241.382812 557.160156 C 241.382812 568.277344 250.945312 577.65625 256.949219 577.65625 C 257.90625 577.65625 258.613281 577.402344 259.238281 576.828125 C 260.523438 575.648438 262.175781 575.054688 263.828125 575.054688 Z M 263.828125 575.054688 " fill-opacity="1" fill-rule="nonzero"/><path fill="#79cbbb" d="M 263.828125 540.675781 C 262.070312 540.675781 260.648438 539.25 260.648438 537.496094 C 260.648438 529.398438 257.488281 525.167969 257.355469 524.988281 C 256.265625 523.613281 256.503906 521.628906 257.878906 520.535156 C 259.253906 519.445312 261.261719 519.6875 262.351562 521.0625 C 262.542969 521.300781 267.003906 527.042969 267.003906 537.496094 C 267.003906 539.25 265.582031 540.675781 263.828125 540.675781 Z M 263.828125 540.675781 " fill-opacity="1" fill-rule="nonzero"/></svg>