<svg xmlns="http://www.w3.org/2000/svg" xmlns:xlink="http://www.w3.org/1999/xlink" width="1080" zoomAndPan="magnify" viewBox="0 0 810 809.999993" height="1080" preserveAspectRatio="xMidYMid meet" version="1.0"><path fill="#00425c" d="M 303.667969 404.734375 C 303.667969 348.804688 349.003906 303.46875 404.929688 303.46875 C 460.859375 303.46875 506.195312 348.804688 506.195312 404.734375 C 506.195312 460.660156 460.859375 506 404.929688 506 C 349.003906 506 303.667969 460.660156 303.667969 404.734375 Z M 303.667969 404.734375 " fill-opacity="1" fill-rule="nonzero"/><path fill="#00425c" d="M 404.929688 809.792969 C 71.363281 809.792969 -0.128906 738.300781 -0.128906 404.734375 C -0.128906 71.167969 71.363281 -0.324219 404.929688 -0.324219 C 738.496094 -0.324219 809.988281 71.167969 809.988281 404.734375 C 809.988281 738.300781 738.496094 809.792969 404.929688 809.792969 Z M 539.949219 202.203125 C 539.949219 220.847656 555.0625 235.960938 573.703125 235.960938 C 592.347656 235.960938 607.460938 220.847656 607.460938 202.203125 C 607.460938 183.5625 592.347656 168.449219 573.703125 168.449219 C 555.0625 168.449219 539.949219 183.5625 539.949219 202.203125 Z M 236.15625 404.734375 C 236.15625 311.523438 311.71875 235.960938 404.929688 235.960938 C 498.140625 235.960938 573.703125 311.523438 573.703125 404.734375 C 573.703125 497.945312 498.140625 573.507812 404.929688 573.507812 C 311.71875 573.507812 236.15625 497.945312 236.15625 404.734375 Z M 236.15625 404.734375 " fill-opacity="1" fill-rule="evenodd"/></svg>