<svg xmlns="http://www.w3.org/2000/svg" xmlns:xlink="http://www.w3.org/1999/xlink" width="1080" zoomAndPan="magnify" viewBox="0 0 810 809.999993" height="1080" preserveAspectRatio="xMidYMid meet" version="1.0"><defs><clipPath id="7b9448c728"><path d="M 128.339844 27.308594 L 681.839844 27.308594 L 681.839844 782.558594 L 128.339844 782.558594 Z M 128.339844 27.308594 " clip-rule="nonzero"/></clipPath><clipPath id="180082d349"><path d="M 0 398.046875 L 423.382812 398.046875 L 423.382812 810 L 0 810 Z M 0 398.046875 " clip-rule="nonzero"/></clipPath><clipPath id="4b68b6d7cd"><path d="M 145.0625 398.046875 C -8.652344 398.046875 -133.257812 530.976562 -133.257812 694.953125 C -133.257812 858.929688 -8.652344 991.859375 145.0625 991.859375 C 298.773438 991.859375 423.382812 858.929688 423.382812 694.953125 C 423.382812 530.976562 298.773438 398.046875 145.0625 398.046875 Z M 145.0625 398.046875 " clip-rule="nonzero"/></clipPath><clipPath id="49ffe1e5f3"><path d="M 40 445.363281 L 333.984375 445.363281 L 333.984375 782.863281 L 40 782.863281 Z M 40 445.363281 " clip-rule="nonzero"/></clipPath></defs><g clip-path="url(#7b9448c728)"><path fill="#cecfd7" d="M 186.253906 42.207031 C 162.605469 42.207031 143.371094 61.449219 143.371094 85.09375 L 143.371094 724.90625 C 143.371094 748.546875 162.605469 767.789062 186.253906 767.789062 L 623.664062 767.789062 C 647.308594 767.789062 666.550781 748.546875 666.550781 724.90625 L 666.550781 85.09375 C 666.550781 61.449219 647.308594 42.207031 623.664062 42.207031 Z M 623.664062 782.695312 L 186.253906 782.695312 C 154.386719 782.695312 128.464844 756.769531 128.464844 724.90625 L 128.464844 85.09375 C 128.464844 53.226562 154.386719 27.300781 186.253906 27.300781 L 623.664062 27.300781 C 655.53125 27.300781 681.457031 53.226562 681.457031 85.09375 L 681.457031 724.90625 C 681.457031 756.769531 655.53125 782.695312 623.664062 782.695312 " fill-opacity="1" fill-rule="nonzero"/></g><path fill="#cecfd7" d="M 202.757812 267.210938 L 607.164062 267.210938 L 607.164062 101.125 L 202.757812 101.125 Z M 614.617188 282.121094 L 195.304688 282.121094 C 191.1875 282.121094 187.851562 278.78125 187.851562 274.664062 L 187.851562 93.671875 C 187.851562 89.550781 191.1875 86.214844 195.304688 86.214844 L 614.617188 86.214844 C 618.730469 86.214844 622.070312 89.550781 622.070312 93.671875 L 622.070312 274.664062 C 622.070312 278.78125 618.730469 282.121094 614.617188 282.121094 " fill-opacity="1" fill-rule="nonzero"/><path fill="#cecfd7" d="M 202.757812 439.308594 L 302.175781 439.308594 L 302.175781 354.523438 L 202.757812 354.523438 Z M 309.628906 454.21875 L 195.304688 454.21875 C 191.1875 454.21875 187.851562 450.882812 187.851562 446.765625 L 187.851562 347.066406 C 187.851562 342.953125 191.1875 339.613281 195.304688 339.613281 L 309.628906 339.613281 C 313.746094 339.613281 317.082031 342.953125 317.082031 347.066406 L 317.082031 446.765625 C 317.082031 450.882812 313.746094 454.21875 309.628906 454.21875 " fill-opacity="1" fill-rule="nonzero"/><path fill="#cecfd7" d="M 354.414062 439.308594 L 453.828125 439.308594 L 453.828125 354.523438 L 354.414062 354.523438 Z M 461.28125 454.21875 L 346.960938 454.21875 C 342.84375 454.21875 339.507812 450.882812 339.507812 446.765625 L 339.507812 347.066406 C 339.507812 342.953125 342.84375 339.613281 346.960938 339.613281 L 461.28125 339.613281 C 465.402344 339.613281 468.734375 342.953125 468.734375 347.066406 L 468.734375 446.765625 C 468.734375 450.882812 465.402344 454.21875 461.28125 454.21875 " fill-opacity="1" fill-rule="nonzero"/><path fill="#cecfd7" d="M 506.070312 439.308594 L 605.484375 439.308594 L 605.484375 354.523438 L 506.070312 354.523438 Z M 612.9375 454.21875 L 498.617188 454.21875 C 494.496094 454.21875 491.164062 450.882812 491.164062 446.765625 L 491.164062 347.066406 C 491.164062 342.953125 494.496094 339.613281 498.617188 339.613281 L 612.9375 339.613281 C 617.054688 339.613281 620.394531 342.953125 620.394531 347.066406 L 620.394531 446.765625 C 620.394531 450.882812 617.054688 454.21875 612.9375 454.21875 " fill-opacity="1" fill-rule="nonzero"/><path fill="#cecfd7" d="M 202.757812 576.886719 L 302.175781 576.886719 L 302.175781 492.089844 L 202.757812 492.089844 Z M 309.628906 591.792969 L 195.304688 591.792969 C 191.1875 591.792969 187.851562 588.453125 187.851562 584.339844 L 187.851562 484.636719 C 187.851562 480.523438 191.1875 477.183594 195.304688 477.183594 L 309.628906 477.183594 C 313.746094 477.183594 317.082031 480.523438 317.082031 484.636719 L 317.082031 584.339844 C 317.082031 588.453125 313.746094 591.792969 309.628906 591.792969 " fill-opacity="1" fill-rule="nonzero"/><path fill="#cecfd7" d="M 354.414062 576.886719 L 453.828125 576.886719 L 453.828125 492.089844 L 354.414062 492.089844 Z M 461.28125 591.792969 L 346.960938 591.792969 C 342.84375 591.792969 339.507812 588.453125 339.507812 584.339844 L 339.507812 484.636719 C 339.507812 480.523438 342.84375 477.183594 346.960938 477.183594 L 461.28125 477.183594 C 465.402344 477.183594 468.734375 480.523438 468.734375 484.636719 L 468.734375 584.339844 C 468.734375 588.453125 465.402344 591.792969 461.28125 591.792969 " fill-opacity="1" fill-rule="nonzero"/><path fill="#cecfd7" d="M 202.757812 714.457031 L 302.175781 714.457031 L 302.175781 629.660156 L 202.757812 629.660156 Z M 309.628906 729.363281 L 195.304688 729.363281 C 191.1875 729.363281 187.851562 726.023438 187.851562 721.910156 L 187.851562 622.203125 C 187.851562 618.089844 191.1875 614.75 195.304688 614.75 L 309.628906 614.75 C 313.746094 614.75 317.082031 618.089844 317.082031 622.203125 L 317.082031 721.910156 C 317.082031 726.023438 313.746094 729.363281 309.628906 729.363281 " fill-opacity="1" fill-rule="nonzero"/><path fill="#cecfd7" d="M 354.414062 714.457031 L 453.828125 714.457031 L 453.828125 629.660156 L 354.414062 629.660156 Z M 461.28125 729.363281 L 346.960938 729.363281 C 342.84375 729.363281 339.507812 726.023438 339.507812 721.910156 L 339.507812 622.203125 C 339.507812 618.089844 342.84375 614.75 346.960938 614.75 L 461.28125 614.75 C 465.402344 614.75 468.734375 618.089844 468.734375 622.203125 L 468.734375 721.910156 C 468.734375 726.023438 465.402344 729.363281 461.28125 729.363281 " fill-opacity="1" fill-rule="nonzero"/><path fill="#cecfd7" d="M 506.070312 714.457031 L 605.484375 714.457031 L 605.484375 492.089844 L 506.070312 492.089844 Z M 612.9375 729.363281 L 498.617188 729.363281 C 494.496094 729.363281 491.164062 726.023438 491.164062 721.910156 L 491.164062 484.636719 C 491.164062 480.523438 494.496094 477.183594 498.617188 477.183594 L 612.9375 477.183594 C 617.054688 477.183594 620.394531 480.523438 620.394531 484.636719 L 620.394531 721.910156 C 620.394531 726.023438 617.054688 729.363281 612.9375 729.363281 " fill-opacity="1" fill-rule="nonzero"/><path fill="#cecfd7" d="M 555.773438 638.589844 C 551.660156 638.589844 548.320312 635.25 548.320312 631.132812 L 548.320312 575.410156 C 548.320312 571.296875 551.660156 567.957031 555.773438 567.957031 C 559.898438 567.957031 563.226562 571.296875 563.226562 575.410156 L 563.226562 631.132812 C 563.226562 635.25 559.898438 638.589844 555.773438 638.589844 " fill-opacity="1" fill-rule="nonzero"/><path fill="#cecfd7" d="M 583.640625 610.726562 L 527.921875 610.726562 C 523.796875 610.726562 520.46875 607.386719 520.46875 603.273438 C 520.46875 599.160156 523.796875 595.820312 527.921875 595.820312 L 583.640625 595.820312 C 587.757812 595.820312 591.09375 599.160156 591.09375 603.273438 C 591.09375 607.386719 587.757812 610.726562 583.640625 610.726562 " fill-opacity="1" fill-rule="nonzero"/><g clip-path="url(#180082d349)"><g clip-path="url(#4b68b6d7cd)"><path fill="#00425c" d="M -133.257812 398.046875 L 423.382812 398.046875 L 423.382812 991.652344 L -133.257812 991.652344 Z M -133.257812 398.046875 " fill-opacity="1" fill-rule="nonzero"/></g></g><g clip-path="url(#49ffe1e5f3)"><path fill="#79cbbb" d="M 298.273438 541.84375 L 319 521.117188 C 324.71875 515.398438 324.71875 506.824219 319 501.105469 C 313.28125 495.390625 304.707031 495.390625 298.988281 501.105469 L 277.550781 522.546875 C 256.109375 505.394531 228.953125 493.960938 199.648438 491.101562 L 199.648438 473.949219 L 210.371094 473.949219 C 218.230469 473.949219 224.664062 467.515625 224.664062 459.65625 C 224.664062 451.792969 218.230469 445.363281 210.371094 445.363281 L 161.058594 445.363281 C 153.195312 445.363281 146.765625 451.792969 146.765625 459.65625 C 146.765625 467.515625 153.195312 473.949219 161.058594 473.949219 L 172.492188 473.949219 L 172.492188 490.386719 C 98.167969 497.53125 40.277344 559.710938 40.277344 635.464844 C 40.277344 643.324219 46.710938 649.757812 54.574219 649.757812 C 62.433594 649.757812 68.867188 643.324219 68.867188 635.464844 C 68.867188 570.429688 121.75 517.542969 186.785156 517.542969 C 251.820312 517.542969 304.707031 570.429688 304.707031 635.464844 C 304.707031 700.5 251.820312 754.101562 186.785156 754.101562 C 158.199219 754.101562 131.042969 743.378906 109.601562 725.511719 L 123.894531 724.082031 C 131.757812 723.367188 137.472656 716.222656 136.757812 709.074219 C 136.042969 701.214844 128.898438 695.496094 121.75 696.210938 L 74.582031 701.214844 C 71.007812 701.929688 67.4375 703.359375 65.292969 706.21875 C 63.148438 709.074219 61.71875 712.648438 62.433594 716.222656 L 67.4375 763.390625 C 68.152344 770.539062 74.582031 776.253906 81.015625 776.253906 C 81.730469 776.253906 81.730469 776.253906 82.445312 776.253906 C 90.304688 775.539062 96.023438 768.394531 95.308594 761.246094 L 93.878906 748.382812 C 120.320312 770.539062 153.195312 782.6875 188.214844 782.6875 C 268.972656 782.6875 334.007812 716.9375 334.007812 636.894531 C 332.578125 599.730469 319.714844 566.855469 298.273438 541.84375 Z M 298.273438 541.84375 " fill-opacity="1" fill-rule="nonzero"/></g><path fill="#79cbbb" d="M 122.464844 599.015625 L 122.464844 672.628906 L 138.902344 672.628906 L 138.902344 636.894531 C 139.617188 639.039062 140.332031 640.46875 141.046875 641.183594 L 162.488281 673.34375 L 183.210938 673.34375 L 155.339844 634.75 L 181.070312 599.730469 L 161.058594 599.730469 L 141.046875 630.460938 C 140.332031 631.890625 139.617188 633.320312 138.902344 634.75 L 138.902344 599.730469 L 122.464844 599.730469 Z M 122.464844 599.015625 " fill-opacity="1" fill-rule="nonzero"/><path fill="#79cbbb" d="M 226.808594 611.878906 C 234.667969 611.878906 241.816406 613.308594 247.53125 616.882812 L 247.53125 601.160156 C 241.816406 599.015625 234.667969 597.585938 226.808594 597.585938 C 214.660156 597.585938 204.652344 601.160156 196.792969 608.308594 C 189.644531 615.453125 185.355469 624.746094 185.355469 636.894531 C 185.355469 648.328125 188.929688 657.621094 195.363281 664.050781 C 202.507812 670.484375 211.800781 674.058594 223.234375 674.058594 C 233.953125 674.058594 242.53125 671.914062 249.675781 667.625 L 249.675781 630.460938 L 218.230469 630.460938 L 218.230469 644.039062 L 233.238281 644.039062 L 233.238281 658.332031 C 231.097656 659.761719 227.523438 659.761719 223.949219 659.761719 C 217.515625 659.761719 211.800781 657.621094 208.226562 653.332031 C 204.652344 649.042969 202.507812 643.324219 202.507812 635.464844 C 202.507812 628.316406 204.652344 621.886719 208.941406 617.597656 C 213.945312 614.023438 219.660156 611.878906 226.808594 611.878906 Z M 226.808594 611.878906 " fill-opacity="1" fill-rule="nonzero"/></svg>