<svg xmlns="http://www.w3.org/2000/svg" xmlns:xlink="http://www.w3.org/1999/xlink" width="1920" zoomAndPan="magnify" viewBox="0 0 1440 809.999993" height="1080" preserveAspectRatio="xMidYMid meet" version="1.0"><defs><g/><clipPath id="1195462617"><path d="M 85 30.257812 L 1439 30.257812 L 1439 779.195312 L 85 779.195312 Z M 85 30.257812 " clip-rule="nonzero"/></clipPath></defs><g clip-path="url(#1195462617)"><path fill="#02ab8a" d="M 85.242188 30.898438 L 603.363281 507.691406 L 536.230469 284.074219 L 933.34375 607.171875 L 883.839844 434.332031 L 1438.800781 779.195312 L 760.585938 223.101562 L 819.179688 440.664062 L 411.519531 102.4375 L 475.742188 311.386719 Z M 85.242188 30.898438 " fill-opacity="1" fill-rule="nonzero"/></g><g fill="#ffffff" fill-opacity="1"><g transform="translate(1.616777, 455.374331)"><g><path d="M 111.5625 -204.671875 L 64.546875 0 L -1.1875 0 L 45.8125 -204.671875 Z M 146.0625 -204.671875 L 211.21875 -204.671875 L 199.90625 -155.578125 L 134.765625 -155.578125 Z M 177.890625 -120.484375 L 167.1875 -73.484375 L 116.015625 -73.484375 L 126.734375 -120.484375 Z M 177.890625 -120.484375 "/></g></g></g><g fill="#ffffff" fill-opacity="1"><g transform="translate(200.041442, 455.374331)"><g><path d="M 114.234375 -204.671875 L 67.234375 0 L 1.484375 0 L 48.484375 -204.671875 Z M 114.234375 -204.671875 "/></g></g></g><g fill="#ffffff" fill-opacity="1"><g transform="translate(315.764333, 455.374331)"><g><path d="M 230.25 -204.671875 L 218.359375 -152.3125 L 185.921875 -152.3125 L 197.828125 -204.671875 Z M 151.421875 -152.3125 L 116.3125 0 L 50.578125 0 L 85.671875 -152.3125 L 18.4375 -152.3125 L 30.34375 -204.671875 L 163.3125 -204.671875 Z M 151.421875 -152.3125 "/></g></g></g><g fill="#ffffff" fill-opacity="1"><g transform="translate(530.550833, 455.374331)"><g><path d="M 144.28125 -208.234375 C 174.625 -208.234375 196.882812 -200.644531 211.0625 -185.46875 C 225.238281 -170.300781 229.054688 -148.640625 222.515625 -120.484375 L 159.75 -120.484375 C 162.519531 -132.378906 161.578125 -141.796875 156.921875 -148.734375 C 152.265625 -155.679688 144.179688 -159.15625 132.671875 -159.15625 C 130.890625 -159.15625 129.503906 -159.054688 128.515625 -158.859375 L 139.8125 -208.234375 Z M 83 -111.859375 L 78.828125 -92.8125 L 57.40625 -0.890625 C 15.363281 -12.984375 0.785156 -46.796875 13.671875 -102.328125 C 26.566406 -157.859375 56.816406 -191.675781 104.421875 -203.78125 Z M 102.328125 -45.515625 L 105.90625 -45.515625 C 118.59375 -45.515625 128.953125 -48.785156 136.984375 -55.328125 C 145.023438 -61.878906 150.429688 -71.101562 153.203125 -83 L 213.890625 -83 C 207.347656 -55.03125 193.8125 -33.609375 173.28125 -18.734375 C 152.757812 -3.867188 126.828125 3.5625 95.484375 3.5625 L 91.03125 3.5625 Z M 102.328125 -45.515625 "/></g></g></g><g fill="#ffffff" fill-opacity="1"><g transform="translate(761.996703, 455.374331)"><g><path d="M 154.6875 -204.671875 L 47 0 L -20.234375 0 L 101.4375 -204.671875 Z M 180.28125 -187.421875 L 205.5625 0 L 135.953125 0 L 133.875 -28.859375 L 96.6875 -28.859375 L 121.078125 -74.671875 L 130.890625 -74.671875 L 129.703125 -91.328125 Z M 180.28125 -187.421875 "/></g></g></g><g fill="#ffffff" fill-opacity="1"><g transform="translate(993.442518, 455.374331)"><g><path d="M 64.546875 0 L -1.1875 0 L 45.8125 -204.671875 L 111.5625 -204.671875 Z M 99.0625 0 L 110.96875 -52.359375 L 181.46875 -52.359375 L 169.5625 0 Z M 99.0625 0 "/></g></g></g><g fill="#ffffff" fill-opacity="1"><g transform="translate(1191.867192, 455.374331)"><g><path d="M 144.28125 -208.234375 C 174.625 -208.234375 196.882812 -200.644531 211.0625 -185.46875 C 225.238281 -170.300781 229.054688 -148.640625 222.515625 -120.484375 L 159.75 -120.484375 C 162.519531 -132.378906 161.578125 -141.796875 156.921875 -148.734375 C 152.265625 -155.679688 144.179688 -159.15625 132.671875 -159.15625 C 130.890625 -159.15625 129.503906 -159.054688 128.515625 -158.859375 L 139.8125 -208.234375 Z M 83 -111.859375 L 78.828125 -92.8125 L 57.40625 -0.890625 C 15.363281 -12.984375 0.785156 -46.796875 13.671875 -102.328125 C 26.566406 -157.859375 56.816406 -191.675781 104.421875 -203.78125 Z M 102.328125 -45.515625 L 105.90625 -45.515625 C 118.59375 -45.515625 128.953125 -48.785156 136.984375 -55.328125 C 145.023438 -61.878906 150.429688 -71.101562 153.203125 -83 L 213.890625 -83 C 207.347656 -55.03125 193.8125 -33.609375 173.28125 -18.734375 C 152.757812 -3.867188 126.828125 3.5625 95.484375 3.5625 L 91.03125 3.5625 Z M 102.328125 -45.515625 "/></g></g></g><g fill="#ffffff" fill-opacity="1"><g transform="translate(1423.321257, 455.374331)"><g/></g></g></svg>