<svg xmlns="http://www.w3.org/2000/svg" xmlns:xlink="http://www.w3.org/1999/xlink" width="1080" zoomAndPan="magnify" viewBox="0 0 810 809.999993" height="1080" preserveAspectRatio="xMidYMid meet" version="1.0"><defs><clipPath id="075801e83e"><path d="M 128.339844 27.308594 L 681.839844 27.308594 L 681.839844 782.558594 L 128.339844 782.558594 Z M 128.339844 27.308594 " clip-rule="nonzero"/></clipPath><clipPath id="311744194d"><path d="M 0 398.046875 L 423.382812 398.046875 L 423.382812 810 L 0 810 Z M 0 398.046875 " clip-rule="nonzero"/></clipPath><clipPath id="c0611a8620"><path d="M 145.0625 398.046875 C -8.652344 398.046875 -133.257812 530.976562 -133.257812 694.953125 C -133.257812 858.929688 -8.652344 991.859375 145.0625 991.859375 C 298.773438 991.859375 423.382812 858.929688 423.382812 694.953125 C 423.382812 530.976562 298.773438 398.046875 145.0625 398.046875 Z M 145.0625 398.046875 " clip-rule="nonzero"/></clipPath></defs><g clip-path="url(#075801e83e)"><path fill="#cecfd7" d="M 186.253906 42.207031 C 162.605469 42.207031 143.371094 61.449219 143.371094 85.09375 L 143.371094 724.90625 C 143.371094 748.546875 162.605469 767.789062 186.253906 767.789062 L 623.664062 767.789062 C 647.308594 767.789062 666.550781 748.546875 666.550781 724.90625 L 666.550781 85.09375 C 666.550781 61.449219 647.308594 42.207031 623.664062 42.207031 Z M 623.664062 782.695312 L 186.253906 782.695312 C 154.386719 782.695312 128.464844 756.769531 128.464844 724.90625 L 128.464844 85.09375 C 128.464844 53.226562 154.386719 27.300781 186.253906 27.300781 L 623.664062 27.300781 C 655.53125 27.300781 681.457031 53.226562 681.457031 85.09375 L 681.457031 724.90625 C 681.457031 756.769531 655.53125 782.695312 623.664062 782.695312 " fill-opacity="1" fill-rule="nonzero"/></g><path fill="#cecfd7" d="M 202.757812 267.210938 L 607.164062 267.210938 L 607.164062 101.125 L 202.757812 101.125 Z M 614.617188 282.121094 L 195.304688 282.121094 C 191.1875 282.121094 187.851562 278.78125 187.851562 274.664062 L 187.851562 93.671875 C 187.851562 89.550781 191.1875 86.214844 195.304688 86.214844 L 614.617188 86.214844 C 618.730469 86.214844 622.070312 89.550781 622.070312 93.671875 L 622.070312 274.664062 C 622.070312 278.78125 618.730469 282.121094 614.617188 282.121094 " fill-opacity="1" fill-rule="nonzero"/><path fill="#cecfd7" d="M 202.757812 439.308594 L 302.175781 439.308594 L 302.175781 354.523438 L 202.757812 354.523438 Z M 309.628906 454.21875 L 195.304688 454.21875 C 191.1875 454.21875 187.851562 450.882812 187.851562 446.765625 L 187.851562 347.066406 C 187.851562 342.953125 191.1875 339.613281 195.304688 339.613281 L 309.628906 339.613281 C 313.746094 339.613281 317.082031 342.953125 317.082031 347.066406 L 317.082031 446.765625 C 317.082031 450.882812 313.746094 454.21875 309.628906 454.21875 " fill-opacity="1" fill-rule="nonzero"/><path fill="#cecfd7" d="M 354.414062 439.308594 L 453.828125 439.308594 L 453.828125 354.523438 L 354.414062 354.523438 Z M 461.28125 454.21875 L 346.960938 454.21875 C 342.84375 454.21875 339.507812 450.882812 339.507812 446.765625 L 339.507812 347.066406 C 339.507812 342.953125 342.84375 339.613281 346.960938 339.613281 L 461.28125 339.613281 C 465.402344 339.613281 468.734375 342.953125 468.734375 347.066406 L 468.734375 446.765625 C 468.734375 450.882812 465.402344 454.21875 461.28125 454.21875 " fill-opacity="1" fill-rule="nonzero"/><path fill="#cecfd7" d="M 506.070312 439.308594 L 605.484375 439.308594 L 605.484375 354.523438 L 506.070312 354.523438 Z M 612.9375 454.21875 L 498.617188 454.21875 C 494.496094 454.21875 491.164062 450.882812 491.164062 446.765625 L 491.164062 347.066406 C 491.164062 342.953125 494.496094 339.613281 498.617188 339.613281 L 612.9375 339.613281 C 617.054688 339.613281 620.394531 342.953125 620.394531 347.066406 L 620.394531 446.765625 C 620.394531 450.882812 617.054688 454.21875 612.9375 454.21875 " fill-opacity="1" fill-rule="nonzero"/><path fill="#cecfd7" d="M 202.757812 576.886719 L 302.175781 576.886719 L 302.175781 492.089844 L 202.757812 492.089844 Z M 309.628906 591.792969 L 195.304688 591.792969 C 191.1875 591.792969 187.851562 588.453125 187.851562 584.339844 L 187.851562 484.636719 C 187.851562 480.523438 191.1875 477.183594 195.304688 477.183594 L 309.628906 477.183594 C 313.746094 477.183594 317.082031 480.523438 317.082031 484.636719 L 317.082031 584.339844 C 317.082031 588.453125 313.746094 591.792969 309.628906 591.792969 " fill-opacity="1" fill-rule="nonzero"/><path fill="#cecfd7" d="M 354.414062 576.886719 L 453.828125 576.886719 L 453.828125 492.089844 L 354.414062 492.089844 Z M 461.28125 591.792969 L 346.960938 591.792969 C 342.84375 591.792969 339.507812 588.453125 339.507812 584.339844 L 339.507812 484.636719 C 339.507812 480.523438 342.84375 477.183594 346.960938 477.183594 L 461.28125 477.183594 C 465.402344 477.183594 468.734375 480.523438 468.734375 484.636719 L 468.734375 584.339844 C 468.734375 588.453125 465.402344 591.792969 461.28125 591.792969 " fill-opacity="1" fill-rule="nonzero"/><path fill="#cecfd7" d="M 202.757812 714.457031 L 302.175781 714.457031 L 302.175781 629.660156 L 202.757812 629.660156 Z M 309.628906 729.363281 L 195.304688 729.363281 C 191.1875 729.363281 187.851562 726.023438 187.851562 721.910156 L 187.851562 622.203125 C 187.851562 618.089844 191.1875 614.75 195.304688 614.75 L 309.628906 614.75 C 313.746094 614.75 317.082031 618.089844 317.082031 622.203125 L 317.082031 721.910156 C 317.082031 726.023438 313.746094 729.363281 309.628906 729.363281 " fill-opacity="1" fill-rule="nonzero"/><path fill="#cecfd7" d="M 354.414062 714.457031 L 453.828125 714.457031 L 453.828125 629.660156 L 354.414062 629.660156 Z M 461.28125 729.363281 L 346.960938 729.363281 C 342.84375 729.363281 339.507812 726.023438 339.507812 721.910156 L 339.507812 622.203125 C 339.507812 618.089844 342.84375 614.75 346.960938 614.75 L 461.28125 614.75 C 465.402344 614.75 468.734375 618.089844 468.734375 622.203125 L 468.734375 721.910156 C 468.734375 726.023438 465.402344 729.363281 461.28125 729.363281 " fill-opacity="1" fill-rule="nonzero"/><path fill="#cecfd7" d="M 506.070312 714.457031 L 605.484375 714.457031 L 605.484375 492.089844 L 506.070312 492.089844 Z M 612.9375 729.363281 L 498.617188 729.363281 C 494.496094 729.363281 491.164062 726.023438 491.164062 721.910156 L 491.164062 484.636719 C 491.164062 480.523438 494.496094 477.183594 498.617188 477.183594 L 612.9375 477.183594 C 617.054688 477.183594 620.394531 480.523438 620.394531 484.636719 L 620.394531 721.910156 C 620.394531 726.023438 617.054688 729.363281 612.9375 729.363281 " fill-opacity="1" fill-rule="nonzero"/><path fill="#cecfd7" d="M 555.773438 638.589844 C 551.660156 638.589844 548.320312 635.25 548.320312 631.132812 L 548.320312 575.410156 C 548.320312 571.296875 551.660156 567.957031 555.773438 567.957031 C 559.898438 567.957031 563.226562 571.296875 563.226562 575.410156 L 563.226562 631.132812 C 563.226562 635.25 559.898438 638.589844 555.773438 638.589844 " fill-opacity="1" fill-rule="nonzero"/><path fill="#cecfd7" d="M 583.640625 610.726562 L 527.921875 610.726562 C 523.796875 610.726562 520.46875 607.386719 520.46875 603.273438 C 520.46875 599.160156 523.796875 595.820312 527.921875 595.820312 L 583.640625 595.820312 C 587.757812 595.820312 591.09375 599.160156 591.09375 603.273438 C 591.09375 607.386719 587.757812 610.726562 583.640625 610.726562 " fill-opacity="1" fill-rule="nonzero"/><g clip-path="url(#311744194d)"><g clip-path="url(#c0611a8620)"><path fill="#00425c" d="M -133.257812 398.046875 L 423.382812 398.046875 L 423.382812 991.652344 L -133.257812 991.652344 Z M -133.257812 398.046875 " fill-opacity="1" fill-rule="nonzero"/></g></g><path fill="#79cbbb" d="M 269.292969 524.519531 C 259.917969 516.570312 250.191406 519.28125 247.230469 531.238281 C 244.570312 539.710938 230.890625 558.621094 218.332031 552.820312 C 209.515625 548.503906 212.636719 530.214844 214.671875 518.164062 C 225.601562 471.597656 185.375 435.027344 145.003906 424.871094 C 132.980469 421.585938 125.300781 428.261719 128.574219 440.222656 C 136.613281 465.050781 127.039062 488.402344 110.648438 506.894531 C 99.492188 520.261719 85.082031 532.867188 72.335938 545.386719 C 42.957031 573.445312 30.066406 609.359375 36 646.535156 C 49.796875 734.300781 152.070312 782.625 232.902344 749.296875 C 332.539062 713.394531 354.265625 588.140625 269.292969 524.519531 Z M 114.726562 656.066406 C 115.03125 656.304688 115.308594 656.574219 115.5625 656.867188 C 115.816406 657.160156 116.039062 657.476562 116.234375 657.8125 C 116.425781 658.152344 116.582031 658.503906 116.707031 658.871094 C 116.832031 659.242188 116.917969 659.617188 116.96875 660 C 117.019531 660.386719 117.035156 660.773438 117.007812 661.160156 C 116.984375 661.546875 116.925781 661.929688 116.824219 662.304688 C 116.726562 662.679688 116.59375 663.042969 116.425781 663.394531 C 116.253906 663.742188 116.054688 664.074219 115.820312 664.382812 C 115.589844 664.695312 115.328125 664.980469 115.039062 665.242188 C 114.75 665.5 114.441406 665.730469 114.105469 665.929688 C 113.773438 666.128906 113.425781 666.296875 113.058594 666.425781 C 112.695312 666.558594 112.320312 666.652344 111.9375 666.714844 C 111.550781 666.773438 111.167969 666.792969 110.777344 666.777344 C 110.390625 666.761719 110.007812 666.707031 109.628906 666.617188 C 109.25 666.527344 108.886719 666.402344 108.53125 666.242188 C 108.179688 666.078125 107.84375 665.886719 107.53125 665.660156 L 89.125 651.871094 L 89.125 660.863281 C 89.117188 661.253906 89.074219 661.640625 88.992188 662.019531 C 88.914062 662.402344 88.796875 662.773438 88.640625 663.132812 C 88.488281 663.488281 88.300781 663.832031 88.082031 664.152344 C 87.863281 664.476562 87.613281 664.773438 87.335938 665.046875 C 87.058594 665.320312 86.757812 665.566406 86.433594 665.78125 C 86.105469 665.996094 85.761719 666.175781 85.402344 666.324219 C 85.042969 666.472656 84.667969 666.585938 84.285156 666.660156 C 83.902344 666.734375 83.515625 666.773438 83.128906 666.773438 C 82.738281 666.773438 82.351562 666.734375 81.96875 666.660156 C 81.585938 666.585938 81.214844 666.472656 80.851562 666.324219 C 80.492188 666.175781 80.148438 665.996094 79.824219 665.78125 C 79.496094 665.566406 79.195312 665.320312 78.917969 665.046875 C 78.640625 664.773438 78.390625 664.476562 78.171875 664.152344 C 77.953125 663.832031 77.765625 663.488281 77.613281 663.132812 C 77.460938 662.773438 77.34375 662.402344 77.261719 662.019531 C 77.179688 661.640625 77.136719 661.253906 77.132812 660.863281 L 77.132812 618.894531 C 77.132812 618.5 77.171875 618.109375 77.25 617.726562 C 77.328125 617.339844 77.441406 616.964844 77.59375 616.601562 C 77.742188 616.238281 77.929688 615.894531 78.148438 615.566406 C 78.367188 615.238281 78.613281 614.9375 78.894531 614.660156 C 79.171875 614.382812 79.472656 614.132812 79.800781 613.914062 C 80.128906 613.695312 80.472656 613.511719 80.835938 613.359375 C 81.199219 613.207031 81.574219 613.09375 81.957031 613.015625 C 82.34375 612.9375 82.734375 612.898438 83.128906 612.898438 C 91.1875 613.207031 88.785156 622.640625 89.125 627.886719 L 107.53125 614.097656 C 107.84375 613.859375 108.179688 613.65625 108.535156 613.484375 C 108.890625 613.316406 109.257812 613.179688 109.640625 613.082031 C 110.019531 612.984375 110.410156 612.925781 110.800781 612.902344 C 111.195312 612.878906 111.585938 612.898438 111.976562 612.953125 C 112.367188 613.007812 112.75 613.101562 113.121094 613.230469 C 113.492188 613.363281 113.847656 613.527344 114.1875 613.730469 C 114.527344 613.929688 114.84375 614.160156 115.136719 614.425781 C 115.429688 614.6875 115.695312 614.976562 115.929688 615.292969 C 116.167969 615.605469 116.371094 615.941406 116.539062 616.296875 C 116.710938 616.652344 116.84375 617.019531 116.941406 617.402344 C 117.039062 617.785156 117.097656 618.171875 117.121094 618.566406 C 117.140625 618.957031 117.125 619.351562 117.066406 619.742188 C 117.011719 620.128906 116.917969 620.511719 116.789062 620.882812 C 116.65625 621.253906 116.492188 621.609375 116.289062 621.949219 C 116.089844 622.289062 115.855469 622.601562 115.59375 622.894531 C 115.328125 623.191406 115.039062 623.453125 114.726562 623.691406 L 93.140625 639.878906 Z M 144.34375 654.867188 L 158.3125 654.867188 C 158.449219 654.875 158.582031 654.851562 158.710938 654.800781 C 158.839844 654.753906 158.953125 654.679688 159.046875 654.582031 C 159.144531 654.484375 159.21875 654.371094 159.269531 654.246094 C 159.316406 654.117188 159.339844 653.984375 159.332031 653.847656 C 159.332031 653.453125 159.371094 653.066406 159.449219 652.679688 C 159.527344 652.292969 159.640625 651.917969 159.792969 651.554688 C 159.941406 651.191406 160.128906 650.847656 160.347656 650.519531 C 160.566406 650.195312 160.8125 649.890625 161.09375 649.613281 C 161.371094 649.335938 161.671875 649.085938 162 648.867188 C 162.328125 648.652344 162.671875 648.464844 163.035156 648.316406 C 163.398438 648.164062 163.773438 648.050781 164.160156 647.976562 C 164.546875 647.898438 164.933594 647.859375 165.328125 647.859375 C 165.722656 647.859375 166.113281 647.898438 166.496094 647.976562 C 166.882812 648.050781 167.257812 648.164062 167.621094 648.316406 C 167.984375 648.464844 168.328125 648.652344 168.65625 648.867188 C 168.984375 649.085938 169.285156 649.335938 169.566406 649.613281 C 169.84375 649.890625 170.09375 650.195312 170.3125 650.519531 C 170.53125 650.847656 170.714844 651.191406 170.867188 651.554688 C 171.015625 651.917969 171.128906 652.292969 171.207031 652.679688 C 171.285156 653.066406 171.324219 653.453125 171.324219 653.847656 C 171.324219 654.703125 171.242188 655.546875 171.078125 656.386719 C 170.910156 657.226562 170.664062 658.039062 170.335938 658.828125 C 170.011719 659.617188 169.609375 660.367188 169.136719 661.078125 C 168.660156 661.789062 168.121094 662.445312 167.515625 663.050781 C 166.914062 663.65625 166.253906 664.195312 165.546875 664.667969 C 164.835938 665.144531 164.085938 665.542969 163.292969 665.871094 C 162.503906 666.199219 161.691406 666.445312 160.851562 666.609375 C 160.015625 666.777344 159.167969 666.859375 158.3125 666.859375 L 144.34375 666.859375 C 143.488281 666.855469 142.644531 666.773438 141.808594 666.605469 C 140.96875 666.4375 140.15625 666.1875 139.367188 665.859375 C 138.582031 665.535156 137.832031 665.132812 137.121094 664.65625 C 136.410156 664.183594 135.753906 663.644531 135.152344 663.039062 C 134.546875 662.4375 134.007812 661.78125 133.535156 661.070312 C 133.058594 660.359375 132.65625 659.609375 132.332031 658.824219 C 132.003906 658.035156 131.753906 657.222656 131.585938 656.382812 C 131.417969 655.546875 131.335938 654.703125 131.332031 653.847656 L 131.332031 625.910156 C 131.335938 625.054688 131.417969 624.210938 131.585938 623.371094 C 131.753906 622.535156 132.003906 621.722656 132.332031 620.933594 C 132.65625 620.144531 133.058594 619.394531 133.535156 618.6875 C 134.007812 617.976562 134.546875 617.320312 135.152344 616.714844 C 135.753906 616.113281 136.410156 615.574219 137.121094 615.097656 C 137.832031 614.625 138.582031 614.222656 139.367188 613.894531 C 140.15625 613.566406 140.96875 613.320312 141.808594 613.152344 C 142.644531 612.984375 143.488281 612.898438 144.34375 612.898438 L 158.3125 612.898438 C 159.167969 612.898438 160.015625 612.980469 160.851562 613.144531 C 161.691406 613.3125 162.503906 613.558594 163.292969 613.886719 C 164.085938 614.210938 164.835938 614.613281 165.546875 615.085938 C 166.253906 615.5625 166.914062 616.101562 167.515625 616.703125 C 168.121094 617.308594 168.660156 617.964844 169.136719 618.675781 C 169.609375 619.386719 170.011719 620.136719 170.335938 620.925781 C 170.664062 621.71875 170.910156 622.53125 171.078125 623.371094 C 171.242188 624.207031 171.324219 625.054688 171.324219 625.910156 C 171.324219 626.300781 171.285156 626.691406 171.207031 627.078125 C 171.128906 627.460938 171.015625 627.835938 170.867188 628.199219 C 170.714844 628.5625 170.53125 628.910156 170.3125 629.234375 C 170.09375 629.5625 169.84375 629.863281 169.566406 630.140625 C 169.285156 630.421875 168.984375 630.667969 168.65625 630.886719 C 168.328125 631.105469 167.984375 631.289062 167.621094 631.441406 C 167.257812 631.589844 166.882812 631.703125 166.496094 631.78125 C 166.113281 631.855469 165.722656 631.894531 165.328125 631.894531 C 164.933594 631.894531 164.546875 631.855469 164.160156 631.78125 C 163.773438 631.703125 163.398438 631.589844 163.035156 631.441406 C 162.671875 631.289062 162.328125 631.105469 162 630.886719 C 161.671875 630.667969 161.371094 630.421875 161.09375 630.140625 C 160.8125 629.863281 160.566406 629.5625 160.347656 629.234375 C 160.128906 628.910156 159.941406 628.5625 159.792969 628.199219 C 159.640625 627.835938 159.527344 627.460938 159.449219 627.078125 C 159.371094 626.691406 159.332031 626.300781 159.332031 625.910156 C 159.339844 625.769531 159.316406 625.640625 159.269531 625.511719 C 159.21875 625.382812 159.144531 625.269531 159.046875 625.175781 C 158.953125 625.078125 158.839844 625.003906 158.710938 624.953125 C 158.582031 624.90625 158.449219 624.882812 158.3125 624.890625 L 144.34375 624.890625 C 144.207031 624.886719 144.078125 624.914062 143.953125 624.964844 C 143.828125 625.015625 143.714844 625.089844 143.621094 625.183594 C 143.523438 625.28125 143.449219 625.390625 143.398438 625.515625 C 143.347656 625.640625 143.324219 625.773438 143.324219 625.910156 L 143.324219 653.847656 C 143.324219 653.984375 143.347656 654.113281 143.398438 654.238281 C 143.449219 654.363281 143.523438 654.476562 143.621094 654.570312 C 143.714844 654.667969 143.828125 654.742188 143.953125 654.792969 C 144.078125 654.84375 144.207031 654.867188 144.34375 654.867188 Z M 225.523438 660.863281 C 225.519531 661.253906 225.476562 661.640625 225.394531 662.019531 C 225.316406 662.402344 225.199219 662.773438 225.042969 663.132812 C 224.890625 663.488281 224.703125 663.832031 224.484375 664.152344 C 224.265625 664.476562 224.015625 664.773438 223.738281 665.046875 C 223.460938 665.320312 223.160156 665.566406 222.835938 665.78125 C 222.507812 665.996094 222.164062 666.175781 221.804688 666.324219 C 221.445312 666.472656 221.070312 666.585938 220.6875 666.660156 C 220.304688 666.734375 219.917969 666.773438 219.53125 666.773438 C 219.140625 666.773438 218.753906 666.734375 218.371094 666.660156 C 217.988281 666.585938 217.617188 666.472656 217.253906 666.324219 C 216.894531 666.175781 216.550781 665.996094 216.226562 665.78125 C 215.898438 665.566406 215.597656 665.320312 215.320312 665.046875 C 215.042969 664.773438 214.792969 664.476562 214.574219 664.152344 C 214.355469 663.832031 214.167969 663.488281 214.015625 663.132812 C 213.863281 662.773438 213.746094 662.402344 213.664062 662.019531 C 213.582031 661.640625 213.539062 661.253906 213.535156 660.863281 L 213.535156 645.875 L 197.585938 645.875 L 197.585938 660.863281 C 197.578125 661.253906 197.535156 661.640625 197.457031 662.019531 C 197.375 662.402344 197.257812 662.773438 197.105469 663.132812 C 196.953125 663.488281 196.765625 663.832031 196.546875 664.152344 C 196.324219 664.476562 196.078125 664.773438 195.800781 665.046875 C 195.523438 665.320312 195.21875 665.566406 194.894531 665.78125 C 194.570312 665.996094 194.226562 666.175781 193.863281 666.324219 C 193.503906 666.472656 193.132812 666.585938 192.75 666.660156 C 192.367188 666.734375 191.980469 666.773438 191.589844 666.773438 C 191.199219 666.773438 190.8125 666.734375 190.429688 666.660156 C 190.046875 666.585938 189.675781 666.472656 189.316406 666.324219 C 188.953125 666.175781 188.609375 665.996094 188.285156 665.78125 C 187.960938 665.566406 187.660156 665.320312 187.378906 665.046875 C 187.101562 664.773438 186.855469 664.476562 186.632812 664.152344 C 186.414062 663.832031 186.226562 663.488281 186.074219 663.132812 C 185.921875 662.773438 185.804688 662.402344 185.722656 662.019531 C 185.644531 661.640625 185.601562 661.253906 185.59375 660.863281 L 185.59375 625.910156 C 185.59375 625.054688 185.675781 624.210938 185.839844 623.375 C 186.003906 622.539062 186.246094 621.726562 186.570312 620.9375 C 186.898438 620.152344 187.292969 619.402344 187.765625 618.691406 C 188.238281 617.984375 188.773438 617.328125 189.375 616.722656 C 189.976562 616.117188 190.632812 615.578125 191.339844 615.105469 C 192.046875 614.628906 192.792969 614.226562 193.582031 613.898438 C 194.367188 613.570312 195.179688 613.320312 196.011719 613.152344 C 196.847656 612.984375 197.691406 612.898438 198.542969 612.898438 L 212.574219 612.898438 C 213.425781 612.898438 214.269531 612.984375 215.105469 613.152344 C 215.941406 613.320312 216.753906 613.570312 217.539062 613.898438 C 218.324219 614.226562 219.074219 614.628906 219.78125 615.105469 C 220.488281 615.578125 221.140625 616.117188 221.742188 616.722656 C 222.34375 617.328125 222.882812 617.984375 223.351562 618.691406 C 223.824219 619.402344 224.222656 620.152344 224.546875 620.9375 C 224.871094 621.726562 225.117188 622.539062 225.28125 623.375 C 225.445312 624.210938 225.527344 625.054688 225.527344 625.910156 Z M 273.730469 666.859375 L 245.789062 666.859375 C 245.398438 666.859375 245.007812 666.816406 244.621094 666.742188 C 244.238281 666.664062 243.863281 666.546875 243.5 666.398438 C 243.136719 666.246094 242.789062 666.0625 242.464844 665.84375 C 242.136719 665.625 241.835938 665.375 241.554688 665.097656 C 241.277344 664.820312 241.03125 664.515625 240.8125 664.191406 C 240.59375 663.863281 240.40625 663.519531 240.257812 663.15625 C 240.105469 662.792969 239.992188 662.417969 239.914062 662.03125 C 239.835938 661.644531 239.796875 661.257812 239.796875 660.863281 L 239.796875 618.894531 C 239.792969 618.5 239.832031 618.109375 239.910156 617.722656 C 239.984375 617.335938 240.097656 616.960938 240.25 616.59375 C 240.398438 616.230469 240.582031 615.882812 240.800781 615.558594 C 241.019531 615.230469 241.269531 614.925781 241.546875 614.644531 C 241.824219 614.367188 242.128906 614.117188 242.457031 613.898438 C 242.785156 613.679688 243.128906 613.496094 243.492188 613.34375 C 243.859375 613.191406 244.234375 613.078125 244.621094 613 C 245.007812 612.925781 245.398438 612.886719 245.789062 612.886719 C 246.183594 612.886719 246.574219 612.925781 246.960938 613 C 247.347656 613.078125 247.722656 613.191406 248.089844 613.34375 C 248.453125 613.496094 248.796875 613.679688 249.125 613.898438 C 249.453125 614.117188 249.757812 614.367188 250.035156 614.644531 C 250.3125 614.925781 250.5625 615.230469 250.78125 615.558594 C 251 615.882812 251.183594 616.230469 251.332031 616.59375 C 251.484375 616.960938 251.597656 617.335938 251.671875 617.722656 C 251.75 618.109375 251.789062 618.5 251.785156 618.894531 L 251.785156 654.867188 L 273.730469 654.867188 C 274.121094 654.875 274.503906 654.917969 274.886719 655 C 275.265625 655.082031 275.632812 655.199219 275.992188 655.355469 C 276.351562 655.507812 276.6875 655.695312 277.011719 655.914062 C 277.332031 656.136719 277.628906 656.382812 277.902344 656.660156 C 278.171875 656.9375 278.417969 657.242188 278.628906 657.566406 C 278.84375 657.890625 279.023438 658.234375 279.171875 658.59375 C 279.320312 658.953125 279.429688 659.324219 279.507812 659.707031 C 279.582031 660.089844 279.617188 660.472656 279.617188 660.863281 C 279.617188 661.253906 279.582031 661.636719 279.507812 662.019531 C 279.429688 662.402344 279.320312 662.773438 279.171875 663.132812 C 279.023438 663.492188 278.84375 663.835938 278.628906 664.160156 C 278.417969 664.484375 278.171875 664.789062 277.902344 665.066406 C 277.628906 665.34375 277.332031 665.589844 277.011719 665.8125 C 276.6875 666.03125 276.351562 666.21875 275.992188 666.371094 C 275.632812 666.527344 275.265625 666.644531 274.886719 666.726562 C 274.503906 666.808594 274.121094 666.851562 273.730469 666.859375 Z M 273.730469 666.859375 " fill-opacity="1" fill-rule="nonzero"/><path fill="#79cbbb" d="M 212.574219 624.890625 L 198.542969 624.890625 C 198.414062 624.890625 198.285156 624.914062 198.164062 624.96875 C 198.042969 625.019531 197.9375 625.09375 197.84375 625.191406 C 197.753906 625.289062 197.6875 625.398438 197.640625 625.523438 C 197.597656 625.648438 197.578125 625.777344 197.585938 625.910156 L 197.585938 633.882812 L 213.535156 633.882812 L 213.535156 625.910156 C 213.542969 625.777344 213.523438 625.648438 213.476562 625.523438 C 213.433594 625.398438 213.363281 625.289062 213.273438 625.191406 C 213.183594 625.09375 213.078125 625.019531 212.957031 624.96875 C 212.835938 624.914062 212.707031 624.890625 212.574219 624.890625 Z M 212.574219 624.890625 " fill-opacity="1" fill-rule="nonzero"/></svg>