<svg xmlns="http://www.w3.org/2000/svg" xmlns:xlink="http://www.w3.org/1999/xlink" width="1080" zoomAndPan="magnify" viewBox="0 0 810 809.999993" height="1080" preserveAspectRatio="xMidYMid meet" version="1.0"><path fill="#fff5ec" d="M 433.558594 208.667969 C 443.546875 216.941406 476.320312 228.332031 508.46875 228.957031 C 514.085938 229.113281 520.796875 237.539062 525.792969 238.164062 C 527.195312 238.320312 528.601562 238.632812 530.007812 238.945312 C 533.441406 238.320312 538.121094 236.761719 541.085938 241.910156 C 556.851562 247.683594 569.960938 259.546875 585.097656 282.332031 C 585.097656 282.332031 605.699219 335.863281 579.324219 350.066406 C 579.324219 350.066406 580.105469 399.382812 574.640625 439.804688 C 569.179688 480.222656 553.105469 491.773438 548.265625 540.152344 C 542.804688 595.871094 601.171875 679.519531 584.941406 745.226562 C 584.941406 745.226562 501.914062 809.835938 360.207031 792.667969 C 171.363281 769.726562 127.042969 723.0625 127.042969 723.0625 C 127.042969 723.0625 158.253906 634.261719 177.296875 590.875 C 196.335938 547.332031 198.050781 495.988281 199.925781 472.734375 C 201.796875 449.480469 193.214844 441.207031 193.214844 441.207031 C 193.214844 441.207031 133.910156 361.613281 105.035156 355.839844 C 105.035156 355.839844 128.289062 281.707031 161.375 257.828125 C 173.394531 249.089844 193.683594 242.378906 215.6875 236.605469 C 255.796875 219.59375 293.722656 212.257812 308.859375 205.546875 C 332.582031 194.933594 336.953125 180.574219 336.953125 180.574219 Z M 433.558594 208.667969 " fill-opacity="1" fill-rule="nonzero"/><path fill="#00425c" d="M 718.066406 122.050781 C 703.394531 121.425781 677.488281 132.976562 658.761719 142.652344 C 656.265625 141.402344 650.023438 138.90625 648.148438 142.652344 C 647.523438 143.746094 648.460938 147.800781 648.773438 149.363281 C 641.75 153.421875 635.039062 157.476562 625.988281 163.097656 C 624.425781 162.628906 619.902344 161.066406 618.027344 161.066406 C 612.410156 161.066406 611.160156 166.21875 611.003906 169.496094 C 611.003906 170.277344 611.628906 171.835938 611.003906 172.304688 C 606.480469 169.183594 599.925781 172.617188 598.832031 178.390625 C 592.589844 181.824219 586.96875 182.449219 581.976562 184.007812 C 570.738281 187.597656 558.253906 186.195312 549.984375 184.476562 C 547.953125 186.195312 545.925781 187.910156 543.894531 189.628906 C 542.648438 190.71875 541.554688 191.65625 540.152344 192.28125 C 538.746094 192.90625 537.03125 193.21875 535.625 192.59375 C 534.21875 191.96875 533.128906 190.5625 532.660156 189.003906 C 532.191406 187.441406 532.191406 185.882812 532.191406 184.320312 C 532.347656 180.886719 532.660156 177.296875 533.90625 174.019531 C 535.3125 170.742188 537.652344 167.933594 540.152344 165.28125 C 540.929688 164.5 541.710938 163.722656 542.804688 163.253906 C 544.207031 162.628906 546.082031 162.785156 547.328125 163.878906 C 549.828125 165.75 549.671875 169.339844 551.230469 171.835938 C 551.542969 172.460938 552.324219 172.929688 552.636719 173.398438 C 552.636719 173.554688 552.636719 173.710938 552.792969 173.710938 C 566.214844 174.957031 588.53125 174.488281 593.371094 172.304688 C 599.457031 169.339844 621.617188 151.546875 656.578125 133.132812 C 691.535156 114.714844 722.4375 109.253906 723.371094 113 C 724.621094 120.492188 718.066406 122.050781 718.066406 122.050781 Z M 480.222656 388.613281 L 531.878906 414.675781 C 531.878906 414.675781 532.191406 433.25 524.074219 455.253906 C 515.960938 477.257812 501.289062 488.027344 494.421875 488.027344 C 487.554688 488.027344 354.429688 495.832031 341.476562 495.832031 L 320.410156 469.144531 L 317.753906 469.144531 C 317.753906 469.144531 292.472656 470.859375 280.925781 467.738281 C 269.375 464.617188 248.304688 428.410156 247.214844 421.855469 C 245.964844 415.300781 243.78125 388.457031 243.78125 388.457031 L 480.222656 388.457031 Z M 284.355469 464.304688 C 282.328125 463.523438 280.613281 461.652344 279.832031 459 C 279.050781 456.503906 279.050781 453.847656 279.050781 451.351562 L 279.050781 437.617188 L 277.492188 437.617188 L 277.492188 451.351562 C 277.492188 454.003906 277.492188 456.8125 278.425781 459.46875 C 279.363281 462.589844 281.546875 464.929688 284.046875 465.710938 Z M 540.929688 238.945312 C 541.085938 239.882812 541.085938 240.972656 541.085938 241.910156 C 537.652344 240.660156 533.90625 239.570312 530.164062 238.945312 C 529.226562 234.574219 527.351562 230.207031 525.011719 226.460938 C 526.574219 230.515625 527.664062 234.730469 527.820312 238.632812 C 527.507812 238.632812 527.195312 238.476562 526.886719 238.476562 C 526.417969 237.070312 525.949219 235.824219 525.480469 234.417969 C 525.636719 235.511719 525.792969 236.761719 525.792969 237.851562 C 525.792969 238.007812 525.792969 238.164062 525.792969 238.320312 C 520.796875 237.695312 515.648438 237.226562 510.03125 237.226562 C 477.878906 236.605469 444.167969 228.019531 434.179688 219.75 L 338.511719 198.679688 C 338.511719 198.679688 336.328125 203.519531 312.605469 213.972656 C 297.46875 220.683594 253.925781 227.082031 215.6875 236.917969 C 215.53125 231.453125 216.15625 226.460938 216.9375 222.402344 C 215.21875 227.394531 214.285156 232.859375 213.972656 237.382812 C 213.660156 237.539062 213.347656 237.539062 213.035156 237.695312 C 212.253906 232.078125 213.347656 226.929688 215.375 221.152344 C 216.15625 218.96875 216.78125 216.628906 217.871094 214.441406 C 213.191406 223.339844 212.097656 233.640625 211.785156 238.164062 C 210.539062 238.476562 209.289062 238.789062 208.039062 239.257812 C 208.195312 236.292969 208.351562 233.171875 208.820312 230.363281 C 210.539062 219.75 216.625 209.917969 225.207031 203.519531 C 215.21875 208.980469 207.105469 217.25 204.605469 229.425781 C 204.605469 229.738281 204.140625 229.582031 204.140625 229.269531 C 206.011719 216.160156 214.59375 206.171875 226.300781 200.085938 C 230.515625 197.898438 235.039062 196.183594 239.722656 194.621094 C 239.878906 194.308594 240.191406 193.996094 240.347656 193.6875 C 238.628906 194.152344 236.914062 194.464844 235.351562 194.464844 C 235.195312 194.464844 235.195312 194.152344 235.351562 194.152344 C 237.226562 194.152344 239.097656 193.6875 240.816406 192.90625 C 246.433594 184.164062 251.269531 174.332031 258.449219 167.15625 C 258.605469 165.90625 258.761719 164.5 258.917969 163.253906 C 259.699219 161.378906 260.167969 159.351562 260.792969 157.320312 C 262.195312 152.328125 263.601562 147.957031 267.035156 143.902344 C 267.035156 143.902344 267.035156 143.746094 266.878906 143.746094 C 263.757812 146.554688 261.726562 149.363281 260.324219 153.421875 C 261.101562 149.519531 262.507812 145.929688 264.691406 142.808594 C 267.8125 138.28125 272.496094 135.003906 277.179688 131.882812 C 279.207031 125.015625 283.734375 119.867188 289.195312 114.871094 C 290.132812 113.9375 291.066406 113.15625 291.847656 112.21875 C 292.628906 109.878906 293.097656 107.535156 293.566406 105.507812 C 299.496094 72.578125 332.894531 38.554688 343.664062 31.21875 C 389.234375 0.164062 446.511719 23.417969 455.09375 38.398438 C 467.113281 38.085938 478.035156 45.890625 481.9375 57.285156 C 483.1875 61.027344 484.277344 64.929688 485.683594 68.675781 C 488.492188 70.707031 490.832031 73.203125 492.863281 76.324219 C 495.046875 79.601562 496.296875 83.347656 497.542969 87.09375 C 500.355469 89.277344 503.320312 91.304688 505.972656 93.648438 C 513.773438 100.671875 517.832031 110.96875 518.769531 121.425781 C 519.238281 126.109375 519.082031 130.945312 518.457031 135.628906 C 518.457031 135.628906 518.613281 135.785156 518.613281 135.785156 C 518.144531 154.511719 515.492188 173.863281 518.925781 192.4375 C 519.082031 193.21875 519.238281 193.839844 519.394531 194.621094 C 521.109375 199.460938 523.761719 203.984375 527.507812 208.511719 C 534.53125 216.472656 543.738281 226.929688 540.929688 238.945312 Z M 220.527344 209.449219 C 220.214844 209.761719 219.902344 210.230469 219.746094 210.539062 C 219.902344 210.230469 220.214844 210.074219 220.371094 209.761719 C 220.527344 209.605469 220.527344 209.449219 220.527344 209.449219 Z M 246.277344 206.640625 C 237.539062 210.695312 225.675781 220.375 227.550781 231.140625 C 227.550781 231.453125 228.015625 231.296875 228.015625 231.140625 C 226.769531 220.839844 237.847656 210.695312 246.277344 206.640625 C 246.433594 206.640625 246.433594 206.484375 246.277344 206.640625 Z M 250.960938 187.441406 C 248.304688 189.316406 245.027344 191.1875 241.75 192.4375 C 241.4375 192.75 241.28125 193.0625 240.972656 193.375 C 242.53125 192.90625 244.09375 192.28125 245.652344 191.8125 C 247.683594 190.5625 249.398438 189.160156 250.960938 187.441406 Z M 257.515625 171.992188 C 255.328125 174.175781 253.457031 176.675781 251.425781 179.171875 C 248.304688 183.074219 245.496094 187.285156 242.6875 191.34375 C 246.746094 189.003906 250.179688 185.257812 252.519531 181.511719 C 254.238281 178.859375 255.171875 174.800781 257.515625 172.617188 C 257.515625 172.304688 257.515625 172.148438 257.515625 171.992188 Z M 279.675781 129.230469 C 280.457031 128.605469 281.390625 127.980469 282.171875 127.355469 C 284.667969 125.328125 286.699219 122.519531 288.414062 119.242188 C 285.449219 122.363281 282.328125 125.640625 279.675781 129.230469 Z M 283.890625 155.761719 C 279.207031 159.976562 278.425781 166.375 277.335938 172.304688 C 276.554688 176.519531 275.929688 180.574219 274.367188 184.476562 C 272.652344 188.847656 269.53125 191.96875 266.878906 195.714844 C 266.878906 195.714844 266.878906 195.871094 267.035156 195.871094 C 271.871094 192.4375 275.304688 187.132812 276.867188 181.511719 C 279.363281 172.460938 279.207031 164.5 284.667969 156.386719 C 284.824219 155.761719 284.203125 155.449219 283.890625 155.761719 Z M 303.867188 141.558594 C 296.84375 147.957031 289.820312 154.511719 287.167969 163.878906 C 287.167969 164.03125 287.324219 164.03125 287.324219 163.878906 C 289.507812 154.980469 298.402344 148.425781 304.179688 141.871094 C 304.332031 141.558594 304.023438 141.402344 303.867188 141.558594 Z M 513.929688 154.511719 C 514.242188 158.101562 514.554688 161.691406 514.867188 165.28125 C 515.648438 157.320312 516.273438 149.363281 517.207031 141.402344 C 516.585938 144.835938 515.804688 148.269531 514.867188 151.703125 C 514.554688 152.484375 514.242188 153.421875 513.929688 154.511719 Z M 511.433594 188.066406 C 512.214844 190.410156 513.464844 192.59375 514.867188 194.621094 C 513.464844 187.597656 513.621094 180.730469 514.085938 173.710938 C 513.464844 168.246094 512.996094 162.785156 513.152344 157.320312 C 510.34375 167.621094 507.84375 178.234375 511.433594 188.066406 Z M 495.203125 84.59375 C 495.046875 84.125 494.890625 83.816406 494.734375 83.347656 C 492.863281 78.976562 490.210938 75.230469 487.089844 71.953125 C 488.960938 76.636719 491.457031 81.003906 495.046875 84.4375 C 494.890625 84.4375 495.046875 84.4375 495.203125 84.59375 Z M 499.417969 129.542969 C 499.417969 129.386719 499.261719 129.386719 499.417969 129.542969 C 500.199219 140.3125 499.730469 150.921875 497.542969 161.535156 C 495.984375 168.714844 494.421875 175.425781 497.230469 182.605469 C 497.386719 182.917969 497.855469 182.761719 497.855469 182.449219 C 494.109375 172.617188 499.105469 162.316406 500.355469 152.328125 C 501.289062 144.523438 500.820312 137.035156 499.417969 129.542969 Z M 518.613281 211.945312 C 516.585938 206.328125 513.464844 201.488281 510.652344 196.339844 C 506.597656 189.003906 504.097656 181.199219 503.320312 172.773438 C 503.320312 172.617188 503.007812 172.617188 503.007812 172.773438 C 503.007812 188.691406 512.058594 198.367188 518.300781 212.101562 C 518.457031 212.101562 518.613281 211.945312 518.613281 211.945312 Z M 538.433594 227.707031 C 538.277344 226.929688 538.121094 226.304688 537.964844 225.523438 C 536.5625 220.683594 533.128906 216.472656 530.007812 212.726562 C 527.195312 209.292969 524.074219 206.015625 521.578125 202.269531 C 521.734375 202.894531 522.046875 203.519531 522.359375 204.140625 C 522.828125 204.609375 523.296875 205.234375 523.765625 205.703125 C 529.070312 211.945312 534.0625 218.65625 537.339844 225.992188 C 537.652344 226.617188 538.121094 227.082031 538.433594 227.707031 Z M 538.433594 227.707031 " fill-opacity="1" fill-rule="nonzero"/><path fill="#79cbbb" d="M 572.144531 753.652344 C 543.738281 770.507812 469.453125 805.78125 360.363281 792.667969 C 314.167969 787.050781 276.554688 780.027344 246.121094 772.691406 C 251.582031 717.289062 266.253906 652.988281 277.179688 600.082031 C 282.484375 574.644531 288.570312 549.207031 299.496094 525.796875 C 305.738281 512.375 313.699219 499.578125 317.753906 485.21875 C 319.160156 479.910156 320.097656 474.605469 320.566406 469.300781 L 462.585938 469.300781 C 475.539062 469.300781 480.222656 467.894531 487.089844 467.894531 C 493.953125 467.894531 507.84375 467.738281 515.960938 445.734375 C 524.074219 423.726562 524.074219 423.726562 524.074219 423.726562 L 518.300781 419.046875 C 517.207031 420.449219 516.273438 421.699219 515.335938 422.480469 C 510.496094 427.316406 481.3125 431.53125 423.257812 432.15625 C 362.390625 432.78125 289.039062 435.589844 279.988281 434.183594 C 270.9375 432.78125 250.023438 397.664062 246.902344 392.203125 C 242.84375 385.023438 243 378.9375 242.84375 375.972656 C 246.589844 376.597656 250.648438 375.035156 253.144531 372.070312 C 254.082031 370.820312 254.859375 369.417969 256.265625 368.480469 C 259.074219 366.453125 263.132812 368.011719 266.253906 369.730469 C 269.375 371.445312 272.964844 373.320312 276.242188 372.070312 C 280.300781 370.351562 281.390625 364.421875 285.605469 363.019531 C 286.542969 362.707031 287.480469 362.707031 288.414062 362.707031 C 289.351562 362.707031 290.445312 362.863281 291.378906 363.019531 C 288.570312 355.839844 285.917969 348.660156 283.734375 341.324219 C 272.339844 303.402344 271.714844 260.015625 246.589844 229.738281 C 256.109375 227.707031 265.316406 225.835938 273.902344 224.117188 C 282.796875 237.382812 291.066406 251.117188 297.15625 265.945312 C 308.390625 293.414062 311.667969 323.535156 318.691406 352.40625 C 320.722656 352.09375 322.90625 352.25 324.933594 352.71875 C 330.085938 353.808594 334.921875 356.152344 338.980469 359.585938 C 341.320312 361.613281 343.664062 364.265625 346.628906 365.046875 C 353.496094 366.917969 360.207031 359.429688 367.074219 361.144531 C 371.285156 362.238281 373.941406 366.296875 377.683594 368.324219 C 380.183594 369.730469 383.148438 370.042969 385.957031 369.574219 C 390.171875 368.636719 393.761719 365.515625 397.972656 365.203125 C 404.214844 364.890625 410.460938 369.417969 414.046875 374.410156 C 414.203125 371.601562 413.738281 368.480469 414.515625 365.671875 C 424.503906 368.324219 435.429688 367.386719 444.792969 362.863281 C 448.226562 361.144531 451.660156 358.960938 455.5625 358.804688 C 459.308594 358.648438 462.742188 360.519531 466.019531 362.238281 C 469.921875 364.421875 473.667969 366.761719 476.476562 370.042969 C 479.285156 373.320312 481.15625 377.6875 484.746094 380.03125 C 490.832031 384.242188 500.199219 381.746094 505.503906 386.894531 C 508.15625 389.550781 509.09375 393.296875 510.1875 397.039062 C 511.433594 395.167969 511.589844 392.828125 511.746094 390.484375 C 513.152344 365.203125 509.40625 339.765625 501.914062 315.574219 C 494.265625 291.070312 483.03125 267.972656 469.140625 246.4375 C 465.394531 240.660156 461.335938 234.886719 457.125 229.425781 C 462.742188 230.984375 469.140625 232.546875 475.851562 233.640625 C 506.128906 272.1875 520.953125 321.660156 532.503906 369.730469 C 540.929688 404.84375 548.421875 440.894531 544.988281 476.945312 C 543.738281 490.835938 540.773438 504.726562 538.746094 518.617188 C 536.09375 537.1875 537.027344 556.382812 538.589844 575.113281 C 540.617188 598.054688 544.050781 620.996094 548.109375 643.78125 C 552.167969 666.878906 557.160156 689.664062 562.3125 712.609375 C 564.652344 722.90625 567.148438 733.207031 569.804688 743.507812 C 570.425781 746.628906 571.363281 750.0625 572.144531 753.652344 Z M 344.441406 91.148438 C 344.441406 91.148438 369.882812 50.882812 417.015625 47.761719 C 443.703125 46.046875 465.394531 59.15625 465.394531 59.15625 C 465.394531 59.15625 452.597656 42.144531 442.140625 37.617188 C 442.296875 37.617188 366.136719 14.210938 344.441406 91.148438 Z M 344.441406 91.148438 " fill-opacity="1" fill-rule="nonzero"/><path fill="#f5aa9a" d="M 460.246094 469.144531 C 459.777344 469.769531 459.152344 470.234375 458.683594 470.546875 C 455.40625 472.578125 425.597656 520.644531 410.304688 529.542969 C 395.007812 538.4375 345.691406 545.148438 321.5 561.691406 C 297.3125 578.234375 215.0625 634.574219 169.023438 646.589844 C 122.984375 658.453125 72.261719 646.589844 64.925781 593.214844 C 57.4375 539.839844 88.335938 408.902344 93.019531 392.984375 C 97.703125 377.0625 105.035156 355.839844 105.035156 355.839844 C 105.035156 355.839844 169.804688 375.660156 226.300781 412.179688 L 193.996094 530.945312 C 193.996094 530.945312 260.636719 525.953125 277.492188 516.585938 C 291.535156 508.785156 304.332031 483.65625 316.195312 469.300781 C 317.289062 469.300781 318.066406 469.144531 318.066406 469.144531 L 354.585938 469.144531 C 349.28125 476.324219 344.132812 484.125 342.257812 491.460938 C 342.257812 491.460938 365.824219 488.183594 379.402344 476.789062 C 392.980469 465.554688 430.125 440.269531 437.457031 442.144531 C 444.792969 444.015625 448.382812 450.257812 445.105469 456.65625 C 445.105469 456.65625 454.78125 450.414062 460.710938 454.628906 C 465.394531 458.375 463.054688 465.710938 460.246094 469.144531 Z M 658.605469 142.652344 C 658.605469 142.652344 667.03125 137.96875 675.929688 134.222656 C 679.050781 140.621094 679.832031 150.609375 679.519531 156.699219 C 679.519531 156.699219 705.582031 169.808594 711.042969 183.699219 C 716.664062 197.585938 722.59375 234.261719 718.535156 245.5 C 714.476562 256.738281 662.351562 280.304688 660.476562 290.136719 C 658.605469 299.96875 737.574219 436.835938 745.066406 487.558594 C 752.558594 538.125 737.574219 589.316406 701.367188 596.183594 C 665.160156 603.203125 585.097656 526.886719 562.46875 483.5 C 562.46875 483.5 570.894531 453.691406 572.300781 427.160156 C 573.238281 408.746094 558.566406 369.886719 549.515625 347.878906 C 545.613281 338.359375 553.726562 335.082031 553.726562 335.082031 C 553.726562 335.082031 569.804688 330.554688 584.941406 296.066406 L 590.871094 289.511719 L 600.082031 300.746094 C 600.082031 300.746094 596.335938 273.746094 603.359375 262.667969 C 610.378906 251.585938 618.183594 247.371094 617.714844 242.066406 C 617.246094 236.761719 600.082031 192.125 598.675781 181.980469 C 597.269531 171.835938 604.292969 165.28125 610.691406 172.304688 C 610.691406 172.304688 609.289062 161.222656 617.714844 161.222656 C 625.988281 161.222656 630.667969 167.308594 630.667969 167.308594 C 630.667969 167.308594 634.414062 155.292969 642.6875 161.222656 C 651.113281 167.308594 655.640625 169.652344 655.640625 169.652344 L 655.640625 161.222656 C 655.640625 161.222656 645.027344 148.269531 647.679688 142.808594 C 650.800781 137.34375 658.605469 142.652344 658.605469 142.652344 M 676.554688 191.65625 L 685.917969 203.984375 C 685.917969 203.984375 684.667969 195.089844 678.269531 183.699219 C 676.863281 181.355469 677.175781 189.160156 676.554688 191.65625 Z M 404.996094 80.847656 C 411.238281 83.191406 418.261719 85.375 423.882812 83.191406 C 419.199219 81.941406 414.671875 79.757812 410.148438 77.882812 C 402.65625 75.074219 393.917969 73.828125 386.425781 76.480469 C 392.824219 76.636719 399.691406 78.976562 404.996094 80.847656 Z M 335.703125 97.859375 C 342.101562 100.980469 348.34375 103.636719 355.054688 99.421875 C 355.210938 99.265625 355.367188 99.109375 355.523438 99.109375 C 348.96875 99.421875 341.789062 97.238281 335.859375 94.894531 C 331.800781 93.335938 327.121094 92.710938 323.21875 95.519531 C 327.585938 94.269531 331.488281 95.832031 335.703125 97.859375 Z M 488.492188 121.269531 C 487.089844 104.257812 474.289062 106.445312 474.289062 106.445312 C 474.132812 94.894531 470.546875 83.035156 464.300781 73.046875 C 468.515625 80.847656 470.855469 89.746094 470.546875 98.640625 C 470.546875 98.796875 470.390625 98.796875 470.390625 98.640625 C 467.421875 87.09375 463.523438 76.480469 458.214844 65.867188 C 454.3125 73.203125 447.601562 78.507812 439.957031 81.628906 C 436.523438 83.191406 432.621094 84.125 428.875 83.972656 C 428.40625 83.972656 427.78125 83.816406 427.3125 83.816406 C 425.597656 85.0625 423.570312 85.6875 421.382812 86.15625 C 414.515625 87.25 408.117188 83.816406 401.875 81.628906 C 396.257812 79.601562 389.390625 77.882812 383.148438 78.195312 C 382.210938 78.664062 381.429688 79.289062 380.652344 79.914062 C 374.875 84.4375 371.753906 91.929688 365.667969 96.144531 C 363.640625 97.546875 361.453125 98.328125 359.113281 98.796875 C 356.460938 101.292969 353.339844 103.011719 349.59375 103.480469 C 339.605469 104.882812 332.425781 95.207031 322.28125 96.457031 C 318.847656 99.734375 316.351562 106.289062 316.351562 118.304688 C 316.351562 151.390625 336.015625 152.015625 336.015625 152.015625 C 341.632812 162.003906 343.195312 166.6875 334.453125 169.652344 C 333.988281 179.953125 333.988281 191.96875 334.144531 203.519531 C 336.796875 218.03125 358.488281 239.101562 391.730469 240.039062 C 417.636719 240.816406 421.539062 227.238281 421.382812 220.0625 C 420.914062 217.09375 420.292969 212.882812 420.136719 208.042969 C 407.027344 196.339844 416.390625 188.535156 422.476562 184.164062 C 451.972656 175.894531 466.644531 144.679688 466.644531 144.679688 C 474.289062 149.988281 489.898438 138.4375 488.492188 121.269531 Z M 488.492188 121.269531 " fill-opacity="1" fill-rule="nonzero"/><path fill="#f1887e" d="M 549.515625 184.320312 C 546.707031 189.941406 543.585938 195.246094 535.78125 200.242188 C 530.164062 203.828125 515.335938 203.675781 511.433594 189.785156 C 508.46875 179.171875 510.34375 168.246094 515.335938 158.570312 C 521.109375 147.488281 532.660156 140.621094 543.429688 145.617188 C 549.046875 148.113281 551.855469 155.136719 552.792969 161.378906 C 553.417969 165.75 553.726562 169.808594 553.105469 174.019531 C 549.359375 173.710938 546.238281 173.242188 544.363281 172.617188 C 544.988281 171.679688 545.613281 170.898438 546.238281 170.121094 L 545.144531 169.027344 C 540.308594 174.488281 538.121094 182.449219 539.371094 189.785156 L 540.929688 189.472656 C 540.460938 186.976562 540.460938 184.476562 540.773438 181.980469 C 541.710938 182.136719 544.988281 183.230469 549.515625 184.320312 Z M 94.425781 576.050781 L 95.828125 576.828125 C 119.550781 537.8125 171.832031 533.597656 194.152344 531.726562 L 193.996094 530.164062 C 171.363281 532.039062 118.613281 536.40625 94.425781 576.050781 Z M 444.324219 456.035156 L 445.261719 457.28125 C 443.859375 458.375 440.269531 461.496094 435.585938 465.554688 C 420.292969 478.820312 394.851562 501.136719 387.363281 502.855469 L 387.050781 501.292969 C 394.226562 499.578125 420.449219 476.632812 434.648438 464.304688 C 439.332031 460.089844 442.921875 457.125 444.324219 456.035156 Z M 459.621094 468.675781 L 460.710938 469.769531 C 459.308594 471.328125 424.660156 509.875 402.1875 517.210938 L 401.71875 515.808594 C 423.882812 508.472656 459.308594 468.988281 459.621094 468.675781 Z M 679.050781 157.320312 C 673.742188 153.578125 668.59375 149.832031 668.59375 149.832031 L 669.53125 148.582031 C 669.53125 148.582031 674.679688 152.328125 679.988281 156.074219 Z M 657.355469 163.878906 L 658.449219 162.785156 C 658.917969 163.253906 660.164062 164.34375 661.726562 165.75 C 665.472656 169.027344 671.246094 173.867188 675.773438 179.171875 L 674.523438 180.109375 C 670.152344 174.800781 664.535156 169.964844 660.789062 166.84375 C 659.074219 165.4375 657.980469 164.5 657.355469 163.878906 Z M 673.585938 190.410156 C 663.289062 179.796875 655.328125 169.808594 655.171875 169.808594 L 656.421875 168.871094 C 656.578125 169.027344 664.378906 178.859375 674.679688 189.316406 C 684.980469 199.929688 691.535156 211.476562 691.535156 211.476562 L 690.128906 212.257812 C 690.128906 212.257812 683.730469 200.863281 673.585938 190.410156 Z M 659.542969 205.390625 C 654.859375 196.808594 632.386719 169.652344 630.199219 167.464844 L 631.292969 166.375 C 633.480469 168.402344 655.953125 195.558594 660.945312 204.609375 C 664.847656 211.789062 664.535156 220.839844 664.222656 226.929688 C 664.222656 228.332031 664.066406 229.425781 664.066406 230.515625 L 662.507812 230.515625 C 662.507812 229.425781 662.507812 228.332031 662.664062 226.929688 C 662.976562 221.152344 663.289062 212.257812 659.542969 205.390625 Z M 627.859375 204.453125 C 621.460938 195.714844 610.535156 173.398438 610.070312 172.460938 L 611.472656 171.835938 C 611.628906 171.992188 622.710938 195.089844 629.109375 203.519531 C 635.507812 212.257812 639.253906 231.453125 639.253906 235.980469 L 637.691406 235.980469 C 637.691406 232.078125 634.101562 213.039062 627.859375 204.453125 Z M 710.105469 240.972656 C 706.984375 243.628906 702.617188 245.1875 696.996094 245.34375 C 696.6875 245.34375 696.21875 245.34375 695.90625 245.34375 C 694.34375 245.34375 692.785156 245.5 691.222656 245.8125 C 689.507812 246.28125 688.101562 247.214844 686.386719 248.308594 C 684.824219 249.246094 683.265625 250.339844 681.390625 250.960938 C 679.207031 251.585938 677.019531 251.585938 674.835938 251.585938 C 673.585938 251.585938 672.339844 251.585938 671.246094 251.742188 C 668.90625 251.898438 666.566406 252.679688 664.222656 253.460938 C 661.414062 254.394531 658.449219 255.175781 655.484375 255.175781 C 655.484375 255.175781 655.328125 255.175781 655.328125 255.175781 L 655.328125 253.617188 C 658.136719 253.617188 660.945312 252.835938 663.753906 251.898438 C 666.097656 251.117188 668.59375 250.339844 671.089844 250.183594 C 672.339844 250.027344 673.585938 250.027344 674.835938 250.027344 C 677.019531 250.027344 679.050781 250.027344 680.921875 249.402344 C 682.484375 248.933594 684.042969 247.996094 685.449219 246.90625 C 687.007812 245.8125 688.726562 244.71875 690.597656 244.25 C 692.316406 243.78125 694.03125 243.78125 695.59375 243.628906 C 695.90625 243.628906 696.375 243.628906 696.683594 243.628906 C 701.992188 243.472656 706.050781 242.066406 708.859375 239.570312 Z M 695.75 185.257812 L 694.65625 184.164062 C 696.375 182.605469 698.558594 181.355469 700.898438 180.730469 L 701.367188 182.292969 C 699.183594 182.761719 697.308594 183.851562 695.75 185.257812 Z M 667.1875 157.632812 L 666.253906 156.386719 C 667.34375 155.449219 668.59375 154.667969 669.84375 154.042969 L 670.621094 155.449219 C 669.375 156.074219 668.28125 156.699219 667.1875 157.632812 Z M 674.210938 198.835938 L 674.523438 200.398438 C 672.964844 200.707031 671.558594 201.488281 670.777344 202.894531 L 669.53125 201.957031 C 670.464844 200.242188 672.339844 199.148438 674.210938 198.835938 Z M 651.738281 181.199219 L 650.332031 180.421875 C 651.269531 178.390625 653.144531 176.988281 655.328125 176.363281 L 655.796875 177.921875 C 654.078125 178.390625 652.519531 179.640625 651.738281 181.199219 Z M 647.054688 214.910156 C 645.496094 214.910156 643.933594 214.441406 643 213.351562 L 644.089844 212.257812 C 645.027344 213.195312 646.589844 213.507812 648.148438 213.195312 C 649.867188 212.882812 651.425781 211.789062 652.363281 211.007812 L 653.300781 212.257812 C 652.207031 213.039062 650.488281 214.285156 648.460938 214.597656 C 647.992188 214.753906 647.523438 214.910156 647.054688 214.910156 Z M 628.796875 184.320312 L 627.859375 183.074219 C 629.265625 181.980469 630.980469 181.667969 632.699219 181.980469 L 632.386719 183.542969 C 631.136719 183.230469 629.890625 183.542969 628.796875 184.320312 Z M 623.023438 218.8125 C 622.398438 218.8125 621.617188 218.8125 620.992188 218.65625 L 621.304688 217.09375 C 623.179688 217.5625 625.363281 217.25 627.078125 216.160156 L 627.859375 217.40625 C 626.457031 218.34375 624.738281 218.8125 623.023438 218.8125 Z M 608.820312 191.65625 L 608.351562 190.253906 C 609.914062 189.628906 611.472656 189.472656 613.191406 189.472656 L 613.191406 191.03125 C 611.785156 190.875 610.226562 191.1875 608.820312 191.65625 Z M 495.203125 408.746094 C 491.457031 409.683594 488.960938 413.894531 485.214844 414.207031 C 480.6875 414.675781 477.878906 409.683594 473.976562 407.339844 C 469.296875 404.375 463.054688 405.3125 457.746094 406.871094 C 452.441406 408.433594 446.824219 410.460938 441.359375 409.214844 C 439.175781 402.035156 442.453125 392.671875 448.070312 387.675781 C 453.691406 382.683594 461.648438 380.652344 468.984375 381.589844 C 482.5625 383.460938 493.644531 395.167969 495.203125 408.746094 Z M 375.65625 411.554688 C 373.785156 410.304688 372.535156 408.433594 370.507812 407.183594 C 368.789062 406.09375 366.761719 406.871094 364.730469 407.183594 C 366.605469 401.566406 368.789062 395.480469 373.628906 392.359375 C 375.03125 391.421875 376.4375 390.796875 377.996094 390.328125 C 382.054688 389.082031 386.425781 388.769531 390.640625 389.550781 C 392.355469 389.863281 393.917969 390.328125 395.320312 391.421875 C 394.382812 392.515625 393.761719 393.761719 393.449219 395.011719 C 388.453125 396.726562 385.488281 404.0625 388.609375 408.277344 C 388.921875 408.277344 389.078125 408.121094 389.390625 408.121094 C 389.390625 408.277344 389.234375 408.433594 389.234375 408.433594 C 387.828125 410.617188 385.644531 412.335938 382.992188 412.960938 C 380.496094 413.582031 377.839844 412.960938 375.65625 411.554688 Z M 318.222656 406.09375 C 313.230469 405.78125 307.609375 406.40625 303.242188 408.589844 C 300.589844 409.839844 298.246094 411.867188 295.4375 412.335938 C 292.160156 412.804688 288.882812 410.929688 285.761719 409.839844 C 282.484375 408.589844 278.894531 407.964844 275.304688 408.121094 C 272.964844 408.121094 270.625 408.589844 268.4375 408.121094 C 267.347656 407.964844 266.878906 406.5625 266.566406 405.625 C 265.316406 401.722656 265.003906 397.039062 265.160156 392.828125 C 267.347656 389.707031 270.625 387.207031 274.523438 386.738281 C 276.398438 386.429688 278.425781 386.738281 280.300781 387.207031 C 282.953125 387.832031 285.917969 389.082031 287.945312 390.953125 C 290.757812 386.738281 296.375 385.335938 301.523438 385.648438 C 304.644531 385.804688 307.765625 386.429688 310.421875 387.988281 C 316.507812 391.265625 319.628906 399.226562 318.222656 406.09375 Z M 600.859375 300.746094 C 600.859375 302.464844 609.757812 467.425781 655.953125 521.269531 L 654.703125 522.363281 C 650.175781 517.054688 645.964844 510.65625 642.0625 503.320312 C 641.125 507.847656 640.65625 512.53125 640.8125 517.210938 L 639.253906 517.210938 C 639.097656 511.90625 639.566406 506.753906 640.8125 501.605469 L 641.28125 501.761719 C 606.480469 434.964844 599.457031 302.308594 599.300781 300.746094 Z M 620.835938 296.378906 C 622.242188 299.34375 625.832031 300.433594 628.640625 300.277344 C 631.605469 300.277344 634.414062 299.1875 637.222656 298.25 L 638.160156 297.9375 C 641.28125 296.847656 644.871094 295.753906 648.304688 296.222656 L 648.148438 297.78125 C 644.871094 297.3125 641.59375 298.40625 638.628906 299.34375 L 637.691406 299.65625 C 634.726562 300.746094 631.761719 301.839844 628.640625 301.839844 C 628.640625 301.839844 628.484375 301.839844 628.484375 301.839844 C 624.425781 301.839844 620.992188 299.96875 619.433594 297 Z M 647.210938 309.332031 C 646.433594 309.332031 645.808594 309.175781 645.027344 309.019531 L 645.496094 307.613281 C 648.148438 308.550781 651.582031 306.988281 652.519531 304.335938 L 653.921875 304.804688 C 653.144531 307.613281 650.175781 309.332031 647.210938 309.332031 Z M 410.925781 480.222656 C 409.054688 478.507812 407.339844 476.789062 405.777344 474.761719 L 407.027344 473.824219 C 408.429688 475.699219 410.148438 477.570312 412.019531 479.132812 Z M 427.3125 489.746094 L 428.5625 488.964844 C 429.34375 490.210938 430.59375 491.304688 431.996094 491.773438 L 431.527344 493.175781 C 429.8125 492.554688 428.25 491.304688 427.3125 489.746094 Z M 427.46875 494.738281 L 427.625 496.300781 C 427.46875 496.300781 427.46875 496.300781 427.316406 496.300781 C 425.753906 496.300781 424.347656 495.363281 423.570312 493.957031 L 424.972656 493.332031 C 425.441406 494.113281 426.535156 494.738281 427.46875 494.738281 Z M 306.675781 538.59375 C 309.171875 540.777344 312.449219 542.027344 315.882812 542.183594 L 315.726562 543.742188 C 312.136719 543.585938 308.546875 542.027344 305.738281 539.839844 C 304.488281 538.90625 303.554688 537.8125 302.460938 536.71875 C 301.679688 535.941406 300.898438 535.003906 299.964844 534.222656 C 298.402344 532.820312 296.0625 531.101562 293.410156 531.414062 L 293.253906 529.851562 C 296.375 529.699219 299.183594 531.570312 300.898438 533.128906 C 301.835938 533.910156 302.617188 534.847656 303.398438 535.628906 C 304.488281 536.5625 305.425781 537.65625 306.675781 538.59375 Z M 427.3125 465.398438 C 426.847656 464.304688 426.066406 463.367188 424.972656 462.589844 L 425.910156 461.339844 C 427.160156 462.121094 428.09375 463.367188 428.71875 464.773438 Z M 441.046875 473.511719 L 441.671875 472.109375 C 443.234375 472.734375 444.636719 473.824219 445.730469 474.917969 L 444.636719 476.011719 C 443.703125 474.917969 442.453125 473.980469 441.046875 473.511719 Z M 331.957031 474.761719 L 336.640625 477.414062 L 335.859375 478.820312 L 331.175781 476.167969 Z M 391.417969 516.585938 C 392.355469 518.148438 393.292969 519.710938 394.539062 520.957031 L 393.449219 522.050781 C 392.042969 520.644531 390.949219 519.085938 390.015625 517.367188 C 388.765625 515.496094 387.671875 513.621094 385.957031 512.375 C 385.332031 511.90625 384.707031 511.59375 383.929688 511.125 C 383.460938 510.96875 382.992188 510.65625 382.679688 510.5 C 380.804688 509.410156 379.089844 507.847656 377.839844 505.976562 L 379.089844 505.039062 C 380.183594 506.597656 381.742188 508.003906 383.460938 509.097656 C 383.929688 509.410156 384.238281 509.566406 384.707031 509.722656 C 385.488281 510.1875 386.269531 510.5 386.894531 510.96875 C 388.921875 512.53125 390.171875 514.558594 391.417969 516.585938 Z M 429.03125 146.242188 C 429.03125 146.242188 430.746094 133.132812 433.871094 127.980469 C 435.429688 135.160156 437.148438 138.59375 440.113281 143.121094 C 437.457031 146.710938 433.089844 146.710938 429.03125 146.242188 Z M 391.730469 148.269531 C 392.042969 147.488281 392.980469 146.867188 393.605469 146.242188 C 394.382812 145.617188 395.007812 145.148438 395.945312 144.679688 C 396.257812 144.523438 396.570312 144.835938 396.414062 145.148438 C 395.945312 146.085938 395.632812 146.710938 394.851562 147.488281 C 394.226562 148.113281 393.605469 149.050781 392.824219 149.363281 C 392.042969 149.832031 391.417969 149.050781 391.730469 148.269531 Z M 387.515625 147.488281 C 388.765625 146.085938 390.484375 145.460938 391.886719 144.210938 C 392.199219 143.902344 392.667969 144.367188 392.355469 144.679688 C 391.730469 145.460938 391.105469 146.242188 390.328125 146.867188 C 389.546875 147.488281 388.921875 147.957031 387.984375 148.269531 C 387.515625 148.425781 387.207031 147.800781 387.515625 147.488281 Z M 381.585938 145.148438 C 382.835938 143.746094 384.238281 142.496094 385.957031 141.558594 C 386.894531 140.933594 387.828125 142.652344 386.894531 143.121094 C 385.332031 143.902344 383.929688 144.992188 382.679688 146.242188 C 381.898438 146.867188 380.960938 145.773438 381.585938 145.148438 Z M 454.78125 149.519531 C 456.1875 148.425781 457.589844 147.488281 458.996094 146.398438 C 459.152344 146.242188 459.308594 146.554688 459.152344 146.554688 C 457.746094 147.644531 456.5 148.894531 455.09375 149.988281 C 454.78125 150.457031 454.3125 149.832031 454.78125 149.519531 Z M 449.632812 149.988281 C 451.347656 148.269531 453.535156 147.023438 455.25 145.304688 C 455.40625 145.148438 455.5625 145.304688 455.40625 145.460938 C 453.847656 147.488281 452.285156 149.519531 449.945312 150.457031 C 449.789062 150.609375 449.320312 150.300781 449.632812 149.988281 Z M 445.261719 148.582031 C 445.886719 147.644531 446.980469 147.023438 447.914062 146.398438 C 448.851562 145.617188 449.945312 144.992188 450.878906 144.367188 C 451.035156 144.210938 451.347656 144.523438 451.191406 144.679688 C 450.257812 145.460938 449.320312 146.242188 448.539062 147.179688 C 447.757812 147.957031 446.980469 148.894531 446.042969 149.519531 C 445.417969 150.144531 444.949219 149.050781 445.261719 148.582031 Z M 465.394531 144.054688 C 470.699219 137.035156 475.070312 129.699219 477.566406 121.113281 C 477.566406 120.957031 477.722656 121.113281 477.722656 121.113281 C 475.539062 129.699219 471.949219 137.8125 465.863281 144.210938 C 465.550781 144.523438 465.238281 144.210938 465.394531 144.054688 Z M 473.824219 137.191406 C 475.539062 136.566406 477.253906 136.097656 478.816406 135.003906 C 480.222656 133.914062 481.625 132.664062 482.71875 131.257812 C 482.71875 131.257812 482.875 131.257812 482.875 131.257812 C 481.78125 134.847656 478.035156 138.28125 473.976562 138.125 C 473.355469 138.125 473.355469 137.34375 473.824219 137.191406 Z M 336.015625 133.914062 C 337.886719 140.3125 340.074219 146.242188 343.664062 151.859375 C 343.820312 152.015625 343.507812 152.171875 343.351562 152.015625 C 339.605469 146.554688 336.640625 140.621094 335.546875 134.066406 C 335.546875 133.757812 336.015625 133.601562 336.015625 133.914062 Z M 336.171875 137.8125 C 332.582031 135.160156 328.367188 132.976562 325.871094 129.230469 C 323.53125 125.796875 322.75 121.425781 322.75 117.367188 C 322.75 117.058594 323.21875 116.902344 323.375 117.367188 C 324.308594 121.425781 324.621094 125.796875 327.277344 129.230469 C 329.460938 132.351562 333.207031 135.003906 336.171875 137.8125 C 336.328125 137.65625 336.171875 137.8125 336.171875 137.8125 Z M 325.089844 98.953125 C 327.742188 98.328125 330.554688 99.265625 332.738281 101.136719 C 334.453125 102.542969 336.484375 104.882812 336.640625 107.226562 C 336.640625 107.378906 336.328125 107.378906 336.328125 107.226562 C 335.859375 105.195312 333.519531 103.324219 331.957031 102.230469 C 329.929688 100.671875 327.742188 99.890625 325.089844 99.734375 C 324.933594 99.578125 324.777344 99.109375 325.089844 98.953125 Z M 332.269531 115.027344 C 331.332031 117.992188 328.367188 120.335938 329.148438 123.613281 C 329.304688 124.078125 328.523438 124.234375 328.367188 123.769531 C 327.898438 122.050781 328.367188 120.492188 329.304688 119.085938 C 331.175781 115.808594 332.738281 113.3125 331.957031 109.253906 C 331.957031 109.097656 332.113281 109.097656 332.113281 109.253906 C 332.582031 111.125 332.738281 113.15625 332.269531 115.027344 Z M 412.488281 165.59375 C 416.546875 160.753906 421.382812 154.667969 422.164062 148.113281 C 422.164062 147.957031 422.476562 147.957031 422.476562 148.113281 C 423.101562 152.796875 421.226562 157.476562 418.417969 161.378906 C 422.632812 164.1875 429.03125 164.65625 433.558594 162.785156 C 433.714844 162.785156 433.714844 162.941406 433.558594 162.941406 C 429.1875 166.375 421.851562 165.59375 417.949219 161.691406 C 416.546875 163.566406 414.828125 165.125 412.957031 166.375 C 412.644531 166.53125 412.175781 165.90625 412.488281 165.59375 Z M 420.136719 207.886719 C 362.390625 207.730469 341.632812 184.945312 334.296875 169.496094 C 334.609375 162.003906 335.078125 155.292969 335.859375 150.300781 C 355.367188 180.886719 404.839844 188.691406 422.476562 182.605469 C 419.980469 188.535156 419.824219 198.367188 420.136719 207.886719 Z M 150.921875 524.078125 L 150.609375 522.519531 C 159.972656 521.113281 169.960938 524.234375 176.828125 530.632812 L 175.734375 531.726562 C 169.335938 525.640625 159.816406 522.675781 150.921875 524.078125 Z M 226.300781 412.179688 L 223.648438 421.699219 C 206.480469 409.058594 188.0625 397.976562 168.085938 390.796875 C 157.007812 386.738281 145.457031 383.929688 133.753906 382.839844 C 123.453125 381.746094 113.777344 382.839844 103.632812 383.308594 C 101.136719 383.460938 98.636719 383.152344 96.140625 382.683594 C 100.355469 369.261719 105.035156 355.839844 105.035156 355.839844 C 105.035156 355.839844 155.601562 340.855469 226.300781 412.179688 Z M 584.941406 282.332031 L 590.871094 289.667969 C 585.722656 313.390625 572.457031 335.238281 553.574219 350.375 C 552.792969 351 552.011719 351.625 551.230469 352.09375 C 546.394531 340.230469 542.648438 331.960938 542.648438 331.960938 C 542.648438 331.960938 569.804688 316.824219 584.941406 282.332031 Z M 584.941406 282.332031 " fill-opacity="1" fill-rule="nonzero"/><path fill="#fff5ec" d="M 652.207031 168.246094 C 652.207031 168.246094 649.554688 172.304688 644.871094 173.085938 C 644.871094 173.085938 634.570312 165.90625 638.472656 160.910156 C 638.472656 160.910156 642.0625 159.664062 652.207031 168.246094 Z M 564.964844 178.859375 C 550.296875 178.703125 544.519531 175.894531 544.519531 175.894531 L 543.738281 177.296875 C 544.050781 177.453125 549.828125 180.265625 564.964844 180.421875 C 565.277344 180.421875 565.433594 180.421875 565.746094 180.421875 C 580.414062 180.421875 587.90625 175.738281 588.21875 175.425781 L 587.28125 174.175781 C 587.28125 174.332031 579.792969 179.171875 564.964844 178.859375 Z M 669.0625 149.363281 C 669.0625 149.363281 668.75 152.484375 661.570312 154.667969 C 661.570312 154.667969 648.148438 145.617188 651.582031 142.027344 C 654.859375 138.28125 669.0625 149.363281 669.0625 149.363281 Z M 631.605469 173.085938 C 631.605469 173.085938 628.328125 176.832031 622.867188 175.894531 C 622.867188 175.894531 613.8125 165.28125 617.558594 163.253906 C 621.304688 161.222656 629.109375 168.714844 631.605469 173.085938 Z M 613.191406 181.355469 C 613.191406 181.355469 608.976562 184.164062 605.074219 183.230469 C 605.074219 183.230469 601.328125 171.210938 605.542969 171.210938 C 609.757812 171.210938 613.191406 181.355469 613.191406 181.355469 Z M 442.296875 449.945312 C 444.480469 456.503906 433.089844 462.902344 433.089844 462.902344 C 427.625 461.496094 426.847656 456.65625 426.847656 456.65625 C 426.847656 456.65625 440.113281 443.390625 442.296875 449.945312 Z M 460.246094 458.375 C 463.054688 463.835938 451.660156 472.578125 451.660156 472.578125 C 447.445312 471.171875 444.011719 466.179688 444.011719 466.179688 C 444.011719 466.179688 457.746094 453.535156 460.246094 458.375 Z M 410.769531 105.820312 C 420.136719 115.027344 418.105469 129.230469 418.105469 129.230469 C 409.210938 134.066406 389.390625 132.039062 384.394531 121.425781 C 381.742188 115.808594 381.273438 108.160156 382.835938 101.449219 C 382.835938 101.449219 401.40625 96.613281 410.769531 105.820312 Z M 470.234375 106.757812 C 470.855469 110.347656 475.695312 135.472656 441.203125 130.945312 C 441.203125 130.945312 435.898438 117.992188 446.667969 108.003906 C 455.5625 99.890625 470.234375 106.757812 470.234375 106.757812 Z M 470.234375 106.757812 " fill-opacity="1" fill-rule="nonzero"/><path fill="#00425c" d="M 495.203125 409.527344 L 495.203125 407.964844 C 498.011719 407.964844 501.132812 409.371094 504.097656 410.617188 C 505.503906 411.242188 506.753906 411.867188 508 412.179688 C 510.808594 413.117188 513.929688 412.804688 516.429688 411.398438 L 517.207031 412.804688 C 515.492188 413.738281 513.464844 414.207031 511.433594 414.207031 C 510.1875 414.207031 508.78125 414.050781 507.53125 413.582031 C 506.285156 413.117188 504.878906 412.492188 503.476562 411.867188 C 500.664062 410.773438 497.699219 409.527344 495.203125 409.527344 Z M 424.816406 399.226562 C 423.726562 400.628906 423.414062 402.347656 423.257812 404.0625 L 424.816406 404.21875 C 424.972656 402.816406 425.128906 401.253906 426.066406 400.160156 C 426.535156 399.695312 427.160156 399.226562 427.9375 399.226562 C 428.25 399.226562 428.71875 399.226562 429.1875 399.539062 L 430.28125 398.289062 C 429.65625 397.664062 428.875 397.507812 427.9375 397.507812 C 426.691406 397.820312 425.597656 398.445312 424.816406 399.226562 Z M 405.777344 400.160156 L 404.527344 400.941406 C 405.621094 402.660156 407.648438 403.59375 409.679688 403.59375 C 410.617188 403.59375 411.707031 403.285156 412.488281 402.816406 L 411.707031 401.410156 C 409.679688 402.816406 406.871094 402.035156 405.777344 400.160156 Z M 419.042969 395.636719 L 419.667969 394.230469 C 416.546875 392.828125 412.957031 392.515625 409.679688 393.296875 L 410.148438 394.855469 C 413.113281 394.074219 416.390625 394.386719 419.042969 395.636719 Z M 353.496094 410.929688 C 354.585938 411.398438 355.679688 411.867188 356.929688 412.023438 C 357.242188 412.023438 357.398438 412.023438 357.707031 412.023438 C 360.675781 412.023438 363.171875 410.148438 365.511719 408.277344 L 364.574219 407.027344 C 362.234375 408.902344 359.894531 410.773438 357.242188 410.460938 C 356.304688 410.304688 355.523438 409.996094 354.585938 409.683594 C 357.085938 409.058594 359.425781 408.277344 361.453125 406.5625 C 362.546875 405.625 363.328125 404.6875 364.105469 403.75 C 365.199219 402.347656 366.761719 400.472656 367.386719 398.445312 C 367.539062 397.976562 367.386719 397.351562 366.917969 396.574219 C 365.667969 394.855469 361.921875 391.421875 360.519531 391.265625 C 358.488281 391.109375 356.617188 392.984375 354.898438 394.699219 C 353.964844 395.636719 353.183594 396.574219 352.402344 396.882812 L 353.183594 398.289062 C 354.117188 397.820312 355.054688 396.726562 356.148438 395.792969 C 357.550781 394.230469 359.113281 392.828125 360.519531 392.828125 C 361.453125 392.984375 365.824219 397.039062 365.980469 397.820312 C 365.511719 399.539062 364.417969 400.941406 363.015625 402.660156 C 362.234375 403.59375 361.453125 404.53125 360.519531 405.3125 C 358.175781 407.339844 354.898438 407.964844 352.089844 408.589844 C 346.003906 406.40625 339.292969 406.25 333.050781 408.277344 C 332.738281 408.433594 332.269531 408.589844 331.957031 408.746094 C 329.460938 409.683594 326.808594 410.460938 324.621094 409.527344 C 324 409.214844 323.375 408.746094 322.75 408.277344 C 321.5 407.339844 320.410156 406.40625 318.691406 406.40625 L 318.691406 407.964844 C 319.785156 407.964844 320.722656 408.746094 321.65625 409.527344 C 322.28125 409.996094 323.0625 410.617188 323.84375 411.085938 C 326.652344 412.335938 329.617188 411.398438 332.269531 410.460938 C 332.582031 410.304688 333.050781 410.148438 333.363281 410.148438 C 339.605469 408.121094 346.785156 408.433594 352.871094 410.929688 Z M 466.488281 420.449219 L 467.265625 419.828125 C 470.390625 417.171875 471.949219 414.675781 471.792969 412.179688 C 471.792969 410.929688 471.167969 409.839844 470.390625 409.214844 L 469.453125 410.460938 C 469.921875 410.773438 470.234375 411.398438 470.234375 412.179688 C 470.390625 414.207031 469.140625 416.238281 466.332031 418.578125 L 465.550781 419.203125 C 463.523438 420.917969 461.335938 422.636719 460.558594 425.132812 L 461.960938 425.601562 C 462.585938 423.570312 464.613281 422.011719 466.488281 420.449219 Z M 439.644531 425.914062 C 438.707031 424.351562 438.394531 422.480469 438.082031 420.605469 L 437.457031 417.015625 L 435.898438 417.328125 L 436.523438 420.917969 C 436.835938 422.792969 437.148438 424.820312 438.238281 426.691406 C 439.488281 428.722656 441.359375 429.816406 443.234375 429.816406 C 443.390625 429.816406 443.546875 429.816406 443.703125 429.816406 L 443.546875 428.253906 C 441.984375 428.566406 440.425781 427.316406 439.644531 425.914062 Z M 446.355469 420.292969 C 446.042969 418.421875 445.417969 416.703125 444.636719 415.144531 L 443.234375 415.925781 C 444.011719 417.328125 444.480469 419.046875 444.792969 420.605469 Z M 499.574219 414.988281 L 498.480469 413.894531 C 495.359375 416.859375 492.394531 419.984375 489.742188 423.414062 L 490.988281 424.351562 C 493.644531 421.074219 496.609375 417.953125 499.574219 414.988281 Z M 403.90625 425.601562 C 402.1875 423.726562 400.9375 421.386719 399.847656 419.046875 L 399.691406 418.734375 C 398.441406 416.082031 397.039062 413.425781 395.007812 411.554688 L 393.917969 412.648438 C 395.789062 414.363281 397.039062 416.703125 398.285156 419.359375 L 398.441406 419.671875 C 399.691406 422.167969 400.78125 424.664062 402.8125 426.691406 C 404.371094 428.253906 406.871094 429.816406 409.523438 429.816406 C 409.992188 429.816406 410.617188 429.816406 411.082031 429.660156 L 410.769531 428.097656 C 407.960938 428.722656 405.464844 427.316406 403.90625 425.601562 Z M 371.910156 415.457031 C 372.535156 417.796875 373.003906 420.292969 373.941406 422.792969 C 375.03125 425.601562 377.21875 429.347656 380.960938 431.21875 L 381.585938 429.816406 C 378.152344 428.253906 376.28125 424.820312 375.1875 422.167969 C 374.25 419.984375 373.785156 417.484375 373.160156 415.144531 C 372.847656 414.050781 372.691406 412.960938 372.378906 412.023438 L 370.816406 412.492188 C 371.441406 413.273438 371.753906 414.363281 371.910156 415.457031 Z M 348.96875 430.125 L 350.375 430.90625 C 351.464844 428.878906 351.777344 426.539062 351.933594 424.664062 C 352.089844 422.636719 352.402344 420.449219 351.777344 418.265625 C 351.152344 415.769531 349.28125 413.894531 347.253906 413.425781 L 346.941406 414.988281 C 348.5 415.300781 349.75 416.859375 350.375 418.734375 C 350.839844 420.605469 350.6875 422.792969 350.53125 424.507812 C 350.0625 426.226562 349.90625 428.410156 348.96875 430.125 Z M 320.722656 416.238281 C 318.066406 414.363281 314.789062 413.117188 311.355469 412.960938 L 311.199219 414.519531 C 314.167969 414.675781 317.289062 415.769531 319.628906 417.484375 C 320.566406 418.265625 321.1875 418.734375 321.65625 419.515625 C 322.125 420.292969 322.125 421.230469 321.8125 421.855469 L 323.21875 422.480469 C 323.6875 421.386719 323.6875 419.980469 322.90625 418.734375 C 322.4375 417.640625 321.34375 416.859375 320.722656 416.238281 Z M 295.125 425.914062 C 293.410156 423.570312 291.847656 421.230469 289.039062 419.984375 L 288.414062 421.386719 C 290.757812 422.480469 292.160156 424.664062 293.878906 426.847656 C 294.96875 428.410156 296.21875 430.125 297.777344 431.53125 L 298.871094 430.28125 C 297.3125 429.035156 296.21875 427.472656 295.125 425.914062 Z M 317.910156 372.851562 C 318.066406 373.628906 318.378906 374.410156 318.535156 375.191406 C 319.160156 377.84375 319.472656 380.496094 319.316406 383.308594 L 320.875 383.308594 C 321.03125 380.496094 320.722656 377.53125 320.097656 374.722656 C 319.941406 373.941406 319.628906 373.007812 319.472656 372.226562 C 319.160156 371.132812 318.847656 369.886719 318.535156 368.636719 C 318.066406 366.296875 318.222656 364.421875 318.847656 362.863281 C 319.628906 360.988281 321.1875 359.742188 322.75 359.585938 L 322.59375 358.023438 C 320.410156 358.179688 318.222656 359.898438 317.289062 362.238281 C 316.507812 364.109375 316.351562 366.296875 316.820312 368.792969 C 317.289062 370.351562 317.597656 371.601562 317.910156 372.851562 Z M 311.355469 386.585938 L 311.824219 385.179688 C 309.328125 384.398438 307.765625 381.902344 306.675781 380.183594 C 306.363281 379.71875 306.207031 379.25 305.894531 378.78125 C 304.800781 376.90625 303.710938 375.035156 302.148438 373.472656 C 298.246094 370.042969 292.785156 369.886719 287.324219 369.886719 L 287.324219 371.445312 C 292.316406 371.289062 297.621094 371.445312 301.054688 374.566406 C 302.460938 375.972656 303.554688 377.6875 304.488281 379.5625 C 304.800781 380.03125 304.957031 380.496094 305.269531 380.964844 C 306.519531 382.839844 308.390625 385.648438 311.355469 386.585938 Z M 272.496094 381.433594 C 272.027344 380.808594 271.402344 380.183594 270.78125 379.5625 C 267.96875 377.0625 263.757812 376.285156 260.324219 377.53125 L 260.792969 378.9375 C 263.757812 377.84375 267.347656 378.625 269.6875 380.652344 C 270.3125 381.121094 270.78125 381.746094 271.246094 382.371094 C 271.871094 383.152344 272.652344 384.085938 273.589844 384.710938 L 274.523438 383.460938 C 273.746094 382.996094 273.121094 382.214844 272.496094 381.433594 Z M 369.726562 386.429688 C 369.414062 385.648438 369.414062 384.554688 369.882812 383.308594 C 370.039062 382.839844 370.195312 382.371094 370.351562 381.902344 C 370.664062 381.277344 370.816406 380.496094 371.128906 379.71875 C 371.441406 378.15625 371.441406 376.753906 371.441406 375.347656 C 371.441406 373.785156 371.285156 372.226562 370.972656 370.820312 C 370.816406 370.195312 370.507812 368.167969 368.945312 367.699219 L 368.476562 369.261719 C 368.945312 369.417969 369.257812 370.042969 369.414062 371.132812 C 369.726562 372.539062 369.726562 374.097656 369.882812 375.503906 C 369.882812 376.753906 369.882812 378 369.570312 379.40625 C 369.414062 380.03125 369.101562 380.652344 368.945312 381.433594 C 368.789062 381.902344 368.632812 382.527344 368.476562 382.996094 C 368.007812 384.710938 368.007812 385.960938 368.476562 387.207031 Z M 450.101562 368.167969 C 450.570312 367.855469 451.191406 367.699219 451.816406 367.699219 L 456.96875 366.761719 L 456.65625 365.203125 L 451.503906 366.140625 C 450.722656 366.296875 449.945312 366.453125 449.320312 366.917969 C 448.539062 367.386719 448.070312 368.167969 447.601562 368.949219 C 446.355469 370.976562 445.574219 373.320312 444.792969 375.503906 C 443.859375 378 443.078125 380.339844 441.671875 382.527344 L 442.921875 383.460938 C 444.480469 381.121094 445.417969 378.625 446.199219 376.128906 C 446.980469 373.941406 447.757812 371.757812 448.851562 369.886719 C 449.164062 369.105469 449.632812 368.480469 450.101562 368.167969 Z M 503.632812 396.261719 C 504.722656 394.699219 504.878906 393.296875 503.941406 392.359375 L 502.851562 393.449219 C 503.164062 393.761719 502.851562 394.542969 502.382812 395.324219 C 500.976562 397.195312 499.261719 398.914062 497.230469 400.160156 L 498.167969 401.410156 C 500.199219 400.160156 502.070312 398.289062 503.632812 396.261719 Z M 305.738281 363.175781 C 307.457031 361.769531 308.859375 359.898438 310.109375 358.023438 C 311.667969 355.839844 313.074219 353.652344 315.257812 352.5625 L 314.476562 351.15625 C 311.980469 352.5625 310.421875 354.902344 308.859375 357.085938 C 307.609375 358.960938 306.519531 360.675781 304.800781 361.925781 C 300.746094 365.203125 294.8125 364.265625 291.066406 362.550781 L 290.445312 363.953125 C 292.941406 365.046875 295.4375 365.671875 297.933594 365.671875 C 300.746094 365.671875 303.554688 364.890625 305.738281 363.175781 Z M 417.480469 383.152344 C 415.140625 381.746094 412.175781 381.121094 409.210938 381.746094 C 406.089844 382.371094 403.4375 384.085938 401.875 386.585938 C 397.816406 387.207031 394.226562 390.328125 392.980469 394.230469 C 390.328125 395.324219 388.140625 397.820312 387.207031 400.941406 C 386.269531 403.75 386.738281 406.5625 388.296875 408.589844 L 388.609375 409.058594 L 389.078125 408.902344 C 393.449219 407.964844 398.285156 408.589844 402.1875 410.773438 C 403.125 411.242188 404.058594 411.867188 404.996094 412.492188 C 405.933594 413.117188 406.871094 413.738281 407.804688 414.207031 C 410.925781 415.925781 414.359375 416.703125 417.792969 416.703125 C 420.914062 416.703125 423.882812 416.082031 426.691406 414.675781 C 427.9375 414.050781 429.1875 413.273438 430.4375 412.648438 C 431.527344 412.023438 432.621094 411.398438 433.714844 410.773438 C 435.585938 409.839844 438.394531 408.902344 440.890625 409.683594 L 441.359375 408.121094 C 439.019531 407.339844 436.054688 407.808594 433.089844 409.214844 C 431.839844 409.839844 430.746094 410.460938 429.65625 411.085938 C 428.5625 411.867188 427.3125 412.492188 426.066406 413.117188 C 420.605469 415.769531 413.894531 415.457031 408.585938 412.648438 C 407.648438 412.179688 406.714844 411.554688 405.777344 410.929688 C 404.839844 410.304688 403.90625 409.683594 402.8125 409.058594 C 398.597656 406.871094 393.761719 406.09375 389.078125 407.027344 C 388.140625 405.46875 387.828125 403.285156 388.609375 401.097656 C 389.390625 398.289062 391.417969 396.105469 393.761719 395.324219 L 394.226562 395.167969 L 394.382812 394.699219 C 395.476562 391.109375 398.753906 388.144531 402.5 387.675781 L 402.8125 387.675781 L 402.96875 387.363281 C 404.214844 385.179688 406.558594 383.460938 409.367188 382.996094 C 412.175781 382.371094 414.984375 382.996094 417.015625 384.554688 L 417.636719 385.023438 L 418.105469 384.242188 C 419.199219 382.527344 421.382812 381.277344 423.726562 380.964844 C 426.066406 380.652344 428.40625 381.433594 429.8125 382.996094 L 429.96875 383.308594 C 430.28125 383.773438 430.746094 384.085938 431.371094 384.398438 C 431.996094 384.710938 432.621094 384.710938 433.246094 384.710938 L 433.714844 384.710938 C 435.273438 384.867188 436.679688 385.648438 437.613281 386.894531 C 438.707031 388.144531 439.175781 389.863281 438.863281 391.265625 L 440.425781 391.578125 C 440.734375 389.707031 440.113281 387.675781 438.863281 385.960938 C 437.613281 384.242188 435.742188 383.308594 433.714844 383.152344 C 433.558594 383.152344 433.402344 383.152344 433.246094 383.152344 C 432.777344 383.152344 432.308594 383.152344 431.996094 382.996094 C 431.683594 382.839844 431.371094 382.527344 431.058594 382.214844 L 430.746094 381.902344 C 429.03125 380.03125 426.222656 379.09375 423.257812 379.40625 C 421.226562 380.183594 418.886719 381.433594 417.480469 383.152344 Z M 267.8125 406.40625 C 267.035156 405.78125 266.566406 405 265.941406 404.0625 C 265.628906 403.75 265.472656 403.285156 265.160156 402.972656 C 263.132812 400.316406 260.636719 398.289062 258.292969 396.417969 C 256.421875 394.855469 254.390625 393.296875 252.675781 391.421875 C 249.554688 387.832031 247.371094 383.308594 246.902344 378.625 L 245.339844 378.78125 C 245.808594 383.773438 247.992188 388.769531 251.425781 392.515625 C 253.144531 394.386719 255.171875 396.105469 257.203125 397.664062 C 259.699219 399.695312 262.039062 401.566406 263.914062 403.90625 C 264.226562 404.21875 264.378906 404.53125 264.691406 405 C 265.316406 405.9375 265.941406 406.714844 266.722656 407.496094 C 268.28125 408.902344 270.46875 409.839844 272.496094 409.839844 C 273.121094 409.839844 273.746094 409.839844 274.367188 409.683594 L 274.058594 408.121094 C 271.871094 408.589844 269.375 407.964844 267.8125 406.40625 Z M 295.28125 408.746094 L 296.84375 408.902344 C 297.15625 402.191406 294.191406 395.480469 289.039062 391.109375 L 288.101562 392.359375 C 292.785156 396.261719 295.59375 402.503906 295.28125 408.746094 Z M 306.519531 388.457031 L 305.894531 389.863281 C 307.609375 390.640625 309.328125 391.734375 310.578125 393.140625 L 311.667969 392.046875 C 310.265625 390.640625 308.390625 389.394531 306.519531 388.457031 Z M 481.15625 390.171875 C 478.503906 387.675781 475.226562 385.804688 471.792969 384.710938 L 471.324219 386.273438 C 474.601562 387.207031 477.566406 388.925781 480.066406 391.265625 Z M 483.5 394.855469 L 484.902344 394.230469 C 484.746094 393.605469 484.277344 393.140625 483.65625 392.671875 L 482.875 394.074219 C 483.1875 394.230469 483.5 394.542969 483.5 394.855469 Z M 377.839844 389.394531 C 377.0625 388.457031 377.683594 386.894531 378.464844 385.648438 C 380.027344 383.617188 382.367188 382.214844 384.863281 381.746094 L 385.332031 381.746094 L 385.488281 381.433594 C 386.269531 379.875 387.828125 378.78125 389.546875 378.625 C 391.105469 378.46875 392.824219 379.25 393.761719 380.496094 C 392.199219 381.433594 390.792969 382.683594 390.015625 384.398438 L 391.417969 385.023438 C 392.355469 383.152344 394.070312 381.746094 395.945312 381.121094 C 397.972656 380.496094 400.160156 380.808594 401.875 381.902344 L 402.65625 380.496094 C 400.472656 379.25 397.816406 378.9375 395.476562 379.5625 C 395.320312 379.5625 395.164062 379.71875 395.007812 379.71875 C 393.761719 377.84375 391.417969 376.753906 389.078125 377.0625 C 386.894531 377.21875 385.019531 378.46875 383.929688 380.339844 C 381.117188 380.964844 378.621094 382.527344 376.90625 384.710938 C 375.8125 386.117188 374.875 388.457031 376.125 390.328125 Z M 456.1875 377.6875 C 456.1875 377.53125 456.5 377.375 456.96875 377.21875 C 458.527344 376.90625 460.710938 376.597656 461.960938 377.84375 L 463.054688 376.75 C 461.804688 375.347656 459.621094 374.878906 456.65625 375.660156 C 456.34375 375.660156 455.25 375.972656 454.78125 376.75 C 454.625 377.0625 454.46875 377.53125 454.625 378 Z M 515.648438 407.496094 C 517.675781 409.371094 520.484375 410.617188 522.828125 411.710938 C 521.734375 414.050781 520.484375 416.394531 519.082031 418.421875 L 520.332031 419.359375 C 521.890625 416.859375 523.296875 414.363281 524.542969 411.710938 L 524.855469 410.929688 L 524.074219 410.617188 C 521.421875 409.527344 518.613281 408.433594 516.585938 406.40625 C 515.023438 405 513.929688 403.128906 512.683594 401.253906 C 511.902344 399.851562 510.964844 398.445312 509.875 397.195312 L 508.625 398.132812 C 509.5625 399.382812 510.5 400.628906 511.277344 402.035156 C 512.683594 404.0625 513.929688 405.9375 515.648438 407.496094 Z M 341.476562 393.917969 C 343.195312 394.230469 345.066406 394.542969 346.628906 395.167969 L 346.628906 396.417969 L 348.1875 396.417969 L 348.1875 394.074219 L 347.71875 393.917969 C 345.847656 392.984375 343.820312 392.671875 341.632812 392.203125 C 338.824219 391.734375 336.015625 391.265625 334.296875 389.238281 C 333.050781 387.832031 332.582031 385.648438 332.894531 383.308594 C 333.207031 381.121094 334.144531 379.09375 334.921875 377.0625 L 333.519531 376.441406 C 332.582031 378.625 331.644531 380.808594 331.332031 383.152344 C 331.019531 385.960938 331.644531 388.457031 333.050781 390.171875 C 335.390625 392.828125 338.511719 393.296875 341.476562 393.917969 Z M 190.5625 243.160156 L 190.40625 244.71875 C 200.550781 245.8125 234.105469 253.460938 241.59375 300.902344 L 243.15625 300.589844 C 235.507812 252.054688 201.019531 244.40625 190.5625 243.160156 Z M 240.816406 337.578125 C 244.09375 350.21875 234.882812 380.652344 229.265625 398.757812 C 227.394531 404.6875 225.988281 409.371094 225.519531 411.867188 L 227.082031 412.179688 C 227.550781 409.683594 229.109375 405 230.828125 399.226562 C 236.445312 380.964844 245.808594 350.375 242.375 337.265625 Z M 505.816406 517.679688 L 505.503906 519.242188 C 507.6875 519.710938 509.875 519.863281 512.058594 519.863281 C 521.578125 519.863281 531.097656 515.652344 537.496094 508.472656 L 536.25 507.378906 C 528.914062 515.808594 516.898438 519.863281 505.816406 517.679688 Z M 516.429688 658.453125 L 516.273438 657.203125 L 515.179688 657.828125 C 514.867188 657.984375 514.554688 658.140625 514.398438 658.296875 C 484.589844 654.707031 454.78125 652.679688 424.972656 656.578125 C 415.140625 657.828125 405.308594 659.542969 395.476562 660.480469 C 381.742188 661.730469 366.761719 663.445312 352.871094 663.289062 C 351.777344 662.976562 350.6875 662.667969 349.4375 662.511719 L 348.65625 662.355469 L 348.5 663.132812 C 338.980469 703.242188 340.074219 747.097656 351.621094 786.738281 L 353.183594 786.269531 C 341.789062 747.253906 340.699219 703.867188 349.90625 664.226562 C 387.984375 673.589844 428.875 682.019531 474.132812 673.746094 C 486.308594 671.5625 501.914062 667.972656 515.023438 659.855469 C 515.492188 665.320312 516.273438 671.09375 517.054688 677.335938 C 519.707031 698.25 522.671875 721.972656 519.863281 743.820312 C 518.457031 754.902344 516.429688 766.761719 512.371094 777.6875 L 513.773438 778.3125 C 517.988281 767.230469 519.863281 755.214844 521.421875 743.976562 C 524.230469 721.972656 521.265625 698.25 518.613281 677.179688 C 517.675781 670.46875 516.898438 664.226562 516.429688 658.453125 Z M 423.101562 738.359375 C 419.355469 736.953125 415.453125 735.550781 412.332031 733.207031 C 409.523438 731.023438 407.339844 728.214844 404.996094 725.25 C 403.28125 723.0625 401.5625 720.878906 399.691406 718.851562 L 398.597656 719.941406 C 400.472656 721.816406 402.1875 724 403.75 726.183594 C 405.933594 729.152344 408.273438 732.273438 411.394531 734.457031 C 414.828125 736.953125 418.730469 738.359375 422.632812 739.761719 L 424.191406 740.386719 C 438.863281 745.851562 452.597656 753.496094 464.769531 763.328125 L 465.707031 762.082031 C 453.378906 752.09375 439.488281 744.289062 424.660156 738.828125 Z M 455.875 726.183594 L 454.9375 727.433594 C 463.988281 733.363281 471.636719 740.855469 477.878906 749.75 L 479.128906 748.816406 C 472.886719 739.917969 465.082031 732.273438 455.875 726.183594 Z M 216.46875 499.886719 L 215.0625 500.511719 C 218.183594 508.316406 224.738281 514.558594 232.699219 517.367188 L 233.167969 515.964844 C 225.675781 513.152344 219.433594 507.222656 216.46875 499.886719 Z M 543.429688 331.648438 C 538.277344 319.945312 540.308594 311.671875 540.308594 311.515625 L 538.746094 311.203125 C 538.589844 311.515625 536.71875 320.101562 542.023438 332.273438 C 545.144531 339.609375 559.816406 376.90625 560.59375 378.9375 L 562 378.46875 C 561.0625 375.503906 546.550781 338.671875 543.429688 331.648438 Z M 538.589844 241.441406 L 537.03125 241.128906 C 535.3125 248.777344 534.53125 256.582031 534.6875 264.382812 L 536.25 264.382812 C 536.09375 256.582031 536.875 248.933594 538.589844 241.441406 Z M 381.585938 101.136719 C 381.117188 103.480469 380.339844 108.785156 381.117188 114.246094 L 379.558594 113.9375 L 379.246094 115.496094 L 381.429688 115.964844 C 381.585938 116.746094 381.742188 117.523438 382.054688 118.304688 C 381.117188 118.617188 380.339844 118.929688 379.402344 119.242188 L 379.871094 120.800781 C 380.804688 120.492188 381.742188 120.179688 382.679688 119.867188 C 382.992188 120.800781 383.460938 121.582031 383.929688 122.363281 C 383.304688 122.988281 382.679688 123.613281 382.054688 124.078125 L 382.835938 125.328125 C 383.617188 124.859375 384.238281 124.234375 384.707031 123.769531 C 385.175781 124.546875 385.800781 125.328125 386.582031 125.953125 C 388.609375 128.136719 395.476562 129.855469 395.476562 129.855469 C 395.476562 129.855469 389.390625 125.796875 387.363281 123.613281 C 380.960938 116.121094 383.148438 104.257812 383.929688 101.136719 C 387.828125 100.359375 402.8125 97.703125 410.925781 105.664062 C 411.394531 106.132812 411.707031 106.445312 412.019531 106.914062 C 411.082031 106.757812 410.304688 106.601562 409.367188 106.601562 C 407.648438 106.601562 406.089844 106.914062 404.683594 107.378906 C 404.683594 107.378906 402.34375 108.472656 400.9375 109.410156 C 398.441406 111.28125 396.726562 113.9375 395.945312 117.058594 C 396.726562 117.835938 397.351562 118.617188 398.128906 119.242188 C 399.535156 120.648438 400.9375 122.363281 402.8125 122.988281 C 400.316406 122.988281 397.816406 122.050781 395.632812 120.957031 C 395.632812 120.957031 395.632812 120.957031 395.476562 120.957031 C 395.632812 125.015625 397.351562 128.605469 400.316406 131.101562 C 406.871094 132.351562 414.046875 131.570312 418.417969 129.230469 C 418.417969 129.230469 424.816406 112.6875 412.019531 101.605469 C 406.246094 96.613281 398.441406 95.207031 392.511719 95.050781 C 388.453125 94.894531 384.082031 94.113281 382.992188 91.773438 C 382.992188 91.773438 382.523438 94.738281 385.957031 96.300781 C 379.402344 98.171875 376.59375 95.988281 376.59375 95.988281 C 376.75 99.421875 379.714844 100.671875 381.585938 101.136719 Z M 446.824219 108.003906 C 454.15625 101.292969 465.394531 104.726562 469.140625 106.289062 C 469.296875 107.378906 469.609375 108.472656 469.609375 109.410156 C 467.890625 108.472656 465.863281 107.847656 463.523438 107.847656 C 456.8125 107.847656 451.191406 113.3125 451.191406 120.179688 C 451.191406 120.492188 451.191406 120.648438 451.191406 120.800781 C 453.847656 120.179688 456.34375 119.085938 458.683594 117.835938 C 457.125 120.648438 454.78125 123.144531 452.128906 124.859375 C 453.222656 127.355469 454.9375 129.386719 457.125 130.632812 C 459.777344 130.011719 461.960938 128.917969 463.835938 127.667969 C 463.523438 127.824219 463.367188 127.980469 463.367188 127.980469 C 463.367188 127.980469 467.734375 126.109375 470.078125 120.492188 C 470.542969 120.800781 471.167969 120.957031 471.636719 121.269531 L 472.417969 119.867188 C 471.792969 119.554688 471.167969 119.242188 470.542969 118.929688 C 470.855469 118.148438 471.011719 117.214844 471.167969 116.277344 C 472.105469 116.433594 473.042969 116.433594 473.976562 116.433594 L 473.976562 114.871094 C 473.042969 114.871094 472.261719 114.714844 471.480469 114.714844 C 471.792969 112.53125 471.636719 109.878906 471.167969 106.914062 C 473.199219 107.535156 477.253906 108.160156 478.972656 104.414062 C 478.972656 104.414062 476.476562 105.507812 472.417969 103.792969 C 472.417969 103.792969 475.070312 103.324219 476.945312 99.578125 C 476.945312 99.578125 472.105469 100.515625 466.957031 99.890625 C 461.023438 99.109375 449.789062 98.953125 442.921875 107.535156 C 436.210938 115.808594 437.769531 125.484375 441.203125 130.789062 C 441.203125 130.945312 436.054688 117.992188 446.824219 108.003906 Z M 446.824219 108.003906 " fill-opacity="1" fill-rule="nonzero"/></svg>