<svg xmlns="http://www.w3.org/2000/svg" xmlns:xlink="http://www.w3.org/1999/xlink" width="1080" zoomAndPan="magnify" viewBox="0 0 810 809.999993" height="1080" preserveAspectRatio="xMidYMid meet" version="1.0"><defs><clipPath id="9bed8d83e0"><path d="M 213.730469 1 L 596.230469 1 L 596.230469 809 L 213.730469 809 Z M 213.730469 1 " clip-rule="nonzero"/></clipPath></defs><g clip-path="url(#9bed8d83e0)"><path fill="#00425c" d="M 508.015625 134.476562 L 596.265625 134.476562 L 596.265625 1.421875 L 483.578125 1.421875 L 483.578125 1.929688 C 335.414062 7.359375 304.867188 90.351562 302.320312 178.09375 L 301.980469 178.09375 L 301.980469 270.417969 L 213.730469 270.417969 L 213.730469 403.640625 L 301.980469 403.640625 L 301.980469 808.578125 L 460.324219 808.578125 L 460.324219 403.640625 L 573.863281 403.640625 L 596.265625 270.417969 L 460.324219 270.417969 L 460.324219 187.765625 C 460.324219 158.40625 480.011719 134.476562 508.015625 134.476562 Z M 508.015625 134.476562 " fill-opacity="1" fill-rule="nonzero"/></g></svg>