<svg xmlns="http://www.w3.org/2000/svg" xmlns:xlink="http://www.w3.org/1999/xlink" width="1080" zoomAndPan="magnify" viewBox="0 0 810 809.999993" height="1080" preserveAspectRatio="xMidYMid meet" version="1.0"><defs><clipPath id="e1741365f0"><path d="M 128.339844 27.308594 L 681.839844 27.308594 L 681.839844 782.558594 L 128.339844 782.558594 Z M 128.339844 27.308594 " clip-rule="nonzero"/></clipPath><clipPath id="bec7c53852"><path d="M 0 398.046875 L 423.382812 398.046875 L 423.382812 810 L 0 810 Z M 0 398.046875 " clip-rule="nonzero"/></clipPath><clipPath id="980f59af6e"><path d="M 145.0625 398.046875 C -8.652344 398.046875 -133.257812 530.976562 -133.257812 694.953125 C -133.257812 858.929688 -8.652344 991.859375 145.0625 991.859375 C 298.773438 991.859375 423.382812 858.929688 423.382812 694.953125 C 423.382812 530.976562 298.773438 398.046875 145.0625 398.046875 Z M 145.0625 398.046875 " clip-rule="nonzero"/></clipPath><clipPath id="7764c14645"><path d="M 38.292969 465 L 348 465 L 348 775 L 38.292969 775 Z M 38.292969 465 " clip-rule="nonzero"/></clipPath></defs><g clip-path="url(#e1741365f0)"><path fill="#cecfd7" d="M 186.253906 42.207031 C 162.605469 42.207031 143.371094 61.449219 143.371094 85.09375 L 143.371094 724.90625 C 143.371094 748.546875 162.605469 767.789062 186.253906 767.789062 L 623.664062 767.789062 C 647.308594 767.789062 666.550781 748.546875 666.550781 724.90625 L 666.550781 85.09375 C 666.550781 61.449219 647.308594 42.207031 623.664062 42.207031 Z M 623.664062 782.695312 L 186.253906 782.695312 C 154.386719 782.695312 128.464844 756.769531 128.464844 724.90625 L 128.464844 85.09375 C 128.464844 53.226562 154.386719 27.300781 186.253906 27.300781 L 623.664062 27.300781 C 655.53125 27.300781 681.457031 53.226562 681.457031 85.09375 L 681.457031 724.90625 C 681.457031 756.769531 655.53125 782.695312 623.664062 782.695312 " fill-opacity="1" fill-rule="nonzero"/></g><path fill="#cecfd7" d="M 202.757812 267.210938 L 607.164062 267.210938 L 607.164062 101.125 L 202.757812 101.125 Z M 614.617188 282.121094 L 195.304688 282.121094 C 191.1875 282.121094 187.851562 278.78125 187.851562 274.664062 L 187.851562 93.671875 C 187.851562 89.550781 191.1875 86.214844 195.304688 86.214844 L 614.617188 86.214844 C 618.730469 86.214844 622.070312 89.550781 622.070312 93.671875 L 622.070312 274.664062 C 622.070312 278.78125 618.730469 282.121094 614.617188 282.121094 " fill-opacity="1" fill-rule="nonzero"/><path fill="#cecfd7" d="M 202.757812 439.308594 L 302.175781 439.308594 L 302.175781 354.523438 L 202.757812 354.523438 Z M 309.628906 454.21875 L 195.304688 454.21875 C 191.1875 454.21875 187.851562 450.882812 187.851562 446.765625 L 187.851562 347.066406 C 187.851562 342.953125 191.1875 339.613281 195.304688 339.613281 L 309.628906 339.613281 C 313.746094 339.613281 317.082031 342.953125 317.082031 347.066406 L 317.082031 446.765625 C 317.082031 450.882812 313.746094 454.21875 309.628906 454.21875 " fill-opacity="1" fill-rule="nonzero"/><path fill="#cecfd7" d="M 354.414062 439.308594 L 453.828125 439.308594 L 453.828125 354.523438 L 354.414062 354.523438 Z M 461.28125 454.21875 L 346.960938 454.21875 C 342.84375 454.21875 339.507812 450.882812 339.507812 446.765625 L 339.507812 347.066406 C 339.507812 342.953125 342.84375 339.613281 346.960938 339.613281 L 461.28125 339.613281 C 465.402344 339.613281 468.734375 342.953125 468.734375 347.066406 L 468.734375 446.765625 C 468.734375 450.882812 465.402344 454.21875 461.28125 454.21875 " fill-opacity="1" fill-rule="nonzero"/><path fill="#cecfd7" d="M 506.070312 439.308594 L 605.484375 439.308594 L 605.484375 354.523438 L 506.070312 354.523438 Z M 612.9375 454.21875 L 498.617188 454.21875 C 494.496094 454.21875 491.164062 450.882812 491.164062 446.765625 L 491.164062 347.066406 C 491.164062 342.953125 494.496094 339.613281 498.617188 339.613281 L 612.9375 339.613281 C 617.054688 339.613281 620.394531 342.953125 620.394531 347.066406 L 620.394531 446.765625 C 620.394531 450.882812 617.054688 454.21875 612.9375 454.21875 " fill-opacity="1" fill-rule="nonzero"/><path fill="#cecfd7" d="M 202.757812 576.886719 L 302.175781 576.886719 L 302.175781 492.089844 L 202.757812 492.089844 Z M 309.628906 591.792969 L 195.304688 591.792969 C 191.1875 591.792969 187.851562 588.453125 187.851562 584.339844 L 187.851562 484.636719 C 187.851562 480.523438 191.1875 477.183594 195.304688 477.183594 L 309.628906 477.183594 C 313.746094 477.183594 317.082031 480.523438 317.082031 484.636719 L 317.082031 584.339844 C 317.082031 588.453125 313.746094 591.792969 309.628906 591.792969 " fill-opacity="1" fill-rule="nonzero"/><path fill="#cecfd7" d="M 354.414062 576.886719 L 453.828125 576.886719 L 453.828125 492.089844 L 354.414062 492.089844 Z M 461.28125 591.792969 L 346.960938 591.792969 C 342.84375 591.792969 339.507812 588.453125 339.507812 584.339844 L 339.507812 484.636719 C 339.507812 480.523438 342.84375 477.183594 346.960938 477.183594 L 461.28125 477.183594 C 465.402344 477.183594 468.734375 480.523438 468.734375 484.636719 L 468.734375 584.339844 C 468.734375 588.453125 465.402344 591.792969 461.28125 591.792969 " fill-opacity="1" fill-rule="nonzero"/><path fill="#cecfd7" d="M 202.757812 714.457031 L 302.175781 714.457031 L 302.175781 629.660156 L 202.757812 629.660156 Z M 309.628906 729.363281 L 195.304688 729.363281 C 191.1875 729.363281 187.851562 726.023438 187.851562 721.910156 L 187.851562 622.203125 C 187.851562 618.089844 191.1875 614.75 195.304688 614.75 L 309.628906 614.75 C 313.746094 614.75 317.082031 618.089844 317.082031 622.203125 L 317.082031 721.910156 C 317.082031 726.023438 313.746094 729.363281 309.628906 729.363281 " fill-opacity="1" fill-rule="nonzero"/><path fill="#cecfd7" d="M 354.414062 714.457031 L 453.828125 714.457031 L 453.828125 629.660156 L 354.414062 629.660156 Z M 461.28125 729.363281 L 346.960938 729.363281 C 342.84375 729.363281 339.507812 726.023438 339.507812 721.910156 L 339.507812 622.203125 C 339.507812 618.089844 342.84375 614.75 346.960938 614.75 L 461.28125 614.75 C 465.402344 614.75 468.734375 618.089844 468.734375 622.203125 L 468.734375 721.910156 C 468.734375 726.023438 465.402344 729.363281 461.28125 729.363281 " fill-opacity="1" fill-rule="nonzero"/><path fill="#cecfd7" d="M 506.070312 714.457031 L 605.484375 714.457031 L 605.484375 492.089844 L 506.070312 492.089844 Z M 612.9375 729.363281 L 498.617188 729.363281 C 494.496094 729.363281 491.164062 726.023438 491.164062 721.910156 L 491.164062 484.636719 C 491.164062 480.523438 494.496094 477.183594 498.617188 477.183594 L 612.9375 477.183594 C 617.054688 477.183594 620.394531 480.523438 620.394531 484.636719 L 620.394531 721.910156 C 620.394531 726.023438 617.054688 729.363281 612.9375 729.363281 " fill-opacity="1" fill-rule="nonzero"/><path fill="#cecfd7" d="M 555.773438 638.589844 C 551.660156 638.589844 548.320312 635.25 548.320312 631.132812 L 548.320312 575.410156 C 548.320312 571.296875 551.660156 567.957031 555.773438 567.957031 C 559.898438 567.957031 563.226562 571.296875 563.226562 575.410156 L 563.226562 631.132812 C 563.226562 635.25 559.898438 638.589844 555.773438 638.589844 " fill-opacity="1" fill-rule="nonzero"/><path fill="#cecfd7" d="M 583.640625 610.726562 L 527.921875 610.726562 C 523.796875 610.726562 520.46875 607.386719 520.46875 603.273438 C 520.46875 599.160156 523.796875 595.820312 527.921875 595.820312 L 583.640625 595.820312 C 587.757812 595.820312 591.09375 599.160156 591.09375 603.273438 C 591.09375 607.386719 587.757812 610.726562 583.640625 610.726562 " fill-opacity="1" fill-rule="nonzero"/><g clip-path="url(#bec7c53852)"><g clip-path="url(#980f59af6e)"><path fill="#00425c" d="M -133.257812 398.046875 L 423.382812 398.046875 L 423.382812 991.652344 L -133.257812 991.652344 Z M -133.257812 398.046875 " fill-opacity="1" fill-rule="nonzero"/></g></g><g clip-path="url(#7764c14645)"><path fill="#79cbbb" d="M 336.097656 729.542969 C 336.457031 729.90625 336.757812 730.308594 336.996094 730.761719 C 337.238281 731.210938 337.410156 731.683594 337.507812 732.183594 C 337.605469 732.683594 337.632812 733.1875 337.582031 733.695312 C 337.53125 734.203125 337.410156 734.691406 337.214844 735.164062 C 337.019531 735.632812 336.761719 736.066406 336.4375 736.460938 C 336.113281 736.855469 335.738281 737.195312 335.316406 737.476562 C 334.890625 737.761719 334.4375 737.976562 333.949219 738.125 C 333.460938 738.273438 332.960938 738.347656 332.453125 738.347656 L 275.734375 738.347656 C 275.394531 738.347656 275.0625 738.3125 274.726562 738.246094 C 274.394531 738.183594 274.074219 738.085938 273.761719 737.953125 C 273.449219 737.824219 273.152344 737.667969 272.871094 737.476562 C 272.585938 737.289062 272.328125 737.078125 272.085938 736.835938 C 271.847656 736.597656 271.632812 736.335938 271.445312 736.054688 C 271.257812 735.773438 271.101562 735.476562 270.96875 735.164062 C 270.839844 734.851562 270.742188 734.527344 270.675781 734.195312 C 270.609375 733.863281 270.578125 733.527344 270.578125 733.191406 L 270.578125 676.472656 C 270.578125 675.964844 270.652344 675.464844 270.800781 674.976562 C 270.949219 674.488281 271.164062 674.035156 271.449219 673.609375 C 271.730469 673.1875 272.070312 672.8125 272.464844 672.488281 C 272.855469 672.164062 273.289062 671.90625 273.761719 671.710938 C 274.230469 671.515625 274.71875 671.390625 275.226562 671.34375 C 275.734375 671.292969 276.238281 671.316406 276.738281 671.414062 C 277.238281 671.515625 277.714844 671.683594 278.164062 671.921875 C 278.613281 672.164062 279.019531 672.464844 279.378906 672.824219 L 295.722656 689.148438 C 297.59375 686.386719 299.34375 683.550781 300.984375 680.648438 C 302.621094 677.746094 304.140625 674.78125 305.539062 671.753906 C 306.9375 668.726562 308.214844 665.652344 309.363281 662.519531 C 310.515625 659.390625 311.535156 656.222656 312.429688 653.011719 C 313.324219 649.796875 314.085938 646.554688 314.71875 643.28125 C 315.351562 640.007812 315.851562 636.714844 316.21875 633.402344 C 316.582031 630.085938 316.816406 626.765625 316.914062 623.433594 C 317.011719 620.097656 316.972656 616.769531 316.800781 613.4375 C 316.628906 610.109375 316.324219 606.792969 315.886719 603.488281 C 315.445312 600.183594 314.875 596.902344 314.167969 593.640625 C 313.464844 590.382812 312.628906 587.160156 311.664062 583.96875 C 310.699219 580.777344 309.605469 577.628906 308.386719 574.527344 C 307.167969 571.421875 305.824219 568.375 304.359375 565.378906 C 302.894531 562.386719 301.308594 559.457031 299.605469 556.589844 C 297.902344 553.722656 296.089844 550.929688 294.160156 548.210938 C 292.234375 545.488281 290.199219 542.851562 288.054688 540.296875 C 285.914062 537.742188 283.675781 535.277344 281.335938 532.902344 C 278.992188 530.527344 276.5625 528.253906 274.035156 526.074219 C 271.511719 523.894531 268.90625 521.824219 266.214844 519.855469 C 263.519531 517.890625 260.753906 516.035156 257.914062 514.289062 C 255.070312 512.546875 252.164062 510.921875 249.191406 509.414062 C 246.21875 507.902344 243.1875 506.515625 240.105469 505.253906 C 237.019531 503.988281 233.886719 502.851562 230.710938 501.839844 C 227.535156 500.828125 224.320312 499.949219 221.074219 499.195312 C 217.824219 498.445312 214.550781 497.828125 211.253906 497.339844 C 207.957031 496.851562 204.644531 496.5 201.316406 496.28125 C 197.988281 496.058594 194.660156 495.976562 191.328125 496.023438 C 187.992188 496.074219 184.667969 496.257812 181.347656 496.578125 C 178.027344 496.894531 174.730469 497.347656 171.445312 497.933594 C 168.164062 498.515625 164.910156 499.234375 161.6875 500.082031 C 158.460938 500.929688 155.277344 501.90625 152.132812 503.011719 C 148.988281 504.117188 145.890625 505.347656 142.84375 506.699219 C 142.535156 506.839844 142.214844 506.949219 141.886719 507.023438 C 141.554688 507.101562 141.21875 507.144531 140.878906 507.152344 C 140.542969 507.164062 140.203125 507.140625 139.871094 507.085938 C 139.535156 507.027344 139.210938 506.941406 138.894531 506.820312 C 138.574219 506.699219 138.273438 506.546875 137.984375 506.367188 C 137.699219 506.1875 137.433594 505.980469 137.183594 505.746094 C 136.9375 505.515625 136.71875 505.261719 136.519531 504.984375 C 136.324219 504.707031 136.15625 504.414062 136.019531 504.105469 C 135.878906 503.792969 135.773438 503.472656 135.699219 503.144531 C 135.621094 502.8125 135.582031 502.476562 135.570312 502.136719 C 135.5625 501.800781 135.585938 501.460938 135.644531 501.128906 C 135.699219 500.792969 135.789062 500.46875 135.910156 500.152344 C 136.035156 499.835938 136.183594 499.53125 136.367188 499.246094 C 136.546875 498.960938 136.753906 498.691406 136.988281 498.445312 C 137.222656 498.199219 137.476562 497.980469 137.753906 497.785156 C 138.03125 497.589844 138.324219 497.421875 138.636719 497.285156 C 141.996094 495.789062 145.414062 494.429688 148.886719 493.214844 C 152.359375 492 155.878906 490.925781 159.4375 490 C 163 489.074219 166.59375 488.296875 170.21875 487.664062 C 173.84375 487.035156 177.488281 486.554688 181.152344 486.222656 C 184.820312 485.890625 188.492188 485.710938 192.171875 485.683594 C 195.851562 485.65625 199.527344 485.777344 203.195312 486.050781 C 206.863281 486.328125 210.515625 486.75 214.152344 487.324219 C 217.785156 487.902344 221.390625 488.625 224.964844 489.496094 C 228.542969 490.367188 232.074219 491.382812 235.566406 492.546875 C 239.058594 493.710938 242.496094 495.011719 245.878906 496.460938 C 249.261719 497.90625 252.582031 499.488281 255.835938 501.207031 C 259.089844 502.925781 262.265625 504.773438 265.367188 506.753906 C 268.46875 508.734375 271.484375 510.839844 274.414062 513.066406 C 277.339844 515.296875 280.171875 517.640625 282.910156 520.101562 C 285.644531 522.566406 288.273438 525.136719 290.796875 527.8125 C 293.320312 530.492188 295.730469 533.269531 298.023438 536.144531 C 300.320312 539.023438 302.492188 541.988281 304.542969 545.042969 C 306.59375 548.097656 308.515625 551.234375 310.308594 554.449219 C 312.101562 557.660156 313.757812 560.941406 315.28125 564.292969 C 316.804688 567.644531 318.183594 571.050781 319.425781 574.515625 C 320.667969 577.976562 321.765625 581.488281 322.71875 585.042969 C 323.671875 588.59375 324.476562 592.183594 325.136719 595.804688 C 325.792969 599.425781 326.300781 603.066406 326.660156 606.726562 C 327.015625 610.390625 327.222656 614.0625 327.28125 617.742188 C 327.335938 621.421875 327.238281 625.097656 326.992188 628.765625 C 326.746094 632.4375 326.347656 636.09375 325.800781 639.734375 C 325.253906 643.371094 324.558594 646.980469 323.710938 650.5625 C 322.867188 654.144531 321.875 657.6875 320.738281 661.183594 C 319.601562 664.683594 318.324219 668.132812 316.902344 671.527344 C 315.484375 674.921875 313.925781 678.253906 312.230469 681.519531 C 310.539062 684.785156 308.710938 687.976562 306.753906 691.09375 C 304.796875 694.210938 302.714844 697.238281 300.507812 700.183594 C 300.285156 700.480469 300.035156 700.746094 299.757812 700.988281 C 299.476562 701.230469 299.175781 701.441406 298.851562 701.617188 C 298.527344 701.792969 298.1875 701.933594 297.835938 702.039062 C 297.480469 702.140625 297.117188 702.207031 296.75 702.234375 C 296.382812 702.261719 296.015625 702.246094 295.648438 702.195312 C 295.285156 702.144531 294.929688 702.050781 294.582031 701.925781 C 294.238281 701.796875 293.90625 701.632812 293.597656 701.433594 C 293.285156 701.234375 293 701.003906 292.738281 700.742188 L 280.890625 688.910156 L 280.890625 728.035156 L 320.003906 728.035156 L 307.40625 715.4375 C 307.167969 715.199219 306.953125 714.9375 306.765625 714.660156 C 306.578125 714.378906 306.421875 714.082031 306.289062 713.773438 C 306.160156 713.460938 306.0625 713.140625 305.996094 712.808594 C 305.929688 712.480469 305.894531 712.144531 305.894531 711.808594 C 305.890625 711.472656 305.925781 711.136719 305.988281 710.804688 C 306.054688 710.476562 306.148438 710.152344 306.277344 709.839844 C 306.402344 709.53125 306.5625 709.234375 306.746094 708.953125 C 306.933594 708.671875 307.144531 708.410156 307.382812 708.171875 C 312.269531 701.902344 316.609375 695.269531 320.390625 688.277344 C 324.175781 681.285156 327.351562 674.027344 329.925781 666.503906 C 332.496094 658.980469 334.425781 651.296875 335.714844 643.449219 C 337.003906 635.605469 337.636719 627.707031 337.605469 619.757812 C 337.605469 616.753906 337.511719 613.753906 337.320312 610.757812 C 337.132812 607.761719 336.851562 604.773438 336.476562 601.792969 C 336.101562 598.8125 335.632812 595.851562 335.074219 592.898438 C 334.511719 589.949219 333.859375 587.019531 333.117188 584.109375 C 332.375 581.203125 331.542969 578.316406 330.621094 575.460938 C 329.699219 572.601562 328.6875 569.777344 327.589844 566.984375 C 326.488281 564.1875 325.304688 561.429688 324.035156 558.710938 C 322.761719 555.988281 321.410156 553.3125 319.972656 550.675781 C 318.535156 548.039062 317.015625 545.449219 315.414062 542.910156 C 313.816406 540.367188 312.140625 537.878906 310.386719 535.441406 C 308.632812 533.003906 306.800781 530.625 304.898438 528.300781 C 302.996094 525.980469 301.023438 523.71875 298.980469 521.515625 C 296.9375 519.316406 294.824219 517.183594 292.648438 515.117188 C 290.472656 513.046875 288.230469 511.050781 285.929688 509.121094 C 283.628906 507.191406 281.269531 505.335938 278.851562 503.554688 C 276.4375 501.773438 273.964844 500.070312 271.441406 498.441406 C 268.917969 496.816406 266.347656 495.269531 263.726562 493.800781 C 261.105469 492.332031 258.445312 490.949219 255.738281 489.648438 C 253.03125 488.347656 250.285156 487.132812 247.503906 486.003906 C 244.722656 484.871094 241.90625 483.832031 239.0625 482.875 C 236.214844 481.921875 233.339844 481.058594 230.4375 480.28125 C 227.539062 479.507812 224.617188 478.824219 221.671875 478.230469 C 218.730469 477.636719 215.769531 477.136719 212.792969 476.730469 C 209.820312 476.320312 206.835938 476.003906 203.839844 475.78125 C 200.847656 475.5625 197.847656 475.433594 194.84375 475.398438 C 191.84375 475.363281 188.84375 475.421875 185.84375 475.570312 C 182.84375 475.722656 179.851562 475.96875 176.871094 476.308594 C 173.886719 476.644531 170.914062 477.078125 167.960938 477.601562 C 165.003906 478.125 162.066406 478.738281 159.144531 479.445312 C 156.226562 480.152344 153.335938 480.949219 150.464844 481.835938 C 147.597656 482.726562 144.757812 483.699219 141.953125 484.765625 C 139.144531 485.828125 136.371094 486.980469 133.636719 488.214844 C 133.328125 488.359375 133.007812 488.46875 132.675781 488.546875 C 132.347656 488.625 132.011719 488.671875 131.671875 488.683594 C 131.335938 488.699219 130.996094 488.675781 130.660156 488.621094 C 130.328125 488.570312 130 488.484375 129.679688 488.363281 C 129.363281 488.246094 129.058594 488.097656 128.769531 487.917969 C 128.484375 487.738281 128.214844 487.535156 127.964844 487.304688 C 127.71875 487.070312 127.496094 486.816406 127.296875 486.542969 C 127.097656 486.265625 126.929688 485.972656 126.789062 485.664062 C 126.648438 485.355469 126.539062 485.035156 126.460938 484.707031 C 126.386719 484.375 126.339844 484.039062 126.332031 483.699219 C 126.320312 483.359375 126.34375 483.023438 126.398438 482.6875 C 126.453125 482.355469 126.542969 482.027344 126.660156 481.710938 C 126.78125 481.394531 126.933594 481.089844 127.113281 480.800781 C 127.292969 480.515625 127.5 480.246094 127.730469 480 C 127.964844 479.753906 128.21875 479.53125 128.496094 479.335938 C 128.773438 479.136719 129.066406 478.96875 129.375 478.832031 C 132.308594 477.503906 135.277344 476.273438 138.285156 475.132812 C 141.292969 473.988281 144.335938 472.945312 147.40625 471.992188 C 150.480469 471.042969 153.582031 470.1875 156.707031 469.429688 C 159.835938 468.671875 162.984375 468.011719 166.148438 467.449219 C 169.316406 466.890625 172.5 466.425781 175.699219 466.0625 C 178.894531 465.699219 182.097656 465.4375 185.3125 465.273438 C 188.527344 465.109375 191.742188 465.046875 194.957031 465.085938 C 198.175781 465.121094 201.386719 465.261719 204.597656 465.496094 C 207.804688 465.734375 211.003906 466.074219 214.191406 466.511719 C 217.378906 466.949219 220.546875 467.484375 223.703125 468.117188 C 226.855469 468.753906 229.988281 469.484375 233.097656 470.316406 C 236.203125 471.148438 239.285156 472.074219 242.335938 473.09375 C 245.386719 474.117188 248.402344 475.234375 251.382812 476.445312 C 254.363281 477.65625 257.304688 478.957031 260.203125 480.351562 C 263.101562 481.742188 265.957031 483.226562 268.761719 484.796875 C 271.570312 486.371094 274.328125 488.027344 277.03125 489.769531 C 279.734375 491.515625 282.382812 493.339844 284.972656 495.25 C 287.5625 497.160156 290.089844 499.144531 292.554688 501.210938 C 295.019531 503.277344 297.421875 505.417969 299.753906 507.636719 C 302.085938 509.851562 304.347656 512.136719 306.535156 514.496094 C 308.726562 516.851562 310.839844 519.273438 312.878906 521.765625 C 314.917969 524.253906 316.878906 526.800781 318.757812 529.414062 C 320.636719 532.023438 322.433594 534.691406 324.148438 537.414062 C 325.859375 540.136719 327.488281 542.910156 329.027344 545.738281 C 330.570312 548.5625 332.019531 551.429688 333.378906 554.347656 C 334.742188 557.261719 336.011719 560.214844 337.1875 563.210938 C 338.367188 566.203125 339.449219 569.230469 340.4375 572.292969 C 341.425781 575.355469 342.316406 578.445312 343.113281 581.5625 C 343.910156 584.679688 344.605469 587.820312 345.207031 590.980469 C 345.804688 594.140625 346.304688 597.316406 346.707031 600.507812 C 347.109375 603.703125 347.410156 606.902344 347.613281 610.113281 C 347.816406 613.324219 347.917969 616.539062 347.917969 619.757812 C 347.949219 627.945312 347.324219 636.085938 346.046875 644.171875 C 344.773438 652.261719 342.859375 660.195312 340.308594 667.980469 C 337.757812 675.761719 334.605469 683.289062 330.847656 690.5625 C 327.089844 697.839844 322.773438 704.769531 317.90625 711.351562 Z M 252.839844 751.296875 C 250.101562 752.535156 247.332031 753.683594 244.523438 754.75 C 241.714844 755.8125 238.878906 756.789062 236.007812 757.675781 C 233.140625 758.5625 230.246094 759.359375 227.328125 760.066406 C 224.410156 760.773438 221.472656 761.390625 218.515625 761.914062 C 215.558594 762.4375 212.589844 762.867188 209.605469 763.207031 C 206.621094 763.542969 203.628906 763.789062 200.632812 763.941406 C 197.632812 764.09375 194.632812 764.152344 191.628906 764.117188 C 188.628906 764.082031 185.628906 763.953125 182.632812 763.730469 C 179.640625 763.507812 176.65625 763.191406 173.679688 762.785156 C 170.707031 762.375 167.746094 761.875 164.804688 761.28125 C 161.859375 760.691406 158.9375 760.007812 156.035156 759.230469 C 153.136719 758.457031 150.261719 757.589844 147.414062 756.636719 C 144.566406 755.683594 141.753906 754.640625 138.96875 753.511719 C 136.1875 752.382812 133.445312 751.164062 130.738281 749.863281 C 128.03125 748.5625 125.367188 747.179688 122.75 745.710938 C 120.128906 744.246094 117.558594 742.699219 115.035156 741.070312 C 112.511719 739.445312 110.039062 737.738281 107.621094 735.957031 C 105.207031 734.175781 102.847656 732.320312 100.542969 730.394531 C 98.242188 728.464844 96.003906 726.464844 93.828125 724.398438 C 91.648438 722.328125 89.539062 720.195312 87.496094 717.996094 C 85.453125 715.796875 83.476562 713.535156 81.574219 711.210938 C 79.671875 708.890625 77.84375 706.507812 76.089844 704.074219 C 74.335938 701.636719 72.660156 699.144531 71.058594 696.605469 C 69.460938 694.0625 67.941406 691.476562 66.503906 688.839844 C 65.066406 686.203125 63.710938 683.523438 62.441406 680.804688 C 61.171875 678.082031 59.984375 675.324219 58.886719 672.53125 C 57.789062 669.738281 56.777344 666.910156 55.855469 664.054688 C 54.933594 661.195312 54.097656 658.3125 53.355469 655.402344 C 52.613281 652.492188 51.960938 649.5625 51.402344 646.613281 C 50.84375 643.664062 50.375 640.699219 50 637.71875 C 49.625 634.742188 49.34375 631.753906 49.152344 628.757812 C 48.964844 625.757812 48.871094 622.757812 48.867188 619.757812 C 48.839844 611.804688 49.46875 603.90625 50.757812 596.0625 C 52.046875 588.21875 53.980469 580.53125 56.550781 573.011719 C 59.121094 565.488281 62.300781 558.230469 66.082031 551.234375 C 69.867188 544.242188 74.203125 537.613281 79.09375 531.34375 C 79.332031 531.105469 79.542969 530.84375 79.726562 530.5625 C 79.914062 530.28125 80.070312 529.984375 80.199219 529.671875 C 80.324219 529.359375 80.421875 529.039062 80.488281 528.707031 C 80.550781 528.375 80.582031 528.042969 80.582031 527.707031 C 80.582031 527.367188 80.546875 527.035156 80.480469 526.703125 C 80.414062 526.375 80.316406 526.050781 80.183594 525.742188 C 80.054688 525.429688 79.894531 525.132812 79.707031 524.855469 C 79.519531 524.574219 79.308594 524.316406 79.070312 524.078125 L 66.472656 511.480469 L 105.585938 511.480469 L 105.585938 550.601562 L 93.738281 538.769531 C 93.476562 538.511719 93.1875 538.28125 92.878906 538.082031 C 92.566406 537.882812 92.238281 537.71875 91.890625 537.589844 C 91.546875 537.460938 91.191406 537.371094 90.824219 537.320312 C 90.460938 537.265625 90.09375 537.253906 89.722656 537.28125 C 89.355469 537.304688 88.996094 537.371094 88.640625 537.476562 C 88.285156 537.578125 87.949219 537.71875 87.625 537.898438 C 87.300781 538.074219 86.996094 538.28125 86.71875 538.523438 C 86.4375 538.765625 86.1875 539.035156 85.96875 539.328125 C 83.761719 542.273438 81.679688 545.304688 79.726562 548.421875 C 77.769531 551.539062 75.945312 554.730469 74.253906 557.996094 C 72.558594 561.261719 71.003906 564.59375 69.582031 567.988281 C 68.164062 571.382812 66.886719 574.828125 65.753906 578.328125 C 64.617188 581.828125 63.628906 585.367188 62.785156 588.949219 C 61.941406 592.53125 61.242188 596.140625 60.699219 599.777344 C 60.152344 603.414062 59.753906 607.070312 59.507812 610.742188 C 59.261719 614.414062 59.167969 618.085938 59.222656 621.765625 C 59.28125 625.445312 59.488281 629.113281 59.847656 632.777344 C 60.203125 636.4375 60.710938 640.078125 61.371094 643.699219 C 62.027344 647.316406 62.835938 650.90625 63.789062 654.457031 C 64.742188 658.011719 65.839844 661.519531 67.082031 664.984375 C 68.324219 668.445312 69.707031 671.851562 71.226562 675.203125 C 72.75 678.550781 74.40625 681.832031 76.199219 685.046875 C 77.992188 688.257812 79.914062 691.390625 81.964844 694.445312 C 84.015625 697.503906 86.1875 700.46875 88.480469 703.34375 C 90.777344 706.21875 93.183594 708.996094 95.707031 711.675781 C 98.230469 714.351562 100.859375 716.921875 103.59375 719.382812 C 106.328125 721.84375 109.160156 724.1875 112.085938 726.417969 C 115.015625 728.644531 118.027344 730.75 121.128906 732.730469 C 124.230469 734.710938 127.40625 736.5625 130.660156 738.28125 C 133.914062 740 137.230469 741.582031 140.613281 743.027344 C 143.996094 744.472656 147.433594 745.777344 150.925781 746.9375 C 154.414062 748.101562 157.949219 749.121094 161.523438 749.992188 C 165.097656 750.863281 168.699219 751.589844 172.335938 752.164062 C 175.96875 752.738281 179.621094 753.164062 183.289062 753.4375 C 186.957031 753.714844 190.632812 753.839844 194.308594 753.8125 C 197.988281 753.785156 201.660156 753.605469 205.324219 753.273438 C 208.988281 752.945312 212.632812 752.464844 216.257812 751.835938 C 219.882812 751.207031 223.476562 750.429688 227.039062 749.503906 C 230.597656 748.578125 234.117188 747.507812 237.589844 746.292969 C 241.0625 745.078125 244.476562 743.722656 247.839844 742.226562 C 248.148438 742.089844 248.441406 741.925781 248.71875 741.730469 C 248.996094 741.53125 249.253906 741.3125 249.484375 741.066406 C 249.71875 740.820312 249.925781 740.554688 250.109375 740.265625 C 250.289062 739.980469 250.441406 739.679688 250.5625 739.363281 C 250.683594 739.046875 250.773438 738.71875 250.828125 738.386719 C 250.886719 738.050781 250.910156 737.714844 250.902344 737.375 C 250.890625 737.035156 250.851562 736.703125 250.773438 736.371094 C 250.699219 736.039062 250.59375 735.71875 250.453125 735.410156 C 250.316406 735.101562 250.148438 734.808594 249.953125 734.53125 C 249.757812 734.253906 249.535156 734 249.289062 733.765625 C 249.042969 733.535156 248.773438 733.328125 248.488281 733.148438 C 248.199219 732.96875 247.898438 732.816406 247.582031 732.695312 C 247.265625 732.574219 246.9375 732.488281 246.605469 732.429688 C 246.269531 732.375 245.933594 732.351562 245.59375 732.359375 C 245.253906 732.371094 244.921875 732.414062 244.589844 732.488281 C 244.257812 732.566406 243.9375 732.671875 243.628906 732.8125 C 240.582031 734.167969 237.488281 735.398438 234.34375 736.507812 C 231.195312 737.613281 228.011719 738.589844 224.789062 739.4375 C 221.5625 740.289062 218.308594 741.003906 215.027344 741.589844 C 211.746094 742.175781 208.445312 742.628906 205.125 742.949219 C 201.804688 743.265625 198.480469 743.453125 195.144531 743.5 C 191.8125 743.550781 188.480469 743.46875 185.152344 743.25 C 181.824219 743.03125 178.511719 742.675781 175.214844 742.191406 C 171.914062 741.703125 168.640625 741.085938 165.394531 740.332031 C 162.144531 739.582031 158.929688 738.703125 155.753906 737.691406 C 152.578125 736.679688 149.445312 735.542969 146.359375 734.277344 C 143.273438 733.015625 140.246094 731.628906 137.269531 730.121094 C 134.296875 728.613281 131.390625 726.984375 128.546875 725.242188 C 125.703125 723.5 122.9375 721.644531 120.246094 719.675781 C 117.554688 717.707031 114.945312 715.636719 112.421875 713.457031 C 109.894531 711.28125 107.460938 709.003906 105.121094 706.628906 C 102.78125 704.253906 100.539062 701.789062 98.398438 699.234375 C 96.257812 696.675781 94.222656 694.039062 92.292969 691.320312 C 90.363281 688.597656 88.550781 685.804688 86.847656 682.9375 C 85.144531 680.070312 83.558594 677.140625 82.09375 674.144531 C 80.628906 671.152344 79.285156 668.101562 78.066406 665 C 76.847656 661.894531 75.753906 658.746094 74.789062 655.554688 C 73.824219 652.363281 72.988281 649.140625 72.285156 645.878906 C 71.582031 642.621094 71.007812 639.339844 70.570312 636.03125 C 70.132812 632.726562 69.824219 629.410156 69.65625 626.078125 C 69.484375 622.75 69.445312 619.417969 69.546875 616.085938 C 69.644531 612.753906 69.875 609.429688 70.242188 606.113281 C 70.609375 602.800781 71.109375 599.507812 71.742188 596.234375 C 72.375 592.960938 73.140625 589.714844 74.035156 586.503906 C 74.929688 583.292969 75.953125 580.121094 77.101562 576.992188 C 78.253906 573.863281 79.53125 570.785156 80.929688 567.757812 C 82.328125 564.734375 83.847656 561.769531 85.488281 558.863281 C 87.128906 555.960938 88.882812 553.128906 90.75 550.367188 L 107.09375 566.691406 C 107.457031 567.050781 107.863281 567.351562 108.3125 567.589844 C 108.761719 567.832031 109.234375 568 109.734375 568.097656 C 110.234375 568.199219 110.738281 568.222656 111.246094 568.171875 C 111.753906 568.121094 112.242188 568 112.714844 567.804688 C 113.183594 567.609375 113.617188 567.347656 114.011719 567.023438 C 114.40625 566.703125 114.746094 566.328125 115.027344 565.902344 C 115.308594 565.480469 115.527344 565.023438 115.675781 564.535156 C 115.820312 564.046875 115.894531 563.550781 115.898438 563.039062 L 115.898438 506.324219 C 115.898438 505.984375 115.863281 505.648438 115.796875 505.316406 C 115.730469 504.984375 115.632812 504.664062 115.503906 504.351562 C 115.375 504.035156 115.214844 503.738281 115.027344 503.457031 C 114.839844 503.175781 114.625 502.917969 114.386719 502.675781 C 114.148438 502.4375 113.886719 502.222656 113.605469 502.035156 C 113.324219 501.847656 113.027344 501.6875 112.714844 501.558594 C 112.402344 501.429688 112.078125 501.332031 111.746094 501.265625 C 111.414062 501.199219 111.078125 501.167969 110.742188 501.167969 L 54.023438 501.167969 C 53.515625 501.167969 53.015625 501.242188 52.527344 501.390625 C 52.039062 501.539062 51.582031 501.753906 51.160156 502.035156 C 50.734375 502.320312 50.363281 502.65625 50.039062 503.050781 C 49.714844 503.445312 49.457031 503.878906 49.261719 504.351562 C 49.066406 504.820312 48.941406 505.308594 48.894531 505.816406 C 48.84375 506.324219 48.867188 506.828125 48.96875 507.328125 C 49.066406 507.828125 49.238281 508.304688 49.476562 508.753906 C 49.71875 509.203125 50.019531 509.609375 50.378906 509.96875 L 68.570312 528.160156 C 63.699219 534.742188 59.386719 541.671875 55.628906 548.949219 C 51.871094 556.222656 48.714844 563.753906 46.164062 571.535156 C 43.617188 579.316406 41.703125 587.25 40.425781 595.339844 C 39.148438 603.429688 38.527344 611.566406 38.554688 619.757812 C 38.558594 622.972656 38.660156 626.1875 38.859375 629.398438 C 39.0625 632.609375 39.363281 635.8125 39.765625 639.003906 C 40.167969 642.195312 40.667969 645.371094 41.269531 648.535156 C 41.867188 651.695312 42.566406 654.832031 43.363281 657.949219 C 44.15625 661.066406 45.050781 664.15625 46.039062 667.21875 C 47.027344 670.28125 48.109375 673.308594 49.285156 676.304688 C 50.464844 679.296875 51.734375 682.253906 53.09375 685.167969 C 54.457031 688.082031 55.90625 690.953125 57.445312 693.777344 C 58.988281 696.601562 60.613281 699.375 62.328125 702.097656 C 64.042969 704.820312 65.835938 707.488281 67.71875 710.101562 C 69.597656 712.710938 71.554688 715.261719 73.59375 717.75 C 75.632812 720.238281 77.75 722.660156 79.9375 725.019531 C 82.128906 727.375 84.390625 729.660156 86.722656 731.878906 C 89.054688 734.09375 91.453125 736.234375 93.917969 738.300781 C 96.386719 740.367188 98.914062 742.355469 101.503906 744.265625 C 104.09375 746.171875 106.742188 748 109.445312 749.742188 C 112.148438 751.484375 114.902344 753.144531 117.710938 754.714844 C 120.519531 756.285156 123.371094 757.769531 126.273438 759.164062 C 129.171875 760.558594 132.113281 761.859375 135.09375 763.070312 C 138.074219 764.28125 141.089844 765.394531 144.140625 766.417969 C 147.191406 767.441406 150.269531 768.367188 153.378906 769.199219 C 156.488281 770.027344 159.617188 770.761719 162.773438 771.394531 C 165.925781 772.03125 169.097656 772.566406 172.285156 773.003906 C 175.472656 773.441406 178.671875 773.777344 181.878906 774.015625 C 185.085938 774.253906 188.300781 774.390625 191.515625 774.429688 C 194.734375 774.464844 197.949219 774.402344 201.164062 774.238281 C 204.375 774.078125 207.582031 773.8125 210.777344 773.449219 C 213.972656 773.085938 217.15625 772.625 220.324219 772.0625 C 223.492188 771.5 226.640625 770.84375 229.765625 770.085938 C 232.894531 769.328125 235.992188 768.472656 239.066406 767.519531 C 242.140625 766.570312 245.179688 765.523438 248.191406 764.382812 C 251.199219 763.242188 254.167969 762.007812 257.097656 760.683594 C 257.40625 760.542969 257.699219 760.375 257.972656 760.175781 C 258.25 759.980469 258.5 759.757812 258.734375 759.511719 C 258.964844 759.261719 259.167969 758.996094 259.347656 758.707031 C 259.527344 758.421875 259.675781 758.117188 259.792969 757.800781 C 259.914062 757.484375 260 757.160156 260.054688 756.824219 C 260.109375 756.492188 260.132812 756.15625 260.121094 755.816406 C 260.109375 755.480469 260.066406 755.144531 259.988281 754.816406 C 259.910156 754.488281 259.800781 754.167969 259.660156 753.859375 C 259.523438 753.550781 259.355469 753.261719 259.15625 752.984375 C 258.960938 752.710938 258.738281 752.457031 258.488281 752.226562 C 258.242188 751.996094 257.976562 751.789062 257.6875 751.613281 C 257.402344 751.433594 257.097656 751.285156 256.78125 751.164062 C 256.464844 751.046875 256.140625 750.960938 255.804688 750.902344 C 255.472656 750.847656 255.136719 750.828125 254.796875 750.839844 C 254.460938 750.851562 254.125 750.894531 253.796875 750.972656 C 253.464844 751.046875 253.148438 751.15625 252.839844 751.296875 Z M 141.519531 587.570312 C 141.402344 587.097656 141.222656 586.652344 140.976562 586.230469 C 140.734375 585.808594 140.433594 585.429688 140.082031 585.09375 C 139.730469 584.753906 139.339844 584.472656 138.90625 584.246094 C 138.472656 584.023438 138.019531 583.859375 137.542969 583.765625 C 137.0625 583.667969 136.582031 583.640625 136.097656 583.679688 C 135.609375 583.71875 135.140625 583.828125 134.683594 584 C 134.230469 584.175781 133.808594 584.410156 133.417969 584.703125 C 133.03125 584.996094 132.6875 585.339844 132.398438 585.730469 C 129.699219 589.742188 127.3125 593.9375 125.242188 598.308594 C 123.171875 602.679688 121.4375 607.183594 120.039062 611.8125 C 118.640625 616.445312 117.59375 621.15625 116.898438 625.941406 C 116.207031 630.730469 115.871094 635.542969 115.898438 640.382812 C 115.898438 667.980469 137.125 689.53125 138.03125 690.429688 C 138.269531 690.667969 138.53125 690.878906 138.8125 691.0625 C 139.09375 691.246094 139.390625 691.402344 139.703125 691.53125 C 140.015625 691.65625 140.335938 691.753906 140.664062 691.816406 C 140.996094 691.878906 141.328125 691.914062 141.667969 691.910156 C 142.003906 691.910156 142.335938 691.875 142.664062 691.808594 C 142.996094 691.742188 143.316406 691.644531 143.625 691.515625 C 143.9375 691.386719 144.234375 691.226562 144.511719 691.039062 C 144.792969 690.855469 145.050781 690.640625 145.289062 690.402344 C 145.527344 690.164062 145.742188 689.90625 145.929688 689.628906 C 146.117188 689.347656 146.273438 689.054688 146.402344 688.742188 C 146.535156 688.433594 146.632812 688.113281 146.699219 687.78125 C 146.765625 687.453125 146.800781 687.117188 146.800781 686.78125 C 146.804688 686.445312 146.773438 686.113281 146.710938 685.78125 C 146.644531 685.449219 146.550781 685.128906 146.425781 684.816406 C 146.296875 684.507812 146.140625 684.210938 145.957031 683.929688 C 145.773438 683.648438 145.5625 683.386719 145.328125 683.144531 C 145.136719 682.953125 126.207031 663.644531 126.207031 640.382812 C 126.238281 633.472656 127.046875 626.65625 128.632812 619.933594 C 130.222656 613.210938 132.550781 606.753906 135.613281 600.5625 C 136.589844 602.710938 137.761719 604.742188 139.128906 606.664062 C 140.496094 608.585938 142.035156 610.355469 143.746094 611.976562 C 145.457031 613.601562 147.304688 615.042969 149.296875 616.308594 C 151.285156 617.574219 153.378906 618.636719 155.574219 619.496094 C 156.433594 619.777344 157.308594 619.832031 158.195312 619.65625 C 159.082031 619.484375 159.871094 619.101562 160.558594 618.511719 C 160.921875 618.199219 194.066406 589.0625 176.988281 549.464844 C 193.398438 553.9375 224.164062 568.464844 224.175781 614.582031 C 224.175781 614.988281 224.222656 615.390625 224.316406 615.789062 C 224.414062 616.1875 224.554688 616.566406 224.742188 616.929688 C 224.929688 617.292969 225.15625 617.632812 225.421875 617.941406 C 225.6875 618.25 225.988281 618.527344 226.316406 618.765625 C 226.648438 619.003906 227.003906 619.199219 227.382812 619.355469 C 227.761719 619.507812 228.152344 619.617188 228.558594 619.675781 C 228.960938 619.738281 229.367188 619.753906 229.773438 619.71875 C 230.179688 619.683594 230.578125 619.597656 230.964844 619.46875 C 233.152344 618.605469 235.238281 617.542969 237.222656 616.277344 C 239.203125 615.015625 241.046875 613.570312 242.753906 611.953125 C 244.457031 610.332031 245.992188 608.5625 247.355469 606.648438 C 248.71875 604.730469 249.886719 602.703125 250.859375 600.5625 C 253.925781 606.753906 256.253906 613.210938 257.839844 619.933594 C 259.429688 626.65625 260.238281 633.472656 260.265625 640.382812 C 260.265625 663.644531 241.339844 682.953125 241.148438 683.144531 C 240.910156 683.386719 240.703125 683.648438 240.515625 683.929688 C 240.332031 684.210938 240.175781 684.507812 240.050781 684.816406 C 239.925781 685.128906 239.828125 685.449219 239.765625 685.78125 C 239.703125 686.113281 239.671875 686.445312 239.671875 686.78125 C 239.675781 687.117188 239.710938 687.453125 239.777344 687.78125 C 239.84375 688.113281 239.941406 688.433594 240.070312 688.742188 C 240.199219 689.054688 240.359375 689.347656 240.546875 689.628906 C 240.734375 689.90625 240.945312 690.164062 241.183594 690.402344 C 241.421875 690.640625 241.683594 690.855469 241.960938 691.039062 C 242.242188 691.226562 242.539062 691.386719 242.847656 691.515625 C 243.160156 691.644531 243.480469 691.742188 243.808594 691.808594 C 244.140625 691.875 244.472656 691.910156 244.808594 691.910156 C 245.144531 691.910156 245.480469 691.878906 245.808594 691.816406 C 246.140625 691.753906 246.460938 691.65625 246.773438 691.53125 C 247.085938 691.402344 247.378906 691.246094 247.660156 691.0625 C 247.941406 690.878906 248.203125 690.667969 248.445312 690.429688 C 249.351562 689.53125 270.578125 667.980469 270.578125 640.382812 C 270.605469 635.542969 270.269531 630.730469 269.574219 625.941406 C 268.882812 621.15625 267.835938 616.445312 266.4375 611.8125 C 265.039062 607.183594 263.304688 602.679688 261.234375 598.308594 C 259.160156 593.9375 256.777344 589.742188 254.078125 585.730469 C 253.785156 585.339844 253.445312 584.996094 253.058594 584.703125 C 252.667969 584.410156 252.246094 584.175781 251.789062 584 C 251.335938 583.828125 250.863281 583.71875 250.378906 583.679688 C 249.894531 583.640625 249.410156 583.667969 248.933594 583.765625 C 248.457031 583.859375 248 584.023438 247.570312 584.246094 C 247.136719 584.472656 246.746094 584.753906 246.390625 585.09375 C 246.039062 585.429688 245.742188 585.808594 245.496094 586.230469 C 245.253906 586.652344 245.070312 587.097656 244.953125 587.570312 C 243.972656 591.042969 242.566406 594.335938 240.734375 597.445312 C 238.902344 600.550781 236.703125 603.375 234.136719 605.914062 C 229.003906 543.128906 168.523438 537.332031 167.886719 537.28125 C 167.410156 537.238281 166.933594 537.265625 166.464844 537.359375 C 165.996094 537.449219 165.546875 537.605469 165.121094 537.820312 C 164.695312 538.039062 164.308594 538.308594 163.957031 538.632812 C 163.605469 538.957031 163.304688 539.324219 163.054688 539.734375 C 162.804688 540.140625 162.617188 540.578125 162.488281 541.035156 C 162.363281 541.496094 162.300781 541.96875 162.300781 542.445312 C 162.304688 542.925781 162.371094 543.394531 162.507812 543.851562 C 162.640625 544.3125 162.832031 544.746094 163.085938 545.148438 C 163.886719 546.351562 164.628906 547.585938 165.320312 548.851562 C 166.011719 550.121094 166.648438 551.414062 167.226562 552.738281 C 167.804688 554.058594 168.324219 555.402344 168.785156 556.769531 C 169.246094 558.140625 169.648438 559.523438 169.988281 560.925781 C 170.328125 562.328125 170.609375 563.742188 170.824219 565.167969 C 171.042969 566.597656 171.195312 568.03125 171.289062 569.46875 C 171.382812 570.910156 171.410156 572.351562 171.378906 573.792969 C 171.34375 575.238281 171.25 576.675781 171.089844 578.109375 C 170.933594 579.546875 170.710938 580.96875 170.429688 582.386719 C 170.144531 583.800781 169.800781 585.199219 169.398438 586.585938 C 168.992188 587.972656 168.527344 589.335938 168.003906 590.679688 C 167.480469 592.027344 166.902344 593.34375 166.261719 594.640625 C 165.625 595.933594 164.929688 597.199219 164.179688 598.429688 C 163.433594 599.664062 162.632812 600.863281 161.777344 602.027344 C 160.925781 603.191406 160.023438 604.316406 159.070312 605.402344 C 158.121094 606.488281 157.125 607.53125 156.082031 608.527344 C 145.542969 602.914062 141.5625 587.726562 141.519531 587.570312 Z M 216.882812 691.476562 C 217.191406 691.617188 217.511719 691.726562 217.839844 691.804688 C 218.167969 691.882812 218.503906 691.925781 218.839844 691.9375 C 219.179688 691.949219 219.515625 691.929688 219.851562 691.875 C 220.183594 691.820312 220.507812 691.734375 220.828125 691.613281 C 221.144531 691.496094 221.445312 691.347656 221.734375 691.167969 C 222.023438 690.988281 222.289062 690.785156 222.535156 690.554688 C 222.785156 690.324219 223.007812 690.070312 223.203125 689.796875 C 223.402344 689.519531 223.570312 689.230469 223.710938 688.921875 C 232.226562 670.183594 233.1875 653.539062 226.566406 639.433594 C 216.085938 617.117188 190.523438 609.921875 189.4375 609.625 C 188.957031 609.496094 188.46875 609.4375 187.972656 609.449219 C 187.476562 609.460938 186.992188 609.542969 186.519531 609.695312 C 186.046875 609.84375 185.605469 610.058594 185.195312 610.339844 C 184.785156 610.617188 184.421875 610.945312 184.109375 611.332031 C 183.792969 611.714844 183.539062 612.132812 183.34375 612.589844 C 183.148438 613.046875 183.023438 613.519531 182.964844 614.011719 C 182.90625 614.503906 182.921875 614.996094 183.003906 615.484375 C 183.089844 615.972656 183.242188 616.441406 183.460938 616.886719 C 184.550781 619.4375 185.335938 622.082031 185.804688 624.816406 C 186.277344 627.554688 186.425781 630.304688 186.25 633.078125 C 186.074219 635.847656 185.578125 638.558594 184.765625 641.214844 C 183.953125 643.867188 182.84375 646.390625 181.433594 648.785156 C 177.484375 645.941406 174.359375 642.371094 172.070312 638.074219 C 171.667969 637.277344 171.101562 636.625 170.363281 636.121094 C 169.625 635.617188 168.808594 635.328125 167.921875 635.246094 C 167.03125 635.160156 166.175781 635.296875 165.355469 635.664062 C 164.539062 636.027344 163.863281 636.570312 163.332031 637.289062 C 157.15625 645.527344 150.296875 667.148438 168.585938 690.007812 C 168.796875 690.273438 169.03125 690.515625 169.289062 690.734375 C 169.550781 690.953125 169.828125 691.144531 170.125 691.308594 C 170.421875 691.472656 170.730469 691.605469 171.054688 691.707031 C 171.378906 691.8125 171.707031 691.882812 172.042969 691.917969 C 172.382812 691.957031 172.71875 691.960938 173.058594 691.933594 C 173.394531 691.90625 173.726562 691.84375 174.054688 691.75 C 174.378906 691.65625 174.691406 691.53125 174.992188 691.375 C 175.292969 691.21875 175.578125 691.035156 175.84375 690.820312 C 176.105469 690.609375 176.347656 690.375 176.566406 690.113281 C 176.785156 689.855469 176.976562 689.578125 177.140625 689.28125 C 177.304688 688.980469 177.4375 688.671875 177.539062 688.347656 C 177.640625 688.027344 177.710938 687.695312 177.746094 687.359375 C 177.785156 687.019531 177.789062 686.683594 177.757812 686.34375 C 177.730469 686.007812 177.667969 685.675781 177.570312 685.351562 C 177.476562 685.023438 177.351562 684.710938 177.195312 684.410156 C 177.039062 684.109375 176.855469 683.828125 176.640625 683.5625 C 165.574219 669.738281 166.152344 657.828125 168.273438 650.65625 C 171.808594 654.652344 175.925781 657.921875 180.621094 660.460938 C 181.160156 660.734375 181.730469 660.902344 182.328125 660.972656 C 182.929688 661.042969 183.523438 661.007812 184.109375 660.871094 C 184.699219 660.730469 185.246094 660.496094 185.75 660.164062 C 186.253906 659.832031 186.6875 659.425781 187.050781 658.941406 C 188.984375 656.449219 190.644531 653.785156 192.027344 650.945312 C 193.410156 648.109375 194.488281 645.160156 195.257812 642.101562 C 196.03125 639.039062 196.480469 635.933594 196.605469 632.78125 C 196.734375 629.628906 196.535156 626.496094 196.011719 623.382812 C 198.277344 624.453125 200.4375 625.699219 202.5 627.125 C 204.558594 628.546875 206.492188 630.125 208.296875 631.863281 C 210.101562 633.601562 211.753906 635.472656 213.25 637.480469 C 214.75 639.484375 216.078125 641.597656 217.234375 643.820312 C 222.511719 655.058594 221.53125 668.792969 214.324219 684.652344 C 214.183594 684.960938 214.074219 685.277344 214 685.609375 C 213.921875 685.9375 213.875 686.269531 213.863281 686.609375 C 213.851562 686.949219 213.875 687.285156 213.929688 687.617188 C 213.984375 687.953125 214.070312 688.277344 214.191406 688.59375 C 214.308594 688.910156 214.457031 689.214844 214.636719 689.5 C 214.8125 689.789062 215.019531 690.058594 215.25 690.304688 C 215.480469 690.550781 215.734375 690.773438 216.007812 690.972656 C 216.28125 691.167969 216.574219 691.339844 216.882812 691.476562 Z M 216.882812 691.476562 " fill-opacity="1" fill-rule="nonzero"/></g></svg>