<svg xmlns="http://www.w3.org/2000/svg" xmlns:xlink="http://www.w3.org/1999/xlink" width="1000" zoomAndPan="magnify" viewBox="0 0 750 225" height="300" preserveAspectRatio="xMidYMid meet" version="1.0"><defs><g/><clipPath id="7edd383c31"><path d="M 783.132812 203.007812 L -210.648438 357.699219 L -283.324219 -109.179688 L 710.460938 -263.871094 Z M 783.132812 203.007812 " clip-rule="nonzero"/></clipPath><clipPath id="3e1f681c10"><path d="M 783.132812 203.007812 L -210.648438 357.699219 L -283.324219 -109.179688 L 710.460938 -263.871094 Z M 783.132812 203.007812 " clip-rule="nonzero"/></clipPath><clipPath id="4af4731e18"><path d="M 89 160 L 328 160 L 328 223 L 89 223 Z M 89 160 " clip-rule="nonzero"/></clipPath><clipPath id="2be77b4a0c"><path d="M 7.992188 123.152344 L 341.445312 109.125 L 345.828125 213.28125 L 12.375 227.308594 Z M 7.992188 123.152344 " clip-rule="nonzero"/></clipPath><clipPath id="9d89f3e45b"><path d="M 7.992188 123.152344 L 341.445312 109.125 L 345.828125 213.28125 L 12.375 227.308594 Z M 7.992188 123.152344 " clip-rule="nonzero"/></clipPath><clipPath id="201a644624"><path d="M 9 137 L 344 137 L 344 206 L 9 206 Z M 9 137 " clip-rule="nonzero"/></clipPath><clipPath id="0a89b653ab"><path d="M 7.992188 123.152344 L 341.445312 109.125 L 345.828125 213.28125 L 12.375 227.308594 Z M 7.992188 123.152344 " clip-rule="nonzero"/></clipPath><clipPath id="6798e562bd"><path d="M 7.992188 123.152344 L 341.445312 109.125 L 345.828125 213.28125 L 12.375 227.308594 Z M 7.992188 123.152344 " clip-rule="nonzero"/></clipPath><clipPath id="bfe1146a3c"><path d="M 10 123 L 158 123 L 158 182 L 10 182 Z M 10 123 " clip-rule="nonzero"/></clipPath><clipPath id="4ae38e02fb"><path d="M 7.992188 123.152344 L 341.445312 109.125 L 345.828125 213.28125 L 12.375 227.308594 Z M 7.992188 123.152344 " clip-rule="nonzero"/></clipPath><clipPath id="84d42eb0df"><path d="M 7.992188 123.152344 L 341.445312 109.125 L 345.828125 213.28125 L 12.375 227.308594 Z M 7.992188 123.152344 " clip-rule="nonzero"/></clipPath><clipPath id="8934a933aa"><path d="M 115 205 L 123 205 L 123 206 L 115 206 Z M 115 205 " clip-rule="nonzero"/></clipPath><clipPath id="422cc21d21"><path d="M 7.992188 123.152344 L 341.445312 109.125 L 345.828125 213.28125 L 12.375 227.308594 Z M 7.992188 123.152344 " clip-rule="nonzero"/></clipPath><clipPath id="4a71aa7676"><path d="M 7.992188 123.152344 L 341.445312 109.125 L 345.828125 213.28125 L 12.375 227.308594 Z M 7.992188 123.152344 " clip-rule="nonzero"/></clipPath><clipPath id="10e135607b"><path d="M 89 203 L 121 203 L 121 207 L 89 207 Z M 89 203 " clip-rule="nonzero"/></clipPath><clipPath id="8506cec662"><path d="M 7.992188 123.152344 L 341.445312 109.125 L 345.828125 213.28125 L 12.375 227.308594 Z M 7.992188 123.152344 " clip-rule="nonzero"/></clipPath><clipPath id="3c4fe45335"><path d="M 7.992188 123.152344 L 341.445312 109.125 L 345.828125 213.28125 L 12.375 227.308594 Z M 7.992188 123.152344 " clip-rule="nonzero"/></clipPath><clipPath id="5624a640e5"><path d="M 284 55 L 466 55 L 466 155.453125 L 284 155.453125 Z M 284 55 " clip-rule="nonzero"/></clipPath></defs><g clip-path="url(#7edd383c31)"><g clip-path="url(#3e1f681c10)"><path fill="#00425c" d="M 779.664062 191.503906 L 708.753906 -264.054688 L -281.527344 -109.90625 L -214.96875 317.6875 C -203.582031 307.035156 -193.753906 296.015625 -186 284.871094 C -70.601562 118.445312 180.796875 116.886719 352.683594 168.941406 C 481.996094 208.144531 640.378906 225.171875 779.664062 191.503906 Z M 779.664062 191.503906 " fill-opacity="1" fill-rule="evenodd"/></g></g><g clip-path="url(#4af4731e18)"><g clip-path="url(#2be77b4a0c)"><g clip-path="url(#9d89f3e45b)"><path fill="#02ab8a" d="M 327.996094 171.363281 C 321.949219 169.667969 314.859375 168.367188 307.046875 168.058594 C 304.355469 167.914062 301.574219 167.9375 298.734375 168.054688 C 286.769531 168.558594 273.742188 171.214844 259.972656 175.953125 C 255.089844 177.660156 250.996094 179.207031 247.160156 180.742188 C 243.234375 182.347656 239.121094 184.117188 234.101562 186.34375 C 225.003906 190.464844 215.632812 194.917969 207.703125 198.738281 L 206.730469 199.160156 C 198.394531 203.0625 189.769531 207.070312 181.40625 210.425781 C 177.230469 212.167969 172.917969 213.753906 168.628906 215.179688 C 163.964844 216.785156 159.921875 217.976562 156.160156 218.902344 C 148.441406 220.890625 140.820312 222.042969 133.511719 222.347656 C 125.757812 222.675781 118.378906 222.058594 111.535156 220.460938 C 103.046875 218.613281 95.527344 215.378906 89.375 211.996094 C 95.394531 213.660156 102.449219 214.992188 110.195312 215.273438 C 112.886719 215.417969 115.667969 215.429688 118.507812 215.308594 C 130.476562 214.804688 143.503906 212.113281 157.273438 207.382812 C 161.839844 205.78125 166.058594 204.195312 170.082031 202.589844 C 174.574219 200.738281 179 198.792969 183.144531 196.988281 C 192.242188 192.867188 201.546875 188.414062 209.539062 184.59375 L 210.980469 183.894531 C 219.164062 180.097656 227.628906 176.164062 235.804688 172.878906 C 240.234375 171.058594 244.542969 169.441406 248.613281 168.085938 C 253.464844 166.445312 257.445312 165.285156 261.082031 164.363281 C 268.800781 162.378906 276.421875 161.226562 283.730469 160.917969 C 291.484375 160.59375 298.863281 161.242188 305.707031 162.804688 C 314.257812 164.683594 321.808594 167.949219 327.996094 171.363281 " fill-opacity="1" fill-rule="nonzero"/></g></g></g><g clip-path="url(#201a644624)"><g clip-path="url(#0a89b653ab)"><g clip-path="url(#6798e562bd)"><path fill="#00425c" d="M 343.648438 165.796875 C 343.355469 165.648438 342.238281 164.929688 340.277344 163.925781 C 338.050781 162.675781 334.753906 161.027344 330.621094 159.25 C 322.285156 155.699219 310.464844 152.042969 296.410156 151.542969 C 282.382812 150.921875 266.160156 153.585938 248.886719 159.363281 C 244.566406 160.824219 240.1875 162.382812 235.753906 164.101562 C 231.320312 165.855469 226.828125 167.738281 222.308594 169.6875 C 213.296875 173.617188 204.140625 177.835938 194.953125 182.089844 C 185.792969 186.21875 176.632812 190.375 167.574219 193.886719 C 163.078125 195.675781 158.574219 197.304688 154.128906 198.738281 C 149.679688 200.203125 145.292969 201.507812 140.957031 202.519531 C 136.75 203.558594 132.59375 204.40625 128.527344 204.992188 C 128.527344 204.992188 128.464844 204.996094 128.371094 205.03125 C 128.148438 205.074219 127.703125 205.125 127.097656 205.210938 C 126.71875 205.261719 126.367188 205.308594 125.988281 205.355469 C 125.382812 205.445312 124.648438 205.507812 123.855469 205.570312 C 123.28125 205.628906 122.675781 205.6875 122.007812 205.714844 C 121.433594 205.769531 120.792969 205.796875 120.15625 205.824219 C 118.785156 205.914062 117.253906 205.976562 115.625 205.984375 C 115.242188 206 114.855469 205.984375 114.472656 206 C 113.835938 205.992188 113.195312 205.988281 112.523438 205.984375 C 111.949219 205.976562 111.339844 205.972656 110.765625 205.964844 C 109.769531 205.910156 108.78125 205.886719 107.722656 205.804688 C 105.191406 205.6875 102.492188 205.449219 99.632812 205.058594 C 97.671875 204.820312 95.644531 204.523438 93.550781 204.132812 C 92.101562 203.871094 90.621094 203.582031 89.101562 203.230469 C 89.039062 203.234375 89.007812 203.234375 88.972656 203.207031 C 64.0625 197.699219 32.371094 182.214844 9.265625 141.34375 C 11.40625 144.355469 44.550781 189.792969 96.367188 192.761719 C 109.539062 192.847656 124.453125 190.171875 140.214844 184.90625 C 140.8125 184.6875 141.414062 184.503906 142.011719 184.285156 C 145.730469 183.011719 149.539062 181.636719 153.34375 180.132812 C 157.777344 178.378906 162.269531 176.496094 166.761719 174.582031 C 175.800781 170.621094 184.957031 166.398438 194.113281 162.148438 C 203.304688 158.019531 212.464844 153.828125 221.492188 150.347656 C 226.019531 148.527344 230.523438 146.902344 234.96875 145.46875 C 239.414062 144 243.804688 142.699219 248.140625 141.652344 C 265.476562 137.34375 281.792969 136.878906 295.925781 139.996094 C 310.085938 142.976562 322.023438 149.414062 330.453125 155.226562 C 334.632812 158.121094 337.976562 160.890625 340.230469 162.777344 C 342.21875 164.453125 343.351562 165.523438 343.648438 165.796875 " fill-opacity="1" fill-rule="nonzero"/></g></g></g><g clip-path="url(#bfe1146a3c)"><g clip-path="url(#4ae38e02fb)"><g clip-path="url(#84d42eb0df)"><path fill="#02ab8a" d="M 10.046875 123.070312 C 10.046875 123.070312 10.460938 123.589844 11.234375 124.554688 C 12.003906 125.527344 13.148438 126.953125 14.640625 128.699219 C 17.585938 132.210938 21.96875 137.105469 27.675781 142.421875 C 30.496094 145.117188 33.769531 147.785156 37.210938 150.597656 C 40.734375 153.3125 44.558594 156.011719 48.613281 158.632812 C 52.691406 161.222656 57.082031 163.585938 61.59375 165.847656 C 66.191406 168.085938 70.792969 169.933594 75.808594 171.5625 C 80.507812 173.113281 85.554688 174.234375 90.484375 174.996094 C 95.449219 175.667969 100.390625 176.050781 105.199219 176.078125 C 110.003906 176 114.675781 175.800781 119.097656 175.300781 C 123.515625 174.789062 127.699219 174.167969 131.546875 173.460938 C 139.238281 172.011719 145.636719 170.476562 150.109375 169.347656 C 154.597656 168.226562 157.160156 167.585938 157.160156 167.585938 C 157.160156 167.585938 156.558594 167.859375 155.429688 168.371094 C 154.292969 168.867188 152.664062 169.675781 150.515625 170.554688 C 146.25 172.363281 140.074219 174.808594 132.386719 177.03125 C 128.550781 178.152344 124.328125 179.214844 119.785156 180.019531 C 115.25 180.859375 110.390625 181.460938 105.324219 181.703125 C 100.257812 181.84375 94.972656 181.824219 89.652344 181.105469 C 84.328125 180.355469 79.035156 179.285156 73.699219 177.589844 C 68.714844 175.898438 63.542969 173.746094 58.851562 171.363281 C 54.097656 168.957031 49.667969 166.148438 45.5 163.300781 C 37.222656 157.488281 30.320312 151.023438 25.054688 144.964844 C 19.730469 138.957031 16.011719 133.40625 13.605469 129.425781 C 12.351562 127.460938 11.546875 125.832031 10.949219 124.746094 C 10.359375 123.652344 10.046875 123.070312 10.046875 123.070312 " fill-opacity="1" fill-rule="nonzero"/></g></g></g><g clip-path="url(#8934a933aa)"><g clip-path="url(#422cc21d21)"><g clip-path="url(#4a71aa7676)"><path fill="#00425c" d="M 122.007812 205.714844 C 121.050781 205.785156 119.964844 205.863281 118.816406 205.914062 L 118.5 205.925781 C 117.605469 205.964844 116.644531 205.972656 115.625 205.984375 C 117.253906 205.976562 118.785156 205.914062 120.15625 205.824219 C 120.792969 205.796875 121.433594 205.769531 122.007812 205.714844 " fill-opacity="1" fill-rule="nonzero"/></g></g></g><g clip-path="url(#10e135607b)"><g clip-path="url(#8506cec662)"><g clip-path="url(#3c4fe45335)"><path fill="#00425c" d="M 120.15625 205.824219 C 119.710938 205.84375 119.265625 205.894531 118.816406 205.914062 L 118.5 205.925781 C 109.539062 206.496094 100.980469 205.929688 93.140625 204.210938 C 91.785156 203.917969 90.429688 203.589844 89.101562 203.230469 C 90.621094 203.582031 92.101562 203.871094 93.550781 204.132812 C 95.644531 204.523438 97.671875 204.820312 99.632812 205.058594 C 102.492188 205.449219 105.191406 205.6875 107.722656 205.804688 C 108.746094 205.890625 109.769531 205.910156 110.765625 205.964844 C 111.339844 205.972656 111.949219 205.976562 112.523438 205.984375 C 113.195312 205.988281 113.835938 205.992188 114.472656 206 C 114.855469 205.984375 115.242188 206 115.625 205.984375 C 117.253906 205.976562 118.785156 205.914062 120.15625 205.824219 " fill-opacity="1" fill-rule="nonzero"/></g></g></g><g clip-path="url(#5624a640e5)"><path fill="#02ab8a" d="M 284.308594 55.179688 L 353.738281 119.074219 L 344.742188 89.109375 L 397.953125 132.402344 L 391.320312 109.242188 L 465.6875 155.453125 L 374.804688 80.9375 L 382.65625 110.089844 L 328.027344 64.769531 L 336.632812 92.769531 Z M 284.308594 55.179688 " fill-opacity="1" fill-rule="nonzero"/></g><g fill="#ffffff" fill-opacity="1"><g transform="translate(302.31775, 105.724407)"><g><path d="M 11.15625 -20.453125 L 6.453125 0 L -0.125 0 L 4.578125 -20.453125 Z M 14.59375 -20.453125 L 21.109375 -20.453125 L 19.984375 -15.546875 L 13.46875 -15.546875 Z M 17.78125 -12.046875 L 16.71875 -7.34375 L 11.59375 -7.34375 L 12.671875 -12.046875 Z M 17.78125 -12.046875 "/></g></g></g><g fill="#ffffff" fill-opacity="1"><g transform="translate(322.147992, 105.724407)"><g><path d="M 11.421875 -20.453125 L 6.71875 0 L 0.15625 0 L 4.84375 -20.453125 Z M 11.421875 -20.453125 "/></g></g></g><g fill="#ffffff" fill-opacity="1"><g transform="translate(333.71315, 105.724407)"><g><path d="M 23.015625 -20.453125 L 21.828125 -15.21875 L 18.578125 -15.21875 L 19.765625 -20.453125 Z M 15.140625 -15.21875 L 11.625 0 L 5.0625 0 L 8.5625 -15.21875 L 1.84375 -15.21875 L 3.03125 -20.453125 L 16.328125 -20.453125 Z M 15.140625 -15.21875 "/></g></g></g><g fill="#ffffff" fill-opacity="1"><g transform="translate(355.178569, 105.724407)"><g><path d="M 11.15625 -20.453125 L 6.453125 0 L -0.125 0 L 4.578125 -20.453125 Z M 13.59375 -15.96875 L 14.59375 -20.453125 L 18.203125 -20.453125 C 19.785156 -20.453125 21.007812 -19.976562 21.875 -19.03125 C 22.75 -18.082031 23.019531 -16.882812 22.6875 -15.4375 C 22.113281 -12.914062 20.609375 -11.328125 18.171875 -10.671875 L 18.171875 -10.5625 C 20.628906 -9.957031 21.53125 -8.25 20.875 -5.4375 C 20.5 -3.832031 19.617188 -2.523438 18.234375 -1.515625 C 16.859375 -0.503906 15.335938 0 13.671875 0 L 9.90625 0 L 11 -4.75 L 12.546875 -4.75 C 12.828125 -4.75 13.09375 -4.816406 13.34375 -4.953125 C 13.601562 -5.097656 13.828125 -5.296875 14.015625 -5.546875 C 14.203125 -5.796875 14.335938 -6.066406 14.421875 -6.359375 L 14.484375 -6.65625 C 14.597656 -7.113281 14.539062 -7.492188 14.3125 -7.796875 C 14.09375 -8.109375 13.773438 -8.265625 13.359375 -8.265625 L 11.8125 -8.265625 L 12.78125 -12.484375 L 13.859375 -12.484375 C 14.273438 -12.484375 14.664062 -12.632812 15.03125 -12.9375 C 15.394531 -13.25 15.628906 -13.632812 15.734375 -14.09375 L 15.796875 -14.390625 C 15.890625 -14.828125 15.828125 -15.195312 15.609375 -15.5 C 15.390625 -15.8125 15.070312 -15.96875 14.65625 -15.96875 Z M 13.59375 -15.96875 "/></g></g></g><g fill="#ffffff" fill-opacity="1"><g transform="translate(378.308898, 105.724407)"><g><path d="M 6.453125 0 L -0.125 0 L 4.578125 -20.453125 L 11.15625 -20.453125 Z M 9.90625 0 L 11.09375 -5.234375 L 18.140625 -5.234375 L 16.953125 0 Z M 9.90625 0 "/></g></g></g><g fill="#ffffff" fill-opacity="1"><g transform="translate(398.139139, 105.724407)"><g><path d="M 5.734375 -0.203125 C 3.710938 -0.835938 2.320312 -2 1.5625 -3.6875 C 0.800781 -5.375 0.726562 -7.554688 1.34375 -10.234375 C 1.957031 -12.910156 3.035156 -15.085938 4.578125 -16.765625 C 6.117188 -18.453125 8.050781 -19.613281 10.375 -20.25 Z M 12.8125 -15.84375 L 13.953125 -20.8125 L 14.8125 -20.8125 C 18.332031 -20.8125 20.847656 -19.910156 22.359375 -18.109375 C 23.867188 -16.304688 24.222656 -13.679688 23.421875 -10.234375 C 22.628906 -6.785156 21.0625 -4.15625 18.71875 -2.34375 C 16.382812 -0.539062 13.457031 0.359375 9.9375 0.359375 C 9.539062 0.359375 9.25 0.347656 9.0625 0.328125 L 10.203125 -4.609375 C 10.554688 -4.566406 10.84375 -4.546875 11.0625 -4.546875 C 12.46875 -4.546875 13.640625 -4.972656 14.578125 -5.828125 C 15.523438 -6.679688 16.164062 -7.832031 16.5 -9.28125 L 16.921875 -11.1875 C 17.253906 -12.625 17.144531 -13.769531 16.59375 -14.625 C 16.050781 -15.476562 15.078125 -15.90625 13.671875 -15.90625 C 13.453125 -15.90625 13.164062 -15.882812 12.8125 -15.84375 Z M 12.8125 -15.84375 "/></g></g></g><g fill="#ffffff" fill-opacity="1"><g transform="translate(422.904645, 105.724407)"><g><path d="M 8.296875 -11.1875 L 8.0625 -10.109375 L 7.875 -9.28125 C 7.65625 -8.289062 7.628906 -7.441406 7.796875 -6.734375 C 7.972656 -6.023438 8.375 -5.484375 9 -5.109375 C 9.625 -4.734375 10.453125 -4.546875 11.484375 -4.546875 C 11.972656 -4.546875 12.457031 -4.609375 12.9375 -4.734375 L 13.671875 -0.328125 C 12.265625 0.128906 10.75 0.359375 9.125 0.359375 C 2.332031 0.359375 -0.25 -3.171875 1.375 -10.234375 C 1.988281 -12.890625 3.0625 -15.054688 4.59375 -16.734375 C 6.132812 -18.421875 8.070312 -19.59375 10.40625 -20.25 Z M 14.953125 -20.8125 C 16.921875 -20.8125 18.609375 -20.53125 20.015625 -19.96875 C 21.421875 -19.40625 22.457031 -18.523438 23.125 -17.328125 C 23.800781 -16.140625 23.953125 -14.710938 23.578125 -13.046875 L 17.3125 -13.046875 C 17.507812 -13.898438 17.289062 -14.585938 16.65625 -15.109375 C 16.019531 -15.640625 15.164062 -15.90625 14.09375 -15.90625 C 13.601562 -15.90625 13.175781 -15.863281 12.8125 -15.78125 L 13.984375 -20.78125 C 14.191406 -20.800781 14.515625 -20.8125 14.953125 -20.8125 Z M 17.1875 0 L 15.96875 -7.25 L 11.328125 -7.25 L 12.28125 -11.421875 L 23.1875 -11.421875 L 20.578125 0 Z M 17.1875 0 "/></g></g></g></svg>