<svg xmlns="http://www.w3.org/2000/svg" xmlns:xlink="http://www.w3.org/1999/xlink" width="1080" zoomAndPan="magnify" viewBox="0 0 810 809.999993" height="1080" preserveAspectRatio="xMidYMid meet" version="1.0"><defs><clipPath id="a9a00639be"><path d="M 128.339844 27.308594 L 681.839844 27.308594 L 681.839844 782.558594 L 128.339844 782.558594 Z M 128.339844 27.308594 " clip-rule="nonzero"/></clipPath><clipPath id="d77bfcb84f"><path d="M 0 398.046875 L 423.382812 398.046875 L 423.382812 810 L 0 810 Z M 0 398.046875 " clip-rule="nonzero"/></clipPath><clipPath id="d1cf115b95"><path d="M 145.0625 398.046875 C -8.652344 398.046875 -133.257812 530.976562 -133.257812 694.953125 C -133.257812 858.929688 -8.652344 991.859375 145.0625 991.859375 C 298.773438 991.859375 423.382812 858.929688 423.382812 694.953125 C 423.382812 530.976562 298.773438 398.046875 145.0625 398.046875 Z M 145.0625 398.046875 " clip-rule="nonzero"/></clipPath><clipPath id="32754af34d"><path d="M 179 479.5625 L 360.59375 479.5625 L 360.59375 715 L 179 715 Z M 179 479.5625 " clip-rule="nonzero"/></clipPath><clipPath id="c55eaa400f"><path d="M 0 623 L 293 623 L 293 751.0625 L 0 751.0625 Z M 0 623 " clip-rule="nonzero"/></clipPath></defs><g clip-path="url(#a9a00639be)"><path fill="#cecfd7" d="M 186.253906 42.207031 C 162.605469 42.207031 143.371094 61.449219 143.371094 85.09375 L 143.371094 724.90625 C 143.371094 748.546875 162.605469 767.789062 186.253906 767.789062 L 623.664062 767.789062 C 647.308594 767.789062 666.550781 748.546875 666.550781 724.90625 L 666.550781 85.09375 C 666.550781 61.449219 647.308594 42.207031 623.664062 42.207031 Z M 623.664062 782.695312 L 186.253906 782.695312 C 154.386719 782.695312 128.464844 756.769531 128.464844 724.90625 L 128.464844 85.09375 C 128.464844 53.226562 154.386719 27.300781 186.253906 27.300781 L 623.664062 27.300781 C 655.53125 27.300781 681.457031 53.226562 681.457031 85.09375 L 681.457031 724.90625 C 681.457031 756.769531 655.53125 782.695312 623.664062 782.695312 " fill-opacity="1" fill-rule="nonzero"/></g><path fill="#cecfd7" d="M 202.757812 267.210938 L 607.164062 267.210938 L 607.164062 101.125 L 202.757812 101.125 Z M 614.617188 282.121094 L 195.304688 282.121094 C 191.1875 282.121094 187.851562 278.78125 187.851562 274.664062 L 187.851562 93.671875 C 187.851562 89.550781 191.1875 86.214844 195.304688 86.214844 L 614.617188 86.214844 C 618.730469 86.214844 622.070312 89.550781 622.070312 93.671875 L 622.070312 274.664062 C 622.070312 278.78125 618.730469 282.121094 614.617188 282.121094 " fill-opacity="1" fill-rule="nonzero"/><path fill="#cecfd7" d="M 202.757812 439.308594 L 302.175781 439.308594 L 302.175781 354.523438 L 202.757812 354.523438 Z M 309.628906 454.21875 L 195.304688 454.21875 C 191.1875 454.21875 187.851562 450.882812 187.851562 446.765625 L 187.851562 347.066406 C 187.851562 342.953125 191.1875 339.613281 195.304688 339.613281 L 309.628906 339.613281 C 313.746094 339.613281 317.082031 342.953125 317.082031 347.066406 L 317.082031 446.765625 C 317.082031 450.882812 313.746094 454.21875 309.628906 454.21875 " fill-opacity="1" fill-rule="nonzero"/><path fill="#cecfd7" d="M 354.414062 439.308594 L 453.828125 439.308594 L 453.828125 354.523438 L 354.414062 354.523438 Z M 461.28125 454.21875 L 346.960938 454.21875 C 342.84375 454.21875 339.507812 450.882812 339.507812 446.765625 L 339.507812 347.066406 C 339.507812 342.953125 342.84375 339.613281 346.960938 339.613281 L 461.28125 339.613281 C 465.402344 339.613281 468.734375 342.953125 468.734375 347.066406 L 468.734375 446.765625 C 468.734375 450.882812 465.402344 454.21875 461.28125 454.21875 " fill-opacity="1" fill-rule="nonzero"/><path fill="#cecfd7" d="M 506.070312 439.308594 L 605.484375 439.308594 L 605.484375 354.523438 L 506.070312 354.523438 Z M 612.9375 454.21875 L 498.617188 454.21875 C 494.496094 454.21875 491.164062 450.882812 491.164062 446.765625 L 491.164062 347.066406 C 491.164062 342.953125 494.496094 339.613281 498.617188 339.613281 L 612.9375 339.613281 C 617.054688 339.613281 620.394531 342.953125 620.394531 347.066406 L 620.394531 446.765625 C 620.394531 450.882812 617.054688 454.21875 612.9375 454.21875 " fill-opacity="1" fill-rule="nonzero"/><path fill="#cecfd7" d="M 202.757812 576.886719 L 302.175781 576.886719 L 302.175781 492.089844 L 202.757812 492.089844 Z M 309.628906 591.792969 L 195.304688 591.792969 C 191.1875 591.792969 187.851562 588.453125 187.851562 584.339844 L 187.851562 484.636719 C 187.851562 480.523438 191.1875 477.183594 195.304688 477.183594 L 309.628906 477.183594 C 313.746094 477.183594 317.082031 480.523438 317.082031 484.636719 L 317.082031 584.339844 C 317.082031 588.453125 313.746094 591.792969 309.628906 591.792969 " fill-opacity="1" fill-rule="nonzero"/><path fill="#cecfd7" d="M 354.414062 576.886719 L 453.828125 576.886719 L 453.828125 492.089844 L 354.414062 492.089844 Z M 461.28125 591.792969 L 346.960938 591.792969 C 342.84375 591.792969 339.507812 588.453125 339.507812 584.339844 L 339.507812 484.636719 C 339.507812 480.523438 342.84375 477.183594 346.960938 477.183594 L 461.28125 477.183594 C 465.402344 477.183594 468.734375 480.523438 468.734375 484.636719 L 468.734375 584.339844 C 468.734375 588.453125 465.402344 591.792969 461.28125 591.792969 " fill-opacity="1" fill-rule="nonzero"/><path fill="#cecfd7" d="M 202.757812 714.457031 L 302.175781 714.457031 L 302.175781 629.660156 L 202.757812 629.660156 Z M 309.628906 729.363281 L 195.304688 729.363281 C 191.1875 729.363281 187.851562 726.023438 187.851562 721.910156 L 187.851562 622.203125 C 187.851562 618.089844 191.1875 614.75 195.304688 614.75 L 309.628906 614.75 C 313.746094 614.75 317.082031 618.089844 317.082031 622.203125 L 317.082031 721.910156 C 317.082031 726.023438 313.746094 729.363281 309.628906 729.363281 " fill-opacity="1" fill-rule="nonzero"/><path fill="#cecfd7" d="M 354.414062 714.457031 L 453.828125 714.457031 L 453.828125 629.660156 L 354.414062 629.660156 Z M 461.28125 729.363281 L 346.960938 729.363281 C 342.84375 729.363281 339.507812 726.023438 339.507812 721.910156 L 339.507812 622.203125 C 339.507812 618.089844 342.84375 614.75 346.960938 614.75 L 461.28125 614.75 C 465.402344 614.75 468.734375 618.089844 468.734375 622.203125 L 468.734375 721.910156 C 468.734375 726.023438 465.402344 729.363281 461.28125 729.363281 " fill-opacity="1" fill-rule="nonzero"/><path fill="#cecfd7" d="M 506.070312 714.457031 L 605.484375 714.457031 L 605.484375 492.089844 L 506.070312 492.089844 Z M 612.9375 729.363281 L 498.617188 729.363281 C 494.496094 729.363281 491.164062 726.023438 491.164062 721.910156 L 491.164062 484.636719 C 491.164062 480.523438 494.496094 477.183594 498.617188 477.183594 L 612.9375 477.183594 C 617.054688 477.183594 620.394531 480.523438 620.394531 484.636719 L 620.394531 721.910156 C 620.394531 726.023438 617.054688 729.363281 612.9375 729.363281 " fill-opacity="1" fill-rule="nonzero"/><path fill="#cecfd7" d="M 555.773438 638.589844 C 551.660156 638.589844 548.320312 635.25 548.320312 631.132812 L 548.320312 575.410156 C 548.320312 571.296875 551.660156 567.957031 555.773438 567.957031 C 559.898438 567.957031 563.226562 571.296875 563.226562 575.410156 L 563.226562 631.132812 C 563.226562 635.25 559.898438 638.589844 555.773438 638.589844 " fill-opacity="1" fill-rule="nonzero"/><path fill="#cecfd7" d="M 583.640625 610.726562 L 527.921875 610.726562 C 523.796875 610.726562 520.46875 607.386719 520.46875 603.273438 C 520.46875 599.160156 523.796875 595.820312 527.921875 595.820312 L 583.640625 595.820312 C 587.757812 595.820312 591.09375 599.160156 591.09375 603.273438 C 591.09375 607.386719 587.757812 610.726562 583.640625 610.726562 " fill-opacity="1" fill-rule="nonzero"/><g clip-path="url(#d77bfcb84f)"><g clip-path="url(#d1cf115b95)"><path fill="#00425c" d="M -133.257812 398.046875 L 423.382812 398.046875 L 423.382812 991.652344 L -133.257812 991.652344 Z M -133.257812 398.046875 " fill-opacity="1" fill-rule="nonzero"/></g></g><path fill="#79cbbb" d="M 220.191406 578.019531 C 219.625 578.019531 218.773438 578.019531 218.207031 577.734375 C 215.367188 576.601562 213.949219 573.195312 215.085938 570.359375 C 223.3125 549.078125 233.8125 530.917969 244.308594 519.285156 C 246.296875 517.015625 249.984375 516.734375 252.253906 519.003906 C 254.523438 520.988281 254.808594 524.675781 252.539062 526.945312 C 243.175781 537.445312 233.246094 554.46875 225.582031 574.332031 C 224.730469 576.882812 222.460938 578.019531 220.191406 578.019531 Z M 220.191406 578.019531 " fill-opacity="1" fill-rule="nonzero"/><g clip-path="url(#32754af34d)"><path fill="#79cbbb" d="M 302.757812 714.496094 C 301.339844 710.523438 299.070312 707.683594 295.664062 705.132812 C 326.875 694.066406 349.292969 664.558594 349.292969 629.660156 C 349.292969 585.394531 313.824219 490.914062 269.847656 490.914062 C 229.554688 490.914062 196.359375 570.640625 191.25 617.457031 C 187.5625 616.890625 183.875 616.324219 179.902344 615.753906 C 182.738281 592.773438 191.535156 561.277344 203.453125 537.160156 C 222.460938 499.992188 245.726562 479.5625 269.847656 479.5625 C 293.964844 479.5625 317.511719 499.992188 336.238281 537.160156 C 350.710938 566.101562 360.640625 604.972656 360.640625 629.660156 C 360.640625 668.246094 336.523438 701.160156 302.757812 714.496094 Z M 302.757812 714.496094 " fill-opacity="1" fill-rule="nonzero"/></g><g clip-path="url(#c55eaa400f)"><path fill="#79cbbb" d="M -1.402344 670.800781 C 2.851562 660.585938 14.769531 660.585938 25.550781 660.585938 L 27.820312 660.585938 C 30.375 660.585938 35.765625 660.585938 39.738281 660.019531 C 38.035156 663.707031 36.902344 667.679688 36.050781 671.652344 C 33.496094 671.652344 30.660156 671.933594 27.820312 671.933594 C 26.96875 671.933594 26.117188 671.933594 25.269531 671.933594 C 11.648438 671.933594 1.152344 672.21875 15.621094 687.257812 C 38.886719 710.804688 -15.589844 729.25 38.035156 729.53125 C 82.867188 729.816406 74.070312 732.085938 131.101562 738.613281 C 142.449219 740.03125 150.679688 740.597656 156.636719 740.597656 C 193.804688 740.597656 134.503906 717.046875 195.792969 717.046875 C 210.261719 717.046875 231.542969 718.46875 262.46875 721.589844 C 270.414062 722.4375 275.238281 722.722656 278.074219 722.722656 C 301.625 722.722656 171.957031 696.050781 218.488281 673.921875 C 260.484375 654.058594 200.046875 641.859375 177.917969 638.171875 C 172.808594 632.496094 166.566406 627.390625 160.039062 623.417969 C 166.28125 624.550781 170.824219 625.402344 172.523438 625.6875 C 175.644531 625.96875 189.265625 627.957031 203.453125 631.644531 C 230.125 638.171875 242.039062 646.113281 244.027344 657.75 C 246.296875 673.070312 228.988281 681.296875 223.3125 684.136719 C 222.746094 684.417969 222.179688 684.703125 221.894531 684.988281 C 224.164062 686.6875 228.703125 689.527344 237.214844 693.214844 C 247.429688 697.753906 259.347656 701.726562 268.710938 704.847656 C 273.535156 706.550781 277.789062 707.96875 280.628906 709.105469 C 284.316406 710.523438 293.679688 714.210938 292.261719 723.859375 C 291.691406 726.980469 289.421875 733.789062 278.074219 733.789062 C 274.667969 733.789062 269.5625 733.503906 261.050781 732.652344 C 232.675781 729.53125 210.828125 728.113281 195.792969 728.113281 C 188.128906 728.113281 183.023438 728.398438 179.902344 728.964844 C 181.320312 732.652344 182.457031 738.042969 179.050781 743.152344 C 174.511719 750.527344 165.714844 751.378906 156.636719 751.378906 C 150.109375 751.378906 141.316406 750.8125 129.964844 749.394531 C 109.820312 747.125 97.621094 745.136719 88.539062 743.71875 C 72.367188 741.164062 66.410156 740.316406 38.035156 740.03125 C 20.445312 740.03125 9.09375 738.042969 4.269531 729.53125 C -0.550781 721.304688 3.988281 713.644531 6.824219 708.253906 C 11.363281 700.023438 11.648438 698.320312 7.675781 694.066406 C 3.703125 690.945312 -5.660156 681.296875 -1.402344 670.800781 Z M -1.402344 670.800781 " fill-opacity="1" fill-rule="nonzero"/></g><path fill="#79cbbb" d="M 51.085938 641.007812 C 47.113281 645.832031 43.710938 650.9375 41.15625 656.328125 C 39.738281 652.355469 37.46875 644.414062 42.007812 637.601562 C 44.277344 634.199219 48.816406 630.511719 57.328125 630.226562 C 58.75 630.226562 59.882812 630.226562 61.300781 630.511719 C 57.898438 633.914062 54.492188 637.320312 51.085938 641.007812 Z M 51.085938 641.007812 " fill-opacity="1" fill-rule="nonzero"/><path fill="#79cbbb" d="M 116.0625 621.996094 C 138.195312 621.996094 158.339844 631.359375 171.957031 647.535156 C 181.605469 659.167969 186.710938 673.070312 186.710938 687.824219 C 186.710938 691.230469 185.292969 694.351562 182.738281 696.335938 C 169.121094 707.96875 144.4375 714.777344 116.0625 714.777344 C 87.972656 714.777344 63.003906 707.96875 49.386719 696.335938 C 46.832031 694.066406 45.414062 690.945312 45.414062 687.824219 C 45.414062 673.070312 50.519531 659.167969 60.167969 647.535156 C 73.503906 631.078125 93.929688 621.996094 116.0625 621.996094 Z M 56.761719 687.539062 C 67.542969 696.902344 89.957031 703.144531 116.0625 703.144531 C 141.882812 703.144531 164.296875 696.621094 175.363281 687.539062 C 175.363281 675.054688 170.824219 663.707031 163.160156 654.628906 C 152.378906 641.574219 135.355469 633.0625 116.0625 633.0625 C 96.769531 633.0625 79.746094 641.574219 68.960938 654.628906 C 61.300781 663.992188 56.761719 675.339844 56.761719 687.539062 Z M 56.761719 687.539062 " fill-opacity="1" fill-rule="nonzero"/><path fill="#79cbbb" d="M 116.0625 643.277344 C 119.183594 643.277344 121.738281 645.832031 121.738281 648.953125 C 121.738281 652.074219 119.183594 654.628906 116.0625 654.628906 C 104.429688 654.628906 93.929688 659.449219 86.835938 667.960938 C 85.703125 669.382812 84 669.949219 82.582031 669.949219 C 81.445312 669.949219 80.027344 669.382812 78.894531 668.53125 C 76.339844 666.542969 76.054688 662.855469 78.042969 660.585938 C 87.121094 649.519531 101.023438 643.277344 116.0625 643.277344 Z M 116.0625 643.277344 " fill-opacity="1" fill-rule="nonzero"/></svg>