<svg xmlns="http://www.w3.org/2000/svg" xmlns:xlink="http://www.w3.org/1999/xlink" width="1080" zoomAndPan="magnify" viewBox="0 0 810 809.999993" height="1080" preserveAspectRatio="xMidYMid meet" version="1.0"><defs><clipPath id="e18a63862b"><path d="M 128.339844 27.308594 L 681.839844 27.308594 L 681.839844 782.558594 L 128.339844 782.558594 Z M 128.339844 27.308594 " clip-rule="nonzero"/></clipPath><clipPath id="c3599cac62"><path d="M 0 398.046875 L 423.382812 398.046875 L 423.382812 810 L 0 810 Z M 0 398.046875 " clip-rule="nonzero"/></clipPath><clipPath id="4cdfab9bdc"><path d="M 145.0625 398.046875 C -8.652344 398.046875 -133.257812 530.976562 -133.257812 694.953125 C -133.257812 858.929688 -8.652344 991.859375 145.0625 991.859375 C 298.773438 991.859375 423.382812 858.929688 423.382812 694.953125 C 423.382812 530.976562 298.773438 398.046875 145.0625 398.046875 Z M 145.0625 398.046875 " clip-rule="nonzero"/></clipPath><clipPath id="ae2985bb1b"><path d="M 149 506 L 348 506 L 348 775.921875 L 149 775.921875 Z M 149 506 " clip-rule="nonzero"/></clipPath><clipPath id="b71deedf8a"><path d="M 8.390625 541 L 126 541 L 126 698 L 8.390625 698 Z M 8.390625 541 " clip-rule="nonzero"/></clipPath></defs><g clip-path="url(#e18a63862b)"><path fill="#cecfd7" d="M 186.253906 42.207031 C 162.605469 42.207031 143.371094 61.449219 143.371094 85.09375 L 143.371094 724.90625 C 143.371094 748.546875 162.605469 767.789062 186.253906 767.789062 L 623.664062 767.789062 C 647.308594 767.789062 666.550781 748.546875 666.550781 724.90625 L 666.550781 85.09375 C 666.550781 61.449219 647.308594 42.207031 623.664062 42.207031 Z M 623.664062 782.695312 L 186.253906 782.695312 C 154.386719 782.695312 128.464844 756.769531 128.464844 724.90625 L 128.464844 85.09375 C 128.464844 53.226562 154.386719 27.300781 186.253906 27.300781 L 623.664062 27.300781 C 655.53125 27.300781 681.457031 53.226562 681.457031 85.09375 L 681.457031 724.90625 C 681.457031 756.769531 655.53125 782.695312 623.664062 782.695312 " fill-opacity="1" fill-rule="nonzero"/></g><path fill="#cecfd7" d="M 202.757812 267.210938 L 607.164062 267.210938 L 607.164062 101.125 L 202.757812 101.125 Z M 614.617188 282.121094 L 195.304688 282.121094 C 191.1875 282.121094 187.851562 278.78125 187.851562 274.664062 L 187.851562 93.671875 C 187.851562 89.550781 191.1875 86.214844 195.304688 86.214844 L 614.617188 86.214844 C 618.730469 86.214844 622.070312 89.550781 622.070312 93.671875 L 622.070312 274.664062 C 622.070312 278.78125 618.730469 282.121094 614.617188 282.121094 " fill-opacity="1" fill-rule="nonzero"/><path fill="#cecfd7" d="M 202.757812 439.308594 L 302.175781 439.308594 L 302.175781 354.523438 L 202.757812 354.523438 Z M 309.628906 454.21875 L 195.304688 454.21875 C 191.1875 454.21875 187.851562 450.882812 187.851562 446.765625 L 187.851562 347.066406 C 187.851562 342.953125 191.1875 339.613281 195.304688 339.613281 L 309.628906 339.613281 C 313.746094 339.613281 317.082031 342.953125 317.082031 347.066406 L 317.082031 446.765625 C 317.082031 450.882812 313.746094 454.21875 309.628906 454.21875 " fill-opacity="1" fill-rule="nonzero"/><path fill="#cecfd7" d="M 354.414062 439.308594 L 453.828125 439.308594 L 453.828125 354.523438 L 354.414062 354.523438 Z M 461.28125 454.21875 L 346.960938 454.21875 C 342.84375 454.21875 339.507812 450.882812 339.507812 446.765625 L 339.507812 347.066406 C 339.507812 342.953125 342.84375 339.613281 346.960938 339.613281 L 461.28125 339.613281 C 465.402344 339.613281 468.734375 342.953125 468.734375 347.066406 L 468.734375 446.765625 C 468.734375 450.882812 465.402344 454.21875 461.28125 454.21875 " fill-opacity="1" fill-rule="nonzero"/><path fill="#cecfd7" d="M 506.070312 439.308594 L 605.484375 439.308594 L 605.484375 354.523438 L 506.070312 354.523438 Z M 612.9375 454.21875 L 498.617188 454.21875 C 494.496094 454.21875 491.164062 450.882812 491.164062 446.765625 L 491.164062 347.066406 C 491.164062 342.953125 494.496094 339.613281 498.617188 339.613281 L 612.9375 339.613281 C 617.054688 339.613281 620.394531 342.953125 620.394531 347.066406 L 620.394531 446.765625 C 620.394531 450.882812 617.054688 454.21875 612.9375 454.21875 " fill-opacity="1" fill-rule="nonzero"/><path fill="#cecfd7" d="M 202.757812 576.886719 L 302.175781 576.886719 L 302.175781 492.089844 L 202.757812 492.089844 Z M 309.628906 591.792969 L 195.304688 591.792969 C 191.1875 591.792969 187.851562 588.453125 187.851562 584.339844 L 187.851562 484.636719 C 187.851562 480.523438 191.1875 477.183594 195.304688 477.183594 L 309.628906 477.183594 C 313.746094 477.183594 317.082031 480.523438 317.082031 484.636719 L 317.082031 584.339844 C 317.082031 588.453125 313.746094 591.792969 309.628906 591.792969 " fill-opacity="1" fill-rule="nonzero"/><path fill="#cecfd7" d="M 354.414062 576.886719 L 453.828125 576.886719 L 453.828125 492.089844 L 354.414062 492.089844 Z M 461.28125 591.792969 L 346.960938 591.792969 C 342.84375 591.792969 339.507812 588.453125 339.507812 584.339844 L 339.507812 484.636719 C 339.507812 480.523438 342.84375 477.183594 346.960938 477.183594 L 461.28125 477.183594 C 465.402344 477.183594 468.734375 480.523438 468.734375 484.636719 L 468.734375 584.339844 C 468.734375 588.453125 465.402344 591.792969 461.28125 591.792969 " fill-opacity="1" fill-rule="nonzero"/><path fill="#cecfd7" d="M 202.757812 714.457031 L 302.175781 714.457031 L 302.175781 629.660156 L 202.757812 629.660156 Z M 309.628906 729.363281 L 195.304688 729.363281 C 191.1875 729.363281 187.851562 726.023438 187.851562 721.910156 L 187.851562 622.203125 C 187.851562 618.089844 191.1875 614.75 195.304688 614.75 L 309.628906 614.75 C 313.746094 614.75 317.082031 618.089844 317.082031 622.203125 L 317.082031 721.910156 C 317.082031 726.023438 313.746094 729.363281 309.628906 729.363281 " fill-opacity="1" fill-rule="nonzero"/><path fill="#cecfd7" d="M 354.414062 714.457031 L 453.828125 714.457031 L 453.828125 629.660156 L 354.414062 629.660156 Z M 461.28125 729.363281 L 346.960938 729.363281 C 342.84375 729.363281 339.507812 726.023438 339.507812 721.910156 L 339.507812 622.203125 C 339.507812 618.089844 342.84375 614.75 346.960938 614.75 L 461.28125 614.75 C 465.402344 614.75 468.734375 618.089844 468.734375 622.203125 L 468.734375 721.910156 C 468.734375 726.023438 465.402344 729.363281 461.28125 729.363281 " fill-opacity="1" fill-rule="nonzero"/><path fill="#cecfd7" d="M 506.070312 714.457031 L 605.484375 714.457031 L 605.484375 492.089844 L 506.070312 492.089844 Z M 612.9375 729.363281 L 498.617188 729.363281 C 494.496094 729.363281 491.164062 726.023438 491.164062 721.910156 L 491.164062 484.636719 C 491.164062 480.523438 494.496094 477.183594 498.617188 477.183594 L 612.9375 477.183594 C 617.054688 477.183594 620.394531 480.523438 620.394531 484.636719 L 620.394531 721.910156 C 620.394531 726.023438 617.054688 729.363281 612.9375 729.363281 " fill-opacity="1" fill-rule="nonzero"/><path fill="#cecfd7" d="M 555.773438 638.589844 C 551.660156 638.589844 548.320312 635.25 548.320312 631.132812 L 548.320312 575.410156 C 548.320312 571.296875 551.660156 567.957031 555.773438 567.957031 C 559.898438 567.957031 563.226562 571.296875 563.226562 575.410156 L 563.226562 631.132812 C 563.226562 635.25 559.898438 638.589844 555.773438 638.589844 " fill-opacity="1" fill-rule="nonzero"/><path fill="#cecfd7" d="M 583.640625 610.726562 L 527.921875 610.726562 C 523.796875 610.726562 520.46875 607.386719 520.46875 603.273438 C 520.46875 599.160156 523.796875 595.820312 527.921875 595.820312 L 583.640625 595.820312 C 587.757812 595.820312 591.09375 599.160156 591.09375 603.273438 C 591.09375 607.386719 587.757812 610.726562 583.640625 610.726562 " fill-opacity="1" fill-rule="nonzero"/><g clip-path="url(#c3599cac62)"><g clip-path="url(#4cdfab9bdc)"><path fill="#00425c" d="M -133.257812 398.046875 L 423.382812 398.046875 L 423.382812 991.652344 L -133.257812 991.652344 Z M -133.257812 398.046875 " fill-opacity="1" fill-rule="nonzero"/></g></g><g clip-path="url(#ae2985bb1b)"><path fill="#79cbbb" d="M 248.519531 756.878906 C 292.898438 756.878906 329.003906 720.78125 329.003906 676.40625 C 329.003906 618.03125 268.828125 550.589844 248.546875 529.527344 C 228.28125 550.726562 168.042969 618.621094 168.042969 676.40625 C 168.042969 720.78125 204.140625 756.878906 248.519531 756.878906 Z M 241.933594 509.160156 C 245.597656 505.640625 251.382812 505.628906 255.066406 509.125 C 258.859375 512.734375 348.011719 598.382812 348.011719 676.40625 C 348.011719 731.261719 303.378906 775.886719 248.519531 775.886719 C 193.667969 775.886719 149.039062 731.261719 149.039062 676.40625 C 149.039062 599.277344 238.140625 512.804688 241.933594 509.160156 " fill-opacity="1" fill-rule="nonzero"/></g><path fill="#79cbbb" d="M 140.125 527.695312 C 155.242188 527.695312 167.539062 515.398438 167.539062 500.285156 C 167.539062 482.574219 151.28125 460.644531 140.152344 448.25 C 129.011719 460.714844 112.742188 482.730469 112.742188 500.285156 C 112.742188 515.398438 125.03125 527.695312 140.125 527.695312 Z M 93.742188 500.285156 C 93.742188 466.304688 131.921875 429.242188 133.546875 427.679688 C 137.207031 424.164062 142.988281 424.148438 146.671875 427.644531 C 148.300781 429.191406 186.539062 465.90625 186.539062 500.285156 C 186.539062 525.878906 165.71875 546.695312 140.125 546.695312 C 114.546875 546.695312 93.742188 525.878906 93.742188 500.285156 " fill-opacity="1" fill-rule="nonzero"/><g clip-path="url(#b71deedf8a)"><path fill="#79cbbb" d="M 66.972656 678.429688 C 88.828125 678.429688 106.597656 660.652344 106.597656 638.804688 C 106.597656 610.996094 79.707031 578.667969 66.96875 564.917969 C 51.886719 581.292969 27.386719 613.265625 27.386719 638.804688 C 27.386719 660.652344 45.144531 678.429688 66.972656 678.429688 Z M 60.394531 544.4375 C 64.054688 540.921875 69.835938 540.902344 73.519531 544.402344 C 75.648438 546.417969 125.601562 594.382812 125.601562 638.804688 C 125.601562 671.132812 99.304688 697.433594 66.972656 697.433594 C 34.667969 697.433594 8.378906 671.132812 8.378906 638.804688 C 8.378906 594.898438 58.269531 546.476562 60.394531 544.4375 " fill-opacity="1" fill-rule="nonzero"/></g><path fill="#79cbbb" d="M 292.980469 688.589844 C 299.695312 665.601562 282.871094 639.480469 282.648438 639.136719 C 279.769531 634.761719 280.976562 628.882812 285.347656 625.988281 C 289.71875 623.097656 295.617188 624.296875 298.515625 628.675781 C 299.414062 630.03125 320.441406 662.355469 311.214844 693.929688 C 306.371094 710.421875 286.945312 741.617188 248.109375 741.617188 C 242.863281 741.617188 238.609375 737.359375 238.609375 732.113281 C 238.609375 726.863281 242.863281 722.613281 248.109375 722.613281 C 275.695312 722.613281 289.527344 700.34375 292.980469 688.589844 " fill-opacity="1" fill-rule="nonzero"/><path fill="#79cbbb" d="M 274.972656 617.703125 C 267.667969 617.703125 261.71875 611.8125 261.71875 604.460938 C 261.71875 597.125 267.667969 591.21875 274.972656 591.21875 C 282.296875 591.21875 288.214844 597.125 288.214844 604.460938 C 288.214844 611.8125 282.296875 617.703125 274.972656 617.703125 " fill-opacity="1" fill-rule="nonzero"/></svg>