<svg xmlns="http://www.w3.org/2000/svg" xmlns:xlink="http://www.w3.org/1999/xlink" width="1080" zoomAndPan="magnify" viewBox="0 0 810 809.999993" height="1080" preserveAspectRatio="xMidYMid meet" version="1.0"><defs><clipPath id="e02cc99c7e"><path d="M 43 21.355469 L 692 21.355469 L 692 732 L 43 732 Z M 43 21.355469 " clip-rule="nonzero"/></clipPath></defs><path fill="#ffffff" d="M 390.386719 364.421875 L 390.386719 653.273438 C 390.386719 670.910156 376.015625 685.277344 358.382812 685.277344 L 163.089844 685.277344 C 145.457031 685.277344 131.085938 670.910156 131.085938 653.273438 L 131.085938 364.421875 C 131.085938 346.785156 145.457031 332.417969 163.089844 332.417969 L 186.929688 332.417969 C 188.074219 325.882812 190.847656 316.25 197.054688 310.535156 C 198.6875 309.066406 200.644531 308.25 202.933594 308.25 L 227.589844 308.25 L 262.859375 290.613281 L 294.210938 308.25 L 318.375 308.25 C 320.664062 308.25 322.785156 309.066406 324.417969 310.699219 C 327.847656 313.964844 333.070312 320.984375 333.070312 332.417969 L 358.382812 332.417969 C 376.015625 332.417969 390.386719 346.785156 390.386719 364.421875 Z M 731.328125 737.695312 C 731.328125 737.695312 718.429688 741.449219 695.730469 746.023438 C 685.117188 735.898438 670.097656 725.121094 657.523438 724.792969 C 657.359375 724.792969 657.359375 724.792969 657.195312 724.792969 L 629.273438 739.328125 C 628.785156 739.652344 628.949219 740.308594 629.4375 740.46875 C 634.171875 740.796875 633.03125 743.410156 638.09375 755.980469 C 616.863281 759.25 605.597656 760.554688 605.597656 760.554688 L 606.902344 773.453125 C 606.902344 773.453125 623.070312 788.640625 677.117188 776.066406 C 731.164062 763.492188 731.65625 751.898438 731.65625 751.898438 Z M 554.164062 735.40625 C 543.550781 725.9375 527.710938 714.835938 514.808594 712.710938 C 514.648438 712.710938 514.648438 712.710938 514.484375 712.710938 L 484.765625 723.488281 C 484.277344 723.652344 484.277344 724.46875 484.765625 724.632812 C 488.519531 725.449219 492.765625 728.714844 497.503906 737.695312 C 471.867188 739.328125 458.476562 741.285156 458.476562 741.285156 L 457.988281 754.347656 C 457.988281 754.347656 471.867188 771.496094 527.382812 766.269531 C 582.738281 760.882812 584.695312 749.613281 584.695312 749.613281 L 586.003906 735.40625 C 586.167969 735.246094 574.410156 734.917969 554.164062 735.40625 Z M 560.367188 87.324219 C 623.070312 94.179688 675.484375 157.535156 675.484375 157.535156 C 717.613281 103.160156 686.75 70.503906 645.441406 51.074219 C 608.535156 33.765625 585.351562 51.890625 574.246094 65.441406 C 546.816406 48.785156 523.628906 39.804688 517.257812 44.542969 C 502.5625 55.316406 560.367188 87.324219 560.367188 87.324219 Z M 560.367188 87.324219 " fill-opacity="1" fill-rule="nonzero"/><path fill="#ebb3a4" d="M 662.257812 763.492188 C 625.027344 768.230469 605.761719 760.554688 605.761719 760.554688 C 605.109375 755.820312 616.703125 747.816406 629.4375 740.632812 C 629.4375 740.632812 629.4375 740.632812 629.601562 740.632812 C 635.152344 740.960938 650.175781 743.898438 662.257812 763.492188 Z M 628.132812 572.449219 L 662.09375 723.816406 C 662.09375 723.816406 661.117188 724.304688 659.484375 725.121094 C 676.300781 726.753906 686.914062 747.492188 690.671875 757.777344 C 716.304688 749.941406 731.328125 738.019531 731.328125 738.019531 L 706.507812 574.734375 Z M 484.765625 724.632812 C 484.765625 724.632812 484.765625 724.46875 484.765625 724.632812 C 471.050781 730.183594 458.640625 736.550781 458.640625 741.285156 C 458.640625 741.285156 476.765625 751.410156 514.320312 751.574219 C 504.851562 730.507812 490.316406 725.609375 484.765625 724.632812 Z M 505.503906 557.589844 L 519.21875 712.058594 C 519.21875 712.058594 518.238281 712.386719 516.441406 712.875 C 532.933594 716.792969 540.609375 738.675781 543.222656 749.289062 C 569.675781 744.878906 586.167969 734.917969 586.167969 734.917969 L 583.0625 569.835938 Z M 590.25 296.65625 C 577.675781 295.023438 567.0625 280.652344 559.550781 264.816406 L 558.082031 281.308594 C 558.082031 281.308594 596.945312 305.148438 521.34375 294.859375 C 445.738281 284.574219 370.300781 244.566406 377.324219 213.214844 C 382.875 188.558594 443.128906 126.511719 468.761719 101.039062 L 463.539062 95.648438 L 501.09375 69.523438 L 502.890625 68.21875 L 503.054688 68.382812 C 514.972656 62.992188 536.039062 73.117188 545.507812 85.851562 C 551.550781 93.855469 547.632812 104.304688 543.058594 111.816406 L 545.019531 117.53125 C 550.898438 106.917969 557.265625 96.628906 560.203125 87.324219 C 560.855469 85.199219 560.53125 86.34375 560.203125 87.324219 C 583.0625 86.015625 607.394531 96.792969 647.074219 128.960938 L 641.519531 150.1875 C 641.519531 150.1875 661.117188 151.496094 661.277344 165.046875 C 661.441406 178.761719 643.152344 184.152344 635.316406 180.722656 L 633.195312 184.96875 L 631.234375 225.300781 C 631.234375 225.300781 645.929688 229.546875 645.113281 233.789062 C 642.335938 251.914062 617.519531 300.25 590.25 296.65625 Z M 562.328125 223.015625 L 563.960938 193.949219 C 558.082031 190.847656 554.816406 188.234375 554.816406 188.234375 C 554.816406 188.234375 532.28125 175.824219 532.773438 152.964844 C 532.933594 143.003906 537.015625 133.042969 542.078125 123.246094 L 517.75 135.492188 L 456.191406 205.867188 C 496.195312 200.480469 555.304688 220.566406 562.328125 223.015625 Z M 800.726562 199.664062 C 791.910156 152.3125 710.429688 101.527344 710.429688 101.527344 C 715.652344 91.078125 710.753906 82.914062 710.753906 82.914062 C 716.144531 84.875 719.246094 78.832031 711.898438 65.441406 C 704.550781 52.214844 696.386719 57.929688 696.386719 57.929688 C 690.015625 50.910156 685.445312 55.808594 685.445312 55.808594 C 677.609375 46.5 671.890625 53.683594 671.890625 53.683594 C 671.890625 53.683594 663.074219 41.765625 657.6875 47.96875 C 652.296875 54.175781 656.542969 78.015625 656.542969 78.015625 C 653.277344 73.769531 640.867188 67.238281 637.113281 74.914062 C 633.355469 82.585938 656.871094 101.363281 656.871094 101.363281 C 666.339844 115.898438 682.507812 123.410156 682.507812 123.410156 L 742.269531 204.074219 C 742.269531 204.074219 732.796875 209.625 710.429688 213.871094 C 699.160156 215.992188 672.054688 221.21875 651.480469 225.136719 C 651.316406 227.585938 643.152344 237.871094 644.460938 257.792969 C 645.601562 274.285156 664.707031 288.980469 671.566406 296.492188 C 685.773438 292.738281 702.425781 288.492188 720.0625 284.410156 C 767.742188 273.46875 809.542969 247.179688 800.726562 199.664062 Z M 800.726562 199.664062 " fill-opacity="1" fill-rule="nonzero"/><g clip-path="url(#e02cc99c7e)"><path fill="#fff5ec" d="M 224.324219 412.917969 C 223.179688 415.039062 220.078125 415.203125 218.769531 412.917969 C 215.503906 406.875 211.421875 396.914062 221.382812 396.914062 C 231.34375 396.914062 227.589844 406.875 224.324219 412.917969 Z M 358.707031 377.808594 L 358.707031 512.683594 C 358.707031 521.011719 352.011719 527.707031 343.6875 527.707031 L 177.785156 527.707031 C 169.457031 527.707031 162.765625 521.011719 162.765625 512.683594 L 162.765625 377.808594 C 162.765625 369.480469 169.457031 362.789062 177.785156 362.789062 L 343.847656 362.789062 C 352.011719 362.789062 358.707031 369.480469 358.707031 377.808594 Z M 243.265625 428.753906 C 243.265625 424.835938 240.324219 421.570312 236.40625 421.082031 L 239.34375 393.484375 C 239.835938 389.078125 236.242188 385.15625 231.835938 385.15625 L 210.605469 385.15625 C 206.035156 385.15625 202.441406 389.238281 203.097656 393.8125 L 206.851562 421.246094 C 203.097656 421.734375 200.15625 425 200.15625 428.753906 L 200.15625 428.917969 C 200.15625 433.164062 203.585938 436.59375 207.832031 436.59375 L 235.425781 436.59375 C 239.671875 436.59375 243.101562 433.164062 243.101562 428.917969 L 243.101562 428.753906 Z M 205.707031 612.617188 C 202.441406 608.371094 167.5 604.941406 124.71875 604.941406 C 81.9375 604.941406 46.992188 608.371094 43.726562 612.617188 L 43.402344 612.617188 C 43.402344 612.617188 40.296875 703.242188 67.40625 721.203125 C 87.976562 734.917969 160.640625 733.9375 174.847656 722.34375 C 174.847656 722.34375 200.972656 710.75 205.707031 613.433594 C 205.707031 613.433594 205.707031 613.269531 205.707031 613.269531 C 205.707031 613.269531 205.707031 613.269531 205.707031 613.105469 C 205.707031 612.941406 205.707031 612.78125 205.707031 612.617188 Z M 538.8125 156.71875 L 552.039062 164.066406 C 552.039062 164.066406 562.652344 163.25 566.574219 149.535156 L 554.816406 139.738281 C 554.816406 139.738281 564.125 123.734375 546.488281 105.449219 C 543.058594 113.613281 536.855469 120.632812 535.710938 122.101562 C 533.425781 124.550781 526.894531 130.59375 522.648438 127 C 520.363281 125.042969 521.503906 122.59375 521.832031 121.449219 C 522.160156 120.632812 522.648438 119.980469 523.464844 119.652344 C 530.976562 115.082031 535.710938 108.058594 535.710938 108.058594 C 532.28125 113.285156 520.035156 122.101562 514.972656 119 C 513.015625 117.855469 513.015625 116.0625 513.667969 114.589844 C 514.15625 113.449219 514.972656 112.632812 515.953125 111.980469 C 524.769531 106.425781 528.363281 99.730469 528.363281 99.730469 C 528.363281 99.730469 525.585938 104.957031 516.441406 110.019531 C 504.6875 116.550781 500.769531 107.570312 506.320312 104.792969 C 509.585938 103.160156 514.320312 99.570312 517.75 96.792969 C 514.15625 99.242188 509.75 101.527344 505.992188 102.671875 C 500.441406 104.304688 496.847656 96.792969 503.871094 92.546875 C 511.054688 88.300781 515.953125 81.117188 515.953125 81.117188 L 466.476562 36.214844 C 466.476562 36.214844 441.820312 39.316406 428.433594 56.460938 C 415.042969 73.605469 418.144531 88.957031 418.144531 88.957031 L 510.566406 158.027344 C 510.402344 158.027344 522.160156 169.945312 538.8125 156.71875 Z M 517.585938 96.792969 C 519.21875 95.648438 520.6875 94.34375 521.832031 93.199219 C 521.832031 93.199219 520.035156 94.832031 517.585938 96.792969 Z M 676.464844 301.390625 C 676.464844 301.390625 676.300781 301.226562 676.464844 301.390625 C 675.15625 300.085938 653.277344 280.164062 651.808594 257.628906 C 650.5 236.402344 651.316406 226.441406 651.480469 224.972656 C 651.480469 224.808594 651.316406 224.808594 651.316406 224.808594 L 633.355469 225.625 C 633.195312 225.625 633.03125 225.953125 633.355469 225.953125 C 635.804688 226.605469 640.542969 228.238281 640.050781 231.503906 C 636.785156 249.464844 619.804688 289.144531 592.535156 285.554688 C 567.390625 282.285156 555.140625 241.957031 554.652344 226.117188 C 554.488281 221.542969 562.652344 223.503906 562.652344 223.503906 L 562.652344 223.339844 C 562.164062 222.523438 554.488281 216.15625 541.753906 216.320312 C 541.589844 216.320312 541.425781 217.460938 541.425781 217.460938 C 540.9375 221.21875 533.425781 288.492188 511.542969 312.984375 C 511.542969 312.984375 511.542969 312.984375 511.542969 313.148438 C 511.382812 315.925781 502.402344 427.121094 503.21875 434.308594 C 504.195312 441.492188 536.199219 469.742188 590.574219 470.066406 C 643.96875 470.394531 689.691406 433.816406 691.488281 431.859375 C 691.488281 431.859375 691.488281 431.695312 691.488281 431.695312 Z M 369.484375 145.125 L 369.484375 104.792969 C 373.242188 102.996094 375.851562 99.078125 375.851562 94.671875 L 375.851562 86.507812 C 375.851562 82.097656 373.242188 78.179688 369.484375 76.382812 L 369.484375 63.972656 C 369.484375 40.460938 350.378906 21.355469 326.867188 21.355469 L 194.605469 21.355469 C 171.089844 21.355469 151.988281 40.460938 151.988281 63.972656 L 151.988281 75.730469 C 147.578125 77.363281 144.476562 81.445312 144.476562 86.507812 L 144.476562 94.671875 C 144.476562 99.570312 147.578125 103.8125 151.988281 105.449219 L 151.988281 144.800781 C 147.578125 146.433594 144.476562 150.515625 144.476562 155.578125 L 144.476562 163.742188 C 144.476562 168.640625 147.578125 172.886719 151.988281 174.519531 L 151.988281 213.214844 C 147.578125 214.847656 144.476562 218.933594 144.476562 223.992188 L 144.476562 232.15625 C 144.476562 237.054688 147.578125 241.300781 151.988281 242.933594 L 151.988281 244.566406 C 151.988281 268.082031 171.089844 287.1875 194.605469 287.1875 C 209.300781 287.1875 221.875 296.003906 227.425781 308.738281 L 294.046875 308.738281 C 299.597656 296.003906 312.171875 287.1875 326.867188 287.1875 C 350.378906 287.1875 369.484375 268.082031 369.484375 244.566406 L 369.484375 242.28125 C 373.242188 240.484375 375.851562 236.566406 375.851562 232.15625 L 375.851562 223.992188 C 375.851562 219.585938 373.242188 215.664062 369.484375 213.871094 L 369.484375 173.703125 C 373.242188 171.90625 375.851562 167.984375 375.851562 163.578125 L 375.851562 155.414062 C 375.851562 150.839844 373.242188 146.921875 369.484375 145.125 Z M 369.484375 145.125 " fill-opacity="1" fill-rule="nonzero"/></g><path fill="#79cbbb" d="M 351.195312 143.984375 L 360.667969 143.984375 L 360.667969 175.007812 L 351.195312 175.007812 L 351.195312 212.238281 L 360.667969 212.238281 L 360.667969 243.261719 L 351.195312 243.261719 L 351.195312 244.078125 C 351.195312 263.347656 335.519531 279.019531 316.253906 279.019531 C 300.089844 279.019531 286.863281 292.246094 286.863281 308.414062 L 237.058594 308.414062 C 237.058594 292.246094 223.832031 279.019531 207.667969 279.019531 C 188.398438 279.019531 172.722656 263.347656 172.722656 244.078125 L 172.722656 243.261719 L 163.253906 243.261719 L 163.253906 212.238281 L 172.722656 212.238281 L 172.722656 174.84375 L 163.253906 174.84375 L 163.253906 143.820312 L 172.722656 143.820312 L 172.722656 124.878906 C 172.722656 124.878906 240.976562 117.855469 277.066406 119.816406 C 313.152344 121.777344 351.035156 126.839844 351.035156 126.839844 L 351.035156 143.984375 Z M 320.335938 428.753906 L 320.335938 428.917969 C 320.335938 433.164062 316.90625 436.59375 312.660156 436.59375 L 285.066406 436.59375 C 280.820312 436.59375 277.390625 433.164062 277.390625 428.917969 L 277.390625 428.753906 C 277.390625 424.835938 280.332031 421.734375 284.085938 421.246094 L 280.332031 393.8125 C 279.675781 389.238281 283.269531 385.15625 287.839844 385.15625 L 309.070312 385.15625 C 313.640625 385.15625 317.070312 389.078125 316.582031 393.484375 L 313.640625 421.082031 C 317.398438 421.570312 320.335938 424.671875 320.335938 428.753906 Z M 296.167969 412.917969 C 297.3125 415.039062 300.414062 415.039062 301.722656 412.917969 C 304.988281 406.875 308.742188 396.914062 298.78125 396.914062 C 288.820312 396.914062 292.742188 406.875 296.167969 412.917969 Z M 133.371094 552.199219 C 133.371094 552.199219 126.839844 546.320312 118.351562 542.402344 C 129.289062 539.464844 139.902344 535.21875 147.578125 529.175781 C 171.089844 510.5625 129.453125 505.011719 129.453125 505.011719 C 129.453125 505.011719 129.289062 486.394531 110.511719 487.210938 C 95.980469 487.867188 81.285156 524.441406 75.242188 541.097656 C 68.058594 540.933594 62.179688 541.585938 62.179688 541.585938 C 62.179688 541.585938 56.300781 517.582031 32.296875 524.277344 C 8.292969 531.136719 1.925781 616.371094 1.925781 616.371094 C 1.925781 616.371094 66.589844 598.574219 90.429688 570.816406 C 100.878906 601.1875 135.984375 644.292969 146.761719 639.558594 C 166.683594 630.742188 205.871094 490.96875 133.371094 552.199219 Z M 539.140625 150.515625 L 556.449219 161.453125 C 556.449219 161.453125 562 160.800781 565.59375 153.78125 C 565.59375 153.78125 555.796875 144.960938 547.632812 141.535156 C 547.632812 141.535156 551.386719 133.695312 549.589844 125.53125 C 548.773438 121.613281 546.324219 116.222656 543.550781 111.488281 C 540.28125 116.878906 536.691406 121.121094 535.710938 122.101562 C 533.425781 124.550781 526.894531 130.59375 522.648438 127 C 520.363281 125.042969 521.503906 122.59375 521.832031 121.449219 C 522.160156 120.632812 522.648438 119.980469 523.464844 119.652344 C 530.976562 115.082031 535.710938 108.058594 535.710938 108.058594 C 532.28125 113.285156 520.035156 122.101562 514.972656 119 C 513.015625 117.855469 513.015625 116.0625 513.667969 114.589844 C 514.15625 113.449219 514.972656 112.632812 515.953125 111.980469 C 523.464844 107.242188 527.21875 101.855469 528.199219 100.222656 C 527.382812 101.527344 524.117188 105.9375 516.605469 110.019531 C 504.851562 116.550781 500.929688 107.570312 506.484375 104.792969 C 509.421875 103.324219 513.667969 100.222656 516.933594 97.609375 C 516.933594 97.609375 516.933594 97.609375 516.769531 97.609375 C 513.503906 99.730469 509.585938 101.691406 506.15625 102.671875 C 501.257812 104.140625 497.828125 98.261719 502.238281 94.015625 C 491.949219 91.242188 480.519531 87.648438 470.234375 82.914062 C 444.433594 71.15625 437.574219 95.8125 437.574219 95.8125 C 437.574219 95.8125 494.398438 139.738281 499.625 143.65625 C 504.523438 147.738281 519.054688 164.394531 539.140625 150.515625 Z M 688.382812 433.980469 C 677.28125 441.65625 636.621094 465.820312 590.25 465.496094 C 547.632812 465.332031 518.730469 450.636719 507.789062 440.839844 L 497.664062 597.59375 C 497.664062 597.59375 504.195312 607.390625 541.589844 606.410156 C 578.980469 605.433594 589.433594 597.757812 589.433594 597.757812 L 589.433594 486.394531 L 593.839844 485.742188 L 616.046875 600.695312 C 616.046875 600.695312 651.808594 609.839844 683.160156 600.535156 C 714.671875 591.226562 721.53125 576.855469 721.53125 576.855469 Z M 611.148438 180.394531 C 623.394531 182.355469 617.191406 164.066406 613.597656 155.25 C 612.78125 153.289062 610.171875 153.289062 609.191406 155.085938 C 605.269531 162.925781 599.230469 178.4375 611.148438 180.394531 Z M 588.941406 239.832031 C 597.921875 241.300781 593.351562 227.75 590.738281 221.21875 C 590.085938 219.75 588.125 219.75 587.472656 221.054688 C 584.535156 226.933594 580.125 238.527344 588.941406 239.832031 Z M 614.90625 212.074219 C 612.292969 216.972656 608.046875 226.769531 616.375 228.074219 C 624.867188 229.382812 620.457031 217.789062 618.007812 212.238281 C 617.355469 211.09375 615.558594 210.929688 614.90625 212.074219 Z M 614.90625 212.074219 " fill-opacity="1" fill-rule="nonzero"/><path fill="#4c2f29" d="M 323.765625 333.558594 L 197.21875 333.558594 C 196.5625 333.558594 196.074219 333.070312 196.074219 332.417969 C 196.074219 331.761719 196.5625 331.273438 197.21875 331.273438 L 323.765625 331.273438 C 324.417969 331.273438 324.90625 331.761719 324.90625 332.417969 C 324.90625 333.070312 324.417969 333.558594 323.765625 333.558594 Z M 210.117188 420.429688 C 209.464844 420.429688 208.972656 420.917969 208.972656 421.570312 C 208.972656 422.222656 209.464844 422.714844 210.117188 422.714844 L 233.46875 422.714844 C 234.121094 422.714844 234.609375 422.222656 234.609375 421.570312 C 234.609375 420.917969 234.121094 420.429688 233.46875 420.429688 Z M 287.023438 420.429688 C 286.371094 420.429688 285.882812 420.917969 285.882812 421.570312 C 285.882812 422.222656 286.371094 422.714844 287.023438 422.714844 L 310.375 422.714844 C 311.027344 422.714844 311.519531 422.222656 311.519531 421.570312 C 311.519531 420.917969 311.027344 420.429688 310.375 420.429688 Z M 361.972656 242.117188 L 161.949219 242.117188 C 161.292969 242.117188 160.804688 242.609375 160.804688 243.261719 C 160.804688 243.914062 161.292969 244.40625 161.949219 244.40625 L 361.8125 244.40625 C 362.464844 244.40625 362.953125 243.914062 362.953125 243.261719 C 362.953125 242.609375 362.628906 242.117188 361.972656 242.117188 Z M 369.320312 212.074219 C 367.851562 211.421875 366.21875 211.09375 364.421875 211.09375 L 160.152344 211.09375 C 159.5 211.09375 159.007812 211.582031 159.007812 212.238281 C 159.007812 212.890625 159.5 213.378906 160.152344 213.378906 L 364.421875 213.378906 C 365.730469 213.378906 367.199219 213.707031 368.34375 214.195312 C 368.503906 214.195312 368.667969 214.359375 368.832031 214.359375 C 369.320312 214.359375 369.648438 214.03125 369.8125 213.707031 C 370.136719 213.054688 369.976562 212.398438 369.320312 212.074219 Z M 163.417969 174.84375 C 163.417969 175.496094 163.90625 175.988281 164.558594 175.988281 L 364.421875 175.988281 C 365.078125 175.988281 365.566406 175.496094 365.566406 174.84375 C 365.566406 174.191406 365.078125 173.703125 364.421875 173.703125 L 164.558594 173.703125 C 163.90625 173.863281 163.417969 174.355469 163.417969 174.84375 Z M 171.089844 143.984375 C 171.089844 144.636719 171.582031 145.125 172.234375 145.125 L 361.972656 145.125 C 362.628906 145.125 363.117188 144.636719 363.117188 143.984375 C 363.117188 143.328125 362.628906 142.839844 361.972656 142.839844 L 172.070312 142.839844 C 171.582031 142.839844 171.089844 143.328125 171.089844 143.984375 Z M 170.273438 76.054688 L 353.808594 76.054688 C 354.460938 76.054688 354.953125 75.566406 354.953125 74.914062 C 354.953125 74.257812 354.460938 73.769531 353.808594 73.769531 L 170.273438 73.769531 C 169.621094 73.769531 169.132812 74.257812 169.132812 74.914062 C 169.132812 75.566406 169.621094 76.054688 170.273438 76.054688 Z M 360.667969 107.082031 C 361.320312 107.082031 361.8125 106.589844 361.8125 105.9375 C 361.8125 105.285156 361.320312 104.792969 360.667969 104.792969 L 159.5 104.792969 C 158.84375 104.792969 158.355469 105.285156 158.355469 105.9375 C 158.355469 106.589844 158.84375 107.082031 159.5 107.082031 Z M 359.199219 498.316406 L 162.601562 498.316406 C 161.949219 498.316406 161.457031 498.804688 161.457031 499.457031 C 161.457031 500.113281 161.949219 500.601562 162.601562 500.601562 L 176.316406 500.601562 L 176.316406 527.707031 C 176.316406 528.359375 176.804688 528.851562 177.460938 528.851562 C 178.113281 528.851562 178.601562 528.359375 178.601562 527.707031 L 178.601562 500.601562 L 194.929688 500.601562 L 194.929688 527.707031 C 194.929688 528.359375 195.421875 528.851562 196.074219 528.851562 C 196.726562 528.851562 197.21875 528.359375 197.21875 527.707031 L 197.21875 500.601562 L 213.546875 500.601562 L 213.546875 527.707031 C 213.546875 528.359375 214.035156 528.851562 214.6875 528.851562 C 215.34375 528.851562 215.832031 528.359375 215.832031 527.707031 L 215.832031 500.601562 L 232.160156 500.601562 L 232.160156 527.707031 C 232.160156 528.359375 232.652344 528.851562 233.304688 528.851562 C 233.957031 528.851562 234.445312 528.359375 234.445312 527.707031 L 234.445312 500.601562 L 250.777344 500.601562 L 250.777344 527.707031 C 250.777344 528.359375 251.265625 528.851562 251.917969 528.851562 C 252.570312 528.851562 253.0625 528.359375 253.0625 527.707031 L 253.0625 500.601562 L 269.390625 500.601562 L 269.390625 527.707031 C 269.390625 528.359375 269.878906 528.851562 270.53125 528.851562 C 271.1875 528.851562 271.675781 528.359375 271.675781 527.707031 L 271.675781 500.601562 L 288.003906 500.601562 L 288.003906 527.707031 C 288.003906 528.359375 288.496094 528.851562 289.148438 528.851562 C 289.800781 528.851562 290.289062 528.359375 290.289062 527.707031 L 290.289062 500.601562 L 306.621094 500.601562 L 306.621094 527.707031 C 306.621094 528.359375 307.109375 528.851562 307.761719 528.851562 C 308.414062 528.851562 308.90625 528.359375 308.90625 527.707031 L 308.90625 500.601562 L 325.234375 500.601562 L 325.234375 527.707031 C 325.234375 528.359375 325.722656 528.851562 326.378906 528.851562 C 327.03125 528.851562 327.519531 528.359375 327.519531 527.707031 L 327.519531 500.601562 L 343.847656 500.601562 L 343.847656 527.707031 C 343.847656 528.359375 344.339844 528.851562 344.992188 528.851562 C 345.644531 528.851562 346.136719 528.359375 346.136719 527.707031 L 346.136719 500.601562 L 359.851562 500.601562 C 360.503906 500.601562 360.992188 500.113281 360.992188 499.457031 C 360.992188 498.804688 359.851562 498.316406 359.199219 498.316406 Z M 116.554688 620.453125 C 110.839844 620.453125 105.285156 620.289062 99.898438 620.128906 C 98.917969 615.066406 94.347656 593.347656 86.835938 574.082031 C 85.039062 575.714844 83.242188 577.347656 81.285156 578.816406 C 86.34375 590.574219 91.082031 604.617188 93.53125 619.800781 C 71.8125 618.820312 54.667969 617.023438 47.484375 614.574219 C 46.832031 614.414062 46.339844 614.738281 46.015625 615.230469 C 45.851562 615.882812 46.175781 616.371094 46.667969 616.699219 C 56.464844 619.964844 83.894531 622.25 116.390625 622.578125 C 117.042969 622.578125 117.535156 622.085938 117.535156 621.433594 C 117.695312 620.945312 117.207031 620.453125 116.554688 620.453125 Z M 128.636719 504.03125 L 74.589844 546.160156 C 76.058594 541.914062 78.671875 534.402344 82.101562 526.238281 C 82.261719 525.746094 82.101562 524.929688 81.445312 524.769531 C 80.957031 524.605469 80.140625 524.769531 79.976562 525.421875 C 74.589844 537.996094 71.160156 548.933594 71.160156 549.097656 C 71.160156 549.097656 71.160156 549.097656 71.160156 549.261719 C 71.160156 549.425781 71.160156 549.425781 71.160156 549.585938 C 71.160156 549.585938 71.160156 549.75 71.160156 549.75 C 71.160156 549.914062 71.324219 550.078125 71.324219 550.078125 C 71.324219 550.078125 71.488281 550.242188 71.488281 550.242188 C 71.488281 550.242188 71.648438 550.402344 71.648438 550.402344 C 71.8125 550.402344 71.976562 550.566406 72.140625 550.566406 C 72.140625 550.566406 77.855469 550.402344 87.160156 549.261719 C 82.101562 561.671875 93.203125 585.347656 105.941406 604.453125 C 106.101562 604.777344 106.429688 604.941406 106.917969 604.941406 C 107.082031 604.941406 107.410156 604.941406 107.574219 604.777344 C 108.0625 604.453125 108.226562 603.800781 107.898438 603.144531 C 95.164062 584.203125 83.078125 558.40625 90.429688 547.953125 C 93.367188 543.710938 97.285156 541.261719 101.695312 540.445312 C 111.328125 538.8125 122.105469 545.34375 127.65625 549.425781 C 128.148438 549.75 128.800781 549.75 129.289062 549.097656 C 129.617188 548.609375 129.617188 547.953125 128.964844 547.464844 C 123.085938 543.21875 111.65625 536.363281 101.367188 538.15625 C 96.304688 538.972656 91.898438 541.75 88.632812 546.484375 C 88.632812 546.484375 88.46875 546.648438 88.46875 546.648438 C 82.917969 547.300781 78.507812 547.792969 75.730469 547.953125 L 129.78125 505.828125 C 130.269531 505.5 130.433594 504.683594 129.941406 504.195312 C 129.78125 503.867188 129.125 503.703125 128.636719 504.03125 Z M 133.207031 551.058594 C 132.554688 551.21875 132.230469 551.710938 132.230469 552.363281 C 132.390625 553.015625 141.375 613.433594 145.457031 639.886719 C 145.617188 640.375 145.945312 640.863281 146.597656 640.863281 C 146.597656 640.863281 146.761719 640.863281 146.761719 640.863281 C 147.414062 640.703125 147.742188 640.210938 147.742188 639.558594 C 143.660156 613.105469 134.679688 552.691406 134.515625 552.035156 C 134.351562 551.382812 133.699219 550.894531 133.207031 551.058594 Z M 62.832031 542.566406 C 63.320312 542.238281 63.320312 541.421875 62.996094 540.933594 C 62.667969 540.445312 61.851562 540.445312 61.363281 540.769531 C 45.035156 554.324219 2.578125 613.269531 0.785156 615.882812 C 0.457031 616.371094 0.457031 617.023438 1.109375 617.515625 C 1.273438 617.679688 1.601562 617.679688 1.761719 617.679688 C 2.089844 617.679688 2.417969 617.515625 2.742188 617.1875 C 3.070312 616.699219 46.832031 555.957031 62.832031 542.566406 Z M 503.707031 630.414062 L 399.367188 630.414062 C 398.714844 630.414062 398.222656 630.90625 398.222656 631.558594 C 398.222656 632.210938 398.714844 632.699219 399.367188 632.699219 L 503.707031 632.699219 C 504.359375 632.699219 504.851562 632.210938 504.851562 631.558594 C 504.851562 630.90625 504.195312 630.414062 503.707031 630.414062 Z M 634.5 630.414062 L 588.941406 630.414062 C 588.289062 630.414062 587.800781 630.90625 587.800781 631.558594 C 587.800781 632.210938 588.289062 632.699219 588.941406 632.699219 L 634.5 632.699219 C 635.152344 632.699219 635.644531 632.210938 635.644531 631.558594 C 635.644531 630.90625 635.152344 630.414062 634.5 630.414062 Z M 763.660156 630.414062 L 718.101562 630.414062 C 717.449219 630.414062 716.960938 630.90625 716.960938 631.558594 C 716.960938 632.210938 717.449219 632.699219 718.101562 632.699219 L 763.660156 632.699219 C 764.3125 632.699219 764.800781 632.210938 764.800781 631.558594 C 764.800781 630.90625 764.3125 630.414062 763.660156 630.414062 Z M 563.796875 193.785156 C 563.46875 194.277344 563.796875 195.09375 564.285156 195.253906 C 572.449219 199.5 585.511719 204.890625 601.1875 206.195312 C 601.84375 206.195312 602.660156 206.359375 603.476562 206.359375 C 606.742188 206.359375 610.988281 205.867188 616.046875 205.050781 C 616.703125 204.890625 617.027344 204.398438 617.027344 203.746094 C 616.863281 203.09375 616.375 202.765625 615.722656 202.765625 C 609.679688 203.910156 604.617188 204.234375 601.351562 204.074219 C 586.167969 202.765625 573.429688 197.542969 565.429688 193.296875 C 564.777344 193.132812 564.125 193.296875 563.796875 193.785156 Z M 582.246094 104.632812 C 581.59375 104.46875 581.105469 104.792969 580.777344 105.285156 C 579.472656 109.367188 576.371094 114.265625 573.59375 118.835938 C 568.859375 126.675781 563.796875 134.675781 565.101562 140.71875 C 566.734375 148.226562 575.226562 149.207031 579.308594 149.207031 C 580.613281 149.207031 581.429688 149.042969 581.59375 149.042969 C 582.246094 149.042969 582.574219 148.390625 582.574219 147.738281 C 582.574219 147.085938 581.921875 146.757812 581.269531 146.757812 C 581.105469 146.757812 568.859375 148.066406 567.226562 140.0625 C 566.082031 135.003906 570.816406 127.328125 575.390625 119.816406 C 578.328125 115.082031 581.429688 110.019531 582.902344 105.773438 C 583.226562 105.449219 582.902344 104.792969 582.246094 104.632812 Z M 652.625 163.578125 C 653.277344 163.742188 653.769531 163.414062 654.09375 162.925781 C 654.257812 162.269531 653.929688 161.78125 653.441406 161.453125 C 653.277344 161.453125 639.398438 156.71875 634.011719 170.109375 C 633.847656 170.761719 634.011719 171.414062 634.664062 171.578125 C 634.828125 171.578125 634.988281 171.578125 635.152344 171.578125 C 635.644531 171.578125 635.96875 171.25 636.132812 170.925781 C 636.621094 169.617188 637.277344 168.476562 637.929688 167.496094 C 639.5625 167.332031 641.359375 167.660156 642.664062 168.640625 C 642.828125 168.800781 642.992188 168.800781 643.316406 168.800781 C 643.644531 168.800781 644.132812 168.640625 644.296875 168.3125 C 644.625 167.824219 644.460938 167.167969 643.96875 166.84375 C 642.828125 166.191406 641.519531 165.699219 640.050781 165.535156 C 645.113281 161.128906 652.296875 163.414062 652.625 163.578125 Z M 561.019531 59.074219 C 586.003906 72.625 622.742188 97.9375 650.992188 128.144531 C 651.15625 128.308594 651.480469 128.472656 651.808594 128.472656 C 652.136719 128.472656 652.296875 128.308594 652.625 128.144531 C 653.113281 127.65625 653.113281 127 652.625 126.511719 C 624.050781 96.304688 587.148438 70.832031 562 57.113281 C 561.511719 56.789062 560.855469 56.949219 560.53125 57.605469 C 560.203125 58.09375 560.53125 58.910156 561.019531 59.074219 Z M 520.527344 51.726562 C 520.6875 51.5625 537.34375 44.050781 606.902344 93.039062 C 607.066406 93.199219 607.394531 93.199219 607.558594 93.199219 C 607.882812 93.199219 608.210938 93.039062 608.535156 92.710938 C 608.863281 92.222656 608.699219 91.566406 608.210938 91.078125 C 536.691406 40.785156 520.199219 49.277344 519.546875 49.601562 C 519.054688 49.929688 518.894531 50.582031 519.054688 51.074219 C 519.21875 51.890625 519.871094 52.050781 520.527344 51.726562 Z M 513.339844 112.632812 C 513.015625 113.121094 512.6875 113.613281 512.359375 114.265625 C 511.382812 116.714844 512.199219 118.835938 514.15625 119.980469 C 516.117188 121.121094 518.566406 120.796875 521.34375 119.980469 C 521.015625 120.304688 520.851562 120.796875 520.6875 121.121094 L 520.527344 121.285156 C 520.035156 122.59375 519.054688 125.367188 521.667969 127.816406 C 522.8125 128.796875 524.117188 129.289062 525.425781 129.289062 C 530.324219 129.289062 535.546875 123.734375 536.199219 122.917969 C 537.179688 121.9375 539.140625 119.652344 541.261719 116.550781 C 541.589844 116.0625 541.425781 115.40625 540.9375 114.917969 C 540.445312 114.589844 539.792969 114.753906 539.304688 115.246094 C 537.179688 118.183594 535.382812 120.304688 534.40625 121.285156 C 531.792969 124.226562 526.078125 128.796875 522.976562 126.019531 C 521.503906 124.714844 521.832031 123.410156 522.484375 121.9375 L 522.648438 121.613281 C 522.8125 121.121094 523.136719 120.632812 523.792969 120.304688 C 526.402344 118.671875 528.851562 116.714844 530.648438 114.917969 C 532.445312 113.613281 534.566406 111.488281 536.363281 108.386719 C 536.691406 107.898438 536.527344 107.242188 536.039062 106.917969 C 536.039062 106.917969 536.039062 106.917969 535.875 106.753906 C 535.875 106.753906 535.710938 106.753906 535.710938 106.753906 C 535.546875 106.753906 535.546875 106.753906 535.382812 106.589844 C 535.058594 106.589844 534.566406 106.753906 534.242188 107.082031 C 534.242188 107.082031 534.078125 107.242188 533.914062 107.570312 C 530.324219 112.46875 519.054688 120.144531 514.972656 117.695312 C 514.15625 117.203125 513.339844 116.550781 514.15625 114.589844 C 514.484375 113.613281 515.300781 112.796875 515.953125 112.46875 C 522.160156 108.550781 525.914062 104.140625 527.546875 101.691406 C 529.015625 100.058594 530.324219 97.9375 531.628906 95.648438 C 531.957031 95.160156 531.628906 94.34375 531.140625 94.179688 C 530.648438 93.855469 529.832031 94.179688 529.667969 94.671875 C 529.015625 95.976562 528.199219 97.28125 527.382812 98.425781 C 527.21875 98.589844 526.894531 98.753906 526.730469 98.914062 C 526.730469 99.078125 523.953125 103.976562 515.300781 108.714844 C 511.21875 111 507.625 111.488281 505.667969 110.183594 C 504.851562 109.691406 504.359375 108.875 504.359375 107.898438 C 504.359375 106.917969 505.011719 106.101562 506.15625 105.449219 C 508.769531 104.140625 512.359375 101.527344 515.464844 99.078125 C 517.097656 98.097656 519.21875 96.628906 521.179688 94.507812 C 521.503906 94.179688 521.832031 93.855469 522.160156 93.527344 C 522.320312 93.363281 522.320312 93.199219 522.320312 93.039062 C 523.464844 91.566406 524.445312 90.097656 525.097656 88.300781 C 525.261719 87.648438 525.097656 86.996094 524.445312 86.832031 C 523.792969 86.667969 523.136719 86.832031 522.976562 87.484375 C 522.160156 89.445312 521.179688 91.078125 519.871094 92.382812 C 519.054688 93.039062 517.75 94.179688 516.117188 95.648438 C 512.6875 97.9375 508.605469 100.058594 505.011719 101.039062 C 502.890625 101.691406 501.257812 100.546875 500.769531 99.242188 C 500.113281 97.609375 500.441406 94.996094 503.871094 92.875 C 509.257812 89.609375 512.6875 85.851562 514.484375 83.730469 C 514.648438 83.566406 518.566406 77.6875 517.914062 73.441406 C 517.75 72.789062 517.261719 72.464844 516.605469 72.464844 C 515.953125 72.625 515.628906 73.117188 515.628906 73.769531 C 516.117188 76.546875 513.503906 80.953125 512.523438 82.425781 C 510.890625 84.382812 507.625 87.976562 502.5625 90.914062 C 498.15625 93.527344 497.339844 97.445312 498.480469 100.058594 C 499.625 102.507812 502.074219 103.816406 504.851562 103.324219 C 503.054688 104.140625 501.910156 105.773438 501.746094 107.570312 C 501.585938 109.367188 502.5625 110.835938 504.035156 111.816406 C 506.972656 113.773438 509.910156 113.773438 513.339844 112.632812 Z M 657.851562 105.773438 C 657.359375 105.609375 656.542969 105.773438 656.378906 106.425781 C 654.746094 110.183594 652.949219 113.613281 650.664062 116.878906 C 650.339844 117.367188 650.5 118.019531 650.992188 118.511719 C 651.15625 118.671875 651.480469 118.671875 651.644531 118.671875 C 651.972656 118.671875 652.296875 118.511719 652.625 118.183594 C 654.910156 114.753906 656.871094 111.164062 658.503906 107.40625 C 658.667969 106.753906 658.339844 106.101562 657.851562 105.773438 Z M 664.707031 85.851562 L 657.359375 77.363281 C 657.195312 77.035156 651.316406 70.992188 644.625 70.175781 C 642.175781 69.851562 639.234375 71.15625 637.277344 73.28125 C 635.804688 75.074219 635.152344 77.035156 635.644531 78.996094 C 636.949219 84.21875 645.277344 93.691406 656.054688 102.34375 C 657.195312 104.304688 667.648438 119.816406 682.179688 124.714844 C 682.34375 124.714844 682.34375 124.714844 682.507812 124.714844 C 682.996094 124.714844 683.484375 124.386719 683.648438 123.898438 C 683.8125 123.246094 683.484375 122.753906 682.996094 122.429688 C 668.625 117.695312 658.011719 101.039062 658.011719 100.875 C 658.011719 100.710938 657.851562 100.710938 657.6875 100.546875 C 647.5625 92.546875 639.070312 82.914062 637.929688 78.339844 C 637.601562 76.707031 638.417969 75.402344 639.070312 74.75 C 640.542969 73.117188 642.664062 72.136719 644.460938 72.464844 C 650.339844 73.117188 655.726562 78.832031 655.726562 78.832031 L 663.566406 87.8125 C 663.890625 88.140625 664.382812 88.300781 664.871094 88.140625 C 682.179688 81.769531 691.976562 97.773438 692.304688 98.425781 C 692.628906 98.914062 693.28125 99.078125 693.773438 98.753906 C 694.261719 98.425781 694.425781 97.773438 694.097656 97.28125 C 693.9375 97.121094 683.324219 79.484375 664.707031 85.851562 Z M 710.429688 81.933594 C 710.265625 81.933594 708.304688 81.933594 707.488281 78.832031 C 707.324219 78.339844 707 78.015625 706.507812 78.015625 C 705.367188 70.832031 698.835938 60.21875 697.203125 57.605469 C 696.875 57.113281 696.222656 56.949219 695.730469 57.277344 C 695.242188 57.605469 695.078125 58.257812 695.40625 58.746094 C 700.46875 66.75 706.507812 79.320312 703.898438 82.097656 C 703.242188 82.75 702.425781 83.078125 701.609375 83.078125 C 698.671875 83.078125 695.078125 79.8125 693.28125 78.015625 C 696.710938 71.15625 687.40625 56.949219 686.261719 55.316406 C 685.933594 54.828125 685.28125 54.664062 684.628906 54.992188 C 684.140625 55.316406 683.976562 55.972656 684.300781 56.625 C 687.242188 61.035156 694.097656 73.117188 690.832031 77.6875 C 690.179688 78.503906 689.527344 78.996094 688.546875 78.996094 C 684.957031 79.320312 679.402344 74.421875 677.445312 72.464844 C 679.730469 65.769531 673.035156 54.011719 672.707031 53.359375 C 672.382812 52.867188 671.730469 52.707031 671.238281 52.867188 C 670.75 53.195312 670.585938 53.847656 670.75 54.339844 C 673.199219 58.746094 678.585938 70.667969 673.6875 73.769531 C 672.871094 74.257812 672.21875 74.257812 671.238281 74.097656 C 666.503906 72.625 660.953125 61.851562 659.15625 57.765625 C 658.828125 57.277344 658.175781 56.949219 657.6875 57.113281 C 657.195312 57.441406 656.871094 58.09375 657.035156 58.582031 C 657.359375 59.238281 663.890625 74.097656 670.421875 76.054688 C 670.914062 76.21875 671.566406 76.382812 672.054688 76.382812 C 673.035156 76.382812 673.851562 76.054688 674.667969 75.566406 C 675.320312 75.238281 675.648438 74.75 676.136719 74.257812 C 677.933594 76.054688 683.484375 81.117188 688.058594 81.117188 C 688.222656 81.117188 688.382812 81.117188 688.382812 81.117188 C 689.527344 81.117188 690.671875 80.628906 691.488281 79.8125 C 693.28125 81.609375 697.367188 85.199219 701.121094 85.199219 C 702.589844 85.199219 703.898438 84.710938 705.039062 83.566406 C 705.53125 83.078125 705.855469 82.425781 706.019531 81.769531 C 707.488281 83.894531 709.285156 84.058594 709.9375 84.058594 C 710.101562 84.058594 710.101562 84.058594 710.101562 84.058594 C 710.753906 84.058594 711.082031 83.402344 711.082031 82.914062 C 711.570312 82.261719 711.082031 81.769531 710.429688 81.933594 Z M 422.878906 85.199219 C 423.042969 85.199219 423.207031 85.199219 423.207031 85.199219 C 423.53125 85.035156 453.414062 73.28125 465.824219 42.910156 C 465.988281 42.253906 465.824219 41.601562 465.171875 41.4375 C 464.519531 41.277344 463.863281 41.4375 463.703125 42.09375 C 451.78125 71.484375 422.714844 82.914062 422.390625 83.078125 C 421.738281 83.242188 421.574219 83.894531 421.738281 84.546875 C 422.0625 85.035156 422.554688 85.199219 422.878906 85.199219 Z M 556.449219 170.273438 C 556.613281 170.273438 556.613281 170.273438 556.449219 170.273438 C 557.101562 170.273438 557.589844 169.78125 557.589844 169.292969 C 557.589844 168.640625 559.0625 153.128906 574.410156 152.148438 C 575.0625 152.148438 575.554688 151.496094 575.390625 151.003906 C 575.390625 150.351562 574.738281 149.863281 574.246094 150.023438 C 556.9375 151.332031 555.304688 169.128906 555.304688 169.292969 C 555.46875 169.78125 555.957031 170.273438 556.449219 170.273438 Z M 604.617188 484.597656 C 604.617188 483.945312 603.964844 483.457031 603.476562 483.621094 L 574.898438 485.578125 C 574.246094 485.578125 573.757812 486.230469 573.921875 486.722656 C 573.921875 487.375 574.410156 487.703125 575.0625 487.703125 L 603.636719 485.742188 C 604.292969 485.742188 604.617188 485.253906 604.617188 484.597656 Z M 683.484375 424.019531 C 683.160156 424.347656 645.277344 449.984375 593.679688 452.433594 C 542.242188 454.71875 509.75 428.101562 509.421875 427.777344 C 508.933594 427.449219 508.277344 427.449219 507.789062 427.9375 C 507.460938 428.429688 507.460938 429.082031 507.953125 429.570312 C 508.277344 429.898438 538.8125 454.882812 587.308594 454.882812 C 589.433594 454.882812 591.554688 454.882812 593.679688 454.71875 C 645.765625 452.433594 684.140625 426.304688 684.628906 425.980469 C 685.117188 425.652344 685.28125 425 684.957031 424.347656 C 684.628906 423.695312 683.976562 423.695312 683.484375 424.019531 Z M 671.890625 304.65625 C 672.054688 304.820312 672.21875 304.820312 672.546875 304.820312 C 672.871094 304.820312 673.199219 304.65625 673.523438 304.332031 C 673.851562 303.839844 673.6875 303.1875 673.199219 302.859375 C 635.804688 278.203125 648.214844 227.914062 648.378906 227.421875 C 648.542969 226.769531 648.214844 226.28125 647.5625 226.117188 C 646.910156 225.953125 646.417969 226.28125 646.257812 226.933594 C 645.929688 227.257812 633.03125 279.183594 671.890625 304.65625 Z M 544.039062 221.542969 C 541.101562 288.164062 516.769531 315.109375 516.605469 315.433594 C 516.117188 315.925781 516.28125 316.578125 516.605469 317.066406 C 516.769531 317.230469 517.097656 317.394531 517.421875 317.394531 C 517.75 317.394531 518.074219 317.230469 518.238281 317.066406 C 519.21875 315.925781 543.386719 289.144531 546.324219 221.707031 C 546.324219 221.054688 545.835938 220.566406 545.183594 220.566406 C 544.691406 220.566406 544.203125 221.054688 544.039062 221.542969 Z M 567.0625 383.035156 C 567.390625 383.035156 567.550781 382.871094 567.878906 382.707031 C 583.226562 368.503906 602.984375 359.523438 623.722656 357.398438 C 624.375 357.398438 624.867188 356.746094 624.703125 356.09375 C 624.703125 355.441406 624.050781 354.949219 623.394531 355.113281 C 602.167969 357.398438 581.921875 366.542969 566.246094 381.074219 C 565.757812 381.566406 565.757812 382.21875 566.246094 382.707031 C 566.410156 382.871094 566.734375 383.035156 567.0625 383.035156 Z M 594.65625 386.789062 C 594.820312 386.789062 594.984375 386.789062 595.148438 386.628906 C 612.128906 379.117188 629.925781 373.5625 648.050781 370.136719 C 648.707031 369.972656 649.03125 369.480469 648.867188 368.828125 C 648.707031 368.175781 648.214844 367.847656 647.5625 368.011719 C 629.273438 371.441406 611.148438 376.992188 594.167969 384.667969 C 593.679688 384.996094 593.351562 385.648438 593.515625 386.136719 C 593.839844 386.628906 594.167969 386.789062 594.65625 386.789062 Z M 143.167969 544.6875 C 141.535156 541.261719 139.902344 537.832031 138.109375 534.890625 C 135.984375 536.035156 133.699219 537.015625 131.414062 537.996094 C 133.207031 541.261719 135.167969 545.015625 137.292969 549.097656 C 139.25 547.464844 141.210938 545.996094 143.167969 544.6875 Z M 594.984375 135.328125 C 593.679688 138.429688 594.332031 141.695312 596.78125 142.839844 C 599.066406 143.820312 602.167969 142.1875 603.476562 139.246094 C 604.78125 136.144531 604.128906 132.878906 601.679688 131.738281 C 599.394531 130.59375 596.289062 132.226562 594.984375 135.328125 Z M 563.796875 123.734375 C 565.101562 120.960938 564.285156 117.855469 562.164062 117.039062 C 560.039062 116.222656 557.265625 117.53125 556.121094 120.304688 C 554.980469 123.082031 555.632812 126.183594 557.753906 127 C 559.878906 127.816406 562.652344 126.511719 563.796875 123.734375 Z M 604.945312 118.019531 C 612.945312 123.570312 616.375 133.371094 618.171875 134.839844 C 619.3125 135.65625 620.621094 135.003906 621.109375 134.023438 C 621.601562 132.714844 621.761719 130.59375 621.4375 128.796875 C 620.128906 120.46875 615.558594 112.957031 609.84375 110.507812 C 603.636719 107.570312 596.945312 112.46875 604.945312 118.019531 Z M 569.511719 91.078125 C 566.734375 89.933594 562 87.648438 559.386719 90.425781 C 553.019531 96.792969 554.980469 100.058594 554.980469 100.058594 C 558.570312 99.40625 562.980469 99.078125 567.226562 100.058594 C 576.859375 102.019531 575.714844 93.691406 569.511719 91.078125 Z M 647.398438 129.125 C 647.398438 129.125 630.742188 138.269531 641.847656 150.351562 C 641.847656 150.351562 659.972656 149.863281 657.195312 166.027344 C 654.257812 182.191406 635.644531 180.886719 635.644531 180.886719 C 635.644531 180.886719 619.640625 193.132812 622.089844 201.460938 C 622.089844 201.460938 633.355469 213.707031 654.09375 194.929688 C 654.09375 194.929688 673.199219 188.722656 675.484375 157.535156 C 675.484375 157.535156 663.238281 138.757812 647.398438 129.125 Z M 551.386719 223.175781 C 550.734375 223.175781 550.242188 223.832031 550.40625 224.484375 C 550.40625 224.648438 552.203125 242.28125 558.570312 259.261719 C 566.898438 281.632812 579.144531 293.390625 594.167969 293.390625 C 594.496094 293.390625 594.984375 293.390625 595.3125 293.390625 C 633.847656 291.757812 640.867188 248.8125 643.480469 232.648438 L 643.808594 230.6875 C 643.96875 230.035156 643.480469 229.546875 642.828125 229.382812 C 642.175781 229.21875 641.683594 229.707031 641.519531 230.363281 L 641.195312 232.320312 C 638.417969 249.464844 631.722656 289.636719 595.148438 291.105469 C 594.820312 291.105469 594.332031 291.105469 594.003906 291.105469 C 559.714844 291.105469 552.53125 224.808594 552.53125 224.15625 C 552.53125 223.503906 552.039062 223.175781 551.386719 223.175781 Z M 201.460938 612.78125 C 185.625 618.820312 165.214844 619.148438 164.886719 619.148438 C 164.234375 619.148438 163.742188 619.636719 163.742188 620.289062 C 163.742188 620.945312 164.234375 621.433594 164.886719 621.433594 C 165.050781 621.433594 185.789062 621.105469 202.117188 614.902344 C 202.769531 614.738281 202.933594 614.085938 202.769531 613.433594 C 202.605469 612.78125 201.953125 612.617188 201.460938 612.78125 Z M 201.460938 612.78125 " fill-opacity="1" fill-rule="nonzero"/></svg>