<svg xmlns="http://www.w3.org/2000/svg" xmlns:xlink="http://www.w3.org/1999/xlink" width="3" zoomAndPan="magnify" viewBox="0 0 2.25 69.749997" height="93" preserveAspectRatio="xMidYMid meet" version="1.0"><defs><g/><clipPath id="0f721c03f9"><path d="M 0 10 L 1.6875 10 L 1.6875 60.9375 L 0 60.9375 Z M 0 10 " clip-rule="nonzero"/></clipPath></defs><g fill="#9bffec" fill-opacity="1"><g transform="translate(0.469715, 10.44475)"><g><path d="M 0.109375 -0.078125 C 0.109375 -0.109375 0.113281 -0.128906 0.125 -0.140625 C 0.144531 -0.160156 0.171875 -0.171875 0.203125 -0.171875 C 0.222656 -0.171875 0.238281 -0.160156 0.25 -0.140625 C 0.269531 -0.128906 0.28125 -0.109375 0.28125 -0.078125 C 0.28125 -0.046875 0.269531 -0.0195312 0.25 0 C 0.238281 0.0078125 0.222656 0.015625 0.203125 0.015625 C 0.171875 0.015625 0.144531 0.0078125 0.125 0 C 0.113281 -0.0195312 0.109375 -0.046875 0.109375 -0.078125 Z M 0.109375 -0.078125 "/></g></g></g><g clip-path="url(#0f721c03f9)"><path fill="#9bffec" d="M 0.585938 60.378906 L 0.585938 59.816406 L 1.148438 59.816406 L 1.148438 60.378906 M 0.585938 59.253906 L 0.585938 58.691406 L 1.148438 58.691406 L 1.148438 59.253906 M 0.585938 58.128906 L 0.585938 57.566406 L 1.148438 57.566406 L 1.148438 58.128906 M 0.585938 57.003906 L 0.585938 56.441406 L 1.148438 56.441406 L 1.148438 57.003906 M 0.585938 55.878906 L 0.585938 55.316406 L 1.148438 55.316406 L 1.148438 55.878906 M 0.585938 54.753906 L 0.585938 54.191406 L 1.148438 54.191406 L 1.148438 54.753906 M 0.585938 53.628906 L 0.585938 53.066406 L 1.148438 53.066406 L 1.148438 53.628906 M 0.585938 52.503906 L 0.585938 51.941406 L 1.148438 51.941406 L 1.148438 52.503906 M 0.585938 51.378906 L 0.585938 50.816406 L 1.148438 50.816406 L 1.148438 51.378906 M 0.585938 50.253906 L 0.585938 49.691406 L 1.148438 49.691406 L 1.148438 50.253906 M 0.585938 49.128906 L 0.585938 48.566406 L 1.148438 48.566406 L 1.148438 49.128906 M 0.585938 48.003906 L 0.585938 47.441406 L 1.148438 47.441406 L 1.148438 48.003906 M 0.585938 46.878906 L 0.585938 46.316406 L 1.148438 46.316406 L 1.148438 46.878906 M 0.585938 45.753906 L 0.585938 45.191406 L 1.148438 45.191406 L 1.148438 45.753906 M 0.585938 44.628906 L 0.585938 44.066406 L 1.148438 44.066406 L 1.148438 44.628906 M 0.585938 43.503906 L 0.585938 42.941406 L 1.148438 42.941406 L 1.148438 43.503906 M 0.585938 42.378906 L 0.585938 41.816406 L 1.148438 41.816406 L 1.148438 42.378906 M 0.585938 41.253906 L 0.585938 40.691406 L 1.148438 40.691406 L 1.148438 41.253906 M 0.585938 40.128906 L 0.585938 39.566406 L 1.148438 39.566406 L 1.148438 40.128906 M 0.585938 39.003906 L 0.585938 38.441406 L 1.148438 38.441406 L 1.148438 39.003906 M 0.585938 37.878906 L 0.585938 37.316406 L 1.148438 37.316406 L 1.148438 37.878906 M 0.585938 36.753906 L 0.585938 36.191406 L 1.148438 36.191406 L 1.148438 36.753906 M 0.585938 35.628906 L 0.585938 35.066406 L 1.148438 35.066406 L 1.148438 35.628906 M 0.585938 34.503906 L 0.585938 33.941406 L 1.148438 33.941406 L 1.148438 34.503906 M 0.585938 33.378906 L 0.585938 32.816406 L 1.148438 32.816406 L 1.148438 33.378906 M 0.585938 32.253906 L 0.585938 31.691406 L 1.148438 31.691406 L 1.148438 32.253906 M 0.585938 31.128906 L 0.585938 30.566406 L 1.148438 30.566406 L 1.148438 31.128906 M 0.585938 30.003906 L 0.585938 29.441406 L 1.148438 29.441406 L 1.148438 30.003906 M 0.585938 28.878906 L 0.585938 28.316406 L 1.148438 28.316406 L 1.148438 28.878906 M 0.585938 27.753906 L 0.585938 27.191406 L 1.148438 27.191406 L 1.148438 27.753906 M 0.585938 26.628906 L 0.585938 26.066406 L 1.148438 26.066406 L 1.148438 26.628906 M 0.585938 25.503906 L 0.585938 24.941406 L 1.148438 24.941406 L 1.148438 25.503906 M 0.585938 24.378906 L 0.585938 23.816406 L 1.148438 23.816406 L 1.148438 24.378906 M 0.585938 23.253906 L 0.585938 22.691406 L 1.148438 22.691406 L 1.148438 23.253906 M 0.585938 22.128906 L 0.585938 21.566406 L 1.148438 21.566406 L 1.148438 22.128906 M 0.585938 21.003906 L 0.585938 20.441406 L 1.148438 20.441406 L 1.148438 21.003906 M 0.585938 19.878906 L 0.585938 19.316406 L 1.148438 19.316406 L 1.148438 19.878906 M 0.585938 18.753906 L 0.585938 18.191406 L 1.148438 18.191406 L 1.148438 18.753906 M 0.585938 17.628906 L 0.585938 17.066406 L 1.148438 17.066406 L 1.148438 17.628906 M 0.585938 16.503906 L 0.585938 15.941406 L 1.148438 15.941406 L 1.148438 16.503906 M 0.585938 15.378906 L 0.585938 14.816406 L 1.148438 14.816406 L 1.148438 15.378906 M 0.585938 14.253906 L 0.585938 13.691406 L 1.148438 13.691406 L 1.148438 14.253906 M 0.585938 13.128906 L 0.585938 12.566406 L 1.148438 12.566406 L 1.148438 13.128906 M 0.585938 12.003906 L 0.585938 11.441406 L 1.148438 11.441406 L 1.148438 12.003906 M 0.585938 10.878906 L 0.585938 10.316406 L 1.148438 10.316406 L 1.148438 10.878906 " fill-opacity="1" fill-rule="nonzero"/></g></svg>