<svg xmlns="http://www.w3.org/2000/svg" xmlns:xlink="http://www.w3.org/1999/xlink" width="1080" zoomAndPan="magnify" viewBox="0 0 810 809.999993" height="1080" preserveAspectRatio="xMidYMid meet" version="1.0"><defs><g/><clipPath id="19809f80f7"><path d="M 82.347656 0.00390625 L 727.347656 0.00390625 L 727.347656 810 L 82.347656 810 Z M 82.347656 0.00390625 " clip-rule="nonzero"/></clipPath><clipPath id="09033fe033"><path d="M 119.847656 0.00390625 L 690.140625 0.00390625 C 700.089844 0.00390625 709.625 3.957031 716.660156 10.988281 C 723.691406 18.023438 727.640625 27.558594 727.640625 37.503906 L 727.640625 772.496094 C 727.640625 782.441406 723.691406 791.976562 716.660156 799.011719 C 709.625 806.042969 700.089844 809.996094 690.140625 809.996094 L 119.847656 809.996094 C 109.902344 809.996094 100.363281 806.042969 93.332031 799.011719 C 86.300781 791.976562 82.347656 782.441406 82.347656 772.496094 L 82.347656 37.503906 C 82.347656 27.558594 86.300781 18.023438 93.332031 10.988281 C 100.363281 3.957031 109.902344 0.00390625 119.847656 0.00390625 Z M 119.847656 0.00390625 " clip-rule="nonzero"/></clipPath><clipPath id="06ca42a8b6"><path d="M 245 120.257812 L 399 120.257812 L 399 321 L 245 321 Z M 245 120.257812 " clip-rule="nonzero"/></clipPath><clipPath id="6dd9b1c3e3"><path d="M 303 242 L 554 242 L 554 351.257812 L 303 351.257812 Z M 303 242 " clip-rule="nonzero"/></clipPath></defs><g clip-path="url(#19809f80f7)"><g clip-path="url(#09033fe033)"><path stroke-linecap="butt" transform="matrix(0.75, 0, 0, 0.75, 82.349025, 0.00567356)" fill="none" stroke-linejoin="miter" d="M 49.998178 -0.00235641 L 810.388841 -0.00235641 C 823.654466 -0.00235641 836.368009 5.268477 845.748218 14.643478 C 855.123218 24.023686 860.388843 36.737229 860.388843 49.997646 L 860.388843 1029.987279 C 860.388843 1043.247696 855.123218 1055.966447 845.748218 1065.341447 C 836.368009 1074.716448 823.654466 1079.987281 810.388841 1079.987281 L 49.998178 1079.987281 C 36.73776 1079.987281 24.01901 1074.716448 14.644009 1065.341447 C 5.269009 1055.966447 -0.00182494 1043.247696 -0.00182494 1029.987279 L -0.00182494 49.997646 C -0.00182494 36.737229 5.269009 24.023686 14.644009 14.643478 C 24.01901 5.268477 36.73776 -0.00235641 49.998178 -0.00235641 Z M 49.998178 -0.00235641 " stroke="#00425c" stroke-width="8" stroke-opacity="1" stroke-miterlimit="4"/></g></g><path fill="#00425c" d="M 364.457031 203.988281 C 364.9375 203.988281 365.664062 203.988281 366.144531 203.746094 C 368.558594 202.78125 369.765625 199.886719 368.800781 197.472656 C 361.800781 179.375 352.875 163.933594 343.945312 154.039062 C 342.257812 152.109375 339.121094 151.867188 337.1875 153.800781 C 335.257812 155.488281 335.019531 158.625 336.949219 160.554688 C 344.910156 169.484375 353.355469 183.960938 359.871094 200.851562 C 360.59375 203.023438 362.527344 203.988281 364.457031 203.988281 Z M 364.457031 203.988281 " fill-opacity="1" fill-rule="nonzero"/><g clip-path="url(#06ca42a8b6)"><path fill="#00425c" d="M 294.238281 320.054688 C 295.445312 316.675781 297.375 314.261719 300.269531 312.089844 C 273.726562 302.679688 254.664062 277.585938 254.664062 247.90625 C 254.664062 210.261719 284.828125 129.910156 322.230469 129.910156 C 356.492188 129.910156 384.726562 197.714844 389.070312 237.53125 C 392.207031 237.046875 395.34375 236.5625 398.71875 236.082031 C 396.308594 216.535156 388.828125 189.753906 378.691406 169.242188 C 362.527344 137.632812 342.738281 120.257812 322.230469 120.257812 C 301.71875 120.257812 281.691406 137.632812 265.765625 169.242188 C 253.457031 193.855469 245.011719 226.914062 245.011719 247.90625 C 245.011719 280.722656 265.523438 308.710938 294.238281 320.054688 Z M 294.238281 320.054688 " fill-opacity="1" fill-rule="nonzero"/></g><g clip-path="url(#6dd9b1c3e3)"><path fill="#00425c" d="M 552.910156 282.894531 C 549.289062 274.207031 539.15625 274.207031 529.988281 274.207031 L 528.054688 274.207031 C 525.886719 274.207031 521.300781 274.207031 517.921875 273.722656 C 519.371094 276.859375 520.335938 280.238281 521.058594 283.617188 C 523.230469 283.617188 525.644531 283.859375 528.054688 283.859375 C 528.78125 283.859375 529.503906 283.859375 530.226562 283.859375 C 541.808594 283.859375 550.738281 284.101562 538.433594 296.890625 C 518.644531 316.917969 564.976562 332.601562 519.371094 332.84375 C 481.246094 333.082031 488.726562 335.015625 440.222656 340.5625 C 430.570312 341.769531 423.574219 342.253906 418.507812 342.253906 C 386.898438 342.253906 437.328125 322.226562 385.207031 322.226562 C 372.902344 322.226562 354.804688 323.433594 328.503906 326.085938 C 321.746094 326.808594 317.644531 327.050781 315.230469 327.050781 C 295.203125 327.050781 405.476562 304.371094 365.902344 285.546875 C 330.191406 268.65625 381.589844 258.28125 400.410156 255.144531 C 404.753906 250.320312 410.0625 245.976562 415.613281 242.597656 C 410.304688 243.5625 406.441406 244.285156 404.996094 244.527344 C 402.339844 244.769531 390.757812 246.457031 378.691406 249.59375 C 356.011719 255.144531 345.875 261.902344 344.1875 271.792969 C 342.257812 284.824219 356.976562 291.820312 361.800781 294.234375 C 362.285156 294.476562 362.765625 294.71875 363.007812 294.957031 C 361.078125 296.40625 357.21875 298.820312 349.976562 301.957031 C 341.292969 305.816406 331.15625 309.195312 323.195312 311.847656 C 319.09375 313.296875 315.472656 314.503906 313.058594 315.46875 C 309.921875 316.675781 301.960938 319.8125 303.167969 328.015625 C 303.648438 330.671875 305.578125 336.460938 315.230469 336.460938 C 318.125 336.460938 322.46875 336.222656 329.710938 335.496094 C 353.839844 332.84375 372.417969 331.636719 385.207031 331.636719 C 391.722656 331.636719 396.066406 331.878906 398.71875 332.359375 C 397.515625 335.496094 396.546875 340.082031 399.445312 344.425781 C 403.304688 350.699219 410.785156 351.421875 418.507812 351.421875 C 424.058594 351.421875 431.535156 350.941406 441.1875 349.734375 C 458.320312 347.804688 468.695312 346.113281 476.417969 344.90625 C 490.171875 342.734375 495.238281 342.011719 519.371094 341.769531 C 534.332031 341.769531 543.980469 340.082031 548.085938 332.84375 C 552.1875 325.84375 548.324219 319.328125 545.914062 314.746094 C 542.050781 307.746094 541.8125 306.300781 545.1875 302.679688 C 548.566406 300.027344 556.53125 291.820312 552.910156 282.894531 Z M 552.910156 282.894531 " fill-opacity="1" fill-rule="nonzero"/></g><path fill="#00425c" d="M 508.269531 257.558594 C 511.648438 261.660156 514.542969 266.003906 516.714844 270.585938 C 517.921875 267.210938 519.851562 260.453125 515.992188 254.660156 C 514.0625 251.765625 510.199219 248.628906 502.960938 248.386719 C 501.753906 248.386719 500.789062 248.386719 499.582031 248.628906 C 502.480469 251.523438 505.375 254.421875 508.269531 257.558594 Z M 508.269531 257.558594 " fill-opacity="1" fill-rule="nonzero"/><path fill="#00425c" d="M 453.011719 241.390625 C 434.191406 241.390625 417.058594 249.351562 405.476562 263.105469 C 397.273438 273 392.929688 284.824219 392.929688 297.371094 C 392.929688 300.265625 394.136719 302.921875 396.308594 304.609375 C 407.890625 314.503906 428.882812 320.296875 453.011719 320.296875 C 476.902344 320.296875 498.136719 314.503906 509.71875 304.609375 C 511.890625 302.679688 513.097656 300.027344 513.097656 297.371094 C 513.097656 284.824219 508.753906 273 500.546875 263.105469 C 489.207031 249.113281 471.832031 241.390625 453.011719 241.390625 Z M 503.445312 297.128906 C 494.273438 305.09375 475.210938 310.402344 453.011719 310.402344 C 431.054688 310.402344 411.992188 304.851562 402.582031 297.128906 C 402.582031 286.511719 406.441406 276.859375 412.957031 269.140625 C 422.125 258.039062 436.605469 250.800781 453.011719 250.800781 C 469.421875 250.800781 483.898438 258.039062 493.066406 269.140625 C 499.582031 277.101562 503.445312 286.753906 503.445312 297.128906 Z M 503.445312 297.128906 " fill-opacity="1" fill-rule="nonzero"/><path fill="#00425c" d="M 453.011719 259.488281 C 450.359375 259.488281 448.1875 261.660156 448.1875 264.3125 C 448.1875 266.96875 450.359375 269.140625 453.011719 269.140625 C 462.90625 269.140625 471.832031 273.242188 477.867188 280.480469 C 478.832031 281.6875 480.28125 282.167969 481.484375 282.167969 C 482.449219 282.167969 483.65625 281.6875 484.621094 280.964844 C 486.792969 279.273438 487.035156 276.136719 485.347656 274.207031 C 477.625 264.796875 465.800781 259.488281 453.011719 259.488281 Z M 453.011719 259.488281 " fill-opacity="1" fill-rule="nonzero"/><g fill="#00425c" fill-opacity="1"><g transform="translate(339.369127, 528.570809)"><g><path d="M 22.46875 0.40625 C 18.695312 0.40625 15.242188 -0.46875 12.109375 -2.21875 C 8.972656 -3.96875 6.484375 -6.410156 4.640625 -9.546875 C 2.796875 -12.679688 1.875 -16.207031 1.875 -20.125 C 1.875 -24.039062 2.796875 -27.554688 4.640625 -30.671875 C 6.484375 -33.785156 8.972656 -36.21875 12.109375 -37.96875 C 15.242188 -39.71875 18.695312 -40.59375 22.46875 -40.59375 C 26.226562 -40.59375 29.675781 -39.71875 32.8125 -37.96875 C 35.945312 -36.21875 38.414062 -33.785156 40.21875 -30.671875 C 42.03125 -27.554688 42.9375 -24.039062 42.9375 -20.125 C 42.9375 -16.207031 42.019531 -12.679688 40.1875 -9.546875 C 38.363281 -6.410156 35.894531 -3.96875 32.78125 -2.21875 C 29.664062 -0.46875 26.226562 0.40625 22.46875 0.40625 Z M 22.46875 -8.5 C 25.65625 -8.5 28.207031 -9.5625 30.125 -11.6875 C 32.050781 -13.8125 33.015625 -16.625 33.015625 -20.125 C 33.015625 -23.65625 32.050781 -26.472656 30.125 -28.578125 C 28.207031 -30.691406 25.65625 -31.75 22.46875 -31.75 C 19.238281 -31.75 16.660156 -30.703125 14.734375 -28.609375 C 12.816406 -26.523438 11.859375 -23.695312 11.859375 -20.125 C 11.859375 -16.59375 12.816406 -13.769531 14.734375 -11.65625 C 16.660156 -9.550781 19.238281 -8.5 22.46875 -8.5 Z M 22.46875 -8.5 "/></g></g></g><g fill="#00425c" fill-opacity="1"><g transform="translate(384.180389, 528.570809)"><g><path d="M 41.109375 -40.03125 L 26.90625 0 L 14.703125 0 L 0.515625 -40.03125 L 10.890625 -40.03125 L 20.8125 -9.8125 L 30.78125 -40.03125 Z M 41.109375 -40.03125 "/></g></g></g><g fill="#00425c" fill-opacity="1"><g transform="translate(425.798989, 528.570809)"><g><path d="M 22.46875 0.40625 C 18.695312 0.40625 15.242188 -0.46875 12.109375 -2.21875 C 8.972656 -3.96875 6.484375 -6.410156 4.640625 -9.546875 C 2.796875 -12.679688 1.875 -16.207031 1.875 -20.125 C 1.875 -24.039062 2.796875 -27.554688 4.640625 -30.671875 C 6.484375 -33.785156 8.972656 -36.21875 12.109375 -37.96875 C 15.242188 -39.71875 18.695312 -40.59375 22.46875 -40.59375 C 26.226562 -40.59375 29.675781 -39.71875 32.8125 -37.96875 C 35.945312 -36.21875 38.414062 -33.785156 40.21875 -30.671875 C 42.03125 -27.554688 42.9375 -24.039062 42.9375 -20.125 C 42.9375 -16.207031 42.019531 -12.679688 40.1875 -9.546875 C 38.363281 -6.410156 35.894531 -3.96875 32.78125 -2.21875 C 29.664062 -0.46875 26.226562 0.40625 22.46875 0.40625 Z M 22.46875 -8.5 C 25.65625 -8.5 28.207031 -9.5625 30.125 -11.6875 C 32.050781 -13.8125 33.015625 -16.625 33.015625 -20.125 C 33.015625 -23.65625 32.050781 -26.472656 30.125 -28.578125 C 28.207031 -30.691406 25.65625 -31.75 22.46875 -31.75 C 19.238281 -31.75 16.660156 -30.703125 14.734375 -28.609375 C 12.816406 -26.523438 11.859375 -23.695312 11.859375 -20.125 C 11.859375 -16.59375 12.816406 -13.769531 14.734375 -11.65625 C 16.660156 -9.550781 19.238281 -8.5 22.46875 -8.5 Z M 22.46875 -8.5 "/></g></g></g><g fill="#00425c" fill-opacity="1"><g transform="translate(340.798814, 608.070805)"><g><path d="M 2.171875 -36.484375 L 2.171875 -41.21875 L 12.890625 -41.21875 L 12.890625 0 L 7.640625 0 L 7.640625 -36.484375 Z M 2.171875 -36.484375 "/></g></g></g><g fill="#00425c" fill-opacity="1"><g transform="translate(359.042584, 608.070805)"><g><path d="M 3.53125 -21.03125 C 3.53125 -27.570312 4.59375 -32.675781 6.71875 -36.34375 C 8.851562 -40.007812 12.582031 -41.84375 17.90625 -41.84375 C 23.1875 -41.84375 26.890625 -40.007812 29.015625 -36.34375 C 31.148438 -32.675781 32.21875 -27.570312 32.21875 -21.03125 C 32.21875 -14.382812 31.148438 -9.21875 29.015625 -5.53125 C 26.890625 -1.84375 23.1875 0 17.90625 0 C 12.582031 0 8.851562 -1.84375 6.71875 -5.53125 C 4.59375 -9.21875 3.53125 -14.382812 3.53125 -21.03125 Z M 27.078125 -21.03125 C 27.078125 -24.34375 26.859375 -27.144531 26.421875 -29.4375 C 25.984375 -31.738281 25.085938 -33.59375 23.734375 -35 C 22.390625 -36.414062 20.445312 -37.125 17.90625 -37.125 C 15.320312 -37.125 13.351562 -36.414062 12 -35 C 10.65625 -33.59375 9.765625 -31.738281 9.328125 -29.4375 C 8.890625 -27.144531 8.671875 -24.34375 8.671875 -21.03125 C 8.671875 -17.613281 8.890625 -14.742188 9.328125 -12.421875 C 9.765625 -10.109375 10.65625 -8.25 12 -6.84375 C 13.351562 -5.4375 15.320312 -4.734375 17.90625 -4.734375 C 20.445312 -4.734375 22.390625 -5.4375 23.734375 -6.84375 C 25.085938 -8.25 25.984375 -10.109375 26.421875 -12.421875 C 26.859375 -14.742188 27.078125 -17.613281 27.078125 -21.03125 Z M 27.078125 -21.03125 "/></g></g></g><g fill="#00425c" fill-opacity="1"><g transform="translate(394.845984, 608.070805)"><g><path d="M 3.53125 -21.03125 C 3.53125 -27.570312 4.59375 -32.675781 6.71875 -36.34375 C 8.851562 -40.007812 12.582031 -41.84375 17.90625 -41.84375 C 23.1875 -41.84375 26.890625 -40.007812 29.015625 -36.34375 C 31.148438 -32.675781 32.21875 -27.570312 32.21875 -21.03125 C 32.21875 -14.382812 31.148438 -9.21875 29.015625 -5.53125 C 26.890625 -1.84375 23.1875 0 17.90625 0 C 12.582031 0 8.851562 -1.84375 6.71875 -5.53125 C 4.59375 -9.21875 3.53125 -14.382812 3.53125 -21.03125 Z M 27.078125 -21.03125 C 27.078125 -24.34375 26.859375 -27.144531 26.421875 -29.4375 C 25.984375 -31.738281 25.085938 -33.59375 23.734375 -35 C 22.390625 -36.414062 20.445312 -37.125 17.90625 -37.125 C 15.320312 -37.125 13.351562 -36.414062 12 -35 C 10.65625 -33.59375 9.765625 -31.738281 9.328125 -29.4375 C 8.890625 -27.144531 8.671875 -24.34375 8.671875 -21.03125 C 8.671875 -17.613281 8.890625 -14.742188 9.328125 -12.421875 C 9.765625 -10.109375 10.65625 -8.25 12 -6.84375 C 13.351562 -5.4375 15.320312 -4.734375 17.90625 -4.734375 C 20.445312 -4.734375 22.390625 -5.4375 23.734375 -6.84375 C 25.085938 -8.25 25.984375 -10.109375 26.421875 -12.421875 C 26.859375 -14.742188 27.078125 -17.613281 27.078125 -21.03125 Z M 27.078125 -21.03125 "/></g></g></g><g fill="#00425c" fill-opacity="1"><g transform="translate(430.649383, 608.070805)"><g><path d="M 17.28125 -31.75 C 19.976562 -31.75 22.34375 -31.160156 24.375 -29.984375 C 26.40625 -28.804688 27.914062 -27.328125 28.90625 -25.546875 L 28.90625 -31.25 L 34.15625 -31.25 L 34.15625 0.6875 C 34.15625 3.53125 33.546875 6.0625 32.328125 8.28125 C 31.109375 10.507812 29.367188 12.25 27.109375 13.5 C 24.847656 14.757812 22.21875 15.390625 19.21875 15.390625 C 15.113281 15.390625 11.691406 14.421875 8.953125 12.484375 C 6.210938 10.546875 4.597656 7.90625 4.109375 4.5625 L 9.234375 4.5625 C 9.804688 6.457031 10.984375 7.984375 12.765625 9.140625 C 14.554688 10.304688 16.707031 10.890625 19.21875 10.890625 C 22.0625 10.890625 24.382812 9.992188 26.1875 8.203125 C 28 6.421875 28.90625 3.914062 28.90625 0.6875 L 28.90625 -5.875 C 27.882812 -4.050781 26.363281 -2.53125 24.34375 -1.3125 C 22.332031 -0.09375 19.976562 0.515625 17.28125 0.515625 C 14.5 0.515625 11.976562 -0.164062 9.71875 -1.53125 C 7.457031 -2.90625 5.679688 -4.828125 4.390625 -7.296875 C 3.097656 -9.765625 2.453125 -12.578125 2.453125 -15.734375 C 2.453125 -18.929688 3.097656 -21.734375 4.390625 -24.140625 C 5.679688 -26.554688 7.457031 -28.425781 9.71875 -29.75 C 11.976562 -31.082031 14.5 -31.75 17.28125 -31.75 Z M 28.90625 -15.671875 C 28.90625 -18.035156 28.429688 -20.085938 27.484375 -21.828125 C 26.535156 -23.578125 25.25 -24.914062 23.625 -25.84375 C 22.007812 -26.78125 20.234375 -27.25 18.296875 -27.25 C 16.359375 -27.25 14.59375 -26.789062 13 -25.875 C 11.40625 -24.96875 10.128906 -23.640625 9.171875 -21.890625 C 8.222656 -20.140625 7.75 -18.085938 7.75 -15.734375 C 7.75 -13.335938 8.222656 -11.253906 9.171875 -9.484375 C 10.128906 -7.722656 11.40625 -6.375 13 -5.4375 C 14.59375 -4.507812 16.359375 -4.046875 18.296875 -4.046875 C 20.234375 -4.046875 22.007812 -4.507812 23.625 -5.4375 C 25.25 -6.375 26.535156 -7.722656 27.484375 -9.484375 C 28.429688 -11.253906 28.90625 -13.316406 28.90625 -15.671875 Z M 28.90625 -15.671875 "/></g></g></g><g fill="#00425c" fill-opacity="1"><g transform="translate(219.310539, 687.570801)"><g><path d="M 29.140625 -34.328125 L 14.828125 0 L 4.84375 0 L 19.328125 -33.234375 L 1.59375 -33.234375 L 1.59375 -41.5625 L 29.140625 -41.5625 Z M 29.140625 -34.328125 "/></g></g></g><g fill="#00425c" fill-opacity="1"><g transform="translate(249.811846, 687.570801)"><g><path d="M 9.40625 -22.34375 C 5.832031 -24.25 4.046875 -27.234375 4.046875 -31.296875 C 4.046875 -33.347656 4.578125 -35.21875 5.640625 -36.90625 C 6.703125 -38.601562 8.316406 -39.957031 10.484375 -40.96875 C 12.648438 -41.976562 15.3125 -42.484375 18.46875 -42.484375 C 21.625 -42.484375 24.273438 -41.976562 26.421875 -40.96875 C 28.566406 -39.957031 30.171875 -38.601562 31.234375 -36.90625 C 32.304688 -35.21875 32.84375 -33.347656 32.84375 -31.296875 C 32.84375 -29.242188 32.359375 -27.457031 31.390625 -25.9375 C 30.421875 -24.414062 29.117188 -23.21875 27.484375 -22.34375 C 29.535156 -21.363281 31.113281 -20.003906 32.21875 -18.265625 C 33.320312 -16.535156 33.875 -14.515625 33.875 -12.203125 C 33.875 -9.503906 33.1875 -7.175781 31.8125 -5.21875 C 30.445312 -3.257812 28.59375 -1.765625 26.25 -0.734375 C 23.914062 0.285156 21.320312 0.796875 18.46875 0.796875 C 15.625 0.796875 13.03125 0.285156 10.6875 -0.734375 C 8.351562 -1.765625 6.5 -3.257812 5.125 -5.21875 C 3.757812 -7.175781 3.078125 -9.503906 3.078125 -12.203125 C 3.078125 -14.554688 3.628906 -16.597656 4.734375 -18.328125 C 5.835938 -20.054688 7.394531 -21.394531 9.40625 -22.34375 Z M 23.375 -29.8125 C 23.375 -31.375 22.925781 -32.582031 22.03125 -33.4375 C 21.144531 -34.289062 19.957031 -34.71875 18.46875 -34.71875 C 16.988281 -34.71875 15.800781 -34.28125 14.90625 -33.40625 C 14.007812 -32.53125 13.5625 -31.316406 13.5625 -29.765625 C 13.5625 -28.273438 14.019531 -27.101562 14.9375 -26.25 C 15.851562 -25.394531 17.03125 -24.96875 18.46875 -24.96875 C 19.914062 -24.96875 21.09375 -25.40625 22 -26.28125 C 22.914062 -27.15625 23.375 -28.332031 23.375 -29.8125 Z M 18.46875 -18.125 C 16.6875 -18.125 15.242188 -17.640625 14.140625 -16.671875 C 13.035156 -15.703125 12.484375 -14.363281 12.484375 -12.65625 C 12.484375 -11.0625 13.023438 -9.75 14.109375 -8.71875 C 15.191406 -7.695312 16.644531 -7.1875 18.46875 -7.1875 C 20.289062 -7.1875 21.722656 -7.695312 22.765625 -8.71875 C 23.816406 -9.75 24.34375 -11.0625 24.34375 -12.65625 C 24.34375 -14.332031 23.800781 -15.660156 22.71875 -16.640625 C 21.632812 -17.628906 20.21875 -18.125 18.46875 -18.125 Z M 18.46875 -18.125 "/></g></g></g><g fill="#00425c" fill-opacity="1"><g transform="translate(286.755478, 687.570801)"><g><path d="M 15.625 -32.265625 C 17.863281 -32.265625 19.828125 -31.804688 21.515625 -30.890625 C 23.210938 -29.984375 24.515625 -28.789062 25.421875 -27.3125 L 25.421875 -31.8125 L 35.171875 -31.8125 L 35.171875 -0.0625 C 35.171875 2.863281 34.59375 5.515625 33.4375 7.890625 C 32.28125 10.265625 30.515625 12.15625 28.140625 13.5625 C 25.765625 14.96875 22.804688 15.671875 19.265625 15.671875 C 14.554688 15.671875 10.738281 14.5625 7.8125 12.34375 C 4.882812 10.125 3.210938 7.113281 2.796875 3.3125 L 12.421875 3.3125 C 12.734375 4.519531 13.457031 5.472656 14.59375 6.171875 C 15.738281 6.878906 17.144531 7.234375 18.8125 7.234375 C 20.832031 7.234375 22.4375 6.65625 23.625 5.5 C 24.820312 4.34375 25.421875 2.488281 25.421875 -0.0625 L 25.421875 -4.5625 C 24.472656 -3.082031 23.160156 -1.875 21.484375 -0.9375 C 19.816406 -0.0078125 17.863281 0.453125 15.625 0.453125 C 13 0.453125 10.617188 -0.21875 8.484375 -1.5625 C 6.359375 -2.914062 4.675781 -4.835938 3.4375 -7.328125 C 2.207031 -9.816406 1.59375 -12.695312 1.59375 -15.96875 C 1.59375 -19.238281 2.207031 -22.109375 3.4375 -24.578125 C 4.675781 -27.046875 6.359375 -28.941406 8.484375 -30.265625 C 10.617188 -31.597656 13 -32.265625 15.625 -32.265625 Z M 25.421875 -15.90625 C 25.421875 -18.34375 24.742188 -20.265625 23.390625 -21.671875 C 22.046875 -23.078125 20.40625 -23.78125 18.46875 -23.78125 C 16.53125 -23.78125 14.882812 -23.082031 13.53125 -21.6875 C 12.1875 -20.300781 11.515625 -18.394531 11.515625 -15.96875 C 11.515625 -13.53125 12.1875 -11.597656 13.53125 -10.171875 C 14.882812 -8.753906 16.53125 -8.046875 18.46875 -8.046875 C 20.40625 -8.046875 22.046875 -8.75 23.390625 -10.15625 C 24.742188 -11.5625 25.421875 -13.476562 25.421875 -15.90625 Z M 25.421875 -15.90625 "/></g></g></g><g fill="#00425c" fill-opacity="1"><g transform="translate(325.466479, 687.570801)"><g/></g></g><g fill="#00425c" fill-opacity="1"><g transform="translate(337.552973, 687.570801)"><g><path d="M 13.28125 -27.3125 C 14.226562 -28.789062 15.539062 -29.984375 17.21875 -30.890625 C 18.894531 -31.804688 20.851562 -32.265625 23.09375 -32.265625 C 25.71875 -32.265625 28.09375 -31.597656 30.21875 -30.265625 C 32.34375 -28.941406 34.023438 -27.046875 35.265625 -24.578125 C 36.503906 -22.109375 37.125 -19.238281 37.125 -15.96875 C 37.125 -12.695312 36.503906 -9.816406 35.265625 -7.328125 C 34.023438 -4.835938 32.34375 -2.914062 30.21875 -1.5625 C 28.09375 -0.21875 25.71875 0.453125 23.09375 0.453125 C 20.882812 0.453125 18.929688 0 17.234375 -0.90625 C 15.546875 -1.820312 14.226562 -3.003906 13.28125 -4.453125 L 13.28125 15.171875 L 3.53125 15.171875 L 3.53125 -31.8125 L 13.28125 -31.8125 Z M 27.203125 -15.96875 C 27.203125 -18.394531 26.523438 -20.300781 25.171875 -21.6875 C 23.816406 -23.082031 22.15625 -23.78125 20.1875 -23.78125 C 18.25 -23.78125 16.601562 -23.078125 15.25 -21.671875 C 13.90625 -20.265625 13.234375 -18.34375 13.234375 -15.90625 C 13.234375 -13.476562 13.90625 -11.5625 15.25 -10.15625 C 16.601562 -8.75 18.25 -8.046875 20.1875 -8.046875 C 22.125 -8.046875 23.773438 -8.753906 25.140625 -10.171875 C 26.515625 -11.597656 27.203125 -13.53125 27.203125 -15.96875 Z M 27.203125 -15.96875 "/></g></g></g><g fill="#00425c" fill-opacity="1"><g transform="translate(376.263973, 687.570801)"><g><path d="M 13.28125 -26.515625 C 14.425781 -28.265625 15.851562 -29.640625 17.5625 -30.640625 C 19.269531 -31.648438 21.171875 -32.15625 23.265625 -32.15625 L 23.265625 -21.84375 L 20.578125 -21.84375 C 18.148438 -21.84375 16.328125 -21.316406 15.109375 -20.265625 C 13.890625 -19.222656 13.28125 -17.390625 13.28125 -14.765625 L 13.28125 0 L 3.53125 0 L 3.53125 -31.8125 L 13.28125 -31.8125 Z M 13.28125 -26.515625 "/></g></g></g><g fill="#00425c" fill-opacity="1"><g transform="translate(400.665019, 687.570801)"><g><path d="M 18.015625 0.453125 C 14.898438 0.453125 12.097656 -0.207031 9.609375 -1.53125 C 7.117188 -2.863281 5.160156 -4.765625 3.734375 -7.234375 C 2.304688 -9.710938 1.59375 -12.601562 1.59375 -15.90625 C 1.59375 -19.175781 2.3125 -22.054688 3.75 -24.546875 C 5.195312 -27.035156 7.175781 -28.941406 9.6875 -30.265625 C 12.195312 -31.597656 15.007812 -32.265625 18.125 -32.265625 C 21.25 -32.265625 24.0625 -31.597656 26.5625 -30.265625 C 29.070312 -28.941406 31.050781 -27.035156 32.5 -24.546875 C 33.945312 -22.054688 34.671875 -19.175781 34.671875 -15.90625 C 34.671875 -12.632812 33.9375 -9.753906 32.46875 -7.265625 C 31.007812 -4.773438 29.015625 -2.863281 26.484375 -1.53125 C 23.953125 -0.207031 21.128906 0.453125 18.015625 0.453125 Z M 18.015625 -7.984375 C 19.878906 -7.984375 21.46875 -8.664062 22.78125 -10.03125 C 24.09375 -11.40625 24.75 -13.363281 24.75 -15.90625 C 24.75 -18.457031 24.109375 -20.414062 22.828125 -21.78125 C 21.554688 -23.144531 19.988281 -23.828125 18.125 -23.828125 C 16.226562 -23.828125 14.648438 -23.148438 13.390625 -21.796875 C 12.140625 -20.453125 11.515625 -18.488281 11.515625 -15.90625 C 11.515625 -13.363281 12.128906 -11.40625 13.359375 -10.03125 C 14.597656 -8.664062 16.148438 -7.984375 18.015625 -7.984375 Z M 18.015625 -7.984375 "/></g></g></g><g fill="#00425c" fill-opacity="1"><g transform="translate(436.981526, 687.570801)"><g><path d="M 21.265625 -8.265625 L 21.265625 0 L 16.3125 0 C 12.769531 0 10.007812 -0.863281 8.03125 -2.59375 C 6.0625 -4.320312 5.078125 -7.144531 5.078125 -11.0625 L 5.078125 -23.71875 L 1.203125 -23.71875 L 1.203125 -31.8125 L 5.078125 -31.8125 L 5.078125 -39.5625 L 14.828125 -39.5625 L 14.828125 -31.8125 L 21.203125 -31.8125 L 21.203125 -23.71875 L 14.828125 -23.71875 L 14.828125 -10.953125 C 14.828125 -9.992188 15.050781 -9.304688 15.5 -8.890625 C 15.957031 -8.472656 16.71875 -8.265625 17.78125 -8.265625 Z M 21.265625 -8.265625 "/></g></g></g><g fill="#00425c" fill-opacity="1"><g transform="translate(460.128322, 687.570801)"><g><path d="M 33.53125 -16.421875 C 33.53125 -15.503906 33.472656 -14.550781 33.359375 -13.5625 L 11.296875 -13.5625 C 11.441406 -11.59375 12.070312 -10.082031 13.1875 -9.03125 C 14.3125 -7.988281 15.691406 -7.46875 17.328125 -7.46875 C 19.765625 -7.46875 21.457031 -8.492188 22.40625 -10.546875 L 32.78125 -10.546875 C 32.25 -8.453125 31.289062 -6.566406 29.90625 -4.890625 C 28.519531 -3.222656 26.78125 -1.914062 24.6875 -0.96875 C 22.59375 -0.0195312 20.253906 0.453125 17.671875 0.453125 C 14.554688 0.453125 11.78125 -0.207031 9.34375 -1.53125 C 6.914062 -2.863281 5.015625 -4.765625 3.640625 -7.234375 C 2.273438 -9.710938 1.59375 -12.601562 1.59375 -15.90625 C 1.59375 -19.21875 2.265625 -22.109375 3.609375 -24.578125 C 4.960938 -27.046875 6.851562 -28.941406 9.28125 -30.265625 C 11.71875 -31.597656 14.515625 -32.265625 17.671875 -32.265625 C 20.753906 -32.265625 23.492188 -31.617188 25.890625 -30.328125 C 28.285156 -29.035156 30.15625 -27.191406 31.5 -24.796875 C 32.851562 -22.398438 33.53125 -19.609375 33.53125 -16.421875 Z M 23.546875 -18.984375 C 23.546875 -20.660156 22.972656 -21.988281 21.828125 -22.96875 C 20.691406 -23.957031 19.269531 -24.453125 17.5625 -24.453125 C 15.925781 -24.453125 14.546875 -23.976562 13.421875 -23.03125 C 12.304688 -22.082031 11.613281 -20.734375 11.34375 -18.984375 Z M 23.546875 -18.984375 "/></g></g></g><g fill="#00425c" fill-opacity="1"><g transform="translate(495.247583, 687.570801)"><g><path d="M 14.03125 -31.8125 L 14.03125 0 L 4.28125 0 L 4.28125 -31.8125 Z M 15.796875 -39.734375 L 2.046875 -33.984375 L 2.046875 -40.703125 L 15.796875 -47.328125 Z M 15.796875 -39.734375 "/></g></g></g><g fill="#00425c" fill-opacity="1"><g transform="translate(513.548378, 687.570801)"><g><path d="M 22.921875 -32.15625 C 26.648438 -32.15625 29.625 -30.945312 31.84375 -28.53125 C 34.0625 -26.125 35.171875 -22.8125 35.171875 -18.59375 L 35.171875 0 L 25.484375 0 L 25.484375 -17.28125 C 25.484375 -19.40625 24.929688 -21.054688 23.828125 -22.234375 C 22.722656 -23.410156 21.242188 -24 19.390625 -24 C 17.523438 -24 16.039062 -23.410156 14.9375 -22.234375 C 13.832031 -21.054688 13.28125 -19.40625 13.28125 -17.28125 L 13.28125 0 L 3.53125 0 L 3.53125 -31.8125 L 13.28125 -31.8125 L 13.28125 -27.59375 C 14.269531 -29 15.597656 -30.109375 17.265625 -30.921875 C 18.941406 -31.742188 20.828125 -32.15625 22.921875 -32.15625 Z M 22.921875 -32.15625 "/></g></g></g><g fill="#00425c" fill-opacity="1"><g transform="translate(551.974318, 687.570801)"><g><path d="M 1.59375 -15.96875 C 1.59375 -19.238281 2.207031 -22.109375 3.4375 -24.578125 C 4.675781 -27.046875 6.359375 -28.941406 8.484375 -30.265625 C 10.617188 -31.597656 13 -32.265625 15.625 -32.265625 C 17.863281 -32.265625 19.828125 -31.804688 21.515625 -30.890625 C 23.210938 -29.984375 24.515625 -28.789062 25.421875 -27.3125 L 25.421875 -31.8125 L 35.171875 -31.8125 L 35.171875 0 L 25.421875 0 L 25.421875 -4.5 C 24.472656 -3.019531 23.148438 -1.820312 21.453125 -0.90625 C 19.765625 0 17.800781 0.453125 15.5625 0.453125 C 12.976562 0.453125 10.617188 -0.21875 8.484375 -1.5625 C 6.359375 -2.914062 4.675781 -4.835938 3.4375 -7.328125 C 2.207031 -9.816406 1.59375 -12.695312 1.59375 -15.96875 Z M 25.421875 -15.90625 C 25.421875 -18.34375 24.742188 -20.265625 23.390625 -21.671875 C 22.046875 -23.078125 20.40625 -23.78125 18.46875 -23.78125 C 16.53125 -23.78125 14.882812 -23.082031 13.53125 -21.6875 C 12.1875 -20.300781 11.515625 -18.394531 11.515625 -15.96875 C 11.515625 -13.53125 12.1875 -11.597656 13.53125 -10.171875 C 14.882812 -8.753906 16.53125 -8.046875 18.46875 -8.046875 C 20.40625 -8.046875 22.046875 -8.75 23.390625 -10.15625 C 24.742188 -11.5625 25.421875 -13.476562 25.421875 -15.90625 Z M 25.421875 -15.90625 "/></g></g></g></svg>