<svg xmlns="http://www.w3.org/2000/svg" xmlns:xlink="http://www.w3.org/1999/xlink" width="1080" zoomAndPan="magnify" viewBox="0 0 810 809.999993" height="1080" preserveAspectRatio="xMidYMid meet" version="1.0"><defs><g/><clipPath id="7da971ab43"><path d="M 82.347656 0.00390625 L 727.347656 0.00390625 L 727.347656 810 L 82.347656 810 Z M 82.347656 0.00390625 " clip-rule="nonzero"/></clipPath><clipPath id="b75ab41a36"><path d="M 119.847656 0.00390625 L 690.140625 0.00390625 C 700.089844 0.00390625 709.625 3.957031 716.660156 10.988281 C 723.691406 18.023438 727.640625 27.558594 727.640625 37.503906 L 727.640625 772.496094 C 727.640625 782.441406 723.691406 791.976562 716.660156 799.011719 C 709.625 806.042969 700.089844 809.996094 690.140625 809.996094 L 119.847656 809.996094 C 109.902344 809.996094 100.363281 806.042969 93.332031 799.011719 C 86.300781 791.976562 82.347656 782.441406 82.347656 772.496094 L 82.347656 37.503906 C 82.347656 27.558594 86.300781 18.023438 93.332031 10.988281 C 100.363281 3.957031 109.902344 0.00390625 119.847656 0.00390625 Z M 119.847656 0.00390625 " clip-rule="nonzero"/></clipPath><clipPath id="f6fddb8385"><path d="M 241.253906 120.257812 L 565.253906 120.257812 L 565.253906 349.757812 L 241.253906 349.757812 Z M 241.253906 120.257812 " clip-rule="nonzero"/></clipPath></defs><g clip-path="url(#7da971ab43)"><g clip-path="url(#b75ab41a36)"><path stroke-linecap="butt" transform="matrix(0.75, 0, 0, 0.75, 82.349025, 0.00567356)" fill="none" stroke-linejoin="miter" d="M 49.998178 -0.00235641 L 810.388841 -0.00235641 C 823.654466 -0.00235641 836.368009 5.268477 845.748218 14.643478 C 855.123218 24.023686 860.388843 36.737229 860.388843 49.997646 L 860.388843 1029.987279 C 860.388843 1043.247696 855.123218 1055.966447 845.748218 1065.341447 C 836.368009 1074.716448 823.654466 1079.987281 810.388841 1079.987281 L 49.998178 1079.987281 C 36.73776 1079.987281 24.01901 1074.716448 14.644009 1065.341447 C 5.269009 1055.966447 -0.00182494 1043.247696 -0.00182494 1029.987279 L -0.00182494 49.997646 C -0.00182494 36.737229 5.269009 24.023686 14.644009 14.643478 C 24.01901 5.268477 36.73776 -0.00235641 49.998178 -0.00235641 Z M 49.998178 -0.00235641 " stroke="#00425c" stroke-width="8" stroke-opacity="1" stroke-miterlimit="4"/></g></g><path fill="#00425c" d="M 453.878906 195.21875 C 453.878906 195.21875 453.878906 195.140625 453.878906 195.21875 C 453.800781 195.0625 453.800781 194.90625 453.800781 194.75 C 453.800781 194.828125 453.800781 194.984375 453.878906 195.21875 Z M 453.878906 195.21875 " fill-opacity="1" fill-rule="nonzero"/><path fill="#00425c" d="M 452.628906 192.167969 C 452.628906 192.167969 452.628906 192.089844 452.628906 192.167969 C 452.550781 192.089844 452.394531 191.933594 452.316406 191.855469 C 452.316406 191.855469 452.394531 191.933594 452.628906 192.167969 Z M 452.628906 192.167969 " fill-opacity="1" fill-rule="nonzero"/><path fill="#00425c" d="M 453.644531 193.890625 C 453.566406 193.8125 453.566406 193.65625 453.488281 193.578125 C 453.488281 193.578125 453.488281 193.578125 453.488281 193.5 C 453.566406 194.046875 453.644531 194.046875 453.644531 193.890625 Z M 453.644531 193.890625 " fill-opacity="1" fill-rule="nonzero"/><path fill="#00425c" d="M 556.695312 201.402344 C 556.617188 201.167969 556.617188 200.851562 556.695312 201.402344 Z M 556.695312 201.402344 " fill-opacity="1" fill-rule="nonzero"/><path fill="#00425c" d="M 537.996094 191.386719 C 538.152344 191.777344 538.074219 191.621094 537.996094 191.386719 Z M 537.996094 191.386719 " fill-opacity="1" fill-rule="nonzero"/><path fill="#00425c" d="M 280.71875 281.683594 C 289.246094 284.109375 298.089844 285.671875 306.851562 286.925781 C 319.921875 288.804688 332.988281 289.976562 346.132812 290.523438 C 353.566406 290.839844 361.078125 290.996094 368.511719 291.074219 C 394.882812 291.074219 421.40625 289.039062 447.308594 284.1875 C 461.859375 281.449219 476.414062 277.847656 490.34375 272.683594 C 501.765625 268.460938 513.035156 263.296875 522.816406 256.097656 C 530.875 250.148438 538.152344 242.949219 542.925781 234.109375 C 546.839844 226.832031 549.027344 218.695312 549.183594 210.398438 C 549.578125 194.203125 542.144531 178.945312 530.5625 167.910156 C 522.816406 160.554688 513.582031 154.84375 503.878906 150.539062 C 491.046875 144.828125 477.433594 141.074219 463.582031 138.882812 C 440.734375 135.28125 416.398438 135.203125 393.941406 141.464844 C 382.832031 144.59375 372.269531 149.445312 363.269531 156.722656 C 352.707031 165.328125 346.679688 177.535156 339.558594 188.882812 C 335.960938 194.671875 332.046875 200.226562 327.355469 205.15625 C 322.347656 210.398438 316.632812 214.78125 310.375 218.382812 C 304.425781 221.824219 298.246094 224.71875 291.984375 227.535156 C 285.257812 230.585938 278.449219 233.5625 272.425781 237.863281 C 263.113281 244.515625 253.566406 255.703125 259.824219 267.675781 C 264.128906 275.34375 272.582031 279.335938 280.71875 281.683594 Z M 266.476562 262.980469 C 266.242188 262.511719 266.398438 262.746094 266.476562 262.980469 Z M 537.917969 191.152344 C 537.996094 191.386719 538.074219 191.621094 538.230469 191.855469 C 539.484375 195.0625 540.5 198.425781 541.046875 201.871094 C 541.125 202.261719 541.203125 202.652344 541.203125 203.042969 C 541.203125 203.199219 541.203125 203.355469 541.28125 203.4375 C 541.359375 204.296875 541.4375 205.15625 541.515625 206.019531 C 541.59375 207.660156 541.59375 209.304688 541.59375 210.949219 C 541.59375 211.730469 541.515625 212.589844 541.4375 213.371094 C 541.4375 213.765625 541.359375 214.15625 541.359375 214.546875 C 541.359375 214.703125 541.359375 214.859375 541.28125 215.015625 C 540.96875 216.816406 540.65625 218.617188 540.1875 220.335938 C 539.640625 222.371094 538.933594 224.40625 538.152344 226.363281 C 538.152344 226.363281 538.152344 226.441406 538.152344 226.441406 C 538.074219 226.675781 537.917969 226.910156 537.839844 227.144531 C 537.605469 227.613281 537.449219 228.082031 537.214844 228.476562 C 536.742188 229.492188 536.195312 230.429688 535.648438 231.449219 C 534.554688 233.324219 533.300781 235.125 532.050781 236.847656 C 532.050781 236.847656 531.972656 236.925781 531.972656 236.925781 C 531.816406 237.160156 531.65625 237.316406 531.5 237.550781 C 531.109375 238.019531 530.71875 238.492188 530.328125 238.882812 C 529.546875 239.742188 528.761719 240.601562 527.980469 241.386719 C 526.257812 243.105469 524.460938 244.828125 522.582031 246.394531 C 522.113281 246.785156 521.640625 247.175781 521.171875 247.488281 C 521.015625 247.644531 520.78125 247.800781 520.625 247.957031 C 520.546875 248.035156 520.46875 248.035156 520.46875 248.113281 C 520.390625 248.113281 520.390625 248.191406 520.3125 248.269531 C 519.214844 249.054688 518.121094 249.914062 517.027344 250.617188 C 512.410156 253.828125 507.558594 256.566406 502.472656 258.992188 C 490.65625 264.78125 477.667969 268.929688 464.679688 272.214844 C 451.21875 275.65625 437.527344 278.082031 423.832031 279.804688 C 430.484375 263.609375 434.316406 246.316406 435.257812 228.789062 C 435.492188 223.78125 435.492188 218.851562 435.257812 213.84375 C 441.828125 213.375 448.324219 211.652344 453.800781 208.128906 C 456.617188 206.253906 459.121094 203.90625 460.53125 200.933594 C 480.5625 200.148438 500.515625 196.394531 519.375 189.664062 C 524.382812 187.863281 529.308594 185.828125 534.160156 183.640625 C 534.945312 184.8125 535.648438 186.066406 536.351562 187.316406 C 536.742188 188.097656 537.136719 188.882812 537.527344 189.664062 C 537.527344 190.289062 537.683594 190.679688 537.917969 191.152344 C 537.917969 191.230469 537.996094 191.308594 537.996094 191.386719 C 537.917969 191.308594 537.917969 191.230469 537.917969 191.152344 Z M 425.398438 205.941406 C 425.242188 205.941406 425.085938 205.859375 424.929688 205.859375 C 424.378906 205.78125 423.832031 205.703125 423.285156 205.546875 C 422.113281 205.3125 421.015625 205.078125 419.84375 204.765625 C 418.824219 204.453125 417.808594 204.21875 416.867188 203.828125 C 416.476562 203.671875 416.085938 203.515625 415.695312 203.355469 C 415.382812 203.199219 415.148438 203.121094 414.835938 202.964844 C 413.972656 202.574219 413.191406 202.105469 412.410156 201.636719 C 412.015625 201.402344 411.625 201.167969 411.3125 200.933594 C 411.15625 200.851562 411.078125 200.773438 410.921875 200.617188 C 410.296875 200.070312 409.75 199.601562 409.199219 198.976562 C 409.121094 198.820312 408.886719 198.664062 408.808594 198.507812 C 408.808594 198.507812 408.808594 198.585938 408.808594 198.585938 C 408.730469 198.507812 408.730469 198.347656 408.652344 198.347656 C 408.496094 198.113281 408.339844 197.878906 408.183594 197.644531 C 408.105469 197.488281 408.027344 197.332031 407.949219 197.175781 C 407.949219 197.097656 407.871094 197.097656 407.871094 197.019531 C 407.792969 196.707031 407.636719 196.160156 407.636719 195.925781 C 407.636719 195.6875 407.636719 195.453125 407.636719 195.296875 C 407.636719 195.296875 407.636719 194.984375 407.636719 194.75 C 407.636719 194.671875 407.636719 194.59375 407.714844 194.515625 C 407.792969 194.28125 407.871094 193.96875 407.949219 193.734375 C 408.027344 193.578125 408.027344 193.5 408.105469 193.339844 C 408.339844 192.871094 408.652344 192.402344 408.886719 191.933594 C 408.964844 191.855469 409.121094 191.464844 409.199219 191.464844 C 409.199219 191.464844 409.121094 191.621094 409.042969 191.777344 C 409.199219 191.542969 409.511719 191.308594 409.671875 191.074219 C 410.0625 190.679688 410.453125 190.289062 410.84375 189.976562 C 411 189.820312 411.15625 189.742188 411.3125 189.585938 C 411.390625 189.585938 411.390625 189.507812 411.46875 189.507812 C 412.253906 188.960938 413.035156 188.492188 413.894531 188.019531 C 414.285156 187.785156 414.757812 187.550781 415.226562 187.316406 C 415.460938 187.238281 415.695312 187.082031 415.929688 187.003906 C 416.007812 187.003906 416.085938 186.925781 416.085938 186.925781 C 418.042969 186.222656 420 185.515625 422.113281 185.046875 C 422.738281 184.890625 423.363281 184.8125 423.988281 184.65625 C 424.144531 184.65625 424.378906 184.578125 424.539062 184.578125 C 424.851562 184.5 425.945312 184.1875 424.851562 184.5 C 426.023438 184.1875 427.511719 184.1875 428.683594 184.1875 C 431.1875 184.109375 433.691406 184.1875 436.195312 184.421875 C 436.273438 184.421875 436.273438 184.421875 436.351562 184.421875 C 436.664062 184.421875 437.058594 184.5 437.371094 184.578125 C 437.996094 184.65625 438.621094 184.8125 439.246094 184.96875 C 440.421875 185.203125 441.515625 185.515625 442.613281 185.828125 C 443.238281 185.988281 443.785156 186.222656 444.332031 186.457031 C 444.570312 186.535156 444.804688 186.613281 445.039062 186.769531 C 445.117188 186.847656 445.273438 186.847656 445.351562 186.925781 C 446.445312 187.394531 447.464844 187.941406 448.480469 188.492188 C 448.949219 188.804688 449.5 189.117188 449.96875 189.429688 C 450.125 189.585938 450.4375 189.742188 450.59375 189.898438 C 450.671875 189.976562 450.671875 189.976562 450.75 189.976562 C 451.140625 190.289062 451.53125 190.679688 451.921875 190.996094 C 452.160156 191.230469 452.394531 191.621094 452.707031 191.855469 C 452.785156 191.855469 452.863281 191.933594 453.019531 192.167969 C 453.019531 192.167969 453.097656 192.246094 453.097656 192.246094 C 453.097656 192.246094 453.097656 192.246094 453.019531 192.167969 C 453.175781 192.324219 453.253906 192.480469 453.332031 192.714844 C 453.488281 193.027344 453.644531 193.261719 453.800781 193.578125 C 453.800781 193.578125 453.800781 193.5 453.800781 193.5 C 453.800781 193.578125 453.800781 193.578125 453.878906 193.65625 C 453.957031 193.734375 453.957031 193.890625 453.957031 193.96875 C 453.957031 193.96875 453.957031 194.046875 453.957031 194.046875 C 454.035156 194.28125 454.035156 194.515625 454.113281 194.828125 C 454.113281 194.75 454.191406 194.75 454.191406 195.0625 C 454.191406 195.140625 454.191406 195.140625 454.191406 195.21875 C 454.191406 195.296875 454.191406 195.296875 454.269531 195.375 C 454.269531 195.375 454.269531 195.296875 454.191406 195.296875 C 454.191406 195.453125 454.191406 195.53125 454.191406 195.6875 C 454.191406 195.84375 454.191406 196.003906 454.191406 196.160156 C 454.113281 196.394531 454.113281 196.707031 454.035156 196.941406 C 453.957031 197.097656 453.957031 197.253906 453.878906 197.488281 C 453.722656 197.878906 453.488281 198.191406 453.253906 198.585938 C 453.175781 198.742188 453.019531 198.898438 452.941406 199.054688 C 452.628906 199.367188 452.316406 199.757812 452.003906 200.070312 C 451.765625 200.304688 451.375 200.773438 451.0625 201.011719 C 451.140625 200.933594 451.0625 200.933594 450.90625 201.089844 C 450.671875 201.246094 450.4375 201.402344 450.28125 201.558594 C 449.8125 201.871094 449.339844 202.183594 448.871094 202.417969 C 448.324219 202.730469 447.777344 202.964844 447.308594 203.277344 C 446.996094 203.4375 446.757812 203.515625 446.445312 203.671875 C 446.367188 203.75 446.289062 203.75 446.210938 203.75 C 446.132812 203.828125 446.054688 203.828125 445.898438 203.90625 C 443.785156 204.765625 441.59375 205.390625 439.324219 205.78125 C 438.777344 205.859375 438.152344 206.019531 437.605469 206.097656 C 437.605469 206.097656 437.527344 206.097656 437.449219 206.097656 C 437.214844 206.175781 436.820312 206.175781 436.585938 206.175781 C 435.414062 206.332031 434.238281 206.410156 433.144531 206.410156 C 430.71875 206.488281 428.371094 206.410156 425.945312 206.097656 C 425.476562 205.941406 425.476562 205.941406 425.398438 205.941406 Z M 407.949219 197.332031 C 407.949219 197.332031 407.871094 197.175781 407.792969 197.019531 C 407.871094 197.175781 407.949219 197.253906 407.949219 197.332031 Z M 407.636719 196.160156 C 407.636719 196.394531 407.636719 196.472656 407.636719 196.160156 Z M 407.558594 195.921875 C 407.558594 195.84375 407.558594 195.84375 407.558594 195.921875 C 407.558594 195.84375 407.558594 195.84375 407.558594 195.921875 Z M 526.726562 178.554688 C 526.886719 178.476562 526.808594 178.476562 526.726562 178.554688 Z M 412.878906 145.453125 C 413.113281 145.453125 413.191406 145.375 412.878906 145.453125 Z M 369.605469 161.652344 C 369.6875 161.574219 369.765625 161.496094 369.84375 161.496094 C 369.921875 161.417969 370 161.417969 370.078125 161.339844 C 370.3125 161.183594 370.625 160.945312 370.859375 160.789062 C 371.40625 160.398438 371.875 160.007812 372.425781 159.695312 C 373.519531 158.914062 374.695312 158.207031 375.789062 157.503906 C 378.136719 156.097656 380.5625 154.84375 383.066406 153.671875 C 383.613281 153.433594 384.238281 153.121094 384.789062 152.886719 C 384.867188 152.886719 385.179688 152.730469 385.257812 152.652344 C 385.492188 152.574219 385.726562 152.496094 385.960938 152.339844 C 387.292969 151.792969 388.542969 151.324219 389.875 150.851562 C 392.378906 149.992188 394.882812 149.210938 397.464844 148.503906 C 402.472656 147.175781 407.558594 146.238281 412.644531 145.453125 C 412.644531 145.453125 412.722656 145.453125 412.722656 145.453125 C 413.035156 145.375 413.347656 145.375 413.660156 145.296875 C 414.207031 145.21875 414.835938 145.140625 415.382812 145.0625 C 416.632812 144.90625 417.808594 144.828125 419.058594 144.671875 C 421.25 144.4375 423.519531 144.359375 425.710938 144.203125 C 430.875 143.96875 436.039062 143.96875 441.125 144.203125 C 450.984375 144.59375 460.765625 145.84375 470.390625 147.878906 C 469.214844 148.664062 468.042969 149.523438 466.867188 150.304688 C 466.242188 150.773438 465.695312 151.324219 465.539062 152.027344 C 465.382812 152.730469 465.460938 153.671875 465.851562 154.296875 C 466.632812 155.546875 468.511719 156.253906 469.84375 155.3125 C 472.582031 153.433594 475.320312 151.558594 478.136719 149.601562 C 480.171875 150.148438 482.207031 150.695312 484.238281 151.246094 C 484.398438 151.246094 484.476562 151.324219 484.632812 151.324219 C 480.09375 154.609375 475.554688 157.894531 471.09375 161.183594 C 469.84375 162.042969 469.136719 163.765625 470.078125 165.171875 C 470.859375 166.425781 472.738281 167.207031 474.066406 166.191406 C 479.859375 162.042969 485.570312 157.816406 491.359375 153.671875 C 491.4375 153.59375 491.4375 153.59375 491.515625 153.515625 C 493.550781 154.21875 495.507812 155 497.464844 155.78125 C 495.195312 157.503906 492.925781 159.226562 490.65625 160.867188 C 490.03125 161.339844 489.5625 161.808594 489.324219 162.589844 C 489.167969 163.292969 489.246094 164.234375 489.640625 164.859375 C 490.03125 165.484375 490.65625 166.035156 491.359375 166.191406 C 492.066406 166.347656 493.003906 166.347656 493.628906 165.875 C 496.917969 163.371094 500.203125 160.867188 503.566406 158.363281 C 507.558594 160.320312 511.46875 162.511719 515.304688 165.09375 C 516.242188 165.71875 517.261719 166.425781 518.199219 167.128906 C 518.667969 167.441406 519.136719 167.832031 519.609375 168.144531 C 519.6875 168.222656 519.6875 168.222656 519.765625 168.222656 C 519.765625 168.222656 519.84375 168.300781 519.921875 168.300781 C 520.15625 168.539062 520.46875 168.695312 520.703125 168.929688 C 522.425781 170.335938 524.144531 171.824219 525.789062 173.386719 C 527.042969 174.5625 528.214844 175.8125 529.3125 177.144531 C 528.996094 177.300781 528.683594 177.457031 528.292969 177.613281 C 527.746094 177.847656 527.277344 178.082031 526.726562 178.316406 C 526.648438 178.316406 526.648438 178.394531 526.570312 178.394531 C 526.179688 178.554688 525.789062 178.710938 525.398438 178.867188 C 523.128906 179.804688 520.78125 180.664062 518.511719 181.527344 C 513.972656 183.167969 509.4375 184.65625 504.820312 185.988281 C 500.046875 187.316406 495.273438 188.492188 490.421875 189.429688 C 488.074219 189.898438 485.726562 190.367188 483.300781 190.757812 C 482.128906 190.917969 480.953125 191.152344 479.703125 191.308594 C 479.46875 191.308594 479.230469 191.386719 478.996094 191.386719 C 478.996094 191.386719 478.683594 191.464844 478.449219 191.464844 C 478.214844 191.464844 477.824219 191.542969 477.824219 191.542969 C 477.433594 191.621094 477.121094 191.621094 476.726562 191.699219 C 471.640625 192.324219 466.554688 192.714844 461.46875 192.949219 C 460.765625 189.429688 458.574219 186.222656 455.835938 184.03125 C 454.664062 183.089844 453.410156 182.152344 452.160156 181.371094 C 443.238281 176.128906 432.128906 175.109375 422.035156 176.753906 C 417.339844 177.535156 412.566406 179.023438 408.574219 181.605469 C 406.617188 182.855469 404.742188 184.34375 403.253906 186.222656 C 389.640625 182.855469 375.867188 180.273438 362.015625 178.394531 C 359.90625 178.082031 357.792969 177.847656 355.679688 177.613281 C 356.539062 176.285156 357.402344 175.03125 358.261719 173.703125 C 361.390625 169.242188 365.226562 165.171875 369.605469 161.652344 Z M 266.632812 255.546875 C 266.632812 255.625 267.101562 254.609375 267.179688 254.453125 C 267.496094 253.828125 267.886719 253.199219 268.277344 252.652344 C 268.433594 252.417969 268.511719 252.261719 268.667969 252.027344 C 268.667969 252.027344 269.058594 251.558594 269.058594 251.480469 C 269.449219 251.011719 269.761719 250.617188 270.15625 250.148438 C 271.171875 248.976562 272.265625 247.957031 273.441406 246.941406 C 275.710938 244.90625 278.371094 243.183594 281.109375 241.542969 C 287.289062 237.941406 293.941406 235.203125 300.4375 232.152344 C 313.191406 226.285156 325.398438 219.242188 334.789062 208.679688 C 341.203125 201.480469 346.054688 193.261719 350.984375 185.046875 C 353.878906 185.359375 356.773438 185.671875 359.589844 186.066406 C 359.667969 186.066406 359.828125 186.066406 359.90625 186.144531 C 359.90625 186.144531 359.984375 186.144531 359.984375 186.144531 C 359.984375 186.144531 360.0625 186.144531 360.0625 186.144531 C 360.0625 186.144531 360.140625 186.144531 360.140625 186.144531 C 360.609375 186.222656 361.078125 186.300781 361.546875 186.378906 C 362.410156 186.535156 363.347656 186.613281 364.207031 186.769531 C 366.085938 187.003906 367.886719 187.316406 369.765625 187.628906 C 376.960938 188.804688 384.160156 190.132812 391.359375 191.699219 C 394.175781 192.324219 396.992188 192.949219 399.734375 193.65625 C 399.65625 194.359375 399.574219 195.0625 399.65625 195.765625 C 400.28125 206.488281 412.410156 211.574219 421.484375 213.136719 C 423.285156 213.453125 425.164062 213.6875 427.121094 213.84375 C 427.589844 222.839844 427.199219 231.917969 426.023438 240.839844 C 426.023438 240.839844 426.023438 240.917969 426.023438 240.917969 C 425.945312 241.230469 425.945312 241.542969 425.867188 241.777344 C 425.789062 242.324219 425.710938 242.871094 425.632812 243.34375 C 425.476562 244.59375 425.242188 245.765625 425.007812 247.019531 C 424.617188 249.289062 424.144531 251.558594 423.597656 253.828125 C 422.503906 258.445312 421.25 263.058594 419.765625 267.519531 C 418.902344 270.023438 418.042969 272.449219 417.105469 274.875 C 416.867188 275.5 416.554688 276.207031 416.320312 276.832031 C 416.242188 277.066406 416.164062 277.300781 416.085938 277.457031 C 416.085938 277.535156 415.929688 277.769531 415.851562 277.925781 C 415.460938 278.867188 415.070312 279.726562 414.679688 280.585938 C 404.585938 281.605469 394.488281 282.230469 384.316406 282.542969 C 379.074219 282.699219 373.753906 282.777344 368.511719 282.777344 C 354.269531 282.777344 339.953125 282.152344 325.789062 280.902344 C 314.757812 279.882812 305.210938 278.710938 294.332031 276.519531 C 290.578125 275.734375 286.898438 274.953125 283.222656 273.9375 C 281.8125 273.546875 280.40625 273.152344 278.996094 272.605469 C 278.449219 272.449219 277.902344 272.214844 277.355469 271.980469 C 277.195312 271.902344 277.039062 271.902344 276.882812 271.824219 C 276.804688 271.746094 276.648438 271.746094 276.570312 271.667969 C 272.03125 269.632812 268.511719 266.660156 266.476562 262.667969 C 266.476562 262.667969 266.476562 262.589844 266.398438 262.589844 C 266.242188 262.277344 266.164062 261.964844 266.085938 261.652344 C 265.929688 261.183594 265.851562 260.710938 265.773438 260.242188 C 265.773438 260.320312 265.695312 259.226562 265.695312 258.992188 C 265.695312 258.757812 265.695312 258.523438 265.695312 258.289062 C 265.695312 258.207031 265.695312 258.128906 265.695312 258.128906 C 265.695312 258.128906 265.695312 258.050781 265.695312 258.050781 C 266.085938 257.347656 266.320312 256.488281 266.632812 255.546875 Z M 266.632812 255.546875 " fill-opacity="1" fill-rule="nonzero"/><g clip-path="url(#f6fddb8385)"><path fill="#00425c" d="M 564.992188 212.355469 C 564.992188 211.808594 565.070312 211.261719 565.070312 210.789062 C 565.226562 200.851562 563.113281 191.074219 559.28125 181.917969 C 554.976562 171.902344 548.246094 162.902344 540.265625 155.546875 C 530.171875 146.238281 518.277344 139.429688 505.679688 134.1875 C 498.402344 131.214844 490.890625 128.789062 483.300781 126.832031 C 470.390625 123.542969 457.167969 121.589844 443.863281 120.960938 C 429.859375 120.257812 415.773438 120.960938 402 123.542969 C 388.855469 125.96875 375.945312 130.273438 364.441406 137.082031 C 358.808594 140.445312 353.488281 144.4375 348.792969 149.054688 C 343.472656 154.296875 339.089844 160.398438 335.179688 166.738281 C 330.875 173.625 327.039062 180.820312 322.347656 187.394531 C 317.964844 193.65625 312.566406 199.210938 306.148438 203.355469 C 292.296875 212.355469 276.023438 216.738281 262.800781 226.441406 C 252.3125 234.109375 243.550781 244.90625 242.457031 258.289062 C 242.375 259.539062 242.375 260.871094 242.375 262.121094 C 242.375 262.199219 242.375 262.277344 242.296875 262.355469 C 241.28125 275.816406 241.75 289.742188 244.566406 302.964844 C 247.304688 315.640625 253.097656 329.492188 265.539062 335.359375 C 274.222656 339.507812 283.925781 341.464844 293.316406 343.1875 C 307.792969 345.847656 322.503906 347.332031 337.210938 348.351562 C 354.820312 349.523438 372.425781 349.757812 390.109375 349.132812 C 409.277344 348.507812 428.527344 346.785156 447.464844 343.890625 C 466.085938 340.996094 484.632812 337.003906 502.394531 330.824219 C 517.574219 325.5 532.832031 318.460938 544.492188 307.113281 C 549.578125 302.105469 553.957031 296.316406 557.089844 289.898438 C 558.652344 286.613281 560.140625 283.25 561.078125 279.726562 C 561.785156 277.066406 562.175781 274.328125 562.566406 271.589844 C 564.679688 255.863281 564.835938 239.742188 564.992188 223.859375 C 565.070312 220.257812 565.070312 216.660156 565.070312 213.058594 C 564.992188 212.746094 564.992188 212.511719 564.992188 212.355469 Z M 250.359375 257.347656 C 250.359375 257.191406 250.4375 256.957031 250.4375 256.878906 C 250.515625 256.566406 250.515625 256.253906 250.59375 255.941406 C 250.75 255.3125 250.828125 254.765625 250.984375 254.140625 C 251.296875 252.886719 251.765625 251.636719 252.234375 250.460938 C 252.3125 250.304688 252.390625 250.070312 252.472656 249.992188 C 252.628906 249.679688 252.785156 249.367188 252.863281 249.054688 C 253.175781 248.429688 253.488281 247.878906 253.800781 247.253906 C 254.582031 245.925781 255.367188 244.671875 256.226562 243.421875 C 256.382812 243.183594 256.539062 242.949219 256.773438 242.714844 C 256.851562 242.636719 257.164062 242.167969 257.242188 242.167969 C 257.714844 241.542969 258.183594 240.996094 258.730469 240.445312 C 259.824219 239.273438 260.921875 238.097656 262.09375 237.082031 C 264.832031 234.578125 267.257812 232.777344 270.390625 230.742188 C 277.195312 226.363281 284.628906 223.152344 291.984375 219.710938 C 299.261719 216.347656 306.539062 212.902344 312.957031 208.128906 C 319.605469 203.277344 324.929688 197.332031 329.621094 190.601562 C 338.074219 178.316406 344.097656 164.46875 354.898438 154.0625 C 355.992188 153.042969 357.085938 152.027344 358.183594 151.089844 C 358.730469 150.617188 359.355469 150.148438 359.90625 149.679688 C 360.140625 149.523438 360.375 149.289062 360.609375 149.132812 C 360.6875 149.054688 361.390625 148.585938 361.46875 148.503906 C 363.894531 146.707031 366.398438 145.0625 368.980469 143.578125 C 371.71875 142.011719 374.535156 140.523438 377.433594 139.195312 C 378.058594 138.882812 378.761719 138.648438 379.386719 138.332031 C 379.542969 138.253906 380.015625 138.097656 380.015625 138.097656 C 380.40625 137.941406 380.71875 137.785156 381.109375 137.628906 C 382.675781 137.003906 384.238281 136.457031 385.882812 135.90625 C 392.144531 133.796875 398.558594 132.152344 405.054688 130.976562 C 406.617188 130.664062 408.261719 130.429688 409.828125 130.195312 C 411.46875 129.960938 412.410156 129.804688 414.441406 129.648438 C 417.652344 129.257812 420.9375 129.023438 424.144531 128.867188 C 430.875 128.472656 437.683594 128.550781 444.492188 128.867188 C 447.855469 129.023438 451.140625 129.335938 454.507812 129.648438 C 456.070312 129.804688 457.636719 129.960938 459.199219 130.195312 C 459.199219 130.195312 459.828125 130.273438 459.984375 130.273438 C 460.296875 130.351562 460.609375 130.351562 460.921875 130.429688 C 461.78125 130.585938 462.722656 130.664062 463.582031 130.820312 C 469.53125 131.761719 475.398438 132.933594 481.265625 134.421875 C 495.664062 138.097656 509.121094 143.183594 521.640625 151.167969 C 522.894531 151.949219 524.222656 152.808594 525.476562 153.671875 C 526.101562 154.0625 526.726562 154.53125 527.277344 155 C 527.589844 155.234375 527.902344 155.46875 528.136719 155.625 C 528.214844 155.703125 528.839844 156.175781 528.917969 156.253906 C 531.1875 158.050781 533.378906 159.929688 535.492188 161.886719 C 537.449219 163.6875 539.328125 165.640625 541.046875 167.675781 C 541.910156 168.617188 542.691406 169.632812 543.550781 170.648438 C 543.550781 170.726562 543.628906 170.726562 543.628906 170.804688 C 543.628906 170.804688 543.707031 170.882812 543.707031 170.882812 C 543.863281 171.121094 544.097656 171.355469 544.253906 171.667969 C 544.726562 172.214844 545.117188 172.839844 545.507812 173.464844 C 546.996094 175.578125 548.324219 177.691406 549.5 179.960938 C 550.046875 180.976562 550.59375 182.074219 551.140625 183.089844 C 551.375 183.640625 551.609375 184.1875 551.925781 184.65625 C 552.082031 184.890625 552.160156 185.203125 552.316406 185.4375 C 552.394531 185.515625 552.394531 185.671875 552.472656 185.75 C 552.472656 185.75 552.472656 185.75 552.472656 185.828125 C 554.191406 190.210938 555.601562 194.671875 556.382812 199.367188 C 556.460938 199.914062 556.539062 200.460938 556.617188 201.011719 C 556.695312 201.246094 556.695312 201.558594 556.777344 201.792969 C 556.777344 201.714844 556.777344 201.636719 556.777344 201.558594 C 556.777344 201.636719 556.777344 201.792969 556.777344 201.792969 C 556.933594 202.886719 557.011719 203.984375 557.089844 205.078125 C 557.246094 207.347656 557.324219 209.539062 557.246094 211.808594 C 557.167969 213.921875 557.011719 215.957031 556.777344 217.988281 C 556.777344 218.144531 556.617188 219.007812 556.617188 219.164062 C 556.539062 219.710938 556.460938 220.179688 556.382812 220.726562 C 556.070312 222.449219 555.679688 224.09375 555.210938 225.8125 C 554.820312 227.378906 554.273438 229.023438 553.722656 230.585938 C 553.488281 231.371094 553.175781 232.152344 552.863281 232.855469 C 552.550781 233.640625 552.472656 233.875 552.003906 234.890625 C 550.59375 237.941406 548.949219 240.835938 547.152344 243.65625 C 543.785156 248.820312 539.5625 253.515625 534.632812 257.894531 C 524.851562 266.582031 511.863281 273.78125 499.8125 278.710938 C 486.195312 284.265625 471.957031 288.335938 457.636719 291.464844 C 442.613281 294.75 427.902344 296.863281 412.722656 298.273438 C 384.082031 300.933594 355.210938 301.011719 326.570312 298.429688 C 323.441406 298.113281 320.390625 297.878906 317.261719 297.488281 C 315.851562 297.332031 314.441406 297.175781 312.957031 297.019531 C 312.253906 296.941406 311.546875 296.863281 310.84375 296.785156 C 310.53125 296.707031 310.140625 296.707031 309.828125 296.628906 C 309.667969 296.628906 309.511719 296.550781 309.277344 296.550781 C 309.199219 296.550781 309.199219 296.550781 309.121094 296.550781 C 303.878906 295.847656 298.636719 294.984375 293.472656 293.96875 C 285.804688 292.480469 278.136719 290.761719 270.9375 287.863281 C 270.859375 287.863281 270.859375 287.863281 270.78125 287.785156 C 270.46875 287.628906 270.15625 287.550781 269.921875 287.394531 C 269.371094 287.160156 268.746094 286.847656 268.199219 286.535156 C 266.867188 285.832031 265.617188 285.125 264.441406 284.265625 C 263.816406 283.875 263.269531 283.484375 262.722656 283.011719 C 262.644531 283.011719 262.328125 282.699219 262.171875 282.621094 C 261.859375 282.386719 261.546875 282.152344 261.3125 281.917969 C 259.355469 280.273438 257.558594 278.476562 255.914062 276.441406 C 255.835938 276.285156 255.679688 276.128906 255.601562 276.050781 C 255.445312 275.816406 255.210938 275.578125 255.054688 275.265625 C 254.738281 274.71875 254.347656 274.25 254.035156 273.703125 C 253.332031 272.605469 252.785156 271.433594 252.234375 270.179688 C 252.234375 270.179688 252.234375 270.101562 252.234375 270.101562 C 252.234375 270.101562 252.234375 270.023438 252.234375 270.023438 C 252.15625 269.710938 252 269.476562 251.921875 269.164062 C 251.6875 268.617188 251.53125 268.066406 251.375 267.441406 C 250.984375 266.191406 250.75 264.9375 250.515625 263.6875 C 250.515625 263.6875 250.515625 263.609375 250.515625 263.609375 C 250.515625 263.296875 250.4375 262.980469 250.4375 262.746094 C 250.359375 262.121094 250.359375 261.574219 250.359375 260.949219 C 250.125 259.773438 250.203125 258.523438 250.359375 257.347656 Z M 554.742188 270.726562 C 554.742188 270.808594 554.742188 270.964844 554.664062 271.042969 C 554.664062 271.042969 554.664062 271.042969 554.664062 271.121094 C 554.585938 271.511719 554.585938 271.824219 554.507812 272.214844 C 554.429688 272.839844 554.273438 273.546875 554.191406 274.171875 C 553.957031 275.265625 553.800781 276.363281 553.488281 277.457031 C 553.097656 278.867188 552.550781 280.351562 552.082031 281.761719 C 551.925781 282.152344 551.769531 282.621094 551.609375 283.011719 C 551.53125 283.167969 551.53125 283.25 551.53125 283.25 C 551.53125 283.25 551.453125 283.328125 551.453125 283.484375 C 551.0625 284.34375 550.671875 285.203125 550.28125 286.066406 C 548.792969 289.117188 546.996094 292.011719 544.960938 294.75 C 544.882812 294.90625 544.492188 295.375 544.414062 295.53125 C 544.335938 295.609375 544.019531 296.082031 543.941406 296.160156 C 543.394531 296.863281 542.769531 297.566406 542.144531 298.273438 C 541.046875 299.523438 539.875 300.777344 538.621094 301.871094 C 537.371094 303.121094 536.039062 304.296875 534.632812 305.390625 C 533.144531 306.644531 532.519531 307.113281 530.796875 308.289062 C 524.617188 312.667969 517.574219 316.347656 510.765625 319.164062 C 494.492188 326.128906 476.492188 330.585938 458.886719 333.875 C 440.65625 337.316406 422.347656 339.429688 403.878906 340.523438 C 386.117188 341.621094 368.277344 341.777344 350.4375 341.074219 C 342.457031 340.761719 334.394531 340.289062 326.414062 339.585938 C 322.660156 339.273438 318.902344 338.882812 315.226562 338.414062 C 313.503906 338.179688 311.78125 338.019531 310.0625 337.785156 C 309.589844 337.707031 309.199219 337.707031 308.730469 337.628906 C 308.730469 337.628906 308.652344 337.628906 308.574219 337.628906 C 308.417969 337.628906 308.183594 337.550781 308.105469 337.550781 C 307.242188 337.472656 306.382812 337.316406 305.601562 337.160156 C 302.394531 336.691406 299.105469 336.222656 295.820312 335.59375 C 298.011719 333.011719 300.125 330.273438 302 327.378906 C 302.863281 326.128906 302.316406 324.09375 300.984375 323.390625 C 299.496094 322.605469 297.855469 323.074219 296.992188 324.40625 C 296.367188 325.34375 295.742188 326.285156 295.117188 327.144531 C 294.800781 327.613281 294.488281 328.003906 294.097656 328.476562 C 294.019531 328.554688 293.941406 328.710938 293.863281 328.789062 C 293.863281 328.789062 293.785156 328.945312 293.707031 329.023438 C 293.628906 329.179688 293.550781 329.257812 293.394531 329.414062 C 292.0625 331.136719 290.65625 332.777344 289.167969 334.34375 C 286.742188 333.875 284.394531 333.328125 281.96875 332.699219 C 285.570312 328.320312 288.777344 323.625 291.671875 318.773438 C 292.457031 317.441406 291.984375 315.484375 290.65625 314.78125 C 289.246094 314.078125 287.449219 314.390625 286.664062 315.800781 C 284.945312 318.695312 283.144531 321.511719 281.1875 324.25 C 280.71875 324.875 280.25 325.578125 279.777344 326.207031 C 279.621094 326.363281 279.542969 326.519531 279.386719 326.675781 C 279.386719 326.675781 279.386719 326.753906 279.308594 326.753906 C 279.308594 326.753906 279.308594 326.753906 279.230469 326.832031 C 278.917969 327.222656 278.683594 327.535156 278.371094 327.925781 C 277.511719 328.945312 276.648438 329.960938 275.789062 330.980469 C 275.242188 330.824219 274.613281 330.585938 274.066406 330.429688 C 273.128906 330.117188 272.265625 329.804688 271.328125 329.414062 C 271.25 329.335938 270.9375 329.257812 270.703125 329.179688 C 270.546875 329.101562 270.3125 329.023438 270.15625 328.945312 C 272.265625 326.128906 274.457031 323.3125 276.570312 320.492188 C 276.960938 319.945312 277.039062 318.851562 276.882812 318.226562 C 276.726562 317.519531 276.179688 316.816406 275.554688 316.503906 C 274.847656 316.113281 274.066406 315.957031 273.285156 316.191406 C 272.503906 316.425781 272.03125 316.894531 271.5625 317.519531 C 269.449219 320.335938 267.257812 323.15625 265.148438 325.972656 C 264.992188 325.816406 264.675781 325.578125 264.597656 325.5 C 263.425781 324.484375 262.328125 323.390625 261.3125 322.214844 C 261.234375 322.136719 260.921875 321.746094 260.765625 321.589844 C 260.6875 321.433594 260.375 321.121094 260.375 321.042969 C 259.90625 320.335938 259.355469 319.632812 258.964844 318.929688 C 258.105469 317.597656 257.398438 316.191406 256.695312 314.78125 C 256.539062 314.390625 256.304688 314 256.148438 313.609375 C 256.070312 313.453125 255.992188 313.296875 255.914062 313.136719 C 255.914062 313.136719 255.914062 313.136719 255.914062 313.058594 C 255.601562 312.277344 255.289062 311.496094 254.976562 310.632812 C 253.800781 307.347656 252.863281 303.984375 252.15625 300.539062 C 251.765625 298.742188 251.453125 296.941406 251.140625 295.140625 C 251.0625 294.75 250.984375 294.359375 250.984375 293.96875 C 250.984375 293.734375 250.90625 293.5 250.90625 293.265625 C 250.75 292.324219 250.671875 291.308594 250.59375 290.367188 C 250.28125 287.394531 250.046875 284.421875 249.96875 281.371094 C 251.765625 283.640625 253.800781 285.753906 255.992188 287.550781 C 262.644531 293.027344 270.15625 296.082031 278.371094 298.351562 C 287.917969 300.933594 297.777344 302.652344 307.636719 303.984375 C 320.625 305.703125 333.769531 306.878906 346.914062 307.425781 C 361.78125 308.050781 376.726562 308.050781 391.59375 307.347656 C 407.480469 306.644531 423.285156 305.078125 438.933594 302.652344 C 454.347656 300.226562 469.6875 296.941406 484.632812 292.246094 C 498.558594 287.863281 512.410156 282.308594 524.851562 274.640625 C 536.824219 267.207031 547.699219 257.660156 555.132812 245.609375 C 555.757812 244.59375 556.382812 243.578125 556.933594 242.480469 C 556.695312 248.507812 556.382812 254.53125 555.992188 260.554688 C 555.523438 264 555.210938 267.363281 554.742188 270.726562 Z M 554.742188 270.726562 " fill-opacity="1" fill-rule="nonzero"/></g><path fill="#00425c" d="M 535.492188 288.097656 C 535.179688 288.648438 535.414062 288.257812 535.492188 288.097656 Z M 535.492188 288.097656 " fill-opacity="1" fill-rule="nonzero"/><path fill="#00425c" d="M 539.5625 284.421875 C 537.996094 284.109375 536.351562 284.890625 535.960938 286.457031 C 535.804688 287.003906 535.648438 287.472656 535.492188 288.019531 C 535.492188 287.941406 535.570312 287.941406 535.570312 287.863281 C 535.492188 287.941406 535.492188 288.097656 535.414062 288.175781 C 535.335938 288.414062 535.179688 288.648438 535.023438 288.882812 C 534.789062 289.351562 534.476562 289.820312 534.238281 290.210938 C 534.082031 290.445312 533.925781 290.601562 533.769531 290.839844 C 533.691406 290.917969 533.613281 290.996094 533.613281 291.074219 C 533.300781 291.464844 532.910156 291.855469 532.519531 292.246094 C 532.441406 292.324219 531.65625 292.949219 531.421875 293.265625 C 531.34375 293.34375 531.265625 293.34375 531.1875 293.421875 C 530.953125 293.578125 530.71875 293.734375 530.40625 293.890625 C 529.9375 294.203125 529.46875 294.4375 528.917969 294.671875 C 528.292969 294.984375 527.746094 295.769531 527.589844 296.394531 C 527.433594 297.097656 527.511719 298.035156 527.902344 298.664062 C 528.839844 300.070312 530.40625 300.382812 531.894531 299.679688 C 536.664062 297.488281 540.265625 292.949219 541.59375 287.863281 C 541.988281 286.613281 541.125 284.8125 539.5625 284.421875 Z M 531.34375 293.34375 C 531.265625 293.421875 531.265625 293.421875 531.34375 293.34375 C 531.265625 293.421875 531.265625 293.421875 531.34375 293.34375 Z M 531.421875 293.265625 C 531.578125 293.183594 531.734375 293.105469 531.421875 293.265625 Z M 531.421875 293.265625 " fill-opacity="1" fill-rule="nonzero"/><path fill="#00425c" d="M 299.183594 246.082031 C 302.941406 244.90625 306.304688 243.027344 309.433594 240.601562 C 309.984375 240.132812 310.296875 239.195312 310.296875 238.492188 C 310.296875 237.785156 309.984375 236.925781 309.433594 236.378906 C 308.886719 235.832031 308.105469 235.515625 307.324219 235.515625 C 306.539062 235.515625 305.914062 235.828125 305.289062 236.300781 C 305.367188 236.222656 305.445312 236.144531 305.601562 236.066406 C 303.800781 237.472656 301.765625 238.648438 299.652344 239.585938 C 298.949219 239.820312 298.324219 240.132812 297.621094 240.367188 C 296.132812 240.839844 295.039062 242.402344 295.585938 243.96875 C 295.976562 245.453125 297.621094 246.550781 299.183594 246.082031 Z M 299.183594 246.082031 " fill-opacity="1" fill-rule="nonzero"/><path fill="#00425c" d="M 475.632812 256.253906 C 474.617188 256.957031 473.597656 257.582031 472.503906 258.128906 C 471.957031 258.445312 471.328125 258.679688 470.78125 258.992188 C 470.78125 258.992188 470.703125 258.992188 470.703125 258.992188 C 470.703125 258.992188 470.625 258.992188 470.625 259.070312 C 470.3125 259.148438 470 259.304688 469.6875 259.382812 C 468.511719 259.773438 467.417969 260.164062 466.242188 260.398438 C 465.695312 260.554688 465.148438 260.632812 464.601562 260.710938 C 464.285156 260.792969 464.050781 260.792969 463.738281 260.871094 C 463.582031 260.871094 463.269531 260.949219 463.191406 260.949219 C 461.703125 261.105469 460.21875 262.199219 460.21875 263.921875 C 460.296875 265.40625 461.546875 267.050781 463.191406 266.894531 C 468.667969 266.347656 473.988281 264.546875 478.605469 261.417969 C 479.859375 260.554688 480.5625 258.835938 479.625 257.425781 C 478.839844 256.097656 477.042969 255.390625 475.632812 256.253906 Z M 475.632812 256.253906 " fill-opacity="1" fill-rule="nonzero"/><path fill="#00425c" d="M 425.945312 194.515625 C 426.492188 194.28125 427.042969 194.125 427.589844 193.96875 C 428.136719 193.8125 428.683594 193.734375 429.308594 193.578125 C 429.386719 193.578125 429.386719 193.578125 429.464844 193.578125 C 429.546875 193.578125 429.703125 193.578125 429.78125 193.578125 C 430.09375 193.578125 430.328125 193.5 430.640625 193.5 C 431.1875 193.5 431.8125 193.5 432.363281 193.5 C 432.675781 193.5 432.910156 193.5 433.222656 193.578125 C 433.300781 193.578125 433.769531 193.65625 433.925781 193.65625 C 434.082031 193.65625 434.394531 193.734375 434.472656 193.734375 C 434.789062 193.8125 435.023438 193.890625 435.335938 193.890625 C 435.960938 194.046875 436.507812 194.203125 437.136719 194.4375 C 438.621094 194.90625 440.421875 193.890625 440.734375 192.402344 C 441.125 190.757812 440.265625 189.351562 438.699219 188.804688 C 433.222656 186.847656 427.121094 187.394531 421.953125 189.976562 C 420.546875 190.679688 420.078125 192.714844 420.9375 193.96875 C 421.875 195.375 423.441406 195.765625 424.929688 194.984375 C 425.007812 194.984375 425.554688 194.75 425.554688 194.671875 C 425.632812 194.671875 425.789062 194.59375 425.945312 194.515625 Z M 425.945312 194.515625 " fill-opacity="1" fill-rule="nonzero"/><g fill="#00425c" fill-opacity="1"><g transform="translate(148.927729, 528.570809)"><g><path d="M 1.875 -20.0625 C 1.875 -24.019531 2.726562 -27.546875 4.4375 -30.640625 C 6.15625 -33.742188 8.539062 -36.160156 11.59375 -37.890625 C 14.65625 -39.617188 18.128906 -40.484375 22.015625 -40.484375 C 26.765625 -40.484375 30.828125 -39.226562 34.203125 -36.71875 C 37.585938 -34.207031 39.851562 -30.785156 41 -26.453125 L 30.28125 -26.453125 C 29.476562 -28.128906 28.34375 -29.40625 26.875 -30.28125 C 25.414062 -31.15625 23.753906 -31.59375 21.890625 -31.59375 C 18.890625 -31.59375 16.457031 -30.546875 14.59375 -28.453125 C 12.726562 -26.359375 11.796875 -23.5625 11.796875 -20.0625 C 11.796875 -16.570312 12.726562 -13.78125 14.59375 -11.6875 C 16.457031 -9.59375 18.890625 -8.546875 21.890625 -8.546875 C 23.753906 -8.546875 25.414062 -8.984375 26.875 -9.859375 C 28.34375 -10.734375 29.476562 -12.007812 30.28125 -13.6875 L 41 -13.6875 C 39.851562 -9.351562 37.585938 -5.941406 34.203125 -3.453125 C 30.828125 -0.960938 26.765625 0.28125 22.015625 0.28125 C 18.128906 0.28125 14.65625 -0.582031 11.59375 -2.3125 C 8.539062 -4.039062 6.15625 -6.441406 4.4375 -9.515625 C 2.726562 -12.597656 1.875 -16.113281 1.875 -20.0625 Z M 1.875 -20.0625 "/></g></g></g><g fill="#00425c" fill-opacity="1"><g transform="translate(192.370701, 528.570809)"><g><path d="M 28.453125 -7.0625 L 13.515625 -7.0625 L 11.125 0 L 0.90625 0 L 15.390625 -40.03125 L 26.6875 -40.03125 L 41.171875 0 L 30.84375 0 Z M 25.9375 -14.59375 L 20.984375 -29.25 L 16.078125 -14.59375 Z M 25.9375 -14.59375 "/></g></g></g><g fill="#00425c" fill-opacity="1"><g transform="translate(234.38838, 528.570809)"><g><path d="M 23.953125 0 L 15.625 -15.109375 L 13.28125 -15.109375 L 13.28125 0 L 3.53125 0 L 3.53125 -40.03125 L 19.90625 -40.03125 C 23.050781 -40.03125 25.734375 -39.476562 27.953125 -38.375 C 30.179688 -37.269531 31.847656 -35.753906 32.953125 -33.828125 C 34.054688 -31.910156 34.609375 -29.773438 34.609375 -27.421875 C 34.609375 -24.765625 33.859375 -22.390625 32.359375 -20.296875 C 30.859375 -18.203125 28.644531 -16.71875 25.71875 -15.84375 L 34.953125 0 Z M 13.28125 -22.015625 L 19.328125 -22.015625 C 21.117188 -22.015625 22.457031 -22.445312 23.34375 -23.3125 C 24.238281 -24.1875 24.6875 -25.425781 24.6875 -27.03125 C 24.6875 -28.550781 24.238281 -29.742188 23.34375 -30.609375 C 22.457031 -31.484375 21.117188 -31.921875 19.328125 -31.921875 L 13.28125 -31.921875 Z M 13.28125 -22.015625 "/></g></g></g><g fill="#00425c" fill-opacity="1"><g transform="translate(271.560059, 528.570809)"><g><path d="M 39.34375 0 L 29.59375 0 L 13.28125 -24.6875 L 13.28125 0 L 3.53125 0 L 3.53125 -40.03125 L 13.28125 -40.03125 L 29.59375 -15.21875 L 29.59375 -40.03125 L 39.34375 -40.03125 Z M 39.34375 0 "/></g></g></g><g fill="#00425c" fill-opacity="1"><g transform="translate(314.43292, 528.570809)"><g><path d="M 13.28125 -32.21875 L 13.28125 -24.125 L 26.34375 -24.125 L 26.34375 -16.59375 L 13.28125 -16.59375 L 13.28125 -7.8125 L 28.046875 -7.8125 L 28.046875 0 L 3.53125 0 L 3.53125 -40.03125 L 28.046875 -40.03125 L 28.046875 -32.21875 Z M 13.28125 -32.21875 "/></g></g></g><g fill="#00425c" fill-opacity="1"><g transform="translate(345.276291, 528.570809)"><g/></g></g><g fill="#00425c" fill-opacity="1"><g transform="translate(357.362785, 528.570809)"><g><path d="M 41.109375 -40.03125 L 26.90625 0 L 14.703125 0 L 0.515625 -40.03125 L 10.890625 -40.03125 L 20.8125 -9.8125 L 30.78125 -40.03125 Z M 41.109375 -40.03125 "/></g></g></g><g fill="#00425c" fill-opacity="1"><g transform="translate(398.981397, 528.570809)"><g><path d="M 13.28125 -32.21875 L 13.28125 -24.125 L 26.34375 -24.125 L 26.34375 -16.59375 L 13.28125 -16.59375 L 13.28125 -7.8125 L 28.046875 -7.8125 L 28.046875 0 L 3.53125 0 L 3.53125 -40.03125 L 28.046875 -40.03125 L 28.046875 -32.21875 Z M 13.28125 -32.21875 "/></g></g></g><g fill="#00425c" fill-opacity="1"><g transform="translate(429.824779, 528.570809)"><g><path d="M 23.953125 0 L 15.625 -15.109375 L 13.28125 -15.109375 L 13.28125 0 L 3.53125 0 L 3.53125 -40.03125 L 19.90625 -40.03125 C 23.050781 -40.03125 25.734375 -39.476562 27.953125 -38.375 C 30.179688 -37.269531 31.847656 -35.753906 32.953125 -33.828125 C 34.054688 -31.910156 34.609375 -29.773438 34.609375 -27.421875 C 34.609375 -24.765625 33.859375 -22.390625 32.359375 -20.296875 C 30.859375 -18.203125 28.644531 -16.71875 25.71875 -15.84375 L 34.953125 0 Z M 13.28125 -22.015625 L 19.328125 -22.015625 C 21.117188 -22.015625 22.457031 -22.445312 23.34375 -23.3125 C 24.238281 -24.1875 24.6875 -25.425781 24.6875 -27.03125 C 24.6875 -28.550781 24.238281 -29.742188 23.34375 -30.609375 C 22.457031 -31.484375 21.117188 -31.921875 19.328125 -31.921875 L 13.28125 -31.921875 Z M 13.28125 -22.015625 "/></g></g></g><g fill="#00425c" fill-opacity="1"><g transform="translate(466.99647, 528.570809)"><g><path d="M 48.859375 -40.03125 L 48.859375 0 L 39.109375 0 L 39.109375 -24 L 30.15625 0 L 22.296875 0 L 13.28125 -24.0625 L 13.28125 0 L 3.53125 0 L 3.53125 -40.03125 L 15.046875 -40.03125 L 26.28125 -12.3125 L 37.40625 -40.03125 Z M 48.859375 -40.03125 "/></g></g></g><g fill="#00425c" fill-opacity="1"><g transform="translate(519.333274, 528.570809)"><g><path d="M 13.28125 -32.21875 L 13.28125 -24.125 L 26.34375 -24.125 L 26.34375 -16.59375 L 13.28125 -16.59375 L 13.28125 -7.8125 L 28.046875 -7.8125 L 28.046875 0 L 3.53125 0 L 3.53125 -40.03125 L 28.046875 -40.03125 L 28.046875 -32.21875 Z M 13.28125 -32.21875 "/></g></g></g><g fill="#00425c" fill-opacity="1"><g transform="translate(550.176657, 528.570809)"><g><path d="M 13.28125 -7.53125 L 26.0625 -7.53125 L 26.0625 0 L 3.53125 0 L 3.53125 -40.03125 L 13.28125 -40.03125 Z M 13.28125 -7.53125 "/></g></g></g><g fill="#00425c" fill-opacity="1"><g transform="translate(577.371251, 528.570809)"><g><path d="M 38.203125 -40.03125 L 38.203125 0 L 28.453125 0 L 28.453125 -16.484375 L 13.28125 -16.484375 L 13.28125 0 L 3.53125 0 L 3.53125 -40.03125 L 13.28125 -40.03125 L 13.28125 -24.34375 L 28.453125 -24.34375 L 28.453125 -40.03125 Z M 38.203125 -40.03125 "/></g></g></g><g fill="#00425c" fill-opacity="1"><g transform="translate(619.046877, 528.570809)"><g><path d="M 28.453125 -7.0625 L 13.515625 -7.0625 L 11.125 0 L 0.90625 0 L 15.390625 -40.03125 L 26.6875 -40.03125 L 41.171875 0 L 30.84375 0 Z M 25.9375 -14.59375 L 20.984375 -29.25 L 16.078125 -14.59375 Z M 25.9375 -14.59375 "/></g></g></g><g fill="#00425c" fill-opacity="1"><g transform="translate(340.798817, 608.070805)"><g><path d="M 2.171875 -36.484375 L 2.171875 -41.21875 L 12.890625 -41.21875 L 12.890625 0 L 7.640625 0 L 7.640625 -36.484375 Z M 2.171875 -36.484375 "/></g></g></g><g fill="#00425c" fill-opacity="1"><g transform="translate(359.042587, 608.070805)"><g><path d="M 3.53125 -21.03125 C 3.53125 -27.570312 4.59375 -32.675781 6.71875 -36.34375 C 8.851562 -40.007812 12.582031 -41.84375 17.90625 -41.84375 C 23.1875 -41.84375 26.890625 -40.007812 29.015625 -36.34375 C 31.148438 -32.675781 32.21875 -27.570312 32.21875 -21.03125 C 32.21875 -14.382812 31.148438 -9.21875 29.015625 -5.53125 C 26.890625 -1.84375 23.1875 0 17.90625 0 C 12.582031 0 8.851562 -1.84375 6.71875 -5.53125 C 4.59375 -9.21875 3.53125 -14.382812 3.53125 -21.03125 Z M 27.078125 -21.03125 C 27.078125 -24.34375 26.859375 -27.144531 26.421875 -29.4375 C 25.984375 -31.738281 25.085938 -33.59375 23.734375 -35 C 22.390625 -36.414062 20.445312 -37.125 17.90625 -37.125 C 15.320312 -37.125 13.351562 -36.414062 12 -35 C 10.65625 -33.59375 9.765625 -31.738281 9.328125 -29.4375 C 8.890625 -27.144531 8.671875 -24.34375 8.671875 -21.03125 C 8.671875 -17.613281 8.890625 -14.742188 9.328125 -12.421875 C 9.765625 -10.109375 10.65625 -8.25 12 -6.84375 C 13.351562 -5.4375 15.320312 -4.734375 17.90625 -4.734375 C 20.445312 -4.734375 22.390625 -5.4375 23.734375 -6.84375 C 25.085938 -8.25 25.984375 -10.109375 26.421875 -12.421875 C 26.859375 -14.742188 27.078125 -17.613281 27.078125 -21.03125 Z M 27.078125 -21.03125 "/></g></g></g><g fill="#00425c" fill-opacity="1"><g transform="translate(394.845987, 608.070805)"><g><path d="M 3.53125 -21.03125 C 3.53125 -27.570312 4.59375 -32.675781 6.71875 -36.34375 C 8.851562 -40.007812 12.582031 -41.84375 17.90625 -41.84375 C 23.1875 -41.84375 26.890625 -40.007812 29.015625 -36.34375 C 31.148438 -32.675781 32.21875 -27.570312 32.21875 -21.03125 C 32.21875 -14.382812 31.148438 -9.21875 29.015625 -5.53125 C 26.890625 -1.84375 23.1875 0 17.90625 0 C 12.582031 0 8.851562 -1.84375 6.71875 -5.53125 C 4.59375 -9.21875 3.53125 -14.382812 3.53125 -21.03125 Z M 27.078125 -21.03125 C 27.078125 -24.34375 26.859375 -27.144531 26.421875 -29.4375 C 25.984375 -31.738281 25.085938 -33.59375 23.734375 -35 C 22.390625 -36.414062 20.445312 -37.125 17.90625 -37.125 C 15.320312 -37.125 13.351562 -36.414062 12 -35 C 10.65625 -33.59375 9.765625 -31.738281 9.328125 -29.4375 C 8.890625 -27.144531 8.671875 -24.34375 8.671875 -21.03125 C 8.671875 -17.613281 8.890625 -14.742188 9.328125 -12.421875 C 9.765625 -10.109375 10.65625 -8.25 12 -6.84375 C 13.351562 -5.4375 15.320312 -4.734375 17.90625 -4.734375 C 20.445312 -4.734375 22.390625 -5.4375 23.734375 -6.84375 C 25.085938 -8.25 25.984375 -10.109375 26.421875 -12.421875 C 26.859375 -14.742188 27.078125 -17.613281 27.078125 -21.03125 Z M 27.078125 -21.03125 "/></g></g></g><g fill="#00425c" fill-opacity="1"><g transform="translate(430.649386, 608.070805)"><g><path d="M 17.28125 -31.75 C 19.976562 -31.75 22.34375 -31.160156 24.375 -29.984375 C 26.40625 -28.804688 27.914062 -27.328125 28.90625 -25.546875 L 28.90625 -31.25 L 34.15625 -31.25 L 34.15625 0.6875 C 34.15625 3.53125 33.546875 6.0625 32.328125 8.28125 C 31.109375 10.507812 29.367188 12.25 27.109375 13.5 C 24.847656 14.757812 22.21875 15.390625 19.21875 15.390625 C 15.113281 15.390625 11.691406 14.421875 8.953125 12.484375 C 6.210938 10.546875 4.597656 7.90625 4.109375 4.5625 L 9.234375 4.5625 C 9.804688 6.457031 10.984375 7.984375 12.765625 9.140625 C 14.554688 10.304688 16.707031 10.890625 19.21875 10.890625 C 22.0625 10.890625 24.382812 9.992188 26.1875 8.203125 C 28 6.421875 28.90625 3.914062 28.90625 0.6875 L 28.90625 -5.875 C 27.882812 -4.050781 26.363281 -2.53125 24.34375 -1.3125 C 22.332031 -0.09375 19.976562 0.515625 17.28125 0.515625 C 14.5 0.515625 11.976562 -0.164062 9.71875 -1.53125 C 7.457031 -2.90625 5.679688 -4.828125 4.390625 -7.296875 C 3.097656 -9.765625 2.453125 -12.578125 2.453125 -15.734375 C 2.453125 -18.929688 3.097656 -21.734375 4.390625 -24.140625 C 5.679688 -26.554688 7.457031 -28.425781 9.71875 -29.75 C 11.976562 -31.082031 14.5 -31.75 17.28125 -31.75 Z M 28.90625 -15.671875 C 28.90625 -18.035156 28.429688 -20.085938 27.484375 -21.828125 C 26.535156 -23.578125 25.25 -24.914062 23.625 -25.84375 C 22.007812 -26.78125 20.234375 -27.25 18.296875 -27.25 C 16.359375 -27.25 14.59375 -26.789062 13 -25.875 C 11.40625 -24.96875 10.128906 -23.640625 9.171875 -21.890625 C 8.222656 -20.140625 7.75 -18.085938 7.75 -15.734375 C 7.75 -13.335938 8.222656 -11.253906 9.171875 -9.484375 C 10.128906 -7.722656 11.40625 -6.375 13 -5.4375 C 14.59375 -4.507812 16.359375 -4.046875 18.296875 -4.046875 C 20.234375 -4.046875 22.007812 -4.507812 23.625 -5.4375 C 25.25 -6.375 26.535156 -7.722656 27.484375 -9.484375 C 28.429688 -11.253906 28.90625 -13.316406 28.90625 -15.671875 Z M 28.90625 -15.671875 "/></g></g></g><g fill="#00425c" fill-opacity="1"><g transform="translate(217.201163, 687.570801)"><g><path d="M 2.90625 -29.875 C 3.0625 -33.945312 4.390625 -37.082031 6.890625 -39.28125 C 9.398438 -41.488281 12.804688 -42.59375 17.109375 -42.59375 C 19.953125 -42.59375 22.390625 -42.097656 24.421875 -41.109375 C 26.460938 -40.117188 28.003906 -38.769531 29.046875 -37.0625 C 30.097656 -35.351562 30.625 -33.429688 30.625 -31.296875 C 30.625 -28.785156 29.992188 -26.742188 28.734375 -25.171875 C 27.484375 -23.597656 26.019531 -22.523438 24.34375 -21.953125 L 24.34375 -21.71875 C 26.507812 -21 28.21875 -19.800781 29.46875 -18.125 C 30.726562 -16.457031 31.359375 -14.3125 31.359375 -11.6875 C 31.359375 -9.332031 30.816406 -7.25 29.734375 -5.4375 C 28.648438 -3.632812 27.070312 -2.21875 25 -1.1875 C 22.925781 -0.164062 20.46875 0.34375 17.625 0.34375 C 13.0625 0.34375 9.421875 -0.773438 6.703125 -3.015625 C 3.984375 -5.265625 2.546875 -8.648438 2.390625 -13.171875 L 11.859375 -13.171875 C 11.898438 -11.492188 12.375 -10.171875 13.28125 -9.203125 C 14.195312 -8.234375 15.53125 -7.75 17.28125 -7.75 C 18.757812 -7.75 19.90625 -8.175781 20.71875 -9.03125 C 21.539062 -9.882812 21.953125 -11.015625 21.953125 -12.421875 C 21.953125 -14.253906 21.367188 -15.578125 20.203125 -16.390625 C 19.046875 -17.210938 17.195312 -17.625 14.65625 -17.625 L 12.828125 -17.625 L 12.828125 -25.546875 L 14.65625 -25.546875 C 16.59375 -25.546875 18.160156 -25.875 19.359375 -26.53125 C 20.554688 -27.195312 21.15625 -28.390625 21.15625 -30.109375 C 21.15625 -31.472656 20.773438 -32.535156 20.015625 -33.296875 C 19.253906 -34.054688 18.207031 -34.4375 16.875 -34.4375 C 15.425781 -34.4375 14.347656 -34 13.640625 -33.125 C 12.941406 -32.25 12.535156 -31.164062 12.421875 -29.875 Z M 2.90625 -29.875 "/></g></g></g><g fill="#00425c" fill-opacity="1"><g transform="translate(251.693288, 687.570801)"><g><path d="M 2.5625 -21.375 C 2.5625 -27.914062 3.828125 -33.066406 6.359375 -36.828125 C 8.890625 -40.597656 12.96875 -42.484375 18.59375 -42.484375 C 24.21875 -42.484375 28.289062 -40.597656 30.8125 -36.828125 C 33.34375 -33.066406 34.609375 -27.914062 34.609375 -21.375 C 34.609375 -14.757812 33.34375 -9.570312 30.8125 -5.8125 C 28.289062 -2.050781 24.21875 -0.171875 18.59375 -0.171875 C 12.96875 -0.171875 8.890625 -2.050781 6.359375 -5.8125 C 3.828125 -9.570312 2.5625 -14.757812 2.5625 -21.375 Z M 25.03125 -21.375 C 25.03125 -25.21875 24.609375 -28.175781 23.765625 -30.25 C 22.929688 -32.320312 21.207031 -33.359375 18.59375 -33.359375 C 15.96875 -33.359375 14.234375 -32.320312 13.390625 -30.25 C 12.554688 -28.175781 12.140625 -25.21875 12.140625 -21.375 C 12.140625 -18.789062 12.289062 -16.648438 12.59375 -14.953125 C 12.90625 -13.265625 13.523438 -11.898438 14.453125 -10.859375 C 15.378906 -9.816406 16.757812 -9.296875 18.59375 -9.296875 C 20.414062 -9.296875 21.789062 -9.816406 22.71875 -10.859375 C 23.65625 -11.898438 24.273438 -13.265625 24.578125 -14.953125 C 24.878906 -16.648438 25.03125 -18.789062 25.03125 -21.375 Z M 25.03125 -21.375 "/></g></g></g><g fill="#00425c" fill-opacity="1"><g transform="translate(288.864967, 687.570801)"><g><path d="M 15.625 -32.265625 C 17.863281 -32.265625 19.828125 -31.804688 21.515625 -30.890625 C 23.210938 -29.984375 24.515625 -28.789062 25.421875 -27.3125 L 25.421875 -31.8125 L 35.171875 -31.8125 L 35.171875 -0.0625 C 35.171875 2.863281 34.59375 5.515625 33.4375 7.890625 C 32.28125 10.265625 30.515625 12.15625 28.140625 13.5625 C 25.765625 14.96875 22.804688 15.671875 19.265625 15.671875 C 14.554688 15.671875 10.738281 14.5625 7.8125 12.34375 C 4.882812 10.125 3.210938 7.113281 2.796875 3.3125 L 12.421875 3.3125 C 12.734375 4.519531 13.457031 5.472656 14.59375 6.171875 C 15.738281 6.878906 17.144531 7.234375 18.8125 7.234375 C 20.832031 7.234375 22.4375 6.65625 23.625 5.5 C 24.820312 4.34375 25.421875 2.488281 25.421875 -0.0625 L 25.421875 -4.5625 C 24.472656 -3.082031 23.160156 -1.875 21.484375 -0.9375 C 19.816406 -0.0078125 17.863281 0.453125 15.625 0.453125 C 13 0.453125 10.617188 -0.21875 8.484375 -1.5625 C 6.359375 -2.914062 4.675781 -4.835938 3.4375 -7.328125 C 2.207031 -9.816406 1.59375 -12.695312 1.59375 -15.96875 C 1.59375 -19.238281 2.207031 -22.109375 3.4375 -24.578125 C 4.675781 -27.046875 6.359375 -28.941406 8.484375 -30.265625 C 10.617188 -31.597656 13 -32.265625 15.625 -32.265625 Z M 25.421875 -15.90625 C 25.421875 -18.34375 24.742188 -20.265625 23.390625 -21.671875 C 22.046875 -23.078125 20.40625 -23.78125 18.46875 -23.78125 C 16.53125 -23.78125 14.882812 -23.082031 13.53125 -21.6875 C 12.1875 -20.300781 11.515625 -18.394531 11.515625 -15.96875 C 11.515625 -13.53125 12.1875 -11.597656 13.53125 -10.171875 C 14.882812 -8.753906 16.53125 -8.046875 18.46875 -8.046875 C 20.40625 -8.046875 22.046875 -8.75 23.390625 -10.15625 C 24.742188 -11.5625 25.421875 -13.476562 25.421875 -15.90625 Z M 25.421875 -15.90625 "/></g></g></g><g fill="#00425c" fill-opacity="1"><g transform="translate(327.575968, 687.570801)"><g/></g></g><g fill="#00425c" fill-opacity="1"><g transform="translate(339.662461, 687.570801)"><g><path d="M 13.28125 -27.3125 C 14.226562 -28.789062 15.539062 -29.984375 17.21875 -30.890625 C 18.894531 -31.804688 20.851562 -32.265625 23.09375 -32.265625 C 25.71875 -32.265625 28.09375 -31.597656 30.21875 -30.265625 C 32.34375 -28.941406 34.023438 -27.046875 35.265625 -24.578125 C 36.503906 -22.109375 37.125 -19.238281 37.125 -15.96875 C 37.125 -12.695312 36.503906 -9.816406 35.265625 -7.328125 C 34.023438 -4.835938 32.34375 -2.914062 30.21875 -1.5625 C 28.09375 -0.21875 25.71875 0.453125 23.09375 0.453125 C 20.882812 0.453125 18.929688 0 17.234375 -0.90625 C 15.546875 -1.820312 14.226562 -3.003906 13.28125 -4.453125 L 13.28125 15.171875 L 3.53125 15.171875 L 3.53125 -31.8125 L 13.28125 -31.8125 Z M 27.203125 -15.96875 C 27.203125 -18.394531 26.523438 -20.300781 25.171875 -21.6875 C 23.816406 -23.082031 22.15625 -23.78125 20.1875 -23.78125 C 18.25 -23.78125 16.601562 -23.078125 15.25 -21.671875 C 13.90625 -20.265625 13.234375 -18.34375 13.234375 -15.90625 C 13.234375 -13.476562 13.90625 -11.5625 15.25 -10.15625 C 16.601562 -8.75 18.25 -8.046875 20.1875 -8.046875 C 22.125 -8.046875 23.773438 -8.753906 25.140625 -10.171875 C 26.515625 -11.597656 27.203125 -13.53125 27.203125 -15.96875 Z M 27.203125 -15.96875 "/></g></g></g><g fill="#00425c" fill-opacity="1"><g transform="translate(378.373462, 687.570801)"><g><path d="M 13.28125 -26.515625 C 14.425781 -28.265625 15.851562 -29.640625 17.5625 -30.640625 C 19.269531 -31.648438 21.171875 -32.15625 23.265625 -32.15625 L 23.265625 -21.84375 L 20.578125 -21.84375 C 18.148438 -21.84375 16.328125 -21.316406 15.109375 -20.265625 C 13.890625 -19.222656 13.28125 -17.390625 13.28125 -14.765625 L 13.28125 0 L 3.53125 0 L 3.53125 -31.8125 L 13.28125 -31.8125 Z M 13.28125 -26.515625 "/></g></g></g><g fill="#00425c" fill-opacity="1"><g transform="translate(402.774508, 687.570801)"><g><path d="M 18.015625 0.453125 C 14.898438 0.453125 12.097656 -0.207031 9.609375 -1.53125 C 7.117188 -2.863281 5.160156 -4.765625 3.734375 -7.234375 C 2.304688 -9.710938 1.59375 -12.601562 1.59375 -15.90625 C 1.59375 -19.175781 2.3125 -22.054688 3.75 -24.546875 C 5.195312 -27.035156 7.175781 -28.941406 9.6875 -30.265625 C 12.195312 -31.597656 15.007812 -32.265625 18.125 -32.265625 C 21.25 -32.265625 24.0625 -31.597656 26.5625 -30.265625 C 29.070312 -28.941406 31.050781 -27.035156 32.5 -24.546875 C 33.945312 -22.054688 34.671875 -19.175781 34.671875 -15.90625 C 34.671875 -12.632812 33.9375 -9.753906 32.46875 -7.265625 C 31.007812 -4.773438 29.015625 -2.863281 26.484375 -1.53125 C 23.953125 -0.207031 21.128906 0.453125 18.015625 0.453125 Z M 18.015625 -7.984375 C 19.878906 -7.984375 21.46875 -8.664062 22.78125 -10.03125 C 24.09375 -11.40625 24.75 -13.363281 24.75 -15.90625 C 24.75 -18.457031 24.109375 -20.414062 22.828125 -21.78125 C 21.554688 -23.144531 19.988281 -23.828125 18.125 -23.828125 C 16.226562 -23.828125 14.648438 -23.148438 13.390625 -21.796875 C 12.140625 -20.453125 11.515625 -18.488281 11.515625 -15.90625 C 11.515625 -13.363281 12.128906 -11.40625 13.359375 -10.03125 C 14.597656 -8.664062 16.148438 -7.984375 18.015625 -7.984375 Z M 18.015625 -7.984375 "/></g></g></g><g fill="#00425c" fill-opacity="1"><g transform="translate(439.091015, 687.570801)"><g><path d="M 21.265625 -8.265625 L 21.265625 0 L 16.3125 0 C 12.769531 0 10.007812 -0.863281 8.03125 -2.59375 C 6.0625 -4.320312 5.078125 -7.144531 5.078125 -11.0625 L 5.078125 -23.71875 L 1.203125 -23.71875 L 1.203125 -31.8125 L 5.078125 -31.8125 L 5.078125 -39.5625 L 14.828125 -39.5625 L 14.828125 -31.8125 L 21.203125 -31.8125 L 21.203125 -23.71875 L 14.828125 -23.71875 L 14.828125 -10.953125 C 14.828125 -9.992188 15.050781 -9.304688 15.5 -8.890625 C 15.957031 -8.472656 16.71875 -8.265625 17.78125 -8.265625 Z M 21.265625 -8.265625 "/></g></g></g><g fill="#00425c" fill-opacity="1"><g transform="translate(462.237788, 687.570801)"><g><path d="M 33.53125 -16.421875 C 33.53125 -15.503906 33.472656 -14.550781 33.359375 -13.5625 L 11.296875 -13.5625 C 11.441406 -11.59375 12.070312 -10.082031 13.1875 -9.03125 C 14.3125 -7.988281 15.691406 -7.46875 17.328125 -7.46875 C 19.765625 -7.46875 21.457031 -8.492188 22.40625 -10.546875 L 32.78125 -10.546875 C 32.25 -8.453125 31.289062 -6.566406 29.90625 -4.890625 C 28.519531 -3.222656 26.78125 -1.914062 24.6875 -0.96875 C 22.59375 -0.0195312 20.253906 0.453125 17.671875 0.453125 C 14.554688 0.453125 11.78125 -0.207031 9.34375 -1.53125 C 6.914062 -2.863281 5.015625 -4.765625 3.640625 -7.234375 C 2.273438 -9.710938 1.59375 -12.601562 1.59375 -15.90625 C 1.59375 -19.21875 2.265625 -22.109375 3.609375 -24.578125 C 4.960938 -27.046875 6.851562 -28.941406 9.28125 -30.265625 C 11.71875 -31.597656 14.515625 -32.265625 17.671875 -32.265625 C 20.753906 -32.265625 23.492188 -31.617188 25.890625 -30.328125 C 28.285156 -29.035156 30.15625 -27.191406 31.5 -24.796875 C 32.851562 -22.398438 33.53125 -19.609375 33.53125 -16.421875 Z M 23.546875 -18.984375 C 23.546875 -20.660156 22.972656 -21.988281 21.828125 -22.96875 C 20.691406 -23.957031 19.269531 -24.453125 17.5625 -24.453125 C 15.925781 -24.453125 14.546875 -23.976562 13.421875 -23.03125 C 12.304688 -22.082031 11.613281 -20.734375 11.34375 -18.984375 Z M 23.546875 -18.984375 "/></g></g></g><g fill="#00425c" fill-opacity="1"><g transform="translate(497.357049, 687.570801)"><g><path d="M 14.03125 -31.8125 L 14.03125 0 L 4.28125 0 L 4.28125 -31.8125 Z M 15.796875 -39.734375 L 2.046875 -33.984375 L 2.046875 -40.703125 L 15.796875 -47.328125 Z M 15.796875 -39.734375 "/></g></g></g><g fill="#00425c" fill-opacity="1"><g transform="translate(515.657845, 687.570801)"><g><path d="M 22.921875 -32.15625 C 26.648438 -32.15625 29.625 -30.945312 31.84375 -28.53125 C 34.0625 -26.125 35.171875 -22.8125 35.171875 -18.59375 L 35.171875 0 L 25.484375 0 L 25.484375 -17.28125 C 25.484375 -19.40625 24.929688 -21.054688 23.828125 -22.234375 C 22.722656 -23.410156 21.242188 -24 19.390625 -24 C 17.523438 -24 16.039062 -23.410156 14.9375 -22.234375 C 13.832031 -21.054688 13.28125 -19.40625 13.28125 -17.28125 L 13.28125 0 L 3.53125 0 L 3.53125 -31.8125 L 13.28125 -31.8125 L 13.28125 -27.59375 C 14.269531 -29 15.597656 -30.109375 17.265625 -30.921875 C 18.941406 -31.742188 20.828125 -32.15625 22.921875 -32.15625 Z M 22.921875 -32.15625 "/></g></g></g><g fill="#00425c" fill-opacity="1"><g transform="translate(554.083785, 687.570801)"><g><path d="M 1.59375 -15.96875 C 1.59375 -19.238281 2.207031 -22.109375 3.4375 -24.578125 C 4.675781 -27.046875 6.359375 -28.941406 8.484375 -30.265625 C 10.617188 -31.597656 13 -32.265625 15.625 -32.265625 C 17.863281 -32.265625 19.828125 -31.804688 21.515625 -30.890625 C 23.210938 -29.984375 24.515625 -28.789062 25.421875 -27.3125 L 25.421875 -31.8125 L 35.171875 -31.8125 L 35.171875 0 L 25.421875 0 L 25.421875 -4.5 C 24.472656 -3.019531 23.148438 -1.820312 21.453125 -0.90625 C 19.765625 0 17.800781 0.453125 15.5625 0.453125 C 12.976562 0.453125 10.617188 -0.21875 8.484375 -1.5625 C 6.359375 -2.914062 4.675781 -4.835938 3.4375 -7.328125 C 2.207031 -9.816406 1.59375 -12.695312 1.59375 -15.96875 Z M 25.421875 -15.90625 C 25.421875 -18.34375 24.742188 -20.265625 23.390625 -21.671875 C 22.046875 -23.078125 20.40625 -23.78125 18.46875 -23.78125 C 16.53125 -23.78125 14.882812 -23.082031 13.53125 -21.6875 C 12.1875 -20.300781 11.515625 -18.394531 11.515625 -15.96875 C 11.515625 -13.53125 12.1875 -11.597656 13.53125 -10.171875 C 14.882812 -8.753906 16.53125 -8.046875 18.46875 -8.046875 C 20.40625 -8.046875 22.046875 -8.75 23.390625 -10.15625 C 24.742188 -11.5625 25.421875 -13.476562 25.421875 -15.90625 Z M 25.421875 -15.90625 "/></g></g></g></svg>