<svg xmlns="http://www.w3.org/2000/svg" xmlns:xlink="http://www.w3.org/1999/xlink" width="1080" zoomAndPan="magnify" viewBox="0 0 810 809.999993" height="1080" preserveAspectRatio="xMidYMid meet" version="1.0"><defs><g/><clipPath id="b59d07d3c1"><path d="M 82.347656 0.00390625 L 727.347656 0.00390625 L 727.347656 810 L 82.347656 810 Z M 82.347656 0.00390625 " clip-rule="nonzero"/></clipPath><clipPath id="9cb6e35c47"><path d="M 119.847656 0.00390625 L 690.140625 0.00390625 C 700.089844 0.00390625 709.625 3.957031 716.660156 10.988281 C 723.691406 18.023438 727.640625 27.558594 727.640625 37.503906 L 727.640625 772.496094 C 727.640625 782.441406 723.691406 791.976562 716.660156 799.011719 C 709.625 806.042969 700.089844 809.996094 690.140625 809.996094 L 119.847656 809.996094 C 109.902344 809.996094 100.363281 806.042969 93.332031 799.011719 C 86.300781 791.976562 82.347656 782.441406 82.347656 772.496094 L 82.347656 37.503906 C 82.347656 27.558594 86.300781 18.023438 93.332031 10.988281 C 100.363281 3.957031 109.902344 0.00390625 119.847656 0.00390625 Z M 119.847656 0.00390625 " clip-rule="nonzero"/></clipPath></defs><g clip-path="url(#b59d07d3c1)"><g clip-path="url(#9cb6e35c47)"><path stroke-linecap="butt" transform="matrix(0.75, 0, 0, 0.75, 82.349025, 0.00567356)" fill="none" stroke-linejoin="miter" d="M 49.998178 -0.00235641 L 810.388841 -0.00235641 C 823.654466 -0.00235641 836.368009 5.268477 845.748218 14.643478 C 855.123218 24.023686 860.388843 36.737229 860.388843 49.997646 L 860.388843 1029.987279 C 860.388843 1043.247696 855.123218 1055.966447 845.748218 1065.341447 C 836.368009 1074.716448 823.654466 1079.987281 810.388841 1079.987281 L 49.998178 1079.987281 C 36.73776 1079.987281 24.01901 1074.716448 14.644009 1065.341447 C 5.269009 1055.966447 -0.00182494 1043.247696 -0.00182494 1029.987279 L -0.00182494 49.997646 C -0.00182494 36.737229 5.269009 24.023686 14.644009 14.643478 C 24.01901 5.268477 36.73776 -0.00235641 49.998178 -0.00235641 Z M 49.998178 -0.00235641 " stroke="#00425c" stroke-width="8" stroke-opacity="1" stroke-miterlimit="4"/></g></g><path fill="#00425c" d="M 514.90625 335.726562 C 515.476562 339.273438 511.359375 342.042969 510.078125 342.816406 C 509.539062 343.140625 508.988281 343.421875 508.4375 343.667969 C 506.011719 344.769531 504.65625 344.519531 503.222656 344.25 C 502.15625 344.046875 500.816406 343.808594 499.339844 344.238281 C 498.984375 344.347656 498.664062 344.488281 498.351562 344.671875 C 498.046875 344.855469 497.757812 345.082031 497.507812 345.339844 C 496.507812 346.351562 496.042969 347.558594 495.632812 348.625 C 495.085938 350.058594 494.511719 351.558594 492.539062 353.25 C 492.035156 353.691406 491.472656 354.089844 490.882812 354.445312 C 488.554688 355.847656 485.007812 356.851562 482.667969 355.070312 C 480.082031 353.109375 479.015625 349.261719 479.523438 343.65625 C 480.4375 333.453125 476.40625 322.898438 470.617188 314.632812 C 469.628906 313.222656 468.570312 311.863281 467.441406 310.558594 C 466.589844 309.589844 464.789062 308.402344 464.464844 307.109375 C 464.355469 306.648438 466.199219 305.09375 466.523438 304.738281 C 467.40625 303.78125 468.367188 302.886719 469.390625 302.089844 C 471.609375 300.351562 474.109375 299.039062 476.792969 298.207031 C 477.28125 298.046875 480.976562 296.625 481.246094 297.078125 C 482.085938 298.5 482.335938 300.257812 482.949219 301.785156 C 484.585938 305.902344 487.3125 309.804688 489.847656 313.4375 C 492.367188 317.046875 495.136719 320.636719 498.523438 323.480469 C 499.828125 324.570312 501.261719 325.582031 502.855469 326.207031 L 503.878906 326.609375 C 504.6875 326.910156 505.484375 327.222656 506.273438 327.566406 C 511.5625 329.851562 514.386719 332.523438 514.90625 335.726562 Z M 504.417969 322.230469 C 497.207031 319.40625 487.28125 301.429688 486.949219 300.460938 C 486.183594 298.242188 485.375 293.863281 482.789062 292.949219 C 482.214844 292.742188 481.527344 292.742188 480.816406 292.832031 C 479.671875 292.980469 478.453125 293.378906 477.539062 293.59375 C 472.160156 294.824219 467.222656 297.507812 463.570312 301.699219 C 461.78125 303.757812 459.648438 305.320312 460.328125 308.125 C 460.875 310.398438 463.183594 312.1875 464.703125 313.816406 C 465.414062 314.578125 476.613281 328.386719 475.273438 343.269531 C 474.777344 348.710938 475.425781 354.929688 480.09375 358.464844 C 484.628906 361.914062 491.214844 360.039062 495.332031 356.472656 C 499.492188 352.882812 499.417969 349.488281 500.550781 348.335938 C 502.101562 347.871094 504.839844 349.984375 510.195312 347.558594 C 515.140625 345.316406 520.023438 340.671875 519.117188 335.046875 C 518.179688 329.269531 512.988281 325.820312 507.964844 323.644531 C 506.800781 323.136719 505.605469 322.707031 504.417969 322.230469 " fill-opacity="1" fill-rule="nonzero"/><path fill="#00425c" d="M 386.390625 247.875 C 377.046875 242.84375 367.476562 235.914062 357.152344 226.707031 C 343.332031 214.378906 336.996094 201.070312 338.300781 187.15625 C 339.90625 170.148438 353.335938 152.882812 375.171875 139.773438 C 409.886719 118.929688 433.242188 119.824219 450.90625 142.664062 C 459.300781 153.539062 464.789062 171.601562 465.941406 192.253906 C 466.320312 199.105469 466.136719 205.90625 465.941406 213.097656 C 465.683594 222.214844 465.425781 231.632812 466.4375 241.117188 C 467.441406 250.472656 468.453125 259.9375 471.363281 268.945312 C 471.921875 270.683594 472.632812 272.332031 473.335938 273.914062 C 474.941406 277.621094 475.941406 280.175781 475.242188 281.945312 C 474.714844 283.269531 472.09375 283.820312 470.921875 284.402344 C 468.074219 285.804688 465.304688 287.375 462.621094 289.070312 C 460.175781 290.609375 457.902344 292.464844 455.421875 293.949219 C 454.625 294.4375 454.289062 294.511719 454.269531 294.511719 C 452.890625 294.640625 451.457031 293.273438 448.589844 289.941406 C 447.425781 288.59375 446.230469 287.203125 444.847656 285.941406 C 438.652344 280.253906 431.796875 275.414062 425.859375 271.316406 C 413.078125 262.5 399.335938 254.839844 386.390625 247.875 Z M 454.960938 300.871094 C 458.257812 300.546875 461.671875 297.128906 464.476562 295.460938 C 468.054688 293.335938 471.621094 290.996094 475.449219 289.359375 C 478.164062 288.183594 480.007812 287.257812 481.179688 284.335938 C 483.5625 278.386719 479.21875 272.472656 477.453125 266.984375 C 474.714844 258.523438 473.746094 249.234375 472.796875 240.441406 C 471.070312 224.25 473.226562 208.074219 472.332031 191.898438 C 471.351562 174.425781 466.921875 152.933594 455.960938 138.75 C 433.707031 109.964844 404.378906 114.78125 371.875 134.289062 C 331.519531 158.519531 315.375 198.019531 352.894531 231.484375 C 362.3125 239.878906 372.414062 247.617188 383.363281 253.503906 C 396.628906 260.648438 409.8125 268.019531 422.226562 276.589844 C 428.519531 280.921875 434.890625 285.480469 440.527344 290.652344 C 444.773438 294.554688 448.234375 301.515625 454.960938 300.871094 " fill-opacity="1" fill-rule="nonzero"/><path fill="#00425c" d="M 367.269531 226.527344 C 328.191406 175.933594 383.535156 142.75 383.535156 142.75 C 306.808594 186.9375 367.269531 226.527344 367.269531 226.527344 " fill-opacity="1" fill-rule="nonzero"/><path fill="#00425c" d="M 454.871094 167.507812 C 456.46875 166.546875 454.863281 158.3125 449.410156 149.226562 C 443.953125 140.140625 436.710938 133.632812 435.117188 134.589844 C 433.511719 135.550781 439.535156 141.964844 444.988281 151.050781 C 450.453125 160.144531 453.277344 168.464844 454.871094 167.507812 " fill-opacity="1" fill-rule="nonzero"/><path fill="#00425c" d="M 558.199219 269.550781 C 558.070312 270.207031 557.898438 270.855469 557.691406 271.46875 C 556.796875 274.175781 555.535156 275.046875 554.199219 275.972656 C 553.199219 276.664062 551.957031 277.527344 551.203125 279.003906 C 551.03125 279.359375 550.902344 279.722656 550.828125 280.089844 C 550.75 280.46875 550.742188 280.855469 550.761719 281.242188 C 550.890625 282.773438 551.59375 284.023438 552.21875 285.125 C 553.058594 286.613281 553.929688 288.152344 553.910156 290.945312 C 553.910156 291.65625 553.835938 292.398438 553.683594 293.121094 C 553.132812 295.964844 551.289062 299.480469 547.929688 300.007812 C 544.199219 300.601562 540.007812 298.605469 535.46875 294.101562 C 529.183594 287.871094 520.875 284.035156 512.425781 281.730469 C 508.878906 280.757812 505.28125 279.960938 501.625 279.550781 C 499.828125 279.347656 498.015625 279.238281 496.214844 279.261719 C 494.914062 279.273438 492.960938 279.703125 491.753906 279.078125 C 491.054688 278.722656 491.097656 274.605469 491.066406 273.925781 C 490.804688 268.417969 492.886719 263.546875 495.625 258.890625 C 496.054688 258.167969 497.910156 259.183594 498.382812 259.429688 C 499.535156 260.023438 500.730469 260.496094 501.960938 260.90625 C 506.542969 262.449219 511.464844 263.117188 516.242188 263.773438 C 520.777344 264.386719 525.414062 264.820312 530.003906 264.59375 C 532.710938 264.464844 535.542969 264.140625 538.042969 263.019531 L 539.1875 262.5 C 540.070312 262.101562 540.964844 261.703125 541.871094 261.335938 C 547.949219 258.871094 552.464844 258.621094 555.675781 260.5625 C 559.234375 262.71875 558.511719 267.988281 558.199219 269.550781 Z M 558.316406 256.769531 C 552.519531 253.253906 545.492188 254.804688 539.726562 257.132812 C 538.378906 257.683594 537.074219 258.296875 535.75 258.878906 C 527.730469 262.457031 504.289062 257.046875 503.167969 256.59375 C 500.636719 255.5625 496.171875 252.984375 493.359375 254.332031 C 492.746094 254.632812 492.21875 255.171875 491.753906 255.796875 C 491.011719 256.8125 490.429688 258.050781 489.902344 258.921875 C 487.367188 263.167969 485.988281 267.910156 486.074219 272.792969 C 487.433594 275.921875 488.714844 279.140625 488.425781 282.386719 C 488.714844 282.632812 489.050781 282.859375 489.449219 283.066406 C 491.871094 284.304688 495.226562 283.808594 497.820312 283.820312 C 499.039062 283.820312 519.796875 285.179688 531.859375 297.152344 C 536.277344 301.527344 542.238281 305.582031 548.929688 304.523438 C 555.460938 303.5 558.855469 296.949219 558.898438 291.117188 C 558.933594 285.222656 555.882812 282.796875 555.730469 281.0625 C 556.519531 279.507812 560.484375 278.90625 562.46875 272.945312 C 564.300781 267.417969 563.964844 260.183594 558.316406 256.769531 " fill-opacity="1" fill-rule="nonzero"/><path fill="#00425c" d="M 484.566406 257.457031 C 485.632812 254.472656 486.226562 252.347656 484.554688 249.277344 C 483.433594 247.230469 481.742188 245.753906 479.769531 244.601562 C 480.46875 250.9375 481.3125 257.445312 482.882812 263.632812 C 483.324219 261.542969 483.855469 259.460938 484.566406 257.457031 " fill-opacity="1" fill-rule="nonzero"/><path fill="#00425c" d="M 413.960938 282.140625 C 396.394531 285.683594 379.09375 290.824219 363.015625 295.859375 C 351.40625 299.492188 337.957031 301.894531 321.917969 303.230469 C 300.460938 305.007812 283.882812 300.214844 272.640625 288.984375 C 258.910156 275.25 254.050781 252.058594 259.300781 225.339844 C 267.652344 182.855469 286.382812 165.210938 320.042969 168.132812 C 322.273438 168.324219 324.589844 168.679688 326.972656 169.167969 C 328.007812 167.066406 329.203125 164.984375 330.519531 162.9375 C 327.167969 162.160156 323.804688 161.589844 320.484375 161.296875 C 278.0625 157.613281 259.761719 184.113281 251.949219 223.894531 C 242.238281 273.28125 264.582031 314.902344 322.84375 310.074219 C 337.472656 308.855469 352.042969 306.613281 365.632812 302.367188 C 382.113281 297.214844 398.730469 292.292969 415.804688 288.851562 C 419.261719 288.152344 422.765625 287.496094 426.289062 286.890625 C 423.886719 284.910156 421.386719 283.023438 418.855469 281.179688 C 417.195312 281.503906 415.535156 281.824219 413.960938 282.140625 " fill-opacity="1" fill-rule="nonzero"/><path fill="#00425c" d="M 329.539062 295.167969 C 255 288.660156 268.34375 220.964844 268.34375 220.964844 C 248.253906 313.492188 329.539062 295.167969 329.539062 295.167969 " fill-opacity="1" fill-rule="nonzero"/><path fill="#00425c" d="M 300.804688 174.578125 C 300.417969 176.539062 310.6875 176.515625 322.878906 178.921875 C 323.007812 178.941406 323.125 178.964844 323.242188 178.996094 C 323.675781 177.367188 324.214844 175.75 324.816406 174.144531 C 324.765625 174.136719 324.71875 174.125 324.667969 174.113281 C 312.476562 171.71875 301.183594 172.625 300.804688 174.578125 " fill-opacity="1" fill-rule="nonzero"/><g fill="#00425c" fill-opacity="1"><g transform="translate(284.238269, 528.570929)"><g><path d="M 29.59375 -40.03125 L 29.59375 -32.21875 L 13.28125 -32.21875 L 13.28125 -23.78125 L 25.484375 -23.78125 L 25.484375 -16.1875 L 13.28125 -16.1875 L 13.28125 0 L 3.53125 0 L 3.53125 -40.03125 Z M 29.59375 -40.03125 "/></g></g></g><g fill="#00425c" fill-opacity="1"><g transform="translate(315.423716, 528.570929)"><g><path d="M 23.953125 0 L 15.625 -15.109375 L 13.28125 -15.109375 L 13.28125 0 L 3.53125 0 L 3.53125 -40.03125 L 19.90625 -40.03125 C 23.050781 -40.03125 25.734375 -39.476562 27.953125 -38.375 C 30.179688 -37.269531 31.847656 -35.753906 32.953125 -33.828125 C 34.054688 -31.910156 34.609375 -29.773438 34.609375 -27.421875 C 34.609375 -24.765625 33.859375 -22.390625 32.359375 -20.296875 C 30.859375 -18.203125 28.644531 -16.71875 25.71875 -15.84375 L 34.953125 0 Z M 13.28125 -22.015625 L 19.328125 -22.015625 C 21.117188 -22.015625 22.457031 -22.445312 23.34375 -23.3125 C 24.238281 -24.1875 24.6875 -25.425781 24.6875 -27.03125 C 24.6875 -28.550781 24.238281 -29.742188 23.34375 -30.609375 C 22.457031 -31.484375 21.117188 -31.921875 19.328125 -31.921875 L 13.28125 -31.921875 Z M 13.28125 -22.015625 "/></g></g></g><g fill="#00425c" fill-opacity="1"><g transform="translate(352.595394, 528.570929)"><g><path d="M 28.453125 -7.0625 L 13.515625 -7.0625 L 11.125 0 L 0.90625 0 L 15.390625 -40.03125 L 26.6875 -40.03125 L 41.171875 0 L 30.84375 0 Z M 25.9375 -14.59375 L 20.984375 -29.25 L 16.078125 -14.59375 Z M 25.9375 -14.59375 "/></g></g></g><g fill="#00425c" fill-opacity="1"><g transform="translate(394.613074, 528.570929)"><g><path d="M 39.34375 0 L 29.59375 0 L 13.28125 -24.6875 L 13.28125 0 L 3.53125 0 L 3.53125 -40.03125 L 13.28125 -40.03125 L 29.59375 -15.21875 L 29.59375 -40.03125 L 39.34375 -40.03125 Z M 39.34375 0 "/></g></g></g><g fill="#00425c" fill-opacity="1"><g transform="translate(437.485935, 528.570929)"><g><path d="M 30.109375 -27.375 C 29.378906 -28.695312 28.335938 -29.707031 26.984375 -30.40625 C 25.640625 -31.113281 24.054688 -31.46875 22.234375 -31.46875 C 19.078125 -31.46875 16.546875 -30.429688 14.640625 -28.359375 C 12.742188 -26.296875 11.796875 -23.53125 11.796875 -20.0625 C 11.796875 -16.375 12.789062 -13.492188 14.78125 -11.421875 C 16.78125 -9.359375 19.53125 -8.328125 23.03125 -8.328125 C 25.425781 -8.328125 27.453125 -8.929688 29.109375 -10.140625 C 30.765625 -11.359375 31.972656 -13.109375 32.734375 -15.390625 L 20.359375 -15.390625 L 20.359375 -22.578125 L 41.5625 -22.578125 L 41.5625 -13.515625 C 40.84375 -11.078125 39.617188 -8.8125 37.890625 -6.71875 C 36.160156 -4.632812 33.960938 -2.945312 31.296875 -1.65625 C 28.640625 -0.363281 25.640625 0.28125 22.296875 0.28125 C 18.335938 0.28125 14.804688 -0.582031 11.703125 -2.3125 C 8.609375 -4.039062 6.195312 -6.441406 4.46875 -9.515625 C 2.738281 -12.597656 1.875 -16.113281 1.875 -20.0625 C 1.875 -24.019531 2.738281 -27.546875 4.46875 -30.640625 C 6.195312 -33.742188 8.601562 -36.160156 11.6875 -37.890625 C 14.769531 -39.617188 18.285156 -40.484375 22.234375 -40.484375 C 27.023438 -40.484375 31.0625 -39.320312 34.34375 -37 C 37.632812 -34.6875 39.8125 -31.476562 40.875 -27.375 Z M 30.109375 -27.375 "/></g></g></g><g fill="#00425c" fill-opacity="1"><g transform="translate(480.928919, 528.570929)"><g><path d="M 22.46875 0.40625 C 18.695312 0.40625 15.242188 -0.46875 12.109375 -2.21875 C 8.972656 -3.96875 6.484375 -6.410156 4.640625 -9.546875 C 2.796875 -12.679688 1.875 -16.207031 1.875 -20.125 C 1.875 -24.039062 2.796875 -27.554688 4.640625 -30.671875 C 6.484375 -33.785156 8.972656 -36.21875 12.109375 -37.96875 C 15.242188 -39.71875 18.695312 -40.59375 22.46875 -40.59375 C 26.226562 -40.59375 29.675781 -39.71875 32.8125 -37.96875 C 35.945312 -36.21875 38.414062 -33.785156 40.21875 -30.671875 C 42.03125 -27.554688 42.9375 -24.039062 42.9375 -20.125 C 42.9375 -16.207031 42.019531 -12.679688 40.1875 -9.546875 C 38.363281 -6.410156 35.894531 -3.96875 32.78125 -2.21875 C 29.664062 -0.46875 26.226562 0.40625 22.46875 0.40625 Z M 22.46875 -8.5 C 25.65625 -8.5 28.207031 -9.5625 30.125 -11.6875 C 32.050781 -13.8125 33.015625 -16.625 33.015625 -20.125 C 33.015625 -23.65625 32.050781 -26.472656 30.125 -28.578125 C 28.207031 -30.691406 25.65625 -31.75 22.46875 -31.75 C 19.238281 -31.75 16.660156 -30.703125 14.734375 -28.609375 C 12.816406 -26.523438 11.859375 -23.695312 11.859375 -20.125 C 11.859375 -16.59375 12.816406 -13.769531 14.734375 -11.65625 C 16.660156 -9.550781 19.238281 -8.5 22.46875 -8.5 Z M 22.46875 -8.5 "/></g></g></g><g fill="#00425c" fill-opacity="1"><g transform="translate(340.804673, 608.070925)"><g><path d="M 2.171875 -36.484375 L 2.171875 -41.21875 L 12.890625 -41.21875 L 12.890625 0 L 7.640625 0 L 7.640625 -36.484375 Z M 2.171875 -36.484375 "/></g></g></g><g fill="#00425c" fill-opacity="1"><g transform="translate(359.048442, 608.070925)"><g><path d="M 3.53125 -21.03125 C 3.53125 -27.570312 4.59375 -32.675781 6.71875 -36.34375 C 8.851562 -40.007812 12.582031 -41.84375 17.90625 -41.84375 C 23.1875 -41.84375 26.890625 -40.007812 29.015625 -36.34375 C 31.148438 -32.675781 32.21875 -27.570312 32.21875 -21.03125 C 32.21875 -14.382812 31.148438 -9.21875 29.015625 -5.53125 C 26.890625 -1.84375 23.1875 0 17.90625 0 C 12.582031 0 8.851562 -1.84375 6.71875 -5.53125 C 4.59375 -9.21875 3.53125 -14.382812 3.53125 -21.03125 Z M 27.078125 -21.03125 C 27.078125 -24.34375 26.859375 -27.144531 26.421875 -29.4375 C 25.984375 -31.738281 25.085938 -33.59375 23.734375 -35 C 22.390625 -36.414062 20.445312 -37.125 17.90625 -37.125 C 15.320312 -37.125 13.351562 -36.414062 12 -35 C 10.65625 -33.59375 9.765625 -31.738281 9.328125 -29.4375 C 8.890625 -27.144531 8.671875 -24.34375 8.671875 -21.03125 C 8.671875 -17.613281 8.890625 -14.742188 9.328125 -12.421875 C 9.765625 -10.109375 10.65625 -8.25 12 -6.84375 C 13.351562 -5.4375 15.320312 -4.734375 17.90625 -4.734375 C 20.445312 -4.734375 22.390625 -5.4375 23.734375 -6.84375 C 25.085938 -8.25 25.984375 -10.109375 26.421875 -12.421875 C 26.859375 -14.742188 27.078125 -17.613281 27.078125 -21.03125 Z M 27.078125 -21.03125 "/></g></g></g><g fill="#00425c" fill-opacity="1"><g transform="translate(394.851842, 608.070925)"><g><path d="M 3.53125 -21.03125 C 3.53125 -27.570312 4.59375 -32.675781 6.71875 -36.34375 C 8.851562 -40.007812 12.582031 -41.84375 17.90625 -41.84375 C 23.1875 -41.84375 26.890625 -40.007812 29.015625 -36.34375 C 31.148438 -32.675781 32.21875 -27.570312 32.21875 -21.03125 C 32.21875 -14.382812 31.148438 -9.21875 29.015625 -5.53125 C 26.890625 -1.84375 23.1875 0 17.90625 0 C 12.582031 0 8.851562 -1.84375 6.71875 -5.53125 C 4.59375 -9.21875 3.53125 -14.382812 3.53125 -21.03125 Z M 27.078125 -21.03125 C 27.078125 -24.34375 26.859375 -27.144531 26.421875 -29.4375 C 25.984375 -31.738281 25.085938 -33.59375 23.734375 -35 C 22.390625 -36.414062 20.445312 -37.125 17.90625 -37.125 C 15.320312 -37.125 13.351562 -36.414062 12 -35 C 10.65625 -33.59375 9.765625 -31.738281 9.328125 -29.4375 C 8.890625 -27.144531 8.671875 -24.34375 8.671875 -21.03125 C 8.671875 -17.613281 8.890625 -14.742188 9.328125 -12.421875 C 9.765625 -10.109375 10.65625 -8.25 12 -6.84375 C 13.351562 -5.4375 15.320312 -4.734375 17.90625 -4.734375 C 20.445312 -4.734375 22.390625 -5.4375 23.734375 -6.84375 C 25.085938 -8.25 25.984375 -10.109375 26.421875 -12.421875 C 26.859375 -14.742188 27.078125 -17.613281 27.078125 -21.03125 Z M 27.078125 -21.03125 "/></g></g></g><g fill="#00425c" fill-opacity="1"><g transform="translate(430.655242, 608.070925)"><g><path d="M 17.28125 -31.75 C 19.976562 -31.75 22.34375 -31.160156 24.375 -29.984375 C 26.40625 -28.804688 27.914062 -27.328125 28.90625 -25.546875 L 28.90625 -31.25 L 34.15625 -31.25 L 34.15625 0.6875 C 34.15625 3.53125 33.546875 6.0625 32.328125 8.28125 C 31.109375 10.507812 29.367188 12.25 27.109375 13.5 C 24.847656 14.757812 22.21875 15.390625 19.21875 15.390625 C 15.113281 15.390625 11.691406 14.421875 8.953125 12.484375 C 6.210938 10.546875 4.597656 7.90625 4.109375 4.5625 L 9.234375 4.5625 C 9.804688 6.457031 10.984375 7.984375 12.765625 9.140625 C 14.554688 10.304688 16.707031 10.890625 19.21875 10.890625 C 22.0625 10.890625 24.382812 9.992188 26.1875 8.203125 C 28 6.421875 28.90625 3.914062 28.90625 0.6875 L 28.90625 -5.875 C 27.882812 -4.050781 26.363281 -2.53125 24.34375 -1.3125 C 22.332031 -0.09375 19.976562 0.515625 17.28125 0.515625 C 14.5 0.515625 11.976562 -0.164062 9.71875 -1.53125 C 7.457031 -2.90625 5.679688 -4.828125 4.390625 -7.296875 C 3.097656 -9.765625 2.453125 -12.578125 2.453125 -15.734375 C 2.453125 -18.929688 3.097656 -21.734375 4.390625 -24.140625 C 5.679688 -26.554688 7.457031 -28.425781 9.71875 -29.75 C 11.976562 -31.082031 14.5 -31.75 17.28125 -31.75 Z M 28.90625 -15.671875 C 28.90625 -18.035156 28.429688 -20.085938 27.484375 -21.828125 C 26.535156 -23.578125 25.25 -24.914062 23.625 -25.84375 C 22.007812 -26.78125 20.234375 -27.25 18.296875 -27.25 C 16.359375 -27.25 14.59375 -26.789062 13 -25.875 C 11.40625 -24.96875 10.128906 -23.640625 9.171875 -21.890625 C 8.222656 -20.140625 7.75 -18.085938 7.75 -15.734375 C 7.75 -13.335938 8.222656 -11.253906 9.171875 -9.484375 C 10.128906 -7.722656 11.40625 -6.375 13 -5.4375 C 14.59375 -4.507812 16.359375 -4.046875 18.296875 -4.046875 C 20.234375 -4.046875 22.007812 -4.507812 23.625 -5.4375 C 25.25 -6.375 26.535156 -7.722656 27.484375 -9.484375 C 28.429688 -11.253906 28.90625 -13.316406 28.90625 -15.671875 Z M 28.90625 -15.671875 "/></g></g></g><g fill="#00425c" fill-opacity="1"><g transform="translate(221.496085, 687.570921)"><g><path d="M 2.21875 -7.8125 C 3.507812 -8.832031 4.097656 -9.304688 3.984375 -9.234375 C 7.710938 -12.316406 10.648438 -14.84375 12.796875 -16.8125 C 14.941406 -18.789062 16.753906 -20.863281 18.234375 -23.03125 C 19.722656 -25.195312 20.46875 -27.304688 20.46875 -29.359375 C 20.46875 -30.921875 20.101562 -32.140625 19.375 -33.015625 C 18.65625 -33.890625 17.578125 -34.328125 16.140625 -34.328125 C 14.691406 -34.328125 13.554688 -33.785156 12.734375 -32.703125 C 11.921875 -31.617188 11.515625 -30.085938 11.515625 -28.109375 L 2.109375 -28.109375 C 2.179688 -31.335938 2.875 -34.035156 4.1875 -36.203125 C 5.5 -38.367188 7.226562 -39.960938 9.375 -40.984375 C 11.519531 -42.015625 13.90625 -42.53125 16.53125 -42.53125 C 21.050781 -42.53125 24.460938 -41.367188 26.765625 -39.046875 C 29.066406 -36.734375 30.21875 -33.710938 30.21875 -29.984375 C 30.21875 -25.921875 28.828125 -22.148438 26.046875 -18.671875 C 23.273438 -15.191406 19.742188 -11.800781 15.453125 -8.5 L 30.84375 -8.5 L 30.84375 -0.5625 L 2.21875 -0.5625 Z M 2.21875 -7.8125 "/></g></g></g><g fill="#00425c" fill-opacity="1"><g transform="translate(254.049809, 687.570921)"><g><path d="M 29.140625 -34.328125 L 14.828125 0 L 4.84375 0 L 19.328125 -33.234375 L 1.59375 -33.234375 L 1.59375 -41.5625 L 29.140625 -41.5625 Z M 29.140625 -34.328125 "/></g></g></g><g fill="#00425c" fill-opacity="1"><g transform="translate(284.551116, 687.570921)"><g><path d="M 15.625 -32.265625 C 17.863281 -32.265625 19.828125 -31.804688 21.515625 -30.890625 C 23.210938 -29.984375 24.515625 -28.789062 25.421875 -27.3125 L 25.421875 -31.8125 L 35.171875 -31.8125 L 35.171875 -0.0625 C 35.171875 2.863281 34.59375 5.515625 33.4375 7.890625 C 32.28125 10.265625 30.515625 12.15625 28.140625 13.5625 C 25.765625 14.96875 22.804688 15.671875 19.265625 15.671875 C 14.554688 15.671875 10.738281 14.5625 7.8125 12.34375 C 4.882812 10.125 3.210938 7.113281 2.796875 3.3125 L 12.421875 3.3125 C 12.734375 4.519531 13.457031 5.472656 14.59375 6.171875 C 15.738281 6.878906 17.144531 7.234375 18.8125 7.234375 C 20.832031 7.234375 22.4375 6.65625 23.625 5.5 C 24.820312 4.34375 25.421875 2.488281 25.421875 -0.0625 L 25.421875 -4.5625 C 24.472656 -3.082031 23.160156 -1.875 21.484375 -0.9375 C 19.816406 -0.0078125 17.863281 0.453125 15.625 0.453125 C 13 0.453125 10.617188 -0.21875 8.484375 -1.5625 C 6.359375 -2.914062 4.675781 -4.835938 3.4375 -7.328125 C 2.207031 -9.816406 1.59375 -12.695312 1.59375 -15.96875 C 1.59375 -19.238281 2.207031 -22.109375 3.4375 -24.578125 C 4.675781 -27.046875 6.359375 -28.941406 8.484375 -30.265625 C 10.617188 -31.597656 13 -32.265625 15.625 -32.265625 Z M 25.421875 -15.90625 C 25.421875 -18.34375 24.742188 -20.265625 23.390625 -21.671875 C 22.046875 -23.078125 20.40625 -23.78125 18.46875 -23.78125 C 16.53125 -23.78125 14.882812 -23.082031 13.53125 -21.6875 C 12.1875 -20.300781 11.515625 -18.394531 11.515625 -15.96875 C 11.515625 -13.53125 12.1875 -11.597656 13.53125 -10.171875 C 14.882812 -8.753906 16.53125 -8.046875 18.46875 -8.046875 C 20.40625 -8.046875 22.046875 -8.75 23.390625 -10.15625 C 24.742188 -11.5625 25.421875 -13.476562 25.421875 -15.90625 Z M 25.421875 -15.90625 "/></g></g></g><g fill="#00425c" fill-opacity="1"><g transform="translate(323.262117, 687.570921)"><g/></g></g><g fill="#00425c" fill-opacity="1"><g transform="translate(335.348611, 687.570921)"><g><path d="M 13.28125 -27.3125 C 14.226562 -28.789062 15.539062 -29.984375 17.21875 -30.890625 C 18.894531 -31.804688 20.851562 -32.265625 23.09375 -32.265625 C 25.71875 -32.265625 28.09375 -31.597656 30.21875 -30.265625 C 32.34375 -28.941406 34.023438 -27.046875 35.265625 -24.578125 C 36.503906 -22.109375 37.125 -19.238281 37.125 -15.96875 C 37.125 -12.695312 36.503906 -9.816406 35.265625 -7.328125 C 34.023438 -4.835938 32.34375 -2.914062 30.21875 -1.5625 C 28.09375 -0.21875 25.71875 0.453125 23.09375 0.453125 C 20.882812 0.453125 18.929688 0 17.234375 -0.90625 C 15.546875 -1.820312 14.226562 -3.003906 13.28125 -4.453125 L 13.28125 15.171875 L 3.53125 15.171875 L 3.53125 -31.8125 L 13.28125 -31.8125 Z M 27.203125 -15.96875 C 27.203125 -18.394531 26.523438 -20.300781 25.171875 -21.6875 C 23.816406 -23.082031 22.15625 -23.78125 20.1875 -23.78125 C 18.25 -23.78125 16.601562 -23.078125 15.25 -21.671875 C 13.90625 -20.265625 13.234375 -18.34375 13.234375 -15.90625 C 13.234375 -13.476562 13.90625 -11.5625 15.25 -10.15625 C 16.601562 -8.75 18.25 -8.046875 20.1875 -8.046875 C 22.125 -8.046875 23.773438 -8.753906 25.140625 -10.171875 C 26.515625 -11.597656 27.203125 -13.53125 27.203125 -15.96875 Z M 27.203125 -15.96875 "/></g></g></g><g fill="#00425c" fill-opacity="1"><g transform="translate(374.059611, 687.570921)"><g><path d="M 13.28125 -26.515625 C 14.425781 -28.265625 15.851562 -29.640625 17.5625 -30.640625 C 19.269531 -31.648438 21.171875 -32.15625 23.265625 -32.15625 L 23.265625 -21.84375 L 20.578125 -21.84375 C 18.148438 -21.84375 16.328125 -21.316406 15.109375 -20.265625 C 13.890625 -19.222656 13.28125 -17.390625 13.28125 -14.765625 L 13.28125 0 L 3.53125 0 L 3.53125 -31.8125 L 13.28125 -31.8125 Z M 13.28125 -26.515625 "/></g></g></g><g fill="#00425c" fill-opacity="1"><g transform="translate(398.460657, 687.570921)"><g><path d="M 18.015625 0.453125 C 14.898438 0.453125 12.097656 -0.207031 9.609375 -1.53125 C 7.117188 -2.863281 5.160156 -4.765625 3.734375 -7.234375 C 2.304688 -9.710938 1.59375 -12.601562 1.59375 -15.90625 C 1.59375 -19.175781 2.3125 -22.054688 3.75 -24.546875 C 5.195312 -27.035156 7.175781 -28.941406 9.6875 -30.265625 C 12.195312 -31.597656 15.007812 -32.265625 18.125 -32.265625 C 21.25 -32.265625 24.0625 -31.597656 26.5625 -30.265625 C 29.070312 -28.941406 31.050781 -27.035156 32.5 -24.546875 C 33.945312 -22.054688 34.671875 -19.175781 34.671875 -15.90625 C 34.671875 -12.632812 33.9375 -9.753906 32.46875 -7.265625 C 31.007812 -4.773438 29.015625 -2.863281 26.484375 -1.53125 C 23.953125 -0.207031 21.128906 0.453125 18.015625 0.453125 Z M 18.015625 -7.984375 C 19.878906 -7.984375 21.46875 -8.664062 22.78125 -10.03125 C 24.09375 -11.40625 24.75 -13.363281 24.75 -15.90625 C 24.75 -18.457031 24.109375 -20.414062 22.828125 -21.78125 C 21.554688 -23.144531 19.988281 -23.828125 18.125 -23.828125 C 16.226562 -23.828125 14.648438 -23.148438 13.390625 -21.796875 C 12.140625 -20.453125 11.515625 -18.488281 11.515625 -15.90625 C 11.515625 -13.363281 12.128906 -11.40625 13.359375 -10.03125 C 14.597656 -8.664062 16.148438 -7.984375 18.015625 -7.984375 Z M 18.015625 -7.984375 "/></g></g></g><g fill="#00425c" fill-opacity="1"><g transform="translate(434.777164, 687.570921)"><g><path d="M 21.265625 -8.265625 L 21.265625 0 L 16.3125 0 C 12.769531 0 10.007812 -0.863281 8.03125 -2.59375 C 6.0625 -4.320312 5.078125 -7.144531 5.078125 -11.0625 L 5.078125 -23.71875 L 1.203125 -23.71875 L 1.203125 -31.8125 L 5.078125 -31.8125 L 5.078125 -39.5625 L 14.828125 -39.5625 L 14.828125 -31.8125 L 21.203125 -31.8125 L 21.203125 -23.71875 L 14.828125 -23.71875 L 14.828125 -10.953125 C 14.828125 -9.992188 15.050781 -9.304688 15.5 -8.890625 C 15.957031 -8.472656 16.71875 -8.265625 17.78125 -8.265625 Z M 21.265625 -8.265625 "/></g></g></g><g fill="#00425c" fill-opacity="1"><g transform="translate(457.92396, 687.570921)"><g><path d="M 33.53125 -16.421875 C 33.53125 -15.503906 33.472656 -14.550781 33.359375 -13.5625 L 11.296875 -13.5625 C 11.441406 -11.59375 12.070312 -10.082031 13.1875 -9.03125 C 14.3125 -7.988281 15.691406 -7.46875 17.328125 -7.46875 C 19.765625 -7.46875 21.457031 -8.492188 22.40625 -10.546875 L 32.78125 -10.546875 C 32.25 -8.453125 31.289062 -6.566406 29.90625 -4.890625 C 28.519531 -3.222656 26.78125 -1.914062 24.6875 -0.96875 C 22.59375 -0.0195312 20.253906 0.453125 17.671875 0.453125 C 14.554688 0.453125 11.78125 -0.207031 9.34375 -1.53125 C 6.914062 -2.863281 5.015625 -4.765625 3.640625 -7.234375 C 2.273438 -9.710938 1.59375 -12.601562 1.59375 -15.90625 C 1.59375 -19.21875 2.265625 -22.109375 3.609375 -24.578125 C 4.960938 -27.046875 6.851562 -28.941406 9.28125 -30.265625 C 11.71875 -31.597656 14.515625 -32.265625 17.671875 -32.265625 C 20.753906 -32.265625 23.492188 -31.617188 25.890625 -30.328125 C 28.285156 -29.035156 30.15625 -27.191406 31.5 -24.796875 C 32.851562 -22.398438 33.53125 -19.609375 33.53125 -16.421875 Z M 23.546875 -18.984375 C 23.546875 -20.660156 22.972656 -21.988281 21.828125 -22.96875 C 20.691406 -23.957031 19.269531 -24.453125 17.5625 -24.453125 C 15.925781 -24.453125 14.546875 -23.976562 13.421875 -23.03125 C 12.304688 -22.082031 11.613281 -20.734375 11.34375 -18.984375 Z M 23.546875 -18.984375 "/></g></g></g><g fill="#00425c" fill-opacity="1"><g transform="translate(493.043221, 687.570921)"><g><path d="M 14.03125 -31.8125 L 14.03125 0 L 4.28125 0 L 4.28125 -31.8125 Z M 15.796875 -39.734375 L 2.046875 -33.984375 L 2.046875 -40.703125 L 15.796875 -47.328125 Z M 15.796875 -39.734375 "/></g></g></g><g fill="#00425c" fill-opacity="1"><g transform="translate(511.344016, 687.570921)"><g><path d="M 22.921875 -32.15625 C 26.648438 -32.15625 29.625 -30.945312 31.84375 -28.53125 C 34.0625 -26.125 35.171875 -22.8125 35.171875 -18.59375 L 35.171875 0 L 25.484375 0 L 25.484375 -17.28125 C 25.484375 -19.40625 24.929688 -21.054688 23.828125 -22.234375 C 22.722656 -23.410156 21.242188 -24 19.390625 -24 C 17.523438 -24 16.039062 -23.410156 14.9375 -22.234375 C 13.832031 -21.054688 13.28125 -19.40625 13.28125 -17.28125 L 13.28125 0 L 3.53125 0 L 3.53125 -31.8125 L 13.28125 -31.8125 L 13.28125 -27.59375 C 14.269531 -29 15.597656 -30.109375 17.265625 -30.921875 C 18.941406 -31.742188 20.828125 -32.15625 22.921875 -32.15625 Z M 22.921875 -32.15625 "/></g></g></g><g fill="#00425c" fill-opacity="1"><g transform="translate(549.769956, 687.570921)"><g><path d="M 1.59375 -15.96875 C 1.59375 -19.238281 2.207031 -22.109375 3.4375 -24.578125 C 4.675781 -27.046875 6.359375 -28.941406 8.484375 -30.265625 C 10.617188 -31.597656 13 -32.265625 15.625 -32.265625 C 17.863281 -32.265625 19.828125 -31.804688 21.515625 -30.890625 C 23.210938 -29.984375 24.515625 -28.789062 25.421875 -27.3125 L 25.421875 -31.8125 L 35.171875 -31.8125 L 35.171875 0 L 25.421875 0 L 25.421875 -4.5 C 24.472656 -3.019531 23.148438 -1.820312 21.453125 -0.90625 C 19.765625 0 17.800781 0.453125 15.5625 0.453125 C 12.976562 0.453125 10.617188 -0.21875 8.484375 -1.5625 C 6.359375 -2.914062 4.675781 -4.835938 3.4375 -7.328125 C 2.207031 -9.816406 1.59375 -12.695312 1.59375 -15.96875 Z M 25.421875 -15.90625 C 25.421875 -18.34375 24.742188 -20.265625 23.390625 -21.671875 C 22.046875 -23.078125 20.40625 -23.78125 18.46875 -23.78125 C 16.53125 -23.78125 14.882812 -23.082031 13.53125 -21.6875 C 12.1875 -20.300781 11.515625 -18.394531 11.515625 -15.96875 C 11.515625 -13.53125 12.1875 -11.597656 13.53125 -10.171875 C 14.882812 -8.753906 16.53125 -8.046875 18.46875 -8.046875 C 20.40625 -8.046875 22.046875 -8.75 23.390625 -10.15625 C 24.742188 -11.5625 25.421875 -13.476562 25.421875 -15.90625 Z M 25.421875 -15.90625 "/></g></g></g></svg>