<svg xmlns="http://www.w3.org/2000/svg" xmlns:xlink="http://www.w3.org/1999/xlink" width="1080" zoomAndPan="magnify" viewBox="0 0 810 809.999993" height="1080" preserveAspectRatio="xMidYMid meet" version="1.0"><defs><g/><clipPath id="597aec8f88"><path d="M 82.347656 0.00390625 L 727.347656 0.00390625 L 727.347656 810 L 82.347656 810 Z M 82.347656 0.00390625 " clip-rule="nonzero"/></clipPath><clipPath id="710cacbf12"><path d="M 119.847656 0.00390625 L 690.140625 0.00390625 C 700.089844 0.00390625 709.625 3.957031 716.660156 10.988281 C 723.691406 18.023438 727.640625 27.558594 727.640625 37.503906 L 727.640625 772.496094 C 727.640625 782.441406 723.691406 791.976562 716.660156 799.011719 C 709.625 806.042969 700.089844 809.996094 690.140625 809.996094 L 119.847656 809.996094 C 109.902344 809.996094 100.363281 806.042969 93.332031 799.011719 C 86.300781 791.976562 82.347656 782.441406 82.347656 772.496094 L 82.347656 37.503906 C 82.347656 27.558594 86.300781 18.023438 93.332031 10.988281 C 100.363281 3.957031 109.902344 0.00390625 119.847656 0.00390625 Z M 119.847656 0.00390625 " clip-rule="nonzero"/></clipPath></defs><g clip-path="url(#597aec8f88)"><g clip-path="url(#710cacbf12)"><path stroke-linecap="butt" transform="matrix(0.75, 0, 0, 0.75, 82.349025, 0.00567356)" fill="none" stroke-linejoin="miter" d="M 49.998178 -0.00235641 L 810.388841 -0.00235641 C 823.654466 -0.00235641 836.368009 5.268477 845.748218 14.643478 C 855.123218 24.023686 860.388843 36.737229 860.388843 49.997646 L 860.388843 1029.987279 C 860.388843 1043.247696 855.123218 1055.966447 845.748218 1065.341447 C 836.368009 1074.716448 823.654466 1079.987281 810.388841 1079.987281 L 49.998178 1079.987281 C 36.73776 1079.987281 24.01901 1074.716448 14.644009 1065.341447 C 5.269009 1055.966447 -0.00182494 1043.247696 -0.00182494 1029.987279 L -0.00182494 49.997646 C -0.00182494 36.737229 5.269009 24.023686 14.644009 14.643478 C 24.01901 5.268477 36.73776 -0.00235641 49.998178 -0.00235641 Z M 49.998178 -0.00235641 " stroke="#00425c" stroke-width="8" stroke-opacity="1" stroke-miterlimit="4"/></g></g><path fill="#00425c" d="M 399.074219 336.871094 C 403.945312 340.28125 410.070312 342.933594 416.957031 342.808594 C 416.339844 331.804688 411.992188 321.332031 411.625 310.253906 C 408.46875 309.6875 405.742188 308.007812 403.765625 306.238281 C 401.351562 304.191406 399.511719 301.996094 397.664062 300.15625 C 396.734375 299.21875 395.835938 298.402344 394.902344 297.691406 C 394.445312 297.324219 393.972656 297.023438 393.492188 296.75 C 393.003906 296.457031 392.542969 296.132812 392 295.933594 C 389.949219 294.878906 387.621094 294.347656 385.402344 293.875 C 383.15625 293.550781 380.910156 293.355469 378.820312 293.550781 C 376.75 293.730469 374.910156 294.199219 373.039062 295.128906 C 371.191406 295.964844 369.238281 297.316406 366.53125 297.964844 C 365.839844 298.078125 365.148438 298.253906 364.480469 298.253906 C 363.800781 298.214844 363.132812 298.203125 362.464844 298.160156 C 361.210938 297.941406 360.082031 297.640625 358.941406 297.242188 C 356.601562 296.425781 354.855469 295.035156 353.234375 293.917969 C 351.65625 292.695312 350.277344 291.683594 348.917969 290.867188 C 347.539062 290.15625 346.359375 289.738281 344.875 289.582031 C 343.410156 289.433594 341.875 289.507812 340.203125 289.558594 C 338.5 289.582031 336.722656 289.507812 335.007812 289.070312 C 334.164062 288.902344 333.398438 288.558594 332.617188 288.304688 C 331.882812 288.011719 331.234375 287.710938 330.578125 287.417969 C 327.914062 286.257812 325.53125 284.816406 323.429688 283.382812 C 322.414062 282.589844 321.464844 281.753906 320.542969 280.992188 C 319.667969 280.121094 318.914062 279.214844 318.277344 278.355469 C 316.980469 276.613281 316 274.980469 315.109375 273.558594 C 313.355469 270.695312 311.777344 268.679688 310.28125 267.371094 C 308.820312 266.046875 307.492188 265.492188 306.632812 265.011719 C 305.765625 264.613281 305.347656 264.320312 305.378906 264.144531 C 305.402344 263.964844 305.890625 263.890625 306.949219 263.945312 C 307.960938 264.101562 309.613281 264.414062 311.558594 265.667969 C 313.5 266.902344 315.570312 269.042969 317.617188 271.824219 C 318.652344 273.203125 319.738281 274.710938 320.996094 276.183594 C 321.609375 276.925781 322.300781 277.636719 323.03125 278.285156 C 323.878906 278.898438 324.714844 279.558594 325.625 280.195312 C 327.566406 281.386719 329.730469 282.570312 332.25 283.550781 C 332.867188 283.78125 333.546875 284.074219 334.164062 284.292969 C 334.757812 284.4375 335.355469 284.710938 335.96875 284.804688 C 337.203125 285.078125 338.550781 285.097656 340.035156 285.035156 C 341.5625 284.953125 343.328125 284.785156 345.28125 284.929688 C 347.195312 285.035156 349.410156 285.714844 351.238281 286.675781 C 354.8125 288.628906 357.59375 291.460938 360.667969 292.496094 C 361.429688 292.757812 362.316406 292.96875 363.101562 293.113281 C 363.476562 293.113281 363.855469 293.132812 364.242188 293.15625 C 364.617188 293.15625 364.960938 293.03125 365.347656 292.96875 C 366.800781 292.644531 368.597656 291.503906 370.816406 290.425781 C 371.808594 289.90625 372.9375 289.464844 374.117188 289.121094 C 370.429688 287.523438 366.980469 285.503906 363.71875 282.820312 C 356.015625 276.539062 348.136719 273.507812 339.222656 269.410156 C 322.050781 261.488281 313.648438 243.941406 298.054688 234.128906 C 290.351562 229.289062 281.835938 225.726562 273.921875 221.222656 C 268.707031 218.242188 259.9375 213.109375 254.398438 207.027344 C 254.390625 207.59375 254.335938 208.167969 254.273438 208.730469 L 254.839844 208.804688 C 254.367188 213.203125 254.589844 217.425781 255.894531 221.09375 C 257.105469 224.816406 259.292969 227.917969 261.832031 230.480469 C 264.414062 233.03125 267.421875 235.003906 270.378906 236.605469 C 271.039062 236.929688 272.050781 237.546875 272.917969 238.066406 C 273.816406 238.601562 274.539062 239.382812 275.324219 240.011719 C 276.683594 241.484375 277.769531 242.992188 278.648438 244.371094 C 280.382812 247.203125 281.875 249.324219 283.832031 251.320312 C 285.773438 253.378906 287.59375 255.324219 289.441406 257.058594 C 291.261719 258.792969 292.964844 260.570312 294.5625 262.179688 C 295.367188 262.960938 296.070312 263.828125 296.757812 264.664062 C 297.425781 265.5 298.085938 266.316406 298.722656 267.078125 C 299.976562 268.625 300.84375 270.027344 301.878906 271.207031 C 302.882812 272.390625 303.84375 273.421875 304.804688 274.25 C 306.6875 275.972656 308.453125 277.101562 309.851562 277.980469 C 311.265625 278.828125 312.300781 279.421875 312.96875 279.863281 C 313.648438 280.300781 313.917969 280.605469 313.847656 280.792969 C 313.792969 280.96875 313.386719 281.011719 312.570312 280.886719 C 311.777344 280.769531 310.554688 280.5 308.921875 279.882812 C 307.292969 279.285156 305.203125 278.324219 302.882812 276.632812 C 301.703125 275.796875 300.519531 274.742188 299.320312 273.550781 C 298.105469 272.367188 296.957031 270.820312 295.691406 269.484375 C 295.054688 268.792969 294.394531 268.105469 293.726562 267.351562 C 293.078125 266.628906 292.378906 265.867188 291.554688 265.148438 C 289.953125 263.652344 288.28125 262.074219 286.339844 260.347656 C 284.414062 258.699219 282.449219 256.734375 280.382812 254.664062 C 279.859375 254.171875 279.335938 253.597656 278.792969 252.992188 C 278.238281 252.417969 277.695312 251.800781 277.226562 251.140625 C 276.191406 249.855469 275.324219 248.433594 274.433594 247.148438 C 273.558594 245.824219 272.667969 244.683594 271.707031 243.648438 C 271.144531 243.25 270.691406 242.699219 270.054688 242.375 C 269.417969 242.027344 268.925781 241.703125 267.988281 241.234375 C 264.609375 239.488281 261.214844 237.304688 258.089844 234.316406 C 255.527344 231.785156 253.1875 228.671875 251.589844 225.023438 C 249.6875 236.636719 250.105469 247.328125 260.085938 255.59375 C 266.828125 261.1875 274.6875 265.148438 281.542969 270.550781 C 290.949219 277.980469 298.890625 285.433594 310.304688 289.882812 C 319.667969 293.550781 330.472656 295.570312 339.292969 300.429688 C 347.664062 305.027344 350.570312 312.792969 356.925781 319.410156 C 364.367188 327.152344 374.839844 331.550781 384.210938 336.527344 C 388.527344 338.828125 392.886719 340.71875 397.320312 342.128906 C 396.878906 341.847656 396.429688 341.554688 396.011719 341.261719 C 390.398438 337.238281 386.28125 332.640625 382.917969 328.355469 C 382.507812 327.8125 382.101562 327.269531 381.703125 326.734375 C 381.433594 326.378906 381.507812 326.464844 381.433594 326.378906 L 381.328125 326.179688 L 381.191406 325.992188 C 381.140625 325.941406 381.054688 326.035156 380.992188 326.046875 C 380.816406 326.117188 380.742188 326.160156 380.492188 326.242188 C 377.804688 327.214844 375.046875 327.300781 372.632812 326.851562 C 367.816406 325.667969 364.679688 323.054688 362.277344 320.796875 C 357.542969 316.136719 355.324219 312.25 353.945312 309.804688 C 352.597656 307.316406 352.273438 306.09375 352.585938 305.894531 C 352.910156 305.675781 353.84375 306.511719 355.671875 308.582031 C 357.542969 310.597656 360.25 314.046875 364.835938 317.914062 C 367.125 319.785156 370.03125 321.730469 373.46875 322.398438 C 375.183594 322.617188 376.949219 322.472656 378.746094 321.78125 C 379.636719 321.3125 380.523438 320.859375 381.453125 320.371094 L 382.164062 320.003906 L 382.519531 319.828125 C 382.570312 319.804688 382.632812 319.734375 382.6875 319.753906 L 382.8125 319.910156 C 383.136719 320.347656 383.472656 320.789062 383.792969 321.214844 C 384.410156 322.042969 385.027344 322.890625 385.664062 323.726562 C 386.0625 324.214844 386.460938 324.707031 386.855469 325.21875 C 390.105469 329.167969 394.046875 333.351562 399.074219 336.871094 Z M 437.480469 335.03125 C 436.019531 325.230469 433.742188 315.574219 431.996094 305.820312 C 428.085938 307.953125 424.019531 309.5625 419.726562 310.199219 C 418.816406 310.328125 417.9375 310.328125 417.070312 310.296875 C 417.46875 321.632812 422.003906 332.316406 422.441406 343.625 C 427.34375 340.59375 432.371094 337.761719 437.480469 335.03125 Z M 453.367188 284 C 450.316406 278.890625 447.117188 274.195312 443.46875 270.300781 C 439.332031 265.867188 434.648438 262.378906 429.800781 259.480469 C 424.753906 256.660156 419.957031 253.972656 415.378906 251.433594 C 414.28125 250.777344 413.164062 250.128906 412.074219 249.492188 C 411.53125 249.167969 410.988281 248.851562 410.445312 248.53125 C 409.902344 248.214844 409.359375 247.871094 408.941406 247.746094 C 407.121094 246.953125 404.726562 246.4375 402.367188 245.792969 C 401.183594 245.457031 399.953125 245.082031 398.699219 244.515625 C 398.394531 244.410156 398.058594 244.191406 397.757812 244.023438 L 396.953125 243.554688 C 396.410156 243.167969 395.835938 242.84375 395.34375 242.414062 C 393.230469 240.765625 391.78125 238.675781 390.640625 236.929688 C 389.480469 235.152344 388.457031 233.71875 387.203125 232.613281 C 385.96875 231.503906 384.535156 230.699219 383.011719 230.105469 C 382.613281 229.957031 382.226562 229.8125 381.851562 229.664062 C 381.402344 229.519531 380.941406 229.371094 380.503906 229.238281 C 379.613281 228.902344 378.769531 228.671875 377.910156 228.304688 C 377.054688 227.941406 376.207031 227.574219 375.390625 227.230469 C 374.585938 226.78125 373.792969 226.339844 373.007812 225.914062 C 369.90625 223.96875 367.792969 221.441406 365.964844 219.320312 C 364.09375 217.175781 362.539062 215.128906 360.894531 213.507812 C 359.296875 211.835938 357.90625 210.226562 356.382812 209.054688 C 353.570312 206.433594 350.863281 204.925781 348.867188 203.527344 C 344.613281 201.195312 342.742188 200.078125 342.890625 199.691406 C 343.015625 199.367188 345.148438 199.804688 349.851562 201.636719 C 351.898438 202.703125 354.617188 203.925781 357.519531 206.097656 C 357.46875 206.023438 357.4375 205.960938 357.363281 205.878906 C 356.140625 204.289062 354.679688 202.816406 352.910156 201.53125 C 351.167969 200.203125 348.898438 199.261719 346.433594 198.300781 C 343.777344 197.328125 341.40625 196.640625 338.375 196.441406 C 335.355469 196.167969 332.050781 196.390625 327.984375 195.59375 C 327.472656 195.53125 326.972656 195.3125 326.460938 195.101562 C 325.957031 194.882812 325.445312 194.664062 324.925781 194.445312 C 323.992188 193.953125 323.136719 193.410156 322.25 192.867188 C 321.453125 192.269531 320.640625 191.664062 319.8125 191.070312 C 319.050781 190.453125 318.277344 189.816406 317.492188 189.175781 C 315.96875 187.890625 314.441406 186.605469 312.882812 185.375 C 312.101562 184.808594 311.316406 184.128906 310.5 183.648438 C 309.664062 183.15625 308.902344 182.625 307.910156 182.132812 C 300.8125 178.140625 292.566406 174.597656 283.546875 170.449219 C 276.953125 175.078125 270.433594 179.792969 264.066406 184.734375 C 273.847656 191.289062 283.507812 196.390625 292.535156 200.695312 C 294.980469 201.886719 297.394531 203.066406 299.644531 203.976562 C 300.769531 204.445312 301.878906 204.925781 302.964844 205.398438 C 303.164062 205.429688 303.226562 205.480469 303.53125 205.523438 L 304.335938 205.648438 C 304.929688 205.699219 305.527344 205.773438 306.121094 205.847656 C 307.34375 205.992188 308.578125 206.097656 310.011719 206.410156 C 310.429688 206.515625 310.667969 206.515625 311.234375 206.757812 C 311.753906 206.996094 312.394531 207.226562 312.695312 207.613281 C 313.40625 208.261719 313.878906 208.773438 314.285156 209.347656 C 315.914062 211.585938 316.824219 213.582031 317.984375 215.199219 C 318.234375 215.628906 318.546875 215.972656 318.820312 216.308594 C 319.113281 216.683594 319.394531 217 319.707031 217.226562 L 320.15625 217.644531 L 320.773438 218.105469 L 322.050781 218.996094 C 323.742188 220.15625 325.375 221.292969 326.953125 222.402344 C 330.179688 224.636719 333.328125 226.726562 336.191406 228.746094 C 341.90625 232.894531 346.628906 236.929688 350.425781 240.703125 C 352.347656 242.5625 353.925781 244.464844 355.472656 246.113281 C 356.234375 246.984375 356.902344 247.515625 357.5625 248.207031 C 358.285156 248.800781 359.035156 249.324219 359.726562 249.835938 C 360.8125 250.546875 361.867188 251.121094 362.882812 251.664062 C 361.230469 248.695312 360.332031 245.894531 359.683594 243.574219 C 358.898438 240.617188 358.304688 238.382812 357.761719 236.605469 C 357.449219 235.769531 357.195312 235.027344 357 234.367188 C 356.757812 233.75 356.558594 233.238281 356.414062 232.84375 C 356.109375 232.027344 356.058594 231.578125 356.214844 231.460938 C 356.359375 231.359375 356.726562 231.609375 357.34375 232.277344 C 357.644531 232.613281 358.054688 233.039062 358.449219 233.625 C 358.816406 234.222656 359.246094 234.933594 359.726562 235.777344 C 360.59375 237.515625 361.554688 239.835938 362.589844 242.613281 C 363.644531 245.375 365.003906 248.582031 367.386719 251.664062 C 369.757812 254.738281 373.742188 257.226562 378.507812 260.515625 C 380.890625 262.21875 383.28125 264.246094 385.664062 266.160156 C 386.878906 266.996094 388.109375 268.011719 389.40625 268.574219 L 390.347656 269.078125 C 390.640625 269.191406 390.859375 269.210938 391.109375 269.296875 L 392.070312 269.390625 L 393.179688 269.367188 C 394.089844 269.316406 395 269.242188 395.917969 269.191406 L 396.722656 269.148438 L 397.664062 269.222656 C 397.957031 269.222656 398.332031 269.296875 398.71875 269.410156 L 399.292969 269.566406 C 399.335938 269.566406 399.367188 269.589844 399.417969 269.609375 L 399.503906 269.621094 L 399.535156 269.640625 C 402 270.445312 403.777344 271.898438 405.367188 273.308594 C 408.480469 276.160156 411.136719 279.265625 414.40625 281.386719 C 415.222656 281.929688 416.058594 282.371094 416.925781 282.757812 C 417.960938 283.164062 419.015625 283.582031 420.070312 284.019531 C 422.222656 284.929688 424.53125 285.859375 426.875 287.304688 C 428.035156 288.011719 429.183594 288.945312 430.25 289.988281 C 431.261719 291.117188 432.246094 292.390625 432.839844 293.84375 C 433.449219 295.128906 433.792969 296.480469 434.023438 297.816406 C 440.636719 293.480469 446.898438 288.597656 453.367188 284 Z M 455.5625 325.699219 C 457.789062 318.351562 456.597656 311.402344 456.054688 303.898438 C 455.707031 299.121094 456.679688 293.550781 455.960938 288.578125 C 455.175781 289.140625 454.359375 289.707031 453.578125 290.269531 C 448.320312 294.136719 442.832031 298.871094 436.96875 302.792969 C 438.671875 312.6875 441.003906 322.449219 442.539062 332.390625 C 446.867188 330.132812 451.226562 327.9375 455.5625 325.699219 Z M 466.945312 177.148438 C 466.753906 176.78125 466.558594 176.417969 466.304688 176.125 C 466.085938 175.875 465.867188 175.621094 465.636719 175.351562 C 465.34375 175.007812 465 174.691406 464.675781 174.347656 C 463.253906 173.019531 461.53125 171.734375 459.503906 170.460938 C 457.496094 169.214844 455.175781 167.867188 452.6875 166.539062 C 451.453125 165.894531 450.167969 165.214844 448.84375 164.511719 C 447.492188 163.898438 446.082031 163.257812 444.652344 162.578125 C 443.210938 161.878906 441.632812 161.441406 440.074219 160.824219 C 438.515625 160.175781 436.84375 159.808594 435.121094 159.371094 C 433.300781 158.902344 431.429688 158.429688 429.507812 157.917969 C 429.015625 157.773438 428.503906 157.648438 428.003906 157.5 C 427.511719 157.34375 427.019531 157.15625 426.527344 156.976562 C 425.546875 156.613281 424.511719 156.265625 423.53125 155.871094 C 419.632812 154.230469 415.691406 152.503906 411.4375 150.925781 C 407.214844 149.316406 402.660156 147.917969 397.808594 146.539062 C 388.332031 143.871094 377.710938 141.613281 366.089844 138.710938 C 364.167969 143.632812 362.214844 148.679688 359.339844 153.058594 C 363.730469 153.601562 368.109375 153.539062 372.539062 153.582031 C 373.875 153.558594 375.296875 153.65625 376.644531 153.6875 C 378.015625 153.78125 379.394531 153.925781 380.742188 154.050781 C 382.089844 154.292969 383.429688 154.5 384.757812 154.742188 C 385.917969 154.929688 387.023438 155.253906 388.171875 155.328125 C 392.71875 155.890625 397.421875 155.621094 402.125 156.101562 C 403.285156 156.234375 404.457031 156.339844 405.617188 156.613281 C 406.179688 156.714844 406.753906 156.832031 407.320312 156.957031 C 407.851562 157.101562 408.355469 157.25 408.867188 157.394531 C 410.914062 157.972656 412.910156 158.554688 414.855469 159.121094 C 418.722656 160.238281 422.390625 161.292969 425.839844 162.320312 C 427.585938 162.789062 429.214844 163.351562 430.792969 163.929688 C 432.390625 164.492188 433.9375 165.035156 435.421875 165.558594 C 438.402344 166.632812 441.203125 167.636719 443.816406 168.558594 C 445.101562 169.027344 446.375 169.488281 447.566406 169.917969 C 448.171875 170.136719 448.789062 170.355469 449.4375 170.679688 C 450.054688 170.992188 450.714844 171.242188 451.234375 171.609375 C 453.492188 172.914062 455.175781 174.335938 456.796875 175.457031 C 458.394531 176.65625 459.847656 177.492188 461.183594 178.109375 C 461.238281 178.109375 461.277344 178.121094 461.332031 178.140625 C 461.800781 178.214844 462.292969 178.339844 462.816406 178.308594 C 463.097656 178.308594 463.378906 178.308594 463.652344 178.328125 C 463.945312 178.265625 464.238281 178.214844 464.53125 178.164062 C 465.980469 177.910156 466.328125 177.566406 466.945312 177.148438 Z M 493.320312 259.804688 C 489.675781 253.652344 482.660156 250.796875 477.65625 245.519531 C 471.550781 239.113281 465.59375 234.042969 457.539062 230.207031 C 441.085938 222.390625 426.527344 210.382812 410.96875 200.894531 C 379.800781 181.863281 347.425781 164.941406 314.734375 148.710938 C 306.121094 154.835938 297.394531 160.792969 288.722656 166.8125 C 296.558594 170.386719 303.949219 173.710938 310.480469 177.453125 C 311.441406 177.921875 312.464844 178.601562 313.449219 179.21875 C 314.441406 179.855469 315.257812 180.554688 316.144531 181.214844 C 317.839844 182.574219 319.386719 183.921875 320.867188 185.207031 C 323.773438 187.714844 326.660156 190.054688 329.1875 190.703125 C 332.074219 191.339844 335.542969 191.320312 338.824219 191.664062 C 340.476562 191.851562 342.125 192.082031 343.726562 192.5625 C 345.398438 192.972656 346.671875 193.578125 348.0625 194.070312 C 350.75 195.230469 353.328125 196.429688 355.429688 198.144531 C 357.542969 199.835938 359.214844 201.730469 360.445312 203.558594 C 362.964844 207.226562 364.554688 210.371094 366.089844 212.871094 C 366.707031 213.832031 367.242188 214.761719 367.761719 215.578125 C 368.128906 215.964844 368.472656 216.359375 368.828125 216.738281 C 370.761719 218.773438 372.695312 220.875 375.203125 222.316406 C 375.863281 222.640625 376.53125 222.988281 377.199219 223.332031 C 377.933594 223.625 378.671875 223.90625 379.4375 224.199219 C 380.199219 224.511719 381.054688 224.710938 381.871094 224.984375 C 382.289062 225.109375 382.707031 225.234375 383.136719 225.371094 C 383.617188 225.527344 384.097656 225.695312 384.589844 225.851562 C 386.53125 226.539062 388.527344 227.574219 390.273438 229.101562 C 392.050781 230.59375 393.429688 232.496094 394.613281 234.222656 C 395.792969 235.96875 396.921875 237.441406 398.351562 238.527344 C 398.699219 238.832031 399.117188 239.039062 399.503906 239.300781 L 399.660156 239.417969 L 399.765625 239.46875 L 400.171875 239.6875 C 400.371094 239.78125 400.515625 239.90625 400.746094 239.980469 C 401.601562 240.347656 402.597656 240.648438 403.695312 240.941406 C 405.867188 241.539062 408.261719 241.925781 411.0625 243.0625 C 411.824219 243.355469 412.335938 243.679688 412.902344 243.992188 C 413.445312 244.316406 414 244.632812 414.5625 244.957031 C 415.691406 245.59375 416.820312 246.242188 417.980469 246.898438 C 420.289062 248.214844 422.566406 249.398438 424.972656 250.722656 C 427.324219 252.007812 429.976562 253.410156 432.539062 254.882812 C 437.660156 257.894531 442.863281 261.707031 447.421875 266.589844 C 451.257812 270.664062 454.539062 275.398438 457.578125 280.40625 C 457.851562 280.40625 458.121094 280.445312 458.375 280.550781 C 458.738281 280.300781 459.117188 280.050781 459.480469 279.808594 C 470.519531 272.671875 481.730469 265.941406 493.320312 259.804688 Z M 493.03125 224.441406 C 492.390625 221.972656 491.648438 219.609375 490.78125 217.375 C 489.058594 212.964844 486.820312 208.992188 484.0625 206.117188 C 483.332031 205.472656 482.609375 204.832031 481.867188 204.269531 L 480.6875 203.601562 L 480.089844 203.253906 L 479.378906 202.910156 C 478.417969 202.449219 477.539062 202.011719 476.546875 201.582031 C 475.585938 201.1875 474.625 200.746094 473.601562 200.203125 C 469.609375 198.0625 466.722656 195.207031 464.039062 193.921875 C 461.332031 192.542969 458.667969 192.742188 455.59375 193.503906 C 455.21875 193.597656 454.808594 193.683594 454.414062 193.777344 C 454.339844 193.808594 454.265625 193.871094 454.183594 193.921875 C 453.671875 194.214844 452.636719 194.8125 451.527344 194.664062 C 451.132812 194.613281 450.746094 194.496094 450.390625 194.394531 C 448.675781 194.464844 446.917969 194.121094 445.464844 193.523438 C 442.445312 192.21875 440.417969 190.484375 438.476562 189.324219 C 436.707031 188.238281 434.460938 187.390625 432.644531 186.511719 C 430.792969 185.65625 429.089844 184.902344 427.542969 184.191406 C 424.460938 182.792969 421.953125 181.863281 419.996094 181.097656 C 418 180.410156 416.578125 179.917969 415.648438 179.613281 C 414.710938 179.269531 414.28125 179.019531 414.3125 178.808594 C 414.332031 178.632812 414.804688 178.527344 415.835938 178.527344 C 416.851562 178.484375 418.417969 178.675781 420.5625 179.050781 C 422.683594 179.519531 425.402344 180.199219 428.652344 181.359375 C 430.292969 181.902344 432.066406 182.550781 433.992188 183.304688 C 435.933594 184.097656 437.953125 184.683594 440.398438 185.988281 C 442.4375 187.097656 444.335938 188.425781 446.28125 189.292969 C 446.042969 188.6875 445.789062 188.113281 445.496094 187.621094 C 445.394531 187.402344 445.277344 187.277344 445.152344 187.078125 L 444.628906 186.441406 C 444.285156 186.023438 443.917969 185.59375 443.554688 185.132812 C 441.976562 183.429688 440.105469 181.683594 437.734375 180.347656 C 435.351562 178.957031 432.464844 177.996094 429.109375 177.398438 C 425.746094 176.78125 421.921875 176.542969 417.65625 176.039062 C 415.515625 175.820312 413.277344 175.433594 410.914062 174.964844 C 408.59375 174.390625 406.285156 173.710938 403.964844 172.945312 C 399.316406 171.464844 394.507812 169.71875 389.417969 168.902344 C 385.351562 168.246094 381.128906 168.464844 377.148438 170.0625 C 391.894531 177.199219 407.171875 183.042969 420.84375 192.34375 C 436.53125 202.992188 451.132812 215.691406 468.050781 224.398438 C 471.605469 226.238281 474.96875 228.179688 478.179688 230.25 C 482.976562 227.816406 487.949219 225.921875 493.03125 224.441406 Z M 494.828125 243.355469 C 495.214844 239.582031 494.972656 235.644531 494.480469 231.976562 C 494.378906 231.210938 494.242188 230.480469 494.117188 229.738281 C 490.449219 230.847656 486.875 232.195312 483.371094 233.804688 C 487.394531 236.730469 491.179688 239.90625 494.828125 243.355469 Z M 496.53125 300.347656 C 500.3125 288.578125 499.824219 275.773438 497.367188 263.746094 C 484.824219 270.203125 472.386719 277.300781 460.734375 285.253906 C 462.144531 291.335938 460.882812 297.472656 461.5 303.898438 C 462.113281 310.234375 462.785156 316.335938 461.84375 322.472656 C 474.039062 316.085938 485.933594 309.21875 496.53125 300.347656 Z M 495.933594 258.449219 C 497.21875 257.769531 498.527344 257.097656 499.832031 256.429688 C 494.441406 250.203125 488.816406 243.898438 482.117188 239.070312 C 475.117188 234.023438 467.382812 230.574219 460.023438 226.144531 C 444.535156 216.851562 430.792969 205.105469 415.597656 195.394531 C 399.753906 185.257812 381.871094 179.636719 365.640625 170.304688 C 350.007812 161.316406 335.59375 150.582031 317.691406 146.609375 C 317.546875 146.714844 317.386719 146.808594 317.242188 146.925781 C 353.550781 164.960938 389.605469 183.753906 423.738281 205.667969 C 432.171875 211.074219 440.230469 217.144531 448.726562 222.421875 C 455.269531 226.507812 463.148438 228.796875 469.167969 233.625 C 476.203125 239.238281 481.375 246.4375 489.089844 251.164062 C 492.902344 253.503906 494.535156 255.332031 495.933594 258.449219 Z M 501.691406 295.769531 C 503.847656 285.984375 506.050781 271.480469 502.320312 261.238281 C 501.503906 261.636719 500.691406 262.054688 499.875 262.472656 C 502.257812 273.777344 503 285.765625 500.292969 297.023438 C 500.730469 296.625 501.203125 296.21875 501.628906 295.800781 C 501.652344 295.800781 501.671875 295.789062 501.691406 295.769531 Z M 520.765625 260.621094 C 518.519531 249.6875 514.558594 239.644531 514.527344 228.976562 C 514.578125 227.667969 514.757812 226.4375 514.902344 225.347656 C 509.679688 226.113281 504.484375 227.03125 499.363281 228.304688 C 499.550781 229.269531 499.730469 230.25 499.855469 231.234375 C 500.542969 236.488281 500.910156 242.050781 499.550781 248.078125 C 501.203125 249.804688 502.8125 251.582031 504.429688 253.453125 C 504.609375 253.652344 504.734375 253.878906 504.847656 254.101562 C 504.902344 254.171875 504.953125 254.226562 505.015625 254.296875 C 506.792969 257.121094 507.972656 260.371094 508.714844 263.828125 C 512.804688 262.960938 516.816406 261.875 520.765625 260.621094 Z M 532.410156 217.917969 C 532.480469 216.527344 532.511719 215.210938 532.429688 214.019531 C 532.074219 209.046875 528.699219 205.15625 525.34375 202.398438 C 521.925781 199.609375 518.414062 197.601562 515.363281 195.867188 C 512.929688 194.570312 510.808594 193.160156 509.019531 191.957031 C 508.96875 191.925781 508.914062 191.90625 508.863281 191.863281 C 506.941406 190.890625 504.976562 189.835938 502.78125 188.800781 C 500.617188 187.796875 498.203125 186.730469 495.765625 186.21875 C 495.191406 186.117188 494.609375 186.0625 494.136719 186.074219 C 493.886719 186.09375 493.75 186.136719 493.699219 186.148438 C 493.625 186.1875 493.550781 186.21875 493.519531 186.292969 C 493.351562 186.585938 493.195312 186.585938 493.917969 187.789062 C 495.414062 189.867188 498.222656 191.980469 501.160156 193.996094 C 502.707031 195.007812 504.304688 196.066406 505.9375 197.152344 C 506.375 197.464844 506.792969 197.738281 507.296875 198.164062 C 508.132812 198.855469 508.226562 199.199219 508.621094 199.640625 C 509.332031 200.476562 509.96875 201.34375 510.585938 202.230469 C 513.054688 205.773438 515.363281 209.609375 517.464844 213.925781 C 517.988281 215.003906 518.519531 216.101562 518.96875 217.28125 C 519.1875 217.886719 519.460938 218.429688 519.660156 219.097656 C 519.679688 219.152344 519.699219 219.214844 519.722656 219.265625 C 523.914062 218.796875 528.21875 218.503906 532.410156 217.917969 Z M 534.113281 255.96875 C 534.78125 255.71875 535.472656 255.480469 536.160156 255.269531 C 534.992188 247.765625 533.296875 240.703125 532.566406 234.003906 C 532.386719 232.121094 532.117188 230.375 532.023438 228.484375 C 531.875 226.601562 531.992188 224.785156 532.074219 223.089844 C 532.074219 223.007812 532.09375 222.914062 532.09375 222.820312 C 528.425781 223.476562 524.707031 224.054688 520.914062 224.542969 C 520.734375 224.566406 520.546875 224.585938 520.371094 224.617188 L 520.347656 224.691406 L 520.222656 225.671875 C 520.148438 226.269531 520.078125 226.886719 520.003906 227.511719 C 519.953125 228.066406 519.824219 228.722656 519.867188 229.214844 C 519.878906 229.738281 519.847656 230.230469 519.867188 230.792969 C 519.929688 231.410156 519.992188 232.027344 520.066406 232.664062 C 520.148438 233.917969 520.347656 235.164062 520.589844 236.4375 C 520.789062 237.710938 521.058594 238.976562 521.351562 240.285156 C 521.625 241.589844 521.96875 242.917969 522.3125 244.265625 C 523.453125 248.851562 524.875 253.683594 525.980469 258.917969 C 528.699219 257.964844 531.40625 256.996094 534.113281 255.96875 Z M 537.90625 216.9375 C 540.84375 216.289062 543.75 215.492188 546.652344 214.65625 C 544.261719 200.382812 529.242188 190.765625 517.933594 183.574219 C 512.4375 180.085938 507.023438 176.125 501.304688 173.042969 C 493.488281 168.808594 485.148438 165.925781 477.039062 162.351562 C 467.664062 158.191406 458.570312 153.925781 448.914062 150.445312 C 444.535156 148.878906 440.566406 146.285156 435.957031 145.398438 C 431.972656 144.636719 427.910156 144.007812 424.019531 142.847656 C 414.675781 140.015625 404.875 137.109375 395.773438 133.578125 C 391.351562 131.855469 387.148438 129.324219 382.667969 127.820312 C 379.363281 126.710938 375.96875 126.480469 372.757812 125.226562 C 370.910156 127.714844 369.488281 130.621094 368.273438 133.390625 C 368.253906 133.464844 368.222656 133.535156 368.179688 133.609375 C 379.363281 136.367188 389.824219 138.636719 399.261719 141.386719 C 404.214844 142.835938 408.917969 144.320312 413.296875 146.046875 C 417.6875 147.738281 421.753906 149.589844 425.472656 151.21875 C 426.402344 151.617188 427.3125 151.929688 428.222656 152.296875 C 428.671875 152.453125 429.109375 152.640625 429.558594 152.796875 C 430.007812 152.945312 430.449219 153.070312 430.910156 153.195312 C 432.757812 153.726562 434.566406 154.230469 436.332031 154.71875 C 438.183594 155.253906 440.023438 155.703125 441.671875 156.445312 C 443.324219 157.132812 445.007812 157.679688 446.5 158.460938 C 447.984375 159.203125 449.457031 159.9375 450.859375 160.625 C 452.21875 161.410156 453.523438 162.171875 454.800781 162.894531 C 457.316406 164.367188 459.535156 165.777344 461.65625 167.25 C 463.746094 168.726562 465.59375 170.261719 467.164062 171.914062 C 467.519531 172.351562 467.90625 172.75 468.230469 173.207031 L 468.742188 173.855469 C 468.898438 174.054688 469.117188 174.492188 469.304688 174.785156 C 470.121094 176.070312 470.496094 177.347656 470.96875 178.550781 C 470.464844 178.832031 469.953125 179.09375 469.453125 179.34375 C 469.429688 179.34375 469.429688 179.363281 469.429688 179.363281 C 469.191406 179.59375 468.941406 179.855469 468.617188 180.054688 C 468.300781 180.285156 467.9375 180.472656 467.558594 180.648438 C 466.777344 181.035156 466.128906 181.191406 465.34375 181.382812 C 464.582031 181.507812 463.746094 181.609375 462.785156 181.464844 C 462.09375 181.382812 461.082031 181.191406 460.191406 180.996094 C 456.554688 179.867188 453.230469 177.054688 449.386719 174.984375 C 448.894531 174.691406 448.402344 174.546875 447.910156 174.335938 C 447.441406 174.117188 446.867188 173.929688 446.230469 173.730469 C 445.007812 173.355469 443.742188 172.945312 442.4375 172.550781 C 439.824219 171.714844 437 170.816406 434.011719 169.863281 C 432.519531 169.371094 430.980469 168.882812 429.382812 168.378906 C 427.804688 167.835938 426.152344 167.324219 424.429688 166.886719 C 421.011719 165.976562 417.382812 165.003906 413.550781 163.980469 C 411.648438 163.457031 409.660156 162.933594 407.644531 162.371094 C 407.140625 162.234375 406.628906 162.097656 406.117188 161.972656 C 405.648438 161.878906 405.15625 161.785156 404.675781 161.691406 C 403.714844 161.480469 402.679688 161.410156 401.632812 161.292969 C 397.464844 160.898438 392.761719 161.222656 387.535156 160.644531 C 386.230469 160.550781 384.921875 160.207031 383.597656 159.988281 C 382.4375 159.789062 381.253906 159.613281 380.074219 159.414062 C 378.851562 159.320312 377.617188 159.171875 376.363281 159.097656 C 375.078125 159.078125 373.824219 158.996094 372.464844 159.003906 C 367.273438 158.972656 361.429688 159.121094 355.378906 157.960938 C 355.367188 157.972656 355.347656 157.992188 355.347656 158.011719 C 359.632812 160.582031 363.9375 163.1875 368.378906 165.601562 C 369.519531 166.214844 370.667969 166.8125 371.808594 167.417969 L 371.453125 166.800781 C 374.410156 165.035156 377.691406 163.875 380.941406 163.40625 C 384.191406 162.933594 387.347656 163.09375 390.253906 163.550781 C 396.105469 164.542969 401.058594 166.4375 405.617188 167.960938 C 407.882812 168.726562 410.070312 169.394531 412.117188 169.9375 C 414.1875 170.40625 416.234375 170.792969 418.285156 171.066406 C 422.347656 171.628906 426.308594 171.984375 430.007812 172.789062 C 433.71875 173.5625 437.167969 174.839844 439.96875 176.65625 C 442.78125 178.433594 444.851562 180.628906 446.523438 182.6875 C 446.898438 183.230469 447.273438 183.753906 447.640625 184.265625 C 447.808594 184.539062 447.984375 184.789062 448.171875 185.027344 C 448.332031 185.332031 448.550781 185.65625 448.675781 185.949219 C 449.261719 187.171875 449.53125 188.257812 449.804688 189.144531 C 449.910156 189.46875 450.003906 189.761719 450.105469 190.035156 C 450.191406 190.015625 450.253906 190.015625 450.328125 190.015625 C 451.570312 189.886719 452.9375 189.523438 454.527344 189.113281 C 457.558594 188.183594 462.1875 187.589844 466.085938 189.5625 C 468.007812 190.472656 469.660156 191.65625 471.226562 192.761719 C 472 193.316406 472.804688 193.878906 473.546875 194.339844 C 474.3125 194.84375 475.054688 195.355469 475.910156 195.71875 C 476.695312 196.136719 477.613281 196.535156 478.574219 196.933594 C 479.527344 197.320312 480.539062 197.808594 481.53125 198.238281 L 482.285156 198.582031 L 483.121094 199.054688 C 483.664062 199.367188 484.21875 199.671875 484.773438 200.003906 C 485.808594 200.726562 486.800781 201.5625 487.730469 202.441406 C 491.324219 206.046875 493.792969 210.570312 495.757812 215.410156 C 496.71875 217.84375 497.554688 220.382812 498.246094 223.019531 C 503.542969 221.734375 508.9375 220.769531 514.382812 219.976562 C 514.265625 219.714844 514.183594 219.464844 514.066406 219.214844 C 513.710938 218.191406 513.230469 217.175781 512.761719 216.164062 C 510.859375 212.148438 508.675781 208.40625 506.46875 205.105469 C 505.90625 204.269531 505.339844 203.476562 504.753906 202.765625 C 504.503906 202.449219 504.140625 201.960938 504.117188 201.960938 C 503.886719 201.75 503.492188 201.457031 503.125 201.195312 C 501.503906 200.078125 499.925781 198.980469 498.421875 197.9375 C 496.875 196.828125 495.390625 195.699219 493.96875 194.488281 C 492.578125 193.253906 491.253906 191.957031 490.125 190.253906 C 489.582031 189.324219 489.035156 188.4375 488.941406 186.859375 C 488.859375 185.425781 489.457031 184.023438 490.449219 183.09375 C 491.398438 182.132812 493.03125 181.777344 493.96875 181.789062 C 494.996094 181.777344 495.863281 181.925781 496.667969 182.101562 C 499.832031 182.898438 502.257812 184.191406 504.527344 185.351562 C 506.75 186.554688 508.746094 187.789062 510.515625 188.824219 C 511.851562 189.585938 513.105469 190.347656 514.285156 191.070312 C 515.175781 191.519531 516.105469 191.980469 517.160156 192.429688 C 520.371094 194.007812 524.164062 195.84375 528.15625 198.855469 C 530.140625 200.359375 532.191406 202.199219 533.945312 204.613281 C 535.679688 206.996094 537.144531 210.089844 537.457031 213.582031 C 537.539062 214.742188 537.5625 215.890625 537.539062 217.007812 C 537.675781 217 537.78125 216.976562 537.90625 216.9375 Z M 543.71875 235.726562 C 544.261719 230.230469 546.496094 225.183594 547.144531 219.707031 C 543.894531 220.457031 540.632812 221.1875 537.363281 221.847656 C 537.34375 222.347656 537.3125 222.863281 537.289062 223.363281 C 537.238281 224.984375 537.164062 226.582031 537.3125 228.179688 C 537.394531 229.78125 537.6875 231.578125 537.875 233.332031 C 538.597656 239.488281 540.195312 246.113281 541.429688 253.609375 C 542.160156 253.378906 542.882812 253.136719 543.613281 252.886719 C 543.464844 247.179688 543.132812 241.414062 543.71875 235.726562 Z M 549.277344 213.925781 C 550.667969 213.527344 552.066406 213.109375 553.46875 212.714844 C 546.84375 196.484375 538.742188 183.085938 523.003906 174.074219 C 507.628906 165.253906 491.035156 159.515625 474.21875 154.105469 C 442.019531 143.757812 411.167969 128.6875 378.351562 120.335938 C 376.96875 121.046875 375.746094 121.96875 374.660156 123.042969 C 378.507812 124.320312 382.539062 124.664062 386.355469 126.441406 C 391.757812 128.949219 397.121094 131.269531 402.835938 132.992188 C 413.109375 136.097656 423.027344 140.128906 433.574219 142.160156 C 452.730469 145.878906 471.113281 156.90625 489.015625 164.316406 C 503.816406 170.429688 517.828125 179.46875 530.644531 189.042969 C 539.109375 195.332031 547.292969 203.402344 549.277344 213.925781 Z M 552.390625 233.574219 C 553.5 228.746094 555.757812 222.894531 555.023438 217.773438 C 553.34375 218.210938 551.628906 218.628906 549.945312 219.027344 C 549.339844 225.601562 546.476562 231.589844 546.277344 238.234375 C 546.132812 242.769531 546.234375 247.296875 546.328125 251.8125 C 547.070312 251.488281 547.804688 251.121094 548.492188 250.722656 C 550.449219 245.132812 551.074219 239.394531 552.390625 233.574219 Z M 559.65625 210.96875 C 559.433594 210.039062 559.144531 209.054688 558.695312 207.957031 C 554.042969 196.554688 546.234375 185.800781 536.964844 177.746094 C 523.640625 166.164062 506.71875 160.355469 490.363281 154.4375 C 473.078125 148.167969 455.488281 143.253906 438.109375 137.296875 C 425.179688 132.867188 413.164062 125.980469 400.152344 121.882812 C 395.144531 120.304688 388.925781 118.246094 383.355469 118.851562 C 400.003906 123.460938 416.015625 129.890625 432.101562 136.222656 C 450.128906 143.320312 468.480469 149.117188 486.800781 155.359375 C 503.617188 161.09375 520.546875 167.792969 534.800781 178.632812 C 545.390625 186.710938 551.230469 199.890625 556.101562 211.949219 C 557.28125 211.625 558.453125 211.28125 559.65625 210.96875 Z M 559.875 216.527344 C 559.144531 216.707031 558.421875 216.90625 557.699219 217.082031 C 558.566406 222.734375 556.113281 228.921875 555.023438 234.296875 C 554.085938 238.894531 553.394531 243.429688 552.214844 247.859375 C 553.542969 246.429688 554.605469 244.683594 555.246094 242.445312 C 557.3125 235.183594 558.171875 227.792969 559.300781 220.375 C 559.53125 218.921875 559.726562 217.6875 559.875 216.527344 Z M 551 184.964844 C 556.917969 192.34375 567.066406 205.304688 566.132812 215.617188 C 565.632812 221.222656 563.941406 227.199219 562.957031 232.894531 C 561.722656 239.9375 560.53125 248.039062 555.296875 253.335938 C 550.855469 257.863281 541.273438 259.117188 535.566406 261.21875 C 527.015625 264.375 518.445312 267.351562 509.53125 269.222656 C 510.421875 278.953125 508.644531 289.664062 506.792969 297.859375 C 506.605469 298.652344 506.175781 299.175781 505.632812 299.488281 C 505.589844 299.542969 505.558594 299.605469 505.488281 299.65625 C 481.429688 322.4375 449.417969 332.515625 422.023438 350.324219 C 421.0625 350.9375 420.132812 350.84375 419.410156 350.394531 C 407.101562 351.117188 395.050781 348.453125 384.117188 342.664062 C 374.460938 337.511719 362.421875 332.984375 354.710938 324.957031 C 351.15625 321.257812 348.460938 317.097656 345.429688 313.003906 C 340.546875 306.367188 334.195312 304.015625 326.605469 301.433594 C 315.550781 297.671875 303.800781 294.285156 294 287.722656 C 284.707031 281.535156 276.859375 273.695312 267.441406 267.550781 C 260.273438 262.867188 251.609375 257.421875 247.921875 249.292969 C 243.082031 238.527344 245.601562 227.597656 247.699219 216.445312 C 248.945312 209.953125 248.066406 202.15625 249.445312 195.300781 C 249.539062 194.445312 249.757812 193.578125 250.105469 192.699219 C 250.449219 191.539062 250.898438 190.433594 251.441406 189.367188 C 251.296875 188.632812 251.515625 187.839844 252.320312 187.179688 C 272.230469 170.722656 294.125 156.9375 315.046875 141.8125 C 315.445312 141.542969 315.820312 141.394531 316.207031 141.34375 C 316.710938 141.070312 317.347656 140.945312 318.058594 141.09375 C 330.054688 143.558594 340.328125 149.078125 350.457031 155.085938 C 360.25 146.496094 360.824219 131.46875 368.796875 121.464844 C 377.09375 111.066406 390.148438 112.695312 401.582031 116.636719 C 418.671875 122.519531 434.515625 130.796875 451.945312 135.878906 C 471.5 141.582031 491 148.117188 509.824219 155.964844 C 526.179688 162.769531 539.820312 171.046875 551 184.964844 Z M 309.394531 211.585938 C 309.394531 211.5625 309.046875 211.511719 308.890625 211.460938 C 307.984375 211.28125 306.800781 211.144531 305.578125 211.042969 C 304.953125 210.96875 304.3125 210.894531 303.675781 210.84375 C 303.007812 210.726562 302.339844 210.65625 301.355469 210.402344 C 300.050781 209.890625 298.890625 209.390625 297.613281 208.855469 C 295.074219 207.84375 292.714844 206.703125 290.277344 205.535156 C 280.621094 201.019531 270.203125 195.554688 259.582031 188.289062 C 259.324219 188.488281 259.070312 188.707031 258.820312 188.90625 C 258.90625 189.636719 258.683594 190.378906 257.984375 191.039062 C 244.347656 203.433594 284.144531 220.574219 292.222656 224.730469 C 301.085938 229.289062 308.203125 234.816406 315.132812 242.121094 C 320.941406 248.257812 326.785156 255.898438 333.996094 260.421875 C 340.035156 264.195312 346.726562 266.191406 353.058594 269.316406 C 359.933594 272.691406 364.855469 277.960938 371.359375 281.753906 C 378.746094 286.089844 386.949219 286.949219 394.9375 289.613281 C 400.441406 291.453125 404.195312 295.109375 408.0625 299.175781 C 413.839844 305.269531 419.808594 306.011719 427.125 301.996094 C 427.710938 301.683594 428.273438 301.316406 428.839844 300.992188 C 428.816406 299.175781 428.523438 297.492188 427.886719 296.113281 C 427.125 294.347656 425.746094 293.03125 423.96875 291.902344 C 422.214844 290.773438 420.101562 289.882812 418.011719 289.015625 C 416.945312 288.578125 415.867188 288.128906 414.824219 287.691406 C 413.621094 287.15625 412.492188 286.5625 411.457031 285.859375 C 407.363281 283.089844 404.582031 279.683594 401.84375 277.15625 C 400.496094 275.890625 399.136719 274.90625 398.007812 274.53125 L 397.640625 274.394531 C 397.539062 274.363281 397.589844 274.386719 397.558594 274.363281 L 397.445312 274.34375 C 397.371094 274.3125 397.296875 274.292969 397.121094 274.292969 L 396.671875 274.25 L 396.085938 274.269531 C 395.175781 274.3125 394.265625 274.363281 393.378906 274.394531 C 392.867188 274.417969 392.34375 274.394531 391.832031 274.386719 C 391.265625 274.34375 390.714844 274.269531 390.167969 274.1875 C 389.585938 274.019531 388.945312 273.851562 388.457031 273.632812 C 388.027344 273.421875 387.589844 273.183594 387.148438 272.941406 C 385.351562 272.054688 384.046875 270.9375 382.667969 269.914062 C 380.125 267.757812 377.984375 265.816406 375.820312 264.164062 C 372.121094 261.40625 368.378906 258.824219 365.671875 255.742188 C 363.699219 254.925781 361.167969 254.089844 358.136719 252.46875 C 357.300781 251.925781 356.414062 251.414062 355.523438 250.765625 C 354.710938 250.054688 353.695312 249.238281 352.933594 248.476562 C 351.332031 246.972656 349.703125 245.207031 347.757812 243.523438 C 343.925781 240.03125 339.261719 236.332031 333.578125 232.445312 C 330.691406 230.554688 327.609375 228.558594 324.316406 226.414062 C 322.644531 225.308594 320.941406 224.148438 319.164062 222.964844 C 318.726562 222.671875 318.277344 222.390625 317.839844 222.078125 L 317.148438 221.605469 L 316.40625 220.949219 C 315.875 220.53125 315.402344 220.0625 315.027344 219.570312 C 314.609375 219.078125 314.191406 218.585938 313.855469 218.085938 C 312.445312 216.121094 311.378906 213.976562 310.207031 212.472656 C 309.957031 212.074219 309.59375 211.761719 309.433594 211.625 C 309.394531 211.585938 309.394531 211.585938 309.394531 211.585938 " fill-opacity="1" fill-rule="nonzero"/><path fill="#00425c" d="M 399.535156 269.640625 L 399.503906 269.621094 C 399.511719 269.621094 399.511719 269.621094 399.535156 269.640625 " fill-opacity="1" fill-rule="nonzero"/><g fill="#00425c" fill-opacity="1"><g transform="translate(212.296868, 528.570929)"><g><path d="M 1.875 -20.0625 C 1.875 -24.019531 2.726562 -27.546875 4.4375 -30.640625 C 6.15625 -33.742188 8.539062 -36.160156 11.59375 -37.890625 C 14.65625 -39.617188 18.128906 -40.484375 22.015625 -40.484375 C 26.765625 -40.484375 30.828125 -39.226562 34.203125 -36.71875 C 37.585938 -34.207031 39.851562 -30.785156 41 -26.453125 L 30.28125 -26.453125 C 29.476562 -28.128906 28.34375 -29.40625 26.875 -30.28125 C 25.414062 -31.15625 23.753906 -31.59375 21.890625 -31.59375 C 18.890625 -31.59375 16.457031 -30.546875 14.59375 -28.453125 C 12.726562 -26.359375 11.796875 -23.5625 11.796875 -20.0625 C 11.796875 -16.570312 12.726562 -13.78125 14.59375 -11.6875 C 16.457031 -9.59375 18.890625 -8.546875 21.890625 -8.546875 C 23.753906 -8.546875 25.414062 -8.984375 26.875 -9.859375 C 28.34375 -10.734375 29.476562 -12.007812 30.28125 -13.6875 L 41 -13.6875 C 39.851562 -9.351562 37.585938 -5.941406 34.203125 -3.453125 C 30.828125 -0.960938 26.765625 0.28125 22.015625 0.28125 C 18.128906 0.28125 14.65625 -0.582031 11.59375 -2.3125 C 8.539062 -4.039062 6.15625 -6.441406 4.4375 -9.515625 C 2.726562 -12.597656 1.875 -16.113281 1.875 -20.0625 Z M 1.875 -20.0625 "/></g></g></g><g fill="#00425c" fill-opacity="1"><g transform="translate(255.73984, 528.570929)"><g><path d="M 28.453125 -7.0625 L 13.515625 -7.0625 L 11.125 0 L 0.90625 0 L 15.390625 -40.03125 L 26.6875 -40.03125 L 41.171875 0 L 30.84375 0 Z M 25.9375 -14.59375 L 20.984375 -29.25 L 16.078125 -14.59375 Z M 25.9375 -14.59375 "/></g></g></g><g fill="#00425c" fill-opacity="1"><g transform="translate(297.757519, 528.570929)"><g><path d="M 23.953125 0 L 15.625 -15.109375 L 13.28125 -15.109375 L 13.28125 0 L 3.53125 0 L 3.53125 -40.03125 L 19.90625 -40.03125 C 23.050781 -40.03125 25.734375 -39.476562 27.953125 -38.375 C 30.179688 -37.269531 31.847656 -35.753906 32.953125 -33.828125 C 34.054688 -31.910156 34.609375 -29.773438 34.609375 -27.421875 C 34.609375 -24.765625 33.859375 -22.390625 32.359375 -20.296875 C 30.859375 -18.203125 28.644531 -16.71875 25.71875 -15.84375 L 34.953125 0 Z M 13.28125 -22.015625 L 19.328125 -22.015625 C 21.117188 -22.015625 22.457031 -22.445312 23.34375 -23.3125 C 24.238281 -24.1875 24.6875 -25.425781 24.6875 -27.03125 C 24.6875 -28.550781 24.238281 -29.742188 23.34375 -30.609375 C 22.457031 -31.484375 21.117188 -31.921875 19.328125 -31.921875 L 13.28125 -31.921875 Z M 13.28125 -22.015625 "/></g></g></g><g fill="#00425c" fill-opacity="1"><g transform="translate(334.929198, 528.570929)"><g><path d="M 39.34375 0 L 29.59375 0 L 13.28125 -24.6875 L 13.28125 0 L 3.53125 0 L 3.53125 -40.03125 L 13.28125 -40.03125 L 29.59375 -15.21875 L 29.59375 -40.03125 L 39.34375 -40.03125 Z M 39.34375 0 "/></g></g></g><g fill="#00425c" fill-opacity="1"><g transform="translate(377.802059, 528.570929)"><g><path d="M 13.28125 -32.21875 L 13.28125 -24.125 L 26.34375 -24.125 L 26.34375 -16.59375 L 13.28125 -16.59375 L 13.28125 -7.8125 L 28.046875 -7.8125 L 28.046875 0 L 3.53125 0 L 3.53125 -40.03125 L 28.046875 -40.03125 L 28.046875 -32.21875 Z M 13.28125 -32.21875 "/></g></g></g><g fill="#00425c" fill-opacity="1"><g transform="translate(408.64543, 528.570929)"><g/></g></g><g fill="#00425c" fill-opacity="1"><g transform="translate(420.731923, 528.570929)"><g><path d="M 18.015625 0.40625 C 15.085938 0.40625 12.460938 -0.0664062 10.140625 -1.015625 C 7.828125 -1.972656 5.976562 -3.382812 4.59375 -5.25 C 3.207031 -7.113281 2.472656 -9.351562 2.390625 -11.96875 L 12.765625 -11.96875 C 12.921875 -10.488281 13.4375 -9.359375 14.3125 -8.578125 C 15.1875 -7.796875 16.328125 -7.40625 17.734375 -7.40625 C 19.179688 -7.40625 20.320312 -7.738281 21.15625 -8.40625 C 21.988281 -9.070312 22.40625 -9.992188 22.40625 -11.171875 C 22.40625 -12.160156 22.070312 -12.976562 21.40625 -13.625 C 20.738281 -14.269531 19.921875 -14.800781 18.953125 -15.21875 C 17.984375 -15.632812 16.609375 -16.113281 14.828125 -16.65625 C 12.242188 -17.445312 10.132812 -18.238281 8.5 -19.03125 C 6.863281 -19.832031 5.457031 -21.015625 4.28125 -22.578125 C 3.101562 -24.140625 2.515625 -26.171875 2.515625 -28.671875 C 2.515625 -32.398438 3.863281 -35.316406 6.5625 -37.421875 C 9.257812 -39.535156 12.773438 -40.59375 17.109375 -40.59375 C 21.515625 -40.59375 25.066406 -39.535156 27.765625 -37.421875 C 30.460938 -35.316406 31.90625 -32.382812 32.09375 -28.625 L 21.546875 -28.625 C 21.472656 -29.914062 21 -30.929688 20.125 -31.671875 C 19.25 -32.410156 18.128906 -32.78125 16.765625 -32.78125 C 15.585938 -32.78125 14.632812 -32.46875 13.90625 -31.84375 C 13.1875 -31.21875 12.828125 -30.316406 12.828125 -29.140625 C 12.828125 -27.847656 13.4375 -26.835938 14.65625 -26.109375 C 15.875 -25.390625 17.773438 -24.613281 20.359375 -23.78125 C 22.941406 -22.90625 25.039062 -22.066406 26.65625 -21.265625 C 28.269531 -20.460938 29.664062 -19.300781 30.84375 -17.78125 C 32.019531 -16.269531 32.609375 -14.316406 32.609375 -11.921875 C 32.609375 -9.640625 32.03125 -7.566406 30.875 -5.703125 C 29.71875 -3.835938 28.035156 -2.351562 25.828125 -1.25 C 23.617188 -0.144531 21.015625 0.40625 18.015625 0.40625 Z M 18.015625 0.40625 "/></g></g></g><g fill="#00425c" fill-opacity="1"><g transform="translate(455.79417, 528.570929)"><g><path d="M 13.109375 -40.03125 L 13.109375 -16.078125 C 13.109375 -13.679688 13.695312 -11.835938 14.875 -10.546875 C 16.0625 -9.253906 17.789062 -8.609375 20.0625 -8.609375 C 22.34375 -8.609375 24.09375 -9.253906 25.3125 -10.546875 C 26.53125 -11.835938 27.140625 -13.679688 27.140625 -16.078125 L 27.140625 -40.03125 L 36.890625 -40.03125 L 36.890625 -16.140625 C 36.890625 -12.566406 36.128906 -9.539062 34.609375 -7.0625 C 33.085938 -4.59375 31.039062 -2.726562 28.46875 -1.46875 C 25.90625 -0.21875 23.050781 0.40625 19.90625 0.40625 C 16.75 0.40625 13.925781 -0.210938 11.4375 -1.453125 C 8.945312 -2.691406 6.976562 -4.554688 5.53125 -7.046875 C 4.082031 -9.535156 3.359375 -12.566406 3.359375 -16.140625 L 3.359375 -40.03125 Z M 13.109375 -40.03125 "/></g></g></g><g fill="#00425c" fill-opacity="1"><g transform="translate(495.987466, 528.570929)"><g><path d="M 13.28125 -40.03125 L 13.28125 0 L 3.53125 0 L 3.53125 -40.03125 Z M 15.046875 -48.0625 L 1.296875 -42.3125 L 1.296875 -49.03125 L 15.046875 -55.65625 Z M 15.046875 -48.0625 "/></g></g></g><g fill="#00425c" fill-opacity="1"><g transform="translate(512.805931, 528.570929)"><g><path d="M 39.34375 0 L 29.59375 0 L 13.28125 -24.6875 L 13.28125 0 L 3.53125 0 L 3.53125 -40.03125 L 13.28125 -40.03125 L 29.59375 -15.21875 L 29.59375 -40.03125 L 39.34375 -40.03125 Z M 39.34375 0 "/></g></g></g><g fill="#00425c" fill-opacity="1"><g transform="translate(555.678793, 528.570929)"><g><path d="M 28.453125 -7.0625 L 13.515625 -7.0625 L 11.125 0 L 0.90625 0 L 15.390625 -40.03125 L 26.6875 -40.03125 L 41.171875 0 L 30.84375 0 Z M 25.9375 -14.59375 L 20.984375 -29.25 L 16.078125 -14.59375 Z M 25.9375 -14.59375 "/></g></g></g><g fill="#00425c" fill-opacity="1"><g transform="translate(340.804678, 608.070925)"><g><path d="M 2.171875 -36.484375 L 2.171875 -41.21875 L 12.890625 -41.21875 L 12.890625 0 L 7.640625 0 L 7.640625 -36.484375 Z M 2.171875 -36.484375 "/></g></g></g><g fill="#00425c" fill-opacity="1"><g transform="translate(359.048447, 608.070925)"><g><path d="M 3.53125 -21.03125 C 3.53125 -27.570312 4.59375 -32.675781 6.71875 -36.34375 C 8.851562 -40.007812 12.582031 -41.84375 17.90625 -41.84375 C 23.1875 -41.84375 26.890625 -40.007812 29.015625 -36.34375 C 31.148438 -32.675781 32.21875 -27.570312 32.21875 -21.03125 C 32.21875 -14.382812 31.148438 -9.21875 29.015625 -5.53125 C 26.890625 -1.84375 23.1875 0 17.90625 0 C 12.582031 0 8.851562 -1.84375 6.71875 -5.53125 C 4.59375 -9.21875 3.53125 -14.382812 3.53125 -21.03125 Z M 27.078125 -21.03125 C 27.078125 -24.34375 26.859375 -27.144531 26.421875 -29.4375 C 25.984375 -31.738281 25.085938 -33.59375 23.734375 -35 C 22.390625 -36.414062 20.445312 -37.125 17.90625 -37.125 C 15.320312 -37.125 13.351562 -36.414062 12 -35 C 10.65625 -33.59375 9.765625 -31.738281 9.328125 -29.4375 C 8.890625 -27.144531 8.671875 -24.34375 8.671875 -21.03125 C 8.671875 -17.613281 8.890625 -14.742188 9.328125 -12.421875 C 9.765625 -10.109375 10.65625 -8.25 12 -6.84375 C 13.351562 -5.4375 15.320312 -4.734375 17.90625 -4.734375 C 20.445312 -4.734375 22.390625 -5.4375 23.734375 -6.84375 C 25.085938 -8.25 25.984375 -10.109375 26.421875 -12.421875 C 26.859375 -14.742188 27.078125 -17.613281 27.078125 -21.03125 Z M 27.078125 -21.03125 "/></g></g></g><g fill="#00425c" fill-opacity="1"><g transform="translate(394.851847, 608.070925)"><g><path d="M 3.53125 -21.03125 C 3.53125 -27.570312 4.59375 -32.675781 6.71875 -36.34375 C 8.851562 -40.007812 12.582031 -41.84375 17.90625 -41.84375 C 23.1875 -41.84375 26.890625 -40.007812 29.015625 -36.34375 C 31.148438 -32.675781 32.21875 -27.570312 32.21875 -21.03125 C 32.21875 -14.382812 31.148438 -9.21875 29.015625 -5.53125 C 26.890625 -1.84375 23.1875 0 17.90625 0 C 12.582031 0 8.851562 -1.84375 6.71875 -5.53125 C 4.59375 -9.21875 3.53125 -14.382812 3.53125 -21.03125 Z M 27.078125 -21.03125 C 27.078125 -24.34375 26.859375 -27.144531 26.421875 -29.4375 C 25.984375 -31.738281 25.085938 -33.59375 23.734375 -35 C 22.390625 -36.414062 20.445312 -37.125 17.90625 -37.125 C 15.320312 -37.125 13.351562 -36.414062 12 -35 C 10.65625 -33.59375 9.765625 -31.738281 9.328125 -29.4375 C 8.890625 -27.144531 8.671875 -24.34375 8.671875 -21.03125 C 8.671875 -17.613281 8.890625 -14.742188 9.328125 -12.421875 C 9.765625 -10.109375 10.65625 -8.25 12 -6.84375 C 13.351562 -5.4375 15.320312 -4.734375 17.90625 -4.734375 C 20.445312 -4.734375 22.390625 -5.4375 23.734375 -6.84375 C 25.085938 -8.25 25.984375 -10.109375 26.421875 -12.421875 C 26.859375 -14.742188 27.078125 -17.613281 27.078125 -21.03125 Z M 27.078125 -21.03125 "/></g></g></g><g fill="#00425c" fill-opacity="1"><g transform="translate(430.655247, 608.070925)"><g><path d="M 17.28125 -31.75 C 19.976562 -31.75 22.34375 -31.160156 24.375 -29.984375 C 26.40625 -28.804688 27.914062 -27.328125 28.90625 -25.546875 L 28.90625 -31.25 L 34.15625 -31.25 L 34.15625 0.6875 C 34.15625 3.53125 33.546875 6.0625 32.328125 8.28125 C 31.109375 10.507812 29.367188 12.25 27.109375 13.5 C 24.847656 14.757812 22.21875 15.390625 19.21875 15.390625 C 15.113281 15.390625 11.691406 14.421875 8.953125 12.484375 C 6.210938 10.546875 4.597656 7.90625 4.109375 4.5625 L 9.234375 4.5625 C 9.804688 6.457031 10.984375 7.984375 12.765625 9.140625 C 14.554688 10.304688 16.707031 10.890625 19.21875 10.890625 C 22.0625 10.890625 24.382812 9.992188 26.1875 8.203125 C 28 6.421875 28.90625 3.914062 28.90625 0.6875 L 28.90625 -5.875 C 27.882812 -4.050781 26.363281 -2.53125 24.34375 -1.3125 C 22.332031 -0.09375 19.976562 0.515625 17.28125 0.515625 C 14.5 0.515625 11.976562 -0.164062 9.71875 -1.53125 C 7.457031 -2.90625 5.679688 -4.828125 4.390625 -7.296875 C 3.097656 -9.765625 2.453125 -12.578125 2.453125 -15.734375 C 2.453125 -18.929688 3.097656 -21.734375 4.390625 -24.140625 C 5.679688 -26.554688 7.457031 -28.425781 9.71875 -29.75 C 11.976562 -31.082031 14.5 -31.75 17.28125 -31.75 Z M 28.90625 -15.671875 C 28.90625 -18.035156 28.429688 -20.085938 27.484375 -21.828125 C 26.535156 -23.578125 25.25 -24.914062 23.625 -25.84375 C 22.007812 -26.78125 20.234375 -27.25 18.296875 -27.25 C 16.359375 -27.25 14.59375 -26.789062 13 -25.875 C 11.40625 -24.96875 10.128906 -23.640625 9.171875 -21.890625 C 8.222656 -20.140625 7.75 -18.085938 7.75 -15.734375 C 7.75 -13.335938 8.222656 -11.253906 9.171875 -9.484375 C 10.128906 -7.722656 11.40625 -6.375 13 -5.4375 C 14.59375 -4.507812 16.359375 -4.046875 18.296875 -4.046875 C 20.234375 -4.046875 22.007812 -4.507812 23.625 -5.4375 C 25.25 -6.375 26.535156 -7.722656 27.484375 -9.484375 C 28.429688 -11.253906 28.90625 -13.316406 28.90625 -15.671875 Z M 28.90625 -15.671875 "/></g></g></g><g fill="#00425c" fill-opacity="1"><g transform="translate(221.496087, 687.570921)"><g><path d="M 2.21875 -7.8125 C 3.507812 -8.832031 4.097656 -9.304688 3.984375 -9.234375 C 7.710938 -12.316406 10.648438 -14.84375 12.796875 -16.8125 C 14.941406 -18.789062 16.753906 -20.863281 18.234375 -23.03125 C 19.722656 -25.195312 20.46875 -27.304688 20.46875 -29.359375 C 20.46875 -30.921875 20.101562 -32.140625 19.375 -33.015625 C 18.65625 -33.890625 17.578125 -34.328125 16.140625 -34.328125 C 14.691406 -34.328125 13.554688 -33.785156 12.734375 -32.703125 C 11.921875 -31.617188 11.515625 -30.085938 11.515625 -28.109375 L 2.109375 -28.109375 C 2.179688 -31.335938 2.875 -34.035156 4.1875 -36.203125 C 5.5 -38.367188 7.226562 -39.960938 9.375 -40.984375 C 11.519531 -42.015625 13.90625 -42.53125 16.53125 -42.53125 C 21.050781 -42.53125 24.460938 -41.367188 26.765625 -39.046875 C 29.066406 -36.734375 30.21875 -33.710938 30.21875 -29.984375 C 30.21875 -25.921875 28.828125 -22.148438 26.046875 -18.671875 C 23.273438 -15.191406 19.742188 -11.800781 15.453125 -8.5 L 30.84375 -8.5 L 30.84375 -0.5625 L 2.21875 -0.5625 Z M 2.21875 -7.8125 "/></g></g></g><g fill="#00425c" fill-opacity="1"><g transform="translate(254.049811, 687.570921)"><g><path d="M 29.140625 -34.328125 L 14.828125 0 L 4.84375 0 L 19.328125 -33.234375 L 1.59375 -33.234375 L 1.59375 -41.5625 L 29.140625 -41.5625 Z M 29.140625 -34.328125 "/></g></g></g><g fill="#00425c" fill-opacity="1"><g transform="translate(284.551118, 687.570921)"><g><path d="M 15.625 -32.265625 C 17.863281 -32.265625 19.828125 -31.804688 21.515625 -30.890625 C 23.210938 -29.984375 24.515625 -28.789062 25.421875 -27.3125 L 25.421875 -31.8125 L 35.171875 -31.8125 L 35.171875 -0.0625 C 35.171875 2.863281 34.59375 5.515625 33.4375 7.890625 C 32.28125 10.265625 30.515625 12.15625 28.140625 13.5625 C 25.765625 14.96875 22.804688 15.671875 19.265625 15.671875 C 14.554688 15.671875 10.738281 14.5625 7.8125 12.34375 C 4.882812 10.125 3.210938 7.113281 2.796875 3.3125 L 12.421875 3.3125 C 12.734375 4.519531 13.457031 5.472656 14.59375 6.171875 C 15.738281 6.878906 17.144531 7.234375 18.8125 7.234375 C 20.832031 7.234375 22.4375 6.65625 23.625 5.5 C 24.820312 4.34375 25.421875 2.488281 25.421875 -0.0625 L 25.421875 -4.5625 C 24.472656 -3.082031 23.160156 -1.875 21.484375 -0.9375 C 19.816406 -0.0078125 17.863281 0.453125 15.625 0.453125 C 13 0.453125 10.617188 -0.21875 8.484375 -1.5625 C 6.359375 -2.914062 4.675781 -4.835938 3.4375 -7.328125 C 2.207031 -9.816406 1.59375 -12.695312 1.59375 -15.96875 C 1.59375 -19.238281 2.207031 -22.109375 3.4375 -24.578125 C 4.675781 -27.046875 6.359375 -28.941406 8.484375 -30.265625 C 10.617188 -31.597656 13 -32.265625 15.625 -32.265625 Z M 25.421875 -15.90625 C 25.421875 -18.34375 24.742188 -20.265625 23.390625 -21.671875 C 22.046875 -23.078125 20.40625 -23.78125 18.46875 -23.78125 C 16.53125 -23.78125 14.882812 -23.082031 13.53125 -21.6875 C 12.1875 -20.300781 11.515625 -18.394531 11.515625 -15.96875 C 11.515625 -13.53125 12.1875 -11.597656 13.53125 -10.171875 C 14.882812 -8.753906 16.53125 -8.046875 18.46875 -8.046875 C 20.40625 -8.046875 22.046875 -8.75 23.390625 -10.15625 C 24.742188 -11.5625 25.421875 -13.476562 25.421875 -15.90625 Z M 25.421875 -15.90625 "/></g></g></g><g fill="#00425c" fill-opacity="1"><g transform="translate(323.262118, 687.570921)"><g/></g></g><g fill="#00425c" fill-opacity="1"><g transform="translate(335.348612, 687.570921)"><g><path d="M 13.28125 -27.3125 C 14.226562 -28.789062 15.539062 -29.984375 17.21875 -30.890625 C 18.894531 -31.804688 20.851562 -32.265625 23.09375 -32.265625 C 25.71875 -32.265625 28.09375 -31.597656 30.21875 -30.265625 C 32.34375 -28.941406 34.023438 -27.046875 35.265625 -24.578125 C 36.503906 -22.109375 37.125 -19.238281 37.125 -15.96875 C 37.125 -12.695312 36.503906 -9.816406 35.265625 -7.328125 C 34.023438 -4.835938 32.34375 -2.914062 30.21875 -1.5625 C 28.09375 -0.21875 25.71875 0.453125 23.09375 0.453125 C 20.882812 0.453125 18.929688 0 17.234375 -0.90625 C 15.546875 -1.820312 14.226562 -3.003906 13.28125 -4.453125 L 13.28125 15.171875 L 3.53125 15.171875 L 3.53125 -31.8125 L 13.28125 -31.8125 Z M 27.203125 -15.96875 C 27.203125 -18.394531 26.523438 -20.300781 25.171875 -21.6875 C 23.816406 -23.082031 22.15625 -23.78125 20.1875 -23.78125 C 18.25 -23.78125 16.601562 -23.078125 15.25 -21.671875 C 13.90625 -20.265625 13.234375 -18.34375 13.234375 -15.90625 C 13.234375 -13.476562 13.90625 -11.5625 15.25 -10.15625 C 16.601562 -8.75 18.25 -8.046875 20.1875 -8.046875 C 22.125 -8.046875 23.773438 -8.753906 25.140625 -10.171875 C 26.515625 -11.597656 27.203125 -13.53125 27.203125 -15.96875 Z M 27.203125 -15.96875 "/></g></g></g><g fill="#00425c" fill-opacity="1"><g transform="translate(374.059613, 687.570921)"><g><path d="M 13.28125 -26.515625 C 14.425781 -28.265625 15.851562 -29.640625 17.5625 -30.640625 C 19.269531 -31.648438 21.171875 -32.15625 23.265625 -32.15625 L 23.265625 -21.84375 L 20.578125 -21.84375 C 18.148438 -21.84375 16.328125 -21.316406 15.109375 -20.265625 C 13.890625 -19.222656 13.28125 -17.390625 13.28125 -14.765625 L 13.28125 0 L 3.53125 0 L 3.53125 -31.8125 L 13.28125 -31.8125 Z M 13.28125 -26.515625 "/></g></g></g><g fill="#00425c" fill-opacity="1"><g transform="translate(398.460658, 687.570921)"><g><path d="M 18.015625 0.453125 C 14.898438 0.453125 12.097656 -0.207031 9.609375 -1.53125 C 7.117188 -2.863281 5.160156 -4.765625 3.734375 -7.234375 C 2.304688 -9.710938 1.59375 -12.601562 1.59375 -15.90625 C 1.59375 -19.175781 2.3125 -22.054688 3.75 -24.546875 C 5.195312 -27.035156 7.175781 -28.941406 9.6875 -30.265625 C 12.195312 -31.597656 15.007812 -32.265625 18.125 -32.265625 C 21.25 -32.265625 24.0625 -31.597656 26.5625 -30.265625 C 29.070312 -28.941406 31.050781 -27.035156 32.5 -24.546875 C 33.945312 -22.054688 34.671875 -19.175781 34.671875 -15.90625 C 34.671875 -12.632812 33.9375 -9.753906 32.46875 -7.265625 C 31.007812 -4.773438 29.015625 -2.863281 26.484375 -1.53125 C 23.953125 -0.207031 21.128906 0.453125 18.015625 0.453125 Z M 18.015625 -7.984375 C 19.878906 -7.984375 21.46875 -8.664062 22.78125 -10.03125 C 24.09375 -11.40625 24.75 -13.363281 24.75 -15.90625 C 24.75 -18.457031 24.109375 -20.414062 22.828125 -21.78125 C 21.554688 -23.144531 19.988281 -23.828125 18.125 -23.828125 C 16.226562 -23.828125 14.648438 -23.148438 13.390625 -21.796875 C 12.140625 -20.453125 11.515625 -18.488281 11.515625 -15.90625 C 11.515625 -13.363281 12.128906 -11.40625 13.359375 -10.03125 C 14.597656 -8.664062 16.148438 -7.984375 18.015625 -7.984375 Z M 18.015625 -7.984375 "/></g></g></g><g fill="#00425c" fill-opacity="1"><g transform="translate(434.777165, 687.570921)"><g><path d="M 21.265625 -8.265625 L 21.265625 0 L 16.3125 0 C 12.769531 0 10.007812 -0.863281 8.03125 -2.59375 C 6.0625 -4.320312 5.078125 -7.144531 5.078125 -11.0625 L 5.078125 -23.71875 L 1.203125 -23.71875 L 1.203125 -31.8125 L 5.078125 -31.8125 L 5.078125 -39.5625 L 14.828125 -39.5625 L 14.828125 -31.8125 L 21.203125 -31.8125 L 21.203125 -23.71875 L 14.828125 -23.71875 L 14.828125 -10.953125 C 14.828125 -9.992188 15.050781 -9.304688 15.5 -8.890625 C 15.957031 -8.472656 16.71875 -8.265625 17.78125 -8.265625 Z M 21.265625 -8.265625 "/></g></g></g><g fill="#00425c" fill-opacity="1"><g transform="translate(457.923961, 687.570921)"><g><path d="M 33.53125 -16.421875 C 33.53125 -15.503906 33.472656 -14.550781 33.359375 -13.5625 L 11.296875 -13.5625 C 11.441406 -11.59375 12.070312 -10.082031 13.1875 -9.03125 C 14.3125 -7.988281 15.691406 -7.46875 17.328125 -7.46875 C 19.765625 -7.46875 21.457031 -8.492188 22.40625 -10.546875 L 32.78125 -10.546875 C 32.25 -8.453125 31.289062 -6.566406 29.90625 -4.890625 C 28.519531 -3.222656 26.78125 -1.914062 24.6875 -0.96875 C 22.59375 -0.0195312 20.253906 0.453125 17.671875 0.453125 C 14.554688 0.453125 11.78125 -0.207031 9.34375 -1.53125 C 6.914062 -2.863281 5.015625 -4.765625 3.640625 -7.234375 C 2.273438 -9.710938 1.59375 -12.601562 1.59375 -15.90625 C 1.59375 -19.21875 2.265625 -22.109375 3.609375 -24.578125 C 4.960938 -27.046875 6.851562 -28.941406 9.28125 -30.265625 C 11.71875 -31.597656 14.515625 -32.265625 17.671875 -32.265625 C 20.753906 -32.265625 23.492188 -31.617188 25.890625 -30.328125 C 28.285156 -29.035156 30.15625 -27.191406 31.5 -24.796875 C 32.851562 -22.398438 33.53125 -19.609375 33.53125 -16.421875 Z M 23.546875 -18.984375 C 23.546875 -20.660156 22.972656 -21.988281 21.828125 -22.96875 C 20.691406 -23.957031 19.269531 -24.453125 17.5625 -24.453125 C 15.925781 -24.453125 14.546875 -23.976562 13.421875 -23.03125 C 12.304688 -22.082031 11.613281 -20.734375 11.34375 -18.984375 Z M 23.546875 -18.984375 "/></g></g></g><g fill="#00425c" fill-opacity="1"><g transform="translate(493.043222, 687.570921)"><g><path d="M 14.03125 -31.8125 L 14.03125 0 L 4.28125 0 L 4.28125 -31.8125 Z M 15.796875 -39.734375 L 2.046875 -33.984375 L 2.046875 -40.703125 L 15.796875 -47.328125 Z M 15.796875 -39.734375 "/></g></g></g><g fill="#00425c" fill-opacity="1"><g transform="translate(511.344018, 687.570921)"><g><path d="M 22.921875 -32.15625 C 26.648438 -32.15625 29.625 -30.945312 31.84375 -28.53125 C 34.0625 -26.125 35.171875 -22.8125 35.171875 -18.59375 L 35.171875 0 L 25.484375 0 L 25.484375 -17.28125 C 25.484375 -19.40625 24.929688 -21.054688 23.828125 -22.234375 C 22.722656 -23.410156 21.242188 -24 19.390625 -24 C 17.523438 -24 16.039062 -23.410156 14.9375 -22.234375 C 13.832031 -21.054688 13.28125 -19.40625 13.28125 -17.28125 L 13.28125 0 L 3.53125 0 L 3.53125 -31.8125 L 13.28125 -31.8125 L 13.28125 -27.59375 C 14.269531 -29 15.597656 -30.109375 17.265625 -30.921875 C 18.941406 -31.742188 20.828125 -32.15625 22.921875 -32.15625 Z M 22.921875 -32.15625 "/></g></g></g><g fill="#00425c" fill-opacity="1"><g transform="translate(549.769958, 687.570921)"><g><path d="M 1.59375 -15.96875 C 1.59375 -19.238281 2.207031 -22.109375 3.4375 -24.578125 C 4.675781 -27.046875 6.359375 -28.941406 8.484375 -30.265625 C 10.617188 -31.597656 13 -32.265625 15.625 -32.265625 C 17.863281 -32.265625 19.828125 -31.804688 21.515625 -30.890625 C 23.210938 -29.984375 24.515625 -28.789062 25.421875 -27.3125 L 25.421875 -31.8125 L 35.171875 -31.8125 L 35.171875 0 L 25.421875 0 L 25.421875 -4.5 C 24.472656 -3.019531 23.148438 -1.820312 21.453125 -0.90625 C 19.765625 0 17.800781 0.453125 15.5625 0.453125 C 12.976562 0.453125 10.617188 -0.21875 8.484375 -1.5625 C 6.359375 -2.914062 4.675781 -4.835938 3.4375 -7.328125 C 2.207031 -9.816406 1.59375 -12.695312 1.59375 -15.96875 Z M 25.421875 -15.90625 C 25.421875 -18.34375 24.742188 -20.265625 23.390625 -21.671875 C 22.046875 -23.078125 20.40625 -23.78125 18.46875 -23.78125 C 16.53125 -23.78125 14.882812 -23.082031 13.53125 -21.6875 C 12.1875 -20.300781 11.515625 -18.394531 11.515625 -15.96875 C 11.515625 -13.53125 12.1875 -11.597656 13.53125 -10.171875 C 14.882812 -8.753906 16.53125 -8.046875 18.46875 -8.046875 C 20.40625 -8.046875 22.046875 -8.75 23.390625 -10.15625 C 24.742188 -11.5625 25.421875 -13.476562 25.421875 -15.90625 Z M 25.421875 -15.90625 "/></g></g></g></svg>