<svg xmlns="http://www.w3.org/2000/svg" xmlns:xlink="http://www.w3.org/1999/xlink" width="1080" zoomAndPan="magnify" viewBox="0 0 810 809.999993" height="1080" preserveAspectRatio="xMidYMid meet" version="1.0"><defs><g/><clipPath id="2e482069d1"><path d="M 82.347656 0.00390625 L 727.347656 0.00390625 L 727.347656 810 L 82.347656 810 Z M 82.347656 0.00390625 " clip-rule="nonzero"/></clipPath><clipPath id="80b27f249e"><path d="M 119.847656 0.00390625 L 690.140625 0.00390625 C 700.089844 0.00390625 709.625 3.957031 716.660156 10.988281 C 723.691406 18.023438 727.640625 27.558594 727.640625 37.503906 L 727.640625 772.496094 C 727.640625 782.441406 723.691406 791.976562 716.660156 799.011719 C 709.625 806.042969 700.089844 809.996094 690.140625 809.996094 L 119.847656 809.996094 C 109.902344 809.996094 100.363281 806.042969 93.332031 799.011719 C 86.300781 791.976562 82.347656 782.441406 82.347656 772.496094 L 82.347656 37.503906 C 82.347656 27.558594 86.300781 18.023438 93.332031 10.988281 C 100.363281 3.957031 109.902344 0.00390625 119.847656 0.00390625 Z M 119.847656 0.00390625 " clip-rule="nonzero"/></clipPath><clipPath id="c51476cef1"><path d="M 241.253906 135.558594 L 565 135.558594 L 565 351.558594 L 241.253906 351.558594 Z M 241.253906 135.558594 " clip-rule="nonzero"/></clipPath></defs><g clip-path="url(#2e482069d1)"><g clip-path="url(#80b27f249e)"><path stroke-linecap="butt" transform="matrix(0.75, 0, 0, 0.75, 82.349025, 0.00567356)" fill="none" stroke-linejoin="miter" d="M 49.998178 -0.00235641 L 810.388841 -0.00235641 C 823.654466 -0.00235641 836.368009 5.268477 845.748218 14.643478 C 855.123218 24.023686 860.388843 36.737229 860.388843 49.997646 L 860.388843 1029.987279 C 860.388843 1043.247696 855.123218 1055.966447 845.748218 1065.341447 C 836.368009 1074.716448 823.654466 1079.987281 810.388841 1079.987281 L 49.998178 1079.987281 C 36.73776 1079.987281 24.01901 1074.716448 14.644009 1065.341447 C 5.269009 1055.966447 -0.00182494 1043.247696 -0.00182494 1029.987279 L -0.00182494 49.997646 C -0.00182494 36.737229 5.269009 24.023686 14.644009 14.643478 C 24.01901 5.268477 36.73776 -0.00235641 49.998178 -0.00235641 Z M 49.998178 -0.00235641 " stroke="#00425c" stroke-width="8" stroke-opacity="1" stroke-miterlimit="4"/></g></g><g clip-path="url(#c51476cef1)"><path fill="#00425c" d="M 538.214844 206.648438 C 544.640625 202.894531 554.207031 198.195312 558.527344 191.328125 C 550.371094 192.925781 542.148438 194.179688 533.894531 195.292969 C 532.992188 199.296875 531.402344 202.316406 529.996094 204.691406 C 528.398438 207.289062 526.945312 209.171875 525.726562 210.527344 C 525.117188 211.179688 524.589844 211.746094 524.136719 212.1875 C 523.644531 212.617188 523.253906 212.925781 522.917969 213.175781 C 522.277344 213.648438 521.929688 213.785156 521.816406 213.648438 C 521.699219 213.535156 521.816406 213.175781 522.234375 212.515625 C 522.445312 212.1875 522.730469 211.777344 523.085938 211.285156 C 523.433594 210.746094 523.84375 210.136719 524.359375 209.433594 C 525.347656 208.003906 526.597656 206.089844 528.019531 203.554688 C 529.152344 201.441406 530.414062 198.804688 531.246094 195.660156 C 524.800781 196.511719 518.34375 197.3125 511.902344 198.132812 C 507.484375 211.871094 502.984375 220.460938 499.359375 225.203125 C 495.6875 230.0625 493.28125 230.953125 493.1875 230.753906 C 492.902344 230.398438 494.785156 229.105469 497.929688 224.195312 C 500.964844 219.535156 504.949219 211.429688 509.1875 198.5 C 506.675781 198.804688 504.195312 199.152344 501.679688 199.496094 C 499.863281 205.796875 497.234375 211.230469 494.40625 215.878906 C 491.503906 220.609375 488.402344 224.574219 485.289062 227.84375 C 479.128906 234.445312 473.167969 238.378906 468.457031 240.890625 C 467.859375 241.195312 467.28125 241.511719 466.742188 241.792969 C 466.164062 242.035156 465.617188 242.289062 465.105469 242.5 C 464.050781 242.929688 463.117188 243.394531 462.210938 243.6875 C 460.414062 244.234375 458.996094 244.789062 457.828125 244.96875 C 455.515625 245.453125 454.515625 245.546875 454.464844 245.371094 C 454.433594 245.199219 455.367188 244.789062 457.542969 244.054688 C 458.648438 243.71875 459.984375 243.054688 461.699219 242.40625 C 462.558594 242.058594 463.433594 241.542969 464.429688 241.078125 C 464.925781 240.835938 465.441406 240.574219 465.988281 240.3125 C 466.492188 240.019531 467.039062 239.679688 467.59375 239.355469 C 472.0625 236.714844 477.75 232.785156 483.609375 226.285156 C 486.574219 223.082031 489.558594 219.199219 492.324219 214.605469 C 494.867188 210.378906 497.222656 205.46875 498.949219 199.898438 C 496.875 200.191406 494.785156 200.507812 492.703125 200.832031 C 488.664062 210.328125 483.890625 217.457031 479.421875 222.910156 C 474.796875 228.496094 469.980469 232.101562 465.753906 233.542969 C 461.527344 234.941406 458.417969 234.875 456.523438 234.730469 C 454.632812 234.476562 453.855469 234.191406 453.855469 234.046875 C 453.875 233.867188 454.714844 233.816406 456.546875 233.75 C 458.363281 233.625 461.308594 233.40625 465.125 231.890625 C 468.929688 230.398438 473.253906 226.949219 477.667969 221.449219 C 481.664062 216.402344 486.035156 209.78125 489.789062 201.316406 C 487.613281 201.652344 485.457031 202.050781 483.28125 202.453125 C 479.9375 208.992188 476.300781 214.101562 472.441406 217.507812 C 468.519531 221.105469 464.453125 222.742188 461.351562 223.3125 C 458.207031 223.835938 456 223.574219 454.675781 223.257812 C 453.328125 222.921875 452.804688 222.679688 452.835938 222.511719 C 452.867188 222.355469 453.464844 222.269531 454.78125 222.300781 C 456.082031 222.324219 458.15625 222.292969 460.972656 221.597656 C 463.757812 220.871094 467.332031 219.253906 470.898438 215.824219 C 474.09375 212.882812 477.207031 208.5625 480.179688 203.019531 C 478.371094 203.386719 476.574219 203.746094 474.765625 204.144531 C 462.832031 206.730469 451.5625 211.242188 440.828125 216.886719 L 441.089844 216.867188 C 441.859375 228.230469 440.132812 238.609375 437.664062 247.671875 C 437 249.953125 436.359375 252.160156 435.613281 254.253906 C 434.910156 256.34375 434.203125 258.394531 433.4375 260.414062 C 431.890625 264.378906 430.136719 268.152344 427.507812 271.234375 C 426.800781 271.949219 426.109375 272.683594 425.402344 273.324219 C 424.648438 273.925781 423.933594 274.566406 423.164062 275.058594 C 421.640625 276.113281 420.117188 277.035156 418.582031 277.824219 C 415.53125 279.445312 412.554688 280.707031 409.6875 281.683594 C 403.957031 283.640625 398.742188 284.765625 394.148438 285.089844 C 389.605469 285.4375 385.527344 285.109375 382.496094 283.921875 C 380.929688 283.480469 379.617188 282.851562 378.429688 282.347656 C 377.210938 281.863281 376.222656 281.273438 375.347656 280.789062 C 373.570312 279.855469 372.4375 278.960938 371.679688 278.414062 C 370.910156 277.878906 370.605469 277.582031 370.648438 277.5 C 370.703125 277.425781 371.109375 277.59375 371.941406 278.003906 C 372.78125 278.402344 373.980469 279.148438 375.789062 279.917969 C 376.683594 280.328125 377.671875 280.851562 378.871094 281.253906 C 380.078125 281.683594 381.382812 282.242188 382.898438 282.585938 C 385.863281 283.609375 389.5625 283.777344 394 283.367188 C 398.394531 282.914062 403.441406 281.746094 408.992188 279.75 C 411.757812 278.761719 414.636719 277.5 417.539062 275.910156 C 419.011719 275.125 420.460938 274.230469 421.859375 273.230469 C 422.597656 272.769531 423.226562 272.160156 423.933594 271.613281 C 424.5625 271.023438 425.152344 270.382812 425.78125 269.75 C 428.074219 267.015625 429.746094 263.421875 431.21875 259.550781 C 431.953125 257.605469 432.648438 255.589844 433.34375 253.484375 C 434.066406 251.382812 434.699219 249.226562 435.320312 247.03125 C 437.640625 238.429688 439.238281 228.683594 438.660156 218.054688 C 434.972656 220.042969 431.367188 222.175781 427.8125 224.394531 L 428.117188 224.394531 C 428 231.039062 427.582031 237.230469 426.046875 242.730469 C 424.511719 248.1875 421.683594 253.011719 417.6875 255.765625 L 416.984375 256.292969 L 416.203125 256.722656 C 415.699219 256.996094 415.207031 257.300781 414.710938 257.542969 C 413.703125 257.976562 412.734375 258.363281 411.789062 258.785156 C 410.875 259.207031 409.894531 259.46875 408.992188 259.761719 C 408.066406 260.046875 407.195312 260.371094 406.3125 260.570312 C 402.808594 261.445312 399.699219 261.960938 397.015625 262.191406 C 391.625 262.71875 387.921875 262.601562 385.566406 262.507812 C 383.210938 262.390625 382.183594 262.222656 382.183594 262.054688 C 382.183594 261.898438 383.210938 261.707031 385.546875 261.550781 C 387.890625 261.328125 391.558594 261.183594 396.796875 260.457031 C 399.425781 260.121094 402.421875 259.519531 405.765625 258.59375 C 406.605469 258.386719 407.425781 258.039062 408.320312 257.753906 C 409.191406 257.449219 410.097656 257.175781 410.988281 256.753906 C 411.871094 256.355469 412.796875 255.945312 413.734375 255.535156 C 414.1875 255.285156 414.605469 255.019531 415.058594 254.777344 L 415.730469 254.402344 L 416.339844 253.917969 C 419.789062 251.476562 422.269531 247.21875 423.699219 242.089844 C 425.003906 237.292969 425.457031 231.796875 425.605469 225.78125 C 417.152344 231.164062 409.011719 237.085938 401.117188 243.054688 C 396.753906 246.378906 392.191406 249.4375 387.554688 252.425781 C 388.21875 253.265625 389.027344 253.855469 389.960938 254.105469 C 391.320312 254.496094 392.84375 254.378906 394.285156 254.105469 C 397.195312 253.476562 399.804688 252.351562 402.242188 251.46875 C 404.777344 250.5625 406.867188 250.015625 408.644531 249.226562 C 410.410156 248.398438 411.871094 247.578125 412.996094 246.640625 C 415.246094 244.824219 416.457031 243.109375 417.277344 242.058594 C 418.054688 240.984375 418.484375 240.554688 418.644531 240.636719 C 418.789062 240.722656 418.644531 241.300781 418.109375 242.5625 C 417.507812 243.78125 416.488281 245.757812 414.132812 247.964844 C 412.964844 249.089844 411.398438 250.109375 409.519531 251.089844 C 407.644531 252.023438 405.324219 252.71875 403.042969 253.613281 C 400.675781 254.515625 398.058594 255.734375 394.777344 256.472656 C 393.148438 256.808594 391.265625 257.027344 389.257812 256.472656 C 388.765625 256.34375 388.28125 256.082031 387.808594 255.863281 C 387.34375 255.589844 386.914062 255.253906 386.472656 254.925781 C 386.144531 254.546875 385.777344 254.167969 385.460938 253.757812 C 381.078125 256.523438 376.632812 259.207031 372.203125 261.898438 C 372.792969 263.472656 373.425781 264.988281 374.148438 266.398438 C 374.9375 267.890625 375.90625 269.371094 376.945312 270.160156 C 378.050781 270.960938 379.667969 271.371094 381.183594 271.601562 C 382.730469 271.832031 384.296875 271.894531 385.832031 271.894531 C 391.96875 271.800781 397.660156 270.855469 402.484375 269.636719 C 412.242188 267.015625 418.464844 261.78125 422.964844 257.796875 C 425.234375 255.765625 427.085938 254.03125 428.347656 252.390625 C 428.945312 251.53125 429.503906 250.773438 429.882812 250.015625 C 430.324219 249.289062 430.640625 248.617188 430.921875 248.007812 C 432.027344 245.601562 432.449219 244.496094 432.648438 244.558594 C 432.765625 244.589844 432.691406 245.777344 431.808594 248.367188 C 431.597656 249.027344 431.355469 249.765625 430.933594 250.5625 C 430.585938 251.382812 430.0625 252.234375 429.472656 253.191406 C 428.222656 255.050781 426.359375 256.957031 424.152344 259.078125 C 421.914062 261.183594 419.273438 263.640625 415.824219 265.933594 C 412.398438 268.257812 408.171875 270.414062 403.09375 271.832031 C 397.984375 273.179688 392.339844 274.1875 385.839844 274.3125 C 384.230469 274.3125 382.550781 274.269531 380.816406 274.019531 C 379.101562 273.746094 377.273438 273.378906 375.527344 272.179688 C 373.8125 270.84375 372.878906 269.214844 371.953125 267.53125 C 371.226562 266.144531 370.617188 264.695312 370.058594 263.210938 C 367.0625 265.039062 364.097656 266.890625 361.144531 268.785156 C 362.089844 273.230469 363.816406 277.101562 366.023438 280.203125 C 368.367188 283.480469 371.195312 285.867188 373.980469 287.550781 C 376.777344 289.234375 379.53125 290.367188 382.066406 290.945312 C 384.589844 291.617188 386.859375 291.828125 388.835938 291.933594 C 392.800781 292.0625 395.566406 291.703125 397.3125 291.441406 C 399.058594 291.167969 399.84375 291.136719 399.898438 291.304688 C 399.949219 291.472656 399.234375 291.820312 397.511719 292.375 C 395.796875 292.933594 392.980469 293.59375 388.804688 293.679688 C 386.734375 293.691406 384.304688 293.5625 381.59375 292.933594 C 378.871094 292.40625 375.875 291.273438 372.816406 289.503906 C 369.746094 287.730469 366.621094 285.175781 364.066406 281.609375 C 361.785156 278.488281 359.957031 274.617188 358.90625 270.234375 C 357.820312 270.9375 356.726562 271.644531 355.65625 272.367188 C 355.761719 273.777344 355.972656 275.21875 356.191406 276.554688 C 356.464844 278.308594 356.8125 279.980469 357.136719 281.566406 C 357.851562 284.742188 358.609375 287.59375 359.386719 290.117188 C 360.933594 295.164062 362.5625 298.945312 364.128906 301.617188 C 365.695312 304.265625 367.210938 305.71875 368.316406 306.390625 C 369.429688 307.074219 370.058594 307.148438 370.027344 307.367188 C 370.039062 307.484375 369.367188 307.769531 367.90625 307.273438 C 366.464844 306.78125 364.507812 305.277344 362.648438 302.554688 C 360.785156 299.839844 358.925781 295.949219 357.210938 290.808594 C 356.351562 288.246094 355.53125 285.34375 354.785156 282.105469 C 354.40625 280.472656 354.058594 278.761719 353.753906 276.953125 C 353.605469 275.996094 353.4375 275.027344 353.320312 274 C 352.597656 274.492188 351.871094 275.007812 351.144531 275.53125 C 351.242188 278.054688 351.28125 280.496094 351.546875 282.820312 C 351.660156 284.164062 351.777344 285.519531 351.882812 286.824219 C 352.070312 288.109375 352.300781 289.359375 352.5 290.578125 C 352.742188 291.796875 352.828125 293.027344 353.175781 294.152344 C 353.492188 295.277344 353.785156 296.382812 354.089844 297.464844 C 354.574219 299.695312 355.46875 301.4375 356.457031 303.238281 C 358.433594 306.707031 360.554688 310.125 360.902344 313.667969 C 361.019531 314.496094 361.082031 315.453125 360.753906 316.484375 C 360.324219 317.460938 359.503906 318.15625 358.839844 318.503906 C 357.453125 319.28125 356.265625 319.710938 355.128906 320.214844 C 350.597656 322.160156 347.171875 323.023438 344.964844 323.117188 C 344.40625 323.140625 343.933594 323.148438 343.535156 323.171875 C 343.132812 323.140625 342.808594 323.109375 342.566406 323.054688 C 342.050781 322.980469 341.820312 322.90625 341.820312 322.804688 C 341.820312 322.308594 345.6875 322.972656 354.40625 318.617188 C 355.5 318.070312 356.761719 317.535156 357.832031 316.875 C 358.410156 316.558594 358.703125 316.179688 358.894531 315.789062 C 358.988281 315.339844 359.011719 314.695312 358.851562 313.941406 C 358.496094 310.921875 356.601562 307.945312 354.480469 304.351562 C 353.4375 302.585938 352.332031 300.429688 351.839844 298.179688 C 351.503906 297.035156 351.175781 295.886719 350.832031 294.699219 C 350.453125 293.523438 350.367188 292.269531 350.105469 291.007812 C 349.894531 289.738281 349.640625 288.453125 349.464844 287.121094 C 349.335938 285.785156 349.222656 284.417969 349.085938 283.019531 C 348.875 281.15625 348.800781 279.253906 348.738281 277.300781 C 346.140625 279.222656 343.597656 281.222656 341.148438 283.335938 C 338.75 285.382812 336.480469 287.582031 334.324219 289.882812 L 334.617188 289.882812 C 334.609375 292.125 335.289062 294.363281 335.859375 296.382812 C 336.425781 298.421875 337.003906 300.304688 337.289062 302.121094 C 337.425781 303.046875 337.488281 303.972656 337.320312 304.941406 C 337.171875 305.886719 336.5625 306.96875 335.660156 307.433594 C 333.894531 308.273438 332.558594 307.914062 331.484375 307.746094 C 329.359375 307.273438 328.066406 306.621094 327.238281 306.203125 C 326.417969 305.75 326.101562 305.476562 326.164062 305.308594 C 326.238281 305.140625 326.660156 305.128906 327.554688 305.285156 C 328.445312 305.421875 329.824219 305.800781 331.757812 306 C 332.695312 306.117188 333.894531 306.117188 334.609375 305.664062 C 334.914062 305.457031 335.082031 305.140625 335.164062 304.570312 C 335.25 304.003906 335.175781 303.277344 335.027344 302.511719 C 334.734375 300.921875 334.144531 299.117188 333.535156 297.066406 C 333.105469 295.582031 332.589844 293.984375 332.324219 292.144531 C 327.53125 297.632812 323.398438 303.65625 319.917969 310.089844 C 323.335938 312.246094 327.207031 313.121094 330.726562 313.5625 C 334.816406 314.054688 338.507812 313.910156 341.988281 313.8125 C 342.828125 313.78125 343.703125 313.792969 344.207031 313.667969 C 344.722656 313.507812 344.933594 313.414062 345.214844 312.773438 C 345.773438 311.585938 346.035156 310.28125 346.058594 309.0625 C 346.066406 306.582031 345.457031 304.296875 344.933594 302.394531 C 343.796875 298.539062 342.789062 295.886719 342.367188 294.121094 C 341.882812 292.355469 341.871094 291.546875 342.03125 291.503906 C 342.199219 291.472656 342.523438 292.15625 343.269531 293.796875 C 343.976562 295.4375 345.214844 297.957031 346.605469 301.871094 C 347.253906 303.824219 348.035156 306.148438 348.117188 309.0625 C 348.128906 310.542969 347.886719 312.140625 347.160156 313.738281 C 347.054688 313.941406 346.960938 314.160156 346.84375 314.371094 C 346.667969 314.582031 346.476562 314.8125 346.289062 315.011719 C 345.890625 315.390625 345.269531 315.738281 344.765625 315.820312 C 343.710938 316.085938 342.902344 316.03125 342.03125 316.085938 C 338.675781 316.242188 334.734375 316.464844 330.453125 315.96875 C 326.773438 315.539062 322.621094 314.664062 318.773438 312.277344 C 317.585938 314.601562 316.480469 316.988281 315.460938 319.394531 C 316.449219 320.207031 317.648438 320.742188 318.804688 321.121094 C 320.351562 321.644531 321.832031 321.960938 323.199219 322.183594 C 325.921875 322.625 328.109375 322.769531 329.78125 322.941406 C 333.105469 323.210938 334.40625 323.496094 334.40625 323.84375 C 334.40625 324.167969 333.136719 324.515625 329.730469 324.683594 C 328.027344 324.746094 325.777344 324.78125 322.875 324.433594 C 321.433594 324.273438 319.824219 323.992188 318.046875 323.433594 C 316.921875 323.066406 315.660156 322.570312 314.472656 321.75 C 313.695312 323.695312 312.992188 325.671875 312.308594 327.648438 C 315.0625 329.152344 317.679688 329.867188 319.886719 330.214844 C 322.347656 330.636719 324.304688 330.699219 325.808594 330.667969 C 326.542969 330.667969 327.183594 330.644531 327.722656 330.636719 C 328.246094 330.605469 328.667969 330.5625 329.015625 330.582031 C 329.707031 330.582031 330.035156 330.675781 330.085938 330.847656 C 330.117188 331.015625 329.875 331.222656 329.234375 331.519531 C 328.898438 331.664062 328.488281 331.8125 327.941406 332.003906 C 327.40625 332.160156 326.742188 332.277344 325.953125 332.414062 C 324.378906 332.675781 322.242188 332.789062 319.542969 332.496094 C 317.25 332.234375 314.484375 331.550781 311.539062 330.035156 C 309.921875 335.144531 308.671875 340.351562 307.734375 345.574219 C 315.355469 344.820312 324.566406 339.277344 330.433594 336.503906 C 338.917969 332.464844 347.519531 328.425781 355.8125 323.992188 C 367.230469 317.863281 377.933594 310.597656 388.425781 302.953125 C 385.136719 303.164062 382.117188 303.070312 379.4375 302.523438 C 376.925781 301.933594 374.707031 301.027344 373.078125 299.757812 C 372.214844 299.179688 371.5625 298.453125 370.910156 297.863281 C 370.34375 297.179688 369.765625 296.59375 369.335938 295.980469 C 367.558594 293.59375 366.515625 291.945312 365.757812 290.902344 C 365.011719 289.882812 364.769531 289.359375 364.886719 289.242188 C 365.003906 289.128906 365.496094 289.410156 366.484375 290.285156 C 367.472656 291.136719 368.808594 292.722656 370.679688 294.855469 C 372.519531 297.023438 375.316406 299.421875 379.878906 300.28125 C 382.171875 300.660156 384.789062 300.777344 387.722656 300.578125 C 389.171875 300.492188 390.699219 300.335938 392.308594 300.113281 C 405.4375 290.410156 418.285156 280.296875 431.828125 271.316406 C 434.59375 269.488281 437.359375 267.660156 440.132812 265.828125 C 440.460938 262.855469 440.953125 260.371094 441.480469 258.015625 C 441.859375 256.34375 442.171875 254.328125 442.4375 252.835938 C 442.730469 251.332031 442.960938 249.878906 443.160156 248.503906 C 444.023438 242.984375 444.726562 238.683594 445.304688 235.402344 C 446.472656 228.863281 447.136719 226.390625 447.484375 226.433594 C 447.808594 226.476562 447.757812 229.074219 447.03125 235.695312 C 446.671875 239.007812 446.148438 243.394531 445.421875 248.945312 C 445.253906 250.332031 445.042969 251.910156 444.761719 253.453125 C 444.519531 255.011719 444.214844 256.839844 443.855469 258.511719 C 443.476562 260.332031 443.121094 262.074219 442.835938 264.050781 C 463.738281 250.3125 485.015625 236.789062 506.558594 224.132812 C 508.703125 221.3125 510.324219 218.558594 511.730469 216.171875 C 514.015625 212.304688 515.769531 209.222656 517.304688 206.984375 C 518.082031 205.859375 518.703125 204.902344 519.3125 204.144531 C 519.921875 203.410156 520.4375 202.832031 520.847656 202.378906 C 521.667969 201.507812 522.097656 201.199219 522.234375 201.316406 C 522.363281 201.410156 522.203125 201.925781 521.625 202.957031 C 521.34375 203.484375 520.964844 204.132812 520.46875 204.921875 C 519.976562 205.722656 519.460938 206.730469 518.808594 207.886719 C 517.484375 210.191406 515.90625 213.324219 513.707031 217.308594 C 513.035156 218.527344 512.277344 219.882812 511.425781 221.28125 C 511.636719 221.144531 511.847656 221.03125 512.046875 220.902344 C 520.648438 215.929688 529.648438 211.671875 538.214844 206.648438 Z M 549.152344 188.070312 C 552.136719 187.535156 555.101562 186.976562 558.066406 186.386719 C 543.421875 166.894531 520.175781 155.6875 501.261719 140.925781 C 501.113281 140.808594 500.996094 140.695312 500.894531 140.570312 C 493.804688 140.601562 486.804688 141.273438 479.84375 142.175781 C 482.410156 142.753906 484.785156 143.050781 486.878906 143.300781 C 490.484375 143.679688 493.300781 143.964844 495.445312 144.195312 C 499.777344 144.667969 501.40625 145.183594 501.355469 145.488281 C 501.324219 145.855469 499.671875 145.972656 495.339844 145.929688 C 493.164062 145.898438 490.316406 145.855469 486.648438 145.574219 C 483.136719 145.257812 478.78125 144.796875 473.789062 143.019531 C 471.140625 143.386719 468.5 143.773438 465.871094 144.164062 C 468.152344 144.847656 470.351562 145.511719 472.421875 146.152344 C 474.441406 146.738281 476.332031 147.382812 478.160156 147.875 C 480 148.359375 481.738281 148.800781 483.375 149.242188 C 486.679688 150.125 489.613281 150.914062 492.199219 151.609375 C 493.5 151.933594 494.699219 152.332031 495.855469 152.554688 C 496.992188 152.773438 498.066406 152.953125 499.054688 153.121094 C 507.191406 154.40625 510.019531 156.296875 509.871094 156.476562 C 509.691406 156.90625 506.875 155.675781 498.820312 154.867188 C 497.78125 154.730469 496.675781 154.582031 495.488281 154.457031 C 494.320312 154.257812 493.101562 153.910156 491.789062 153.617188 C 489.148438 152.976562 486.164062 152.257812 482.820312 151.460938 C 481.136719 151.039062 479.382812 150.621094 477.53125 150.15625 C 475.671875 149.695312 473.757812 149.0625 471.75 148.476562 C 468.152344 147.402344 464.230469 146.214844 460.003906 144.953125 C 457.398438 145.277344 454.8125 145.519531 452.246094 145.71875 C 454.453125 147.171875 456.820312 148.339844 459.164062 149.347656 C 462.738281 150.882812 466.34375 151.996094 469.742188 153.175781 C 473.148438 154.308594 476.492188 155.59375 479.445312 156.84375 C 482.421875 158.125 485.320312 159.113281 488.042969 160.15625 C 489.410156 160.617188 490.777344 161.007812 492.082031 161.425781 C 493.394531 161.835938 494.648438 162.246094 495.917969 162.511719 C 498.441406 163.121094 500.777344 163.730469 503.070312 164.160156 C 507.601562 165.085938 511.542969 165.925781 514.960938 166.675781 C 521.785156 168.230469 526.460938 169.480469 529.386719 170.492188 C 532.316406 171.457031 533.539062 171.972656 533.484375 172.128906 C 533.433594 172.300781 532.117188 172.097656 529.121094 171.425781 C 526.148438 170.699219 521.4375 169.710938 514.601562 168.386719 C 511.175781 167.765625 507.222656 167.019531 502.679688 166.179688 C 500.398438 165.789062 497.960938 165.210938 495.394531 164.632812 C 494.089844 164.371094 492.785156 163.960938 491.441406 163.5625 C 490.105469 163.152344 488.71875 162.773438 487.296875 162.3125 C 484.535156 161.3125 481.570312 160.324219 478.550781 159.03125 C 475.492188 157.769531 472.410156 156.613281 468.960938 155.476562 C 465.554688 154.308594 461.929688 153.207031 458.207031 151.617188 C 454.925781 150.199219 451.46875 148.558594 448.355469 145.984375 C 443.972656 146.234375 439.609375 146.328125 435.203125 146.351562 C 438.167969 147.371094 441.070312 148.359375 443.886719 149.328125 C 445.054688 149.726562 446.210938 150.125 447.347656 150.515625 C 448.472656 150.945312 449.574219 151.375 450.679688 151.808594 C 452.867188 152.636719 455.011719 153.46875 457.101562 154.269531 C 465.441406 157.484375 472.988281 160.367188 479.769531 162.984375 C 483.15625 164.359375 486.425781 165.359375 489.496094 166.421875 C 492.554688 167.453125 495.445312 168.429688 498.148438 169.34375 C 500.851562 170.332031 503.4375 170.941406 505.835938 171.582031 C 507.042969 171.921875 508.210938 172.214844 509.324219 172.507812 C 510.449219 172.8125 511.554688 172.992188 512.605469 173.203125 C 521.046875 175 527.007812 175.875 530.699219 176.894531 C 534.367188 177.785156 535.957031 178.261719 535.957031 178.4375 C 535.925781 178.605469 534.273438 178.4375 530.519531 177.828125 C 526.777344 177.105469 520.847656 176.515625 512.277344 174.9375 C 511.207031 174.71875 510.09375 174.570312 508.9375 174.308594 C 507.800781 174.035156 506.613281 173.75 505.382812 173.457031 C 502.921875 172.84375 500.25 172.265625 497.550781 171.3125 C 494.792969 170.417969 491.882812 169.480469 488.78125 168.472656 C 485.699219 167.453125 482.378906 166.464844 478.980469 165.128906 C 472.179688 162.5625 464.609375 159.691406 456.230469 156.550781 C 454.136719 155.738281 452.015625 154.929688 449.816406 154.089844 C 448.714844 153.667969 447.609375 153.246094 446.496094 152.828125 C 445.359375 152.429688 444.214844 152.050781 443.046875 151.648438 C 438.421875 150.050781 433.574219 148.410156 428.496094 146.675781 L 428.578125 146.402344 C 427.414062 146.320312 426.015625 146.296875 424.300781 146.445312 L 424.277344 146.296875 C 422.703125 146.289062 421.105469 146.265625 419.484375 146.246094 C 405.847656 146.097656 391.917969 146.761719 379.101562 151.933594 C 368.410156 156.253906 355.5625 162.121094 349.453125 172.382812 C 349.433594 173.320312 348.90625 174.222656 347.695312 174.507812 C 339.234375 176.546875 331.390625 182.582031 323.808594 187.964844 C 327.238281 203.410156 326.910156 216.570312 326.628906 227.179688 C 326.460938 232.667969 326.195312 237.527344 326.019531 241.847656 C 325.921875 244.003906 325.839844 246.011719 325.746094 247.890625 C 325.671875 249.722656 325.746094 251.46875 325.785156 253.074219 C 326.132812 259.582031 325.839844 264.230469 324.933594 267.070312 C 324.007812 269.898438 322.9375 270.792969 322.875 270.707031 C 322.675781 270.589844 323.398438 269.550781 323.988281 266.816406 C 324.566406 264.082031 324.597656 259.667969 324.042969 253.179688 C 323.945312 251.550781 323.808594 249.785156 323.832031 247.839844 C 323.882812 245.949219 323.914062 243.917969 323.957031 241.761719 C 324.074219 237.464844 324.210938 232.585938 324.355469 227.128906 C 324.503906 216.78125 324.703125 204.113281 321.589844 189.53125 C 319.71875 190.835938 317.859375 192.066406 316.019531 193.15625 C 314.894531 193.808594 313.789062 194.492188 312.6875 195.167969 C 313.378906 206.183594 314.484375 215.394531 314.914062 223.058594 C 315.386719 231.113281 315.410156 237.464844 315 242.257812 C 314.769531 244.664062 314.664062 246.683594 314.390625 248.367188 C 314.09375 250.046875 313.820312 251.382812 313.613281 252.425781 C 313.171875 254.496094 312.886719 255.367188 312.707031 255.335938 C 312.539062 255.304688 312.507812 254.359375 312.65625 252.277344 C 312.730469 251.234375 312.832031 249.878906 313 248.21875 C 313.171875 246.558594 313.136719 244.550781 313.253906 242.171875 C 313.433594 237.429688 313.234375 231.195312 312.644531 223.226562 C 312.117188 215.941406 311.003906 207.171875 310.300781 196.648438 C 307.882812 198.164062 305.496094 199.707031 303.140625 201.328125 C 305.9375 213.796875 305.652344 222.386719 305.042969 227.570312 C 304.855469 228.90625 304.695312 230.03125 304.507812 230.964844 C 304.277344 231.890625 304.054688 232.617188 303.875 233.195312 C 303.519531 234.308594 303.265625 234.769531 303.097656 234.738281 C 302.941406 234.6875 302.867188 234.160156 302.941406 232.996094 C 302.972656 232.417969 303.035156 231.679688 303.140625 230.765625 C 303.183594 229.851562 303.234375 228.746094 303.296875 227.421875 C 303.464844 222.5 303.464844 214.492188 300.941406 202.839844 C 295.359375 206.785156 289.988281 211 284.960938 215.625 C 276.53125 223.386719 269.105469 231.941406 262.988281 241.246094 C 265.3125 241.183594 267.53125 241.007812 269.601562 240.742188 C 273.3125 240.28125 276.65625 239.617188 279.503906 238.714844 C 280.976562 238.316406 282.257812 237.757812 283.5 237.242188 C 284.679688 236.738281 285.632812 236.128906 286.328125 235.316406 C 287.746094 233.742188 288.179688 231.722656 288.359375 230 C 288.652344 226.476562 288.390625 223.878906 288.472656 222.25 C 288.503906 220.621094 288.652344 219.914062 288.820312 219.914062 C 289 219.914062 289.179688 220.609375 289.429688 222.1875 C 289.640625 223.804688 290.1875 226.285156 290.101562 230.125 C 290.019531 232.007812 289.671875 234.476562 287.875 236.652344 C 287.023438 237.757812 285.738281 238.597656 284.4375 239.21875 C 283.121094 239.796875 281.734375 240.4375 280.199219 240.890625 C 277.179688 241.910156 273.753906 242.636719 269.917969 243.140625 C 267.277344 243.488281 264.429688 243.738281 261.402344 243.75 C 259.90625 246.148438 258.5 248.597656 257.207031 251.089844 C 260.875 252.929688 264.828125 253.222656 268.402344 252.886719 C 272.386719 252.488281 275.992188 251.53125 279.273438 250.722656 C 282.554688 249.921875 285.519531 249.207031 288.242188 248.859375 C 290.945312 248.503906 293.308594 248.480469 295.160156 248.164062 C 298.996094 247.722656 299.113281 244.246094 299.492188 242.71875 C 299.777344 241.007812 299.890625 240.226562 300.089844 240.226562 C 300.238281 240.226562 300.449219 240.984375 300.449219 242.804688 C 300.449219 243.707031 300.394531 244.886719 299.902344 246.378906 C 299.585938 247.09375 299.199219 247.957031 298.378906 248.585938 C 297.578125 249.238281 296.558594 249.667969 295.515625 249.878906 C 293.414062 250.363281 291.121094 250.457031 288.535156 250.890625 C 285.980469 251.320312 283.101562 252.054688 279.851562 252.929688 C 276.59375 253.800781 272.921875 254.84375 268.632812 255.304688 C 264.828125 255.714844 260.285156 255.398438 256.050781 253.277344 C 255.039062 255.304688 254.105469 257.375 253.210938 259.457031 C 254.660156 260.917969 256.40625 262.011719 258.300781 262.632812 C 260.507812 263.410156 262.789062 263.757812 264.976562 263.914062 C 269.378906 264.199219 273.449219 263.769531 277.054688 263.296875 C 284.320312 262.273438 289.933594 260.949219 294.265625 260.121094 C 302.917969 258.300781 306.378906 258.289062 306.398438 258.628906 C 306.398438 258.972656 303.140625 259.605469 294.644531 261.832031 C 290.386719 262.886719 284.78125 264.378906 277.382812 265.566406 C 273.691406 266.113281 269.527344 266.605469 264.828125 266.34375 C 262.472656 266.195312 259.980469 265.828125 257.480469 264.957031 C 255.640625 264.347656 253.789062 263.328125 252.179688 261.90625 C 251.339844 264 250.59375 266.125 249.886719 268.269531 C 261.726562 272.914062 272.09375 275.175781 280.757812 275.386719 C 281.859375 275.417969 282.953125 275.46875 284.003906 275.5 C 285.046875 275.492188 286.066406 275.46875 287.074219 275.46875 C 288.0625 275.4375 289.03125 275.417969 289.957031 275.40625 C 290.890625 275.324219 291.796875 275.257812 292.667969 275.175781 C 296.167969 274.953125 299.230469 274.492188 301.867188 274.167969 C 312.445312 272.601562 316.492188 271.980469 316.566406 272.359375 C 316.566406 272.671875 312.65625 273.882812 302.152344 275.902344 C 299.492188 276.34375 296.433594 276.898438 292.859375 277.238281 C 291.941406 277.320312 291.027344 277.414062 290.082031 277.53125 C 289.125 277.5625 288.136719 277.59375 287.136719 277.644531 C 286.117188 277.679688 285.078125 277.730469 283.996094 277.742188 C 282.921875 277.710938 281.816406 277.6875 280.660156 277.65625 C 271.808594 277.582031 261.074219 275.300781 249.109375 270.625 C 248.332031 273.167969 247.679688 275.753906 247.070312 278.371094 C 260.824219 283.0625 272.230469 286.742188 281.890625 288.003906 C 286.738281 288.738281 291.070312 288.917969 294.929688 288.960938 C 298.820312 288.8125 302.195312 288.695312 305.128906 288.582031 C 310.941406 288.390625 314.914062 287.5625 317.007812 286.300781 C 319.164062 285.078125 319.308594 283.753906 319.574219 283.890625 C 319.65625 283.902344 319.625 284.207031 319.445312 284.804688 C 319.363281 285.121094 319.101562 285.457031 318.835938 285.878906 C 318.511719 286.246094 318.132812 286.742188 317.554688 287.097656 C 315.324219 288.800781 311.140625 289.90625 305.230469 290.324219 C 302.277344 290.527344 298.871094 290.757812 294.960938 291.007812 C 291.027344 291.050781 286.539062 290.957031 281.585938 290.261719 C 280.335938 290.167969 279.0625 289.914062 277.78125 289.675781 C 276.476562 289.421875 275.140625 289.179688 273.773438 288.925781 C 271.074219 288.308594 268.234375 287.625 265.289062 286.804688 C 260.128906 285.351562 254.609375 283.523438 248.699219 281.535156 C 251.085938 285.792969 253.621094 289.957031 256.289062 294.003906 C 260.527344 295.488281 264.429688 296.9375 268.191406 297.789062 C 270.410156 298.367188 272.503906 298.96875 274.511719 299.460938 C 276.539062 299.882812 278.476562 300.304688 280.304688 300.691406 C 283.941406 301.523438 287.222656 302.089844 290.113281 302.605469 C 293.035156 303.132812 295.570312 303.59375 297.777344 303.992188 C 302.164062 304.960938 305.09375 305.253906 306.957031 304.980469 C 307.914062 304.898438 308.542969 304.644531 308.964844 304.53125 C 309.417969 304.433594 309.636719 304.414062 309.691406 304.488281 C 309.742188 304.550781 309.59375 304.71875 309.195312 304.980469 C 308.796875 305.253906 308.175781 305.6875 307.15625 305.917969 C 305.179688 306.546875 301.847656 306.464844 297.484375 305.71875 C 295.308594 305.457031 292.742188 305.097656 289.789062 304.636719 C 286.855469 304.203125 283.542969 303.6875 279.851562 302.933594 C 277.992188 302.554688 276.046875 302.175781 273.984375 301.765625 C 271.945312 301.292969 269.800781 300.714844 267.5625 300.136719 C 264.679688 299.492188 261.695312 298.503906 258.574219 297.414062 C 270.789062 315.179688 285.71875 330.761719 303.003906 344.03125 C 307.136719 320.964844 317.933594 296.792969 335.828125 281.421875 C 335.835938 281.398438 335.871094 281.367188 335.902344 281.359375 C 335.835938 264.808594 335.597656 250.921875 335.921875 239.441406 C 336.246094 227.160156 336.910156 217.601562 337.835938 210.335938 C 338.308594 206.710938 338.644531 203.652344 339.097656 201.117188 C 339.613281 198.574219 340.011719 196.554688 340.316406 194.964844 C 341 191.855469 341.355469 190.519531 341.535156 190.519531 C 341.726562 190.550781 341.652344 191.949219 341.273438 195.132812 C 341.0625 196.734375 340.800781 198.761719 340.464844 201.296875 C 340.160156 203.851562 339.9375 206.910156 339.582031 210.527344 C 338.886719 217.761719 338.414062 227.265625 338.191406 239.472656 C 337.992188 250.449219 338.277344 263.621094 338.359375 279.308594 C 341.589844 276.667969 344.921875 274.1875 348.328125 271.800781 C 349.304688 264.03125 350.167969 256.839844 351.0625 250.257812 C 352.1875 242.984375 353.207031 236.402344 354.132812 230.472656 C 355.015625 224.5625 355.8125 219.285156 356.519531 214.605469 C 357.191406 209.949219 357.949219 205.878906 358.261719 202.335938 C 359.074219 195.261719 359.683594 190.394531 360.125 187.269531 C 360.566406 184.179688 360.871094 182.84375 361.050781 182.84375 C 361.21875 182.84375 361.25 184.210938 361.082031 187.34375 C 360.933594 190.488281 360.585938 195.417969 360.007812 202.546875 C 359.796875 206.121094 359.136719 210.191406 358.546875 214.890625 C 357.917969 219.589844 357.191406 224.867188 356.382812 230.816406 C 355.507812 236.746094 354.542969 243.328125 353.46875 250.605469 C 352.722656 256.554688 351.921875 263 351.0625 269.917969 C 355.570312 266.847656 360.1875 263.9375 364.835938 261.066406 C 365.265625 249.53125 367.179688 239.535156 369.050781 231.710938 C 371.144531 222.976562 373.109375 216.003906 374.527344 210.882812 C 375.988281 205.765625 376.96875 202.230469 377.640625 199.992188 C 378.335938 197.753906 378.722656 196.796875 378.890625 196.847656 C 379.058594 196.878906 378.984375 197.960938 378.574219 200.277344 C 378.1875 202.597656 377.472656 206.289062 376.222656 211.460938 C 375 216.644531 373.234375 223.523438 371.28125 232.207031 C 369.597656 239.648438 367.863281 248.746094 367.367188 259.519531 C 371.375 257.058594 375.378906 254.609375 379.332031 252.109375 C 379.5625 243.183594 381.109375 235.800781 382.5625 229.820312 C 384.179688 223.207031 385.664062 218.171875 386.753906 214.289062 C 387.871094 210.441406 388.59375 207.773438 389.121094 206.070312 C 389.648438 204.375 389.984375 203.671875 390.140625 203.703125 C 390.332031 203.734375 390.308594 204.523438 390.058594 206.289062 C 389.835938 208.046875 389.351562 210.800781 388.449219 214.722656 C 387.523438 218.632812 386.324219 223.753906 384.789062 230.324219 C 383.539062 235.894531 382.203125 242.582031 381.878906 250.511719 C 386.820312 247.324219 391.675781 244.054688 396.355469 240.511719 C 397.21875 239.859375 398.070312 239.207031 398.929688 238.566406 C 399.234375 234.425781 400.160156 230.988281 401.035156 228.148438 C 402.167969 224.59375 403.292969 221.902344 404.230469 219.914062 C 406.113281 215.910156 407.164062 214.5625 407.445312 214.691406 C 407.792969 214.859375 407.300781 216.457031 405.847656 220.566406 C 405.132812 222.628906 404.207031 225.320312 403.230469 228.808594 C 402.621094 231.039062 401.96875 233.625 401.589844 236.546875 C 422.269531 221.082031 445.074219 205.53125 470.476562 200.023438 C 487.667969 196.292969 505.191406 194.230469 522.675781 191.9375 C 522.59375 191.917969 522.5 191.886719 522.414062 191.875 C 518.851562 191.097656 515.644531 190.402344 512.742188 189.78125 C 506.925781 188.5625 502.375 187.691406 498.9375 186.828125 C 492.03125 185.136719 489.476562 184.273438 489.558594 183.925781 C 489.644531 183.601562 492.34375 183.863281 499.285156 185.113281 C 502.742188 185.746094 507.335938 186.441406 513.183594 187.535156 C 516.105469 188.132812 519.367188 188.773438 522.960938 189.5 C 524.863281 189.972656 526.894531 190.519531 529.015625 191.097656 C 534.074219 190.402344 539.121094 189.699219 544.15625 188.890625 C 539.035156 187.269531 533.980469 186.503906 529.269531 185.828125 C 522.738281 184.96875 516.757812 184.421875 511.394531 183.453125 C 510.710938 183.347656 510.0625 183.242188 509.398438 183.128906 C 508.757812 182.960938 508.125 182.8125 507.503906 182.664062 C 506.265625 182.351562 505.066406 182.054688 503.890625 181.75 C 501.554688 181.160156 499.347656 180.613281 497.285156 180.089844 C 493.15625 179.046875 489.546875 178.144531 486.457031 177.292969 C 480.285156 175.621094 476.015625 174.421875 473.316406 173.582031 C 470.644531 172.761719 469.507812 172.320312 469.507812 172.128906 C 469.539062 171.953125 470.761719 172.097656 473.527344 172.644531 C 476.3125 173.191406 480.632812 174.140625 486.886719 175.589844 C 490.019531 176.316406 493.628906 177.144531 497.769531 178.101562 C 499.820312 178.574219 502.019531 179.089844 504.351562 179.625 C 505.507812 179.890625 506.707031 180.171875 507.949219 180.46875 C 508.566406 180.613281 509.199219 180.75 509.828125 180.921875 C 510.46875 181.015625 511.121094 181.109375 511.773438 181.214844 C 517.019531 182.097656 522.972656 182.582031 529.585938 183.421875 C 535.589844 184.242188 542.316406 185.261719 549.152344 188.070312 Z M 564.457031 186.816406 C 564.867188 187.417969 564.953125 188.015625 564.828125 188.5625 C 564.898438 188.921875 564.890625 189.351562 564.710938 189.816406 C 561.671875 197.953125 553.125 203.355469 546.058594 207.710938 C 536.617188 213.523438 526.660156 218.328125 517.011719 223.761719 C 488.832031 239.617188 461.203125 257.605469 434.332031 275.585938 C 406.554688 294.175781 381.394531 316.863281 351.292969 331.71875 C 342.199219 336.199219 333.167969 340.832031 323.839844 344.851562 C 318.699219 347.078125 312.496094 350.105469 306.527344 350.464844 C 305.726562 351.261719 304.339844 351.125 303.382812 350.378906 C 303.066406 350.339844 302.75 350.308594 302.445312 350.253906 C 301.3125 350.042969 300.765625 349.285156 300.679688 348.414062 C 276.707031 330.089844 257.089844 307.609375 242.75 281.019531 C 242.738281 280.988281 242.738281 280.96875 242.71875 280.9375 C 242.109375 280.390625 241.75 279.589844 241.960938 278.570312 C 247.449219 252.65625 261.800781 229.714844 281.472656 212.136719 C 291.324219 203.324219 302.066406 195.480469 313.515625 188.890625 C 323.757812 182.992188 333.546875 173.414062 345.039062 170.121094 C 350.621094 160.503906 360.902344 154.960938 370.636719 150.335938 C 382.613281 144.636719 395.355469 141.746094 408.59375 141.386719 C 423.890625 140.957031 439.207031 142.523438 454.453125 140.714844 C 470.464844 138.800781 486.269531 135.4375 502.460938 135.605469 C 503.761719 135.617188 504.519531 136.445312 504.761719 137.433594 C 525.042969 153.269531 549.664062 164.949219 564.457031 186.816406 " fill-opacity="1" fill-rule="nonzero"/></g><path fill="#00425c" d="M 469.574219 182.707031 C 474.617188 183.171875 477.75 183.539062 477.75 183.925781 C 477.75 184.296875 474.597656 184.640625 469.476562 184.671875 C 464.367188 184.652344 457.304688 184.148438 449.585938 183.085938 C 441.890625 181.980469 434.992188 180.730469 430.019531 179.742188 C 425.027344 178.773438 421.945312 177.996094 422.007812 177.617188 C 422.0625 177.242188 425.226562 177.324219 430.28125 177.785156 C 435.351562 178.292969 442.320312 179.238281 449.964844 180.320312 C 457.628906 181.394531 464.546875 182.183594 469.574219 182.707031 " fill-opacity="1" fill-rule="nonzero"/><path fill="#00425c" d="M 453.824219 173.414062 C 458.5625 175.347656 461.414062 176.714844 461.265625 177.070312 C 461.121094 177.417969 458.039062 176.714844 453.234375 175.296875 C 450.773438 174.707031 447.863281 173.980469 444.632812 173.140625 C 441.363281 172.351562 437.789062 171.488281 434.058594 170.492188 C 432.195312 169.976562 430.378906 169.480469 428.632812 169.007812 C 426.800781 168.546875 425.109375 167.945312 423.511719 167.390625 C 420.359375 166.222656 417.644531 165.246094 415.40625 165.507812 C 413.144531 165.6875 411.398438 166.800781 410.265625 167.503906 C 409.085938 168.261719 408.402344 168.722656 408.265625 168.554688 C 408.152344 168.429688 408.5625 167.734375 409.550781 166.675781 C 409.832031 166.421875 410.128906 166.136719 410.464844 165.824219 C 410.820312 165.539062 411.230469 165.265625 411.664062 164.949219 C 412.566406 164.390625 413.722656 163.792969 415.121094 163.5625 C 416.507812 163.289062 418.074219 163.351562 419.621094 163.667969 C 421.1875 163.960938 422.734375 164.457031 424.332031 164.949219 C 425.929688 165.445312 427.558594 165.960938 429.273438 166.367188 C 431.050781 166.832031 432.902344 167.304688 434.773438 167.800781 C 438.503906 168.820312 442.058594 169.777344 445.285156 170.667969 C 448.523438 171.65625 451.414062 172.570312 453.824219 173.414062 " fill-opacity="1" fill-rule="nonzero"/><path fill="#00425c" d="M 446.839844 191.6875 C 456.703125 192.894531 464.800781 193.242188 464.839844 194.09375 C 464.894531 194.765625 456.609375 195.691406 446.472656 194.441406 C 436.210938 192.980469 428.714844 189.792969 428.863281 189.152344 C 429.0625 188.300781 437.117188 190.320312 446.839844 191.6875 " fill-opacity="1" fill-rule="nonzero"/><path fill="#00425c" d="M 448.039062 160.902344 C 453.589844 162.574219 456.988281 163.792969 456.871094 164.160156 C 456.777344 164.539062 453.203125 163.972656 447.515625 162.792969 C 444.675781 162.183594 441.300781 161.425781 437.558594 160.554688 C 433.835938 159.628906 429.746094 158.558594 425.488281 157.421875 C 423.636719 156.90625 421.839844 156.414062 420.09375 155.941406 C 419.191406 155.675781 418.414062 155.507812 417.445312 155.183594 C 416.582031 154.847656 415.753906 154.542969 414.972656 154.203125 C 413.386719 153.5625 411.957031 152.902344 410.707031 152.753906 C 409.453125 152.597656 408.289062 153.039062 407.183594 153.5625 L 407.078125 153.617188 C 405.703125 154.195312 404.492188 155.382812 403.441406 156.328125 C 402.390625 157.316406 401.410156 158.199219 400.570312 158.851562 C 398.792969 160.207031 397.667969 160.449219 397.5625 160.324219 C 397.394531 160.125 398.445312 159.398438 399.75 157.949219 C 400.421875 157.167969 401.253906 156.210938 402.191406 155.128906 C 403.1875 154.046875 404.25 152.660156 406.175781 151.648438 C 407.445312 150.914062 409.078125 150.199219 410.917969 150.335938 C 412.765625 150.503906 414.34375 151.1875 415.929688 151.765625 C 416.71875 152.082031 417.507812 152.34375 418.296875 152.628906 C 418.992188 152.859375 419.980469 153.070312 420.820312 153.300781 C 422.566406 153.761719 424.382812 154.234375 426.222656 154.730469 C 430.492188 155.886719 434.5625 157.023438 438.242188 158.085938 C 441.941406 159.105469 445.253906 160.0625 448.039062 160.902344 " fill-opacity="1" fill-rule="nonzero"/><g fill="#00425c" fill-opacity="1"><g transform="translate(283.277333, 528.570929)"><g><path d="M 18.015625 0.40625 C 15.085938 0.40625 12.460938 -0.0664062 10.140625 -1.015625 C 7.828125 -1.972656 5.976562 -3.382812 4.59375 -5.25 C 3.207031 -7.113281 2.472656 -9.351562 2.390625 -11.96875 L 12.765625 -11.96875 C 12.921875 -10.488281 13.4375 -9.359375 14.3125 -8.578125 C 15.1875 -7.796875 16.328125 -7.40625 17.734375 -7.40625 C 19.179688 -7.40625 20.320312 -7.738281 21.15625 -8.40625 C 21.988281 -9.070312 22.40625 -9.992188 22.40625 -11.171875 C 22.40625 -12.160156 22.070312 -12.976562 21.40625 -13.625 C 20.738281 -14.269531 19.921875 -14.800781 18.953125 -15.21875 C 17.984375 -15.632812 16.609375 -16.113281 14.828125 -16.65625 C 12.242188 -17.445312 10.132812 -18.238281 8.5 -19.03125 C 6.863281 -19.832031 5.457031 -21.015625 4.28125 -22.578125 C 3.101562 -24.140625 2.515625 -26.171875 2.515625 -28.671875 C 2.515625 -32.398438 3.863281 -35.316406 6.5625 -37.421875 C 9.257812 -39.535156 12.773438 -40.59375 17.109375 -40.59375 C 21.515625 -40.59375 25.066406 -39.535156 27.765625 -37.421875 C 30.460938 -35.316406 31.90625 -32.382812 32.09375 -28.625 L 21.546875 -28.625 C 21.472656 -29.914062 21 -30.929688 20.125 -31.671875 C 19.25 -32.410156 18.128906 -32.78125 16.765625 -32.78125 C 15.585938 -32.78125 14.632812 -32.46875 13.90625 -31.84375 C 13.1875 -31.21875 12.828125 -30.316406 12.828125 -29.140625 C 12.828125 -27.847656 13.4375 -26.835938 14.65625 -26.109375 C 15.875 -25.390625 17.773438 -24.613281 20.359375 -23.78125 C 22.941406 -22.90625 25.039062 -22.066406 26.65625 -21.265625 C 28.269531 -20.460938 29.664062 -19.300781 30.84375 -17.78125 C 32.019531 -16.269531 32.609375 -14.316406 32.609375 -11.921875 C 32.609375 -9.640625 32.03125 -7.566406 30.875 -5.703125 C 29.71875 -3.835938 28.035156 -2.351562 25.828125 -1.25 C 23.617188 -0.144531 21.015625 0.40625 18.015625 0.40625 Z M 18.015625 0.40625 "/></g></g></g><g fill="#00425c" fill-opacity="1"><g transform="translate(318.33958, 528.570929)"><g><path d="M 28.453125 -7.0625 L 13.515625 -7.0625 L 11.125 0 L 0.90625 0 L 15.390625 -40.03125 L 26.6875 -40.03125 L 41.171875 0 L 30.84375 0 Z M 25.9375 -14.59375 L 20.984375 -29.25 L 16.078125 -14.59375 Z M 25.9375 -14.59375 "/></g></g></g><g fill="#00425c" fill-opacity="1"><g transform="translate(360.357259, 528.570929)"><g><path d="M 13.28125 -7.53125 L 26.0625 -7.53125 L 26.0625 0 L 3.53125 0 L 3.53125 -40.03125 L 13.28125 -40.03125 Z M 13.28125 -7.53125 "/></g></g></g><g fill="#00425c" fill-opacity="1"><g transform="translate(387.551876, 528.570929)"><g><path d="M 48.859375 -40.03125 L 48.859375 0 L 39.109375 0 L 39.109375 -24 L 30.15625 0 L 22.296875 0 L 13.28125 -24.0625 L 13.28125 0 L 3.53125 0 L 3.53125 -40.03125 L 15.046875 -40.03125 L 26.28125 -12.3125 L 37.40625 -40.03125 Z M 48.859375 -40.03125 "/></g></g></g><g fill="#00425c" fill-opacity="1"><g transform="translate(439.888692, 528.570929)"><g><path d="M 28.453125 -7.0625 L 13.515625 -7.0625 L 11.125 0 L 0.90625 0 L 15.390625 -40.03125 L 26.6875 -40.03125 L 41.171875 0 L 30.84375 0 Z M 25.9375 -14.59375 L 20.984375 -29.25 L 16.078125 -14.59375 Z M 9.625 -42.828125 C 10.539062 -48.453125 13.164062 -51.265625 17.5 -51.265625 C 18.332031 -51.265625 19.0625 -51.140625 19.6875 -50.890625 C 20.320312 -50.640625 21.09375 -50.269531 22 -49.78125 C 22.6875 -49.394531 23.238281 -49.113281 23.65625 -48.9375 C 24.070312 -48.769531 24.507812 -48.6875 24.96875 -48.6875 C 26.375 -48.6875 27.191406 -49.546875 27.421875 -51.265625 L 32.4375 -51.265625 C 31.519531 -45.640625 28.894531 -42.828125 24.5625 -42.828125 C 23.726562 -42.828125 23 -42.945312 22.375 -43.1875 C 21.75 -43.4375 20.976562 -43.8125 20.0625 -44.3125 C 19.375 -44.6875 18.820312 -44.957031 18.40625 -45.125 C 17.988281 -45.300781 17.550781 -45.390625 17.09375 -45.390625 C 15.6875 -45.390625 14.851562 -44.535156 14.59375 -42.828125 Z M 9.625 -42.828125 "/></g></g></g><g fill="#00425c" fill-opacity="1"><g transform="translate(481.906382, 528.570929)"><g><path d="M 22.46875 0.40625 C 18.695312 0.40625 15.242188 -0.46875 12.109375 -2.21875 C 8.972656 -3.96875 6.484375 -6.410156 4.640625 -9.546875 C 2.796875 -12.679688 1.875 -16.207031 1.875 -20.125 C 1.875 -24.039062 2.796875 -27.554688 4.640625 -30.671875 C 6.484375 -33.785156 8.972656 -36.21875 12.109375 -37.96875 C 15.242188 -39.71875 18.695312 -40.59375 22.46875 -40.59375 C 26.226562 -40.59375 29.675781 -39.71875 32.8125 -37.96875 C 35.945312 -36.21875 38.414062 -33.785156 40.21875 -30.671875 C 42.03125 -27.554688 42.9375 -24.039062 42.9375 -20.125 C 42.9375 -16.207031 42.019531 -12.679688 40.1875 -9.546875 C 38.363281 -6.410156 35.894531 -3.96875 32.78125 -2.21875 C 29.664062 -0.46875 26.226562 0.40625 22.46875 0.40625 Z M 22.46875 -8.5 C 25.65625 -8.5 28.207031 -9.5625 30.125 -11.6875 C 32.050781 -13.8125 33.015625 -16.625 33.015625 -20.125 C 33.015625 -23.65625 32.050781 -26.472656 30.125 -28.578125 C 28.207031 -30.691406 25.65625 -31.75 22.46875 -31.75 C 19.238281 -31.75 16.660156 -30.703125 14.734375 -28.609375 C 12.816406 -26.523438 11.859375 -23.695312 11.859375 -20.125 C 11.859375 -16.59375 12.816406 -13.769531 14.734375 -11.65625 C 16.660156 -9.550781 19.238281 -8.5 22.46875 -8.5 Z M 22.46875 -8.5 "/></g></g></g><g fill="#00425c" fill-opacity="1"><g transform="translate(340.804674, 608.070925)"><g><path d="M 2.171875 -36.484375 L 2.171875 -41.21875 L 12.890625 -41.21875 L 12.890625 0 L 7.640625 0 L 7.640625 -36.484375 Z M 2.171875 -36.484375 "/></g></g></g><g fill="#00425c" fill-opacity="1"><g transform="translate(359.048443, 608.070925)"><g><path d="M 3.53125 -21.03125 C 3.53125 -27.570312 4.59375 -32.675781 6.71875 -36.34375 C 8.851562 -40.007812 12.582031 -41.84375 17.90625 -41.84375 C 23.1875 -41.84375 26.890625 -40.007812 29.015625 -36.34375 C 31.148438 -32.675781 32.21875 -27.570312 32.21875 -21.03125 C 32.21875 -14.382812 31.148438 -9.21875 29.015625 -5.53125 C 26.890625 -1.84375 23.1875 0 17.90625 0 C 12.582031 0 8.851562 -1.84375 6.71875 -5.53125 C 4.59375 -9.21875 3.53125 -14.382812 3.53125 -21.03125 Z M 27.078125 -21.03125 C 27.078125 -24.34375 26.859375 -27.144531 26.421875 -29.4375 C 25.984375 -31.738281 25.085938 -33.59375 23.734375 -35 C 22.390625 -36.414062 20.445312 -37.125 17.90625 -37.125 C 15.320312 -37.125 13.351562 -36.414062 12 -35 C 10.65625 -33.59375 9.765625 -31.738281 9.328125 -29.4375 C 8.890625 -27.144531 8.671875 -24.34375 8.671875 -21.03125 C 8.671875 -17.613281 8.890625 -14.742188 9.328125 -12.421875 C 9.765625 -10.109375 10.65625 -8.25 12 -6.84375 C 13.351562 -5.4375 15.320312 -4.734375 17.90625 -4.734375 C 20.445312 -4.734375 22.390625 -5.4375 23.734375 -6.84375 C 25.085938 -8.25 25.984375 -10.109375 26.421875 -12.421875 C 26.859375 -14.742188 27.078125 -17.613281 27.078125 -21.03125 Z M 27.078125 -21.03125 "/></g></g></g><g fill="#00425c" fill-opacity="1"><g transform="translate(394.851843, 608.070925)"><g><path d="M 3.53125 -21.03125 C 3.53125 -27.570312 4.59375 -32.675781 6.71875 -36.34375 C 8.851562 -40.007812 12.582031 -41.84375 17.90625 -41.84375 C 23.1875 -41.84375 26.890625 -40.007812 29.015625 -36.34375 C 31.148438 -32.675781 32.21875 -27.570312 32.21875 -21.03125 C 32.21875 -14.382812 31.148438 -9.21875 29.015625 -5.53125 C 26.890625 -1.84375 23.1875 0 17.90625 0 C 12.582031 0 8.851562 -1.84375 6.71875 -5.53125 C 4.59375 -9.21875 3.53125 -14.382812 3.53125 -21.03125 Z M 27.078125 -21.03125 C 27.078125 -24.34375 26.859375 -27.144531 26.421875 -29.4375 C 25.984375 -31.738281 25.085938 -33.59375 23.734375 -35 C 22.390625 -36.414062 20.445312 -37.125 17.90625 -37.125 C 15.320312 -37.125 13.351562 -36.414062 12 -35 C 10.65625 -33.59375 9.765625 -31.738281 9.328125 -29.4375 C 8.890625 -27.144531 8.671875 -24.34375 8.671875 -21.03125 C 8.671875 -17.613281 8.890625 -14.742188 9.328125 -12.421875 C 9.765625 -10.109375 10.65625 -8.25 12 -6.84375 C 13.351562 -5.4375 15.320312 -4.734375 17.90625 -4.734375 C 20.445312 -4.734375 22.390625 -5.4375 23.734375 -6.84375 C 25.085938 -8.25 25.984375 -10.109375 26.421875 -12.421875 C 26.859375 -14.742188 27.078125 -17.613281 27.078125 -21.03125 Z M 27.078125 -21.03125 "/></g></g></g><g fill="#00425c" fill-opacity="1"><g transform="translate(430.655243, 608.070925)"><g><path d="M 17.28125 -31.75 C 19.976562 -31.75 22.34375 -31.160156 24.375 -29.984375 C 26.40625 -28.804688 27.914062 -27.328125 28.90625 -25.546875 L 28.90625 -31.25 L 34.15625 -31.25 L 34.15625 0.6875 C 34.15625 3.53125 33.546875 6.0625 32.328125 8.28125 C 31.109375 10.507812 29.367188 12.25 27.109375 13.5 C 24.847656 14.757812 22.21875 15.390625 19.21875 15.390625 C 15.113281 15.390625 11.691406 14.421875 8.953125 12.484375 C 6.210938 10.546875 4.597656 7.90625 4.109375 4.5625 L 9.234375 4.5625 C 9.804688 6.457031 10.984375 7.984375 12.765625 9.140625 C 14.554688 10.304688 16.707031 10.890625 19.21875 10.890625 C 22.0625 10.890625 24.382812 9.992188 26.1875 8.203125 C 28 6.421875 28.90625 3.914062 28.90625 0.6875 L 28.90625 -5.875 C 27.882812 -4.050781 26.363281 -2.53125 24.34375 -1.3125 C 22.332031 -0.09375 19.976562 0.515625 17.28125 0.515625 C 14.5 0.515625 11.976562 -0.164062 9.71875 -1.53125 C 7.457031 -2.90625 5.679688 -4.828125 4.390625 -7.296875 C 3.097656 -9.765625 2.453125 -12.578125 2.453125 -15.734375 C 2.453125 -18.929688 3.097656 -21.734375 4.390625 -24.140625 C 5.679688 -26.554688 7.457031 -28.425781 9.71875 -29.75 C 11.976562 -31.082031 14.5 -31.75 17.28125 -31.75 Z M 28.90625 -15.671875 C 28.90625 -18.035156 28.429688 -20.085938 27.484375 -21.828125 C 26.535156 -23.578125 25.25 -24.914062 23.625 -25.84375 C 22.007812 -26.78125 20.234375 -27.25 18.296875 -27.25 C 16.359375 -27.25 14.59375 -26.789062 13 -25.875 C 11.40625 -24.96875 10.128906 -23.640625 9.171875 -21.890625 C 8.222656 -20.140625 7.75 -18.085938 7.75 -15.734375 C 7.75 -13.335938 8.222656 -11.253906 9.171875 -9.484375 C 10.128906 -7.722656 11.40625 -6.375 13 -5.4375 C 14.59375 -4.507812 16.359375 -4.046875 18.296875 -4.046875 C 20.234375 -4.046875 22.007812 -4.507812 23.625 -5.4375 C 25.25 -6.375 26.535156 -7.722656 27.484375 -9.484375 C 28.429688 -11.253906 28.90625 -13.316406 28.90625 -15.671875 Z M 28.90625 -15.671875 "/></g></g></g><g fill="#00425c" fill-opacity="1"><g transform="translate(193.792963, 687.570921)"><g><path d="M 2.21875 -7.8125 C 3.507812 -8.832031 4.097656 -9.304688 3.984375 -9.234375 C 7.710938 -12.316406 10.648438 -14.84375 12.796875 -16.8125 C 14.941406 -18.789062 16.753906 -20.863281 18.234375 -23.03125 C 19.722656 -25.195312 20.46875 -27.304688 20.46875 -29.359375 C 20.46875 -30.921875 20.101562 -32.140625 19.375 -33.015625 C 18.65625 -33.890625 17.578125 -34.328125 16.140625 -34.328125 C 14.691406 -34.328125 13.554688 -33.785156 12.734375 -32.703125 C 11.921875 -31.617188 11.515625 -30.085938 11.515625 -28.109375 L 2.109375 -28.109375 C 2.179688 -31.335938 2.875 -34.035156 4.1875 -36.203125 C 5.5 -38.367188 7.226562 -39.960938 9.375 -40.984375 C 11.519531 -42.015625 13.90625 -42.53125 16.53125 -42.53125 C 21.050781 -42.53125 24.460938 -41.367188 26.765625 -39.046875 C 29.066406 -36.734375 30.21875 -33.710938 30.21875 -29.984375 C 30.21875 -25.921875 28.828125 -22.148438 26.046875 -18.671875 C 23.273438 -15.191406 19.742188 -11.800781 15.453125 -8.5 L 30.84375 -8.5 L 30.84375 -0.5625 L 2.21875 -0.5625 Z M 2.21875 -7.8125 "/></g></g></g><g fill="#00425c" fill-opacity="1"><g transform="translate(226.346687, 687.570921)"><g><path d="M 2.90625 -29.875 C 3.0625 -33.945312 4.390625 -37.082031 6.890625 -39.28125 C 9.398438 -41.488281 12.804688 -42.59375 17.109375 -42.59375 C 19.953125 -42.59375 22.390625 -42.097656 24.421875 -41.109375 C 26.460938 -40.117188 28.003906 -38.769531 29.046875 -37.0625 C 30.097656 -35.351562 30.625 -33.429688 30.625 -31.296875 C 30.625 -28.785156 29.992188 -26.742188 28.734375 -25.171875 C 27.484375 -23.597656 26.019531 -22.523438 24.34375 -21.953125 L 24.34375 -21.71875 C 26.507812 -21 28.21875 -19.800781 29.46875 -18.125 C 30.726562 -16.457031 31.359375 -14.3125 31.359375 -11.6875 C 31.359375 -9.332031 30.816406 -7.25 29.734375 -5.4375 C 28.648438 -3.632812 27.070312 -2.21875 25 -1.1875 C 22.925781 -0.164062 20.46875 0.34375 17.625 0.34375 C 13.0625 0.34375 9.421875 -0.773438 6.703125 -3.015625 C 3.984375 -5.265625 2.546875 -8.648438 2.390625 -13.171875 L 11.859375 -13.171875 C 11.898438 -11.492188 12.375 -10.171875 13.28125 -9.203125 C 14.195312 -8.234375 15.53125 -7.75 17.28125 -7.75 C 18.757812 -7.75 19.90625 -8.175781 20.71875 -9.03125 C 21.539062 -9.882812 21.953125 -11.015625 21.953125 -12.421875 C 21.953125 -14.253906 21.367188 -15.578125 20.203125 -16.390625 C 19.046875 -17.210938 17.195312 -17.625 14.65625 -17.625 L 12.828125 -17.625 L 12.828125 -25.546875 L 14.65625 -25.546875 C 16.59375 -25.546875 18.160156 -25.875 19.359375 -26.53125 C 20.554688 -27.195312 21.15625 -28.390625 21.15625 -30.109375 C 21.15625 -31.472656 20.773438 -32.535156 20.015625 -33.296875 C 19.253906 -34.054688 18.207031 -34.4375 16.875 -34.4375 C 15.425781 -34.4375 14.347656 -34 13.640625 -33.125 C 12.941406 -32.25 12.535156 -31.164062 12.421875 -29.875 Z M 2.90625 -29.875 "/></g></g></g><g fill="#00425c" fill-opacity="1"><g transform="translate(260.838812, 687.570921)"><g><path d="M 14.03125 -9.015625 L 7.703125 7.359375 L 1.484375 7.359375 L 4.796875 -9.015625 Z M 14.03125 -9.015625 "/></g></g></g><g fill="#00425c" fill-opacity="1"><g transform="translate(277.201196, 687.570921)"><g><path d="M 13.0625 -12.203125 C 13.625 -9.203125 15.367188 -7.703125 18.296875 -7.703125 C 20.316406 -7.703125 21.742188 -8.59375 22.578125 -10.375 C 23.410156 -12.164062 23.828125 -15.070312 23.828125 -19.09375 C 22.992188 -17.914062 21.851562 -17.003906 20.40625 -16.359375 C 18.96875 -15.710938 17.351562 -15.390625 15.5625 -15.390625 C 13.132812 -15.390625 10.96875 -15.894531 9.0625 -16.90625 C 7.164062 -17.914062 5.675781 -19.414062 4.59375 -21.40625 C 3.507812 -23.40625 2.96875 -25.828125 2.96875 -28.671875 C 2.96875 -31.484375 3.546875 -33.9375 4.703125 -36.03125 C 5.859375 -38.125 7.507812 -39.738281 9.65625 -40.875 C 11.8125 -42.019531 14.351562 -42.59375 17.28125 -42.59375 C 22.90625 -42.59375 26.835938 -40.84375 29.078125 -37.34375 C 31.316406 -33.84375 32.4375 -28.691406 32.4375 -21.890625 C 32.4375 -16.953125 31.988281 -12.875 31.09375 -9.65625 C 30.207031 -6.445312 28.707031 -4.003906 26.59375 -2.328125 C 24.488281 -0.660156 21.609375 0.171875 17.953125 0.171875 C 15.066406 0.171875 12.609375 -0.394531 10.578125 -1.53125 C 8.546875 -2.675781 6.988281 -4.179688 5.90625 -6.046875 C 4.820312 -7.910156 4.203125 -9.960938 4.046875 -12.203125 Z M 17.78125 -23.09375 C 19.382812 -23.09375 20.660156 -23.578125 21.609375 -24.546875 C 22.554688 -25.515625 23.03125 -26.835938 23.03125 -28.515625 C 23.03125 -30.335938 22.535156 -31.738281 21.546875 -32.71875 C 20.554688 -33.707031 19.226562 -34.203125 17.5625 -34.203125 C 15.882812 -34.203125 14.5625 -33.695312 13.59375 -32.6875 C 12.625 -31.6875 12.140625 -30.3125 12.140625 -28.5625 C 12.140625 -26.925781 12.625 -25.601562 13.59375 -24.59375 C 14.5625 -23.59375 15.957031 -23.09375 17.78125 -23.09375 Z M 17.78125 -23.09375 "/></g></g></g><g fill="#00425c" fill-opacity="1"><g transform="translate(312.263442, 687.570921)"><g><path d="M 15.625 -32.265625 C 17.863281 -32.265625 19.828125 -31.804688 21.515625 -30.890625 C 23.210938 -29.984375 24.515625 -28.789062 25.421875 -27.3125 L 25.421875 -31.8125 L 35.171875 -31.8125 L 35.171875 -0.0625 C 35.171875 2.863281 34.59375 5.515625 33.4375 7.890625 C 32.28125 10.265625 30.515625 12.15625 28.140625 13.5625 C 25.765625 14.96875 22.804688 15.671875 19.265625 15.671875 C 14.554688 15.671875 10.738281 14.5625 7.8125 12.34375 C 4.882812 10.125 3.210938 7.113281 2.796875 3.3125 L 12.421875 3.3125 C 12.734375 4.519531 13.457031 5.472656 14.59375 6.171875 C 15.738281 6.878906 17.144531 7.234375 18.8125 7.234375 C 20.832031 7.234375 22.4375 6.65625 23.625 5.5 C 24.820312 4.34375 25.421875 2.488281 25.421875 -0.0625 L 25.421875 -4.5625 C 24.472656 -3.082031 23.160156 -1.875 21.484375 -0.9375 C 19.816406 -0.0078125 17.863281 0.453125 15.625 0.453125 C 13 0.453125 10.617188 -0.21875 8.484375 -1.5625 C 6.359375 -2.914062 4.675781 -4.835938 3.4375 -7.328125 C 2.207031 -9.816406 1.59375 -12.695312 1.59375 -15.96875 C 1.59375 -19.238281 2.207031 -22.109375 3.4375 -24.578125 C 4.675781 -27.046875 6.359375 -28.941406 8.484375 -30.265625 C 10.617188 -31.597656 13 -32.265625 15.625 -32.265625 Z M 25.421875 -15.90625 C 25.421875 -18.34375 24.742188 -20.265625 23.390625 -21.671875 C 22.046875 -23.078125 20.40625 -23.78125 18.46875 -23.78125 C 16.53125 -23.78125 14.882812 -23.082031 13.53125 -21.6875 C 12.1875 -20.300781 11.515625 -18.394531 11.515625 -15.96875 C 11.515625 -13.53125 12.1875 -11.597656 13.53125 -10.171875 C 14.882812 -8.753906 16.53125 -8.046875 18.46875 -8.046875 C 20.40625 -8.046875 22.046875 -8.75 23.390625 -10.15625 C 24.742188 -11.5625 25.421875 -13.476562 25.421875 -15.90625 Z M 25.421875 -15.90625 "/></g></g></g><g fill="#00425c" fill-opacity="1"><g transform="translate(350.974443, 687.570921)"><g/></g></g><g fill="#00425c" fill-opacity="1"><g transform="translate(363.060936, 687.570921)"><g><path d="M 13.28125 -27.3125 C 14.226562 -28.789062 15.539062 -29.984375 17.21875 -30.890625 C 18.894531 -31.804688 20.851562 -32.265625 23.09375 -32.265625 C 25.71875 -32.265625 28.09375 -31.597656 30.21875 -30.265625 C 32.34375 -28.941406 34.023438 -27.046875 35.265625 -24.578125 C 36.503906 -22.109375 37.125 -19.238281 37.125 -15.96875 C 37.125 -12.695312 36.503906 -9.816406 35.265625 -7.328125 C 34.023438 -4.835938 32.34375 -2.914062 30.21875 -1.5625 C 28.09375 -0.21875 25.71875 0.453125 23.09375 0.453125 C 20.882812 0.453125 18.929688 0 17.234375 -0.90625 C 15.546875 -1.820312 14.226562 -3.003906 13.28125 -4.453125 L 13.28125 15.171875 L 3.53125 15.171875 L 3.53125 -31.8125 L 13.28125 -31.8125 Z M 27.203125 -15.96875 C 27.203125 -18.394531 26.523438 -20.300781 25.171875 -21.6875 C 23.816406 -23.082031 22.15625 -23.78125 20.1875 -23.78125 C 18.25 -23.78125 16.601562 -23.078125 15.25 -21.671875 C 13.90625 -20.265625 13.234375 -18.34375 13.234375 -15.90625 C 13.234375 -13.476562 13.90625 -11.5625 15.25 -10.15625 C 16.601562 -8.75 18.25 -8.046875 20.1875 -8.046875 C 22.125 -8.046875 23.773438 -8.753906 25.140625 -10.171875 C 26.515625 -11.597656 27.203125 -13.53125 27.203125 -15.96875 Z M 27.203125 -15.96875 "/></g></g></g><g fill="#00425c" fill-opacity="1"><g transform="translate(401.771926, 687.570921)"><g><path d="M 13.28125 -26.515625 C 14.425781 -28.265625 15.851562 -29.640625 17.5625 -30.640625 C 19.269531 -31.648438 21.171875 -32.15625 23.265625 -32.15625 L 23.265625 -21.84375 L 20.578125 -21.84375 C 18.148438 -21.84375 16.328125 -21.316406 15.109375 -20.265625 C 13.890625 -19.222656 13.28125 -17.390625 13.28125 -14.765625 L 13.28125 0 L 3.53125 0 L 3.53125 -31.8125 L 13.28125 -31.8125 Z M 13.28125 -26.515625 "/></g></g></g><g fill="#00425c" fill-opacity="1"><g transform="translate(426.172971, 687.570921)"><g><path d="M 18.015625 0.453125 C 14.898438 0.453125 12.097656 -0.207031 9.609375 -1.53125 C 7.117188 -2.863281 5.160156 -4.765625 3.734375 -7.234375 C 2.304688 -9.710938 1.59375 -12.601562 1.59375 -15.90625 C 1.59375 -19.175781 2.3125 -22.054688 3.75 -24.546875 C 5.195312 -27.035156 7.175781 -28.941406 9.6875 -30.265625 C 12.195312 -31.597656 15.007812 -32.265625 18.125 -32.265625 C 21.25 -32.265625 24.0625 -31.597656 26.5625 -30.265625 C 29.070312 -28.941406 31.050781 -27.035156 32.5 -24.546875 C 33.945312 -22.054688 34.671875 -19.175781 34.671875 -15.90625 C 34.671875 -12.632812 33.9375 -9.753906 32.46875 -7.265625 C 31.007812 -4.773438 29.015625 -2.863281 26.484375 -1.53125 C 23.953125 -0.207031 21.128906 0.453125 18.015625 0.453125 Z M 18.015625 -7.984375 C 19.878906 -7.984375 21.46875 -8.664062 22.78125 -10.03125 C 24.09375 -11.40625 24.75 -13.363281 24.75 -15.90625 C 24.75 -18.457031 24.109375 -20.414062 22.828125 -21.78125 C 21.554688 -23.144531 19.988281 -23.828125 18.125 -23.828125 C 16.226562 -23.828125 14.648438 -23.148438 13.390625 -21.796875 C 12.140625 -20.453125 11.515625 -18.488281 11.515625 -15.90625 C 11.515625 -13.363281 12.128906 -11.40625 13.359375 -10.03125 C 14.597656 -8.664062 16.148438 -7.984375 18.015625 -7.984375 Z M 18.015625 -7.984375 "/></g></g></g><g fill="#00425c" fill-opacity="1"><g transform="translate(462.489467, 687.570921)"><g><path d="M 21.265625 -8.265625 L 21.265625 0 L 16.3125 0 C 12.769531 0 10.007812 -0.863281 8.03125 -2.59375 C 6.0625 -4.320312 5.078125 -7.144531 5.078125 -11.0625 L 5.078125 -23.71875 L 1.203125 -23.71875 L 1.203125 -31.8125 L 5.078125 -31.8125 L 5.078125 -39.5625 L 14.828125 -39.5625 L 14.828125 -31.8125 L 21.203125 -31.8125 L 21.203125 -23.71875 L 14.828125 -23.71875 L 14.828125 -10.953125 C 14.828125 -9.992188 15.050781 -9.304688 15.5 -8.890625 C 15.957031 -8.472656 16.71875 -8.265625 17.78125 -8.265625 Z M 21.265625 -8.265625 "/></g></g></g><g fill="#00425c" fill-opacity="1"><g transform="translate(485.636241, 687.570921)"><g><path d="M 33.53125 -16.421875 C 33.53125 -15.503906 33.472656 -14.550781 33.359375 -13.5625 L 11.296875 -13.5625 C 11.441406 -11.59375 12.070312 -10.082031 13.1875 -9.03125 C 14.3125 -7.988281 15.691406 -7.46875 17.328125 -7.46875 C 19.765625 -7.46875 21.457031 -8.492188 22.40625 -10.546875 L 32.78125 -10.546875 C 32.25 -8.453125 31.289062 -6.566406 29.90625 -4.890625 C 28.519531 -3.222656 26.78125 -1.914062 24.6875 -0.96875 C 22.59375 -0.0195312 20.253906 0.453125 17.671875 0.453125 C 14.554688 0.453125 11.78125 -0.207031 9.34375 -1.53125 C 6.914062 -2.863281 5.015625 -4.765625 3.640625 -7.234375 C 2.273438 -9.710938 1.59375 -12.601562 1.59375 -15.90625 C 1.59375 -19.21875 2.265625 -22.109375 3.609375 -24.578125 C 4.960938 -27.046875 6.851562 -28.941406 9.28125 -30.265625 C 11.71875 -31.597656 14.515625 -32.265625 17.671875 -32.265625 C 20.753906 -32.265625 23.492188 -31.617188 25.890625 -30.328125 C 28.285156 -29.035156 30.15625 -27.191406 31.5 -24.796875 C 32.851562 -22.398438 33.53125 -19.609375 33.53125 -16.421875 Z M 23.546875 -18.984375 C 23.546875 -20.660156 22.972656 -21.988281 21.828125 -22.96875 C 20.691406 -23.957031 19.269531 -24.453125 17.5625 -24.453125 C 15.925781 -24.453125 14.546875 -23.976562 13.421875 -23.03125 C 12.304688 -22.082031 11.613281 -20.734375 11.34375 -18.984375 Z M 23.546875 -18.984375 "/></g></g></g><g fill="#00425c" fill-opacity="1"><g transform="translate(520.755502, 687.570921)"><g><path d="M 14.03125 -31.8125 L 14.03125 0 L 4.28125 0 L 4.28125 -31.8125 Z M 15.796875 -39.734375 L 2.046875 -33.984375 L 2.046875 -40.703125 L 15.796875 -47.328125 Z M 15.796875 -39.734375 "/></g></g></g><g fill="#00425c" fill-opacity="1"><g transform="translate(539.056297, 687.570921)"><g><path d="M 22.921875 -32.15625 C 26.648438 -32.15625 29.625 -30.945312 31.84375 -28.53125 C 34.0625 -26.125 35.171875 -22.8125 35.171875 -18.59375 L 35.171875 0 L 25.484375 0 L 25.484375 -17.28125 C 25.484375 -19.40625 24.929688 -21.054688 23.828125 -22.234375 C 22.722656 -23.410156 21.242188 -24 19.390625 -24 C 17.523438 -24 16.039062 -23.410156 14.9375 -22.234375 C 13.832031 -21.054688 13.28125 -19.40625 13.28125 -17.28125 L 13.28125 0 L 3.53125 0 L 3.53125 -31.8125 L 13.28125 -31.8125 L 13.28125 -27.59375 C 14.269531 -29 15.597656 -30.109375 17.265625 -30.921875 C 18.941406 -31.742188 20.828125 -32.15625 22.921875 -32.15625 Z M 22.921875 -32.15625 "/></g></g></g><g fill="#00425c" fill-opacity="1"><g transform="translate(577.482237, 687.570921)"><g><path d="M 1.59375 -15.96875 C 1.59375 -19.238281 2.207031 -22.109375 3.4375 -24.578125 C 4.675781 -27.046875 6.359375 -28.941406 8.484375 -30.265625 C 10.617188 -31.597656 13 -32.265625 15.625 -32.265625 C 17.863281 -32.265625 19.828125 -31.804688 21.515625 -30.890625 C 23.210938 -29.984375 24.515625 -28.789062 25.421875 -27.3125 L 25.421875 -31.8125 L 35.171875 -31.8125 L 35.171875 0 L 25.421875 0 L 25.421875 -4.5 C 24.472656 -3.019531 23.148438 -1.820312 21.453125 -0.90625 C 19.765625 0 17.800781 0.453125 15.5625 0.453125 C 12.976562 0.453125 10.617188 -0.21875 8.484375 -1.5625 C 6.359375 -2.914062 4.675781 -4.835938 3.4375 -7.328125 C 2.207031 -9.816406 1.59375 -12.695312 1.59375 -15.96875 Z M 25.421875 -15.90625 C 25.421875 -18.34375 24.742188 -20.265625 23.390625 -21.671875 C 22.046875 -23.078125 20.40625 -23.78125 18.46875 -23.78125 C 16.53125 -23.78125 14.882812 -23.082031 13.53125 -21.6875 C 12.1875 -20.300781 11.515625 -18.394531 11.515625 -15.96875 C 11.515625 -13.53125 12.1875 -11.597656 13.53125 -10.171875 C 14.882812 -8.753906 16.53125 -8.046875 18.46875 -8.046875 C 20.40625 -8.046875 22.046875 -8.75 23.390625 -10.15625 C 24.742188 -11.5625 25.421875 -13.476562 25.421875 -15.90625 Z M 25.421875 -15.90625 "/></g></g></g></svg>