<svg xmlns="http://www.w3.org/2000/svg" xmlns:xlink="http://www.w3.org/1999/xlink" width="1080" zoomAndPan="magnify" viewBox="0 0 810 809.999993" height="1080" preserveAspectRatio="xMidYMid meet" version="1.0"><defs><g/><clipPath id="100afffacb"><path d="M 82.347656 0.00390625 L 727.347656 0.00390625 L 727.347656 810 L 82.347656 810 Z M 82.347656 0.00390625 " clip-rule="nonzero"/></clipPath><clipPath id="3e39c6da18"><path d="M 119.847656 0.00390625 L 690.140625 0.00390625 C 700.089844 0.00390625 709.625 3.957031 716.660156 10.988281 C 723.691406 18.023438 727.640625 27.558594 727.640625 37.503906 L 727.640625 772.496094 C 727.640625 782.441406 723.691406 791.976562 716.660156 799.011719 C 709.625 806.042969 700.089844 809.996094 690.140625 809.996094 L 119.847656 809.996094 C 109.902344 809.996094 100.363281 806.042969 93.332031 799.011719 C 86.300781 791.976562 82.347656 782.441406 82.347656 772.496094 L 82.347656 37.503906 C 82.347656 27.558594 86.300781 18.023438 93.332031 10.988281 C 100.363281 3.957031 109.902344 0.00390625 119.847656 0.00390625 Z M 119.847656 0.00390625 " clip-rule="nonzero"/></clipPath><clipPath id="9b1d964309"><path d="M 243.015625 120.257812 L 566.960938 120.257812 L 566.960938 364.757812 L 243.015625 364.757812 Z M 243.015625 120.257812 " clip-rule="nonzero"/></clipPath></defs><g clip-path="url(#100afffacb)"><g clip-path="url(#3e39c6da18)"><path stroke-linecap="butt" transform="matrix(0.75, 0, 0, 0.75, 82.349025, 0.00567356)" fill="none" stroke-linejoin="miter" d="M 49.998178 -0.00235641 L 810.388841 -0.00235641 C 823.654466 -0.00235641 836.368009 5.268477 845.748218 14.643478 C 855.123218 24.023686 860.388843 36.737229 860.388843 49.997646 L 860.388843 1029.987279 C 860.388843 1043.247696 855.123218 1055.966447 845.748218 1065.341447 C 836.368009 1074.716448 823.654466 1079.987281 810.388841 1079.987281 L 49.998178 1079.987281 C 36.73776 1079.987281 24.01901 1074.716448 14.644009 1065.341447 C 5.269009 1055.966447 -0.00182494 1043.247696 -0.00182494 1029.987279 L -0.00182494 49.997646 C -0.00182494 36.737229 5.269009 24.023686 14.644009 14.643478 C 24.01901 5.268477 36.73776 -0.00235641 49.998178 -0.00235641 Z M 49.998178 -0.00235641 " stroke="#00425c" stroke-width="8" stroke-opacity="1" stroke-miterlimit="4"/></g></g><path fill="#00425c" d="M 400.558594 193.878906 C 391.378906 199.867188 384.296875 208.625 377.742188 217.324219 C 385.832031 209.636719 392.628906 201.667969 400.558594 193.878906 " fill-opacity="1" fill-rule="evenodd"/><path fill="#00425c" d="M 268.777344 212.1875 C 274.722656 206.503906 279.273438 204.5 286.980469 201.6875 C 278.28125 201.402344 272.296875 203.972656 268.777344 212.1875 " fill-opacity="1" fill-rule="evenodd"/><g clip-path="url(#9b1d964309)"><path fill="#00425c" d="M 554.289062 284.074219 C 542.214844 333.917969 498.035156 346.636719 450.664062 354.691406 C 406.707031 362.152344 363.261719 358.027344 350.941406 350.664062 C 341.695312 345.160156 342.890625 298.597656 343.398438 277.339844 C 343.476562 274.890625 343.515625 272.808594 343.558594 271.089844 C 343.570312 270.191406 343.632812 269.34375 343.730469 268.535156 C 351.386719 269.988281 372.785156 271.027344 375.640625 267.46875 C 374.367188 265.847656 370.09375 265.949219 369.472656 265.847656 C 361.128906 264.46875 352.648438 261.320312 349.589844 257.460938 C 352.980469 254.335938 357.519531 251.773438 362.492188 248.414062 C 363.867188 247.484375 365.34375 246.492188 367.609375 244.894531 C 379.886719 236.339844 414.335938 196.207031 425.296875 183.261719 C 427.726562 180.382812 426.648438 177.570312 425.277344 176.132812 C 425.308594 176.054688 425.324219 175.980469 425.316406 175.917969 C 425.289062 175.679688 424.964844 175.539062 424.464844 175.457031 C 424.265625 175.335938 424.074219 175.242188 423.902344 175.191406 C 423.65625 175.117188 423.320312 175.195312 422.929688 175.378906 C 421.023438 175.402344 418.433594 175.710938 416.945312 175.816406 C 399.125 177.152344 310.789062 186.757812 284.128906 191.9375 C 281.359375 192.476562 278.71875 192.652344 276.28125 192.75 C 276.21875 192.726562 244.5625 188.640625 267.015625 162.203125 C 268.152344 160.886719 269.363281 159.613281 270.660156 158.402344 C 294.019531 136.535156 345.722656 125.753906 400.378906 124.664062 C 433.410156 124.011719 466.257812 129.273438 491.929688 135.886719 C 510.527344 142.089844 527.957031 148.324219 540.222656 159.367188 C 541.777344 161.421875 543.195312 163.53125 544.457031 165.441406 C 552.371094 177.355469 554.492188 189.308594 549.898438 205.246094 C 535.699219 254.542969 449.167969 268.539062 405.617188 269.816406 C 396.351562 270.078125 403.957031 269.714844 394.855469 270.199219 C 442.429688 277.136719 541.203125 260.914062 557.363281 208.097656 C 557.515625 207.613281 557.65625 207.125 557.789062 206.636719 C 557.738281 208.417969 557.664062 210.269531 557.585938 212.207031 C 557.285156 219.710938 556.898438 228.488281 557.625 239.269531 C 558.597656 253.695312 557.808594 269.488281 554.289062 284.074219 Z M 328.652344 201.886719 C 329.160156 203.101562 329.011719 204.117188 328.628906 205.875 C 329.566406 205.773438 330.097656 204.984375 330.269531 204.027344 C 330.777344 205.917969 330.097656 207.984375 327.050781 206.867188 C 326.40625 206.402344 325.941406 205.550781 325.941406 204.234375 C 325.941406 201.570312 327.566406 201.464844 328.652344 201.886719 Z M 269.445312 287.941406 C 267.21875 286.5 265.5625 282.4375 263.660156 274.730469 C 261.394531 265.507812 257.53125 241.011719 259.511719 221.773438 C 260.785156 209.71875 265.703125 201.644531 270.921875 199.90625 L 272.054688 199.542969 C 276.058594 198.167969 277.980469 197.519531 284.957031 196.1875 C 311.335938 191.066406 399.265625 181.480469 417.207031 180.125 C 417.34375 180.117188 417.492188 180.097656 417.640625 180.070312 C 417.628906 180.082031 417.621094 180.09375 417.609375 180.105469 C 416.878906 180.976562 416.015625 181.996094 415.046875 183.132812 C 392.589844 182.546875 310.277344 193.523438 290.417969 200.496094 C 330.75 193.769531 374.28125 187.785156 414.933594 183.265625 C 413.773438 184.632812 412.457031 186.179688 411.019531 187.855469 C 380.738281 189.386719 313.261719 198.785156 295.558594 205.023438 C 305.308594 203.398438 315.246094 201.816406 325.289062 200.285156 C 324.886719 200.535156 324.527344 200.828125 324.242188 201.140625 C 323.492188 201.992188 323.046875 203.144531 323.046875 204.398438 C 323.046875 205.023438 323.125 205.636719 323.285156 206.199219 C 303.90625 218.539062 283.519531 230.371094 267.804688 247.320312 C 286.007812 233.265625 306.496094 221.269531 323.285156 206.203125 C 323.457031 206.8125 323.730469 207.367188 324.121094 207.796875 C 324.625 208.382812 325.191406 208.769531 325.738281 209.011719 C 329.824219 211.621094 335.972656 205.511719 331.90625 200.960938 C 331.503906 200.515625 331.019531 200.148438 330.429688 199.90625 C 330.234375 199.78125 330.027344 199.683594 329.8125 199.601562 C 345.132812 197.296875 360.65625 195.117188 376.089844 193.105469 C 359.503906 201.722656 333.367188 218.886719 321.207031 228.996094 C 334.757812 222.820312 362.824219 203.453125 378.035156 192.855469 C 388.816406 191.457031 399.535156 190.140625 410.101562 188.925781 C 395.914062 205.449219 371.109375 233.609375 361.277344 240.484375 C 359.945312 241.433594 358.019531 242.710938 356.21875 243.941406 C 344.40625 251.933594 335.789062 256 335.566406 271.027344 C 335.546875 272.585938 335.488281 274.710938 335.425781 277.214844 C 335.398438 278.433594 335.363281 279.742188 335.332031 281.125 C 320.011719 283.574219 275.21875 291.65625 269.445312 287.941406 Z M 247.3125 228.730469 L 247.335938 227.195312 C 247.421875 213.222656 249.398438 199.039062 251.628906 193.21875 C 253.960938 196.136719 256.90625 198.117188 259.140625 199.324219 C 255.851562 204.375 253.886719 212.320312 252.9375 221.328125 C 250.894531 241.03125 254.292969 266.253906 256.660156 275.761719 C 256.867188 276.59375 257.074219 277.378906 257.285156 278.132812 C 247.808594 267.179688 248.9375 252.519531 247.3125 228.730469 Z M 566.488281 238.90625 C 565.757812 228.328125 566.121094 219.769531 566.445312 212.429688 C 566.710938 205.550781 566.953125 199.746094 566.285156 194.347656 L 566.101562 192.75 C 562.929688 166.269531 542.496094 147.417969 516.363281 136.578125 C 477.507812 120.453125 426.085938 119.847656 400.296875 120.371094 C 344.710938 121.464844 286.941406 132.609375 262.75 155.265625 C 261.269531 156.621094 259.9375 158.015625 258.722656 159.433594 C 252.800781 166.414062 249.710938 172.339844 248.480469 177.335938 L 248.46875 177.335938 C 248.449219 177.375 243.25 187.445312 243.027344 227.171875 L 243.027344 228.710938 C 242.832031 257.421875 245.140625 281.117188 265.003906 292.320312 C 266.964844 293.679688 268.898438 293.953125 270.660156 294.1875 C 271.246094 294.269531 271.828125 294.351562 272.257812 294.472656 C 275.917969 295.542969 320.898438 289.859375 335.195312 288.015625 C 334.796875 312.894531 335.328125 351.753906 345.578125 357.867188 C 358.808594 365.773438 406.464844 367.675781 451.554688 360.007812 C 498.320312 352.039062 550.972656 336.75 563.390625 285.351562 C 567.09375 270.117188 567.5 253.773438 566.488281 238.90625 " fill-opacity="1" fill-rule="evenodd"/></g><path fill="#00425c" d="M 296.953125 232.695312 C 298.304688 231.1875 300.113281 230.167969 302.125 229.925781 C 304.410156 233.851562 303.445312 238.101562 301.523438 241.921875 C 306.503906 239 304.871094 231.449219 302.898438 229.875 C 302.953125 229.875 303.007812 229.867188 303.0625 229.867188 C 303.34375 229.867188 303.566406 229.886719 303.832031 229.90625 C 304.898438 230.273438 305.703125 230.976562 306.628906 231.992188 C 307.859375 236.914062 305.832031 243.550781 300.859375 246.332031 C 306.5625 246.277344 308.371094 238.980469 307.910156 233.808594 C 311.691406 240.699219 306.15625 249.347656 300.453125 248.835938 C 299.21875 248.453125 298.046875 247.644531 296.953125 246.25 C 295.417969 244.507812 294.445312 242.121094 294.445312 239.472656 C 294.445312 236.824219 295.417969 234.4375 296.953125 232.695312 Z M 301.21875 252.621094 C 304.839844 253.570312 308.421875 252.339844 310.972656 249.546875 C 315.058594 245.035156 316.492188 236.398438 311.152344 230.390625 C 309.394531 228.429688 307.089844 227.113281 304.5 226.75 C 303.648438 226.527344 302.796875 226.40625 301.929688 226.40625 C 298.753906 226.40625 295.902344 227.84375 293.839844 230.167969 C 291.753906 232.476562 290.480469 235.6875 290.480469 239.25 C 290.480469 242.8125 291.753906 246.003906 293.839844 248.332031 C 296.144531 250.921875 298.714844 252.277344 301.21875 252.621094 " fill-opacity="1" fill-rule="evenodd"/><path fill="#00425c" d="M 279.355469 268.054688 C 278.445312 268.296875 277.375 268.320312 276.402344 267.953125 C 275.410156 267.226562 274.703125 265.929688 274.703125 263.910156 C 274.703125 262.453125 275.230469 261.117188 276.058594 260.183594 C 276.550781 259.640625 277.085938 259.238281 277.640625 258.972656 C 278.5625 261.023438 277.964844 262.96875 276.828125 265.160156 C 278.710938 265.761719 280.269531 260.875 278.78125 258.636719 C 278.90625 258.621094 279.027344 258.613281 279.148438 258.613281 C 279.925781 258.988281 280.703125 259.445312 280.671875 259.824219 C 280.671875 259.84375 280.671875 259.84375 280.648438 259.84375 C 280.144531 264.011719 281.355469 263.242188 278.808594 266.335938 C 281.347656 265.449219 282.191406 263.566406 282.097656 261.75 C 282.980469 264.886719 281.851562 267.394531 279.355469 268.054688 Z M 281.621094 257.273438 C 280.691406 256.667969 279.597656 256.320312 278.464844 256.320312 C 276.726562 256.320312 275.148438 257.109375 274.015625 258.382812 C 272.863281 259.660156 272.15625 261.441406 272.15625 263.382812 C 272.15625 265.34375 272.640625 267.328125 273.792969 268.601562 C 274.5625 269.46875 275.429688 270.097656 276.300781 270.460938 C 278.933594 272.140625 281.925781 271.472656 283.765625 269.449219 C 286.050781 266.941406 286.820312 262.210938 283.886719 258.890625 C 283.238281 258.183594 282.46875 257.636719 281.621094 257.273438 " fill-opacity="1" fill-rule="evenodd"/><path fill="#00425c" d="M 283.746094 219.832031 C 282.753906 219.105469 282.046875 217.8125 282.046875 215.765625 C 282.046875 214.308594 282.550781 213.015625 283.402344 212.042969 C 284.207031 211.152344 285.128906 210.636719 286.066406 210.507812 C 287.765625 212.269531 287.175781 214.707031 286.554688 217.527344 C 287.800781 218.054688 289.042969 213.488281 287.976562 210.890625 C 288.167969 211.058594 288.359375 211.230469 288.539062 211.4375 C 289.9375 214.003906 290.058594 216.371094 289.195312 217.976562 C 287.964844 218.6875 286.789062 219.386719 285.652344 220.078125 C 285.015625 220.117188 284.363281 220.050781 283.746094 219.832031 Z M 291.109375 221.308594 C 292.210938 220.089844 292.960938 218.320312 293.097656 216.449219 C 294.28125 215.570312 295.5 214.652344 296.792969 213.664062 C 295.5 214.386719 294.292969 215.070312 293.117188 215.734375 C 293.09375 214.007812 292.53125 212.246094 291.207031 210.769531 C 290.582031 210.082031 289.8125 209.496094 288.945312 209.152344 C 288.015625 208.546875 286.941406 208.179688 285.789062 208.179688 C 284.046875 208.179688 282.492188 208.992188 281.355469 210.265625 C 280.207031 211.539062 279.5 213.296875 279.5 215.261719 C 279.5 217.203125 279.984375 219.183594 281.136719 220.476562 C 281.648438 221.0625 282.210938 221.515625 282.789062 221.871094 C 277.523438 225.265625 272.785156 228.9375 266.652344 234.738281 C 273.449219 229.917969 278.652344 226.585938 284.324219 222.695312 C 286.777344 223.871094 289.40625 223.175781 291.109375 221.308594 " fill-opacity="1" fill-rule="evenodd"/><path fill="#00425c" d="M 351.632812 224.902344 C 352.773438 226.742188 352.484375 228.058594 352.378906 230.65625 C 353.464844 229.800781 353.894531 228.476562 353.84375 227.238281 C 354.847656 230.023438 354.253906 233.644531 350.113281 231.96875 C 349.28125 231.300781 348.714844 230.128906 348.714844 228.308594 C 348.714844 224.992188 350.332031 224.542969 351.632812 224.902344 Z M 348.472656 234.941406 C 353.511719 238.5625 361.199219 230.085938 356.140625 223.777344 C 355.632812 223.128906 355.007812 222.644531 354.300781 222.296875 C 351.992188 220.601562 348.332031 221.917969 346.613281 224.019531 C 345.703125 225.191406 345.113281 226.789062 345.113281 228.550781 C 345.113281 230.328125 345.523438 232.109375 346.449219 233.285156 C 347.078125 234.074219 347.765625 234.597656 348.472656 234.941406 " fill-opacity="1" fill-rule="evenodd"/><path fill="#00425c" d="M 484.527344 270.238281 C 483.675781 270.542969 465.714844 274.285156 470.75 274.769531 C 470.667969 274.75 470.140625 274.488281 470.125 274.363281 C 470.425781 274.082031 482.886719 271.777344 484.90625 271.109375 C 507.90625 263.746094 545.957031 250.984375 555.804688 226.347656 C 543.550781 249.6875 507.847656 261.964844 484.527344 270.238281 " fill-opacity="1" fill-rule="evenodd"/><path fill="#00425c" d="M 546.277344 253.390625 L 551.984375 246.550781 C 532.707031 265.847656 506.453125 278.191406 479.507812 282.035156 C 502.40625 280.878906 529.8125 269.835938 546.277344 253.390625 " fill-opacity="1" fill-rule="evenodd"/><path fill="#00425c" d="M 533.675781 268.296875 C 517.941406 280.738281 511.609375 281.34375 493.242188 287.371094 C 510.71875 284.398438 521.21875 281.507812 533.675781 268.296875 " fill-opacity="1" fill-rule="evenodd"/><path fill="#00425c" d="M 487.519531 320.179688 C 504.855469 317.027344 510.234375 313.285156 524.917969 304.140625 C 511.769531 310.207031 501.453125 315.792969 487.519531 320.179688 " fill-opacity="1" fill-rule="evenodd"/><path fill="#00425c" d="M 514.96875 322.972656 C 493.261719 337.089844 482.726562 335.453125 461.203125 343.445312 C 483.085938 339.015625 496.78125 338.53125 516.058594 324.632812 C 523.320312 319.394531 524.496094 316.601562 529.105469 309.117188 C 524.089844 315.003906 521.5 318.742188 514.96875 322.972656 " fill-opacity="1" fill-rule="evenodd"/><path fill="#00425c" d="M 369.269531 278.210938 C 359.398438 275.476562 364.351562 275.71875 354.378906 277.460938 C 364.191406 279.339844 359.253906 279.078125 369.269531 278.210938 " fill-opacity="1" fill-rule="evenodd"/><path fill="#00425c" d="M 369.652344 291.941406 C 359.4375 289.109375 364.636719 289.414062 353.996094 291.175781 C 364.515625 292.972656 359.316406 292.753906 369.652344 291.941406 " fill-opacity="1" fill-rule="evenodd"/><path fill="#00425c" d="M 383.75 314.457031 C 371.671875 314.171875 368.882812 314.4375 353.996094 314.457031 C 367.386719 316.195312 370.398438 316.195312 383.75 314.457031 " fill-opacity="1" fill-rule="evenodd"/><path fill="#00425c" d="M 353.996094 335.046875 C 364.714844 337.050781 391.496094 337.535156 402.074219 335.433594 C 391.78125 336.101562 363.117188 334.929688 353.996094 335.046875 " fill-opacity="1" fill-rule="evenodd"/><path fill="#00425c" d="M 360.105469 346.113281 C 371.714844 348.660156 365.648438 348.15625 378.429688 347.246094 C 365.910156 344.777344 372 345.019531 360.105469 346.113281 " fill-opacity="1" fill-rule="evenodd"/><path fill="#00425c" d="M 426.128906 206.421875 C 432.011719 200.695312 428.917969 204.117188 434.117188 197.722656 L 429.648438 201.527344 C 410.308594 217.730469 397.808594 233.648438 379.945312 250.355469 C 397.808594 238.644531 410.894531 221.167969 426.128906 206.421875 " fill-opacity="1" fill-rule="evenodd"/><path fill="#00425c" d="M 409.703125 238.160156 C 419.554688 228.488281 429.019531 220.015625 438.707031 209.917969 C 424.105469 220.074219 419.796875 223.308594 409.703125 238.160156 " fill-opacity="1" fill-rule="evenodd"/><path fill="#00425c" d="M 425.335938 234.355469 C 432.054688 229.539062 429.203125 232.554688 433.734375 225.191406 C 426.671875 230.109375 429.421875 227.035156 425.335938 234.355469 " fill-opacity="1" fill-rule="evenodd"/><path fill="#00425c" d="M 465.390625 254.582031 C 485.496094 254.320312 524.230469 235.792969 536.328125 218.84375 C 541.445312 211.679688 547.980469 202.457031 547.414062 193.539062 C 545.894531 202.738281 540.351562 210.367188 534.75 217.6875 C 522.269531 233.929688 484.96875 251.003906 465.390625 254.582031 " fill-opacity="1" fill-rule="evenodd"/><path fill="#00425c" d="M 287.246094 276.308594 C 307.554688 263.625 325.777344 247.097656 343.316406 230.917969 C 323.898438 243.984375 304.984375 260.875 287.246094 276.308594 " fill-opacity="1" fill-rule="evenodd"/><path fill="#00425c" d="M 334.535156 251.507812 C 324.199219 258.40625 320.011719 262.332031 311.273438 270.96875 C 322.722656 264.675781 326.101562 261.320312 334.535156 251.507812 " fill-opacity="1" fill-rule="evenodd"/><path fill="#00425c" d="M 372.324219 221.371094 L 369.289062 221.835938 L 367.75 224.445312 L 370.765625 224.097656 L 372.324219 221.371094 " fill-opacity="1" fill-rule="evenodd"/><path fill="#00425c" d="M 267.175781 170.191406 C 265.601562 174.179688 264.0625 180.832031 268.554688 183.625 C 267.925781 182.433594 267.300781 181.441406 267.097656 180.085938 C 264.996094 166.085938 285.039062 153.242188 295.273438 148.125 C 282.816406 151.601562 272.316406 157.410156 267.175781 170.191406 " fill-opacity="1" fill-rule="evenodd"/><path fill="#00425c" d="M 335.710938 136.3125 L 332.554688 135.644531 L 329.984375 137.445312 L 333.140625 138.292969 L 335.710938 136.3125 " fill-opacity="1" fill-rule="evenodd"/><path fill="#00425c" d="M 499.328125 144.34375 C 488.75 140.664062 479.832031 138.375 468.847656 135.683594 C 449.695312 130.972656 409.765625 128.363281 390.628906 132.507812 C 411.320312 131.398438 448.316406 133.398438 468.382812 137.6875 C 477.929688 139.75 489.925781 142.886719 499.328125 144.34375 " fill-opacity="1" fill-rule="evenodd"/><path fill="#00425c" d="M 540.917969 186.660156 C 545.917969 176.746094 535.316406 160.117188 526.054688 156.519531 C 533.878906 163.679688 541.023438 175.777344 540.917969 186.660156 " fill-opacity="1" fill-rule="evenodd"/><path fill="#00425c" d="M 406.648438 278.59375 C 420.421875 280.414062 449.449219 278.371094 461.585938 275.152344 C 446.660156 276.855469 421.375 277.867188 406.648438 278.59375 " fill-opacity="1" fill-rule="evenodd"/><path fill="#00425c" d="M 454.324219 256.097656 C 447.589844 256.160156 446.820312 256.828125 440.609375 258.382812 C 446.679688 260.507812 449.066406 259.601562 454.324219 256.097656 " fill-opacity="1" fill-rule="evenodd"/><path fill="#00425c" d="M 281.902344 174.84375 C 297.175781 166.371094 314.125 151.765625 328.042969 140.722656 C 309.492188 150.875 297.765625 161.414062 281.902344 174.84375 " fill-opacity="1" fill-rule="evenodd"/><path fill="#00425c" d="M 347.15625 143.554688 C 327.316406 154.292969 309.332031 165.703125 292.585938 180.9375 C 310.34375 169.421875 330.613281 156.5 347.15625 143.554688 " fill-opacity="1" fill-rule="evenodd"/><g fill="#00425c" fill-opacity="1"><g transform="translate(282.193348, 528.570809)"><g><path d="M 32.046875 6.84375 L 26.90625 -0.0625 C 25.382812 0.25 23.90625 0.40625 22.46875 0.40625 C 18.695312 0.40625 15.242188 -0.46875 12.109375 -2.21875 C 8.972656 -3.96875 6.484375 -6.410156 4.640625 -9.546875 C 2.796875 -12.679688 1.875 -16.207031 1.875 -20.125 C 1.875 -24.039062 2.796875 -27.554688 4.640625 -30.671875 C 6.484375 -33.785156 8.972656 -36.21875 12.109375 -37.96875 C 15.242188 -39.71875 18.695312 -40.59375 22.46875 -40.59375 C 26.226562 -40.59375 29.675781 -39.71875 32.8125 -37.96875 C 35.945312 -36.21875 38.414062 -33.785156 40.21875 -30.671875 C 42.03125 -27.554688 42.9375 -24.039062 42.9375 -20.125 C 42.9375 -16.707031 42.238281 -13.582031 40.84375 -10.75 C 39.457031 -7.914062 37.53125 -5.566406 35.0625 -3.703125 L 43.84375 6.84375 Z M 11.859375 -20.125 C 11.859375 -16.59375 12.816406 -13.769531 14.734375 -11.65625 C 16.660156 -9.550781 19.238281 -8.5 22.46875 -8.5 C 25.65625 -8.5 28.207031 -9.5625 30.125 -11.6875 C 32.050781 -13.8125 33.015625 -16.625 33.015625 -20.125 C 33.015625 -23.65625 32.050781 -26.472656 30.125 -28.578125 C 28.207031 -30.691406 25.65625 -31.75 22.46875 -31.75 C 19.238281 -31.75 16.660156 -30.703125 14.734375 -28.609375 C 12.816406 -26.523438 11.859375 -23.695312 11.859375 -20.125 Z M 11.859375 -20.125 "/></g></g></g><g fill="#00425c" fill-opacity="1"><g transform="translate(327.118627, 528.570809)"><g><path d="M 13.109375 -40.03125 L 13.109375 -16.078125 C 13.109375 -13.679688 13.695312 -11.835938 14.875 -10.546875 C 16.0625 -9.253906 17.789062 -8.609375 20.0625 -8.609375 C 22.34375 -8.609375 24.09375 -9.253906 25.3125 -10.546875 C 26.53125 -11.835938 27.140625 -13.679688 27.140625 -16.078125 L 27.140625 -40.03125 L 36.890625 -40.03125 L 36.890625 -16.140625 C 36.890625 -12.566406 36.128906 -9.539062 34.609375 -7.0625 C 33.085938 -4.59375 31.039062 -2.726562 28.46875 -1.46875 C 25.90625 -0.21875 23.050781 0.40625 19.90625 0.40625 C 16.75 0.40625 13.925781 -0.210938 11.4375 -1.453125 C 8.945312 -2.691406 6.976562 -4.554688 5.53125 -7.046875 C 4.082031 -9.535156 3.359375 -12.566406 3.359375 -16.140625 L 3.359375 -40.03125 Z M 13.109375 -40.03125 "/></g></g></g><g fill="#00425c" fill-opacity="1"><g transform="translate(367.311935, 528.570809)"><g><path d="M 13.28125 -32.21875 L 13.28125 -24.125 L 26.34375 -24.125 L 26.34375 -16.59375 L 13.28125 -16.59375 L 13.28125 -7.8125 L 28.046875 -7.8125 L 28.046875 0 L 3.53125 0 L 3.53125 -40.03125 L 28.046875 -40.03125 L 28.046875 -32.21875 Z M 13.28125 -32.21875 "/></g></g></g><g fill="#00425c" fill-opacity="1"><g transform="translate(398.155306, 528.570809)"><g><path d="M 13.28125 -40.03125 L 13.28125 0 L 3.53125 0 L 3.53125 -40.03125 Z M 13.28125 -40.03125 "/></g></g></g><g fill="#00425c" fill-opacity="1"><g transform="translate(414.973783, 528.570809)"><g><path d="M 28.625 -40.03125 L 28.625 -12.765625 C 28.625 -8.546875 27.4375 -5.296875 25.0625 -3.015625 C 22.6875 -0.734375 19.484375 0.40625 15.453125 0.40625 C 11.234375 0.40625 7.847656 -0.789062 5.296875 -3.1875 C 2.753906 -5.582031 1.484375 -8.988281 1.484375 -13.40625 L 11.171875 -13.40625 C 11.171875 -11.726562 11.515625 -10.460938 12.203125 -9.609375 C 12.890625 -8.753906 13.878906 -8.328125 15.171875 -8.328125 C 16.347656 -8.328125 17.257812 -8.707031 17.90625 -9.46875 C 18.550781 -10.226562 18.875 -11.328125 18.875 -12.765625 L 18.875 -40.03125 Z M 28.625 -40.03125 "/></g></g></g><g fill="#00425c" fill-opacity="1"><g transform="translate(447.926597, 528.570809)"><g><path d="M 22.46875 0.40625 C 18.695312 0.40625 15.242188 -0.46875 12.109375 -2.21875 C 8.972656 -3.96875 6.484375 -6.410156 4.640625 -9.546875 C 2.796875 -12.679688 1.875 -16.207031 1.875 -20.125 C 1.875 -24.039062 2.796875 -27.554688 4.640625 -30.671875 C 6.484375 -33.785156 8.972656 -36.21875 12.109375 -37.96875 C 15.242188 -39.71875 18.695312 -40.59375 22.46875 -40.59375 C 26.226562 -40.59375 29.675781 -39.71875 32.8125 -37.96875 C 35.945312 -36.21875 38.414062 -33.785156 40.21875 -30.671875 C 42.03125 -27.554688 42.9375 -24.039062 42.9375 -20.125 C 42.9375 -16.207031 42.019531 -12.679688 40.1875 -9.546875 C 38.363281 -6.410156 35.894531 -3.96875 32.78125 -2.21875 C 29.664062 -0.46875 26.226562 0.40625 22.46875 0.40625 Z M 22.46875 -8.5 C 25.65625 -8.5 28.207031 -9.5625 30.125 -11.6875 C 32.050781 -13.8125 33.015625 -16.625 33.015625 -20.125 C 33.015625 -23.65625 32.050781 -26.472656 30.125 -28.578125 C 28.207031 -30.691406 25.65625 -31.75 22.46875 -31.75 C 19.238281 -31.75 16.660156 -30.703125 14.734375 -28.609375 C 12.816406 -26.523438 11.859375 -23.695312 11.859375 -20.125 C 11.859375 -16.59375 12.816406 -13.769531 14.734375 -11.65625 C 16.660156 -9.550781 19.238281 -8.5 22.46875 -8.5 Z M 22.46875 -8.5 "/></g></g></g><g fill="#00425c" fill-opacity="1"><g transform="translate(492.737847, 528.570809)"><g><path d="M 18.015625 0.40625 C 15.085938 0.40625 12.460938 -0.0664062 10.140625 -1.015625 C 7.828125 -1.972656 5.976562 -3.382812 4.59375 -5.25 C 3.207031 -7.113281 2.472656 -9.351562 2.390625 -11.96875 L 12.765625 -11.96875 C 12.921875 -10.488281 13.4375 -9.359375 14.3125 -8.578125 C 15.1875 -7.796875 16.328125 -7.40625 17.734375 -7.40625 C 19.179688 -7.40625 20.320312 -7.738281 21.15625 -8.40625 C 21.988281 -9.070312 22.40625 -9.992188 22.40625 -11.171875 C 22.40625 -12.160156 22.070312 -12.976562 21.40625 -13.625 C 20.738281 -14.269531 19.921875 -14.800781 18.953125 -15.21875 C 17.984375 -15.632812 16.609375 -16.113281 14.828125 -16.65625 C 12.242188 -17.445312 10.132812 -18.238281 8.5 -19.03125 C 6.863281 -19.832031 5.457031 -21.015625 4.28125 -22.578125 C 3.101562 -24.140625 2.515625 -26.171875 2.515625 -28.671875 C 2.515625 -32.398438 3.863281 -35.316406 6.5625 -37.421875 C 9.257812 -39.535156 12.773438 -40.59375 17.109375 -40.59375 C 21.515625 -40.59375 25.066406 -39.535156 27.765625 -37.421875 C 30.460938 -35.316406 31.90625 -32.382812 32.09375 -28.625 L 21.546875 -28.625 C 21.472656 -29.914062 21 -30.929688 20.125 -31.671875 C 19.25 -32.410156 18.128906 -32.78125 16.765625 -32.78125 C 15.585938 -32.78125 14.632812 -32.46875 13.90625 -31.84375 C 13.1875 -31.21875 12.828125 -30.316406 12.828125 -29.140625 C 12.828125 -27.847656 13.4375 -26.835938 14.65625 -26.109375 C 15.875 -25.390625 17.773438 -24.613281 20.359375 -23.78125 C 22.941406 -22.90625 25.039062 -22.066406 26.65625 -21.265625 C 28.269531 -20.460938 29.664062 -19.300781 30.84375 -17.78125 C 32.019531 -16.269531 32.609375 -14.316406 32.609375 -11.921875 C 32.609375 -9.640625 32.03125 -7.566406 30.875 -5.703125 C 29.71875 -3.835938 28.035156 -2.351562 25.828125 -1.25 C 23.617188 -0.144531 21.015625 0.40625 18.015625 0.40625 Z M 18.015625 0.40625 "/></g></g></g><g fill="#00425c" fill-opacity="1"><g transform="translate(340.798818, 608.070805)"><g><path d="M 2.171875 -36.484375 L 2.171875 -41.21875 L 12.890625 -41.21875 L 12.890625 0 L 7.640625 0 L 7.640625 -36.484375 Z M 2.171875 -36.484375 "/></g></g></g><g fill="#00425c" fill-opacity="1"><g transform="translate(359.042587, 608.070805)"><g><path d="M 3.53125 -21.03125 C 3.53125 -27.570312 4.59375 -32.675781 6.71875 -36.34375 C 8.851562 -40.007812 12.582031 -41.84375 17.90625 -41.84375 C 23.1875 -41.84375 26.890625 -40.007812 29.015625 -36.34375 C 31.148438 -32.675781 32.21875 -27.570312 32.21875 -21.03125 C 32.21875 -14.382812 31.148438 -9.21875 29.015625 -5.53125 C 26.890625 -1.84375 23.1875 0 17.90625 0 C 12.582031 0 8.851562 -1.84375 6.71875 -5.53125 C 4.59375 -9.21875 3.53125 -14.382812 3.53125 -21.03125 Z M 27.078125 -21.03125 C 27.078125 -24.34375 26.859375 -27.144531 26.421875 -29.4375 C 25.984375 -31.738281 25.085938 -33.59375 23.734375 -35 C 22.390625 -36.414062 20.445312 -37.125 17.90625 -37.125 C 15.320312 -37.125 13.351562 -36.414062 12 -35 C 10.65625 -33.59375 9.765625 -31.738281 9.328125 -29.4375 C 8.890625 -27.144531 8.671875 -24.34375 8.671875 -21.03125 C 8.671875 -17.613281 8.890625 -14.742188 9.328125 -12.421875 C 9.765625 -10.109375 10.65625 -8.25 12 -6.84375 C 13.351562 -5.4375 15.320312 -4.734375 17.90625 -4.734375 C 20.445312 -4.734375 22.390625 -5.4375 23.734375 -6.84375 C 25.085938 -8.25 25.984375 -10.109375 26.421875 -12.421875 C 26.859375 -14.742188 27.078125 -17.613281 27.078125 -21.03125 Z M 27.078125 -21.03125 "/></g></g></g><g fill="#00425c" fill-opacity="1"><g transform="translate(394.845987, 608.070805)"><g><path d="M 3.53125 -21.03125 C 3.53125 -27.570312 4.59375 -32.675781 6.71875 -36.34375 C 8.851562 -40.007812 12.582031 -41.84375 17.90625 -41.84375 C 23.1875 -41.84375 26.890625 -40.007812 29.015625 -36.34375 C 31.148438 -32.675781 32.21875 -27.570312 32.21875 -21.03125 C 32.21875 -14.382812 31.148438 -9.21875 29.015625 -5.53125 C 26.890625 -1.84375 23.1875 0 17.90625 0 C 12.582031 0 8.851562 -1.84375 6.71875 -5.53125 C 4.59375 -9.21875 3.53125 -14.382812 3.53125 -21.03125 Z M 27.078125 -21.03125 C 27.078125 -24.34375 26.859375 -27.144531 26.421875 -29.4375 C 25.984375 -31.738281 25.085938 -33.59375 23.734375 -35 C 22.390625 -36.414062 20.445312 -37.125 17.90625 -37.125 C 15.320312 -37.125 13.351562 -36.414062 12 -35 C 10.65625 -33.59375 9.765625 -31.738281 9.328125 -29.4375 C 8.890625 -27.144531 8.671875 -24.34375 8.671875 -21.03125 C 8.671875 -17.613281 8.890625 -14.742188 9.328125 -12.421875 C 9.765625 -10.109375 10.65625 -8.25 12 -6.84375 C 13.351562 -5.4375 15.320312 -4.734375 17.90625 -4.734375 C 20.445312 -4.734375 22.390625 -5.4375 23.734375 -6.84375 C 25.085938 -8.25 25.984375 -10.109375 26.421875 -12.421875 C 26.859375 -14.742188 27.078125 -17.613281 27.078125 -21.03125 Z M 27.078125 -21.03125 "/></g></g></g><g fill="#00425c" fill-opacity="1"><g transform="translate(430.649387, 608.070805)"><g><path d="M 17.28125 -31.75 C 19.976562 -31.75 22.34375 -31.160156 24.375 -29.984375 C 26.40625 -28.804688 27.914062 -27.328125 28.90625 -25.546875 L 28.90625 -31.25 L 34.15625 -31.25 L 34.15625 0.6875 C 34.15625 3.53125 33.546875 6.0625 32.328125 8.28125 C 31.109375 10.507812 29.367188 12.25 27.109375 13.5 C 24.847656 14.757812 22.21875 15.390625 19.21875 15.390625 C 15.113281 15.390625 11.691406 14.421875 8.953125 12.484375 C 6.210938 10.546875 4.597656 7.90625 4.109375 4.5625 L 9.234375 4.5625 C 9.804688 6.457031 10.984375 7.984375 12.765625 9.140625 C 14.554688 10.304688 16.707031 10.890625 19.21875 10.890625 C 22.0625 10.890625 24.382812 9.992188 26.1875 8.203125 C 28 6.421875 28.90625 3.914062 28.90625 0.6875 L 28.90625 -5.875 C 27.882812 -4.050781 26.363281 -2.53125 24.34375 -1.3125 C 22.332031 -0.09375 19.976562 0.515625 17.28125 0.515625 C 14.5 0.515625 11.976562 -0.164062 9.71875 -1.53125 C 7.457031 -2.90625 5.679688 -4.828125 4.390625 -7.296875 C 3.097656 -9.765625 2.453125 -12.578125 2.453125 -15.734375 C 2.453125 -18.929688 3.097656 -21.734375 4.390625 -24.140625 C 5.679688 -26.554688 7.457031 -28.425781 9.71875 -29.75 C 11.976562 -31.082031 14.5 -31.75 17.28125 -31.75 Z M 28.90625 -15.671875 C 28.90625 -18.035156 28.429688 -20.085938 27.484375 -21.828125 C 26.535156 -23.578125 25.25 -24.914062 23.625 -25.84375 C 22.007812 -26.78125 20.234375 -27.25 18.296875 -27.25 C 16.359375 -27.25 14.59375 -26.789062 13 -25.875 C 11.40625 -24.96875 10.128906 -23.640625 9.171875 -21.890625 C 8.222656 -20.140625 7.75 -18.085938 7.75 -15.734375 C 7.75 -13.335938 8.222656 -11.253906 9.171875 -9.484375 C 10.128906 -7.722656 11.40625 -6.375 13 -5.4375 C 14.59375 -4.507812 16.359375 -4.046875 18.296875 -4.046875 C 20.234375 -4.046875 22.007812 -4.507812 23.625 -5.4375 C 25.25 -6.375 26.535156 -7.722656 27.484375 -9.484375 C 28.429688 -11.253906 28.90625 -13.316406 28.90625 -15.671875 Z M 28.90625 -15.671875 "/></g></g></g><g fill="#00425c" fill-opacity="1"><g transform="translate(198.556634, 687.570801)"><g><path d="M 2.21875 -7.8125 C 3.507812 -8.832031 4.097656 -9.304688 3.984375 -9.234375 C 7.710938 -12.316406 10.648438 -14.84375 12.796875 -16.8125 C 14.941406 -18.789062 16.753906 -20.863281 18.234375 -23.03125 C 19.722656 -25.195312 20.46875 -27.304688 20.46875 -29.359375 C 20.46875 -30.921875 20.101562 -32.140625 19.375 -33.015625 C 18.65625 -33.890625 17.578125 -34.328125 16.140625 -34.328125 C 14.691406 -34.328125 13.554688 -33.785156 12.734375 -32.703125 C 11.921875 -31.617188 11.515625 -30.085938 11.515625 -28.109375 L 2.109375 -28.109375 C 2.179688 -31.335938 2.875 -34.035156 4.1875 -36.203125 C 5.5 -38.367188 7.226562 -39.960938 9.375 -40.984375 C 11.519531 -42.015625 13.90625 -42.53125 16.53125 -42.53125 C 21.050781 -42.53125 24.460938 -41.367188 26.765625 -39.046875 C 29.066406 -36.734375 30.21875 -33.710938 30.21875 -29.984375 C 30.21875 -25.921875 28.828125 -22.148438 26.046875 -18.671875 C 23.273438 -15.191406 19.742188 -11.800781 15.453125 -8.5 L 30.84375 -8.5 L 30.84375 -0.5625 L 2.21875 -0.5625 Z M 2.21875 -7.8125 "/></g></g></g><g fill="#00425c" fill-opacity="1"><g transform="translate(231.110358, 687.570801)"><g><path d="M 1.546875 -32.5625 L 1.546875 -41.625 L 17.328125 -41.625 L 17.328125 0 L 7.1875 0 L 7.1875 -32.5625 Z M 1.546875 -32.5625 "/></g></g></g><g fill="#00425c" fill-opacity="1"><g transform="translate(252.546789, 687.570801)"><g><path d="M 14.03125 -9.015625 L 7.703125 7.359375 L 1.484375 7.359375 L 4.796875 -9.015625 Z M 14.03125 -9.015625 "/></g></g></g><g fill="#00425c" fill-opacity="1"><g transform="translate(268.909173, 687.570801)"><g><path d="M 2.796875 -7.40625 L 2.796875 -15.28125 L 20.8125 -41.046875 L 31.703125 -41.046875 L 31.703125 -15.84375 L 36.375 -15.84375 L 36.375 -7.40625 L 31.703125 -7.40625 L 31.703125 0 L 21.953125 0 L 21.953125 -7.40625 Z M 22.640625 -30.328125 L 13.0625 -15.84375 L 22.640625 -15.84375 Z M 22.640625 -30.328125 "/></g></g></g><g fill="#00425c" fill-opacity="1"><g transform="translate(307.506144, 687.570801)"><g><path d="M 15.625 -32.265625 C 17.863281 -32.265625 19.828125 -31.804688 21.515625 -30.890625 C 23.210938 -29.984375 24.515625 -28.789062 25.421875 -27.3125 L 25.421875 -31.8125 L 35.171875 -31.8125 L 35.171875 -0.0625 C 35.171875 2.863281 34.59375 5.515625 33.4375 7.890625 C 32.28125 10.265625 30.515625 12.15625 28.140625 13.5625 C 25.765625 14.96875 22.804688 15.671875 19.265625 15.671875 C 14.554688 15.671875 10.738281 14.5625 7.8125 12.34375 C 4.882812 10.125 3.210938 7.113281 2.796875 3.3125 L 12.421875 3.3125 C 12.734375 4.519531 13.457031 5.472656 14.59375 6.171875 C 15.738281 6.878906 17.144531 7.234375 18.8125 7.234375 C 20.832031 7.234375 22.4375 6.65625 23.625 5.5 C 24.820312 4.34375 25.421875 2.488281 25.421875 -0.0625 L 25.421875 -4.5625 C 24.472656 -3.082031 23.160156 -1.875 21.484375 -0.9375 C 19.816406 -0.0078125 17.863281 0.453125 15.625 0.453125 C 13 0.453125 10.617188 -0.21875 8.484375 -1.5625 C 6.359375 -2.914062 4.675781 -4.835938 3.4375 -7.328125 C 2.207031 -9.816406 1.59375 -12.695312 1.59375 -15.96875 C 1.59375 -19.238281 2.207031 -22.109375 3.4375 -24.578125 C 4.675781 -27.046875 6.359375 -28.941406 8.484375 -30.265625 C 10.617188 -31.597656 13 -32.265625 15.625 -32.265625 Z M 25.421875 -15.90625 C 25.421875 -18.34375 24.742188 -20.265625 23.390625 -21.671875 C 22.046875 -23.078125 20.40625 -23.78125 18.46875 -23.78125 C 16.53125 -23.78125 14.882812 -23.082031 13.53125 -21.6875 C 12.1875 -20.300781 11.515625 -18.394531 11.515625 -15.96875 C 11.515625 -13.53125 12.1875 -11.597656 13.53125 -10.171875 C 14.882812 -8.753906 16.53125 -8.046875 18.46875 -8.046875 C 20.40625 -8.046875 22.046875 -8.75 23.390625 -10.15625 C 24.742188 -11.5625 25.421875 -13.476562 25.421875 -15.90625 Z M 25.421875 -15.90625 "/></g></g></g><g fill="#00425c" fill-opacity="1"><g transform="translate(346.217145, 687.570801)"><g/></g></g><g fill="#00425c" fill-opacity="1"><g transform="translate(358.303638, 687.570801)"><g><path d="M 13.28125 -27.3125 C 14.226562 -28.789062 15.539062 -29.984375 17.21875 -30.890625 C 18.894531 -31.804688 20.851562 -32.265625 23.09375 -32.265625 C 25.71875 -32.265625 28.09375 -31.597656 30.21875 -30.265625 C 32.34375 -28.941406 34.023438 -27.046875 35.265625 -24.578125 C 36.503906 -22.109375 37.125 -19.238281 37.125 -15.96875 C 37.125 -12.695312 36.503906 -9.816406 35.265625 -7.328125 C 34.023438 -4.835938 32.34375 -2.914062 30.21875 -1.5625 C 28.09375 -0.21875 25.71875 0.453125 23.09375 0.453125 C 20.882812 0.453125 18.929688 0 17.234375 -0.90625 C 15.546875 -1.820312 14.226562 -3.003906 13.28125 -4.453125 L 13.28125 15.171875 L 3.53125 15.171875 L 3.53125 -31.8125 L 13.28125 -31.8125 Z M 27.203125 -15.96875 C 27.203125 -18.394531 26.523438 -20.300781 25.171875 -21.6875 C 23.816406 -23.082031 22.15625 -23.78125 20.1875 -23.78125 C 18.25 -23.78125 16.601562 -23.078125 15.25 -21.671875 C 13.90625 -20.265625 13.234375 -18.34375 13.234375 -15.90625 C 13.234375 -13.476562 13.90625 -11.5625 15.25 -10.15625 C 16.601562 -8.75 18.25 -8.046875 20.1875 -8.046875 C 22.125 -8.046875 23.773438 -8.753906 25.140625 -10.171875 C 26.515625 -11.597656 27.203125 -13.53125 27.203125 -15.96875 Z M 27.203125 -15.96875 "/></g></g></g><g fill="#00425c" fill-opacity="1"><g transform="translate(397.014639, 687.570801)"><g><path d="M 13.28125 -26.515625 C 14.425781 -28.265625 15.851562 -29.640625 17.5625 -30.640625 C 19.269531 -31.648438 21.171875 -32.15625 23.265625 -32.15625 L 23.265625 -21.84375 L 20.578125 -21.84375 C 18.148438 -21.84375 16.328125 -21.316406 15.109375 -20.265625 C 13.890625 -19.222656 13.28125 -17.390625 13.28125 -14.765625 L 13.28125 0 L 3.53125 0 L 3.53125 -31.8125 L 13.28125 -31.8125 Z M 13.28125 -26.515625 "/></g></g></g><g fill="#00425c" fill-opacity="1"><g transform="translate(421.415684, 687.570801)"><g><path d="M 18.015625 0.453125 C 14.898438 0.453125 12.097656 -0.207031 9.609375 -1.53125 C 7.117188 -2.863281 5.160156 -4.765625 3.734375 -7.234375 C 2.304688 -9.710938 1.59375 -12.601562 1.59375 -15.90625 C 1.59375 -19.175781 2.3125 -22.054688 3.75 -24.546875 C 5.195312 -27.035156 7.175781 -28.941406 9.6875 -30.265625 C 12.195312 -31.597656 15.007812 -32.265625 18.125 -32.265625 C 21.25 -32.265625 24.0625 -31.597656 26.5625 -30.265625 C 29.070312 -28.941406 31.050781 -27.035156 32.5 -24.546875 C 33.945312 -22.054688 34.671875 -19.175781 34.671875 -15.90625 C 34.671875 -12.632812 33.9375 -9.753906 32.46875 -7.265625 C 31.007812 -4.773438 29.015625 -2.863281 26.484375 -1.53125 C 23.953125 -0.207031 21.128906 0.453125 18.015625 0.453125 Z M 18.015625 -7.984375 C 19.878906 -7.984375 21.46875 -8.664062 22.78125 -10.03125 C 24.09375 -11.40625 24.75 -13.363281 24.75 -15.90625 C 24.75 -18.457031 24.109375 -20.414062 22.828125 -21.78125 C 21.554688 -23.144531 19.988281 -23.828125 18.125 -23.828125 C 16.226562 -23.828125 14.648438 -23.148438 13.390625 -21.796875 C 12.140625 -20.453125 11.515625 -18.488281 11.515625 -15.90625 C 11.515625 -13.363281 12.128906 -11.40625 13.359375 -10.03125 C 14.597656 -8.664062 16.148438 -7.984375 18.015625 -7.984375 Z M 18.015625 -7.984375 "/></g></g></g><g fill="#00425c" fill-opacity="1"><g transform="translate(457.732204, 687.570801)"><g><path d="M 21.265625 -8.265625 L 21.265625 0 L 16.3125 0 C 12.769531 0 10.007812 -0.863281 8.03125 -2.59375 C 6.0625 -4.320312 5.078125 -7.144531 5.078125 -11.0625 L 5.078125 -23.71875 L 1.203125 -23.71875 L 1.203125 -31.8125 L 5.078125 -31.8125 L 5.078125 -39.5625 L 14.828125 -39.5625 L 14.828125 -31.8125 L 21.203125 -31.8125 L 21.203125 -23.71875 L 14.828125 -23.71875 L 14.828125 -10.953125 C 14.828125 -9.992188 15.050781 -9.304688 15.5 -8.890625 C 15.957031 -8.472656 16.71875 -8.265625 17.78125 -8.265625 Z M 21.265625 -8.265625 "/></g></g></g><g fill="#00425c" fill-opacity="1"><g transform="translate(480.878977, 687.570801)"><g><path d="M 33.53125 -16.421875 C 33.53125 -15.503906 33.472656 -14.550781 33.359375 -13.5625 L 11.296875 -13.5625 C 11.441406 -11.59375 12.070312 -10.082031 13.1875 -9.03125 C 14.3125 -7.988281 15.691406 -7.46875 17.328125 -7.46875 C 19.765625 -7.46875 21.457031 -8.492188 22.40625 -10.546875 L 32.78125 -10.546875 C 32.25 -8.453125 31.289062 -6.566406 29.90625 -4.890625 C 28.519531 -3.222656 26.78125 -1.914062 24.6875 -0.96875 C 22.59375 -0.0195312 20.253906 0.453125 17.671875 0.453125 C 14.554688 0.453125 11.78125 -0.207031 9.34375 -1.53125 C 6.914062 -2.863281 5.015625 -4.765625 3.640625 -7.234375 C 2.273438 -9.710938 1.59375 -12.601562 1.59375 -15.90625 C 1.59375 -19.21875 2.265625 -22.109375 3.609375 -24.578125 C 4.960938 -27.046875 6.851562 -28.941406 9.28125 -30.265625 C 11.71875 -31.597656 14.515625 -32.265625 17.671875 -32.265625 C 20.753906 -32.265625 23.492188 -31.617188 25.890625 -30.328125 C 28.285156 -29.035156 30.15625 -27.191406 31.5 -24.796875 C 32.851562 -22.398438 33.53125 -19.609375 33.53125 -16.421875 Z M 23.546875 -18.984375 C 23.546875 -20.660156 22.972656 -21.988281 21.828125 -22.96875 C 20.691406 -23.957031 19.269531 -24.453125 17.5625 -24.453125 C 15.925781 -24.453125 14.546875 -23.976562 13.421875 -23.03125 C 12.304688 -22.082031 11.613281 -20.734375 11.34375 -18.984375 Z M 23.546875 -18.984375 "/></g></g></g><g fill="#00425c" fill-opacity="1"><g transform="translate(515.998238, 687.570801)"><g><path d="M 14.03125 -31.8125 L 14.03125 0 L 4.28125 0 L 4.28125 -31.8125 Z M 15.796875 -39.734375 L 2.046875 -33.984375 L 2.046875 -40.703125 L 15.796875 -47.328125 Z M 15.796875 -39.734375 "/></g></g></g><g fill="#00425c" fill-opacity="1"><g transform="translate(534.299034, 687.570801)"><g><path d="M 22.921875 -32.15625 C 26.648438 -32.15625 29.625 -30.945312 31.84375 -28.53125 C 34.0625 -26.125 35.171875 -22.8125 35.171875 -18.59375 L 35.171875 0 L 25.484375 0 L 25.484375 -17.28125 C 25.484375 -19.40625 24.929688 -21.054688 23.828125 -22.234375 C 22.722656 -23.410156 21.242188 -24 19.390625 -24 C 17.523438 -24 16.039062 -23.410156 14.9375 -22.234375 C 13.832031 -21.054688 13.28125 -19.40625 13.28125 -17.28125 L 13.28125 0 L 3.53125 0 L 3.53125 -31.8125 L 13.28125 -31.8125 L 13.28125 -27.59375 C 14.269531 -29 15.597656 -30.109375 17.265625 -30.921875 C 18.941406 -31.742188 20.828125 -32.15625 22.921875 -32.15625 Z M 22.921875 -32.15625 "/></g></g></g><g fill="#00425c" fill-opacity="1"><g transform="translate(572.724974, 687.570801)"><g><path d="M 1.59375 -15.96875 C 1.59375 -19.238281 2.207031 -22.109375 3.4375 -24.578125 C 4.675781 -27.046875 6.359375 -28.941406 8.484375 -30.265625 C 10.617188 -31.597656 13 -32.265625 15.625 -32.265625 C 17.863281 -32.265625 19.828125 -31.804688 21.515625 -30.890625 C 23.210938 -29.984375 24.515625 -28.789062 25.421875 -27.3125 L 25.421875 -31.8125 L 35.171875 -31.8125 L 35.171875 0 L 25.421875 0 L 25.421875 -4.5 C 24.472656 -3.019531 23.148438 -1.820312 21.453125 -0.90625 C 19.765625 0 17.800781 0.453125 15.5625 0.453125 C 12.976562 0.453125 10.617188 -0.21875 8.484375 -1.5625 C 6.359375 -2.914062 4.675781 -4.835938 3.4375 -7.328125 C 2.207031 -9.816406 1.59375 -12.695312 1.59375 -15.96875 Z M 25.421875 -15.90625 C 25.421875 -18.34375 24.742188 -20.265625 23.390625 -21.671875 C 22.046875 -23.078125 20.40625 -23.78125 18.46875 -23.78125 C 16.53125 -23.78125 14.882812 -23.082031 13.53125 -21.6875 C 12.1875 -20.300781 11.515625 -18.394531 11.515625 -15.96875 C 11.515625 -13.53125 12.1875 -11.597656 13.53125 -10.171875 C 14.882812 -8.753906 16.53125 -8.046875 18.46875 -8.046875 C 20.40625 -8.046875 22.046875 -8.75 23.390625 -10.15625 C 24.742188 -11.5625 25.421875 -13.476562 25.421875 -15.90625 Z M 25.421875 -15.90625 "/></g></g></g></svg>