<svg xmlns="http://www.w3.org/2000/svg" xmlns:xlink="http://www.w3.org/1999/xlink" width="1080" zoomAndPan="magnify" viewBox="0 0 810 809.999993" height="1080" preserveAspectRatio="xMidYMid meet" version="1.0"><defs><g/><clipPath id="c50ce74161"><path d="M 82.347656 0.00390625 L 727.347656 0.00390625 L 727.347656 810 L 82.347656 810 Z M 82.347656 0.00390625 " clip-rule="nonzero"/></clipPath><clipPath id="95c98291a6"><path d="M 119.847656 0.00390625 L 690.140625 0.00390625 C 700.089844 0.00390625 709.625 3.957031 716.660156 10.988281 C 723.691406 18.023438 727.640625 27.558594 727.640625 37.503906 L 727.640625 772.496094 C 727.640625 782.441406 723.691406 791.976562 716.660156 799.011719 C 709.625 806.042969 700.089844 809.996094 690.140625 809.996094 L 119.847656 809.996094 C 109.902344 809.996094 100.363281 806.042969 93.332031 799.011719 C 86.300781 791.976562 82.347656 782.441406 82.347656 772.496094 L 82.347656 37.503906 C 82.347656 27.558594 86.300781 18.023438 93.332031 10.988281 C 100.363281 3.957031 109.902344 0.00390625 119.847656 0.00390625 Z M 119.847656 0.00390625 " clip-rule="nonzero"/></clipPath><clipPath id="3b930b09d2"><path d="M 280.542969 56.683594 L 529.449219 56.683594 L 529.449219 380.683594 L 280.542969 380.683594 Z M 280.542969 56.683594 " clip-rule="nonzero"/></clipPath></defs><g clip-path="url(#c50ce74161)"><g clip-path="url(#95c98291a6)"><path stroke-linecap="butt" transform="matrix(0.75, 0, 0, 0.75, 82.349025, 0.00567356)" fill="none" stroke-linejoin="miter" d="M 49.998178 -0.00235641 L 810.388841 -0.00235641 C 823.654466 -0.00235641 836.368009 5.268477 845.748218 14.643478 C 855.123218 24.023686 860.388843 36.737229 860.388843 49.997646 L 860.388843 1029.987279 C 860.388843 1043.247696 855.123218 1055.966447 845.748218 1065.341447 C 836.368009 1074.716448 823.654466 1079.987281 810.388841 1079.987281 L 49.998178 1079.987281 C 36.73776 1079.987281 24.01901 1074.716448 14.644009 1065.341447 C 5.269009 1055.966447 -0.00182494 1043.247696 -0.00182494 1029.987279 L -0.00182494 49.997646 C -0.00182494 36.737229 5.269009 24.023686 14.644009 14.643478 C 24.01901 5.268477 36.73776 -0.00235641 49.998178 -0.00235641 Z M 49.998178 -0.00235641 " stroke="#00425c" stroke-width="8" stroke-opacity="1" stroke-miterlimit="4"/></g></g><g clip-path="url(#3b930b09d2)"><path fill="#00425c" d="M 437.6875 347.527344 C 410.359375 347.347656 385.46875 347.917969 361.175781 346.359375 C 360.648438 349.816406 363.449219 354.246094 363.128906 359.238281 C 362.996094 361.269531 361.238281 363.3125 361.566406 365.09375 C 362.808594 371.863281 384.0625 372.613281 393.964844 373.683594 C 414.957031 375.949219 443.285156 377.316406 463.449219 372.902344 C 470.851562 371.28125 478.867188 370.457031 485.3125 367.828125 C 487.804688 366.808594 491.277344 363.847656 491.558594 361.191406 C 491.804688 358.851562 490.292969 357.898438 489.996094 355.726562 C 489.617188 352.964844 491.214844 349.949219 490.777344 346.75 C 476.769531 345.875 463.425781 349.007812 452.519531 344.40625 C 449.3125 348.921875 443.753906 347.566406 437.6875 347.527344 Z M 377.960938 253.449219 C 375.609375 255.390625 374.886719 258.964844 370.933594 259.304688 C 367.242188 253.253906 355.742188 255.527344 347.902344 254.230469 C 352.273438 283.132812 355.851562 316.734375 360.785156 342.453125 C 377.488281 343.535156 393.730469 343.953125 407.628906 344.015625 C 419.78125 344.070312 432.304688 343.472656 448.226562 344.015625 C 449.867188 343.574219 450.464844 340.683594 452.914062 340.5 C 454.796875 340.363281 457.300781 342.878906 459.546875 343.234375 C 463.488281 343.859375 468.210938 342.453125 472.820312 342.453125 C 479.683594 342.453125 486.34375 344.1875 491.558594 342.453125 C 494.378906 317.679688 493.679688 284.59375 498.585938 258.527344 C 499.210938 255.191406 501.636719 251.472656 499.757812 248.375 C 462.9375 253.445312 419.972656 253.179688 377.960938 253.449219 Z M 461.5 226.515625 C 424.730469 228.503906 380.316406 229.960938 344.390625 226.515625 C 346.046875 234.972656 347.609375 243.289062 347.121094 251.109375 C 352.738281 251.796875 361.054688 250.175781 366.640625 251.890625 C 369.230469 252.683594 369.769531 255.617188 372.105469 255.792969 C 374.933594 254.632812 375.003906 250.722656 377.570312 249.9375 C 380.238281 249.121094 387.8125 250.367188 391.625 250.328125 C 396.585938 250.277344 401.210938 249.734375 405.289062 249.546875 C 415.277344 249.089844 424.679688 249.578125 433.785156 249.546875 C 458.777344 249.464844 481.703125 246.441406 501.316406 244.472656 C 502.558594 236.582031 506.089844 226.898438 505.222656 219.488281 C 492.164062 224.449219 477.890625 225.628906 461.5 226.515625 Z M 360.394531 184.355469 C 361.070312 186.414062 361.386719 188.828125 363.128906 189.820312 C 364.28125 187.167969 368.117188 183.152344 367.8125 181.621094 C 365.242188 182.4375 362.730469 183.308594 360.394531 184.355469 Z M 320.1875 199.96875 C 314.570312 216.375 327.863281 218.859375 340.875 221.832031 C 348.375 223.542969 358.726562 224.140625 367.8125 224.5625 C 388.972656 225.546875 407.550781 225.835938 425.585938 224.953125 C 444.589844 224.023438 462.539062 224.730469 479.847656 221.832031 C 492.246094 219.753906 504.988281 216.023438 514.589844 210.902344 C 520.769531 207.601562 526.957031 204.726562 525.519531 196.457031 C 523.949219 187.410156 513.75 189.957031 504.046875 189.039062 C 499.734375 188.628906 495.195312 186.429688 491.167969 185.527344 C 478.511719 182.6875 461.75 179.6875 447.445312 181.234375 C 430.671875 183.042969 411.097656 180.957031 392.40625 183.964844 C 398.847656 191.300781 406.945312 195.234375 416.605469 193.726562 C 426.375 192.199219 433.285156 183.230469 441.980469 182.015625 C 454.042969 180.328125 459.300781 193.472656 468.917969 194.503906 C 473.21875 194.964844 475.433594 192.507812 479.066406 191.773438 C 486.917969 190.179688 492.96875 194.058594 500.925781 193.335938 C 502.546875 195.988281 507.015625 197 506.003906 202.3125 C 505.136719 206.84375 494.917969 208.90625 489.214844 210.511719 C 481.230469 212.757812 474.722656 212.519531 467.355469 213.242188 C 451.136719 214.832031 435.554688 214.652344 420.902344 214.804688 C 403.207031 214.988281 391.957031 216.296875 376.007812 214.804688 C 363.480469 213.628906 339.503906 214.296875 335.410156 205.042969 C 333.0625 199.730469 336.21875 194.039062 341.265625 193.726562 C 337.515625 180.039062 322.574219 192.996094 320.1875 199.96875 Z M 337.363281 199.96875 C 336.355469 206.160156 348.390625 208.898438 356.101562 209.730469 C 373.328125 211.585938 390.378906 212.308594 405.289062 212.070312 C 415.324219 211.910156 426.242188 210.835938 435.734375 210.902344 C 451.789062 211.007812 472.179688 211.21875 488.824219 206.605469 C 491.625 205.832031 503.628906 203.492188 503.265625 199.96875 C 502.984375 197.199219 499.195312 197.8125 495.851562 197.238281 C 491.074219 196.414062 483.507812 193.847656 478.285156 195.285156 C 475.765625 195.980469 473.484375 197.984375 470.480469 198.019531 C 459.664062 198.144531 455.457031 184.511719 442.761719 185.527344 C 435.851562 186.078125 431.601562 190.730469 426.757812 193.335938 C 419.960938 196.988281 410.765625 197.625 404.507812 196.066406 C 390.933594 192.679688 386.078125 173.429688 370.933594 183.574219 C 368.648438 186.621094 366.558594 189.871094 364.296875 192.945312 C 364.878906 194.183594 365.742188 195.144531 365.859375 196.847656 C 372.171875 199.429688 377.921875 194.59375 381.863281 193.726562 C 382.488281 194.792969 381.671875 195.390625 382.644531 196.457031 C 377.515625 199.320312 373.28125 201.644531 366.640625 200.75 C 362.574219 200.203125 359.449219 197.757812 355.710938 198.019531 C 351.597656 198.304688 349.964844 201.449219 346.339844 201.140625 C 346.046875 199.707031 345.855469 197.652344 344.390625 196.457031 C 341.386719 196.261719 337.765625 197.511719 337.363281 199.96875 Z M 315.894531 94.960938 C 313.238281 89.953125 310.238281 84.476562 307.304688 78.957031 C 302.878906 70.621094 296.855469 56.152344 286.617188 62.953125 C 284.5 67.757812 283.058594 74.878906 283.882812 82.46875 C 285.0625 93.324219 291.570312 105.773438 296.765625 114.480469 C 302.582031 124.226562 308.398438 132.984375 313.941406 142.195312 C 326.042969 162.304688 334.332031 183.214844 348.683594 197.238281 C 352.117188 195.496094 357.644531 193.835938 362.347656 195.675781 C 347.785156 165.214844 332.570312 126.453125 315.894531 94.960938 Z M 359.613281 180.0625 C 363.515625 178.28125 368.496094 177.472656 374.839844 176.546875 C 377.332031 176.183594 380.152344 175.835938 382.253906 176.15625 C 385.78125 176.703125 388.175781 179.40625 390.84375 179.671875 C 393.589844 179.941406 397.160156 178.304688 399.820312 178.109375 C 408.792969 177.449219 418.355469 178.023438 427.929688 177.328125 C 451.132812 175.648438 474.832031 176.753906 494.289062 181.234375 C 497.953125 182.074219 501.675781 183.917969 505.222656 184.355469 C 512 185.1875 516.996094 183.519531 522.398438 185.917969 C 529.265625 188.964844 531.449219 200.484375 527.472656 207.386719 C 524.109375 213.21875 516.4375 214.539062 510.296875 218.316406 C 507.007812 242.136719 500.578125 265.832031 498.585938 291.707031 C 496.992188 312.40625 497.765625 334.183594 494.289062 354.945312 C 501.132812 371.898438 479.941406 374.179688 466.964844 377.195312 C 442.195312 382.953125 415.941406 380.390625 389.671875 377.976562 C 378.179688 376.921875 360.140625 375.828125 357.664062 367.828125 C 356.625 364.484375 358.59375 361.882812 358.835938 358.847656 C 359.15625 354.746094 357.265625 348.527344 356.492188 343.234375 C 351.316406 307.761719 345.460938 270.691406 342.046875 233.933594 C 340.992188 231.730469 340 229.476562 339.707031 226.515625 C 331.253906 224.207031 322.320312 223.671875 317.84375 217.925781 C 312.632812 211.234375 315.214844 197.421875 320.1875 190.992188 C 322.960938 187.40625 327.878906 184.613281 332.679688 183.574219 C 322.136719 162.402344 305.859375 137.171875 292.863281 115.261719 C 288.410156 107.757812 284.0625 98.617188 281.933594 90.277344 C 279.261719 79.832031 279.554688 57.730469 290.910156 56.707031 C 293.886719 56.4375 298.523438 58.796875 300.667969 60.609375 C 303.890625 63.328125 307.015625 69.453125 309.648438 74.273438 C 317.546875 88.738281 325.351562 103.359375 331.898438 118.773438 C 341.375 141.085938 350.820312 161.046875 359.613281 180.0625 " fill-opacity="1" fill-rule="evenodd"/></g><path fill="#00425c" d="M 392.792969 126.582031 C 389.976562 123.042969 384.152344 118.953125 381.085938 124.628906 C 375.445312 135.058594 393.492188 147.085938 399.820312 151.175781 C 400.066406 143.027344 397.390625 132.347656 392.792969 126.582031 Z M 404.117188 155.46875 C 398.785156 159.917969 396.429688 154.589844 392.40625 151.566406 C 390.519531 150.148438 388.097656 149.707031 386.550781 148.441406 C 381.691406 144.480469 379.4375 138.5625 376.789062 135.171875 C 374.847656 125.011719 378.605469 116.167969 386.941406 117.210938 C 390.503906 117.660156 395.648438 122.765625 397.480469 125.800781 C 402.164062 133.566406 404.089844 146.921875 404.117188 155.46875 " fill-opacity="1" fill-rule="evenodd"/><path fill="#00425c" d="M 472.429688 157.8125 C 477.4375 148.535156 494.828125 145.433594 490.386719 131.65625 C 475.929688 128.179688 467.804688 144.679688 472.429688 157.8125 Z M 475.550781 162.105469 C 472.65625 161.554688 472.75 163.984375 469.695312 163.273438 C 463.15625 148.070312 468.746094 127.757812 485.703125 126.582031 C 488.148438 126.414062 490.742188 125.828125 492.726562 127.363281 C 496.324219 130.140625 495.75 139.832031 493.507812 143.757812 C 489.40625 150.949219 478.753906 154.375 475.550781 162.105469 " fill-opacity="1" fill-rule="evenodd"/><g fill="#00425c" fill-opacity="1"><g transform="translate(281.507801, 528.570809)"><g><path d="M 13.28125 -40.03125 L 13.28125 0 L 3.53125 0 L 3.53125 -40.03125 Z M 13.28125 -40.03125 "/></g></g></g><g fill="#00425c" fill-opacity="1"><g transform="translate(298.326278, 528.570809)"><g><path d="M 22.46875 0.40625 C 18.695312 0.40625 15.242188 -0.46875 12.109375 -2.21875 C 8.972656 -3.96875 6.484375 -6.410156 4.640625 -9.546875 C 2.796875 -12.679688 1.875 -16.207031 1.875 -20.125 C 1.875 -24.039062 2.796875 -27.554688 4.640625 -30.671875 C 6.484375 -33.785156 8.972656 -36.21875 12.109375 -37.96875 C 15.242188 -39.71875 18.695312 -40.59375 22.46875 -40.59375 C 26.226562 -40.59375 29.675781 -39.71875 32.8125 -37.96875 C 35.945312 -36.21875 38.414062 -33.785156 40.21875 -30.671875 C 42.03125 -27.554688 42.9375 -24.039062 42.9375 -20.125 C 42.9375 -16.207031 42.019531 -12.679688 40.1875 -9.546875 C 38.363281 -6.410156 35.894531 -3.96875 32.78125 -2.21875 C 29.664062 -0.46875 26.226562 0.40625 22.46875 0.40625 Z M 22.46875 -8.5 C 25.65625 -8.5 28.207031 -9.5625 30.125 -11.6875 C 32.050781 -13.8125 33.015625 -16.625 33.015625 -20.125 C 33.015625 -23.65625 32.050781 -26.472656 30.125 -28.578125 C 28.207031 -30.691406 25.65625 -31.75 22.46875 -31.75 C 19.238281 -31.75 16.660156 -30.703125 14.734375 -28.609375 C 12.816406 -26.523438 11.859375 -23.695312 11.859375 -20.125 C 11.859375 -16.59375 12.816406 -13.769531 14.734375 -11.65625 C 16.660156 -9.550781 19.238281 -8.5 22.46875 -8.5 Z M 22.46875 -8.5 "/></g></g></g><g fill="#00425c" fill-opacity="1"><g transform="translate(343.13754, 528.570809)"><g><path d="M 30.109375 -27.375 C 29.378906 -28.695312 28.335938 -29.707031 26.984375 -30.40625 C 25.640625 -31.113281 24.054688 -31.46875 22.234375 -31.46875 C 19.078125 -31.46875 16.546875 -30.429688 14.640625 -28.359375 C 12.742188 -26.296875 11.796875 -23.53125 11.796875 -20.0625 C 11.796875 -16.375 12.789062 -13.492188 14.78125 -11.421875 C 16.78125 -9.359375 19.53125 -8.328125 23.03125 -8.328125 C 25.425781 -8.328125 27.453125 -8.929688 29.109375 -10.140625 C 30.765625 -11.359375 31.972656 -13.109375 32.734375 -15.390625 L 20.359375 -15.390625 L 20.359375 -22.578125 L 41.5625 -22.578125 L 41.5625 -13.515625 C 40.84375 -11.078125 39.617188 -8.8125 37.890625 -6.71875 C 36.160156 -4.632812 33.960938 -2.945312 31.296875 -1.65625 C 28.640625 -0.363281 25.640625 0.28125 22.296875 0.28125 C 18.335938 0.28125 14.804688 -0.582031 11.703125 -2.3125 C 8.609375 -4.039062 6.195312 -6.441406 4.46875 -9.515625 C 2.738281 -12.597656 1.875 -16.113281 1.875 -20.0625 C 1.875 -24.019531 2.738281 -27.546875 4.46875 -30.640625 C 6.195312 -33.742188 8.601562 -36.160156 11.6875 -37.890625 C 14.769531 -39.617188 18.285156 -40.484375 22.234375 -40.484375 C 27.023438 -40.484375 31.0625 -39.320312 34.34375 -37 C 37.632812 -34.6875 39.8125 -31.476562 40.875 -27.375 Z M 30.109375 -27.375 "/></g></g></g><g fill="#00425c" fill-opacity="1"><g transform="translate(386.580511, 528.570809)"><g><path d="M 13.109375 -40.03125 L 13.109375 -16.078125 C 13.109375 -13.679688 13.695312 -11.835938 14.875 -10.546875 C 16.0625 -9.253906 17.789062 -8.609375 20.0625 -8.609375 C 22.34375 -8.609375 24.09375 -9.253906 25.3125 -10.546875 C 26.53125 -11.835938 27.140625 -13.679688 27.140625 -16.078125 L 27.140625 -40.03125 L 36.890625 -40.03125 L 36.890625 -16.140625 C 36.890625 -12.566406 36.128906 -9.539062 34.609375 -7.0625 C 33.085938 -4.59375 31.039062 -2.726562 28.46875 -1.46875 C 25.90625 -0.21875 23.050781 0.40625 19.90625 0.40625 C 16.75 0.40625 13.925781 -0.210938 11.4375 -1.453125 C 8.945312 -2.691406 6.976562 -4.554688 5.53125 -7.046875 C 4.082031 -9.535156 3.359375 -12.566406 3.359375 -16.140625 L 3.359375 -40.03125 Z M 13.109375 -40.03125 "/></g></g></g><g fill="#00425c" fill-opacity="1"><g transform="translate(426.773819, 528.570809)"><g><path d="M 23.953125 0 L 15.625 -15.109375 L 13.28125 -15.109375 L 13.28125 0 L 3.53125 0 L 3.53125 -40.03125 L 19.90625 -40.03125 C 23.050781 -40.03125 25.734375 -39.476562 27.953125 -38.375 C 30.179688 -37.269531 31.847656 -35.753906 32.953125 -33.828125 C 34.054688 -31.910156 34.609375 -29.773438 34.609375 -27.421875 C 34.609375 -24.765625 33.859375 -22.390625 32.359375 -20.296875 C 30.859375 -18.203125 28.644531 -16.71875 25.71875 -15.84375 L 34.953125 0 Z M 13.28125 -22.015625 L 19.328125 -22.015625 C 21.117188 -22.015625 22.457031 -22.445312 23.34375 -23.3125 C 24.238281 -24.1875 24.6875 -25.425781 24.6875 -27.03125 C 24.6875 -28.550781 24.238281 -29.742188 23.34375 -30.609375 C 22.457031 -31.484375 21.117188 -31.921875 19.328125 -31.921875 L 13.28125 -31.921875 Z M 13.28125 -22.015625 "/></g></g></g><g fill="#00425c" fill-opacity="1"><g transform="translate(463.945498, 528.570809)"><g><path d="M 32.328125 -40.03125 L 32.328125 -32.21875 L 21.71875 -32.21875 L 21.71875 0 L 11.96875 0 L 11.96875 -32.21875 L 1.375 -32.21875 L 1.375 -40.03125 Z M 32.328125 -40.03125 "/></g></g></g><g fill="#00425c" fill-opacity="1"><g transform="translate(497.639443, 528.570809)"><g><path d="M 13.28125 -32.21875 L 13.28125 -24.125 L 26.34375 -24.125 L 26.34375 -16.59375 L 13.28125 -16.59375 L 13.28125 -7.8125 L 28.046875 -7.8125 L 28.046875 0 L 3.53125 0 L 3.53125 -40.03125 L 28.046875 -40.03125 L 28.046875 -32.21875 Z M 13.28125 -32.21875 "/></g></g></g><g fill="#00425c" fill-opacity="1"><g transform="translate(340.804673, 608.070805)"><g><path d="M 2.171875 -36.484375 L 2.171875 -41.21875 L 12.890625 -41.21875 L 12.890625 0 L 7.640625 0 L 7.640625 -36.484375 Z M 2.171875 -36.484375 "/></g></g></g><g fill="#00425c" fill-opacity="1"><g transform="translate(359.048442, 608.070805)"><g><path d="M 3.53125 -21.03125 C 3.53125 -27.570312 4.59375 -32.675781 6.71875 -36.34375 C 8.851562 -40.007812 12.582031 -41.84375 17.90625 -41.84375 C 23.1875 -41.84375 26.890625 -40.007812 29.015625 -36.34375 C 31.148438 -32.675781 32.21875 -27.570312 32.21875 -21.03125 C 32.21875 -14.382812 31.148438 -9.21875 29.015625 -5.53125 C 26.890625 -1.84375 23.1875 0 17.90625 0 C 12.582031 0 8.851562 -1.84375 6.71875 -5.53125 C 4.59375 -9.21875 3.53125 -14.382812 3.53125 -21.03125 Z M 27.078125 -21.03125 C 27.078125 -24.34375 26.859375 -27.144531 26.421875 -29.4375 C 25.984375 -31.738281 25.085938 -33.59375 23.734375 -35 C 22.390625 -36.414062 20.445312 -37.125 17.90625 -37.125 C 15.320312 -37.125 13.351562 -36.414062 12 -35 C 10.65625 -33.59375 9.765625 -31.738281 9.328125 -29.4375 C 8.890625 -27.144531 8.671875 -24.34375 8.671875 -21.03125 C 8.671875 -17.613281 8.890625 -14.742188 9.328125 -12.421875 C 9.765625 -10.109375 10.65625 -8.25 12 -6.84375 C 13.351562 -5.4375 15.320312 -4.734375 17.90625 -4.734375 C 20.445312 -4.734375 22.390625 -5.4375 23.734375 -6.84375 C 25.085938 -8.25 25.984375 -10.109375 26.421875 -12.421875 C 26.859375 -14.742188 27.078125 -17.613281 27.078125 -21.03125 Z M 27.078125 -21.03125 "/></g></g></g><g fill="#00425c" fill-opacity="1"><g transform="translate(394.851842, 608.070805)"><g><path d="M 3.53125 -21.03125 C 3.53125 -27.570312 4.59375 -32.675781 6.71875 -36.34375 C 8.851562 -40.007812 12.582031 -41.84375 17.90625 -41.84375 C 23.1875 -41.84375 26.890625 -40.007812 29.015625 -36.34375 C 31.148438 -32.675781 32.21875 -27.570312 32.21875 -21.03125 C 32.21875 -14.382812 31.148438 -9.21875 29.015625 -5.53125 C 26.890625 -1.84375 23.1875 0 17.90625 0 C 12.582031 0 8.851562 -1.84375 6.71875 -5.53125 C 4.59375 -9.21875 3.53125 -14.382812 3.53125 -21.03125 Z M 27.078125 -21.03125 C 27.078125 -24.34375 26.859375 -27.144531 26.421875 -29.4375 C 25.984375 -31.738281 25.085938 -33.59375 23.734375 -35 C 22.390625 -36.414062 20.445312 -37.125 17.90625 -37.125 C 15.320312 -37.125 13.351562 -36.414062 12 -35 C 10.65625 -33.59375 9.765625 -31.738281 9.328125 -29.4375 C 8.890625 -27.144531 8.671875 -24.34375 8.671875 -21.03125 C 8.671875 -17.613281 8.890625 -14.742188 9.328125 -12.421875 C 9.765625 -10.109375 10.65625 -8.25 12 -6.84375 C 13.351562 -5.4375 15.320312 -4.734375 17.90625 -4.734375 C 20.445312 -4.734375 22.390625 -5.4375 23.734375 -6.84375 C 25.085938 -8.25 25.984375 -10.109375 26.421875 -12.421875 C 26.859375 -14.742188 27.078125 -17.613281 27.078125 -21.03125 Z M 27.078125 -21.03125 "/></g></g></g><g fill="#00425c" fill-opacity="1"><g transform="translate(430.655242, 608.070805)"><g><path d="M 17.28125 -31.75 C 19.976562 -31.75 22.34375 -31.160156 24.375 -29.984375 C 26.40625 -28.804688 27.914062 -27.328125 28.90625 -25.546875 L 28.90625 -31.25 L 34.15625 -31.25 L 34.15625 0.6875 C 34.15625 3.53125 33.546875 6.0625 32.328125 8.28125 C 31.109375 10.507812 29.367188 12.25 27.109375 13.5 C 24.847656 14.757812 22.21875 15.390625 19.21875 15.390625 C 15.113281 15.390625 11.691406 14.421875 8.953125 12.484375 C 6.210938 10.546875 4.597656 7.90625 4.109375 4.5625 L 9.234375 4.5625 C 9.804688 6.457031 10.984375 7.984375 12.765625 9.140625 C 14.554688 10.304688 16.707031 10.890625 19.21875 10.890625 C 22.0625 10.890625 24.382812 9.992188 26.1875 8.203125 C 28 6.421875 28.90625 3.914062 28.90625 0.6875 L 28.90625 -5.875 C 27.882812 -4.050781 26.363281 -2.53125 24.34375 -1.3125 C 22.332031 -0.09375 19.976562 0.515625 17.28125 0.515625 C 14.5 0.515625 11.976562 -0.164062 9.71875 -1.53125 C 7.457031 -2.90625 5.679688 -4.828125 4.390625 -7.296875 C 3.097656 -9.765625 2.453125 -12.578125 2.453125 -15.734375 C 2.453125 -18.929688 3.097656 -21.734375 4.390625 -24.140625 C 5.679688 -26.554688 7.457031 -28.425781 9.71875 -29.75 C 11.976562 -31.082031 14.5 -31.75 17.28125 -31.75 Z M 28.90625 -15.671875 C 28.90625 -18.035156 28.429688 -20.085938 27.484375 -21.828125 C 26.535156 -23.578125 25.25 -24.914062 23.625 -25.84375 C 22.007812 -26.78125 20.234375 -27.25 18.296875 -27.25 C 16.359375 -27.25 14.59375 -26.789062 13 -25.875 C 11.40625 -24.96875 10.128906 -23.640625 9.171875 -21.890625 C 8.222656 -20.140625 7.75 -18.085938 7.75 -15.734375 C 7.75 -13.335938 8.222656 -11.253906 9.171875 -9.484375 C 10.128906 -7.722656 11.40625 -6.375 13 -5.4375 C 14.59375 -4.507812 16.359375 -4.046875 18.296875 -4.046875 C 20.234375 -4.046875 22.007812 -4.507812 23.625 -5.4375 C 25.25 -6.375 26.535156 -7.722656 27.484375 -9.484375 C 28.429688 -11.253906 28.90625 -13.316406 28.90625 -15.671875 Z M 28.90625 -15.671875 "/></g></g></g><g fill="#00425c" fill-opacity="1"><g transform="translate(211.324211, 687.570801)"><g><path d="M 2.90625 -29.875 C 3.0625 -33.945312 4.390625 -37.082031 6.890625 -39.28125 C 9.398438 -41.488281 12.804688 -42.59375 17.109375 -42.59375 C 19.953125 -42.59375 22.390625 -42.097656 24.421875 -41.109375 C 26.460938 -40.117188 28.003906 -38.769531 29.046875 -37.0625 C 30.097656 -35.351562 30.625 -33.429688 30.625 -31.296875 C 30.625 -28.785156 29.992188 -26.742188 28.734375 -25.171875 C 27.484375 -23.597656 26.019531 -22.523438 24.34375 -21.953125 L 24.34375 -21.71875 C 26.507812 -21 28.21875 -19.800781 29.46875 -18.125 C 30.726562 -16.457031 31.359375 -14.3125 31.359375 -11.6875 C 31.359375 -9.332031 30.816406 -7.25 29.734375 -5.4375 C 28.648438 -3.632812 27.070312 -2.21875 25 -1.1875 C 22.925781 -0.164062 20.46875 0.34375 17.625 0.34375 C 13.0625 0.34375 9.421875 -0.773438 6.703125 -3.015625 C 3.984375 -5.265625 2.546875 -8.648438 2.390625 -13.171875 L 11.859375 -13.171875 C 11.898438 -11.492188 12.375 -10.171875 13.28125 -9.203125 C 14.195312 -8.234375 15.53125 -7.75 17.28125 -7.75 C 18.757812 -7.75 19.90625 -8.175781 20.71875 -9.03125 C 21.539062 -9.882812 21.953125 -11.015625 21.953125 -12.421875 C 21.953125 -14.253906 21.367188 -15.578125 20.203125 -16.390625 C 19.046875 -17.210938 17.195312 -17.625 14.65625 -17.625 L 12.828125 -17.625 L 12.828125 -25.546875 L 14.65625 -25.546875 C 16.59375 -25.546875 18.160156 -25.875 19.359375 -26.53125 C 20.554688 -27.195312 21.15625 -28.390625 21.15625 -30.109375 C 21.15625 -31.472656 20.773438 -32.535156 20.015625 -33.296875 C 19.253906 -34.054688 18.207031 -34.4375 16.875 -34.4375 C 15.425781 -34.4375 14.347656 -34 13.640625 -33.125 C 12.941406 -32.25 12.535156 -31.164062 12.421875 -29.875 Z M 2.90625 -29.875 "/></g></g></g><g fill="#00425c" fill-opacity="1"><g transform="translate(245.816335, 687.570801)"><g><path d="M 14.03125 -9.015625 L 7.703125 7.359375 L 1.484375 7.359375 L 4.796875 -9.015625 Z M 14.03125 -9.015625 "/></g></g></g><g fill="#00425c" fill-opacity="1"><g transform="translate(262.178719, 687.570801)"><g><path d="M 2.21875 -7.8125 C 3.507812 -8.832031 4.097656 -9.304688 3.984375 -9.234375 C 7.710938 -12.316406 10.648438 -14.84375 12.796875 -16.8125 C 14.941406 -18.789062 16.753906 -20.863281 18.234375 -23.03125 C 19.722656 -25.195312 20.46875 -27.304688 20.46875 -29.359375 C 20.46875 -30.921875 20.101562 -32.140625 19.375 -33.015625 C 18.65625 -33.890625 17.578125 -34.328125 16.140625 -34.328125 C 14.691406 -34.328125 13.554688 -33.785156 12.734375 -32.703125 C 11.921875 -31.617188 11.515625 -30.085938 11.515625 -28.109375 L 2.109375 -28.109375 C 2.179688 -31.335938 2.875 -34.035156 4.1875 -36.203125 C 5.5 -38.367188 7.226562 -39.960938 9.375 -40.984375 C 11.519531 -42.015625 13.90625 -42.53125 16.53125 -42.53125 C 21.050781 -42.53125 24.460938 -41.367188 26.765625 -39.046875 C 29.066406 -36.734375 30.21875 -33.710938 30.21875 -29.984375 C 30.21875 -25.921875 28.828125 -22.148438 26.046875 -18.671875 C 23.273438 -15.191406 19.742188 -11.800781 15.453125 -8.5 L 30.84375 -8.5 L 30.84375 -0.5625 L 2.21875 -0.5625 Z M 2.21875 -7.8125 "/></g></g></g><g fill="#00425c" fill-opacity="1"><g transform="translate(294.732444, 687.570801)"><g><path d="M 15.625 -32.265625 C 17.863281 -32.265625 19.828125 -31.804688 21.515625 -30.890625 C 23.210938 -29.984375 24.515625 -28.789062 25.421875 -27.3125 L 25.421875 -31.8125 L 35.171875 -31.8125 L 35.171875 -0.0625 C 35.171875 2.863281 34.59375 5.515625 33.4375 7.890625 C 32.28125 10.265625 30.515625 12.15625 28.140625 13.5625 C 25.765625 14.96875 22.804688 15.671875 19.265625 15.671875 C 14.554688 15.671875 10.738281 14.5625 7.8125 12.34375 C 4.882812 10.125 3.210938 7.113281 2.796875 3.3125 L 12.421875 3.3125 C 12.734375 4.519531 13.457031 5.472656 14.59375 6.171875 C 15.738281 6.878906 17.144531 7.234375 18.8125 7.234375 C 20.832031 7.234375 22.4375 6.65625 23.625 5.5 C 24.820312 4.34375 25.421875 2.488281 25.421875 -0.0625 L 25.421875 -4.5625 C 24.472656 -3.082031 23.160156 -1.875 21.484375 -0.9375 C 19.816406 -0.0078125 17.863281 0.453125 15.625 0.453125 C 13 0.453125 10.617188 -0.21875 8.484375 -1.5625 C 6.359375 -2.914062 4.675781 -4.835938 3.4375 -7.328125 C 2.207031 -9.816406 1.59375 -12.695312 1.59375 -15.96875 C 1.59375 -19.238281 2.207031 -22.109375 3.4375 -24.578125 C 4.675781 -27.046875 6.359375 -28.941406 8.484375 -30.265625 C 10.617188 -31.597656 13 -32.265625 15.625 -32.265625 Z M 25.421875 -15.90625 C 25.421875 -18.34375 24.742188 -20.265625 23.390625 -21.671875 C 22.046875 -23.078125 20.40625 -23.78125 18.46875 -23.78125 C 16.53125 -23.78125 14.882812 -23.082031 13.53125 -21.6875 C 12.1875 -20.300781 11.515625 -18.394531 11.515625 -15.96875 C 11.515625 -13.53125 12.1875 -11.597656 13.53125 -10.171875 C 14.882812 -8.753906 16.53125 -8.046875 18.46875 -8.046875 C 20.40625 -8.046875 22.046875 -8.75 23.390625 -10.15625 C 24.742188 -11.5625 25.421875 -13.476562 25.421875 -15.90625 Z M 25.421875 -15.90625 "/></g></g></g><g fill="#00425c" fill-opacity="1"><g transform="translate(333.443444, 687.570801)"><g/></g></g><g fill="#00425c" fill-opacity="1"><g transform="translate(345.529938, 687.570801)"><g><path d="M 13.28125 -27.3125 C 14.226562 -28.789062 15.539062 -29.984375 17.21875 -30.890625 C 18.894531 -31.804688 20.851562 -32.265625 23.09375 -32.265625 C 25.71875 -32.265625 28.09375 -31.597656 30.21875 -30.265625 C 32.34375 -28.941406 34.023438 -27.046875 35.265625 -24.578125 C 36.503906 -22.109375 37.125 -19.238281 37.125 -15.96875 C 37.125 -12.695312 36.503906 -9.816406 35.265625 -7.328125 C 34.023438 -4.835938 32.34375 -2.914062 30.21875 -1.5625 C 28.09375 -0.21875 25.71875 0.453125 23.09375 0.453125 C 20.882812 0.453125 18.929688 0 17.234375 -0.90625 C 15.546875 -1.820312 14.226562 -3.003906 13.28125 -4.453125 L 13.28125 15.171875 L 3.53125 15.171875 L 3.53125 -31.8125 L 13.28125 -31.8125 Z M 27.203125 -15.96875 C 27.203125 -18.394531 26.523438 -20.300781 25.171875 -21.6875 C 23.816406 -23.082031 22.15625 -23.78125 20.1875 -23.78125 C 18.25 -23.78125 16.601562 -23.078125 15.25 -21.671875 C 13.90625 -20.265625 13.234375 -18.34375 13.234375 -15.90625 C 13.234375 -13.476562 13.90625 -11.5625 15.25 -10.15625 C 16.601562 -8.75 18.25 -8.046875 20.1875 -8.046875 C 22.125 -8.046875 23.773438 -8.753906 25.140625 -10.171875 C 26.515625 -11.597656 27.203125 -13.53125 27.203125 -15.96875 Z M 27.203125 -15.96875 "/></g></g></g><g fill="#00425c" fill-opacity="1"><g transform="translate(384.240939, 687.570801)"><g><path d="M 13.28125 -26.515625 C 14.425781 -28.265625 15.851562 -29.640625 17.5625 -30.640625 C 19.269531 -31.648438 21.171875 -32.15625 23.265625 -32.15625 L 23.265625 -21.84375 L 20.578125 -21.84375 C 18.148438 -21.84375 16.328125 -21.316406 15.109375 -20.265625 C 13.890625 -19.222656 13.28125 -17.390625 13.28125 -14.765625 L 13.28125 0 L 3.53125 0 L 3.53125 -31.8125 L 13.28125 -31.8125 Z M 13.28125 -26.515625 "/></g></g></g><g fill="#00425c" fill-opacity="1"><g transform="translate(408.641995, 687.570801)"><g><path d="M 18.015625 0.453125 C 14.898438 0.453125 12.097656 -0.207031 9.609375 -1.53125 C 7.117188 -2.863281 5.160156 -4.765625 3.734375 -7.234375 C 2.304688 -9.710938 1.59375 -12.601562 1.59375 -15.90625 C 1.59375 -19.175781 2.3125 -22.054688 3.75 -24.546875 C 5.195312 -27.035156 7.175781 -28.941406 9.6875 -30.265625 C 12.195312 -31.597656 15.007812 -32.265625 18.125 -32.265625 C 21.25 -32.265625 24.0625 -31.597656 26.5625 -30.265625 C 29.070312 -28.941406 31.050781 -27.035156 32.5 -24.546875 C 33.945312 -22.054688 34.671875 -19.175781 34.671875 -15.90625 C 34.671875 -12.632812 33.9375 -9.753906 32.46875 -7.265625 C 31.007812 -4.773438 29.015625 -2.863281 26.484375 -1.53125 C 23.953125 -0.207031 21.128906 0.453125 18.015625 0.453125 Z M 18.015625 -7.984375 C 19.878906 -7.984375 21.46875 -8.664062 22.78125 -10.03125 C 24.09375 -11.40625 24.75 -13.363281 24.75 -15.90625 C 24.75 -18.457031 24.109375 -20.414062 22.828125 -21.78125 C 21.554688 -23.144531 19.988281 -23.828125 18.125 -23.828125 C 16.226562 -23.828125 14.648438 -23.148438 13.390625 -21.796875 C 12.140625 -20.453125 11.515625 -18.488281 11.515625 -15.90625 C 11.515625 -13.363281 12.128906 -11.40625 13.359375 -10.03125 C 14.597656 -8.664062 16.148438 -7.984375 18.015625 -7.984375 Z M 18.015625 -7.984375 "/></g></g></g><g fill="#00425c" fill-opacity="1"><g transform="translate(444.958491, 687.570801)"><g><path d="M 21.265625 -8.265625 L 21.265625 0 L 16.3125 0 C 12.769531 0 10.007812 -0.863281 8.03125 -2.59375 C 6.0625 -4.320312 5.078125 -7.144531 5.078125 -11.0625 L 5.078125 -23.71875 L 1.203125 -23.71875 L 1.203125 -31.8125 L 5.078125 -31.8125 L 5.078125 -39.5625 L 14.828125 -39.5625 L 14.828125 -31.8125 L 21.203125 -31.8125 L 21.203125 -23.71875 L 14.828125 -23.71875 L 14.828125 -10.953125 C 14.828125 -9.992188 15.050781 -9.304688 15.5 -8.890625 C 15.957031 -8.472656 16.71875 -8.265625 17.78125 -8.265625 Z M 21.265625 -8.265625 "/></g></g></g><g fill="#00425c" fill-opacity="1"><g transform="translate(468.105265, 687.570801)"><g><path d="M 33.53125 -16.421875 C 33.53125 -15.503906 33.472656 -14.550781 33.359375 -13.5625 L 11.296875 -13.5625 C 11.441406 -11.59375 12.070312 -10.082031 13.1875 -9.03125 C 14.3125 -7.988281 15.691406 -7.46875 17.328125 -7.46875 C 19.765625 -7.46875 21.457031 -8.492188 22.40625 -10.546875 L 32.78125 -10.546875 C 32.25 -8.453125 31.289062 -6.566406 29.90625 -4.890625 C 28.519531 -3.222656 26.78125 -1.914062 24.6875 -0.96875 C 22.59375 -0.0195312 20.253906 0.453125 17.671875 0.453125 C 14.554688 0.453125 11.78125 -0.207031 9.34375 -1.53125 C 6.914062 -2.863281 5.015625 -4.765625 3.640625 -7.234375 C 2.273438 -9.710938 1.59375 -12.601562 1.59375 -15.90625 C 1.59375 -19.21875 2.265625 -22.109375 3.609375 -24.578125 C 4.960938 -27.046875 6.851562 -28.941406 9.28125 -30.265625 C 11.71875 -31.597656 14.515625 -32.265625 17.671875 -32.265625 C 20.753906 -32.265625 23.492188 -31.617188 25.890625 -30.328125 C 28.285156 -29.035156 30.15625 -27.191406 31.5 -24.796875 C 32.851562 -22.398438 33.53125 -19.609375 33.53125 -16.421875 Z M 23.546875 -18.984375 C 23.546875 -20.660156 22.972656 -21.988281 21.828125 -22.96875 C 20.691406 -23.957031 19.269531 -24.453125 17.5625 -24.453125 C 15.925781 -24.453125 14.546875 -23.976562 13.421875 -23.03125 C 12.304688 -22.082031 11.613281 -20.734375 11.34375 -18.984375 Z M 23.546875 -18.984375 "/></g></g></g><g fill="#00425c" fill-opacity="1"><g transform="translate(503.224526, 687.570801)"><g><path d="M 14.03125 -31.8125 L 14.03125 0 L 4.28125 0 L 4.28125 -31.8125 Z M 15.796875 -39.734375 L 2.046875 -33.984375 L 2.046875 -40.703125 L 15.796875 -47.328125 Z M 15.796875 -39.734375 "/></g></g></g><g fill="#00425c" fill-opacity="1"><g transform="translate(521.525322, 687.570801)"><g><path d="M 22.921875 -32.15625 C 26.648438 -32.15625 29.625 -30.945312 31.84375 -28.53125 C 34.0625 -26.125 35.171875 -22.8125 35.171875 -18.59375 L 35.171875 0 L 25.484375 0 L 25.484375 -17.28125 C 25.484375 -19.40625 24.929688 -21.054688 23.828125 -22.234375 C 22.722656 -23.410156 21.242188 -24 19.390625 -24 C 17.523438 -24 16.039062 -23.410156 14.9375 -22.234375 C 13.832031 -21.054688 13.28125 -19.40625 13.28125 -17.28125 L 13.28125 0 L 3.53125 0 L 3.53125 -31.8125 L 13.28125 -31.8125 L 13.28125 -27.59375 C 14.269531 -29 15.597656 -30.109375 17.265625 -30.921875 C 18.941406 -31.742188 20.828125 -32.15625 22.921875 -32.15625 Z M 22.921875 -32.15625 "/></g></g></g><g fill="#00425c" fill-opacity="1"><g transform="translate(559.951261, 687.570801)"><g><path d="M 1.59375 -15.96875 C 1.59375 -19.238281 2.207031 -22.109375 3.4375 -24.578125 C 4.675781 -27.046875 6.359375 -28.941406 8.484375 -30.265625 C 10.617188 -31.597656 13 -32.265625 15.625 -32.265625 C 17.863281 -32.265625 19.828125 -31.804688 21.515625 -30.890625 C 23.210938 -29.984375 24.515625 -28.789062 25.421875 -27.3125 L 25.421875 -31.8125 L 35.171875 -31.8125 L 35.171875 0 L 25.421875 0 L 25.421875 -4.5 C 24.472656 -3.019531 23.148438 -1.820312 21.453125 -0.90625 C 19.765625 0 17.800781 0.453125 15.5625 0.453125 C 12.976562 0.453125 10.617188 -0.21875 8.484375 -1.5625 C 6.359375 -2.914062 4.675781 -4.835938 3.4375 -7.328125 C 2.207031 -9.816406 1.59375 -12.695312 1.59375 -15.96875 Z M 25.421875 -15.90625 C 25.421875 -18.34375 24.742188 -20.265625 23.390625 -21.671875 C 22.046875 -23.078125 20.40625 -23.78125 18.46875 -23.78125 C 16.53125 -23.78125 14.882812 -23.082031 13.53125 -21.6875 C 12.1875 -20.300781 11.515625 -18.394531 11.515625 -15.96875 C 11.515625 -13.53125 12.1875 -11.597656 13.53125 -10.171875 C 14.882812 -8.753906 16.53125 -8.046875 18.46875 -8.046875 C 20.40625 -8.046875 22.046875 -8.75 23.390625 -10.15625 C 24.742188 -11.5625 25.421875 -13.476562 25.421875 -15.90625 Z M 25.421875 -15.90625 "/></g></g></g></svg>