<svg xmlns="http://www.w3.org/2000/svg" xmlns:xlink="http://www.w3.org/1999/xlink" width="1080" zoomAndPan="magnify" viewBox="0 0 810 809.999993" height="1080" preserveAspectRatio="xMidYMid meet" version="1.0"><defs><g/><clipPath id="d2915d1900"><path d="M 82.347656 0.00390625 L 727.347656 0.00390625 L 727.347656 810 L 82.347656 810 Z M 82.347656 0.00390625 " clip-rule="nonzero"/></clipPath><clipPath id="1974132d71"><path d="M 119.847656 0.00390625 L 690.140625 0.00390625 C 700.089844 0.00390625 709.625 3.957031 716.660156 10.988281 C 723.691406 18.023438 727.640625 27.558594 727.640625 37.503906 L 727.640625 772.496094 C 727.640625 782.441406 723.691406 791.976562 716.660156 799.011719 C 709.625 806.042969 700.089844 809.996094 690.140625 809.996094 L 119.847656 809.996094 C 109.902344 809.996094 100.363281 806.042969 93.332031 799.011719 C 86.300781 791.976562 82.347656 782.441406 82.347656 772.496094 L 82.347656 37.503906 C 82.347656 27.558594 86.300781 18.023438 93.332031 10.988281 C 100.363281 3.957031 109.902344 0.00390625 119.847656 0.00390625 Z M 119.847656 0.00390625 " clip-rule="nonzero"/></clipPath><clipPath id="e8941ade38"><path d="M 311.839844 95 L 497.839844 95 L 497.839844 377.652344 L 311.839844 377.652344 Z M 311.839844 95 " clip-rule="nonzero"/></clipPath></defs><g clip-path="url(#d2915d1900)"><g clip-path="url(#1974132d71)"><path stroke-linecap="butt" transform="matrix(0.75, 0, 0, 0.75, 82.349025, 0.00567356)" fill="none" stroke-linejoin="miter" d="M 49.998178 -0.00235641 L 810.388841 -0.00235641 C 823.654466 -0.00235641 836.368009 5.268477 845.748218 14.643478 C 855.123218 24.023686 860.388843 36.737229 860.388843 49.997646 L 860.388843 1029.987279 C 860.388843 1043.247696 855.123218 1055.966447 845.748218 1065.341447 C 836.368009 1074.716448 823.654466 1079.987281 810.388841 1079.987281 L 49.998178 1079.987281 C 36.73776 1079.987281 24.01901 1074.716448 14.644009 1065.341447 C 5.269009 1055.966447 -0.00182494 1043.247696 -0.00182494 1029.987279 L -0.00182494 49.997646 C -0.00182494 36.737229 5.269009 24.023686 14.644009 14.643478 C 24.01901 5.268477 36.73776 -0.00235641 49.998178 -0.00235641 Z M 49.998178 -0.00235641 " stroke="#00425c" stroke-width="8" stroke-opacity="1" stroke-miterlimit="4"/></g></g><g clip-path="url(#e8941ade38)"><path fill="#00425c" d="M 378.992188 243.835938 C 378.972656 244.488281 378.804688 245.140625 378.515625 245.726562 C 378.179688 246.574219 377.507812 247.261719 376.707031 247.636719 C 376.53125 247.726562 376.347656 247.792969 376.160156 247.84375 C 376.144531 247.847656 376.125 247.851562 376.109375 247.859375 C 375.9375 247.902344 375.761719 247.933594 375.582031 247.941406 C 375.53125 247.945312 375.480469 247.949219 375.429688 247.949219 C 375.3125 247.953125 375.191406 247.945312 375.070312 247.933594 C 374.777344 247.90625 374.484375 247.851562 374.195312 247.730469 C 374.046875 247.667969 373.910156 247.589844 373.777344 247.507812 C 373.761719 247.5 373.75 247.492188 373.730469 247.484375 C 373.726562 247.484375 373.726562 247.480469 373.722656 247.480469 C 372.601562 246.761719 371.976562 245.386719 371.875 244.082031 C 371.871094 244.042969 371.875 244.007812 371.871094 243.96875 C 371.867188 243.90625 371.867188 243.835938 371.867188 243.769531 C 371.867188 243.695312 371.859375 243.617188 371.859375 243.542969 C 371.882812 242.890625 372.050781 242.238281 372.339844 241.644531 C 372.675781 240.796875 373.34375 240.109375 374.144531 239.730469 C 374.320312 239.644531 374.503906 239.578125 374.695312 239.527344 C 374.710938 239.523438 374.730469 239.519531 374.746094 239.511719 C 374.917969 239.46875 375.09375 239.445312 375.273438 239.429688 C 375.324219 239.425781 375.371094 239.421875 375.425781 239.421875 C 375.542969 239.421875 375.660156 239.425781 375.785156 239.4375 C 376.078125 239.464844 376.371094 239.519531 376.660156 239.640625 C 376.808594 239.703125 376.945312 239.78125 377.074219 239.863281 C 377.09375 239.871094 377.109375 239.875 377.125 239.886719 C 377.128906 239.886719 377.128906 239.890625 377.132812 239.890625 C 378.253906 240.609375 378.878906 241.984375 378.980469 243.289062 C 378.984375 243.328125 378.980469 243.363281 378.984375 243.402344 C 378.988281 243.472656 378.984375 243.535156 378.988281 243.601562 C 378.988281 243.683594 378.996094 243.761719 378.992188 243.835938 Z M 365.046875 243.40625 C 365.039062 243.367188 365.046875 243.332031 365.039062 243.292969 C 364.941406 241.988281 364.320312 240.609375 363.191406 239.894531 C 363.1875 239.890625 363.1875 239.890625 363.183594 239.890625 C 363.167969 239.882812 363.148438 239.875 363.136719 239.867188 C 363 239.785156 362.863281 239.710938 362.71875 239.644531 C 362.429688 239.523438 362.136719 239.46875 361.84375 239.445312 C 361.722656 239.429688 361.605469 239.421875 361.484375 239.425781 C 361.433594 239.425781 361.386719 239.429688 361.332031 239.433594 C 361.152344 239.449219 360.976562 239.472656 360.808594 239.519531 C 360.789062 239.523438 360.773438 239.527344 360.753906 239.53125 C 360.566406 239.582031 360.382812 239.648438 360.207031 239.738281 C 359.40625 240.113281 358.738281 240.800781 358.398438 241.648438 C 358.113281 242.238281 357.945312 242.890625 357.921875 243.546875 C 357.917969 243.621094 357.925781 243.695312 357.925781 243.773438 C 357.925781 243.84375 357.925781 243.910156 357.929688 243.972656 C 357.929688 244.015625 357.929688 244.054688 357.9375 244.089844 C 358.035156 245.394531 358.65625 246.773438 359.78125 247.484375 C 359.789062 247.484375 359.789062 247.488281 359.792969 247.488281 C 359.808594 247.5 359.824219 247.503906 359.839844 247.511719 C 359.976562 247.59375 360.113281 247.667969 360.257812 247.734375 C 360.542969 247.851562 360.839844 247.910156 361.132812 247.9375 C 361.253906 247.949219 361.371094 247.957031 361.492188 247.953125 C 361.542969 247.953125 361.589844 247.949219 361.644531 247.945312 C 361.824219 247.933594 362 247.90625 362.167969 247.863281 C 362.1875 247.859375 362.203125 247.851562 362.222656 247.847656 C 362.410156 247.796875 362.59375 247.730469 362.769531 247.644531 C 363.570312 247.265625 364.238281 246.578125 364.578125 245.730469 C 364.859375 245.144531 365.03125 244.492188 365.054688 243.839844 C 365.058594 243.765625 365.050781 243.6875 365.050781 243.609375 C 365.046875 243.542969 365.050781 243.476562 365.046875 243.40625 Z M 358.207031 260.3125 C 356.777344 260.339844 355.707031 260.679688 354.894531 261.382812 C 353.660156 262.675781 353.625 263.679688 353.816406 264.320312 C 354 264.851562 354.480469 265.210938 355.0625 265.261719 C 355.640625 265.3125 356.1875 265.035156 356.46875 264.5625 C 356.570312 264.410156 356.640625 264.203125 356.675781 263.953125 L 356.679688 263.933594 C 356.707031 263.878906 356.730469 263.828125 356.761719 263.78125 L 356.804688 263.691406 C 356.863281 263.554688 357.214844 263.375 357.757812 263.316406 C 359.359375 263.117188 361.105469 264.363281 361.796875 264.917969 C 361.882812 264.988281 361.96875 265.070312 362.050781 265.152344 C 362.351562 265.453125 362.769531 265.863281 363.398438 265.871094 C 363.417969 265.871094 363.433594 265.871094 363.445312 265.871094 C 364.03125 265.871094 364.550781 265.511719 364.785156 264.949219 C 365.027344 264.367188 364.902344 263.726562 364.457031 263.316406 C 362.457031 261.417969 360.308594 260.386719 358.207031 260.3125 Z M 378.484375 261.339844 C 377.71875 260.675781 376.644531 260.339844 375.179688 260.3125 C 373.113281 260.386719 370.964844 261.417969 368.957031 263.304688 C 368.519531 263.71875 368.390625 264.363281 368.628906 264.9375 C 368.867188 265.503906 369.386719 265.863281 369.957031 265.863281 C 369.972656 265.863281 369.988281 265.863281 370.003906 265.863281 C 370.652344 265.859375 371.066406 265.445312 371.367188 265.144531 C 371.449219 265.0625 371.53125 264.980469 371.632812 264.898438 C 372.3125 264.351562 374.0625 263.109375 375.664062 263.304688 C 376.207031 263.371094 376.558594 263.550781 376.617188 263.683594 L 376.660156 263.769531 C 376.691406 263.820312 376.714844 263.871094 376.742188 263.921875 L 376.746094 263.945312 C 376.773438 264.132812 376.828125 264.367188 376.953125 264.554688 C 377.234375 265.03125 377.78125 265.308594 378.359375 265.257812 C 378.945312 265.210938 379.421875 264.851562 379.613281 264.296875 C 379.800781 263.679688 379.761719 262.675781 378.484375 261.339844 Z M 497.550781 195.207031 C 497.183594 228.792969 497.140625 263.984375 497.144531 290.152344 L 497.152344 305.382812 C 497.152344 309.324219 497.15625 312.941406 497.15625 316.203125 C 497.15625 323.65625 497.148438 329.265625 497.121094 332.738281 C 497.113281 334.039062 497.09375 335.039062 497.082031 335.722656 C 497.078125 335.949219 497.070312 336.144531 497.066406 336.300781 C 497.058594 336.378906 497.058594 336.449219 497.054688 336.511719 C 497.050781 336.601562 497.039062 336.691406 497.019531 336.777344 C 497.015625 336.800781 497.011719 336.828125 497.007812 336.847656 C 497 336.917969 496.984375 336.988281 496.96875 337.058594 C 496.945312 337.164062 496.914062 337.265625 496.886719 337.363281 C 496.859375 337.445312 496.828125 337.53125 496.800781 337.601562 C 496.777344 337.667969 496.746094 337.722656 496.71875 337.777344 C 496.710938 337.789062 496.707031 337.800781 496.695312 337.816406 C 496.679688 337.851562 496.65625 337.886719 496.640625 337.917969 C 496.601562 337.988281 496.5625 338.054688 496.523438 338.121094 C 496.488281 338.179688 496.449219 338.234375 496.402344 338.292969 L 496.328125 338.382812 C 496.308594 338.410156 496.277344 338.445312 496.246094 338.484375 C 496.226562 338.507812 496.203125 338.539062 496.171875 338.574219 C 496.167969 338.582031 496.164062 338.582031 496.160156 338.589844 C 496.160156 338.589844 496.152344 338.59375 496.148438 338.597656 C 496.109375 338.636719 496.066406 338.6875 496.007812 338.738281 C 495.957031 338.789062 495.894531 338.839844 495.835938 338.886719 C 495.828125 338.890625 495.824219 338.898438 495.816406 338.902344 C 495.75 338.957031 495.667969 339.027344 495.554688 339.097656 C 495.113281 339.394531 494.605469 339.730469 494.035156 340.09375 C 493.984375 340.128906 493.929688 340.164062 493.875 340.195312 C 487.410156 344.339844 473.605469 352.417969 459.550781 360.15625 C 459.332031 360.273438 459.117188 360.394531 458.898438 360.515625 C 455.546875 362.355469 452.183594 364.175781 448.914062 365.910156 C 448.410156 366.179688 447.910156 366.445312 447.414062 366.707031 C 445.769531 367.574219 444.160156 368.417969 442.582031 369.226562 C 442.535156 369.253906 442.488281 369.273438 442.4375 369.300781 C 441.023438 370.027344 439.644531 370.726562 438.304688 371.402344 C 437.53125 371.792969 436.769531 372.167969 436.027344 372.535156 C 435.207031 372.9375 434.410156 373.328125 433.632812 373.699219 C 433.160156 373.925781 432.691406 374.152344 432.234375 374.367188 C 431.546875 374.6875 430.878906 375.003906 430.226562 375.300781 C 429.679688 375.554688 429.144531 375.792969 428.628906 376.023438 C 427.917969 376.339844 427.234375 376.636719 426.589844 376.910156 C 426.3125 377.027344 426.035156 377.140625 425.769531 377.25 C 425.734375 377.261719 425.699219 377.277344 425.664062 377.289062 C 425.625 377.304688 425.589844 377.316406 425.554688 377.324219 C 425.519531 377.339844 425.484375 377.347656 425.449219 377.359375 C 425.367188 377.386719 425.277344 377.414062 425.191406 377.429688 C 425.160156 377.4375 425.128906 377.433594 425.097656 377.441406 C 424.988281 377.464844 424.878906 377.488281 424.765625 377.492188 C 424.679688 377.5 424.589844 377.503906 424.5 377.503906 L 315.203125 377.503906 C 313.378906 377.503906 311.890625 376.015625 311.890625 374.191406 C 311.890625 373.984375 311.914062 373.777344 311.957031 373.570312 C 311.875 371.332031 311.984375 361.589844 312.15625 345.851562 L 312.207031 341.703125 C 312.617188 305.203125 313.355469 239.761719 312.730469 190.628906 C 312.675781 186.074219 312.605469 181.765625 312.523438 177.703125 C 312.515625 177.390625 312.507812 177.074219 312.503906 176.757812 C 312.503906 176.632812 312.507812 176.488281 312.523438 176.339844 C 312.523438 176.320312 312.535156 176.304688 312.535156 176.289062 C 312.542969 176.210938 312.558594 176.125 312.582031 176.035156 C 312.582031 176.027344 312.582031 176.023438 312.582031 176.015625 C 312.582031 176.011719 312.585938 176 312.585938 175.996094 C 312.589844 175.972656 312.589844 175.949219 312.601562 175.925781 C 312.605469 175.902344 312.617188 175.875 312.625 175.847656 C 312.625 175.84375 312.625 175.835938 312.628906 175.832031 C 312.636719 175.820312 312.640625 175.8125 312.644531 175.804688 C 312.664062 175.726562 312.691406 175.648438 312.722656 175.5625 C 312.746094 175.496094 312.757812 175.433594 312.789062 175.367188 C 312.871094 175.167969 312.976562 174.976562 313.101562 174.792969 C 320.453125 164.550781 328.226562 154.148438 336.058594 143.820312 C 340.757812 137.625 345.476562 131.457031 350.132812 125.367188 L 350.402344 125.019531 C 350.402344 124.972656 350.40625 124.929688 350.40625 124.886719 C 350.417969 124.585938 350.433594 124.292969 350.449219 124.003906 C 350.453125 123.90625 350.457031 123.808594 350.460938 123.714844 C 350.476562 123.449219 350.488281 123.1875 350.496094 122.929688 C 350.503906 122.796875 350.511719 122.671875 350.515625 122.542969 C 350.523438 122.355469 350.53125 122.167969 350.542969 121.988281 C 350.558594 121.652344 350.574219 121.320312 350.589844 120.996094 C 350.941406 113.4375 351.085938 110.308594 352 101.128906 C 352.019531 100.933594 352.054688 100.742188 352.109375 100.558594 C 352.425781 99.460938 353.289062 98.59375 354.375 98.277344 C 354.554688 98.226562 354.746094 98.191406 354.9375 98.167969 C 386.863281 94.570312 420.566406 94.152344 455.234375 96.898438 C 457.953125 97.113281 460.671875 97.347656 463.398438 97.601562 C 465.199219 97.765625 466.515625 99.3125 466.398438 101.117188 L 464.957031 122.929688 C 465.160156 123.160156 465.359375 123.394531 465.5625 123.625 C 465.714844 123.796875 465.863281 123.972656 466.011719 124.144531 C 466.28125 124.441406 466.546875 124.738281 466.820312 125.03125 C 466.96875 125.191406 467.113281 125.355469 467.261719 125.515625 C 467.546875 125.824219 467.835938 126.128906 468.125 126.4375 C 468.269531 126.585938 468.402344 126.738281 468.546875 126.886719 C 468.859375 127.210938 469.167969 127.535156 469.484375 127.859375 C 469.613281 127.992188 469.738281 128.121094 469.871094 128.257812 C 470.21875 128.613281 470.570312 128.972656 470.925781 129.332031 C 471.019531 129.429688 471.121094 129.527344 471.21875 129.628906 C 471.652344 130.0625 472.089844 130.5 472.53125 130.9375 C 472.554688 130.957031 472.570312 130.976562 472.59375 131 C 473.535156 131.929688 474.492188 132.871094 475.464844 133.828125 L 475.585938 133.949219 C 482.304688 140.542969 489.914062 148.011719 497.453125 158.519531 C 497.632812 158.78125 497.769531 159.039062 497.878906 159.320312 C 497.886719 159.34375 497.890625 159.367188 497.902344 159.382812 C 497.90625 159.398438 497.910156 159.40625 497.914062 159.414062 C 498.035156 159.789062 498.089844 160.1875 498.074219 160.5625 C 497.953125 166.636719 497.847656 172.925781 497.757812 179.328125 Z M 318.890625 172.472656 C 318.316406 173.265625 317.742188 174.054688 317.175781 174.839844 C 330.703125 175.6875 347.957031 175.871094 360.449219 175.871094 C 387.339844 175.871094 413.050781 175.046875 424.265625 174.253906 C 424.53125 173.890625 424.792969 173.523438 425.054688 173.152344 C 425.167969 172.992188 425.277344 172.839844 425.390625 172.683594 C 425.71875 172.222656 426.054688 171.757812 426.390625 171.289062 C 426.574219 171.03125 426.757812 170.773438 426.945312 170.515625 C 427.164062 170.214844 427.382812 169.902344 427.601562 169.597656 C 428.359375 168.539062 429.132812 167.460938 429.914062 166.367188 C 430.535156 165.496094 431.167969 164.621094 431.796875 163.734375 C 431.992188 163.453125 432.199219 163.175781 432.398438 162.894531 C 432.835938 162.285156 433.269531 161.671875 433.710938 161.058594 C 433.960938 160.710938 434.214844 160.355469 434.46875 160.003906 C 434.875 159.4375 435.28125 158.871094 435.6875 158.300781 C 435.960938 157.925781 436.230469 157.550781 436.5 157.171875 C 436.878906 156.644531 437.257812 156.117188 437.636719 155.585938 C 437.921875 155.195312 438.203125 154.800781 438.484375 154.402344 C 438.871094 153.863281 439.257812 153.324219 439.644531 152.789062 C 439.925781 152.402344 440.207031 152.011719 440.488281 151.621094 C 440.867188 151.097656 441.242188 150.566406 441.625 150.042969 C 441.921875 149.628906 442.214844 149.222656 442.511719 148.8125 C 442.882812 148.300781 443.25 147.792969 443.617188 147.285156 C 443.914062 146.871094 444.210938 146.460938 444.511719 146.046875 C 444.886719 145.53125 445.257812 145.015625 445.628906 144.5 C 445.914062 144.105469 446.203125 143.710938 446.488281 143.316406 C 446.875 142.789062 447.257812 142.257812 447.640625 141.730469 C 447.921875 141.347656 448.199219 140.960938 448.480469 140.582031 C 448.867188 140.054688 449.246094 139.535156 449.628906 139.015625 C 449.902344 138.636719 450.179688 138.257812 450.453125 137.882812 C 450.859375 137.332031 451.257812 136.789062 451.660156 136.246094 C 451.910156 135.910156 452.152344 135.574219 452.402344 135.234375 C 452.835938 134.644531 453.269531 134.0625 453.699219 133.480469 C 453.914062 133.191406 454.128906 132.898438 454.34375 132.613281 C 454.910156 131.84375 455.476562 131.082031 456.039062 130.328125 C 456.109375 130.238281 456.179688 130.140625 456.246094 130.046875 C 456.871094 129.207031 457.496094 128.375 458.113281 127.558594 C 458.304688 127.300781 458.492188 127.050781 458.683594 126.796875 C 459.0625 126.296875 459.4375 125.792969 459.808594 125.300781 C 459.375 125.3125 458.941406 125.320312 458.511719 125.332031 C 457.800781 125.351562 457.085938 125.367188 456.378906 125.386719 C 455.285156 125.414062 454.1875 125.4375 453.09375 125.464844 C 452.40625 125.480469 451.714844 125.5 451.027344 125.515625 C 449.890625 125.546875 448.761719 125.574219 447.625 125.605469 C 446.972656 125.621094 446.320312 125.640625 445.671875 125.65625 C 444.019531 125.699219 442.371094 125.746094 440.742188 125.789062 L 439.667969 125.816406 C 421.644531 126.304688 403.007812 126.808594 384.066406 126.808594 C 381.957031 126.808594 379.324219 126.851562 376.429688 126.917969 C 374.695312 126.957031 372.863281 127 370.988281 127.046875 C 370.65625 127.054688 370.320312 127.0625 369.988281 127.070312 C 369.855469 127.074219 369.730469 127.074219 369.597656 127.078125 C 369.304688 127.089844 369.007812 127.09375 368.714844 127.101562 C 368.097656 127.113281 367.484375 127.132812 366.871094 127.144531 C 366.792969 127.144531 366.707031 127.148438 366.628906 127.148438 C 365.960938 127.167969 365.289062 127.179688 364.625 127.195312 C 364.601562 127.195312 364.585938 127.195312 364.5625 127.195312 C 361.769531 127.253906 359.0625 127.304688 356.578125 127.316406 C 356.558594 127.316406 356.53125 127.316406 356.507812 127.316406 C 355.457031 127.324219 354.449219 127.324219 353.496094 127.320312 C 353.386719 127.320312 353.277344 127.320312 353.171875 127.316406 C 353.066406 127.316406 352.957031 127.316406 352.851562 127.3125 L 352.78125 127.398438 C 351.269531 129.378906 349.746094 131.371094 348.222656 133.367188 C 347.835938 133.871094 347.449219 134.378906 347.0625 134.886719 C 345.910156 136.390625 344.757812 137.902344 343.605469 139.414062 C 343.085938 140.097656 342.566406 140.785156 342.039062 141.46875 C 341.027344 142.796875 340.019531 144.128906 339.011719 145.457031 C 338.410156 146.246094 337.816406 147.039062 337.214844 147.824219 C 336.277344 149.066406 335.34375 150.304688 334.40625 151.542969 C 333.78125 152.371094 333.160156 153.203125 332.535156 154.03125 C 331.636719 155.222656 330.738281 156.425781 329.84375 157.617188 C 329.195312 158.484375 328.550781 159.351562 327.910156 160.214844 C 327.046875 161.375 326.183594 162.535156 325.324219 163.691406 C 324.664062 164.585938 324.011719 165.472656 323.359375 166.363281 C 322.53125 167.488281 321.699219 168.617188 320.882812 169.738281 C 320.210938 170.652344 319.550781 171.5625 318.890625 172.472656 Z M 315.816406 316.960938 C 317.152344 317.230469 318.460938 317.800781 319.726562 318.675781 C 321.363281 319.753906 322.734375 321.125 324.054688 322.449219 C 324.796875 323.195312 325.496094 323.894531 326.246094 324.542969 C 326.984375 325.179688 326.984375 325.179688 327.566406 325.554688 L 328.238281 325.984375 C 328.34375 326.042969 328.644531 326.1875 328.855469 326.289062 C 328.894531 326.304688 328.9375 326.320312 328.976562 326.335938 C 329.164062 326.402344 329.375 326.46875 329.550781 326.496094 C 331.21875 326.808594 333.421875 325.199219 335.753906 323.492188 C 337.390625 322.292969 339.246094 320.933594 341.253906 319.980469 C 346.777344 317.304688 352.59375 316.597656 357.621094 317.988281 C 357.640625 317.992188 357.667969 318.003906 357.691406 318.011719 C 359.847656 318.710938 362.246094 319.71875 364.5625 320.695312 C 369.21875 322.652344 374.492188 324.867188 377.589844 324.382812 C 380.042969 324.042969 382.03125 322.886719 384.328125 321.558594 C 385.976562 320.601562 387.671875 319.617188 389.75 318.789062 C 389.773438 318.78125 389.800781 318.769531 389.828125 318.757812 C 394.363281 317.210938 399.621094 315.707031 404.625 317.476562 C 406.726562 318.246094 408.5 319.449219 410.210938 320.617188 C 411.191406 321.28125 412.113281 321.910156 413.082031 322.449219 C 414.976562 323.605469 416.628906 323.527344 417.140625 323.3125 C 418.164062 322.902344 419.074219 322.203125 420.039062 321.472656 C 421.015625 320.730469 422.019531 319.957031 423.238281 319.394531 C 423.335938 319.347656 423.445312 319.300781 423.542969 319.257812 C 424.097656 258.402344 424.101562 212.410156 423.542969 178.667969 C 423.539062 178.324219 423.535156 177.988281 423.53125 177.652344 C 410.121094 178.550781 383.625 179.210938 360.449219 179.210938 C 347.574219 179.210938 329.640625 179.011719 315.871094 178.101562 C 315.871094 178.121094 315.871094 178.140625 315.871094 178.160156 C 315.910156 180.226562 315.945312 182.339844 315.980469 184.484375 C 315.984375 184.648438 315.984375 184.804688 315.988281 184.96875 C 315.996094 185.398438 316 185.832031 316.003906 186.265625 C 316.011719 186.71875 316.019531 187.167969 316.027344 187.625 C 316.03125 187.789062 316.03125 187.953125 316.035156 188.117188 C 316.167969 197.339844 316.25 207.574219 316.292969 218.691406 C 316.414062 253.730469 316.085938 291.265625 315.816406 316.960938 Z M 429.136719 173.203125 C 429.019531 173.363281 428.90625 173.523438 428.792969 173.675781 C 428.820312 173.671875 428.84375 173.667969 428.863281 173.664062 C 429.328125 173.589844 429.800781 173.515625 430.289062 173.429688 C 430.304688 173.429688 430.316406 173.425781 430.332031 173.425781 C 445.882812 170.828125 474.84375 163.808594 491.722656 159.398438 C 485.328125 156.007812 477.125 151.519531 469.140625 147.152344 C 463.628906 144.140625 458.410156 141.28125 453.882812 138.84375 C 453.742188 139.035156 453.597656 139.226562 453.457031 139.425781 C 453.136719 139.859375 452.820312 140.292969 452.5 140.730469 C 452.164062 141.191406 451.824219 141.648438 451.488281 142.113281 C 451.15625 142.570312 450.828125 143.023438 450.496094 143.480469 C 450.15625 143.941406 449.816406 144.410156 449.480469 144.878906 C 449.15625 145.328125 448.832031 145.773438 448.507812 146.21875 C 448.152344 146.710938 447.796875 147.195312 447.441406 147.6875 C 447.128906 148.121094 446.8125 148.558594 446.496094 148.992188 C 446.144531 149.480469 445.789062 149.972656 445.433594 150.460938 C 445.109375 150.90625 444.789062 151.355469 444.46875 151.800781 C 444.117188 152.292969 443.765625 152.777344 443.414062 153.269531 C 443.101562 153.707031 442.785156 154.144531 442.46875 154.585938 C 442.117188 155.078125 441.757812 155.574219 441.402344 156.070312 C 441.085938 156.511719 440.765625 156.949219 440.453125 157.390625 C 440.058594 157.9375 439.664062 158.484375 439.273438 159.03125 C 439.019531 159.386719 438.761719 159.746094 438.507812 160.101562 C 438.121094 160.640625 437.738281 161.179688 437.351562 161.710938 C 437.050781 162.132812 436.75 162.558594 436.445312 162.976562 C 436.1875 163.335938 435.933594 163.691406 435.679688 164.050781 C 435.3125 164.566406 434.941406 165.082031 434.574219 165.601562 C 433.925781 166.507812 433.277344 167.40625 432.636719 168.304688 C 431.804688 169.46875 430.988281 170.613281 430.179688 171.738281 C 429.828125 172.238281 429.476562 172.722656 429.136719 173.203125 Z M 463.363281 126.195312 C 463.355469 126.1875 463.347656 126.179688 463.339844 126.164062 C 463.320312 126.1875 463.304688 126.207031 463.289062 126.230469 C 460.980469 129.273438 458.5 132.589844 455.886719 136.128906 C 460.320312 138.523438 465.402344 141.300781 470.746094 144.222656 C 477.644531 147.996094 484.710938 151.863281 490.621094 155.023438 C 490.464844 154.824219 490.304688 154.628906 490.148438 154.433594 C 489.902344 154.128906 489.660156 153.828125 489.417969 153.535156 C 489.210938 153.28125 489 153.03125 488.796875 152.78125 C 488.554688 152.488281 488.308594 152.199219 488.070312 151.914062 C 487.863281 151.667969 487.652344 151.429688 487.445312 151.1875 C 487.207031 150.90625 486.960938 150.625 486.71875 150.347656 C 486.515625 150.109375 486.308594 149.875 486.101562 149.644531 C 485.863281 149.371094 485.621094 149.09375 485.378906 148.828125 C 485.175781 148.597656 484.96875 148.367188 484.761719 148.140625 C 484.523438 147.875 484.28125 147.613281 484.039062 147.347656 C 483.839844 147.128906 483.636719 146.90625 483.4375 146.6875 C 483.191406 146.425781 482.949219 146.164062 482.707031 145.90625 C 482.507812 145.695312 482.316406 145.488281 482.117188 145.28125 C 482.117188 145.277344 482.113281 145.277344 482.113281 145.277344 C 481.871094 145.019531 481.625 144.761719 481.378906 144.507812 C 481.1875 144.304688 480.992188 144.105469 480.804688 143.90625 C 480.554688 143.648438 480.3125 143.394531 480.066406 143.140625 C 479.882812 142.949219 479.695312 142.757812 479.511719 142.570312 C 479.257812 142.308594 479.007812 142.054688 478.757812 141.800781 C 478.578125 141.621094 478.402344 141.4375 478.222656 141.265625 C 477.964844 141 477.707031 140.742188 477.445312 140.484375 C 477.289062 140.332031 477.132812 140.175781 476.980469 140.019531 C 476.957031 140 476.929688 139.972656 476.910156 139.949219 C 476.648438 139.691406 476.386719 139.433594 476.128906 139.179688 C 475.984375 139.035156 475.835938 138.886719 475.691406 138.746094 C 475.390625 138.449219 475.09375 138.152344 474.789062 137.859375 C 474.675781 137.75 474.5625 137.632812 474.449219 137.523438 C 474.042969 137.125 473.640625 136.730469 473.238281 136.335938 L 473.101562 136.203125 C 472.332031 135.449219 471.574219 134.707031 470.824219 133.960938 C 470.699219 133.839844 470.570312 133.710938 470.449219 133.589844 C 469.710938 132.859375 468.984375 132.132812 468.269531 131.410156 C 468.132812 131.273438 468 131.136719 467.863281 131.003906 C 467.152344 130.28125 466.457031 129.554688 465.769531 128.832031 C 465.660156 128.71875 465.550781 128.597656 465.441406 128.480469 C 464.738281 127.71875 464.042969 126.960938 463.363281 126.195312 Z M 494.695312 162.078125 C 478.089844 166.464844 442.359375 175.269531 426.867188 177.34375 C 426.867188 177.351562 426.867188 177.359375 426.867188 177.363281 C 427.082031 189.886719 427.21875 204.402344 427.269531 220.542969 C 427.363281 247.238281 427.242188 279.109375 426.90625 317.890625 C 427.484375 317.699219 428.101562 317.554688 428.753906 317.523438 C 430.078125 317.40625 431.324219 317.730469 432.53125 318.046875 C 434.191406 318.480469 435.761719 318.886719 437.53125 318.167969 C 440.015625 317.160156 440.503906 315.871094 441.320312 313.730469 C 441.9375 312.101562 442.707031 310.074219 444.570312 307.941406 C 447.414062 304.6875 451.820312 303.003906 456.355469 303.433594 C 457.625 303.570312 458.992188 303.871094 460.308594 304.167969 C 461.464844 304.425781 463.214844 304.816406 463.699219 304.734375 C 463.792969 304.714844 463.917969 304.703125 464.011719 304.703125 C 464.757812 304.703125 465.277344 303.902344 466.578125 301.613281 C 467.035156 300.8125 467.546875 299.90625 468.171875 298.910156 C 470.023438 295.71875 473.535156 293.957031 476.71875 294.621094 C 478.097656 294.902344 479.320312 295.445312 480.507812 295.96875 C 480.953125 296.164062 481.398438 296.363281 481.847656 296.542969 C 483.082031 297.0625 483.613281 297.164062 483.792969 297.179688 C 484.34375 296.761719 485.019531 295.777344 485.679688 294.820312 C 486.863281 293.09375 488.210938 291.136719 490.269531 289.976562 C 491.34375 289.410156 492.503906 289.003906 493.808594 288.738281 C 493.804688 262.457031 493.851562 228.78125 494.203125 196.382812 L 494.214844 195.21875 C 494.273438 189.894531 494.335938 184.617188 494.410156 179.410156 L 494.429688 178.09375 C 494.496094 173.417969 494.578125 168.816406 494.660156 164.300781 Z M 493.804688 292.164062 C 493.089844 292.355469 492.445312 292.601562 491.867188 292.910156 C 490.527344 293.667969 489.460938 295.214844 488.433594 296.71875 C 487.421875 298.1875 486.464844 299.574219 485.15625 300.269531 C 484.996094 300.355469 484.816406 300.414062 484.632812 300.441406 C 483.75 300.636719 482.769531 300.566406 480.578125 299.640625 C 480.117188 299.457031 479.636719 299.242188 479.15625 299.027344 C 478.085938 298.554688 477.082031 298.105469 476.050781 297.898438 C 473.941406 297.457031 471.988281 299 471.054688 300.613281 C 471.042969 300.636719 471.035156 300.652344 471.019531 300.671875 C 470.429688 301.613281 469.929688 302.488281 469.488281 303.261719 C 468.058594 305.785156 466.824219 307.96875 464.164062 308.046875 C 463.09375 308.199219 461.707031 307.910156 459.582031 307.433594 C 458.355469 307.160156 457.085938 306.878906 456.027344 306.765625 C 452.574219 306.441406 449.226562 307.699219 447.089844 310.148438 C 445.621094 311.828125 445.023438 313.402344 444.445312 314.921875 C 443.546875 317.28125 442.617188 319.71875 438.789062 321.273438 C 435.992188 322.40625 433.609375 321.785156 431.691406 321.285156 C 430.667969 321.019531 429.777344 320.785156 429.027344 320.859375 C 428.992188 320.863281 428.957031 320.863281 428.921875 320.871094 C 428.316406 320.886719 427.621094 321.179688 426.875 321.503906 C 426.828125 326.546875 426.625 348.023438 426.453125 362.582031 C 426.402344 366.433594 426.363281 370.042969 426.332031 373.375 C 444.335938 365.558594 484.0625 342.777344 493.664062 336.332031 C 493.675781 336.320312 493.6875 336.308594 493.703125 336.300781 C 493.707031 336.261719 493.714844 336.226562 493.71875 336.1875 C 493.816406 334.015625 493.816406 323.023438 493.808594 305.382812 C 493.808594 301.269531 493.804688 296.84375 493.804688 292.164062 Z M 315.238281 374.203125 L 422.976562 374.15625 C 423.015625 370.597656 423.054688 366.714844 423.105469 362.53125 C 423.117188 361.796875 423.125 361.050781 423.132812 360.300781 C 423.15625 358.300781 423.175781 356.234375 423.203125 354.101562 C 423.304688 344.710938 423.414062 334.234375 423.515625 323.082031 C 423.03125 323.398438 422.554688 323.761719 422.070312 324.136719 C 420.972656 324.972656 419.832031 325.84375 418.414062 326.410156 C 416.875 327.058594 414.089844 326.984375 411.398438 325.34375 C 410.355469 324.761719 409.332031 324.0625 408.335938 323.386719 C 406.722656 322.289062 405.195312 321.25 403.5 320.628906 C 399.539062 319.226562 394.949219 320.554688 390.953125 321.914062 C 389.121094 322.648438 387.542969 323.566406 386.011719 324.453125 C 383.515625 325.902344 381.160156 327.269531 378.085938 327.699219 C 374.070312 328.324219 368.582031 326.019531 363.273438 323.785156 C 360.925781 322.800781 358.714844 321.867188 356.695312 321.210938 C 352.464844 320.046875 347.496094 320.6875 342.699219 323.003906 C 340.96875 323.828125 339.320312 325.035156 337.726562 326.203125 C 334.796875 328.351562 332.019531 330.378906 328.984375 329.804688 C 328.578125 329.742188 328.160156 329.605469 327.808594 329.484375 C 327.765625 329.46875 327.71875 329.453125 327.679688 329.433594 C 327.621094 329.410156 327.535156 329.378906 327.484375 329.351562 C 327.019531 329.128906 326.660156 328.949219 326.445312 328.820312 L 325.769531 328.382812 C 325.011719 327.894531 324.949219 327.847656 324.054688 327.078125 C 323.21875 326.347656 322.445312 325.570312 321.695312 324.824219 C 320.4375 323.5625 319.246094 322.367188 317.863281 321.457031 C 317.164062 320.972656 316.472656 320.625 315.792969 320.40625 C 315.785156 320.800781 315.78125 321.1875 315.777344 321.578125 C 315.777344 321.722656 315.773438 321.863281 315.773438 322.007812 C 315.765625 322.90625 315.757812 323.792969 315.746094 324.667969 C 315.742188 324.875 315.742188 325.082031 315.742188 325.285156 C 315.734375 326.050781 315.726562 326.808594 315.714844 327.558594 C 315.710938 327.871094 315.710938 328.183594 315.707031 328.496094 C 315.699219 329.332031 315.691406 330.15625 315.683594 330.96875 C 315.683594 331.0625 315.683594 331.152344 315.675781 331.246094 C 315.632812 335.214844 315.589844 338.972656 315.550781 342.460938 C 315.550781 342.472656 315.550781 342.488281 315.550781 342.496094 L 315.53125 344.191406 L 315.515625 345.882812 C 315.511719 346.347656 315.507812 346.808594 315.496094 347.261719 C 315.375 358.183594 315.285156 366.765625 315.285156 370.964844 C 315.285156 372.191406 315.292969 373.039062 315.308594 373.46875 C 315.328125 373.589844 315.332031 373.714844 315.324219 373.835938 C 315.300781 373.957031 315.277344 374.082031 315.238281 374.203125 Z M 353.917969 121.148438 C 353.878906 121.996094 353.832031 122.917969 353.789062 123.894531 C 353.789062 123.917969 353.785156 123.945312 353.785156 123.972656 C 353.816406 123.972656 353.84375 123.972656 353.875 123.972656 C 354.421875 123.972656 354.984375 123.972656 355.5625 123.972656 C 355.632812 123.972656 355.703125 123.972656 355.773438 123.972656 C 356.371094 123.96875 356.984375 123.964844 357.617188 123.957031 C 357.652344 123.957031 357.691406 123.957031 357.726562 123.957031 C 359.738281 123.9375 361.890625 123.902344 364.09375 123.855469 C 364.105469 123.855469 364.113281 123.855469 364.125 123.855469 C 364.847656 123.835938 365.574219 123.824219 366.304688 123.804688 C 366.359375 123.804688 366.410156 123.800781 366.460938 123.800781 C 367.171875 123.785156 367.886719 123.765625 368.605469 123.75 C 368.660156 123.75 368.71875 123.746094 368.78125 123.746094 C 369.488281 123.726562 370.199219 123.710938 370.90625 123.691406 C 375.914062 123.570312 380.648438 123.457031 384.0625 123.457031 C 402.960938 123.457031 421.574219 122.953125 439.574219 122.460938 L 440.648438 122.433594 C 442.433594 122.386719 444.238281 122.339844 446.050781 122.289062 C 446.464844 122.28125 446.882812 122.269531 447.292969 122.261719 C 448.675781 122.226562 450.0625 122.191406 451.453125 122.152344 C 452.128906 122.132812 452.800781 122.117188 453.476562 122.097656 C 454.632812 122.066406 455.785156 122.042969 456.941406 122.011719 C 457.691406 121.992188 458.433594 121.976562 459.183594 121.957031 C 460.011719 121.941406 460.84375 121.917969 461.671875 121.902344 L 463.054688 101 L 463.058594 100.917969 C 425.753906 97.4375 389.503906 97.632812 355.296875 101.484375 C 354.40625 110.554688 354.261719 113.652344 353.917969 121.148438 Z M 332.59375 240.375 C 331.449219 239.316406 330.882812 237.867188 330.917969 236.148438 C 330.988281 232.253906 334.199219 227.351562 336.417969 225.414062 C 337.867188 224 339.660156 223.09375 341.609375 222.789062 C 343.90625 222.367188 346.136719 222.652344 348.019531 223.613281 C 349.683594 224.378906 351.128906 225.6875 352.339844 227.5 C 352.433594 227.441406 352.523438 227.375 352.621094 227.3125 C 352.082031 224.605469 351.96875 222.929688 351.972656 221.332031 C 351.992188 220.398438 352.035156 219.4375 352.402344 218.523438 C 352.996094 217.152344 354.023438 216.316406 355.230469 216.175781 C 356.550781 216.027344 357.886719 216.71875 358.894531 218.082031 C 360.300781 219.980469 361.320312 222.128906 362.132812 224.117188 C 364.238281 223.871094 366.574219 223.910156 369.457031 224.25 C 371.441406 224.476562 373.398438 224.722656 375.324219 225.105469 C 376.136719 223.113281 377.164062 220.9375 378.589844 219.007812 C 379.601562 217.648438 380.9375 216.949219 382.257812 217.105469 C 383.464844 217.242188 384.492188 218.082031 385.066406 219.40625 C 385.449219 220.367188 385.492188 221.328125 385.511719 222.234375 C 385.515625 224.046875 385.378906 225.832031 384.726562 228.910156 C 384.816406 228.972656 384.90625 229.039062 384.996094 229.097656 C 386.214844 227.269531 387.667969 225.941406 389.339844 225.171875 C 391.222656 224.207031 393.457031 223.925781 395.796875 224.359375 C 397.703125 224.652344 399.496094 225.558594 400.941406 226.972656 C 403.160156 228.914062 406.375 233.8125 406.445312 237.707031 C 406.476562 239.425781 405.90625 240.875 404.804688 241.898438 C 403.421875 243.109375 401.570312 243.707031 399.269531 243.707031 C 398.824219 243.707031 398.363281 243.683594 397.882812 243.640625 C 396.371094 243.480469 395.046875 243.019531 393.941406 242.59375 C 393.464844 242.410156 393.082031 242.128906 392.742188 241.878906 C 392.441406 241.652344 392.1875 241.46875 391.886719 241.351562 C 392.015625 242.292969 392.105469 243.28125 392.132812 244.332031 C 392.199219 246.5 392 248.738281 391.527344 250.988281 C 391.101562 253.425781 390.054688 255.628906 388.933594 257.855469 C 388.695312 258.335938 388.433594 258.878906 388.125 259.542969 C 387.828125 260.179688 387.46875 260.929688 387.035156 261.828125 C 390.148438 269.894531 387.777344 274.832031 385.203125 277.566406 C 381.9375 281.027344 375.351562 283.476562 367.738281 283.476562 C 364.03125 283.476562 360.082031 282.898438 356.152344 281.570312 C 348.617188 279.136719 344.414062 273.605469 344.929688 266.792969 C 345.148438 263.90625 346.160156 261.140625 347.753906 258.6875 C 347.617188 258.1875 347.496094 257.675781 347.363281 257.109375 L 347.246094 256.601562 C 346.976562 255.398438 346.695312 254.230469 346.40625 253.0625 C 346.214844 252.292969 346.027344 251.523438 345.84375 250.746094 C 345.78125 250.449219 345.71875 250.148438 345.65625 249.84375 C 345.222656 247.730469 344.859375 245.519531 344.902344 243.226562 C 344.921875 242.210938 345.003906 241.210938 345.144531 240.261719 C 345.160156 240.144531 345.183594 240.03125 345.199219 239.917969 C 345.007812 240.027344 344.820312 240.160156 344.613281 240.316406 C 344.277344 240.5625 343.894531 240.847656 343.410156 241.03125 C 342.3125 241.457031 340.980469 241.914062 339.496094 242.074219 C 339.011719 242.117188 338.539062 242.144531 338.085938 242.144531 C 335.785156 242.148438 333.945312 241.554688 332.59375 240.375 Z M 354.964844 252.011719 C 354.75 251.574219 354.507812 251.1875 354.238281 250.863281 C 354.214844 250.839844 354.191406 250.8125 354.171875 250.78125 C 353.976562 250.519531 353.679688 250.253906 353.367188 249.96875 C 353.066406 249.699219 352.730469 249.394531 352.414062 249.035156 C 352.375 248.988281 352.335938 248.9375 352.300781 248.886719 C 351.738281 248.070312 351.582031 247.28125 351.394531 246.28125 C 351.335938 245.953125 351.257812 245.578125 351.164062 245.132812 C 350.851562 243.96875 350.179688 243.007812 349.332031 242.550781 C 349.027344 242.390625 348.679688 242.277344 348.304688 242.210938 C 348.277344 242.570312 348.257812 242.929688 348.253906 243.292969 C 348.207031 245.558594 348.65625 247.859375 349.113281 250.019531 C 349.285156 250.746094 349.472656 251.507812 349.660156 252.269531 C 349.921875 253.324219 350.179688 254.378906 350.417969 255.445312 C 351.746094 254.117188 353.28125 252.953125 354.964844 252.011719 Z M 346.902344 234.164062 C 344.011719 231.046875 342.390625 232.347656 341.492188 233.070312 C 340.804688 233.621094 340.878906 233.941406 340.914062 234.082031 C 341.136719 235.058594 342.925781 236.339844 344.230469 236.695312 C 344.738281 236.492188 345.339844 236.351562 346.066406 236.335938 C 346.308594 235.589844 346.589844 234.867188 346.902344 234.164062 Z M 383.808594 262.730469 C 380.816406 256.214844 374.542969 252.589844 366.59375 252.589844 C 365.203125 252.589844 363.757812 252.699219 362.269531 252.925781 C 355.84375 253.96875 348.835938 259.539062 348.261719 267.046875 C 347.863281 272.292969 351.121094 276.429688 357.199219 278.398438 C 365.496094 281.199219 377.734375 280.601562 382.769531 275.269531 C 385.601562 272.28125 385.949219 268.0625 383.808594 262.730469 Z M 388.796875 244.441406 C 388.714844 241.574219 388.214844 239.25 387.269531 237.332031 C 386.339844 235.445312 385.226562 233.859375 383.972656 232.609375 C 382.675781 231.3125 380.898438 230.515625 378.996094 229.710938 C 378.796875 230.511719 378.496094 231.304688 378.109375 232.039062 C 376.929688 234.140625 374.613281 235.472656 372.195312 235.472656 C 371.8125 235.472656 371.441406 235.445312 371.066406 235.425781 C 370.675781 235.398438 370.304688 235.375 369.957031 235.386719 C 369.457031 235.5 368.9375 235.683594 368.390625 235.871094 C 367.304688 236.246094 366.085938 236.671875 364.722656 236.671875 C 364.574219 236.671875 364.421875 236.667969 364.269531 236.65625 C 362.167969 236.492188 360.179688 235.472656 358.933594 233.921875 C 357.894531 232.632812 357.441406 231.039062 357.652344 229.425781 C 357.675781 229.101562 357.726562 228.792969 357.785156 228.484375 C 357.074219 228.734375 356.328125 229.046875 355.589844 229.4375 C 355.421875 229.574219 355.230469 229.683594 355.011719 229.753906 C 353.433594 230.679688 351.925781 231.980469 350.84375 233.804688 C 349.921875 235.375 349.238281 237.089844 348.800781 238.910156 C 349.542969 239.03125 350.242188 239.257812 350.890625 239.597656 C 352.589844 240.507812 353.832031 242.1875 354.40625 244.335938 C 354.53125 244.886719 354.609375 245.296875 354.679688 245.65625 C 354.808594 246.34375 354.878906 246.6875 355.007812 246.910156 C 355.175781 247.097656 355.382812 247.28125 355.601562 247.476562 C 355.996094 247.832031 356.441406 248.234375 356.832031 248.753906 C 357.277344 249.292969 357.660156 249.917969 357.992188 250.609375 C 359.199219 250.167969 360.457031 249.832031 361.753906 249.621094 C 371.878906 248.082031 380.328125 251.253906 385.074219 258.183594 C 385.082031 258.164062 385.09375 258.136719 385.105469 258.113281 C 385.433594 257.417969 385.699219 256.847656 385.953125 256.347656 C 386.957031 254.355469 387.886719 252.394531 388.246094 250.351562 C 388.675781 248.316406 388.855469 246.34375 388.796875 244.441406 Z M 362.617188 227.429688 C 362.492188 227.445312 362.371094 227.457031 362.253906 227.476562 C 362.089844 227.496094 361.933594 227.519531 361.773438 227.542969 C 361.699219 227.558594 361.628906 227.566406 361.554688 227.578125 C 361.273438 228.320312 361.027344 229.027344 360.976562 229.71875 C 360.972656 229.761719 360.96875 229.800781 360.964844 229.839844 C 360.863281 230.566406 361.058594 231.234375 361.535156 231.835938 C 362.199219 232.667969 363.34375 233.234375 364.507812 233.328125 C 365.359375 233.390625 366.253906 233.078125 367.285156 232.71875 C 367.953125 232.488281 368.644531 232.246094 369.390625 232.089844 C 369.480469 232.070312 369.566406 232.058594 369.652344 232.054688 C 370.222656 232.027344 370.753906 232.058594 371.265625 232.09375 C 371.574219 232.113281 371.878906 232.132812 372.191406 232.136719 C 373.398438 232.136719 374.59375 231.460938 375.15625 230.457031 C 375.449219 229.894531 375.675781 229.273438 375.804688 228.652344 C 375.761719 228.644531 375.714844 228.628906 375.667969 228.621094 C 374.660156 228.382812 373.625 228.191406 372.570312 228.035156 C 372.527344 228.03125 372.484375 228.023438 372.4375 228.011719 C 371.902344 227.933594 371.359375 227.859375 370.8125 227.789062 C 370.792969 227.785156 370.769531 227.785156 370.753906 227.78125 C 370.195312 227.710938 369.632812 227.644531 369.066406 227.578125 C 368.375 227.5 367.722656 227.441406 367.097656 227.394531 C 367.027344 227.390625 366.953125 227.382812 366.882812 227.378906 C 366.648438 227.359375 366.417969 227.351562 366.1875 227.34375 C 366.078125 227.339844 365.96875 227.332031 365.859375 227.324219 C 365.652344 227.320312 365.457031 227.316406 365.257812 227.316406 C 365.136719 227.316406 365.011719 227.3125 364.890625 227.3125 C 364.707031 227.3125 364.527344 227.316406 364.347656 227.320312 C 364.222656 227.324219 364.09375 227.324219 363.972656 227.332031 C 363.800781 227.339844 363.636719 227.347656 363.464844 227.359375 C 363.335938 227.371094 363.210938 227.378906 363.089844 227.386719 C 362.933594 227.394531 362.777344 227.414062 362.617188 227.429688 Z M 391.097656 237.894531 C 391.910156 237.886719 392.582031 238.035156 393.132812 238.253906 C 394.4375 237.894531 396.222656 236.617188 396.445312 235.640625 C 396.476562 235.503906 396.550781 235.179688 395.867188 234.628906 C 394.953125 233.898438 393.285156 232.570312 390.296875 235.90625 C 390.601562 236.542969 390.863281 237.203125 391.097656 237.894531 Z M 387.445312 231.457031 C 387.828125 231.914062 388.1875 232.398438 388.535156 232.90625 C 392.433594 229.125 395.769531 230.261719 397.957031 232.023438 C 399.976562 233.644531 399.917969 235.457031 399.703125 236.386719 C 399.359375 237.886719 398.214844 239.144531 396.914062 240.0625 C 397.339844 240.175781 397.773438 240.265625 398.21875 240.316406 C 399.574219 240.441406 401.449219 240.390625 402.570312 239.414062 C 402.679688 239.3125 403.128906 238.894531 403.105469 237.761719 C 403.058594 235.003906 400.429688 230.9375 398.71875 229.457031 C 398.691406 229.429688 398.660156 229.410156 398.636719 229.382812 C 397.6875 228.445312 396.511719 227.847656 395.238281 227.648438 C 394.0625 227.433594 392.386719 227.355469 390.839844 228.15625 C 390.8125 228.171875 390.789062 228.183594 390.765625 228.191406 C 389.511719 228.769531 388.394531 229.863281 387.445312 231.457031 Z M 378.59375 225.941406 C 378.683594 225.96875 378.761719 225.992188 378.847656 226.019531 C 378.890625 226.035156 378.941406 226.050781 378.984375 226.074219 C 379.289062 226.207031 379.601562 226.335938 379.910156 226.46875 C 380.488281 226.714844 381.078125 226.960938 381.652344 227.226562 C 382.074219 225.035156 382.167969 223.679688 382.167969 222.269531 C 382.15625 221.695312 382.132812 221.082031 381.976562 220.699219 C 381.929688 220.589844 381.878906 220.507812 381.839844 220.460938 C 381.722656 220.523438 381.515625 220.675781 381.273438 221.003906 C 380.15625 222.515625 379.300781 224.273438 378.59375 225.941406 Z M 355.71875 225.691406 C 356.679688 225.300781 357.695312 224.976562 358.761719 224.714844 C 358.082031 223.132812 357.257812 221.492188 356.210938 220.070312 C 355.96875 219.746094 355.761719 219.59375 355.644531 219.535156 C 355.605469 219.585938 355.546875 219.679688 355.488281 219.8125 C 355.351562 220.15625 355.332031 220.769531 355.316406 221.363281 C 355.3125 222.585938 355.386719 223.820312 355.71875 225.691406 Z M 334.257812 236.203125 C 334.234375 237.335938 334.679688 237.753906 334.828125 237.890625 C 335.910156 238.832031 337.789062 238.882812 339.167969 238.757812 C 339.601562 238.707031 340.03125 238.617188 340.449219 238.503906 C 339.152344 237.585938 338.003906 236.320312 337.664062 234.824219 C 337.449219 233.886719 337.390625 232.082031 339.410156 230.460938 C 341.558594 228.734375 344.8125 227.609375 348.609375 231.140625 C 348.96875 230.636719 349.363281 230.148438 349.792969 229.695312 C 348.871094 228.214844 347.800781 227.179688 346.605469 226.636719 C 346.578125 226.625 346.554688 226.613281 346.53125 226.605469 C 344.980469 225.800781 343.308594 225.882812 342.179688 226.085938 C 340.863281 226.292969 339.6875 226.890625 338.738281 227.828125 C 338.714844 227.855469 338.6875 227.882812 338.65625 227.902344 C 336.929688 229.378906 334.304688 233.445312 334.257812 236.203125 Z M 434.542969 221.605469 C 434.421875 216.722656 434.277344 210.640625 437.511719 205.707031 C 439.289062 202.6875 442.453125 201.53125 445.25 200.515625 C 445.589844 200.394531 445.929688 200.265625 446.261719 200.144531 C 451.984375 198.105469 457.925781 196.84375 463.675781 195.621094 L 464.445312 195.460938 C 465.027344 195.28125 465.707031 195.058594 466.460938 194.8125 C 471.847656 193.042969 479.996094 190.375 484.292969 192.925781 C 485.714844 193.769531 486.628906 195.125 486.9375 196.839844 C 487.367188 199.03125 487.332031 201.230469 487.296875 203.359375 C 487.28125 204.328125 487.265625 205.246094 487.292969 206.164062 C 487.292969 206.167969 487.292969 206.175781 487.292969 206.179688 C 487.390625 211.835938 487.445312 218.019531 487.472656 225.082031 C 487.472656 225.113281 487.472656 225.15625 487.46875 225.191406 C 487.40625 226.160156 487.417969 227.117188 487.425781 228.128906 C 487.449219 231.660156 487.480469 235.660156 484.183594 239.898438 C 481.367188 243.519531 473.507812 245.765625 465.015625 247.941406 C 463.304688 248.378906 461.824219 248.757812 460.964844 249.042969 C 457.441406 250.21875 453.59375 250.992188 449.203125 251.414062 C 447.867188 251.574219 446.398438 251.730469 444.863281 251.730469 C 443.648438 251.730469 442.390625 251.636719 441.140625 251.363281 C 435.074219 250.125 435.09375 243.523438 435.105469 239.578125 C 435.160156 236.039062 434.984375 232.433594 434.816406 228.953125 C 434.707031 226.542969 434.589844 224.058594 434.542969 221.605469 Z M 437.886719 221.53125 C 437.929688 223.945312 438.046875 226.40625 438.164062 228.785156 C 438.332031 232.316406 438.507812 235.972656 438.449219 239.597656 C 438.4375 244.003906 438.679688 247.441406 441.828125 248.082031 C 444.160156 248.585938 446.667969 248.34375 448.839844 248.082031 C 453.015625 247.683594 456.625 246.957031 459.90625 245.859375 C 460.875 245.539062 462.335938 245.164062 464.183594 244.691406 C 469.429688 243.347656 479.195312 240.851562 481.546875 237.835938 C 484.132812 234.519531 484.105469 231.5625 484.082031 228.144531 C 484.070312 227.136719 484.0625 226.097656 484.128906 225.03125 C 484.101562 218.011719 484.046875 211.863281 483.949219 206.242188 C 483.921875 205.253906 483.9375 204.257812 483.953125 203.296875 C 483.988281 201.253906 484.019531 199.320312 483.65625 197.453125 C 483.507812 196.652344 483.179688 196.144531 482.585938 195.789062 C 481.863281 195.359375 480.863281 195.183594 479.695312 195.183594 C 476.015625 195.183594 470.710938 196.921875 467.507812 197.976562 C 466.699219 198.238281 465.972656 198.480469 465.355469 198.667969 C 465.308594 198.683594 465.265625 198.695312 465.214844 198.703125 L 464.375 198.882812 C 458.734375 200.078125 452.898438 201.316406 447.417969 203.273438 C 447.101562 203.394531 446.75 203.523438 446.398438 203.652344 C 443.902344 204.5625 441.542969 205.417969 440.378906 207.425781 C 440.359375 207.449219 440.347656 207.476562 440.328125 207.503906 C 437.644531 211.574219 437.773438 216.863281 437.886719 221.53125 Z M 437.886719 221.53125 " fill-opacity="1" fill-rule="nonzero"/></g><g fill="#00425c" fill-opacity="1"><g transform="translate(335.296861, 528.570929)"><g><path d="M 13.28125 -7.53125 L 26.0625 -7.53125 L 26.0625 0 L 3.53125 0 L 3.53125 -40.03125 L 13.28125 -40.03125 Z M 13.28125 -7.53125 "/></g></g></g><g fill="#00425c" fill-opacity="1"><g transform="translate(362.491478, 528.570929)"><g><path d="M 13.28125 -32.21875 L 13.28125 -24.125 L 26.34375 -24.125 L 26.34375 -16.59375 L 13.28125 -16.59375 L 13.28125 -7.8125 L 28.046875 -7.8125 L 28.046875 0 L 3.53125 0 L 3.53125 -40.03125 L 28.046875 -40.03125 L 28.046875 -32.21875 Z M 13.28125 -32.21875 "/></g></g></g><g fill="#00425c" fill-opacity="1"><g transform="translate(393.334848, 528.570929)"><g><path d="M 13.28125 -40.03125 L 13.28125 0 L 3.53125 0 L 3.53125 -40.03125 Z M 13.28125 -40.03125 "/></g></g></g><g fill="#00425c" fill-opacity="1"><g transform="translate(410.153325, 528.570929)"><g><path d="M 32.328125 -40.03125 L 32.328125 -32.21875 L 21.71875 -32.21875 L 21.71875 0 L 11.96875 0 L 11.96875 -32.21875 L 1.375 -32.21875 L 1.375 -40.03125 Z M 32.328125 -40.03125 "/></g></g></g><g fill="#00425c" fill-opacity="1"><g transform="translate(443.847282, 528.570929)"><g><path d="M 13.28125 -32.21875 L 13.28125 -24.125 L 26.34375 -24.125 L 26.34375 -16.59375 L 13.28125 -16.59375 L 13.28125 -7.8125 L 28.046875 -7.8125 L 28.046875 0 L 3.53125 0 L 3.53125 -40.03125 L 28.046875 -40.03125 L 28.046875 -32.21875 Z M 13.28125 -32.21875 "/></g></g></g><g fill="#00425c" fill-opacity="1"><g transform="translate(340.804673, 608.070925)"><g><path d="M 2.171875 -36.484375 L 2.171875 -41.21875 L 12.890625 -41.21875 L 12.890625 0 L 7.640625 0 L 7.640625 -36.484375 Z M 2.171875 -36.484375 "/></g></g></g><g fill="#00425c" fill-opacity="1"><g transform="translate(359.048442, 608.070925)"><g><path d="M 3.53125 -21.03125 C 3.53125 -27.570312 4.59375 -32.675781 6.71875 -36.34375 C 8.851562 -40.007812 12.582031 -41.84375 17.90625 -41.84375 C 23.1875 -41.84375 26.890625 -40.007812 29.015625 -36.34375 C 31.148438 -32.675781 32.21875 -27.570312 32.21875 -21.03125 C 32.21875 -14.382812 31.148438 -9.21875 29.015625 -5.53125 C 26.890625 -1.84375 23.1875 0 17.90625 0 C 12.582031 0 8.851562 -1.84375 6.71875 -5.53125 C 4.59375 -9.21875 3.53125 -14.382812 3.53125 -21.03125 Z M 27.078125 -21.03125 C 27.078125 -24.34375 26.859375 -27.144531 26.421875 -29.4375 C 25.984375 -31.738281 25.085938 -33.59375 23.734375 -35 C 22.390625 -36.414062 20.445312 -37.125 17.90625 -37.125 C 15.320312 -37.125 13.351562 -36.414062 12 -35 C 10.65625 -33.59375 9.765625 -31.738281 9.328125 -29.4375 C 8.890625 -27.144531 8.671875 -24.34375 8.671875 -21.03125 C 8.671875 -17.613281 8.890625 -14.742188 9.328125 -12.421875 C 9.765625 -10.109375 10.65625 -8.25 12 -6.84375 C 13.351562 -5.4375 15.320312 -4.734375 17.90625 -4.734375 C 20.445312 -4.734375 22.390625 -5.4375 23.734375 -6.84375 C 25.085938 -8.25 25.984375 -10.109375 26.421875 -12.421875 C 26.859375 -14.742188 27.078125 -17.613281 27.078125 -21.03125 Z M 27.078125 -21.03125 "/></g></g></g><g fill="#00425c" fill-opacity="1"><g transform="translate(394.851842, 608.070925)"><g><path d="M 3.53125 -21.03125 C 3.53125 -27.570312 4.59375 -32.675781 6.71875 -36.34375 C 8.851562 -40.007812 12.582031 -41.84375 17.90625 -41.84375 C 23.1875 -41.84375 26.890625 -40.007812 29.015625 -36.34375 C 31.148438 -32.675781 32.21875 -27.570312 32.21875 -21.03125 C 32.21875 -14.382812 31.148438 -9.21875 29.015625 -5.53125 C 26.890625 -1.84375 23.1875 0 17.90625 0 C 12.582031 0 8.851562 -1.84375 6.71875 -5.53125 C 4.59375 -9.21875 3.53125 -14.382812 3.53125 -21.03125 Z M 27.078125 -21.03125 C 27.078125 -24.34375 26.859375 -27.144531 26.421875 -29.4375 C 25.984375 -31.738281 25.085938 -33.59375 23.734375 -35 C 22.390625 -36.414062 20.445312 -37.125 17.90625 -37.125 C 15.320312 -37.125 13.351562 -36.414062 12 -35 C 10.65625 -33.59375 9.765625 -31.738281 9.328125 -29.4375 C 8.890625 -27.144531 8.671875 -24.34375 8.671875 -21.03125 C 8.671875 -17.613281 8.890625 -14.742188 9.328125 -12.421875 C 9.765625 -10.109375 10.65625 -8.25 12 -6.84375 C 13.351562 -5.4375 15.320312 -4.734375 17.90625 -4.734375 C 20.445312 -4.734375 22.390625 -5.4375 23.734375 -6.84375 C 25.085938 -8.25 25.984375 -10.109375 26.421875 -12.421875 C 26.859375 -14.742188 27.078125 -17.613281 27.078125 -21.03125 Z M 27.078125 -21.03125 "/></g></g></g><g fill="#00425c" fill-opacity="1"><g transform="translate(430.655242, 608.070925)"><g><path d="M 17.28125 -31.75 C 19.976562 -31.75 22.34375 -31.160156 24.375 -29.984375 C 26.40625 -28.804688 27.914062 -27.328125 28.90625 -25.546875 L 28.90625 -31.25 L 34.15625 -31.25 L 34.15625 0.6875 C 34.15625 3.53125 33.546875 6.0625 32.328125 8.28125 C 31.109375 10.507812 29.367188 12.25 27.109375 13.5 C 24.847656 14.757812 22.21875 15.390625 19.21875 15.390625 C 15.113281 15.390625 11.691406 14.421875 8.953125 12.484375 C 6.210938 10.546875 4.597656 7.90625 4.109375 4.5625 L 9.234375 4.5625 C 9.804688 6.457031 10.984375 7.984375 12.765625 9.140625 C 14.554688 10.304688 16.707031 10.890625 19.21875 10.890625 C 22.0625 10.890625 24.382812 9.992188 26.1875 8.203125 C 28 6.421875 28.90625 3.914062 28.90625 0.6875 L 28.90625 -5.875 C 27.882812 -4.050781 26.363281 -2.53125 24.34375 -1.3125 C 22.332031 -0.09375 19.976562 0.515625 17.28125 0.515625 C 14.5 0.515625 11.976562 -0.164062 9.71875 -1.53125 C 7.457031 -2.90625 5.679688 -4.828125 4.390625 -7.296875 C 3.097656 -9.765625 2.453125 -12.578125 2.453125 -15.734375 C 2.453125 -18.929688 3.097656 -21.734375 4.390625 -24.140625 C 5.679688 -26.554688 7.457031 -28.425781 9.71875 -29.75 C 11.976562 -31.082031 14.5 -31.75 17.28125 -31.75 Z M 28.90625 -15.671875 C 28.90625 -18.035156 28.429688 -20.085938 27.484375 -21.828125 C 26.535156 -23.578125 25.25 -24.914062 23.625 -25.84375 C 22.007812 -26.78125 20.234375 -27.25 18.296875 -27.25 C 16.359375 -27.25 14.59375 -26.789062 13 -25.875 C 11.40625 -24.96875 10.128906 -23.640625 9.171875 -21.890625 C 8.222656 -20.140625 7.75 -18.085938 7.75 -15.734375 C 7.75 -13.335938 8.222656 -11.253906 9.171875 -9.484375 C 10.128906 -7.722656 11.40625 -6.375 13 -5.4375 C 14.59375 -4.507812 16.359375 -4.046875 18.296875 -4.046875 C 20.234375 -4.046875 22.007812 -4.507812 23.625 -5.4375 C 25.25 -6.375 26.535156 -7.722656 27.484375 -9.484375 C 28.429688 -11.253906 28.90625 -13.316406 28.90625 -15.671875 Z M 28.90625 -15.671875 "/></g></g></g><g fill="#00425c" fill-opacity="1"><g transform="translate(211.324211, 687.570921)"><g><path d="M 2.21875 -7.8125 C 3.507812 -8.832031 4.097656 -9.304688 3.984375 -9.234375 C 7.710938 -12.316406 10.648438 -14.84375 12.796875 -16.8125 C 14.941406 -18.789062 16.753906 -20.863281 18.234375 -23.03125 C 19.722656 -25.195312 20.46875 -27.304688 20.46875 -29.359375 C 20.46875 -30.921875 20.101562 -32.140625 19.375 -33.015625 C 18.65625 -33.890625 17.578125 -34.328125 16.140625 -34.328125 C 14.691406 -34.328125 13.554688 -33.785156 12.734375 -32.703125 C 11.921875 -31.617188 11.515625 -30.085938 11.515625 -28.109375 L 2.109375 -28.109375 C 2.179688 -31.335938 2.875 -34.035156 4.1875 -36.203125 C 5.5 -38.367188 7.226562 -39.960938 9.375 -40.984375 C 11.519531 -42.015625 13.90625 -42.53125 16.53125 -42.53125 C 21.050781 -42.53125 24.460938 -41.367188 26.765625 -39.046875 C 29.066406 -36.734375 30.21875 -33.710938 30.21875 -29.984375 C 30.21875 -25.921875 28.828125 -22.148438 26.046875 -18.671875 C 23.273438 -15.191406 19.742188 -11.800781 15.453125 -8.5 L 30.84375 -8.5 L 30.84375 -0.5625 L 2.21875 -0.5625 Z M 2.21875 -7.8125 "/></g></g></g><g fill="#00425c" fill-opacity="1"><g transform="translate(243.877935, 687.570921)"><g><path d="M 14.03125 -9.015625 L 7.703125 7.359375 L 1.484375 7.359375 L 4.796875 -9.015625 Z M 14.03125 -9.015625 "/></g></g></g><g fill="#00425c" fill-opacity="1"><g transform="translate(260.240319, 687.570921)"><g><path d="M 2.90625 -29.875 C 3.0625 -33.945312 4.390625 -37.082031 6.890625 -39.28125 C 9.398438 -41.488281 12.804688 -42.59375 17.109375 -42.59375 C 19.953125 -42.59375 22.390625 -42.097656 24.421875 -41.109375 C 26.460938 -40.117188 28.003906 -38.769531 29.046875 -37.0625 C 30.097656 -35.351562 30.625 -33.429688 30.625 -31.296875 C 30.625 -28.785156 29.992188 -26.742188 28.734375 -25.171875 C 27.484375 -23.597656 26.019531 -22.523438 24.34375 -21.953125 L 24.34375 -21.71875 C 26.507812 -21 28.21875 -19.800781 29.46875 -18.125 C 30.726562 -16.457031 31.359375 -14.3125 31.359375 -11.6875 C 31.359375 -9.332031 30.816406 -7.25 29.734375 -5.4375 C 28.648438 -3.632812 27.070312 -2.21875 25 -1.1875 C 22.925781 -0.164062 20.46875 0.34375 17.625 0.34375 C 13.0625 0.34375 9.421875 -0.773438 6.703125 -3.015625 C 3.984375 -5.265625 2.546875 -8.648438 2.390625 -13.171875 L 11.859375 -13.171875 C 11.898438 -11.492188 12.375 -10.171875 13.28125 -9.203125 C 14.195312 -8.234375 15.53125 -7.75 17.28125 -7.75 C 18.757812 -7.75 19.90625 -8.175781 20.71875 -9.03125 C 21.539062 -9.882812 21.953125 -11.015625 21.953125 -12.421875 C 21.953125 -14.253906 21.367188 -15.578125 20.203125 -16.390625 C 19.046875 -17.210938 17.195312 -17.625 14.65625 -17.625 L 12.828125 -17.625 L 12.828125 -25.546875 L 14.65625 -25.546875 C 16.59375 -25.546875 18.160156 -25.875 19.359375 -26.53125 C 20.554688 -27.195312 21.15625 -28.390625 21.15625 -30.109375 C 21.15625 -31.472656 20.773438 -32.535156 20.015625 -33.296875 C 19.253906 -34.054688 18.207031 -34.4375 16.875 -34.4375 C 15.425781 -34.4375 14.347656 -34 13.640625 -33.125 C 12.941406 -32.25 12.535156 -31.164062 12.421875 -29.875 Z M 2.90625 -29.875 "/></g></g></g><g fill="#00425c" fill-opacity="1"><g transform="translate(294.732444, 687.570921)"><g><path d="M 15.625 -32.265625 C 17.863281 -32.265625 19.828125 -31.804688 21.515625 -30.890625 C 23.210938 -29.984375 24.515625 -28.789062 25.421875 -27.3125 L 25.421875 -31.8125 L 35.171875 -31.8125 L 35.171875 -0.0625 C 35.171875 2.863281 34.59375 5.515625 33.4375 7.890625 C 32.28125 10.265625 30.515625 12.15625 28.140625 13.5625 C 25.765625 14.96875 22.804688 15.671875 19.265625 15.671875 C 14.554688 15.671875 10.738281 14.5625 7.8125 12.34375 C 4.882812 10.125 3.210938 7.113281 2.796875 3.3125 L 12.421875 3.3125 C 12.734375 4.519531 13.457031 5.472656 14.59375 6.171875 C 15.738281 6.878906 17.144531 7.234375 18.8125 7.234375 C 20.832031 7.234375 22.4375 6.65625 23.625 5.5 C 24.820312 4.34375 25.421875 2.488281 25.421875 -0.0625 L 25.421875 -4.5625 C 24.472656 -3.082031 23.160156 -1.875 21.484375 -0.9375 C 19.816406 -0.0078125 17.863281 0.453125 15.625 0.453125 C 13 0.453125 10.617188 -0.21875 8.484375 -1.5625 C 6.359375 -2.914062 4.675781 -4.835938 3.4375 -7.328125 C 2.207031 -9.816406 1.59375 -12.695312 1.59375 -15.96875 C 1.59375 -19.238281 2.207031 -22.109375 3.4375 -24.578125 C 4.675781 -27.046875 6.359375 -28.941406 8.484375 -30.265625 C 10.617188 -31.597656 13 -32.265625 15.625 -32.265625 Z M 25.421875 -15.90625 C 25.421875 -18.34375 24.742188 -20.265625 23.390625 -21.671875 C 22.046875 -23.078125 20.40625 -23.78125 18.46875 -23.78125 C 16.53125 -23.78125 14.882812 -23.082031 13.53125 -21.6875 C 12.1875 -20.300781 11.515625 -18.394531 11.515625 -15.96875 C 11.515625 -13.53125 12.1875 -11.597656 13.53125 -10.171875 C 14.882812 -8.753906 16.53125 -8.046875 18.46875 -8.046875 C 20.40625 -8.046875 22.046875 -8.75 23.390625 -10.15625 C 24.742188 -11.5625 25.421875 -13.476562 25.421875 -15.90625 Z M 25.421875 -15.90625 "/></g></g></g><g fill="#00425c" fill-opacity="1"><g transform="translate(333.443444, 687.570921)"><g/></g></g><g fill="#00425c" fill-opacity="1"><g transform="translate(345.529938, 687.570921)"><g><path d="M 13.28125 -27.3125 C 14.226562 -28.789062 15.539062 -29.984375 17.21875 -30.890625 C 18.894531 -31.804688 20.851562 -32.265625 23.09375 -32.265625 C 25.71875 -32.265625 28.09375 -31.597656 30.21875 -30.265625 C 32.34375 -28.941406 34.023438 -27.046875 35.265625 -24.578125 C 36.503906 -22.109375 37.125 -19.238281 37.125 -15.96875 C 37.125 -12.695312 36.503906 -9.816406 35.265625 -7.328125 C 34.023438 -4.835938 32.34375 -2.914062 30.21875 -1.5625 C 28.09375 -0.21875 25.71875 0.453125 23.09375 0.453125 C 20.882812 0.453125 18.929688 0 17.234375 -0.90625 C 15.546875 -1.820312 14.226562 -3.003906 13.28125 -4.453125 L 13.28125 15.171875 L 3.53125 15.171875 L 3.53125 -31.8125 L 13.28125 -31.8125 Z M 27.203125 -15.96875 C 27.203125 -18.394531 26.523438 -20.300781 25.171875 -21.6875 C 23.816406 -23.082031 22.15625 -23.78125 20.1875 -23.78125 C 18.25 -23.78125 16.601562 -23.078125 15.25 -21.671875 C 13.90625 -20.265625 13.234375 -18.34375 13.234375 -15.90625 C 13.234375 -13.476562 13.90625 -11.5625 15.25 -10.15625 C 16.601562 -8.75 18.25 -8.046875 20.1875 -8.046875 C 22.125 -8.046875 23.773438 -8.753906 25.140625 -10.171875 C 26.515625 -11.597656 27.203125 -13.53125 27.203125 -15.96875 Z M 27.203125 -15.96875 "/></g></g></g><g fill="#00425c" fill-opacity="1"><g transform="translate(384.240939, 687.570921)"><g><path d="M 13.28125 -26.515625 C 14.425781 -28.265625 15.851562 -29.640625 17.5625 -30.640625 C 19.269531 -31.648438 21.171875 -32.15625 23.265625 -32.15625 L 23.265625 -21.84375 L 20.578125 -21.84375 C 18.148438 -21.84375 16.328125 -21.316406 15.109375 -20.265625 C 13.890625 -19.222656 13.28125 -17.390625 13.28125 -14.765625 L 13.28125 0 L 3.53125 0 L 3.53125 -31.8125 L 13.28125 -31.8125 Z M 13.28125 -26.515625 "/></g></g></g><g fill="#00425c" fill-opacity="1"><g transform="translate(408.641995, 687.570921)"><g><path d="M 18.015625 0.453125 C 14.898438 0.453125 12.097656 -0.207031 9.609375 -1.53125 C 7.117188 -2.863281 5.160156 -4.765625 3.734375 -7.234375 C 2.304688 -9.710938 1.59375 -12.601562 1.59375 -15.90625 C 1.59375 -19.175781 2.3125 -22.054688 3.75 -24.546875 C 5.195312 -27.035156 7.175781 -28.941406 9.6875 -30.265625 C 12.195312 -31.597656 15.007812 -32.265625 18.125 -32.265625 C 21.25 -32.265625 24.0625 -31.597656 26.5625 -30.265625 C 29.070312 -28.941406 31.050781 -27.035156 32.5 -24.546875 C 33.945312 -22.054688 34.671875 -19.175781 34.671875 -15.90625 C 34.671875 -12.632812 33.9375 -9.753906 32.46875 -7.265625 C 31.007812 -4.773438 29.015625 -2.863281 26.484375 -1.53125 C 23.953125 -0.207031 21.128906 0.453125 18.015625 0.453125 Z M 18.015625 -7.984375 C 19.878906 -7.984375 21.46875 -8.664062 22.78125 -10.03125 C 24.09375 -11.40625 24.75 -13.363281 24.75 -15.90625 C 24.75 -18.457031 24.109375 -20.414062 22.828125 -21.78125 C 21.554688 -23.144531 19.988281 -23.828125 18.125 -23.828125 C 16.226562 -23.828125 14.648438 -23.148438 13.390625 -21.796875 C 12.140625 -20.453125 11.515625 -18.488281 11.515625 -15.90625 C 11.515625 -13.363281 12.128906 -11.40625 13.359375 -10.03125 C 14.597656 -8.664062 16.148438 -7.984375 18.015625 -7.984375 Z M 18.015625 -7.984375 "/></g></g></g><g fill="#00425c" fill-opacity="1"><g transform="translate(444.958491, 687.570921)"><g><path d="M 21.265625 -8.265625 L 21.265625 0 L 16.3125 0 C 12.769531 0 10.007812 -0.863281 8.03125 -2.59375 C 6.0625 -4.320312 5.078125 -7.144531 5.078125 -11.0625 L 5.078125 -23.71875 L 1.203125 -23.71875 L 1.203125 -31.8125 L 5.078125 -31.8125 L 5.078125 -39.5625 L 14.828125 -39.5625 L 14.828125 -31.8125 L 21.203125 -31.8125 L 21.203125 -23.71875 L 14.828125 -23.71875 L 14.828125 -10.953125 C 14.828125 -9.992188 15.050781 -9.304688 15.5 -8.890625 C 15.957031 -8.472656 16.71875 -8.265625 17.78125 -8.265625 Z M 21.265625 -8.265625 "/></g></g></g><g fill="#00425c" fill-opacity="1"><g transform="translate(468.105265, 687.570921)"><g><path d="M 33.53125 -16.421875 C 33.53125 -15.503906 33.472656 -14.550781 33.359375 -13.5625 L 11.296875 -13.5625 C 11.441406 -11.59375 12.070312 -10.082031 13.1875 -9.03125 C 14.3125 -7.988281 15.691406 -7.46875 17.328125 -7.46875 C 19.765625 -7.46875 21.457031 -8.492188 22.40625 -10.546875 L 32.78125 -10.546875 C 32.25 -8.453125 31.289062 -6.566406 29.90625 -4.890625 C 28.519531 -3.222656 26.78125 -1.914062 24.6875 -0.96875 C 22.59375 -0.0195312 20.253906 0.453125 17.671875 0.453125 C 14.554688 0.453125 11.78125 -0.207031 9.34375 -1.53125 C 6.914062 -2.863281 5.015625 -4.765625 3.640625 -7.234375 C 2.273438 -9.710938 1.59375 -12.601562 1.59375 -15.90625 C 1.59375 -19.21875 2.265625 -22.109375 3.609375 -24.578125 C 4.960938 -27.046875 6.851562 -28.941406 9.28125 -30.265625 C 11.71875 -31.597656 14.515625 -32.265625 17.671875 -32.265625 C 20.753906 -32.265625 23.492188 -31.617188 25.890625 -30.328125 C 28.285156 -29.035156 30.15625 -27.191406 31.5 -24.796875 C 32.851562 -22.398438 33.53125 -19.609375 33.53125 -16.421875 Z M 23.546875 -18.984375 C 23.546875 -20.660156 22.972656 -21.988281 21.828125 -22.96875 C 20.691406 -23.957031 19.269531 -24.453125 17.5625 -24.453125 C 15.925781 -24.453125 14.546875 -23.976562 13.421875 -23.03125 C 12.304688 -22.082031 11.613281 -20.734375 11.34375 -18.984375 Z M 23.546875 -18.984375 "/></g></g></g><g fill="#00425c" fill-opacity="1"><g transform="translate(503.224526, 687.570921)"><g><path d="M 14.03125 -31.8125 L 14.03125 0 L 4.28125 0 L 4.28125 -31.8125 Z M 15.796875 -39.734375 L 2.046875 -33.984375 L 2.046875 -40.703125 L 15.796875 -47.328125 Z M 15.796875 -39.734375 "/></g></g></g><g fill="#00425c" fill-opacity="1"><g transform="translate(521.525322, 687.570921)"><g><path d="M 22.921875 -32.15625 C 26.648438 -32.15625 29.625 -30.945312 31.84375 -28.53125 C 34.0625 -26.125 35.171875 -22.8125 35.171875 -18.59375 L 35.171875 0 L 25.484375 0 L 25.484375 -17.28125 C 25.484375 -19.40625 24.929688 -21.054688 23.828125 -22.234375 C 22.722656 -23.410156 21.242188 -24 19.390625 -24 C 17.523438 -24 16.039062 -23.410156 14.9375 -22.234375 C 13.832031 -21.054688 13.28125 -19.40625 13.28125 -17.28125 L 13.28125 0 L 3.53125 0 L 3.53125 -31.8125 L 13.28125 -31.8125 L 13.28125 -27.59375 C 14.269531 -29 15.597656 -30.109375 17.265625 -30.921875 C 18.941406 -31.742188 20.828125 -32.15625 22.921875 -32.15625 Z M 22.921875 -32.15625 "/></g></g></g><g fill="#00425c" fill-opacity="1"><g transform="translate(559.951261, 687.570921)"><g><path d="M 1.59375 -15.96875 C 1.59375 -19.238281 2.207031 -22.109375 3.4375 -24.578125 C 4.675781 -27.046875 6.359375 -28.941406 8.484375 -30.265625 C 10.617188 -31.597656 13 -32.265625 15.625 -32.265625 C 17.863281 -32.265625 19.828125 -31.804688 21.515625 -30.890625 C 23.210938 -29.984375 24.515625 -28.789062 25.421875 -27.3125 L 25.421875 -31.8125 L 35.171875 -31.8125 L 35.171875 0 L 25.421875 0 L 25.421875 -4.5 C 24.472656 -3.019531 23.148438 -1.820312 21.453125 -0.90625 C 19.765625 0 17.800781 0.453125 15.5625 0.453125 C 12.976562 0.453125 10.617188 -0.21875 8.484375 -1.5625 C 6.359375 -2.914062 4.675781 -4.835938 3.4375 -7.328125 C 2.207031 -9.816406 1.59375 -12.695312 1.59375 -15.96875 Z M 25.421875 -15.90625 C 25.421875 -18.34375 24.742188 -20.265625 23.390625 -21.671875 C 22.046875 -23.078125 20.40625 -23.78125 18.46875 -23.78125 C 16.53125 -23.78125 14.882812 -23.082031 13.53125 -21.6875 C 12.1875 -20.300781 11.515625 -18.394531 11.515625 -15.96875 C 11.515625 -13.53125 12.1875 -11.597656 13.53125 -10.171875 C 14.882812 -8.753906 16.53125 -8.046875 18.46875 -8.046875 C 20.40625 -8.046875 22.046875 -8.75 23.390625 -10.15625 C 24.742188 -11.5625 25.421875 -13.476562 25.421875 -15.90625 Z M 25.421875 -15.90625 "/></g></g></g></svg>