<svg xmlns="http://www.w3.org/2000/svg" xmlns:xlink="http://www.w3.org/1999/xlink" width="1080" zoomAndPan="magnify" viewBox="0 0 810 809.999993" height="1080" preserveAspectRatio="xMidYMid meet" version="1.0"><defs><clipPath id="49c010399e"><path d="M 333 582 L 766 582 L 766 808.5 L 333 808.5 Z M 333 582 " clip-rule="nonzero"/></clipPath></defs><path fill="#00425c" d="M 15.984375 505.375 C 14.097656 505.375 12.382812 504.09375 11.910156 502.183594 C 8.199219 487.195312 5.320312 471.816406 3.355469 456.464844 C 3.058594 454.164062 4.6875 452.058594 6.988281 451.765625 C 9.289062 451.46875 11.390625 453.097656 11.6875 455.398438 C 13.609375 470.429688 16.429688 485.488281 20.0625 500.160156 C 20.621094 502.414062 19.246094 504.691406 16.996094 505.25 C 16.65625 505.332031 16.316406 505.375 15.984375 505.375 Z M 4.292969 414.21875 C 2 414.21875 0.125 412.375 0.0976562 410.074219 C 0.0703125 408.257812 0.0585938 406.410156 0.0585938 404.589844 C 0.0585938 390.917969 0.75 377.128906 2.109375 363.609375 C 2.339844 361.300781 4.402344 359.617188 6.710938 359.851562 C 9.015625 360.082031 10.699219 362.140625 10.46875 364.449219 C 9.136719 377.695312 8.460938 391.199219 8.460938 404.589844 C 8.460938 406.375 8.472656 408.183594 8.496094 409.960938 C 8.527344 412.28125 6.671875 414.1875 4.351562 414.21875 C 4.332031 414.21875 4.3125 414.21875 4.292969 414.21875 Z M 13.527344 322.773438 C 13.230469 322.773438 12.925781 322.742188 12.625 322.675781 C 10.359375 322.179688 8.921875 319.9375 9.417969 317.671875 C 12.726562 302.566406 16.953125 287.5 21.980469 272.882812 C 22.734375 270.691406 25.125 269.523438 27.320312 270.277344 C 29.511719 271.035156 30.679688 273.421875 29.925781 275.617188 C 25 289.925781 20.863281 304.679688 17.625 319.46875 C 17.195312 321.433594 15.457031 322.773438 13.527344 322.773438 Z M 13.527344 322.773438 " fill-opacity="1" fill-rule="nonzero"/><g clip-path="url(#49c010399e)"><path fill="#00425c" d="M 383.769531 808.644531 C 383.695312 808.644531 383.625 808.644531 383.550781 808.640625 C 368.078125 807.84375 352.519531 806.148438 337.3125 803.601562 C 335.023438 803.21875 333.480469 801.050781 333.863281 798.765625 C 334.246094 796.476562 336.414062 794.929688 338.703125 795.316406 C 353.59375 797.8125 368.828125 799.472656 383.980469 800.25 C 386.296875 800.367188 388.078125 802.34375 387.960938 804.660156 C 387.84375 806.902344 385.988281 808.644531 383.769531 808.644531 Z M 429.789062 808.402344 C 427.585938 808.402344 425.738281 806.691406 425.597656 804.464844 C 425.457031 802.148438 427.214844 800.15625 429.53125 800.011719 C 444.667969 799.074219 459.882812 797.25 474.746094 794.597656 C 477.027344 794.191406 479.210938 795.710938 479.621094 797.996094 C 480.027344 800.277344 478.507812 802.460938 476.222656 802.867188 C 461.042969 805.578125 445.507812 807.4375 430.050781 808.394531 C 429.964844 808.402344 429.875 808.402344 429.789062 808.402344 Z M 520.246094 792.242188 C 518.4375 792.242188 516.769531 791.070312 516.222656 789.25 C 515.554688 787.03125 516.8125 784.6875 519.035156 784.019531 C 533.511719 779.660156 547.894531 774.402344 561.78125 768.398438 C 563.914062 767.476562 566.386719 768.457031 567.304688 770.585938 C 568.226562 772.714844 567.246094 775.1875 565.117188 776.109375 C 550.933594 782.242188 536.246094 787.609375 521.457031 792.0625 C 521.054688 792.183594 520.644531 792.242188 520.246094 792.242188 Z M 604.558594 755.785156 C 603.105469 755.785156 601.695312 755.03125 600.917969 753.683594 C 599.757812 751.675781 600.445312 749.105469 602.453125 747.945312 C 615.546875 740.386719 628.355469 731.976562 640.515625 722.953125 C 642.378906 721.570312 645.007812 721.957031 646.390625 723.820312 C 647.773438 725.683594 647.382812 728.316406 645.519531 729.699219 C 633.101562 738.914062 620.027344 747.5 606.65625 755.222656 C 605.992188 755.601562 605.269531 755.785156 604.558594 755.785156 Z M 678.34375 701.03125 C 677.222656 701.03125 676.105469 700.585938 675.28125 699.703125 C 673.691406 698.007812 673.78125 695.351562 675.472656 693.765625 C 686.519531 683.414062 697.085938 672.316406 706.875 660.777344 C 708.378906 659.007812 711.027344 658.789062 712.796875 660.292969 C 714.566406 661.792969 714.785156 664.441406 713.28125 666.210938 C 703.285156 677.992188 692.496094 689.328125 681.214844 699.894531 C 680.40625 700.65625 679.375 701.03125 678.34375 701.03125 Z M 737.796875 630.953125 C 736.996094 630.953125 736.183594 630.722656 735.46875 630.242188 C 733.539062 628.953125 733.023438 626.347656 734.308594 624.417969 C 742.726562 611.820312 750.496094 598.609375 757.394531 585.152344 C 758.457031 583.085938 760.988281 582.273438 763.050781 583.332031 C 765.117188 584.390625 765.929688 586.921875 764.871094 588.988281 C 757.824219 602.730469 749.890625 616.21875 741.296875 629.085938 C 740.484375 630.296875 739.15625 630.953125 737.796875 630.953125 Z M 737.796875 630.953125 " fill-opacity="1" fill-rule="nonzero"/></g><path fill="#00425c" d="M 804.441406 430.917969 C 804.363281 430.917969 804.289062 430.917969 804.210938 430.910156 C 801.894531 430.785156 800.117188 428.804688 800.242188 426.488281 C 800.636719 419.238281 800.839844 411.871094 800.839844 404.589844 C 800.839844 396.722656 800.605469 388.765625 800.144531 380.9375 C 800.007812 378.621094 801.773438 376.632812 804.089844 376.496094 C 806.398438 376.359375 808.394531 378.128906 808.53125 380.441406 C 809 388.433594 809.238281 396.558594 809.238281 404.589844 C 809.238281 412.023438 809.035156 419.542969 808.632812 426.945312 C 808.511719 429.183594 806.65625 430.917969 804.441406 430.917969 Z M 799.007812 339.1875 C 797.003906 339.1875 795.230469 337.753906 794.875 335.710938 C 792.261719 320.796875 788.75 305.890625 784.433594 291.394531 C 783.773438 289.171875 785.039062 286.832031 787.261719 286.171875 C 789.484375 285.511719 791.824219 286.777344 792.488281 289 C 796.890625 303.800781 800.480469 319.03125 803.148438 334.261719 C 803.550781 336.546875 802.023438 338.722656 799.738281 339.125 C 799.492188 339.167969 799.246094 339.1875 799.007812 339.1875 Z M 772.804688 251.128906 C 771.175781 251.128906 769.625 250.175781 768.941406 248.582031 C 762.984375 234.691406 756.148438 220.992188 748.621094 207.863281 C 747.46875 205.847656 748.164062 203.28125 750.175781 202.128906 C 752.191406 200.972656 754.757812 201.671875 755.910156 203.683594 C 763.597656 217.09375 770.578125 231.085938 776.664062 245.269531 C 777.578125 247.402344 776.589844 249.871094 774.457031 250.785156 C 773.917969 251.019531 773.355469 251.128906 772.804688 251.128906 Z M 727.140625 171.4375 C 725.851562 171.4375 724.578125 170.847656 723.753906 169.730469 C 714.78125 157.558594 705 145.765625 694.683594 134.6875 C 693.101562 132.988281 693.199219 130.332031 694.894531 128.75 C 696.59375 127.171875 699.253906 127.265625 700.832031 128.964844 C 711.367188 140.277344 721.355469 152.316406 730.519531 164.746094 C 731.894531 166.613281 731.496094 169.242188 729.628906 170.621094 C 728.878906 171.171875 728.003906 171.4375 727.140625 171.4375 Z M 664.523438 104.191406 C 663.558594 104.191406 662.589844 103.859375 661.800781 103.183594 C 650.28125 93.347656 638.078125 84.078125 625.53125 75.636719 C 623.605469 74.339844 623.09375 71.730469 624.390625 69.804688 C 625.683594 67.882812 628.292969 67.371094 630.21875 68.667969 C 643.035156 77.289062 655.496094 86.753906 667.253906 96.796875 C 669.019531 98.300781 669.226562 100.953125 667.71875 102.71875 C 666.890625 103.6875 665.710938 104.191406 664.523438 104.191406 Z M 588.265625 52.894531 C 587.617188 52.894531 586.957031 52.742188 586.339844 52.425781 C 572.886719 45.46875 558.890625 39.226562 544.738281 33.878906 C 542.570312 33.058594 541.472656 30.632812 542.296875 28.464844 C 543.117188 26.292969 545.539062 25.199219 547.710938 26.019531 C 562.160156 31.484375 576.457031 37.855469 590.199219 44.960938 C 592.261719 46.027344 593.066406 48.5625 592 50.621094 C 591.253906 52.066406 589.789062 52.894531 588.265625 52.894531 Z M 502.292969 20.390625 C 501.953125 20.390625 501.609375 20.351562 501.265625 20.265625 C 486.609375 16.589844 471.558594 13.734375 456.539062 11.765625 C 454.238281 11.464844 452.617188 9.359375 452.917969 7.058594 C 453.21875 4.757812 455.324219 3.136719 457.628906 3.4375 C 472.96875 5.445312 488.339844 8.363281 503.308594 12.113281 C 505.558594 12.679688 506.925781 14.960938 506.363281 17.210938 C 505.886719 19.117188 504.171875 20.390625 502.292969 20.390625 Z M 365.199219 10.320312 C 363.0625 10.320312 361.234375 8.699219 361.023438 6.527344 C 360.796875 4.21875 362.484375 2.164062 364.792969 1.9375 C 377.949219 0.652344 391.359375 0 404.648438 0 C 406.84375 0 409.066406 0.0195312 411.261719 0.0546875 C 413.582031 0.0898438 415.429688 2 415.394531 4.320312 C 415.355469 6.640625 413.441406 8.496094 411.125 8.453125 C 408.976562 8.417969 406.796875 8.402344 404.648438 8.402344 C 391.628906 8.402344 378.496094 9.039062 365.609375 10.300781 C 365.472656 10.3125 365.335938 10.320312 365.199219 10.320312 Z M 365.199219 10.320312 " fill-opacity="1" fill-rule="nonzero"/><path fill="#4cba80" d="M 698.621094 404.589844 C 698.621094 409.402344 698.503906 414.210938 698.269531 419.015625 C 698.03125 423.820312 697.679688 428.617188 697.207031 433.40625 C 696.734375 438.191406 696.144531 442.964844 695.441406 447.726562 C 694.734375 452.484375 693.914062 457.222656 692.972656 461.941406 C 692.035156 466.660156 690.980469 471.351562 689.8125 476.019531 C 688.644531 480.6875 687.359375 485.320312 685.964844 489.925781 C 684.566406 494.53125 683.058594 499.097656 681.4375 503.625 C 679.816406 508.15625 678.085938 512.644531 676.246094 517.089844 C 674.402344 521.53125 672.453125 525.929688 670.398438 530.277344 C 668.339844 534.628906 666.179688 538.925781 663.910156 543.167969 C 661.640625 547.410156 659.273438 551.59375 656.796875 555.722656 C 654.324219 559.847656 651.75 563.910156 649.078125 567.914062 C 646.40625 571.914062 643.636719 575.84375 640.769531 579.710938 C 637.90625 583.574219 634.945312 587.363281 631.894531 591.085938 C 628.839844 594.804688 625.699219 598.445312 622.46875 602.007812 C 619.238281 605.574219 615.921875 609.058594 612.519531 612.460938 C 609.117188 615.863281 605.632812 619.179688 602.070312 622.410156 C 598.503906 625.640625 594.863281 628.78125 591.144531 631.832031 C 587.425781 634.886719 583.632812 637.84375 579.769531 640.710938 C 575.90625 643.578125 571.972656 646.347656 567.972656 649.019531 C 563.972656 651.691406 559.910156 654.265625 555.78125 656.738281 C 551.65625 659.210938 547.46875 661.582031 543.226562 663.851562 C 538.984375 666.117188 534.6875 668.28125 530.339844 670.335938 C 525.988281 672.394531 521.59375 674.34375 517.148438 676.183594 C 512.703125 678.027344 508.214844 679.757812 503.6875 681.378906 C 499.15625 683 494.589844 684.507812 489.984375 685.902344 C 485.382812 687.300781 480.746094 688.582031 476.078125 689.753906 C 471.414062 690.921875 466.71875 691.976562 462 692.914062 C 457.28125 693.851562 452.542969 694.675781 447.785156 695.378906 C 443.027344 696.085938 438.253906 696.675781 433.464844 697.148438 C 428.675781 697.617188 423.878906 697.972656 419.074219 698.207031 C 414.269531 698.445312 409.460938 698.5625 404.648438 698.5625 C 399.839844 698.5625 395.03125 698.445312 390.226562 698.207031 C 385.421875 697.972656 380.625 697.617188 375.835938 697.148438 C 371.046875 696.675781 366.273438 696.085938 361.515625 695.378906 C 356.757812 694.675781 352.019531 693.851562 347.300781 692.914062 C 342.582031 691.976562 337.886719 690.921875 333.21875 689.753906 C 328.554688 688.582031 323.917969 687.300781 319.316406 685.902344 C 314.710938 684.507812 310.144531 683 305.613281 681.378906 C 301.085938 679.757812 296.597656 678.027344 292.152344 676.183594 C 287.707031 674.34375 283.308594 672.394531 278.960938 670.335938 C 274.613281 668.28125 270.316406 666.117188 266.074219 663.851562 C 261.828125 661.582031 257.644531 659.210938 253.519531 656.738281 C 249.390625 654.265625 245.328125 651.691406 241.328125 649.019531 C 237.328125 646.347656 233.394531 643.578125 229.53125 640.710938 C 225.667969 637.84375 221.875 634.886719 218.15625 631.832031 C 214.4375 628.78125 210.796875 625.640625 207.230469 622.410156 C 203.664062 619.179688 200.183594 615.863281 196.78125 612.460938 C 193.378906 609.058594 190.0625 605.574219 186.832031 602.007812 C 183.601562 598.445312 180.457031 594.804688 177.40625 591.085938 C 174.355469 587.363281 171.394531 583.574219 168.53125 579.710938 C 165.664062 575.84375 162.894531 571.914062 160.222656 567.914062 C 157.546875 563.910156 154.976562 559.847656 152.5 555.722656 C 150.027344 551.59375 147.65625 547.410156 145.390625 543.167969 C 143.121094 538.925781 140.960938 534.628906 138.902344 530.277344 C 136.84375 525.929688 134.894531 521.53125 133.054688 517.089844 C 131.214844 512.644531 129.484375 508.15625 127.863281 503.625 C 126.242188 499.097656 124.734375 494.53125 123.335938 489.925781 C 121.941406 485.320312 120.65625 480.6875 119.488281 476.019531 C 118.320312 471.351562 117.265625 466.660156 116.328125 461.941406 C 115.386719 457.222656 114.566406 452.484375 113.859375 447.726562 C 113.152344 442.964844 112.566406 438.191406 112.09375 433.40625 C 111.621094 428.617188 111.269531 423.820312 111.03125 419.015625 C 110.796875 414.210938 110.679688 409.402344 110.679688 404.589844 C 110.679688 399.777344 110.796875 394.972656 111.03125 390.164062 C 111.269531 385.359375 111.621094 380.5625 112.09375 375.777344 C 112.566406 370.988281 113.152344 366.214844 113.859375 361.457031 C 114.566406 356.695312 115.386719 351.957031 116.328125 347.238281 C 117.265625 342.519531 118.320312 337.828125 119.488281 333.160156 C 120.65625 328.492188 121.941406 323.859375 123.335938 319.253906 C 124.734375 314.652344 126.242188 310.082031 127.863281 305.554688 C 129.484375 301.023438 131.214844 296.535156 133.054688 292.089844 C 134.894531 287.648438 136.84375 283.25 138.902344 278.902344 C 140.960938 274.550781 143.121094 270.253906 145.390625 266.011719 C 147.65625 261.769531 150.027344 257.585938 152.5 253.457031 C 154.976562 249.332031 157.546875 245.269531 160.222656 241.269531 C 162.894531 237.265625 165.664062 233.335938 168.53125 229.472656 C 171.394531 225.605469 174.355469 221.816406 177.40625 218.097656 C 180.457031 214.378906 183.601562 210.734375 186.832031 207.171875 C 190.0625 203.605469 193.378906 200.121094 196.78125 196.71875 C 200.183594 193.320312 203.664062 190 207.230469 186.769531 C 210.796875 183.539062 214.4375 180.398438 218.15625 177.347656 C 221.875 174.292969 225.667969 171.335938 229.53125 168.46875 C 233.394531 165.601562 237.328125 162.835938 241.328125 160.160156 C 245.328125 157.488281 249.390625 154.914062 253.519531 152.441406 C 257.644531 149.96875 261.828125 147.597656 266.074219 145.328125 C 270.316406 143.0625 274.613281 140.898438 278.960938 138.84375 C 283.308594 136.785156 287.707031 134.835938 292.152344 132.996094 C 296.597656 131.152344 301.085938 129.421875 305.613281 127.800781 C 310.144531 126.179688 314.710938 124.671875 319.316406 123.277344 C 323.917969 121.878906 328.554688 120.597656 333.21875 119.429688 C 337.886719 118.257812 342.582031 117.203125 347.300781 116.265625 C 352.019531 115.328125 356.757812 114.503906 361.515625 113.800781 C 366.273438 113.09375 371.046875 112.503906 375.835938 112.035156 C 380.625 111.5625 385.421875 111.207031 390.226562 110.972656 C 395.03125 110.734375 399.839844 110.617188 404.648438 110.617188 C 409.460938 110.617188 414.269531 110.734375 419.074219 110.972656 C 423.878906 111.207031 428.675781 111.5625 433.464844 112.035156 C 438.253906 112.503906 443.027344 113.09375 447.785156 113.800781 C 452.542969 114.503906 457.28125 115.328125 462 116.265625 C 466.71875 117.203125 471.414062 118.257812 476.078125 119.429688 C 480.746094 120.597656 485.382812 121.878906 489.984375 123.277344 C 494.589844 124.671875 499.15625 126.179688 503.6875 127.800781 C 508.214844 129.421875 512.703125 131.152344 517.148438 132.996094 C 521.59375 134.835938 525.988281 136.785156 530.339844 138.84375 C 534.6875 140.898438 538.984375 143.0625 543.226562 145.328125 C 547.46875 147.597656 551.65625 149.96875 555.78125 152.441406 C 559.910156 154.914062 563.972656 157.488281 567.972656 160.160156 C 571.972656 162.835938 575.90625 165.601562 579.769531 168.46875 C 583.632812 171.335938 587.425781 174.292969 591.144531 177.347656 C 594.863281 180.398438 598.503906 183.539062 602.070312 186.769531 C 605.632812 190 609.117188 193.320312 612.519531 196.71875 C 615.921875 200.121094 619.238281 203.605469 622.46875 207.171875 C 625.699219 210.734375 628.839844 214.378906 631.894531 218.097656 C 634.945312 221.816406 637.90625 225.605469 640.769531 229.472656 C 643.636719 233.335938 646.40625 237.265625 649.078125 241.269531 C 651.75 245.269531 654.324219 249.332031 656.796875 253.457031 C 659.273438 257.585938 661.640625 261.769531 663.910156 266.011719 C 666.179688 270.253906 668.339844 274.550781 670.398438 278.902344 C 672.453125 283.25 674.402344 287.648438 676.246094 292.089844 C 678.085938 296.535156 679.816406 301.023438 681.4375 305.554688 C 683.058594 310.082031 684.566406 314.652344 685.964844 319.253906 C 687.359375 323.859375 688.644531 328.492188 689.8125 333.160156 C 690.980469 337.828125 692.035156 342.519531 692.972656 347.238281 C 693.914062 351.957031 694.734375 356.695312 695.441406 361.457031 C 696.144531 366.214844 696.734375 370.988281 697.207031 375.777344 C 697.679688 380.5625 698.03125 385.359375 698.269531 390.164062 C 698.503906 394.972656 698.621094 399.777344 698.621094 404.589844 Z M 698.621094 404.589844 " fill-opacity="1" fill-rule="nonzero"/><path fill="#ffffff" d="M 427.230469 55.398438 L 70.554688 55.398438 C 61.386719 55.398438 53.953125 62.769531 53.953125 71.863281 L 53.953125 345.179688 C 53.953125 358.769531 64.96875 369.789062 78.5625 369.789062 L 419.226562 369.789062 C 432.820312 369.789062 443.839844 358.769531 443.839844 345.179688 L 443.839844 71.863281 C 443.839844 62.773438 436.402344 55.398438 427.230469 55.398438 Z M 427.230469 55.398438 " fill-opacity="1" fill-rule="nonzero"/><path fill="#00425c" d="M 419.226562 373.992188 L 78.5625 373.992188 C 62.675781 373.992188 49.75 361.066406 49.75 345.179688 L 49.75 71.863281 C 49.75 60.46875 59.082031 51.199219 70.554688 51.199219 L 427.230469 51.199219 C 438.703125 51.199219 448.039062 60.46875 448.039062 71.863281 L 448.039062 345.179688 C 448.039062 361.066406 435.113281 373.992188 419.226562 373.992188 Z M 70.554688 59.597656 C 63.714844 59.597656 58.152344 65.101562 58.152344 71.863281 L 58.152344 345.179688 C 58.152344 356.433594 67.308594 365.589844 78.5625 365.589844 L 419.226562 365.589844 C 430.480469 365.589844 439.636719 356.433594 439.636719 345.179688 L 439.636719 71.863281 C 439.636719 65.101562 434.074219 59.597656 427.230469 59.597656 Z M 70.554688 59.597656 " fill-opacity="1" fill-rule="nonzero"/><path fill="#024b78" d="M 87.453125 94.613281 L 184.242188 94.613281 L 184.242188 195.242188 L 87.453125 195.242188 Z M 87.453125 94.613281 " fill-opacity="1" fill-rule="nonzero"/><path fill="#00425c" d="M 184.242188 199.441406 L 87.453125 199.441406 C 85.132812 199.441406 83.253906 197.5625 83.253906 195.242188 L 83.253906 94.613281 C 83.253906 93.5 83.695312 92.429688 84.484375 91.644531 C 85.269531 90.855469 86.339844 90.414062 87.453125 90.414062 L 184.242188 90.414062 C 186.558594 90.414062 188.441406 92.292969 188.441406 94.613281 L 188.441406 195.242188 C 188.441406 196.355469 188 197.425781 187.210938 198.214844 C 186.421875 199 185.355469 199.441406 184.242188 199.441406 Z M 91.652344 191.042969 L 180.039062 191.042969 L 180.039062 98.8125 L 91.652344 98.8125 Z M 91.652344 191.042969 " fill-opacity="1" fill-rule="nonzero"/><path fill="#ffffff" d="M 263.753906 176.507812 L 263.808594 183.515625 C 263.890625 193.148438 256.011719 201.089844 246.296875 201.167969 C 236.582031 201.246094 228.570312 193.433594 228.492188 183.804688 L 228.28125 158.539062 C 228.199219 148.910156 236.082031 140.96875 245.792969 140.886719 C 249.417969 140.859375 252.804688 141.929688 255.636719 143.78125 Z M 263.753906 176.507812 " fill-opacity="1" fill-rule="nonzero"/><path fill="#ffd56e" d="M 263.753906 176.507812 L 263.808594 183.515625 C 263.890625 193.148438 256.011719 201.089844 246.296875 201.167969 C 236.582031 201.246094 228.570312 193.433594 228.492188 183.804688 L 228.28125 158.539062 C 228.199219 148.910156 236.082031 140.96875 245.792969 140.886719 C 249.417969 140.859375 252.804688 141.929688 255.636719 143.78125 Z M 263.753906 176.507812 " fill-opacity="1" fill-rule="nonzero"/><path fill="#00425c" d="M 246.144531 205.367188 C 240.402344 205.367188 234.976562 203.160156 230.847656 199.136719 C 226.667969 195.058594 224.339844 189.625 224.292969 183.839844 L 224.082031 158.574219 C 224.03125 152.789062 226.269531 147.320312 230.382812 143.171875 C 234.488281 139.039062 239.949219 136.734375 245.761719 136.6875 C 250.101562 136.648438 254.304688 137.890625 257.933594 140.261719 C 259.875 141.53125 260.421875 144.136719 259.152344 146.078125 C 257.882812 148.019531 255.28125 148.5625 253.335938 147.296875 C 251.097656 145.832031 248.496094 145.050781 245.828125 145.089844 C 242.246094 145.117188 238.878906 146.539062 236.347656 149.089844 C 233.824219 151.632812 232.453125 154.976562 232.480469 158.503906 L 232.695312 183.769531 C 232.722656 187.300781 234.148438 190.621094 236.714844 193.121094 C 239.289062 195.628906 242.695312 197.003906 246.261719 196.96875 C 249.847656 196.9375 253.214844 195.515625 255.746094 192.964844 C 258.269531 190.421875 259.640625 187.082031 259.609375 183.550781 L 259.554688 176.542969 C 259.535156 174.222656 261.398438 172.328125 263.71875 172.308594 C 263.730469 172.308594 263.742188 172.308594 263.753906 172.308594 C 266.058594 172.308594 267.933594 174.164062 267.953125 176.472656 L 268.011719 183.484375 C 268.058594 189.269531 265.820312 194.738281 261.710938 198.882812 C 257.605469 203.019531 252.144531 205.320312 246.332031 205.367188 C 246.269531 205.367188 246.207031 205.367188 246.144531 205.367188 Z M 246.144531 205.367188 " fill-opacity="1" fill-rule="nonzero"/><path fill="#ffffff" d="M 328.925781 97.421875 L 305.503906 97.277344 L 305.199219 96.621094 C 305.199219 96.621094 277.21875 171.613281 275.535156 173.253906 C 272.773438 175.933594 268.832031 177.402344 264.699219 176.902344 C 257.546875 176.03125 252.417969 169.566406 253.308594 162.535156 L 259.273438 115.324219 L 259.691406 110.886719 C 228.21875 101.703125 217.96875 117.222656 217.96875 117.222656 C 210.414062 127.289062 212.59375 141.457031 222.832031 148.871094 L 228.9375 154.113281 L 228.363281 168.804688 C 224.441406 172.449219 214.691406 172.5625 210.011719 169.152344 L 206.253906 166.652344 C 185.367188 152.234375 180.003906 124.199219 193.859375 103.355469 L 193.597656 103.429688 L 160.335938 124.566406 C 155.355469 127.761719 148.167969 125.679688 144.355469 119.945312 C 140.546875 114.207031 141.5 106.898438 146.484375 103.707031 L 190.257812 75.625 L 188.816406 76.207031 L 163.226562 82.519531 C 157.363281 84.121094 151.003906 79.910156 149.09375 73.152344 C 147.183594 66.394531 150.417969 59.554688 156.28125 57.953125 L 188.429688 49.160156 L 195.03125 47.355469 L 169.796875 46.671875 C 163.710938 46.796875 158.613281 41.164062 158.46875 34.148438 C 158.320312 27.144531 163.183594 21.300781 169.265625 21.175781 L 282.644531 20.636719 C 282.644531 20.636719 302.683594 19.179688 307.828125 34.316406 L 330.007812 34.332031 Z M 328.925781 97.421875 " fill-opacity="1" fill-rule="nonzero"/><path fill="#00425c" d="M 266.320312 181.199219 C 265.617188 181.199219 264.90625 181.15625 264.195312 181.070312 C 259.574219 180.507812 255.457031 178.183594 252.605469 174.519531 C 249.804688 170.925781 248.574219 166.480469 249.140625 162.007812 L 255.097656 114.863281 L 255.179688 114.015625 C 230.433594 107.910156 222.035156 118.765625 221.460938 119.558594 C 221.40625 119.644531 221.398438 119.652344 221.328125 119.746094 C 218.371094 123.6875 217.144531 128.523438 217.875 133.359375 C 218.609375 138.238281 221.246094 142.539062 225.296875 145.472656 C 225.390625 145.539062 225.480469 145.609375 225.566406 145.683594 L 231.671875 150.925781 C 232.644531 151.761719 233.183594 152.996094 233.136719 154.277344 L 232.5625 168.96875 C 232.515625 170.078125 232.035156 171.125 231.222656 171.878906 C 225.890625 176.835938 214.015625 177.191406 207.621094 172.605469 L 203.929688 170.152344 C 203.90625 170.136719 203.886719 170.125 203.867188 170.109375 C 192.871094 162.519531 185.429688 151.195312 182.90625 138.214844 C 181.347656 130.207031 181.765625 122.105469 184.042969 114.476562 L 162.589844 128.109375 C 155.695312 132.53125 145.941406 129.917969 140.859375 122.269531 C 138.222656 118.300781 137.242188 113.511719 138.164062 109.128906 C 138.960938 105.34375 141.113281 102.160156 144.21875 100.167969 L 166.082031 86.144531 L 164.28125 86.589844 C 163.09375 86.90625 161.890625 87.0625 160.699219 87.0625 C 153.800781 87.0625 147.214844 81.933594 145.054688 74.292969 C 143.746094 69.664062 144.277344 64.742188 146.515625 60.785156 C 148.464844 57.339844 151.539062 54.894531 155.175781 53.902344 L 167.085938 50.644531 C 159.96875 49.332031 154.445312 42.523438 154.273438 34.238281 C 154.171875 29.449219 155.917969 24.820312 159.070312 21.539062 C 161.820312 18.671875 165.410156 17.050781 169.183594 16.976562 C 169.203125 16.976562 169.222656 16.976562 169.246094 16.976562 L 282.507812 16.4375 C 283.511719 16.382812 288.660156 16.191406 294.40625 17.746094 C 302.0625 19.816406 307.613281 24.0625 310.625 30.117188 L 330.011719 30.132812 C 332.332031 30.132812 334.210938 32.015625 334.210938 34.335938 C 334.210938 36.652344 332.328125 38.53125 330.011719 38.53125 C 330.007812 38.53125 330.007812 38.53125 330.007812 38.53125 L 307.828125 38.515625 C 306.027344 38.515625 304.429688 37.371094 303.851562 35.667969 C 302.214844 30.851562 298.367188 27.570312 292.417969 25.910156 C 287.5 24.539062 282.984375 24.824219 282.941406 24.828125 C 282.855469 24.835938 282.753906 24.835938 282.667969 24.839844 L 169.324219 25.378906 C 167.382812 25.425781 165.972656 26.480469 165.128906 27.355469 C 163.511719 29.042969 162.617188 31.484375 162.671875 34.0625 C 162.769531 38.699219 165.996094 42.554688 169.710938 42.472656 C 169.777344 42.46875 169.84375 42.46875 169.910156 42.472656 L 195.144531 43.15625 C 197.421875 43.214844 199.234375 45.078125 199.234375 47.355469 C 199.234375 49.246094 197.964844 50.910156 196.140625 51.40625 L 157.390625 62.003906 C 155.519531 62.515625 154.421875 63.871094 153.828125 64.917969 C 152.6875 66.9375 152.4375 69.523438 153.136719 72.007812 C 154.40625 76.492188 158.523438 79.453125 162.125 78.46875 C 162.15625 78.460938 162.191406 78.449219 162.226562 78.441406 L 187.519531 72.203125 L 188.683594 71.730469 C 190.691406 70.914062 192.992188 71.765625 193.992188 73.691406 C 194.988281 75.617188 194.355469 77.988281 192.527344 79.160156 L 148.753906 107.242188 C 147.21875 108.226562 146.617188 109.753906 146.382812 110.859375 C 145.921875 113.050781 146.460938 115.515625 147.859375 117.621094 C 150.371094 121.40625 155.050781 122.96875 158.070312 121.03125 L 191.347656 99.882812 C 191.6875 99.667969 192.058594 99.5 192.449219 99.386719 L 192.710938 99.3125 C 194.402344 98.832031 196.214844 99.453125 197.253906 100.875 C 198.292969 102.296875 198.335938 104.210938 197.359375 105.679688 C 184.660156 124.78125 189.605469 150.03125 208.609375 163.175781 L 212.339844 165.65625 C 212.390625 165.6875 212.441406 165.722656 212.488281 165.757812 C 215.316406 167.820312 221.222656 167.835938 224.25 166.503906 L 224.660156 155.976562 L 220.222656 152.167969 C 214.417969 147.90625 210.636719 141.679688 209.570312 134.617188 C 208.5 127.558594 210.277344 120.511719 214.566406 114.761719 C 215.863281 112.925781 228.078125 97.28125 260.871094 106.851562 C 262.804688 107.417969 264.066406 109.273438 263.878906 111.277344 L 263.457031 115.71875 C 263.453125 115.761719 263.449219 115.808594 263.441406 115.851562 L 257.476562 163.0625 C 257.195312 165.304688 257.816406 167.539062 259.234375 169.359375 C 260.703125 171.242188 262.824219 172.441406 265.210938 172.730469 C 267.769531 173.039062 270.304688 172.261719 272.234375 170.585938 C 274.875 165.230469 291.277344 121.921875 301.265625 95.152344 C 301.859375 93.566406 303.347656 92.492188 305.039062 92.425781 C 305.917969 92.390625 306.765625 92.632812 307.476562 93.089844 L 328.957031 93.21875 C 331.273438 93.234375 333.144531 95.125 333.128906 97.445312 C 333.117188 99.757812 331.238281 101.621094 328.929688 101.621094 C 328.921875 101.621094 328.914062 101.621094 328.902344 101.621094 L 307.863281 101.492188 C 305.515625 107.769531 300.253906 121.804688 294.925781 135.816406 C 280.1875 174.589844 279.425781 175.328125 278.464844 176.261719 C 275.175781 179.457031 270.839844 181.199219 266.320312 181.199219 Z M 266.320312 181.199219 " fill-opacity="1" fill-rule="nonzero"/><path fill="#ffffff" d="M 233.128906 60.90625 C 216.023438 60.027344 190.257812 75.621094 190.257812 75.621094 Z M 233.128906 60.90625 " fill-opacity="1" fill-rule="nonzero"/><path fill="#00425c" d="M 190.261719 79.824219 C 188.839844 79.824219 187.453125 79.101562 186.664062 77.796875 C 185.460938 75.8125 186.097656 73.230469 188.082031 72.03125 C 189.179688 71.367188 215.15625 55.785156 233.34375 56.710938 C 235.660156 56.832031 237.441406 58.804688 237.324219 61.121094 C 237.207031 63.4375 235.226562 65.21875 232.914062 65.101562 C 217.28125 64.300781 192.679688 79.066406 192.433594 79.21875 C 191.75 79.628906 191 79.824219 190.261719 79.824219 Z M 190.261719 79.824219 " fill-opacity="1" fill-rule="nonzero"/><path fill="#ffffff" d="M 195.03125 47.355469 L 207.824219 43.855469 C 207.824219 43.855469 224.253906 39.539062 233.355469 38.609375 Z M 195.03125 47.355469 " fill-opacity="1" fill-rule="nonzero"/><path fill="#00425c" d="M 195.027344 51.558594 C 193.179688 51.558594 191.488281 50.328125 190.976562 48.460938 C 190.367188 46.226562 191.683594 43.914062 193.921875 43.304688 L 206.71875 39.804688 C 206.730469 39.800781 206.746094 39.796875 206.757812 39.792969 C 207.441406 39.613281 223.605469 35.382812 232.925781 34.429688 C 235.230469 34.191406 237.296875 35.871094 237.53125 38.179688 C 237.769531 40.488281 236.089844 42.550781 233.78125 42.785156 C 225.25 43.660156 209.554688 47.746094 208.914062 47.914062 L 196.136719 51.40625 C 195.765625 51.507812 195.394531 51.558594 195.027344 51.558594 Z M 195.027344 51.558594 " fill-opacity="1" fill-rule="nonzero"/><path fill="#ffffff" d="M 230.996094 82.347656 C 216.992188 83.070312 203.460938 89.878906 194.773438 102.027344 C 194.460938 102.464844 194.15625 102.90625 193.859375 103.355469 Z M 230.996094 82.347656 " fill-opacity="1" fill-rule="nonzero"/><path fill="#00425c" d="M 193.855469 107.554688 C 193.0625 107.554688 192.257812 107.332031 191.546875 106.859375 C 189.609375 105.582031 189.074219 102.976562 190.355469 101.039062 C 190.65625 100.582031 190.984375 100.105469 191.355469 99.585938 C 200.511719 86.78125 214.878906 78.972656 230.78125 78.152344 C 233.101562 78.035156 235.070312 79.816406 235.191406 82.132812 C 235.308594 84.449219 233.527344 86.425781 231.210938 86.542969 C 217.882812 87.230469 205.847656 93.761719 198.191406 104.46875 C 197.878906 104.90625 197.609375 105.296875 197.367188 105.667969 C 196.558594 106.890625 195.21875 107.554688 193.855469 107.554688 Z M 193.855469 107.554688 " fill-opacity="1" fill-rule="nonzero"/><path fill="#ffffff" d="M 310.371094 84.570312 L 301.160156 106.953125 Z M 310.371094 84.570312 " fill-opacity="1" fill-rule="nonzero"/><path fill="#00425c" d="M 301.160156 111.152344 C 300.625 111.152344 300.085938 111.050781 299.5625 110.835938 C 297.417969 109.953125 296.394531 107.5 297.277344 105.355469 L 306.488281 82.972656 C 307.371094 80.824219 309.824219 79.800781 311.96875 80.683594 C 314.117188 81.566406 315.136719 84.023438 314.253906 86.167969 L 305.046875 108.550781 C 304.378906 110.171875 302.8125 111.152344 301.160156 111.152344 Z M 301.160156 111.152344 " fill-opacity="1" fill-rule="nonzero"/><path fill="#ffffff" d="M 291.21875 315.25 L 281.910156 322.191406 Z M 291.21875 315.25 " fill-opacity="1" fill-rule="nonzero"/><path fill="#00425c" d="M 281.914062 326.390625 C 280.632812 326.390625 279.367188 325.808594 278.542969 324.703125 C 277.15625 322.84375 277.539062 320.210938 279.398438 318.824219 L 288.707031 311.882812 C 290.566406 310.496094 293.199219 310.878906 294.585938 312.742188 C 295.972656 314.601562 295.589844 317.230469 293.730469 318.617188 L 284.421875 325.558594 C 283.667969 326.121094 282.785156 326.390625 281.914062 326.390625 Z M 281.914062 326.390625 " fill-opacity="1" fill-rule="nonzero"/><path fill="#ffffff" d="M 95.917969 430.757812 L 98.183594 427.554688 L 100.515625 423.8125 L 104.417969 424.4375 C 115.835938 427.289062 128.796875 414.476562 128.796875 414.476562 L 188.964844 370.589844 C 195.007812 367.273438 197.242188 359.710938 193.929688 353.773438 C 190.617188 347.835938 182.964844 345.6875 176.921875 349.003906 L 137.488281 370.621094 L 137.484375 370.621094 L 187.402344 289.183594 C 190.976562 283.332031 189.058594 275.632812 183.128906 272.074219 C 177.203125 268.519531 169.429688 270.390625 165.855469 276.242188 L 156.621094 291.351562 L 135.210938 325.34375 L 118.136719 352.796875 L 140.234375 316.816406 C 143.6875 311.167969 141.6875 303.648438 135.789062 300.105469 C 129.886719 296.558594 122.238281 298.277344 118.78125 303.929688 L 95.019531 342.003906 L 116.128906 308.144531 C 119.582031 302.5 117.773438 295.097656 112.109375 291.691406 C 106.449219 288.289062 98.992188 290.121094 95.535156 295.773438 L 73.484375 331.117188 L 92.765625 300.460938 C 96.234375 294.835938 94.433594 287.46875 88.757812 284.089844 C 83.082031 280.710938 75.597656 282.546875 72.128906 288.167969 L 55.347656 315.019531 L 45.386719 331.164062 C 34.820312 348.28125 33.6875 368.515625 40.519531 385.847656 L 41.1875 387.703125 L 38.199219 392.730469 L 36.171875 395.738281 Z M 95.917969 430.757812 " fill-opacity="1" fill-rule="nonzero"/><path fill="#00425c" d="M 95.914062 434.960938 C 95.074219 434.960938 94.226562 434.710938 93.492188 434.1875 C 91.597656 432.847656 91.148438 430.226562 92.488281 428.332031 L 94.683594 425.230469 L 96.953125 421.589844 C 97.847656 420.15625 99.511719 419.394531 101.183594 419.664062 L 105.085938 420.289062 C 105.203125 420.308594 105.320312 420.332031 105.4375 420.363281 C 112.878906 422.21875 122.695312 414.585938 125.851562 411.484375 C 125.996094 411.34375 126.15625 411.203125 126.324219 411.085938 L 186.488281 367.195312 C 186.632812 367.089844 186.785156 366.992188 186.945312 366.90625 C 188.90625 365.828125 190.328125 364.058594 190.941406 361.917969 C 191.539062 359.84375 191.296875 357.679688 190.261719 355.820312 C 188.058594 351.875 182.980469 350.46875 178.941406 352.6875 L 139.507812 374.304688 C 138.890625 374.644531 138.195312 374.820312 137.488281 374.820312 C 135.96875 374.820312 134.566406 374 133.824219 372.675781 C 133.078125 371.347656 133.109375 369.722656 133.90625 368.425781 L 183.820312 286.988281 C 184.949219 285.140625 185.285156 282.949219 184.761719 280.820312 C 184.230469 278.652344 182.878906 276.824219 180.964844 275.675781 C 176.996094 273.292969 171.824219 274.53125 169.4375 278.433594 L 160.203125 293.542969 C 160.195312 293.5625 160.183594 293.578125 160.171875 293.59375 L 138.765625 327.585938 L 121.703125 355.019531 C 120.480469 356.984375 117.898438 357.589844 115.925781 356.371094 C 113.957031 355.15625 113.34375 352.574219 114.554688 350.601562 L 136.65625 314.621094 C 137.683594 312.933594 137.984375 310.902344 137.496094 308.90625 C 136.964844 306.734375 135.589844 304.886719 133.625 303.707031 C 129.679688 301.335938 124.628906 302.421875 122.363281 306.121094 L 98.582031 344.230469 C 97.355469 346.195312 94.765625 346.796875 92.796875 345.570312 C 90.828125 344.339844 90.226562 341.75 91.453125 339.78125 L 112.5625 305.925781 C 113.628906 304.183594 113.953125 302.09375 113.457031 300.070312 C 112.960938 298.054688 111.714844 296.355469 109.945312 295.292969 C 106.242188 293.066406 101.382812 294.265625 99.117188 297.96875 L 97.289062 300.898438 C 97.011719 301.503906 96.695312 302.09375 96.34375 302.667969 C 96.335938 302.679688 96.328125 302.691406 96.320312 302.699219 L 77.039062 333.355469 C 75.804688 335.316406 73.214844 335.90625 71.253906 334.679688 C 69.289062 333.449219 68.691406 330.859375 69.917969 328.894531 L 89.816406 297.003906 C 90.378906 295.554688 90.488281 293.972656 90.109375 292.429688 C 89.617188 290.433594 88.375 288.753906 86.609375 287.699219 C 82.875 285.476562 77.984375 286.679688 75.703125 290.378906 L 58.90625 317.246094 L 48.957031 333.371094 C 39.414062 348.835938 37.761719 367.402344 44.425781 384.308594 C 44.441406 384.347656 44.457031 384.390625 44.472656 384.429688 L 45.136719 386.285156 C 45.5625 387.46875 45.4375 388.777344 44.796875 389.855469 L 41.808594 394.878906 C 41.765625 394.945312 41.722656 395.011719 41.679688 395.078125 L 39.65625 398.085938 C 38.359375 400.011719 35.75 400.519531 33.824219 399.222656 C 31.902344 397.929688 31.390625 395.316406 32.6875 393.394531 L 34.648438 390.484375 L 36.5625 387.265625 C 32.945312 378.035156 31.453125 367.949219 32.242188 358.09375 C 33.074219 347.703125 36.292969 337.898438 41.808594 328.960938 L 51.769531 312.816406 L 68.566406 285.945312 C 73.230469 278.386719 83.257812 275.929688 90.90625 280.484375 C 93.910156 282.273438 96.195312 284.921875 97.503906 288.089844 C 102.507812 285.113281 108.960938 284.898438 114.273438 288.09375 C 117.398438 289.972656 119.742188 292.789062 121.019531 296.148438 C 126.0625 293.339844 132.550781 293.261719 137.949219 296.507812 C 140.664062 298.140625 142.816406 300.425781 144.234375 303.136719 L 153.050781 289.140625 L 162.269531 274.054688 C 167.050781 266.226562 177.378906 263.726562 185.289062 268.472656 C 189.140625 270.785156 191.847656 274.460938 192.917969 278.816406 C 193.980469 283.140625 193.292969 287.597656 190.984375 291.375 L 149.324219 359.34375 L 174.898438 345.320312 C 182.972656 340.894531 193.15625 343.769531 197.59375 351.726562 C 199.730469 355.554688 200.234375 360 199.015625 364.242188 C 197.800781 368.457031 195.042969 371.957031 191.234375 374.132812 L 131.503906 417.703125 C 129.714844 419.40625 119.078125 429.046875 107.820312 429.046875 C 106.414062 429.046875 105 428.894531 103.585938 428.558594 L 102.605469 428.402344 L 101.746094 429.777344 C 101.703125 429.847656 101.65625 429.914062 101.609375 429.980469 L 99.34375 433.1875 C 98.527344 434.34375 97.230469 434.960938 95.914062 434.960938 Z M 95.914062 434.960938 " fill-opacity="1" fill-rule="nonzero"/><path fill="#00425c" d="M 200.839844 245.152344 L 87.453125 245.152344 C 85.132812 245.152344 83.253906 243.269531 83.253906 240.949219 C 83.253906 238.628906 85.132812 236.75 87.453125 236.75 L 200.839844 236.75 C 203.160156 236.75 205.039062 238.628906 205.039062 240.949219 C 205.039062 243.269531 203.160156 245.152344 200.839844 245.152344 Z M 200.839844 245.152344 " fill-opacity="1" fill-rule="nonzero"/><path fill="#ffffff" d="M 455.421875 207.550781 C 412.867188 206.625 393.253906 193.847656 393.253906 193.847656 C 353.203125 176.546875 325.375 197.988281 325.375 197.988281 L 296.988281 213.417969 C 290.273438 216.320312 264.050781 280.390625 264.050781 280.390625 C 261.292969 286.851562 263.753906 294.570312 270.0625 297.753906 C 271.96875 298.71875 273.992188 299.179688 275.984375 299.195312 L 290.074219 287.207031 L 304.417969 253.65625 L 338.800781 245.746094 L 369.398438 256.917969 C 370.753906 259.546875 371.636719 262.484375 371.925781 265.65625 C 373.011719 277.691406 364.359375 288.496094 352.457031 291.09375 L 310.820312 300.179688 L 302.128906 302.207031 C 295.65625 303.589844 290.855469 309.347656 291.234375 315.898438 C 291.710938 324.164062 299.5 329.78125 307.339844 328.113281 L 327.621094 323.789062 L 397.375 308.921875 C 397.375 308.921875 430.097656 303.167969 435.09375 269.957031 L 453.742188 269.734375 Z M 455.421875 207.550781 " fill-opacity="1" fill-rule="nonzero"/><path fill="#00425c" d="M 304.554688 332.605469 C 300.730469 332.605469 296.972656 331.355469 293.867188 328.988281 C 289.820312 325.902344 287.332031 321.222656 287.039062 316.144531 C 286.550781 307.703125 292.644531 299.960938 301.210938 298.109375 L 309.867188 296.089844 C 309.886719 296.085938 309.90625 296.082031 309.925781 296.078125 L 351.5625 286.992188 C 361.667969 284.789062 368.621094 275.777344 367.742188 266.03125 C 367.558594 264.019531 367.085938 262.089844 366.328125 260.269531 L 339.660156 250.53125 L 278.707031 302.394531 C 277.9375 303.050781 276.972656 303.394531 275.945312 303.398438 C 273.21875 303.371094 270.601562 302.734375 268.164062 301.5 C 260.011719 297.386719 256.507812 287.40625 260.175781 278.773438 C 260.496094 277.992188 266.980469 262.199219 274.175781 246.265625 C 278.503906 236.671875 282.25 228.890625 285.300781 223.136719 C 290.429688 213.472656 292.902344 210.714844 295.105469 209.660156 L 323.113281 194.4375 C 324.648438 193.320312 331.828125 188.414062 343.210938 185.371094 C 354.769531 182.28125 373.125 180.574219 394.921875 189.992188 C 395.140625 190.085938 395.347656 190.195312 395.546875 190.328125 C 395.726562 190.441406 414.921875 202.464844 455.515625 203.351562 C 457.835938 203.402344 459.675781 205.324219 459.625 207.640625 C 459.574219 209.960938 457.652344 211.804688 455.332031 211.75 C 414.566406 210.859375 394.214844 199.359375 391.300781 197.578125 C 375.820312 190.953125 360.496094 189.542969 345.757812 193.386719 C 334.628906 196.289062 327.996094 201.273438 327.929688 201.324219 C 327.757812 201.453125 327.570312 201.578125 327.382812 201.679688 L 299 217.109375 C 298.976562 217.121094 298.957031 217.128906 298.9375 217.140625 C 298.101562 217.871094 294.039062 222.550781 281.261719 250.992188 C 274.21875 266.664062 268.003906 281.832031 267.941406 281.984375 C 267.933594 282.003906 267.925781 282.023438 267.917969 282.042969 C 265.960938 286.617188 267.734375 291.871094 271.957031 294.003906 C 272.796875 294.429688 273.679688 294.71875 274.585938 294.871094 L 336.082031 242.546875 C 337.234375 241.566406 338.824219 241.28125 340.246094 241.796875 L 370.839844 252.972656 C 371.832031 253.332031 372.648438 254.054688 373.132812 254.992188 C 374.777344 258.179688 375.78125 261.640625 376.113281 265.273438 C 377.371094 279.230469 367.589844 292.09375 353.355469 295.199219 L 311.75 304.277344 L 303.085938 306.296875 C 303.058594 306.304688 303.035156 306.308594 303.007812 306.316406 C 298.4375 307.292969 295.179688 311.308594 295.429688 315.65625 C 295.582031 318.324219 296.839844 320.683594 298.964844 322.304688 C 301.109375 323.941406 303.84375 324.5625 306.46875 324.003906 L 396.5 304.8125 C 396.550781 304.804688 396.601562 304.792969 396.648438 304.785156 C 396.714844 304.773438 404.34375 303.347656 412.363281 298.1875 C 422.824219 291.449219 429.074219 281.742188 430.941406 269.332031 C 431.246094 267.292969 432.984375 265.78125 435.042969 265.753906 L 453.691406 265.535156 C 456.007812 265.519531 457.917969 267.363281 457.945312 269.683594 C 457.972656 272.003906 456.113281 273.90625 453.792969 273.933594 L 438.597656 274.113281 C 435.726562 287.320312 428.179688 298.097656 416.613281 305.4375 C 407.605469 311.160156 399.203125 312.855469 398.195312 313.042969 L 308.21875 332.21875 C 307 332.480469 305.773438 332.605469 304.554688 332.605469 Z M 298.660156 217.273438 C 298.660156 217.273438 298.65625 217.273438 298.65625 217.273438 C 298.65625 217.273438 298.660156 217.273438 298.660156 217.273438 Z M 298.660156 217.273438 " fill-opacity="1" fill-rule="nonzero"/><path fill="#ffffff" d="M 312.214844 299.589844 L 369.097656 257.167969 C 376.378906 251.367188 378.316406 241.667969 373.40625 235.613281 C 368.496094 229.558594 358.523438 229.351562 351.246094 235.152344 L 268.453125 305.597656 L 257.734375 320.316406 L 251.007812 329.558594 C 249.257812 331.964844 251.8125 335.113281 254.558594 333.933594 L 265.109375 329.40625 L 281.910156 322.191406 L 291.230469 315.902344 C 291.230469 315.902344 291.417969 308.914062 296.066406 305.140625 C 300.710938 301.371094 312.214844 299.589844 312.214844 299.589844 Z M 312.214844 299.589844 " fill-opacity="1" fill-rule="nonzero"/><path fill="#ffd56e" d="M 312.214844 299.589844 L 369.097656 257.167969 C 376.378906 251.367188 378.316406 241.667969 373.40625 235.613281 C 368.496094 229.558594 358.523438 229.351562 351.246094 235.152344 L 268.453125 305.597656 L 257.734375 320.316406 L 251.007812 329.558594 C 249.257812 331.964844 251.8125 335.113281 254.558594 333.933594 L 265.109375 329.40625 L 281.910156 322.191406 L 291.230469 315.902344 C 291.230469 315.902344 291.417969 308.914062 296.066406 305.140625 C 300.710938 301.371094 312.214844 299.589844 312.214844 299.589844 Z M 312.214844 299.589844 " fill-opacity="1" fill-rule="nonzero"/><path fill="#00425c" d="M 253.347656 338.390625 C 251.234375 338.390625 249.199219 337.445312 247.800781 335.691406 C 245.78125 333.164062 245.707031 329.703125 247.613281 327.085938 L 265.058594 303.125 C 265.253906 302.859375 265.480469 302.613281 265.730469 302.398438 L 348.523438 231.953125 C 348.558594 231.925781 348.589844 231.894531 348.625 231.867188 C 357.722656 224.617188 370.300781 225.113281 376.667969 232.96875 C 379.460938 236.414062 380.71875 240.890625 380.210938 245.582031 C 379.597656 251.21875 376.5 256.640625 371.71875 260.453125 C 371.683594 260.480469 371.648438 260.511719 371.609375 260.539062 L 314.726562 302.957031 C 314.175781 303.367188 313.535156 303.636719 312.859375 303.742188 C 308.839844 304.367188 301.441406 306.1875 298.714844 308.40625 C 296.183594 310.460938 295.484375 314.609375 295.429688 316.039062 C 295.394531 317.394531 294.707031 318.625 293.582031 319.382812 L 284.261719 325.675781 C 284.042969 325.820312 283.8125 325.949219 283.570312 326.050781 L 256.214844 337.792969 C 255.277344 338.195312 254.304688 338.390625 253.347656 338.390625 Z M 271.554688 308.476562 L 257.160156 328.246094 L 279.890625 318.488281 L 287.257812 313.515625 C 287.722656 310.53125 289.136719 305.359375 293.417969 301.882812 C 298.058594 298.117188 307.261719 296.199219 310.515625 295.617188 L 366.53125 253.847656 C 369.546875 251.421875 371.488281 248.082031 371.855469 244.671875 C 372.046875 242.945312 371.898438 240.425781 370.144531 238.257812 C 366.738281 234.058594 359.316406 234.125 353.914062 238.398438 Z M 312.214844 299.589844 L 312.21875 299.589844 Z M 312.214844 299.589844 " fill-opacity="1" fill-rule="nonzero"/><path fill="#ffffff" d="M 687.652344 173.339844 L 550.71875 173.339844 C 533.613281 173.339844 519.75 187.203125 519.75 204.308594 L 519.75 300.421875 C 519.75 317.523438 533.613281 331.390625 550.71875 331.390625 L 571.125 331.390625 C 575.230469 331.390625 579.171875 333.019531 582.074219 335.925781 L 607.261719 361.113281 C 613.308594 367.160156 623.113281 367.160156 629.160156 361.113281 L 654.347656 335.925781 C 657.25 333.019531 661.191406 331.390625 665.296875 331.390625 L 687.652344 331.390625 C 704.757812 331.390625 718.625 317.523438 718.625 300.421875 L 718.625 204.308594 C 718.621094 187.203125 704.757812 173.339844 687.652344 173.339844 Z M 687.652344 173.339844 " fill-opacity="1" fill-rule="nonzero"/><path fill="#00425c" d="M 618.210938 369.628906 C 613.222656 369.628906 608.234375 367.730469 604.441406 363.933594 L 579.253906 338.746094 C 577.082031 336.574219 574.195312 335.378906 571.125 335.378906 L 550.71875 335.378906 C 531.441406 335.378906 515.757812 319.699219 515.757812 300.421875 L 515.757812 204.308594 C 515.757812 185.03125 531.441406 169.347656 550.71875 169.347656 L 687.652344 169.347656 C 706.929688 169.347656 722.613281 185.03125 722.613281 204.308594 L 722.613281 300.421875 C 722.613281 319.695312 706.929688 335.378906 687.652344 335.378906 L 665.296875 335.378906 C 662.226562 335.378906 659.339844 336.574219 657.167969 338.746094 L 631.980469 363.933594 C 628.183594 367.730469 623.199219 369.628906 618.210938 369.628906 Z M 550.71875 177.328125 C 535.84375 177.328125 523.738281 189.433594 523.738281 204.308594 L 523.738281 300.421875 C 523.738281 315.296875 535.839844 327.398438 550.71875 327.398438 L 571.125 327.398438 C 576.324219 327.398438 581.21875 329.425781 584.894531 333.101562 L 610.082031 358.289062 C 614.5625 362.773438 621.855469 362.773438 626.335938 358.289062 L 651.527344 333.105469 C 655.203125 329.425781 660.09375 327.398438 665.296875 327.398438 L 687.652344 327.398438 C 702.53125 327.398438 714.632812 315.296875 714.632812 300.421875 L 714.632812 204.308594 C 714.632812 189.433594 702.53125 177.328125 687.652344 177.328125 Z M 550.71875 177.328125 " fill-opacity="1" fill-rule="nonzero"/><path fill="#ffd56e" d="M 666.71875 259.535156 C 673.648438 247.429688 670.207031 231.484375 658.828125 223.410156 C 654.105469 220.054688 648.332031 218.085938 642.101562 218.085938 C 631.996094 218.085938 623.113281 223.269531 617.9375 231.121094 C 612.765625 223.269531 603.882812 218.085938 593.777344 218.085938 C 590.226562 218.085938 586.824219 218.722656 583.683594 219.894531 C 567.183594 226.039062 561.164062 246.585938 570.621094 261.433594 C 570.734375 261.609375 570.847656 261.777344 570.960938 261.941406 C 574.75 267.394531 579.46875 272.132812 584.71875 276.199219 L 618.382812 302.253906 L 651.910156 276.167969 C 657.777344 271.601562 662.882812 266.074219 666.644531 259.660156 C 666.667969 259.621094 666.695312 259.578125 666.71875 259.535156 Z M 666.71875 259.535156 " fill-opacity="1" fill-rule="nonzero"/><path fill="#00425c" d="M 618.382812 306.246094 C 617.523438 306.246094 616.660156 305.964844 615.941406 305.410156 L 582.277344 279.355469 C 576.421875 274.824219 571.515625 269.730469 567.683594 264.21875 C 567.542969 264.015625 567.398438 263.800781 567.257812 263.574219 C 561.914062 255.1875 560.675781 244.929688 563.859375 235.433594 C 566.882812 226.417969 573.601562 219.390625 582.292969 216.152344 C 585.964844 214.785156 589.828125 214.09375 593.78125 214.09375 C 603.054688 214.09375 611.757812 217.96875 617.941406 224.664062 C 624.125 217.96875 632.828125 214.09375 642.101562 214.09375 C 648.972656 214.09375 655.554688 216.1875 661.140625 220.152344 C 674.1875 229.414062 678.160156 247.585938 670.183594 261.519531 L 670.082031 261.691406 C 666.21875 268.273438 660.929688 274.203125 654.363281 279.3125 L 620.835938 305.402344 C 620.113281 305.964844 619.25 306.246094 618.382812 306.246094 Z M 593.777344 222.074219 C 590.78125 222.074219 587.855469 222.597656 585.074219 223.632812 C 578.65625 226.023438 573.679688 231.25 571.425781 237.972656 C 569.011719 245.171875 569.945312 252.941406 573.988281 259.289062 C 574.070312 259.417969 574.15625 259.542969 574.238281 259.664062 C 577.605469 264.507812 581.953125 269.011719 587.160156 273.042969 L 618.375 297.203125 L 649.460938 273.015625 C 655.226562 268.53125 659.847656 263.355469 663.203125 257.640625 L 663.253906 257.554688 C 669.214844 247.144531 666.257812 233.574219 656.519531 226.660156 C 652.292969 223.660156 647.304688 222.074219 642.101562 222.074219 C 633.699219 222.074219 625.910156 226.277344 621.273438 233.316406 C 620.53125 234.4375 619.28125 235.109375 617.941406 235.109375 C 616.597656 235.109375 615.347656 234.4375 614.609375 233.316406 C 609.96875 226.277344 602.179688 222.074219 593.777344 222.074219 Z M 666.71875 259.535156 L 666.722656 259.535156 Z M 666.71875 259.535156 " fill-opacity="1" fill-rule="nonzero"/><path fill="#ffd56e" d="M 785.785156 552.046875 L 661.925781 552.046875 C 650.238281 552.046875 641.25 541.71875 642.859375 530.140625 L 648.109375 492.441406 C 652.179688 463.183594 677.195312 441.410156 706.734375 441.410156 L 740.980469 441.410156 C 770.515625 441.410156 795.53125 463.183594 799.605469 492.441406 L 804.851562 530.140625 C 806.464844 541.71875 797.472656 552.046875 785.785156 552.046875 Z M 785.785156 552.046875 " fill-opacity="1" fill-rule="nonzero"/><path fill="#00425c" d="M 785.785156 556.246094 L 661.925781 556.246094 C 655.140625 556.246094 648.695312 553.3125 644.238281 548.191406 C 639.785156 543.074219 637.765625 536.285156 638.699219 529.5625 L 643.949219 491.863281 C 646.058594 476.707031 653.574219 462.832031 665.113281 452.785156 C 676.65625 442.742188 691.4375 437.210938 706.734375 437.210938 L 740.980469 437.210938 C 756.277344 437.210938 771.058594 442.742188 782.601562 452.785156 C 794.140625 462.832031 801.65625 476.707031 803.765625 491.859375 L 809.015625 529.5625 C 809.949219 536.285156 807.929688 543.074219 803.476562 548.191406 C 799.019531 553.3125 792.570312 556.246094 785.785156 556.246094 Z M 706.734375 445.609375 C 679.445312 445.609375 656.03125 465.992188 652.269531 493.019531 L 647.019531 530.722656 C 646.421875 535.035156 647.714844 539.394531 650.574219 542.679688 C 653.433594 545.964844 657.570312 547.847656 661.925781 547.847656 L 785.785156 547.847656 C 790.140625 547.847656 794.277344 545.964844 797.136719 542.679688 C 799.996094 539.394531 801.292969 535.035156 800.691406 530.722656 L 795.445312 493.019531 C 791.683594 465.992188 768.265625 445.609375 740.980469 445.609375 Z M 706.734375 445.609375 " fill-opacity="1" fill-rule="nonzero"/><path fill="#ffffff" d="M 770.792969 402.582031 C 770.792969 404.121094 770.71875 405.652344 770.566406 407.183594 C 770.417969 408.710938 770.191406 410.230469 769.890625 411.738281 C 769.589844 413.246094 769.21875 414.734375 768.773438 416.207031 C 768.324219 417.679688 767.808594 419.125 767.21875 420.542969 C 766.632812 421.964844 765.976562 423.351562 765.25 424.707031 C 764.527344 426.0625 763.738281 427.378906 762.882812 428.660156 C 762.027344 429.9375 761.113281 431.171875 760.140625 432.359375 C 759.164062 433.546875 758.132812 434.683594 757.046875 435.773438 C 755.957031 436.859375 754.820312 437.890625 753.632812 438.863281 C 752.445312 439.839844 751.210938 440.753906 749.933594 441.609375 C 748.65625 442.460938 747.339844 443.253906 745.980469 443.976562 C 744.625 444.703125 743.238281 445.359375 741.816406 445.945312 C 740.398438 446.535156 738.953125 447.050781 737.480469 447.5 C 736.011719 447.945312 734.519531 448.316406 733.011719 448.617188 C 731.503906 448.917969 729.988281 449.140625 728.457031 449.292969 C 726.925781 449.445312 725.394531 449.519531 723.855469 449.519531 C 722.320312 449.519531 720.785156 449.445312 719.253906 449.292969 C 717.726562 449.140625 716.207031 448.917969 714.699219 448.617188 C 713.191406 448.316406 711.703125 447.945312 710.230469 447.5 C 708.761719 447.050781 707.3125 446.535156 705.894531 445.945312 C 704.472656 445.359375 703.085938 444.703125 701.730469 443.976562 C 700.375 443.253906 699.058594 442.460938 697.777344 441.609375 C 696.5 440.753906 695.269531 439.839844 694.078125 438.863281 C 692.890625 437.890625 691.753906 436.859375 690.667969 435.773438 C 689.578125 434.683594 688.546875 433.546875 687.574219 432.359375 C 686.597656 431.171875 685.683594 429.9375 684.828125 428.660156 C 683.976562 427.378906 683.1875 426.0625 682.460938 424.707031 C 681.738281 423.351562 681.082031 421.964844 680.492188 420.542969 C 679.902344 419.125 679.386719 417.679688 678.941406 416.207031 C 678.492188 414.734375 678.121094 413.246094 677.820312 411.738281 C 677.519531 410.230469 677.296875 408.710938 677.144531 407.183594 C 676.996094 405.652344 676.917969 404.121094 676.917969 402.582031 C 676.917969 401.042969 676.996094 399.511719 677.144531 397.980469 C 677.296875 396.453125 677.519531 394.933594 677.820312 393.425781 C 678.121094 391.917969 678.492188 390.429688 678.941406 388.957031 C 679.386719 387.484375 679.902344 386.039062 680.492188 384.621094 C 681.082031 383.199219 681.738281 381.8125 682.460938 380.457031 C 683.1875 379.101562 683.976562 377.78125 684.828125 376.503906 C 685.683594 375.226562 686.597656 373.992188 687.574219 372.804688 C 688.546875 371.617188 689.578125 370.480469 690.667969 369.390625 C 691.753906 368.304688 692.890625 367.273438 694.078125 366.300781 C 695.269531 365.324219 696.5 364.410156 697.777344 363.554688 C 699.058594 362.699219 700.375 361.910156 701.730469 361.1875 C 703.085938 360.460938 704.472656 359.804688 705.894531 359.21875 C 707.3125 358.628906 708.761719 358.113281 710.230469 357.664062 C 711.703125 357.21875 713.191406 356.847656 714.699219 356.546875 C 716.207031 356.246094 717.726562 356.019531 719.253906 355.871094 C 720.785156 355.71875 722.320312 355.644531 723.855469 355.644531 C 725.394531 355.644531 726.925781 355.71875 728.457031 355.871094 C 729.988281 356.019531 731.503906 356.246094 733.011719 356.546875 C 734.519531 356.847656 736.011719 357.21875 737.480469 357.664062 C 738.953125 358.113281 740.398438 358.628906 741.816406 359.21875 C 743.238281 359.804688 744.625 360.460938 745.980469 361.1875 C 747.339844 361.910156 748.65625 362.699219 749.933594 363.554688 C 751.210938 364.410156 752.445312 365.324219 753.632812 366.300781 C 754.820312 367.273438 755.957031 368.304688 757.046875 369.390625 C 758.132812 370.480469 759.164062 371.617188 760.140625 372.804688 C 761.113281 373.992188 762.027344 375.226562 762.882812 376.503906 C 763.738281 377.78125 764.527344 379.101562 765.25 380.457031 C 765.976562 381.8125 766.632812 383.199219 767.21875 384.621094 C 767.808594 386.039062 768.324219 387.484375 768.773438 388.957031 C 769.21875 390.429688 769.589844 391.917969 769.890625 393.425781 C 770.191406 394.933594 770.417969 396.453125 770.566406 397.980469 C 770.71875 399.511719 770.792969 401.042969 770.792969 402.582031 Z M 770.792969 402.582031 " fill-opacity="1" fill-rule="nonzero"/><path fill="#00425c" d="M 723.855469 453.71875 C 695.660156 453.71875 672.71875 430.78125 672.71875 402.582031 C 672.71875 374.382812 695.660156 351.445312 723.855469 351.445312 C 752.054688 351.445312 774.996094 374.386719 774.996094 402.582031 C 774.996094 430.78125 752.054688 453.71875 723.855469 453.71875 Z M 723.855469 359.84375 C 700.292969 359.84375 681.121094 379.015625 681.121094 402.582031 C 681.121094 426.148438 700.292969 445.320312 723.855469 445.320312 C 747.421875 445.320312 766.59375 426.148438 766.59375 402.582031 C 766.59375 379.015625 747.421875 359.84375 723.855469 359.84375 Z M 723.855469 359.84375 " fill-opacity="1" fill-rule="nonzero"/><path fill="#ffd56e" d="M 569.53125 552.046875 L 445.671875 552.046875 C 433.984375 552.046875 424.992188 541.71875 426.605469 530.140625 L 431.851562 492.441406 C 435.925781 463.183594 460.941406 441.410156 490.476562 441.410156 L 524.722656 441.410156 C 554.257812 441.410156 579.277344 463.183594 583.347656 492.441406 L 588.597656 530.140625 C 590.207031 541.71875 581.21875 552.046875 569.53125 552.046875 Z M 569.53125 552.046875 " fill-opacity="1" fill-rule="nonzero"/><path fill="#00425c" d="M 569.53125 556.246094 L 445.671875 556.246094 C 438.886719 556.246094 432.4375 553.3125 427.980469 548.191406 C 423.527344 543.074219 421.507812 536.285156 422.445312 529.5625 L 427.691406 491.863281 C 429.800781 476.707031 437.316406 462.832031 448.859375 452.785156 C 460.398438 442.742188 475.179688 437.210938 490.476562 437.210938 L 524.722656 437.210938 C 540.023438 437.210938 554.804688 442.742188 566.34375 452.785156 C 577.882812 462.832031 585.398438 476.707031 587.507812 491.859375 L 592.757812 529.5625 C 593.691406 536.285156 591.675781 543.074219 587.21875 548.191406 C 582.761719 553.3125 576.316406 556.246094 569.53125 556.246094 Z M 490.476562 445.609375 C 463.191406 445.609375 439.773438 465.992188 436.011719 493.019531 L 430.765625 530.722656 C 430.164062 535.035156 431.460938 539.394531 434.320312 542.679688 C 437.175781 545.964844 441.316406 547.847656 445.671875 547.847656 L 569.53125 547.847656 C 573.882812 547.847656 578.023438 545.964844 580.882812 542.679688 C 583.742188 539.394531 585.035156 535.035156 584.4375 530.722656 L 579.1875 493.019531 C 575.425781 465.992188 552.011719 445.609375 524.722656 445.609375 Z M 490.476562 445.609375 " fill-opacity="1" fill-rule="nonzero"/><path fill="#ffffff" d="M 554.539062 402.582031 C 554.539062 404.121094 554.460938 405.652344 554.3125 407.183594 C 554.160156 408.710938 553.9375 410.230469 553.636719 411.738281 C 553.335938 413.246094 552.964844 414.734375 552.515625 416.207031 C 552.070312 417.679688 551.554688 419.125 550.964844 420.542969 C 550.375 421.964844 549.71875 423.351562 548.996094 424.707031 C 548.269531 426.0625 547.480469 427.378906 546.628906 428.660156 C 545.773438 429.9375 544.859375 431.171875 543.882812 432.359375 C 542.910156 433.546875 541.878906 434.683594 540.789062 435.773438 C 539.703125 436.859375 538.566406 437.890625 537.378906 438.863281 C 536.1875 439.839844 534.957031 440.753906 533.675781 441.609375 C 532.398438 442.460938 531.082031 443.253906 529.726562 443.976562 C 528.371094 444.703125 526.984375 445.359375 525.5625 445.945312 C 524.140625 446.535156 522.695312 447.050781 521.226562 447.5 C 519.753906 447.945312 518.265625 448.316406 516.757812 448.617188 C 515.25 448.917969 513.730469 449.140625 512.199219 449.292969 C 510.671875 449.445312 509.136719 449.519531 507.601562 449.519531 C 506.0625 449.519531 504.53125 449.445312 503 449.292969 C 501.46875 449.140625 499.953125 448.917969 498.445312 448.617188 C 496.9375 448.316406 495.445312 447.945312 493.976562 447.5 C 492.503906 447.050781 491.058594 446.535156 489.636719 445.945312 C 488.21875 445.359375 486.828125 444.703125 485.472656 443.976562 C 484.117188 443.253906 482.800781 442.460938 481.523438 441.609375 C 480.246094 440.753906 479.011719 439.839844 477.824219 438.863281 C 476.636719 437.890625 475.496094 436.859375 474.410156 435.773438 C 473.324219 434.683594 472.292969 433.546875 471.316406 432.359375 C 470.34375 431.171875 469.425781 429.9375 468.574219 428.660156 C 467.71875 427.378906 466.929688 426.0625 466.207031 424.707031 C 465.480469 423.351562 464.824219 421.964844 464.234375 420.542969 C 463.648438 419.125 463.128906 417.679688 462.683594 416.207031 C 462.238281 414.734375 461.863281 413.246094 461.566406 411.738281 C 461.265625 410.230469 461.039062 408.710938 460.890625 407.183594 C 460.738281 405.652344 460.664062 404.121094 460.664062 402.582031 C 460.664062 401.042969 460.738281 399.511719 460.890625 397.980469 C 461.039062 396.453125 461.265625 394.933594 461.566406 393.425781 C 461.863281 391.917969 462.238281 390.429688 462.683594 388.957031 C 463.128906 387.484375 463.648438 386.039062 464.234375 384.621094 C 464.824219 383.199219 465.480469 381.8125 466.207031 380.457031 C 466.929688 379.101562 467.71875 377.78125 468.574219 376.503906 C 469.425781 375.226562 470.34375 373.992188 471.316406 372.804688 C 472.292969 371.617188 473.324219 370.480469 474.410156 369.390625 C 475.496094 368.304688 476.636719 367.273438 477.824219 366.300781 C 479.011719 365.324219 480.246094 364.410156 481.523438 363.554688 C 482.800781 362.699219 484.117188 361.910156 485.472656 361.1875 C 486.828125 360.460938 488.21875 359.804688 489.636719 359.21875 C 491.058594 358.628906 492.503906 358.113281 493.976562 357.664062 C 495.445312 357.21875 496.9375 356.847656 498.445312 356.546875 C 499.953125 356.246094 501.46875 356.019531 503 355.871094 C 504.53125 355.71875 506.0625 355.644531 507.601562 355.644531 C 509.136719 355.644531 510.671875 355.71875 512.199219 355.871094 C 513.730469 356.019531 515.25 356.246094 516.757812 356.546875 C 518.265625 356.847656 519.753906 357.21875 521.226562 357.664062 C 522.695312 358.113281 524.140625 358.628906 525.5625 359.21875 C 526.984375 359.804688 528.371094 360.460938 529.726562 361.1875 C 531.082031 361.910156 532.398438 362.699219 533.675781 363.554688 C 534.957031 364.410156 536.1875 365.324219 537.378906 366.300781 C 538.566406 367.273438 539.703125 368.304688 540.789062 369.390625 C 541.878906 370.480469 542.910156 371.617188 543.882812 372.804688 C 544.859375 373.992188 545.773438 375.226562 546.628906 376.503906 C 547.480469 377.78125 548.269531 379.101562 548.996094 380.457031 C 549.71875 381.8125 550.375 383.199219 550.964844 384.621094 C 551.554688 386.039062 552.070312 387.484375 552.515625 388.957031 C 552.964844 390.429688 553.335938 391.917969 553.636719 393.425781 C 553.9375 394.933594 554.160156 396.453125 554.3125 397.980469 C 554.460938 399.511719 554.539062 401.042969 554.539062 402.582031 Z M 554.539062 402.582031 " fill-opacity="1" fill-rule="nonzero"/><path fill="#00425c" d="M 507.601562 453.71875 C 479.402344 453.71875 456.460938 430.78125 456.460938 402.582031 C 456.460938 374.382812 479.402344 351.445312 507.601562 351.445312 C 535.796875 351.445312 558.738281 374.386719 558.738281 402.582031 C 558.738281 430.78125 535.796875 453.71875 507.601562 453.71875 Z M 507.601562 359.84375 C 484.035156 359.84375 464.863281 379.015625 464.863281 402.582031 C 464.863281 426.148438 484.035156 445.320312 507.601562 445.320312 C 531.164062 445.320312 550.335938 426.148438 550.335938 402.582031 C 550.335938 379.015625 531.164062 359.84375 507.601562 359.84375 Z M 507.601562 359.84375 " fill-opacity="1" fill-rule="nonzero"/><path fill="#024b78" d="M 677.65625 607.363281 L 553.796875 607.363281 C 542.113281 607.363281 533.121094 597.035156 534.730469 585.460938 L 539.980469 547.757812 C 544.050781 518.503906 569.066406 496.726562 598.605469 496.726562 L 632.851562 496.726562 C 662.386719 496.726562 687.402344 518.503906 691.476562 547.757812 L 696.722656 585.460938 C 698.335938 597.035156 689.34375 607.363281 677.65625 607.363281 Z M 677.65625 607.363281 " fill-opacity="1" fill-rule="nonzero"/><path fill="#00425c" d="M 677.65625 611.566406 L 553.800781 611.566406 C 547.011719 611.566406 540.566406 608.628906 536.109375 603.511719 C 531.65625 598.394531 529.636719 591.601562 530.574219 584.882812 L 535.820312 547.179688 C 537.929688 532.027344 545.445312 518.148438 556.984375 508.105469 C 568.527344 498.058594 583.308594 492.527344 598.605469 492.527344 L 632.851562 492.527344 C 648.148438 492.527344 662.929688 498.058594 674.472656 508.105469 C 686.011719 518.148438 693.527344 532.027344 695.636719 547.179688 L 700.886719 584.882812 C 701.820312 591.601562 699.800781 598.394531 695.347656 603.511719 C 690.890625 608.628906 684.445312 611.566406 677.65625 611.566406 Z M 598.605469 500.929688 C 571.316406 500.929688 547.902344 521.308594 544.140625 548.339844 L 538.890625 586.039062 C 538.292969 590.355469 539.585938 594.710938 542.445312 597.996094 C 545.304688 601.28125 549.445312 603.164062 553.796875 603.164062 L 677.65625 603.164062 C 682.011719 603.164062 686.148438 601.28125 689.007812 597.996094 C 691.867188 594.710938 693.164062 590.355469 692.5625 586.039062 L 687.316406 548.339844 C 683.554688 521.3125 660.136719 500.929688 632.851562 500.929688 Z M 598.605469 500.929688 " fill-opacity="1" fill-rule="nonzero"/><path fill="#ffffff" d="M 662.667969 457.902344 C 662.667969 459.4375 662.589844 460.972656 662.441406 462.5 C 662.289062 464.03125 662.0625 465.550781 661.765625 467.058594 C 661.464844 468.566406 661.089844 470.054688 660.644531 471.527344 C 660.199219 472.996094 659.679688 474.441406 659.09375 475.863281 C 658.503906 477.28125 657.847656 478.671875 657.125 480.027344 C 656.398438 481.382812 655.609375 482.699219 654.753906 483.976562 C 653.902344 485.253906 652.988281 486.488281 652.011719 487.675781 C 651.035156 488.867188 650.003906 490.003906 648.917969 491.089844 C 647.832031 492.175781 646.695312 493.207031 645.503906 494.183594 C 644.316406 495.160156 643.082031 496.074219 641.804688 496.925781 C 640.527344 497.78125 639.210938 498.570312 637.855469 499.296875 C 636.5 500.019531 635.109375 500.675781 633.691406 501.265625 C 632.269531 501.851562 630.824219 502.371094 629.355469 502.816406 C 627.882812 503.261719 626.394531 503.636719 624.886719 503.9375 C 623.378906 504.234375 621.859375 504.460938 620.328125 504.613281 C 618.800781 504.761719 617.265625 504.839844 615.726562 504.839844 C 614.191406 504.839844 612.65625 504.761719 611.128906 504.613281 C 609.597656 504.460938 608.078125 504.234375 606.570312 503.9375 C 605.0625 503.636719 603.574219 503.261719 602.101562 502.816406 C 600.632812 502.371094 599.1875 501.851562 597.765625 501.265625 C 596.347656 500.675781 594.957031 500.019531 593.601562 499.296875 C 592.246094 498.570312 590.929688 497.78125 589.652344 496.925781 C 588.375 496.074219 587.140625 495.160156 585.953125 494.183594 C 584.761719 493.207031 583.625 492.175781 582.539062 491.089844 C 581.453125 490.003906 580.421875 488.867188 579.445312 487.675781 C 578.46875 486.488281 577.554688 485.253906 576.703125 483.976562 C 575.847656 482.699219 575.058594 481.382812 574.332031 480.027344 C 573.609375 478.671875 572.953125 477.28125 572.363281 475.863281 C 571.777344 474.441406 571.257812 472.996094 570.8125 471.527344 C 570.367188 470.054688 569.992188 468.566406 569.691406 467.058594 C 569.394531 465.550781 569.167969 464.03125 569.015625 462.5 C 568.867188 460.972656 568.789062 459.4375 568.789062 457.902344 C 568.789062 456.363281 568.867188 454.828125 569.015625 453.300781 C 569.167969 451.769531 569.394531 450.25 569.691406 448.742188 C 569.992188 447.234375 570.367188 445.746094 570.8125 444.273438 C 571.257812 442.804688 571.777344 441.359375 572.363281 439.9375 C 572.953125 438.519531 573.609375 437.128906 574.332031 435.773438 C 575.058594 434.417969 575.847656 433.101562 576.703125 431.824219 C 577.554688 430.546875 578.46875 429.3125 579.445312 428.125 C 580.421875 426.933594 581.453125 425.796875 582.539062 424.710938 C 583.625 423.625 584.761719 422.59375 585.953125 421.617188 C 587.140625 420.640625 588.375 419.726562 589.652344 418.875 C 590.929688 418.019531 592.246094 417.230469 593.601562 416.503906 C 594.957031 415.78125 596.347656 415.125 597.765625 414.535156 C 599.1875 413.949219 600.632812 413.429688 602.101562 412.984375 C 603.574219 412.539062 605.0625 412.164062 606.570312 411.863281 C 608.078125 411.566406 609.597656 411.339844 611.128906 411.1875 C 612.65625 411.039062 614.191406 410.960938 615.726562 410.960938 C 617.265625 410.960938 618.800781 411.039062 620.328125 411.1875 C 621.859375 411.339844 623.378906 411.566406 624.886719 411.863281 C 626.394531 412.164062 627.882812 412.539062 629.355469 412.984375 C 630.824219 413.429688 632.269531 413.949219 633.691406 414.535156 C 635.109375 415.125 636.5 415.78125 637.855469 416.503906 C 639.210938 417.230469 640.527344 418.019531 641.804688 418.875 C 643.082031 419.726562 644.316406 420.640625 645.503906 421.617188 C 646.695312 422.59375 647.832031 423.625 648.917969 424.710938 C 650.003906 425.796875 651.035156 426.933594 652.011719 428.125 C 652.988281 429.3125 653.902344 430.546875 654.753906 431.824219 C 655.609375 433.101562 656.398438 434.417969 657.125 435.773438 C 657.847656 437.128906 658.503906 438.519531 659.09375 439.9375 C 659.679688 441.359375 660.199219 442.804688 660.644531 444.273438 C 661.089844 445.746094 661.464844 447.234375 661.765625 448.742188 C 662.0625 450.25 662.289062 451.769531 662.441406 453.300781 C 662.589844 454.828125 662.667969 456.363281 662.667969 457.902344 Z M 662.667969 457.902344 " fill-opacity="1" fill-rule="nonzero"/><path fill="#00425c" d="M 615.726562 509.039062 C 587.53125 509.039062 564.589844 486.097656 564.589844 457.902344 C 564.589844 429.703125 587.53125 406.761719 615.726562 406.761719 C 643.925781 406.761719 666.867188 429.703125 666.867188 457.902344 C 666.867188 486.097656 643.925781 509.039062 615.726562 509.039062 Z M 615.726562 415.164062 C 592.164062 415.164062 572.992188 434.335938 572.992188 457.898438 C 572.992188 481.464844 592.164062 500.636719 615.726562 500.636719 C 639.292969 500.636719 658.464844 481.464844 658.464844 457.898438 C 658.464844 434.335938 639.292969 415.164062 615.726562 415.164062 Z M 615.726562 415.164062 " fill-opacity="1" fill-rule="nonzero"/><path fill="#ffffff" d="M 262.953125 529.570312 L 45.351562 529.570312 C 33.714844 529.570312 24.28125 539.003906 24.28125 550.640625 L 24.28125 730.667969 C 24.28125 742.304688 33.714844 751.738281 45.351562 751.738281 L 146.035156 751.738281 L 284.023438 570.15625 L 284.023438 550.640625 C 284.023438 539.003906 274.589844 529.570312 262.953125 529.570312 Z M 262.953125 529.570312 " fill-opacity="1" fill-rule="nonzero"/><path fill="#00425c" d="M 146.035156 755.9375 L 45.351562 755.9375 C 31.417969 755.9375 20.082031 744.601562 20.082031 730.667969 L 20.082031 550.640625 C 20.082031 536.703125 31.417969 525.371094 45.351562 525.371094 L 262.953125 525.371094 C 276.886719 525.371094 288.222656 536.703125 288.222656 550.640625 L 288.222656 570.15625 C 288.222656 571.074219 287.921875 571.964844 287.367188 572.695312 L 149.378906 754.277344 C 148.585938 755.324219 147.347656 755.9375 146.035156 755.9375 Z M 45.351562 533.769531 C 36.050781 533.769531 28.480469 541.339844 28.480469 550.640625 L 28.480469 730.667969 C 28.480469 739.96875 36.050781 747.535156 45.351562 747.535156 L 143.953125 747.535156 L 279.824219 568.742188 L 279.824219 550.640625 C 279.824219 541.339844 272.253906 533.769531 262.953125 533.769531 Z M 284.023438 570.15625 L 284.027344 570.15625 Z M 284.023438 570.15625 " fill-opacity="1" fill-rule="nonzero"/><path fill="#ffd56e" d="M 114.445312 597.285156 C 114.445312 612.976562 101.726562 625.695312 86.035156 625.695312 C 70.34375 625.695312 57.625 612.976562 57.625 597.285156 C 57.625 581.597656 70.34375 568.878906 86.035156 568.878906 C 101.726562 568.878906 114.445312 581.597656 114.445312 597.285156 Z M 114.445312 597.285156 " fill-opacity="1" fill-rule="nonzero"/><path fill="#00425c" d="M 86.035156 629.898438 C 68.054688 629.898438 53.425781 615.269531 53.425781 597.285156 C 53.425781 579.304688 68.054688 564.675781 86.035156 564.675781 C 104.015625 564.675781 118.644531 579.304688 118.644531 597.285156 C 118.644531 615.269531 104.015625 629.898438 86.035156 629.898438 Z M 86.035156 573.078125 C 72.6875 573.078125 61.824219 583.9375 61.824219 597.289062 C 61.824219 610.636719 72.6875 621.496094 86.035156 621.496094 C 99.382812 621.496094 110.242188 610.636719 110.242188 597.289062 C 110.242188 583.9375 99.382812 573.078125 86.035156 573.078125 Z M 86.035156 573.078125 " fill-opacity="1" fill-rule="nonzero"/><path fill="#024b78" d="M 144.546875 665.488281 C 130.347656 679.683594 107.332031 679.683594 93.132812 665.488281 C 78.9375 651.289062 55.917969 651.289062 41.722656 665.488281 L 24.28125 682.925781 L 24.28125 730.667969 C 24.28125 742.304688 33.714844 751.738281 45.351562 751.738281 L 145.65625 751.738281 Z M 144.546875 665.488281 " fill-opacity="1" fill-rule="nonzero"/><path fill="#00425c" d="M 145.65625 755.9375 L 45.351562 755.9375 C 31.417969 755.9375 20.082031 744.601562 20.082031 730.667969 L 20.082031 682.925781 C 20.082031 681.8125 20.523438 680.742188 21.3125 679.957031 L 38.75 662.515625 C 46.410156 654.859375 56.59375 650.640625 67.425781 650.640625 C 78.257812 650.640625 88.441406 654.859375 96.105469 662.519531 C 108.640625 675.054688 129.039062 675.050781 141.574219 662.515625 C 142.769531 661.324219 144.5625 660.960938 146.128906 661.597656 C 147.691406 662.234375 148.722656 663.746094 148.746094 665.433594 L 149.855469 751.683594 C 149.871094 752.804688 149.433594 753.890625 148.644531 754.6875 C 147.855469 755.488281 146.777344 755.9375 145.65625 755.9375 Z M 28.480469 684.667969 L 28.480469 730.667969 C 28.480469 739.96875 36.050781 747.535156 45.351562 747.535156 L 141.398438 747.535156 L 140.457031 674.101562 C 124.792969 683.96875 103.792969 682.085938 90.164062 668.457031 C 84.089844 662.382812 76.015625 659.039062 67.425781 659.039062 C 58.839844 659.039062 50.765625 662.386719 44.691406 668.457031 Z M 28.480469 684.667969 " fill-opacity="1" fill-rule="nonzero"/><path fill="#ffffff" d="M 144.273438 757.132812 C 144.273438 766.320312 151.722656 773.769531 160.910156 773.769531 L 381.238281 773.769531 C 390.429688 773.769531 397.878906 766.320312 397.875 757.128906 L 397.820312 528.503906 L 316.359375 440.488281 L 160.925781 440.488281 C 151.738281 440.488281 144.289062 447.9375 144.289062 457.125 L 144.289062 545.941406 Z M 144.273438 757.132812 " fill-opacity="1" fill-rule="nonzero"/><path fill="#00425c" d="M 381.238281 777.96875 L 160.910156 777.96875 C 149.417969 777.96875 140.070312 768.625 140.070312 757.132812 L 140.089844 545.941406 L 140.089844 457.125 C 140.089844 445.632812 149.4375 436.285156 160.925781 436.285156 L 316.359375 436.285156 C 317.527344 436.285156 318.648438 436.773438 319.441406 437.632812 L 400.90625 525.652344 C 401.625 526.425781 402.023438 527.445312 402.023438 528.503906 L 402.078125 757.128906 C 402.078125 762.695312 399.910156 767.929688 395.976562 771.867188 C 392.039062 775.804688 386.804688 777.96875 381.238281 777.96875 Z M 148.472656 757.132812 C 148.472656 763.992188 154.050781 769.570312 160.910156 769.570312 L 381.238281 769.570312 C 384.5625 769.570312 387.6875 768.277344 390.035156 765.925781 C 392.382812 763.578125 393.675781 760.453125 393.675781 757.128906 L 393.625 530.152344 L 314.523438 444.6875 L 160.925781 444.6875 C 154.070312 444.6875 148.492188 450.265625 148.492188 457.125 L 148.492188 545.941406 Z M 148.472656 757.132812 " fill-opacity="1" fill-rule="nonzero"/><path fill="#024b78" d="M 316.359375 440.488281 L 316.359375 503.925781 C 316.359375 517.5 327.363281 528.503906 340.9375 528.503906 L 397.824219 528.503906 Z M 316.359375 440.488281 " fill-opacity="1" fill-rule="nonzero"/><path fill="#00425c" d="M 397.824219 532.703125 L 340.9375 532.703125 C 325.070312 532.703125 312.160156 519.792969 312.160156 503.925781 L 312.160156 440.488281 C 312.160156 438.757812 313.21875 437.207031 314.828125 436.574219 C 316.4375 435.945312 318.269531 436.363281 319.441406 437.632812 L 400.90625 525.648438 C 402.039062 526.875 402.339844 528.65625 401.671875 530.183594 C 401.003906 531.714844 399.492188 532.703125 397.824219 532.703125 Z M 320.558594 451.210938 L 320.558594 503.925781 C 320.558594 515.160156 329.703125 524.304688 340.9375 524.304688 L 388.210938 524.304688 Z M 320.558594 451.210938 " fill-opacity="1" fill-rule="nonzero"/><path fill="#00425c" d="M 256.726562 575.84375 L 173.550781 575.84375 C 171.230469 575.84375 169.351562 573.960938 169.351562 571.640625 C 169.351562 569.320312 171.230469 567.441406 173.550781 567.441406 L 256.726562 567.441406 C 259.046875 567.441406 260.925781 569.320312 260.925781 571.640625 C 260.925781 573.960938 259.046875 575.84375 256.726562 575.84375 Z M 256.726562 575.84375 " fill-opacity="1" fill-rule="nonzero"/><path fill="#00425c" d="M 256.726562 615.421875 L 173.550781 615.421875 C 171.230469 615.421875 169.351562 613.539062 169.351562 611.21875 C 169.351562 608.898438 171.230469 607.019531 173.550781 607.019531 L 256.726562 607.019531 C 259.046875 607.019531 260.925781 608.898438 260.925781 611.21875 C 260.925781 613.539062 259.046875 615.421875 256.726562 615.421875 Z M 256.726562 615.421875 " fill-opacity="1" fill-rule="nonzero"/><path fill="#ffffff" d="M 296.96875 571.019531 L 430.640625 571.019531 C 437.789062 571.019531 443.585938 576.8125 443.585938 583.960938 L 443.585938 717.636719 C 443.585938 724.785156 437.789062 730.578125 430.640625 730.578125 L 296.96875 730.578125 C 289.820312 730.578125 284.023438 724.785156 284.023438 717.636719 L 284.023438 583.960938 C 284.023438 576.8125 289.820312 571.019531 296.96875 571.019531 Z M 296.96875 571.019531 " fill-opacity="1" fill-rule="nonzero"/><path fill="#00425c" d="M 430.640625 734.78125 L 296.96875 734.78125 C 287.515625 734.78125 279.824219 727.089844 279.824219 717.636719 L 279.824219 583.960938 C 279.824219 574.507812 287.511719 566.816406 296.96875 566.816406 L 430.640625 566.816406 C 440.09375 566.816406 447.785156 574.507812 447.785156 583.960938 L 447.785156 717.636719 C 447.785156 727.089844 440.09375 734.78125 430.640625 734.78125 Z M 296.96875 575.21875 C 292.144531 575.21875 288.222656 579.140625 288.222656 583.960938 L 288.222656 717.636719 C 288.222656 722.457031 292.144531 726.378906 296.96875 726.378906 L 430.640625 726.378906 C 435.464844 726.378906 439.386719 722.457031 439.386719 717.636719 L 439.386719 583.960938 C 439.386719 579.140625 435.464844 575.21875 430.640625 575.21875 Z M 296.96875 575.21875 " fill-opacity="1" fill-rule="nonzero"/><path fill="#024b78" d="M 331.699219 622.390625 L 331.699219 678.570312 C 331.699219 687.382812 341.40625 692.742188 348.867188 688.046875 L 393.476562 659.957031 C 400.453125 655.566406 400.453125 645.394531 393.476562 641.003906 L 348.867188 612.914062 C 341.40625 608.21875 331.699219 613.578125 331.699219 622.390625 Z M 331.699219 622.390625 " fill-opacity="1" fill-rule="nonzero"/><path fill="#00425c" d="M 342.910156 694 C 340.367188 694 337.8125 693.351562 335.457031 692.050781 C 330.472656 689.300781 327.5 684.261719 327.5 678.570312 L 327.5 622.390625 C 327.5 616.703125 330.472656 611.660156 335.457031 608.910156 C 340.4375 606.160156 346.285156 606.328125 351.101562 609.359375 L 395.714844 637.449219 C 400.21875 640.285156 402.910156 645.15625 402.910156 650.480469 C 402.910156 655.804688 400.21875 660.675781 395.714844 663.511719 L 351.101562 691.601562 C 348.566406 693.199219 345.742188 694 342.910156 694 Z M 342.902344 615.378906 C 341.746094 615.378906 340.585938 615.671875 339.515625 616.265625 C 337.25 617.515625 335.898438 619.804688 335.898438 622.390625 L 335.898438 678.570312 C 335.898438 681.15625 337.25 683.445312 339.515625 684.695312 C 341.78125 685.945312 344.4375 685.871094 346.625 684.492188 L 391.238281 656.402344 C 393.316406 655.09375 394.507812 652.9375 394.507812 650.480469 C 394.507812 648.027344 393.316406 645.867188 391.238281 644.558594 L 346.625 616.46875 C 345.472656 615.742188 344.191406 615.378906 342.902344 615.378906 Z M 342.902344 615.378906 " fill-opacity="1" fill-rule="nonzero"/><path fill="#00425c" d="M 256.726562 655 L 173.550781 655 C 171.230469 655 169.351562 653.117188 169.351562 650.796875 C 169.351562 648.476562 171.230469 646.597656 173.550781 646.597656 L 256.726562 646.597656 C 259.046875 646.597656 260.925781 648.480469 260.925781 650.796875 C 260.925781 653.117188 259.046875 655 256.726562 655 Z M 256.726562 655 " fill-opacity="1" fill-rule="nonzero"/><path fill="#00425c" d="M 256.726562 694.578125 L 173.550781 694.578125 C 171.230469 694.578125 169.351562 692.695312 169.351562 690.378906 C 169.351562 688.058594 171.230469 686.175781 173.550781 686.175781 L 256.726562 686.175781 C 259.046875 686.175781 260.925781 688.058594 260.925781 690.378906 C 260.925781 692.695312 259.046875 694.578125 256.726562 694.578125 Z M 256.726562 694.578125 " fill-opacity="1" fill-rule="nonzero"/><path fill="#00425c" d="M 256.726562 734.15625 L 173.550781 734.15625 C 171.230469 734.15625 169.351562 732.277344 169.351562 729.957031 C 169.351562 727.636719 171.230469 725.757812 173.550781 725.757812 L 256.726562 725.757812 C 259.046875 725.757812 260.925781 727.636719 260.925781 729.957031 C 260.925781 732.277344 259.046875 734.15625 256.726562 734.15625 Z M 256.726562 734.15625 " fill-opacity="1" fill-rule="nonzero"/><path fill="#ffd56e" d="M 284.023438 524.621094 L 194.753906 524.621094 C 181.855469 524.621094 171.300781 514.070312 171.300781 501.171875 C 171.300781 488.273438 181.855469 477.71875 194.753906 477.71875 L 284.023438 477.71875 Z M 284.023438 524.621094 " fill-opacity="1" fill-rule="nonzero"/><path fill="#00425c" d="M 284.023438 528.824219 L 194.753906 528.824219 C 179.507812 528.824219 167.101562 516.417969 167.101562 501.171875 C 167.101562 485.925781 179.507812 473.519531 194.753906 473.519531 L 284.023438 473.519531 C 286.34375 473.519531 288.222656 475.402344 288.222656 477.71875 C 288.222656 480.039062 286.34375 481.921875 284.023438 481.921875 L 194.753906 481.921875 C 184.140625 481.921875 175.503906 490.558594 175.503906 501.171875 C 175.503906 511.785156 184.140625 520.421875 194.753906 520.421875 L 284.023438 520.421875 C 286.34375 520.421875 288.222656 522.304688 288.222656 524.621094 C 288.222656 526.941406 286.34375 528.824219 284.023438 528.824219 Z M 284.023438 528.824219 " fill-opacity="1" fill-rule="nonzero"/></svg>