<svg xmlns="http://www.w3.org/2000/svg" xmlns:xlink="http://www.w3.org/1999/xlink" width="1080" zoomAndPan="magnify" viewBox="0 0 810 809.999993" height="1080" preserveAspectRatio="xMidYMid meet" version="1.0"><defs><g/><clipPath id="e1a5aa31cd"><path d="M 1 181.863281 L 809 181.863281 L 809 628.113281 L 1 628.113281 Z M 1 181.863281 " clip-rule="nonzero"/></clipPath></defs><g clip-path="url(#e1a5aa31cd)"><path fill="#02ab8a" d="M 1.484375 181.957031 L 310.40625 466.234375 L 270.378906 332.90625 L 507.152344 525.546875 L 477.636719 422.496094 L 808.519531 628.113281 L 404.144531 296.554688 L 439.082031 426.269531 L 196.019531 224.609375 L 234.3125 349.191406 Z M 1.484375 181.957031 " fill-opacity="1" fill-rule="nonzero"/></g><g fill="#00425c" fill-opacity="1"><g transform="translate(53.233722, 434.214088)"><g><path d="M 53.9375 -98.96875 L 31.21875 0 L -0.578125 0 L 22.15625 -98.96875 Z M 70.625 -98.96875 L 102.140625 -98.96875 L 96.671875 -75.234375 L 65.171875 -75.234375 Z M 86.03125 -58.265625 L 80.84375 -35.53125 L 56.109375 -35.53125 L 61.28125 -58.265625 Z M 86.03125 -58.265625 "/></g></g></g><g fill="#00425c" fill-opacity="1"><g transform="translate(149.182895, 434.214088)"><g><path d="M 55.234375 -98.96875 L 32.515625 0 L 0.71875 0 L 23.453125 -98.96875 Z M 55.234375 -98.96875 "/></g></g></g><g fill="#00425c" fill-opacity="1"><g transform="translate(205.141239, 434.214088)"><g><path d="M 111.34375 -98.96875 L 105.59375 -73.65625 L 89.90625 -73.65625 L 95.671875 -98.96875 Z M 73.21875 -73.65625 L 56.25 0 L 24.453125 0 L 41.4375 -73.65625 L 8.921875 -73.65625 L 14.671875 -98.96875 L 78.984375 -98.96875 Z M 73.21875 -73.65625 "/></g></g></g><g fill="#00425c" fill-opacity="1"><g transform="translate(309.002246, 434.214088)"><g><path d="M 69.765625 -100.703125 C 84.441406 -100.703125 95.207031 -97.03125 102.0625 -89.6875 C 108.914062 -82.351562 110.765625 -71.878906 107.609375 -58.265625 L 77.25 -58.265625 C 78.59375 -64.015625 78.132812 -68.566406 75.875 -71.921875 C 73.625 -75.285156 69.71875 -76.96875 64.15625 -76.96875 C 63.289062 -76.96875 62.617188 -76.921875 62.140625 -76.828125 L 67.609375 -100.703125 Z M 40.140625 -54.09375 L 38.125 -44.890625 L 27.765625 -0.4375 C 7.429688 -6.28125 0.378906 -22.628906 6.609375 -49.484375 C 12.847656 -76.335938 27.472656 -92.691406 50.484375 -98.546875 Z M 49.484375 -22.015625 L 51.203125 -22.015625 C 57.347656 -22.015625 62.363281 -23.59375 66.25 -26.75 C 70.132812 -29.914062 72.742188 -34.378906 74.078125 -40.140625 L 103.4375 -40.140625 C 100.269531 -26.617188 93.722656 -16.257812 83.796875 -9.0625 C 73.867188 -1.875 61.328125 1.71875 46.171875 1.71875 L 44.015625 1.71875 Z M 49.484375 -22.015625 "/></g></g></g><g fill="#00425c" fill-opacity="1"><g transform="translate(420.918974, 434.214088)"><g><path d="M 74.796875 -98.96875 L 22.71875 0 L -9.78125 0 L 49.046875 -98.96875 Z M 87.171875 -90.625 L 99.40625 0 L 65.734375 0 L 64.734375 -13.953125 L 46.75 -13.953125 L 58.546875 -36.109375 L 63.296875 -36.109375 L 62.71875 -44.171875 Z M 87.171875 -90.625 "/></g></g></g><g fill="#00425c" fill-opacity="1"><g transform="translate(532.835701, 434.214088)"><g><path d="M 31.21875 0 L -0.578125 0 L 22.15625 -98.96875 L 53.9375 -98.96875 Z M 47.90625 0 L 53.65625 -25.3125 L 87.75 -25.3125 L 82 0 Z M 47.90625 0 "/></g></g></g><g fill="#00425c" fill-opacity="1"><g transform="translate(628.784875, 434.214088)"><g><path d="M 69.765625 -100.703125 C 84.441406 -100.703125 95.207031 -97.03125 102.0625 -89.6875 C 108.914062 -82.351562 110.765625 -71.878906 107.609375 -58.265625 L 77.25 -58.265625 C 78.59375 -64.015625 78.132812 -68.566406 75.875 -71.921875 C 73.625 -75.285156 69.71875 -76.96875 64.15625 -76.96875 C 63.289062 -76.96875 62.617188 -76.921875 62.140625 -76.828125 L 67.609375 -100.703125 Z M 40.140625 -54.09375 L 38.125 -44.890625 L 27.765625 -0.4375 C 7.429688 -6.28125 0.378906 -22.628906 6.609375 -49.484375 C 12.847656 -76.335938 27.472656 -92.691406 50.484375 -98.546875 Z M 49.484375 -22.015625 L 51.203125 -22.015625 C 57.347656 -22.015625 62.363281 -23.59375 66.25 -26.75 C 70.132812 -29.914062 72.742188 -34.378906 74.078125 -40.140625 L 103.4375 -40.140625 C 100.269531 -26.617188 93.722656 -16.257812 83.796875 -9.0625 C 73.867188 -1.875 61.328125 1.71875 46.171875 1.71875 L 44.015625 1.71875 Z M 49.484375 -22.015625 "/></g></g></g><g fill="#00425c" fill-opacity="1"><g transform="translate(740.733666, 434.214088)"><g/></g></g></svg>