<svg xmlns="http://www.w3.org/2000/svg" xmlns:xlink="http://www.w3.org/1999/xlink" width="419" zoomAndPan="magnify" viewBox="0 0 314.25 21.75" height="29" preserveAspectRatio="xMidYMid meet" version="1.0"><defs><g/><clipPath id="a5e4d230f3"><path d="M 1.414062 8 L 312.09375 8 L 312.09375 12 L 1.414062 12 Z M 1.414062 8 " clip-rule="nonzero"/></clipPath><clipPath id="b23b19f18a"><path d="M 1.414062 8.828125 L 133.65625 8.828125 L 133.65625 17.65625 L 1.414062 17.65625 Z M 1.414062 8.828125 " clip-rule="nonzero"/></clipPath><clipPath id="7b89c726ec"><path d="M 5.828125 8.828125 L 129.210938 8.828125 C 131.648438 8.828125 133.625 10.804688 133.625 13.242188 C 133.625 15.679688 131.648438 17.65625 129.210938 17.65625 L 5.828125 17.65625 C 3.390625 17.65625 1.414062 15.679688 1.414062 13.242188 C 1.414062 10.804688 3.390625 8.828125 5.828125 8.828125 Z M 5.828125 8.828125 " clip-rule="nonzero"/></clipPath><clipPath id="1c1ef61539"><path d="M 1.414062 9.570312 L 7.261719 9.570312 L 7.261719 14.875 L 1.414062 14.875 Z M 1.414062 9.570312 " clip-rule="nonzero"/></clipPath><clipPath id="a6ca98570d"><path d="M 4.066406 9.570312 L 4.597656 9.570312 C 6.0625 9.570312 7.25 10.757812 7.25 12.222656 C 7.25 13.6875 6.0625 14.875 4.597656 14.875 L 4.066406 14.875 C 2.601562 14.875 1.414062 13.6875 1.414062 12.222656 C 1.414062 10.757812 2.601562 9.570312 4.066406 9.570312 Z M 4.066406 9.570312 " clip-rule="nonzero"/></clipPath></defs><g clip-path="url(#a5e4d230f3)"><path stroke-linecap="butt" transform="matrix(0.741477, 0, 0, 0.741477, 1.414776, 8.827035)" fill="none" stroke-linejoin="miter" d="M -0.000962682 1.998118 L 418.383643 1.998118 " stroke="#3da9a9" stroke-width="4" stroke-opacity="1" stroke-miterlimit="4"/></g><g clip-path="url(#b23b19f18a)"><g clip-path="url(#7b89c726ec)"><path fill="#3da9a9" d="M 1.414062 8.828125 L 133.621094 8.828125 L 133.621094 17.65625 L 1.414062 17.65625 Z M 1.414062 8.828125 " fill-opacity="1" fill-rule="nonzero"/></g></g><g clip-path="url(#1c1ef61539)"><g clip-path="url(#a6ca98570d)"><path fill="#3da9a9" d="M 1.414062 9.570312 L 7.261719 9.570312 L 7.261719 14.875 L 1.414062 14.875 Z M 1.414062 9.570312 " fill-opacity="1" fill-rule="nonzero"/></g></g><g fill="#3da9a9" fill-opacity="1"><g transform="translate(125.180185, 15.133666)"><g><path d="M 0.875 -0.609375 C 0.875 -0.867188 0.929688 -1.066406 1.046875 -1.203125 C 1.171875 -1.335938 1.34375 -1.40625 1.5625 -1.40625 C 1.789062 -1.40625 1.96875 -1.335938 2.09375 -1.203125 C 2.21875 -1.066406 2.28125 -0.867188 2.28125 -0.609375 C 2.28125 -0.359375 2.210938 -0.164062 2.078125 -0.03125 C 1.953125 0.101562 1.78125 0.171875 1.5625 0.171875 C 1.363281 0.171875 1.195312 0.109375 1.0625 -0.015625 C 0.9375 -0.140625 0.875 -0.335938 0.875 -0.609375 Z M 0.875 -0.609375 "/></g></g></g></svg>