<svg xmlns="http://www.w3.org/2000/svg" xmlns:xlink="http://www.w3.org/1999/xlink" width="419" zoomAndPan="magnify" viewBox="0 0 314.25 9" height="12" preserveAspectRatio="xMidYMid meet" version="1.0"><defs><clipPath id="02156fd6d0"><path d="M 15.375 0 L 298.199219 0 L 298.199219 3 L 15.375 3 Z M 15.375 0 " clip-rule="nonzero"/></clipPath><clipPath id="e1ae91d709"><path d="M 177.425781 0 L 297.8125 0 L 297.8125 8.035156 L 177.425781 8.035156 Z M 177.425781 0 " clip-rule="nonzero"/></clipPath><clipPath id="784a67e956"><path d="M 181.441406 0 L 293.765625 0 C 295.984375 0 297.78125 1.800781 297.78125 4.019531 C 297.78125 6.238281 295.984375 8.035156 293.765625 8.035156 L 181.441406 8.035156 C 179.222656 8.035156 177.425781 6.238281 177.425781 4.019531 C 177.425781 1.800781 179.222656 0 181.441406 0 Z M 181.441406 0 " clip-rule="nonzero"/></clipPath><clipPath id="a4a67c6fc4"><path d="M 292.46875 0.675781 L 297.78125 0.675781 L 297.78125 7.109375 L 292.46875 7.109375 Z M 292.46875 0.675781 " clip-rule="nonzero"/></clipPath><clipPath id="729860bae7"><path d="M 295.125 0.675781 C 295.832031 0.675781 296.507812 0.953125 297.003906 1.453125 C 297.503906 1.953125 297.78125 2.628906 297.78125 3.332031 L 297.78125 4.453125 C 297.78125 5.15625 297.503906 5.832031 297.003906 6.332031 C 296.507812 6.828125 295.832031 7.109375 295.125 7.109375 C 294.421875 7.109375 293.746094 6.828125 293.246094 6.332031 C 292.75 5.832031 292.46875 5.15625 292.46875 4.453125 L 292.46875 3.332031 C 292.46875 2.628906 292.75 1.953125 293.246094 1.453125 C 293.746094 0.953125 294.421875 0.675781 295.125 0.675781 Z M 295.125 0.675781 " clip-rule="nonzero"/></clipPath></defs><g clip-path="url(#02156fd6d0)"><path stroke-linecap="butt" transform="matrix(0.675, 0, 0, 0.675, 15.375, 0)" fill="none" stroke-linejoin="miter" d="M 0.000000000000042633 2.002315 L 418.379647 2.002315 " stroke="#3da9a9" stroke-width="4" stroke-opacity="1" stroke-miterlimit="4"/></g><g clip-path="url(#e1ae91d709)"><g clip-path="url(#784a67e956)"><path fill="#3da9a9" d="M 177.425781 0 L 297.78125 0 L 297.78125 8.035156 L 177.425781 8.035156 Z M 177.425781 0 " fill-opacity="1" fill-rule="nonzero"/></g></g><g clip-path="url(#a4a67c6fc4)"><g clip-path="url(#729860bae7)"><path fill="#3da9a9" d="M 292.46875 0.675781 L 297.78125 0.675781 L 297.78125 7.109375 L 292.46875 7.109375 Z M 292.46875 0.675781 " fill-opacity="1" fill-rule="nonzero"/></g></g></svg>