<svg xmlns="http://www.w3.org/2000/svg" xmlns:xlink="http://www.w3.org/1999/xlink" width="1920" zoomAndPan="magnify" viewBox="0 0 1440 809.999993" height="1080" preserveAspectRatio="xMidYMid meet" version="1.0"><defs><filter x="0%" y="0%" width="100%" height="100%" id="d30822a867"><feColorMatrix values="0 0 0 0 1 0 0 0 0 1 0 0 0 0 1 0 0 0 1 0" color-interpolation-filters="sRGB"/></filter><g/><clipPath id="32c7a5872b"><path d="M 1660.164062 745.9375 L -131.015625 1024.75 L -262.058594 182.886719 L 1529.121094 -95.925781 Z M 1660.164062 745.9375 " clip-rule="nonzero"/></clipPath><clipPath id="8758610f07"><path d="M 1660.164062 745.9375 L -131.015625 1024.75 L -262.058594 182.886719 L 1529.121094 -95.925781 Z M 1660.164062 745.9375 " clip-rule="nonzero"/></clipPath><mask id="fc559e660b"><g filter="url(#d30822a867)"><rect x="-144" width="1728" fill="#000000" y="-80.999999" height="971.999992" fill-opacity="0.66"/></g></mask><clipPath id="aeebff7c68"><path d="M 0 64 L 1440 64 L 1440 381 L 0 381 Z M 0 64 " clip-rule="nonzero"/></clipPath><clipPath id="190266225c"><path d="M -261.996094 98.433594 L 1539.40625 -7.230469 L 1589.078125 839.566406 L -212.324219 945.230469 Z M -261.996094 98.433594 " clip-rule="nonzero"/></clipPath><clipPath id="a31f460b69"><path d="M -261.996094 98.433594 L 1539.40625 -7.230469 L 1589.078125 839.566406 L -212.324219 945.230469 Z M -261.996094 98.433594 " clip-rule="nonzero"/></clipPath><clipPath id="3954abceb9"><rect x="0" width="1440" y="0" height="381"/></clipPath><clipPath id="a138458f4e"><path d="M 208 644 L 745 644 L 745 805 L 208 805 Z M 208 644 " clip-rule="nonzero"/></clipPath><clipPath id="ecdd3788b5"><path d="M 12.980469 593.921875 L 767.695312 520.785156 L 790.554688 756.679688 L 35.839844 829.816406 Z M 12.980469 593.921875 " clip-rule="nonzero"/></clipPath><clipPath id="64ff42db0b"><path d="M 12.980469 593.921875 L 767.695312 520.785156 L 790.554688 756.679688 L 35.839844 829.816406 Z M 12.980469 593.921875 " clip-rule="nonzero"/></clipPath><clipPath id="fe426fd48e"><path d="M 18 593 L 779 593 L 779 769 L 18 769 Z M 18 593 " clip-rule="nonzero"/></clipPath><clipPath id="da580d9456"><path d="M 12.980469 593.921875 L 767.695312 520.785156 L 790.554688 756.679688 L 35.839844 829.816406 Z M 12.980469 593.921875 " clip-rule="nonzero"/></clipPath><clipPath id="fa1c239ffb"><path d="M 12.980469 593.921875 L 767.695312 520.785156 L 790.554688 756.679688 L 35.839844 829.816406 Z M 12.980469 593.921875 " clip-rule="nonzero"/></clipPath><clipPath id="3fb86e5cd3"><path d="M 17 593 L 357 593 L 357 716 L 17 716 Z M 17 593 " clip-rule="nonzero"/></clipPath><clipPath id="b6ac2efae8"><path d="M 12.980469 593.921875 L 767.695312 520.785156 L 790.554688 756.679688 L 35.839844 829.816406 Z M 12.980469 593.921875 " clip-rule="nonzero"/></clipPath><clipPath id="d6a2d21e11"><path d="M 12.980469 593.921875 L 767.695312 520.785156 L 790.554688 756.679688 L 35.839844 829.816406 Z M 12.980469 593.921875 " clip-rule="nonzero"/></clipPath><clipPath id="0177770684"><path d="M 267 766 L 282 766 L 282 769 L 267 769 Z M 267 766 " clip-rule="nonzero"/></clipPath><clipPath id="ccd049253a"><path d="M 12.980469 593.921875 L 767.695312 520.785156 L 790.554688 756.679688 L 35.839844 829.816406 Z M 12.980469 593.921875 " clip-rule="nonzero"/></clipPath><clipPath id="fa8139f95b"><path d="M 12.980469 593.921875 L 767.695312 520.785156 L 790.554688 756.679688 L 35.839844 829.816406 Z M 12.980469 593.921875 " clip-rule="nonzero"/></clipPath><clipPath id="7b64fd6ce1"><path d="M 206 765 L 278 765 L 278 770 L 206 770 Z M 206 765 " clip-rule="nonzero"/></clipPath><clipPath id="87885e9ecb"><path d="M 12.980469 593.921875 L 767.695312 520.785156 L 790.554688 756.679688 L 35.839844 829.816406 Z M 12.980469 593.921875 " clip-rule="nonzero"/></clipPath><clipPath id="aa05d158fa"><path d="M 12.980469 593.921875 L 767.695312 520.785156 L 790.554688 756.679688 L 35.839844 829.816406 Z M 12.980469 593.921875 " clip-rule="nonzero"/></clipPath><clipPath id="ab13b14711"><path d="M 427 224.304688 L 1013 224.304688 L 1013 547.554688 L 427 547.554688 Z M 427 224.304688 " clip-rule="nonzero"/></clipPath></defs><rect x="-144" width="1728" fill="#ffffff" y="-80.999999" height="971.999992" fill-opacity="1"/><rect x="-144" width="1728" fill="#cecfd7" y="-80.999999" height="971.999992" fill-opacity="1"/><g clip-path="url(#32c7a5872b)"><g clip-path="url(#8758610f07)"><path fill="#00425c" d="M 1653.914062 725.203125 L 1526.113281 -95.824219 L -258.617188 181.984375 L -138.660156 952.621094 C -118.144531 933.421875 -100.429688 913.558594 -86.453125 893.480469 C 121.527344 593.535156 574.605469 590.726562 884.386719 684.542969 C 1117.441406 755.195312 1402.890625 785.882812 1653.914062 725.203125 Z M 1653.914062 725.203125 " fill-opacity="1" fill-rule="evenodd"/></g></g><path fill="#00425c" d="M -99.464844 -247.910156 L 1464.957031 -247.910156 L 1464.957031 155 L -99.464844 155 Z M -99.464844 -247.910156 " fill-opacity="1" fill-rule="nonzero"/><g mask="url(#fc559e660b)"><g transform="matrix(1, 0, 0, 1, 0, 429)"><g clip-path="url(#3954abceb9)"><g clip-path="url(#aeebff7c68)"><g clip-path="url(#190266225c)"><g clip-path="url(#a31f460b69)"><path fill="#cecfd7" d="M -257.777344 119.574219 L -209.34375 945.308594 L 1585.621094 840.019531 L 1540.160156 64.96875 C 1518 82.039062 1498.554688 100.03125 1482.792969 118.597656 C 1248.136719 396.003906 798.90625 355.632812 500.878906 233.160156 C 276.671875 140.953125 -3.257812 83.355469 -257.777344 119.574219 Z M -257.777344 119.574219 " fill-opacity="1" fill-rule="evenodd"/></g></g></g></g></g></g><g clip-path="url(#a138458f4e)"><g clip-path="url(#ecdd3788b5)"><g clip-path="url(#64ff42db0b)"><path fill="#02ab8a" d="M 744.035156 663.566406 C 730.121094 660.472656 713.898438 658.40625 696.15625 658.667969 C 690.039062 658.679688 683.742188 659.070312 677.320312 659.691406 C 650.269531 662.3125 621.078125 669.945312 590.464844 682.378906 C 579.609375 686.855469 570.53125 690.867188 562.027344 694.820312 C 553.324219 698.941406 544.226562 703.460938 533.125 709.128906 C 513.019531 719.59375 492.339844 730.847656 474.847656 740.480469 L 472.699219 741.5625 C 454.285156 751.429688 435.242188 761.578125 416.710938 770.214844 C 407.453125 774.679688 397.878906 778.8125 388.34375 782.574219 C 377.972656 786.785156 368.960938 789.988281 360.542969 792.554688 C 343.304688 798.007812 326.175781 801.5625 309.652344 803.164062 C 292.125 804.863281 275.328125 804.378906 259.621094 801.605469 C 240.164062 798.464844 222.726562 792.074219 208.363281 785.164062 C 222.203125 788.191406 238.359375 790.339844 255.945312 790.019531 C 262.066406 790.007812 268.367188 789.6875 274.789062 789.066406 C 301.84375 786.445312 331.027344 778.734375 361.640625 766.304688 C 371.796875 762.113281 381.15625 758.003906 390.074219 753.863281 C 400.027344 749.109375 409.816406 744.160156 418.980469 739.558594 C 439.085938 729.089844 459.621094 717.851562 477.253906 708.207031 L 480.433594 706.441406 C 498.507812 696.824219 517.203125 686.859375 535.316406 678.40625 C 545.132812 673.738281 554.699219 669.535156 563.75 665.964844 C 574.542969 661.640625 583.417969 658.523438 591.546875 655.984375 C 608.785156 650.53125 625.917969 646.976562 642.4375 645.375 C 659.96875 643.675781 676.773438 644.234375 692.472656 646.933594 C 712.078125 650.132812 729.59375 656.589844 744.035156 663.566406 " fill-opacity="1" fill-rule="nonzero"/></g></g></g><g clip-path="url(#fe426fd48e)"><g clip-path="url(#da580d9456)"><g clip-path="url(#fa1c239ffb)"><path fill="#00425c" d="M 778.816406 649.015625 C 778.128906 648.71875 775.511719 647.226562 770.945312 645.195312 C 765.746094 642.640625 758.070312 639.304688 748.484375 635.789062 C 729.160156 628.78125 701.917969 621.953125 670.011719 622.566406 C 638.148438 622.890625 601.71875 630.933594 563.289062 646.164062 C 553.683594 650.011719 543.957031 654.078125 534.121094 658.527344 C 524.292969 663.050781 514.34375 667.875 504.34375 672.847656 C 484.414062 682.863281 464.1875 693.5625 443.894531 704.335938 C 423.648438 714.820312 403.40625 725.375 383.316406 734.457031 C 373.351562 739.0625 363.34375 743.308594 353.445312 747.109375 C 343.554688 750.980469 333.769531 754.476562 324.070312 757.3125 C 314.664062 760.1875 305.359375 762.621094 296.21875 764.449219 C 296.21875 764.449219 296.074219 764.464844 295.863281 764.558594 C 295.367188 764.679688 294.363281 764.851562 293.003906 765.125 C 292.144531 765.28125 291.359375 765.433594 290.5 765.589844 C 289.144531 765.863281 287.492188 766.097656 285.695312 766.34375 C 284.402344 766.542969 283.039062 766.75 281.523438 766.894531 C 280.234375 767.09375 278.789062 767.234375 277.347656 767.371094 C 274.25 767.746094 270.792969 768.078125 267.097656 768.292969 C 266.230469 768.378906 265.359375 768.390625 264.496094 768.472656 C 263.042969 768.539062 261.59375 768.605469 260.070312 768.683594 C 258.765625 768.738281 257.386719 768.796875 256.082031 768.851562 C 253.824219 768.851562 251.578125 768.925781 249.167969 768.867188 C 243.417969 768.914062 237.28125 768.707031 230.75 768.175781 C 226.277344 767.878906 221.648438 767.457031 216.855469 766.828125 C 213.539062 766.417969 210.144531 765.949219 206.664062 765.335938 C 206.515625 765.351562 206.445312 765.355469 206.367188 765.296875 C 149.242188 755.898438 75.511719 724.742188 18.101562 634.988281 C 23.324219 641.542969 104.046875 740.402344 221.824219 740.714844 C 251.6875 739.277344 285.148438 731.375 320.210938 717.488281 C 321.539062 716.921875 322.875 716.429688 324.207031 715.863281 C 332.46875 712.515625 340.9375 708.929688 349.371094 705.050781 C 359.199219 700.53125 369.148438 695.707031 379.085938 690.8125 C 399.078125 680.71875 419.304688 670.019531 439.527344 659.25 C 459.84375 648.757812 480.078125 638.132812 500.105469 629.128906 C 510.136719 624.445312 520.140625 620.199219 530.039062 616.402344 C 539.929688 612.527344 549.710938 609.03125 559.410156 606.125 C 598.160156 594.214844 635.070312 591.144531 667.480469 596.453125 C 699.933594 601.464844 727.78125 614.570312 747.601562 626.703125 C 757.433594 632.742188 765.351562 638.601562 770.695312 642.597656 C 775.40625 646.144531 778.101562 648.433594 778.816406 649.015625 " fill-opacity="1" fill-rule="nonzero"/></g></g></g><g clip-path="url(#3fb86e5cd3)"><g clip-path="url(#b6ac2efae8)"><g clip-path="url(#d6a2d21e11)"><path fill="#02ab8a" d="M 17.609375 593.488281 C 17.609375 593.488281 18.609375 594.605469 20.484375 596.699219 C 22.34375 598.808594 25.117188 601.894531 28.707031 605.664062 C 35.820312 613.261719 46.359375 623.808594 59.949219 635.152344 C 66.671875 640.914062 74.421875 646.550781 82.5625 652.496094 C 90.882812 658.214844 99.882812 663.851562 109.398438 669.289062 C 118.960938 674.652344 129.195312 679.46875 139.707031 684.03125 C 150.402344 688.535156 161.054688 692.15625 172.621094 695.230469 C 183.457031 698.152344 195.03125 700.074219 206.296875 701.1875 C 217.632812 702.097656 228.875 702.351562 239.777344 701.820312 C 250.65625 701.042969 261.214844 700.015625 271.171875 698.335938 C 281.121094 696.636719 290.519531 694.710938 299.152344 692.632812 C 316.398438 688.394531 330.714844 684.121094 340.707031 681.011719 C 350.734375 677.914062 356.464844 676.148438 356.464844 676.148438 C 356.464844 676.148438 355.132812 676.84375 352.636719 678.144531 C 350.125 679.410156 346.535156 681.441406 341.769531 683.695312 C 332.332031 688.324219 318.644531 694.628906 301.503906 700.617188 C 292.941406 703.628906 283.507812 706.554688 273.316406 708.941406 C 263.140625 711.410156 252.207031 713.375 240.75 714.546875 C 229.289062 715.492188 217.316406 716.105469 205.171875 715.136719 C 193.011719 714.09375 180.886719 712.328125 168.585938 709.140625 C 157.082031 705.925781 145.09375 701.691406 134.167969 696.871094 C 123.105469 692.003906 112.71875 686.195312 102.921875 680.253906 C 83.449219 668.109375 67 654.3125 54.324219 641.238281 C 41.511719 628.28125 32.402344 616.164062 26.453125 607.445312 C 23.375 603.144531 21.347656 599.554688 19.859375 597.167969 C 18.390625 594.765625 17.609375 593.488281 17.609375 593.488281 " fill-opacity="1" fill-rule="nonzero"/></g></g></g><g clip-path="url(#0177770684)"><g clip-path="url(#ccd049253a)"><g clip-path="url(#fa8139f95b)"><path fill="#00425c" d="M 281.523438 766.894531 C 279.367188 767.175781 276.921875 767.484375 274.328125 767.738281 L 273.605469 767.808594 C 271.582031 768.003906 269.414062 768.140625 267.097656 768.292969 C 270.792969 768.078125 274.25 767.746094 277.347656 767.371094 C 278.789062 767.234375 280.234375 767.09375 281.523438 766.894531 " fill-opacity="1" fill-rule="nonzero"/></g></g></g><g clip-path="url(#7b64fd6ce1)"><g clip-path="url(#87885e9ecb)"><g clip-path="url(#aa05d158fa)"><path fill="#00425c" d="M 277.347656 767.371094 C 276.339844 767.46875 275.335938 767.640625 274.328125 767.738281 L 273.605469 767.808594 C 253.375 770.203125 233.910156 769.980469 215.933594 767.0625 C 212.824219 766.5625 209.710938 765.988281 206.664062 765.335938 C 210.144531 765.949219 213.539062 766.417969 216.855469 766.828125 C 221.648438 767.457031 226.277344 767.878906 230.75 768.175781 C 237.28125 768.707031 243.417969 768.914062 249.167969 768.867188 C 251.5 768.933594 253.824219 768.851562 256.082031 768.851562 C 257.386719 768.796875 258.765625 768.738281 260.070312 768.683594 C 261.59375 768.605469 263.042969 768.539062 264.496094 768.472656 C 265.359375 768.390625 266.230469 768.378906 267.097656 768.292969 C 270.792969 768.078125 274.25 767.746094 277.347656 767.371094 " fill-opacity="1" fill-rule="nonzero"/></g></g></g><g clip-path="url(#ab13b14711)"><path fill="#02ab8a" d="M 427.882812 224.566406 L 651.519531 430.367188 L 622.542969 333.84375 L 793.953125 473.304688 L 772.585938 398.703125 L 1012.125 547.554688 L 719.382812 307.527344 L 744.675781 401.4375 L 568.714844 255.445312 L 596.433594 345.636719 Z M 427.882812 224.566406 " fill-opacity="1" fill-rule="nonzero"/></g><g fill="#ffffff" fill-opacity="1"><g transform="translate(412.354233, 401.246383)"><g><path d="M 47.015625 -86.265625 L 27.203125 0 L -0.5 0 L 19.3125 -86.265625 Z M 61.5625 -86.265625 L 89.015625 -86.265625 L 84.25 -65.578125 L 56.796875 -65.578125 Z M 74.96875 -50.78125 L 70.453125 -30.96875 L 48.890625 -30.96875 L 53.40625 -50.78125 Z M 74.96875 -50.78125 "/></g></g></g><g fill="#ffffff" fill-opacity="1"><g transform="translate(495.955055, 401.246383)"><g><path d="M 48.140625 -86.265625 L 28.328125 0 L 0.625 0 L 20.4375 -86.265625 Z M 48.140625 -86.265625 "/></g></g></g><g fill="#ffffff" fill-opacity="1"><g transform="translate(544.711739, 401.246383)"><g><path d="M 97.046875 -86.265625 L 92.03125 -64.1875 L 78.359375 -64.1875 L 83.375 -86.265625 Z M 63.8125 -64.1875 L 49.015625 0 L 21.3125 0 L 36.109375 -64.1875 L 7.765625 -64.1875 L 12.78125 -86.265625 L 68.828125 -86.265625 Z M 63.8125 -64.1875 "/></g></g></g><g fill="#ffffff" fill-opacity="1"><g transform="translate(635.206201, 401.246383)"><g><path d="M 60.8125 -87.765625 C 73.59375 -87.765625 82.972656 -84.566406 88.953125 -78.171875 C 94.929688 -71.773438 96.539062 -62.644531 93.78125 -50.78125 L 67.328125 -50.78125 C 68.492188 -55.789062 68.09375 -59.757812 66.125 -62.6875 C 64.164062 -65.613281 60.765625 -67.078125 55.921875 -67.078125 C 55.160156 -67.078125 54.570312 -67.035156 54.15625 -66.953125 L 58.921875 -87.765625 Z M 34.984375 -47.140625 L 33.21875 -39.109375 L 24.203125 -0.375 C 6.484375 -5.476562 0.335938 -19.726562 5.765625 -43.125 C 11.203125 -66.53125 23.945312 -80.78125 44 -85.875 Z M 43.125 -19.1875 L 44.640625 -19.1875 C 49.984375 -19.1875 54.347656 -20.5625 57.734375 -23.3125 C 61.117188 -26.070312 63.394531 -29.960938 64.5625 -34.984375 L 90.140625 -34.984375 C 87.378906 -23.191406 81.671875 -14.160156 73.015625 -7.890625 C 64.367188 -1.628906 53.445312 1.5 40.25 1.5 L 38.359375 1.5 Z M 43.125 -19.1875 "/></g></g></g><g fill="#ffffff" fill-opacity="1"><g transform="translate(732.719567, 401.246383)"><g><path d="M 65.1875 -86.265625 L 19.8125 0 L -8.53125 0 L 42.75 -86.265625 Z M 75.984375 -78.984375 L 86.640625 0 L 57.296875 0 L 56.421875 -12.15625 L 40.75 -12.15625 L 51.03125 -31.46875 L 55.171875 -31.46875 L 54.65625 -38.484375 Z M 75.984375 -78.984375 "/></g></g></g><g fill="#ffffff" fill-opacity="1"><g transform="translate(830.232933, 401.246383)"><g><path d="M 27.203125 0 L -0.5 0 L 19.3125 -86.265625 L 47.015625 -86.265625 Z M 41.75 0 L 46.765625 -22.0625 L 76.484375 -22.0625 L 71.46875 0 Z M 41.75 0 "/></g></g></g><g fill="#ffffff" fill-opacity="1"><g transform="translate(913.833755, 401.246383)"><g><path d="M 60.8125 -87.765625 C 73.59375 -87.765625 82.972656 -84.566406 88.953125 -78.171875 C 94.929688 -71.773438 96.539062 -62.644531 93.78125 -50.78125 L 67.328125 -50.78125 C 68.492188 -55.789062 68.09375 -59.757812 66.125 -62.6875 C 64.164062 -65.613281 60.765625 -67.078125 55.921875 -67.078125 C 55.160156 -67.078125 54.570312 -67.035156 54.15625 -66.953125 L 58.921875 -87.765625 Z M 34.984375 -47.140625 L 33.21875 -39.109375 L 24.203125 -0.375 C 6.484375 -5.476562 0.335938 -19.726562 5.765625 -43.125 C 11.203125 -66.53125 23.945312 -80.78125 44 -85.875 Z M 43.125 -19.1875 L 44.640625 -19.1875 C 49.984375 -19.1875 54.347656 -20.5625 57.734375 -23.3125 C 61.117188 -26.070312 63.394531 -29.960938 64.5625 -34.984375 L 90.140625 -34.984375 C 87.378906 -23.191406 81.671875 -14.160156 73.015625 -7.890625 C 64.367188 -1.628906 53.445312 1.5 40.25 1.5 L 38.359375 1.5 Z M 43.125 -19.1875 "/></g></g></g><g fill="#ffffff" fill-opacity="1"><g transform="translate(1011.394608, 401.246383)"><g/></g></g></svg>