<svg xmlns="http://www.w3.org/2000/svg" xmlns:xlink="http://www.w3.org/1999/xlink" width="1080" zoomAndPan="magnify" viewBox="0 0 810 809.999993" height="1080" preserveAspectRatio="xMidYMid meet" version="1.0"><defs><clipPath id="9a554c1815"><path d="M 33 27 L 809 27 L 809 795 L 33 795 Z M 33 27 " clip-rule="nonzero"/></clipPath><clipPath id="fc6df5dfaf"><path d="M -111.289062 534.519531 L 32.199219 27.171875 L 953.800781 287.816406 L 810.3125 795.164062 Z M -111.289062 534.519531 " clip-rule="nonzero"/></clipPath><clipPath id="71e86650a1"><path d="M -111.289062 534.519531 L 32.199219 27.171875 L 953.800781 287.816406 L 810.3125 795.164062 Z M -111.289062 534.519531 " clip-rule="nonzero"/></clipPath><clipPath id="3f290d1430"><path d="M 1 15 L 777 15 L 777 783 L 1 783 Z M 1 15 " clip-rule="nonzero"/></clipPath><clipPath id="faa6199a2e"><path d="M -143.777344 522.519531 L -0.289062 15.171875 L 921.3125 275.816406 L 777.824219 783.164062 Z M -143.777344 522.519531 " clip-rule="nonzero"/></clipPath><clipPath id="b5980247ab"><path d="M -143.777344 522.519531 L -0.289062 15.171875 L 921.3125 275.816406 L 777.824219 783.164062 Z M -143.777344 522.519531 " clip-rule="nonzero"/></clipPath></defs><g clip-path="url(#9a554c1815)"><g clip-path="url(#fc6df5dfaf)"><g clip-path="url(#71e86650a1)"><path fill="#00425c" d="M 33.949219 27.421875 L 293.929688 450.230469 L 291.292969 285.667969 L 498.675781 581.011719 L 498.253906 454.273438 L 808.527344 794.660156 L 455.167969 287.351562 L 453.175781 446.167969 L 241.542969 138.539062 L 245.019531 292.589844 Z M 33.949219 27.421875 " fill-opacity="1" fill-rule="nonzero"/></g></g></g><g clip-path="url(#3f290d1430)"><g clip-path="url(#faa6199a2e)"><g clip-path="url(#b5980247ab)"><path fill="#02ab8a" d="M 1.460938 15.421875 L 261.441406 438.230469 L 258.804688 273.667969 L 466.1875 569.011719 L 465.765625 442.273438 L 776.042969 782.660156 L 422.679688 275.351562 L 420.691406 434.167969 L 209.054688 126.539062 L 212.53125 280.589844 Z M 1.460938 15.421875 " fill-opacity="1" fill-rule="nonzero"/></g></g></g></svg>